<?xml version="1.0" encoding="utf-8"?>
<!-- Generator: Adobe Illustrator 15.0.2, SVG Export Plug-In  -->
<!DOCTYPE svg PUBLIC "-//W3C//DTD SVG 1.1//EN" "http://www.w3.org/Graphics/SVG/1.1/DTD/svg11.dtd" [
	<!ENTITY ns_flows "http://ns.adobe.com/Flows/1.0/">
]>
<svg version="1.1"
	 xmlns="http://www.w3.org/2000/svg" xmlns:xlink="http://www.w3.org/1999/xlink" xmlns:a="http://ns.adobe.com/AdobeSVGViewerExtensions/3.0/"
	 x="0px" y="0px" width="67px" height="57px" viewBox="0 0 67 57" enable-background="new 0 0 67 57" xml:space="preserve">
<defs>
</defs>
<rect id="BOUNDING_BOX_1_" fill="none" width="67" height="57"/>
<path opacity="0.3" d="M45.485,25.419h-7.904v-7.904c0-1.11-0.909-2.019-2.019-2.019h-4.125c-1.109,0-2.019,0.909-2.019,2.019v7.904
	h-7.904c-1.11,0-2.019,0.909-2.019,2.019v4.125c0,1.109,0.909,2.019,2.019,2.019h7.904v7.904c0,1.109,0.909,2.019,2.019,2.019h4.125
	c1.109,0,2.019-0.909,2.019-2.019v-7.904h7.904c1.109,0,2.019-0.909,2.019-2.019v-4.125C47.504,26.328,46.595,25.419,45.485,25.419z
	"/>
<path opacity="0.15" d="M31.438,43.504c-1.665,0-3.019-1.354-3.019-3.019v-6.904h-6.904c-1.665,0-3.019-1.354-3.019-3.019v-4.125
	c0-1.665,1.354-3.019,3.019-3.019h6.904v-6.904c0-1.665,1.354-3.019,3.019-3.019h4.125c1.664,0,3.019,1.354,3.019,3.019v6.904h6.904
	c1.664,0,3.019,1.354,3.019,3.019v4.125c0,1.664-1.354,3.019-3.019,3.019h-6.904v6.904c0,1.664-1.354,3.019-3.019,3.019H31.438z"/>
<linearGradient id="SVGID_1_" gradientUnits="userSpaceOnUse" x1="33.5005" y1="42.5039" x2="33.5005" y2="14.4966">
	<stop  offset="0" style="stop-color:#D0CBC5"/>
	<stop  offset="0.5031" style="stop-color:#FAFCEF"/>
	<stop  offset="0.9693" style="stop-color:#FFFFFF"/>
</linearGradient>
<path fill="url(#SVGID_1_)" d="M45.485,24.419h-7.904v-7.904c0-1.11-0.909-2.019-2.019-2.019h-4.125
	c-1.109,0-2.019,0.909-2.019,2.019v7.904h-7.904c-1.11,0-2.019,0.909-2.019,2.019v4.125c0,1.109,0.909,2.019,2.019,2.019h7.904
	v7.904c0,1.109,0.909,2.019,2.019,2.019h4.125c1.109,0,2.019-0.909,2.019-2.019v-7.904h7.904c1.109,0,2.019-0.909,2.019-2.019
	v-4.125C47.504,25.328,46.595,24.419,45.485,24.419z"/>
<path fill="#FFFFFF" d="M21.515,25.419h7.904v-1h-7.904c-1.11,0-2.019,0.909-2.019,2.019v1
	C19.496,26.328,20.405,25.419,21.515,25.419z"/>
<path fill="#FFFFFF" d="M31.438,15.496h4.125c1.109,0,2.019,0.909,2.019,2.019v-1c0-1.11-0.909-2.019-2.019-2.019h-4.125
	c-1.109,0-2.019,0.909-2.019,2.019v1C29.419,16.405,30.328,15.496,31.438,15.496z"/>
<path fill="#FFFFFF" d="M45.485,24.419h-7.904v1h7.904c1.109,0,2.019,0.909,2.019,2.019v-1
	C47.504,25.328,46.595,24.419,45.485,24.419z"/>
</svg>
