<?xml version="1.0" encoding="utf-8"?>
<!-- Generator: Adobe Illustrator 15.0.0, SVG Export Plug-In . SVG Version: 6.00 Build 0)  -->
<!DOCTYPE svg PUBLIC "-//W3C//DTD SVG 1.1//EN" "http://www.w3.org/Graphics/SVG/1.1/DTD/svg11.dtd">
<svg version="1.1" xmlns="http://www.w3.org/2000/svg" xmlns:xlink="http://www.w3.org/1999/xlink" x="0px" y="0px" width="67px"
	 height="57px" viewBox="0 0 67 57" enable-background="new 0 0 67 57" xml:space="preserve">
<g id="DO_NOT_EDIT_-_BOUNDING_BOX">
	<rect id="BOUNDING_BOX" fill="none" width="67" height="57"/>
</g>
<g id="PLACE_YOUR_GRAPHIC_HERE">
	<path opacity="0.3" d="M39.463,15.019c0,0.941,0.762,1.704,1.704,1.704h5.11v5.11c0,0.942,0.763,1.704,1.704,1.704
		s1.703-0.762,1.703-1.704v-5.11h5.111c0.942,0,1.704-0.763,1.704-1.704s-0.762-1.704-1.704-1.704h-5.111V8.203
		c0-0.941-0.762-1.703-1.703-1.703s-1.704,0.762-1.704,1.703v5.111h-5.11C40.225,13.314,39.463,14.077,39.463,15.019z M54.62,47.463
		c-2.253-1.318-4.489-2.184-4.489-2.184c-0.316-0.123-0.592-0.266-0.839-0.419c-1.377-0.947-2.079-2.629-2.149-2.882
		c-0.189-0.777-0.362-1.598-0.09-1.856C48.443,38.917,49,36.049,49,36.049c0.033-0.113,0.069-0.22,0.106-0.319
		c0.682,0.835,1.031-1.135,1.313-2.035c0.297-0.953,0.42-1.575,0.42-1.575c0.12-0.969-0.616-0.683-0.616-0.683L50.168,31.5
		c0.109-1.348,0.495-2.17,0.495-3.384c0.007-1.325,0.224-2.07-0.319-3.401c-0.646,0.534-1.461,0.867-2.362,0.867
		c-2.066,0-3.75-1.683-3.75-3.749v-1.327c-3.198-0.976-3.701,0.338-4.803,0.209c-1.121-0.136-1.273,0.32-1.493,0.723
		c-0.22,0.399,0,0.722-0.612,0.747c-0.616,0.031-0.886,0.499-0.886,0.499c-1.826,2.93-1.15,3.809-1.211,5.682
		c-0.037,0.997,0.123,1.737,0.646,3.111L35.815,31.4c0,0-0.716-0.336-0.662,0.636c0,0-0.103,0.304,0.306,1.604
		c0.244,0.747,0.43,2.827,1.125,2.168c0.023,0.076,0.054,0.159,0.08,0.238c0,0,0.55,2.868,1.94,4.072
		c0.283,0.263,0.104,1.082-0.09,1.857c-0.08,0.298-0.477,2.322-2.925,3.304c0,0-2.24,0.865-4.486,2.184c0,0-1.514,0.755-1.831,2.013
		L29.24,49.66c1.278,0.73,2.789,1.326,4.545,1.782c4.293,1.111,7.25,1.085,9.254,1.043c2.003,0.042,4.958,0.068,9.254-1.043
		c1.627-0.423,3.012-0.969,4.206-1.634l-0.063-0.333C56.124,48.218,54.62,47.463,54.62,47.463z M34.869,43.414
		c0.907-0.364,1.469-0.979,1.691-1.87c0.054-0.213,0.095-0.389,0.125-0.53c-0.905-1.081-1.443-2.534-1.729-3.535
		c-0.84-0.671-1.11-1.927-1.279-2.707c-0.011-0.052-0.021-0.097-0.031-0.146c-1.073,0.455-2.226,0.687-3.473,0.687
		c-1.276,0-2.459-0.24-3.557-0.721c-1.097-0.477-2.056-1.123-2.868-1.938c-0.816-0.814-1.461-1.77-1.941-2.866
		c-0.479-1.101-0.717-2.287-0.717-3.563c0-1.272,0.238-2.461,0.717-3.559c0.48-1.1,1.125-2.055,1.941-2.869
		c0.813-0.816,1.771-1.463,2.868-1.939c1.098-0.479,2.28-0.719,3.557-0.719c1.282,0,2.466,0.238,3.563,0.719
		c1.1,0.478,2.056,1.123,2.871,1.939c0.002,0.002,0.004,0.005,0.006,0.007c0.422-0.53,1.151-1.113,2.444-1.113
		c0.144,0,0.302,0.007,0.474,0.024c0.063-0.022,0.368-0.145,0.467-0.181c-1.472-0.491-2.535-1.881-2.535-3.515
		c0-1.88,1.414-3.421,3.23-3.656c-1.056-0.746-2.19-1.396-3.422-1.927C35.051,8.479,32.691,8,30.173,8
		c-2.513,0-4.868,0.479-7.065,1.436c-2.192,0.953-4.115,2.258-5.766,3.902c-1.648,1.648-2.947,3.58-3.904,5.793
		C12.479,21.346,12,23.71,12,26.225c0,2.551,0.473,4.924,1.408,7.123c0.941,2.193,2.26,4.109,3.96,5.74l9.94,10.024
		c0.011-0.056,0.021-0.108,0.025-0.125c0.489-1.942,2.293-3.01,2.807-3.278C32.483,44.341,34.772,43.451,34.869,43.414z"/>
	<rect x="16.381" y="16.446" fill="none" width="30" height="30"/>
	<path opacity="0.15" d="M44.217,52.5c-0.433,0-0.831-0.007-1.197-0.015c-0.326,0.008-0.725,0.015-1.156,0.015
		c-1.769,0-4.556-0.113-8.328-1.09c-1.822-0.473-3.434-1.105-4.791-1.882c-0.368-0.21-0.563-0.629-0.488-1.045l0.033-0.185
		c0.312-1.244,1.305-2.063,1.908-2.461c-0.615,0.403-1.594,1.207-1.893,2.394c-0.07,0.364-0.343,0.694-0.698,0.803
		c-0.109,0.033-0.222,0.05-0.334,0.05c-0.25,0-0.493-0.086-0.673-0.268l-9.94-10.024c-1.767-1.694-3.176-3.736-4.169-6.05
		C11.5,30.418,11,27.89,11,25.225c0-2.642,0.511-5.162,1.52-7.491c1.005-2.324,2.39-4.377,4.115-6.103
		c1.739-1.733,3.782-3.116,6.074-4.112C25.022,6.511,27.533,6,30.173,6c2.637,0,5.158,0.51,7.494,1.517
		c1.245,0.536,2.458,1.219,3.604,2.029c0.337,0.238,0.492,0.657,0.394,1.057c-0.086,0.348-0.351,0.618-0.687,0.718
		c0.063-0.004,0.126-0.006,0.189-0.006h4.11V7.203c0-1.491,1.213-2.703,2.704-2.703c1.49,0,2.703,1.212,2.703,2.703v4.111h4.111
		c1.491,0,2.704,1.213,2.704,2.704s-1.213,2.704-2.704,2.704h-4.111v4.11c0,1.491-1.213,2.704-2.703,2.704
		c-1.491,0-2.704-1.213-2.704-2.704v-4.11h-4.11c-1.338,0-2.452-0.977-2.667-2.255c0.164,0.975,0.852,1.796,1.814,2.117
		c0.403,0.135,0.678,0.509,0.684,0.934c0.006,0.417-0.248,0.794-0.636,0.946c0.431-0.158,0.994-0.322,1.776-0.322
		c0.708,0,1.487,0.133,2.385,0.407c0.421,0.128,0.708,0.517,0.708,0.957v1.327c0,1.516,1.233,2.749,2.75,2.749
		c0.789,0,1.373-0.347,1.725-0.638c0.182-0.15,0.407-0.229,0.638-0.229c0.081,0,0.163,0.01,0.243,0.03
		c0.31,0.078,0.563,0.297,0.683,0.592c0.501,1.228,0.461,2.081,0.419,2.984c-0.012,0.247-0.023,0.508-0.025,0.8
		c0,0.764-0.132,1.389-0.26,1.993c-0.039,0.188-0.078,0.37-0.113,0.557c0.07,0.054,0.136,0.114,0.195,0.182
		c0.302,0.342,0.419,0.81,0.347,1.39c-0.017,0.099-0.148,0.757-0.457,1.75c-0.045,0.144-0.091,0.313-0.141,0.495
		c-0.271,0.995-0.571,2.105-1.398,2.38c-0.234,0.906-0.82,2.719-1.924,3.82c0.012,0.199,0.08,0.552,0.202,1.055
		c0.064,0.195,0.678,1.561,1.744,2.294c0.178,0.108,0.397,0.219,0.635,0.312c0.093,0.035,2.336,0.908,4.632,2.252
		c0.14,0.068,1.87,0.979,2.282,2.635l0.075,0.387c0.081,0.424-0.119,0.852-0.496,1.062c-1.3,0.724-2.753,1.289-4.44,1.728
		C48.77,52.387,45.984,52.5,44.217,52.5L44.217,52.5z M31.465,45.111c-0.27,0.146-0.544,0.301-0.82,0.461
		c-0.044,0.023-0.106,0.058-0.183,0.102c0.096-0.055,0.165-0.091,0.195-0.105C30.928,45.409,31.199,45.257,31.465,45.111z
		 M35.422,35.546c0.05,0.056,0.103,0.106,0.158,0.151c0.162,0.13,0.28,0.307,0.338,0.507c0.373,1.307,0.918,2.432,1.534,3.168
		c0.19,0.227,0.27,0.526,0.218,0.817c0.046-0.221,0.073-0.386,0.081-0.498c-1.101-1.08-1.687-2.902-1.933-3.859
		C35.666,35.765,35.535,35.667,35.422,35.546z M33.646,32.626c0.159,0,0.318,0.038,0.463,0.113c0.258,0.135,0.443,0.375,0.51,0.657
		c-0.037-0.173-0.072-0.329-0.11-0.446c-0.341-1.084-0.392-1.647-0.358-1.973c-0.007-0.509,0.132-0.916,0.413-1.214l0.001-0.001
		c-0.282-0.917-0.368-1.6-0.337-2.435c0.013-0.396-0.013-0.746-0.035-1.083c-0.086-1.264-0.175-2.571,1.396-5.091
		c0.2-0.349,0.671-0.785,1.348-0.926c0.031-0.087,0.07-0.179,0.123-0.273c0.07-0.134,0.157-0.298,0.278-0.462
		c-0.175,0.184-0.414,0.295-0.669,0.309c-0.019,0.001-0.037,0.001-0.056,0.001c-0.266,0-0.521-0.105-0.709-0.295
		c-0.008-0.007-0.015-0.015-0.022-0.023c-0.72-0.715-1.574-1.29-2.544-1.71c-0.979-0.429-2.013-0.636-3.165-0.636
		c-1.146,0-2.178,0.208-3.156,0.635c-0.982,0.427-1.843,1.008-2.56,1.729c-0.723,0.721-1.305,1.583-1.734,2.564
		c-0.42,0.963-0.633,2.026-0.633,3.158c0,1.132,0.213,2.197,0.634,3.165c0.429,0.978,1.011,1.839,1.73,2.557
		c0.72,0.722,1.581,1.303,2.561,1.729c0.981,0.43,2.014,0.638,3.158,0.638c1.111,0,2.12-0.198,3.083-0.607
		C33.38,32.652,33.513,32.626,33.646,32.626z M39.014,18.691c-0.369,0.004-0.686,0.07-0.959,0.201
		C38.307,18.773,38.619,18.696,39.014,18.691z"/>
	<path opacity="0.15" d="M39.463,14.019c0,0.941,0.762,1.704,1.704,1.704h5.11v5.11c0,0.942,0.763,1.704,1.704,1.704
		s1.703-0.762,1.703-1.704v-5.11h5.111c0.942,0,1.704-0.763,1.704-1.704s-0.762-1.704-1.704-1.704h-5.111V7.203
		c0-0.941-0.762-1.703-1.703-1.703s-1.704,0.762-1.704,1.703v5.111h-5.11C40.225,12.314,39.463,13.077,39.463,14.019z M54.62,46.463
		c-2.253-1.318-4.489-2.184-4.489-2.184c-0.316-0.123-0.592-0.266-0.839-0.419c-1.377-0.947-2.079-2.629-2.149-2.882
		c-0.189-0.777-0.362-1.598-0.09-1.856C48.443,37.917,49,35.049,49,35.049c0.033-0.113,0.069-0.22,0.106-0.319
		c0.682,0.835,1.031-1.135,1.313-2.035c0.297-0.953,0.42-1.575,0.42-1.575c0.12-0.969-0.616-0.683-0.616-0.683L50.168,30.5
		c0.109-1.348,0.495-2.17,0.495-3.384c0.007-1.325,0.224-2.07-0.319-3.401c-0.646,0.534-1.461,0.867-2.362,0.867
		c-2.066,0-3.75-1.683-3.75-3.749v-1.327c-3.198-0.976-3.701,0.338-4.803,0.209c-1.121-0.136-1.273,0.32-1.493,0.723
		c-0.22,0.399,0,0.722-0.612,0.747c-0.616,0.031-0.886,0.499-0.886,0.499c-1.826,2.93-1.15,3.809-1.211,5.682
		c-0.037,0.997,0.123,1.737,0.646,3.111L35.815,30.4c0,0-0.716-0.336-0.662,0.636c0,0-0.103,0.304,0.306,1.604
		c0.244,0.747,0.43,2.827,1.125,2.168c0.023,0.076,0.054,0.159,0.08,0.238c0,0,0.55,2.868,1.94,4.072
		c0.283,0.263,0.104,1.082-0.09,1.857c-0.08,0.298-0.477,2.322-2.925,3.304c0,0-2.24,0.865-4.486,2.184c0,0-1.514,0.755-1.831,2.013
		L29.24,48.66c1.278,0.73,2.789,1.326,4.545,1.782c4.293,1.111,7.25,1.085,9.254,1.043c2.003,0.042,4.958,0.068,9.254-1.043
		c1.627-0.423,3.012-0.969,4.206-1.634l-0.063-0.333C56.124,47.218,54.62,46.463,54.62,46.463z M34.869,42.414
		c0.907-0.364,1.469-0.979,1.691-1.87c0.054-0.213,0.095-0.389,0.125-0.53c-0.905-1.081-1.443-2.534-1.729-3.535
		c-0.84-0.671-1.11-1.927-1.279-2.707c-0.011-0.052-0.021-0.097-0.031-0.146c-1.073,0.455-2.226,0.687-3.473,0.687
		c-1.276,0-2.459-0.24-3.557-0.721c-1.097-0.477-2.056-1.123-2.868-1.938c-0.816-0.814-1.461-1.77-1.941-2.866
		c-0.479-1.101-0.717-2.287-0.717-3.563c0-1.272,0.238-2.461,0.717-3.559c0.48-1.1,1.125-2.055,1.941-2.869
		c0.813-0.816,1.771-1.463,2.868-1.939c1.098-0.479,2.28-0.719,3.557-0.719c1.282,0,2.466,0.238,3.563,0.719
		c1.1,0.478,2.056,1.123,2.871,1.939c0.002,0.002,0.004,0.005,0.006,0.007c0.422-0.53,1.151-1.113,2.444-1.113
		c0.144,0,0.302,0.007,0.474,0.024c0.063-0.022,0.368-0.145,0.467-0.181c-1.472-0.491-2.535-1.881-2.535-3.515
		c0-1.88,1.414-3.421,3.23-3.656c-1.056-0.746-2.19-1.396-3.422-1.927C35.051,7.479,32.691,7,30.173,7
		c-2.513,0-4.868,0.479-7.065,1.436c-2.192,0.953-4.115,2.258-5.766,3.902c-1.648,1.648-2.947,3.58-3.904,5.793
		C12.479,20.346,12,22.71,12,25.225c0,2.551,0.473,4.924,1.408,7.123c0.941,2.193,2.26,4.109,3.96,5.74l9.94,10.024
		c0.011-0.056,0.021-0.108,0.025-0.125c0.489-1.942,2.293-3.01,2.807-3.278C32.483,43.341,34.772,42.451,34.869,42.414z"/>
	<linearGradient id="SVGID_1_" gradientUnits="userSpaceOnUse" x1="34.25" y1="51.5" x2="34.25" y2="5.5005">
		<stop  offset="0" style="stop-color:#D0CBC5"/>
		<stop  offset="0.5031" style="stop-color:#FAFCEF"/>
		<stop  offset="0.9693" style="stop-color:#FFFFFF"/>
	</linearGradient>
	<path fill="url(#SVGID_1_)" d="M39.463,14.019c0,0.941,0.762,1.704,1.704,1.704h5.11v5.11c0,0.942,0.763,1.704,1.704,1.704
		s1.703-0.762,1.703-1.704v-5.11h5.111c0.942,0,1.704-0.763,1.704-1.704s-0.762-1.704-1.704-1.704h-5.111V7.203
		c0-0.941-0.762-1.703-1.703-1.703s-1.704,0.762-1.704,1.703v5.111h-5.11C40.225,12.314,39.463,13.077,39.463,14.019z M54.62,46.463
		c-2.253-1.318-4.489-2.184-4.489-2.184c-0.316-0.123-0.592-0.266-0.839-0.419c-1.377-0.947-2.079-2.629-2.149-2.882
		c-0.189-0.777-0.362-1.598-0.09-1.856C48.443,37.917,49,35.049,49,35.049c0.033-0.113,0.069-0.22,0.106-0.319
		c0.682,0.835,1.031-1.135,1.313-2.035c0.297-0.953,0.42-1.575,0.42-1.575c0.12-0.969-0.616-0.683-0.616-0.683L50.168,30.5
		c0.109-1.348,0.495-2.17,0.495-3.384c0.007-1.325,0.224-2.07-0.319-3.401c-0.646,0.534-1.461,0.867-2.362,0.867
		c-2.066,0-3.75-1.683-3.75-3.749v-1.327c-3.198-0.976-3.701,0.338-4.803,0.209c-1.121-0.136-1.273,0.32-1.493,0.723
		c-0.22,0.399,0,0.722-0.612,0.747c-0.616,0.031-0.886,0.499-0.886,0.499c-1.826,2.93-1.15,3.809-1.211,5.682
		c-0.037,0.997,0.123,1.737,0.646,3.111L35.815,30.4c0,0-0.716-0.336-0.662,0.636c0,0-0.103,0.304,0.306,1.604
		c0.244,0.747,0.43,2.827,1.125,2.168c0.023,0.076,0.054,0.159,0.08,0.238c0,0,0.55,2.868,1.94,4.072
		c0.283,0.263,0.104,1.082-0.09,1.857c-0.08,0.298-0.477,2.322-2.925,3.304c0,0-2.24,0.865-4.486,2.184c0,0-1.514,0.755-1.831,2.013
		L29.24,48.66c1.278,0.73,2.789,1.326,4.545,1.782c4.293,1.111,7.25,1.085,9.254,1.043c2.003,0.042,4.958,0.068,9.254-1.043
		c1.627-0.423,3.012-0.969,4.206-1.634l-0.063-0.333C56.124,47.218,54.62,46.463,54.62,46.463z M34.869,42.414
		c0.907-0.364,1.469-0.979,1.691-1.87c0.054-0.213,0.095-0.389,0.125-0.53c-0.905-1.081-1.443-2.534-1.729-3.535
		c-0.84-0.671-1.11-1.927-1.279-2.707c-0.011-0.052-0.021-0.097-0.031-0.146c-1.073,0.455-2.226,0.687-3.473,0.687
		c-1.276,0-2.459-0.24-3.557-0.721c-1.097-0.477-2.056-1.123-2.868-1.938c-0.816-0.814-1.461-1.77-1.941-2.866
		c-0.479-1.101-0.717-2.287-0.717-3.563c0-1.272,0.238-2.461,0.717-3.559c0.48-1.1,1.125-2.055,1.941-2.869
		c0.813-0.816,1.771-1.463,2.868-1.939c1.098-0.479,2.28-0.719,3.557-0.719c1.282,0,2.466,0.238,3.563,0.719
		c1.1,0.478,2.056,1.123,2.871,1.939c0.002,0.002,0.004,0.005,0.006,0.007c0.422-0.53,1.151-1.113,2.444-1.113
		c0.144,0,0.302,0.007,0.474,0.024c0.063-0.022,0.368-0.145,0.467-0.181c-1.472-0.491-2.535-1.881-2.535-3.515
		c0-1.88,1.414-3.421,3.23-3.656c-1.056-0.746-2.19-1.396-3.422-1.927C35.051,7.479,32.691,7,30.173,7
		c-2.513,0-4.868,0.479-7.065,1.436c-2.192,0.953-4.115,2.258-5.766,3.902c-1.648,1.648-2.947,3.58-3.904,5.793
		C12.479,20.346,12,22.71,12,25.225c0,2.551,0.473,4.924,1.408,7.123c0.941,2.193,2.26,4.109,3.96,5.74l9.94,10.024
		c0.011-0.056,0.021-0.108,0.025-0.125c0.489-1.942,2.293-3.01,2.807-3.278C32.483,43.341,34.772,42.451,34.869,42.414z"/>
	<path fill="#FFFFFF" d="M37.936,21.438c-0.22,0.399,0,0.722-0.612,0.747c-0.616,0.031-0.886,0.499-0.886,0.499
		c-0.906,1.453-1.195,2.401-1.266,3.217c-0.065-1.098-0.026-2.145,1.266-4.217c0,0,0.27-0.468,0.886-0.499
		c0.612-0.025,0.393-0.348,0.612-0.747c0.22-0.402,0.372-0.858,1.493-0.723c1.102,0.129,1.604-1.185,4.803-0.209v1
		c-3.198-0.976-3.701,0.338-4.803,0.209C38.308,20.579,38.155,21.035,37.936,21.438z M49.685,13.314h5.111
		c0.767,0,1.406,0.509,1.621,1.204c0.049-0.159,0.083-0.325,0.083-0.5c0-0.941-0.762-1.704-1.704-1.704h-5.111V13.314z M35.815,31.4
		l0.057,0.076c-0.163-0.429-0.287-0.792-0.385-1.124c-0.181,0.028-0.362,0.176-0.334,0.684c0,0-0.042,0.139,0.045,0.6
		C35.344,31.188,35.815,31.4,35.815,31.4z M39.531,17.714c0.063-0.022,0.368-0.145,0.467-0.181
		c-1.308-0.436-2.288-1.583-2.492-2.979c-0.02,0.153-0.043,0.305-0.043,0.464c0,1.076,0.467,2.04,1.201,2.717
		c0.133-0.014,0.247-0.045,0.394-0.045C39.201,17.69,39.359,17.698,39.531,17.714z M31.104,47.463
		c2.246-1.318,4.486-2.184,4.486-2.184c2.448-0.981,2.845-3.006,2.925-3.304c0.169-0.678,0.309-1.366,0.156-1.71
		c-0.044,0.23-0.097,0.47-0.156,0.71c-0.08,0.298-0.477,2.322-2.925,3.304c0,0-2.24,0.865-4.486,2.184c0,0-1.514,0.755-1.831,2.013
		L29.24,48.66c0.104,0.06,0.22,0.112,0.327,0.17C30.111,47.968,31.104,47.463,31.104,47.463z M21.807,29.788
		c0.48,1.097,1.125,2.052,1.941,2.866c0.813,0.814,1.771,1.461,2.868,1.938c1.098,0.48,2.28,0.721,3.557,0.721
		c1.248,0,2.4-0.231,3.473-0.687c0.01,0.049,0.02,0.094,0.031,0.146c0.169,0.78,0.439,2.036,1.279,2.707
		c0.263,0.921,0.754,2.212,1.533,3.257c0.021-0.066,0.054-0.122,0.071-0.191c0.054-0.213,0.095-0.389,0.125-0.53
		c-0.905-1.081-1.443-2.534-1.729-3.535c-0.84-0.671-1.11-1.927-1.279-2.707c-0.011-0.052-0.021-0.097-0.031-0.146
		c-1.073,0.455-2.226,0.687-3.473,0.687c-1.276,0-2.459-0.24-3.557-0.721c-1.097-0.477-2.056-1.123-2.868-1.938
		c-0.816-0.814-1.461-1.77-1.941-2.866c-0.415-0.954-0.638-1.977-0.693-3.063c-0.008,0.167-0.024,0.33-0.024,0.5
		C21.09,27.501,21.328,28.688,21.807,29.788z M39.463,14.019c0,0.175,0.034,0.341,0.083,0.5c0.215-0.695,0.854-1.204,1.621-1.204
		h5.11v-1h-5.11C40.225,12.314,39.463,13.077,39.463,14.019z M50.344,24.715c0.229,0.56,0.318,1.016,0.351,1.455
		c0.037-0.811,0.05-1.475-0.351-2.455c-0.646,0.534-1.461,0.867-2.362,0.867c-2.066,0-3.75-1.683-3.75-3.749v1
		c0,2.066,1.684,3.749,3.75,3.749C48.883,25.582,49.698,25.249,50.344,24.715z M54.62,46.463c-2.253-1.318-4.489-2.184-4.489-2.184
		c-0.316-0.123-0.592-0.266-0.839-0.419c-1.377-0.947-2.079-2.629-2.149-2.882c-0.059-0.241-0.11-0.481-0.153-0.713
		c-0.147,0.341-0.013,1.032,0.153,1.713c0.07,0.253,0.772,1.935,2.149,2.882c0.247,0.153,0.522,0.296,0.839,0.419
		c0,0,2.236,0.865,4.489,2.184c0,0,1.084,0.551,1.601,1.488c0.092-0.049,0.189-0.093,0.279-0.143l-0.063-0.333
		C56.124,47.218,54.62,46.463,54.62,46.463z M13.438,19.131c0.957-2.213,2.256-4.145,3.904-5.793
		c1.65-1.645,3.573-2.949,5.766-3.902C25.305,8.479,27.66,8,30.173,8c2.519,0,4.878,0.479,7.099,1.436
		c0.831,0.358,1.604,0.788,2.353,1.248c0.335-0.154,0.69-0.271,1.069-0.321c-1.056-0.746-2.19-1.396-3.422-1.927
		C35.051,7.479,32.691,7,30.173,7c-2.513,0-4.868,0.479-7.065,1.436c-2.192,0.953-4.115,2.258-5.766,3.902
		c-1.648,1.648-2.947,3.58-3.904,5.793C12.479,20.346,12,22.71,12,25.225c0,0.172,0.02,0.336,0.024,0.506
		C12.083,23.402,12.542,21.199,13.438,19.131z M47.981,6.5c0.941,0,1.703,0.762,1.703,1.703v-1c0-0.941-0.762-1.703-1.703-1.703
		s-1.704,0.762-1.704,1.703v1C46.277,7.262,47.04,6.5,47.981,6.5z M50.324,30.41c-0.064,0.334-0.123,0.686-0.156,1.09l0.056-0.063
		c0,0,0.341-0.125,0.521,0.102c0.065-0.267,0.096-0.419,0.096-0.419C50.933,30.375,50.521,30.371,50.324,30.41z"/>
</g>
<g id="DO_NOT_EDIT_-_FOCAL_ZONE_GUIDES">
</g>
</svg>
