<?xml version="1.0" encoding="utf-8"?>
<!-- Generator: Adobe Illustrator 15.0.2, SVG Export Plug-In . SVG Version: 6.00 Build 0)  -->
<!DOCTYPE svg PUBLIC "-//W3C//DTD SVG 1.1//EN" "http://www.w3.org/Graphics/SVG/1.1/DTD/svg11.dtd">
<svg version="1.1" id="Ebene_1" xmlns="http://www.w3.org/2000/svg" xmlns:xlink="http://www.w3.org/1999/xlink" x="0px" y="0px"
	 width="67px" height="57px" viewBox="0 0 67 57" enable-background="new 0 0 67 57" xml:space="preserve">
<path opacity="0.3" d="M51.501,23c-2.206,0-4-1.794-4-4v-2.5H45c-2.206,0-4-1.794-4-4c0-1.658,1.014-3.082,2.453-3.688
	c-0.029-0.12-0.074-0.236-0.155-0.337C43.027,8.139,42.645,8.033,42.389,8H23.426c-0.262,0.033-0.646,0.139-0.916,0.475
	c-0.276,0.344-0.197,0.861-0.135,1.121l0.363,0.623l1.412,2.452c0.092,0.241,0.168,0.598,0.018,0.972
	c-0.141,0.352-0.51,0.535-0.776,0.627H17.37c-0.266-0.092-0.638-0.275-0.773-0.627c-0.021-0.051-0.016-0.098-0.027-0.149
	c0.018-0.325,0.068-0.661,0.193-1.016l0.011-0.033l1.286-2.226l0.396-0.693c0.062-0.275,0.104-0.732-0.149-1.051
	C18.039,8.139,17.652,8.033,17.396,8h-3.318v0.066C12.34,8.381,11,10.023,11,12v34c0,2.2,1.801,4,4,4h36c2.199,0,4-1.8,4-4V20.898
	C54.321,22.144,53.017,23,51.501,23z M31.514,41.971H18.418v-2.398h4.383V24.955l-4.383,0.918v-2.397l6.488-1.981h2.479v18.077
	h4.129V41.971z M47.751,42H34.594v-1.785c0-4.1,2.732-6.721,5.381-8.9c1.793-1.477,2.906-2.537,2.906-4.268
	c0-1.869-0.939-2.9-3.191-2.9c-1.594,0-3.021,0.447-4.383,0.922v-2.762c1.822-0.529,3.67-0.842,5.551-0.842
	c4.156,0,6.722,1.648,6.722,5.416c0,3.014-1.707,4.602-4.129,6.613c-2.563,2.117-4.245,3.596-4.441,5.801h8.742V42z M58,10.5h-4.499
	V6c0-1.1-0.9-2-2-2s-2,0.9-2,2v4.5H45c-1.1,0-2,0.9-2,2s0.9,2,2,2h4.501V19c0,1.1,0.9,2,2,2s2-0.9,2-2v-4.5H58c1.1,0,2-0.9,2-2
	S59.1,10.5,58,10.5z"/>
<rect fill="none" width="67" height="57"/>
<path opacity="0.15" d="M15,50c-2.757,0-5-2.243-5-5V11c0-2.321,1.484-4.306,3.573-4.846C13.722,6.057,13.894,6,14.078,6h3.318
	c0.043,0,0.086,0.003,0.129,0.008c0.65,0.084,1.191,0.376,1.564,0.843c0.387,0.488,0.508,1.16,0.343,1.895
	c-0.022,0.097-0.058,0.19-0.107,0.276l-1.633,2.834c-0.045,0.143-0.075,0.276-0.096,0.414h5.599c0.042-0.022,0.066-0.04,0.073-0.047
	c-0.004-0.008-0.01-0.061-0.032-0.134L21.511,9.1c-0.05-0.084-0.086-0.176-0.109-0.271c-0.186-0.781-0.07-1.484,0.328-1.979
	c0.376-0.468,0.919-0.759,1.57-0.841C23.342,6.002,23.384,6,23.426,6h18.963c0.043,0,0.086,0.003,0.129,0.008
	c0.646,0.083,1.185,0.374,1.56,0.84c0.165,0.206,0.278,0.443,0.348,0.728c0.113,0.466-0.12,0.946-0.554,1.145
	C44.22,8.579,44.602,8.5,45,8.5h3.501V5c0-1.654,1.346-3,3-3s3,1.346,3,3v3.5H58c1.654,0,3,1.346,3,3s-1.346,3-3,3h-3.499V18
	c0,0.457-0.103,0.891-0.286,1.279c0.189-0.241,0.48-0.381,0.785-0.381c0.082,0,0.165,0.01,0.247,0.031
	C55.689,19.042,56,19.441,56,19.898V45c0,2.757-2.243,5-5,5H15z M46.751,40v-0.705h-7.742c-0.28,0-0.549-0.118-0.737-0.325
	c-0.189-0.207-0.283-0.484-0.259-0.764c0.242-2.718,2.354-4.463,4.801-6.483c2.559-2.125,3.766-3.396,3.766-5.842
	c0-1.092,0-4.416-5.722-4.416c-1.468,0-2.963,0.199-4.551,0.605v0.62c1.043-0.309,2.157-0.543,3.383-0.543
	c2.703,0,4.191,1.385,4.191,3.9c0,2.178-1.355,3.463-3.271,5.039c-2.538,2.09-5.017,4.438-5.017,8.129V40H46.751z M30.514,39.971
	v-0.398h-3.129c-0.552,0-1-0.447-1-1V21.495h-1.33l-5.637,1.721v0.426l3.178-0.666c0.068-0.015,0.137-0.021,0.205-0.021
	c0.228,0,0.451,0.078,0.63,0.224c0.234,0.19,0.37,0.475,0.37,0.776v14.617c0,0.553-0.448,1-1,1h-3.383v0.398H30.514z M47.501,14.5
	c0.553,0,1,0.448,1,1V18v-3.5H47.501z M43.328,9.011c-0.649,0.436-1.102,1.105-1.263,1.867C42.229,10.104,42.692,9.439,43.328,9.011
	z"/>
<path opacity="0.15" d="M51.501,22c-2.206,0-4-1.794-4-4v-2.5H45c-2.206,0-4-1.794-4-4c0-1.658,1.014-3.082,2.453-3.688
	c-0.029-0.12-0.074-0.236-0.155-0.337C43.027,7.139,42.645,7.033,42.389,7H23.426c-0.262,0.033-0.646,0.139-0.916,0.475
	c-0.276,0.344-0.197,0.861-0.135,1.121l0.363,0.623l1.412,2.452c0.092,0.241,0.168,0.598,0.018,0.972
	c-0.141,0.352-0.51,0.535-0.776,0.627H17.37c-0.266-0.092-0.638-0.275-0.773-0.627c-0.021-0.051-0.016-0.098-0.027-0.149
	c0.018-0.325,0.068-0.661,0.193-1.016l0.011-0.033l1.286-2.226l0.396-0.693c0.062-0.275,0.104-0.732-0.149-1.051
	C18.039,7.139,17.652,7.033,17.396,7h-3.318v0.066C12.34,7.381,11,9.023,11,11v34c0,2.2,1.801,4,4,4h36c2.199,0,4-1.8,4-4V19.898
	C54.321,21.144,53.017,22,51.501,22z M31.514,40.971H18.418v-2.398h4.383V23.955l-4.383,0.918v-2.397l6.488-1.981h2.479v18.077
	h4.129V40.971z M47.751,41H34.594v-1.785c0-4.1,2.732-6.721,5.381-8.9c1.793-1.477,2.906-2.537,2.906-4.268
	c0-1.869-0.939-2.9-3.191-2.9c-1.594,0-3.021,0.447-4.383,0.922v-2.762c1.822-0.529,3.67-0.842,5.551-0.842
	c4.156,0,6.722,1.648,6.722,5.416c0,3.014-1.707,4.602-4.129,6.613c-2.563,2.117-4.245,3.596-4.441,5.801h8.742V41z M58,9.5h-4.499
	V5c0-1.1-0.9-2-2-2s-2,0.9-2,2v4.5H45c-1.1,0-2,0.9-2,2s0.9,2,2,2h4.501V18c0,1.1,0.9,2,2,2s2-0.9,2-2v-4.5H58c1.1,0,2-0.9,2-2
	S59.1,9.5,58,9.5z"/>
<linearGradient id="SVGID_1_" gradientUnits="userSpaceOnUse" x1="35.5" y1="49" x2="35.5" y2="3.0005">
	<stop  offset="0" style="stop-color:#D0CBC5"/>
	<stop  offset="0.5031" style="stop-color:#FAFCEF"/>
	<stop  offset="0.9693" style="stop-color:#FFFFFF"/>
</linearGradient>
<path fill="url(#SVGID_1_)" d="M51.501,22c-2.206,0-4-1.794-4-4v-2.5H45c-2.206,0-4-1.794-4-4c0-1.658,1.014-3.082,2.453-3.688
	c-0.029-0.12-0.074-0.236-0.155-0.337C43.027,7.139,42.645,7.033,42.389,7H23.426c-0.262,0.033-0.646,0.139-0.916,0.475
	c-0.276,0.344-0.197,0.861-0.135,1.121l0.363,0.623l1.412,2.452c0.092,0.241,0.168,0.598,0.018,0.972
	c-0.141,0.352-0.51,0.535-0.776,0.627H17.37c-0.266-0.092-0.638-0.275-0.773-0.627c-0.021-0.051-0.016-0.098-0.027-0.149
	c0.018-0.325,0.068-0.661,0.193-1.016l0.011-0.033l1.286-2.226l0.396-0.693c0.062-0.275,0.104-0.732-0.149-1.051
	C18.039,7.139,17.652,7.033,17.396,7h-3.318v0.066C12.34,7.381,11,9.023,11,11v34c0,2.2,1.801,4,4,4h36c2.199,0,4-1.8,4-4V19.898
	C54.321,21.144,53.017,22,51.501,22z M31.514,40.971H18.418v-2.398h4.383V23.955l-4.383,0.918v-2.397l6.488-1.981h2.479v18.077
	h4.129V40.971z M47.751,41H34.594v-1.785c0-4.1,2.732-6.721,5.381-8.9c1.793-1.477,2.906-2.537,2.906-4.268
	c0-1.869-0.939-2.9-3.191-2.9c-1.594,0-3.021,0.447-4.383,0.922v-2.762c1.822-0.529,3.67-0.842,5.551-0.842
	c4.156,0,6.722,1.648,6.722,5.416c0,3.014-1.707,4.602-4.129,6.613c-2.563,2.117-4.245,3.596-4.441,5.801h8.742V41z M58,9.5h-4.499
	V5c0-1.1-0.9-2-2-2s-2,0.9-2,2v4.5H45c-1.1,0-2,0.9-2,2s0.9,2,2,2h4.501V18c0,1.1,0.9,2,2,2s2-0.9,2-2v-4.5H58c1.1,0,2-0.9,2-2
	S59.1,9.5,58,9.5z"/>
<path fill="#FFFFFF" d="M22.801,24.955v-1l-4.383,0.918v1L22.801,24.955z M18.418,41.971h13.096v-1H18.418V41.971z M42.844,26.497
	c0.018-0.147,0.037-0.292,0.037-0.45c0-1.869-0.939-2.9-3.191-2.9c-1.594,0-3.021,0.447-4.383,0.922v1
	c1.362-0.475,2.789-0.922,4.383-0.922C41.707,24.147,42.665,24.98,42.844,26.497z M24.168,13.643c0.15-0.374,0.074-0.73-0.018-0.971
	c-0.15,0.331-0.5,0.509-0.758,0.598H17.37c-0.226-0.078-0.519-0.229-0.688-0.485c-0.06,0.242-0.1,0.48-0.112,0.709
	c0.011,0.051,0.006,0.098,0.027,0.149c0.135,0.352,0.507,0.535,0.773,0.627h6.022C23.658,14.178,24.027,13.995,24.168,13.643z
	 M58,9.5h-4.499v1H58c0.926,0,1.704,0.641,1.929,1.5C59.971,11.84,60,11.674,60,11.5C60,10.4,59.1,9.5,58,9.5z M34.594,42h13.157v-1
	H34.594V42z M51.501,22c-2.206,0-4-1.794-4-4v1c0,2.206,1.794,4,4,4c1.516,0,2.82-0.856,3.499-2.102v-1
	C54.321,21.144,53.017,22,51.501,22z M43.45,33.494c2.422-2.012,4.129-3.6,4.129-6.613c0-0.216-0.011-0.423-0.027-0.625
	c-0.142,2.766-1.786,4.315-4.102,6.239c-2.563,2.117-4.245,3.596-4.441,5.801h0.218C39.776,36.606,41.295,35.273,43.45,33.494z
	 M22.414,8.662c0.028-0.064,0.051-0.13,0.096-0.187C22.78,8.139,23.164,8.033,23.426,8h18.963c0.133,0.017,0.299,0.056,0.466,0.134
	c0.19-0.122,0.388-0.232,0.599-0.321c-0.029-0.12-0.074-0.236-0.155-0.337C43.027,7.139,42.645,7.033,42.389,7H23.426
	c-0.262,0.033-0.646,0.139-0.916,0.475c-0.276,0.344-0.197,0.861-0.135,1.121L22.414,8.662z M18.307,8.475
	c0.039,0.049,0.06,0.106,0.086,0.161l0.063-0.11c0.062-0.275,0.104-0.732-0.149-1.051C18.039,7.139,17.652,7.033,17.396,7h-3.318
	v0.066C12.34,7.381,11,9.023,11,11v1c0-1.977,1.34-3.619,3.078-3.934V8h3.318C17.652,8.033,18.039,8.139,18.307,8.475z M43.071,12
	c0.225-0.859,1.003-1.5,1.929-1.5h4.501v-1H45c-1.1,0-2,0.9-2,2C43,11.674,43.029,11.84,43.071,12z M47.501,15.5H45
	c-2.059,0-3.739-1.569-3.957-3.571C41.017,12.117,41,12.307,41,12.5c0,2.206,1.794,4,4,4h2.501V15.5z M51.501,4c1.1,0,2,0.9,2,2V5
	c0-1.1-0.9-2-2-2s-2,0.9-2,2v1C49.501,4.9,50.401,4,51.501,4z"/>
</svg>
