<?xml version="1.0" encoding="utf-8"?>
<!-- Generator: Adobe Illustrator 15.0.0, SVG Export Plug-In  -->
<!DOCTYPE svg PUBLIC "-//W3C//DTD SVG 1.1//EN" "http://www.w3.org/Graphics/SVG/1.1/DTD/svg11.dtd" [
	<!ENTITY ns_flows "http://ns.adobe.com/Flows/1.0/">
]>
<svg version="1.1"
	 xmlns="http://www.w3.org/2000/svg" xmlns:xlink="http://www.w3.org/1999/xlink" xmlns:a="http://ns.adobe.com/AdobeSVGViewerExtensions/3.0/"
	 x="0px" y="0px" width="67px" height="57px" viewBox="0 0 67 57" enable-background="new 0 0 67 57" xml:space="preserve">
<defs>
</defs>
<rect id="BOUNDING_BOX_1_" fill="none" width="67" height="57"/>
<path opacity="0.3" d="M23.766,40.166c-0.169-0.107-0.328-0.128-0.55-0.076c-0.916,0.214-2.071,1.518-2.777,2.493
	c0.054,0.688,0.125,1.67,0.165,2.176c0.795,0.519,8.237,5.353,9.231,6.007c0.705-0.412,3.912-2.093,4.236-3.563
	C33.501,45.72,23.766,40.166,23.766,40.166z M10.5,43.054l4.654,0.694l2.606-16.927l-4.657-0.695L10.5,43.054z M32.653,30.735
	c-0.707,0.813-2.151,2.237-4.822,3.772c-3.15,1.806-8.046-1.684-6.096-4.647l0.59-0.899c-1.028,0.156-2.091,0.322-2.628,0.401
	c-0.23,1.515-1.604,10.136-1.604,10.136c0.47,0.395,0.84,0.72,1.136,0.986c0.861-1.034,2.099-2.241,3.474-2.563
	c0.81-0.184,1.596-0.06,2.277,0.373c0,0,11.204,6.384,11.28,8.369c0.239,0.981-0.176,1.905-0.788,2.7l3.539-0.131
	c1.759-0.038,5.493-4.8,5.56-4.855c-0.623-2.275-2.38-7.732-4.242-9.642C38.466,32.82,34.287,31.285,32.653,30.735z M56,13h-4.499
	V8.5c0-1.1-0.899-2-2-2s-2,0.9-2,2V13H43c-1.1,0-2,0.9-2,2s0.9,2,2,2h4.501v4.5c0,1.1,0.899,2,2,2s2-0.9,2-2V17H56c1.1,0,2-0.9,2-2
	S57.1,13,56,13z M49.273,26.821l2.604,16.927l4.659-0.694l-2.608-16.928L49.273,26.821z M42.959,29.611c0,0-4.164-3.946-7.207-5.06
	c-2.822-1.027-7.2,0.491-8.075,1.159c-1.971,1.798-4.077,5.413-4.077,5.413c0.346,1.421,2.017,2.081,3.09,1.466
	c3.924-2.233,5.116-4.451,5.116-4.451s7.418,2.248,10.151,5.056c2.306,2.368,4.117,8.23,4.688,10.236
	c0.987-0.398,2.134-0.861,2.739-1.104c0,0-1.822-11.747-1.937-12.46C43.761,29.992,43.237,29.795,42.959,29.611z"/>
<path opacity="0.15" d="M29.835,50.766c-0.192,0-0.383-0.055-0.55-0.165c-0.673-0.442-4.307-2.805-6.826-4.442l-2.402-1.562
	c-0.26-0.17-0.426-0.45-0.451-0.759l-0.165-2.177c-0.019-0.237,0.048-0.473,0.187-0.664c0.682-0.942,2.025-2.569,3.36-2.881
	c0.154-0.036,0.297-0.054,0.438-0.054c0.311,0,0.605,0.088,0.876,0.26c3.71,2.115,10.095,5.941,10.703,7.522
	c0.07,0.183,0.085,0.382,0.043,0.574c-0.344,1.558-2.449,2.932-4.463,4.07l-0.246,0.14C30.184,50.721,30.009,50.766,29.835,50.766z
	 M35.472,49.364c-0.373,0-0.717-0.208-0.889-0.542c-0.178-0.345-0.141-0.761,0.097-1.068c0.542-0.704,0.741-1.31,0.608-1.853
	c-0.016-0.065-0.025-0.132-0.027-0.199c-0.362-1.014-5.868-4.742-10.776-7.538c-0.354-0.224-0.699-0.324-1.066-0.324
	c-0.16,0-0.327,0.02-0.495,0.058c-0.868,0.202-1.882,0.974-2.926,2.227c-0.174,0.209-0.426,0.338-0.697,0.357
	c-0.024,0.002-0.047,0.003-0.071,0.003c-0.247,0-0.485-0.091-0.669-0.257c-0.289-0.261-0.65-0.578-1.109-0.964
	c-0.269-0.226-0.4-0.576-0.344-0.923c0,0,1.373-8.615,1.603-10.129c0.066-0.435,0.408-0.775,0.843-0.839l2.624-0.4
	c0.05-0.008,0.1-0.011,0.149-0.011c0.337,0,0.656,0.171,0.842,0.46c0.213,0.332,0.211,0.758-0.006,1.088l-0.59,0.899
	c-0.36,0.548-0.377,1.108-0.05,1.714c0.578,1.072,2.031,1.881,3.379,1.881c0.531,0,1.013-0.123,1.434-0.363
	c2.424-1.394,3.82-2.706,4.565-3.562c0.193-0.222,0.47-0.344,0.754-0.344c0.107,0,0.214,0.017,0.319,0.052
	c2.187,0.736,6.144,2.267,8.073,4.251c2.339,2.398,4.276,9.296,4.49,10.075c0.091,0.333,0.003,0.687-0.226,0.938l-0.088,0.106
	c-3.715,4.509-5.312,5.056-6.189,5.075C39.032,49.233,35.483,49.364,35.472,49.364z M51.876,43.748
	c-0.485,0-0.911-0.354-0.987-0.848l-2.604-16.928c-0.04-0.263,0.025-0.531,0.184-0.745c0.157-0.214,0.394-0.356,0.657-0.396
	l4.654-0.695c0.05-0.007,0.1-0.011,0.148-0.011c0.485,0,0.911,0.354,0.987,0.848l2.608,16.928c0.041,0.263-0.025,0.531-0.184,0.745
	c-0.157,0.215-0.395,0.357-0.657,0.396l-4.659,0.694C51.975,43.744,51.925,43.748,51.876,43.748z M15.156,43.748
	c-0.049,0-0.099-0.004-0.149-0.011l-4.654-0.694c-0.263-0.039-0.5-0.182-0.658-0.396c-0.158-0.214-0.224-0.481-0.183-0.745
	l2.604-16.928c0.076-0.494,0.501-0.848,0.987-0.848c0.049,0,0.099,0.003,0.149,0.011l4.657,0.695c0.263,0.04,0.5,0.182,0.658,0.396
	c0.158,0.214,0.224,0.482,0.183,0.746L16.143,42.9C16.066,43.395,15.641,43.748,15.156,43.748z M46.645,43.431
	c-0.15,0-0.301-0.034-0.439-0.102c-0.255-0.125-0.445-0.352-0.522-0.625c-0.494-1.739-2.276-7.588-4.442-9.813
	c-2.057-2.112-7.168-3.952-9.032-4.573c-0.689,0.901-2.199,2.531-5.024,4.139c-0.411,0.235-0.896,0.361-1.397,0.361
	c-1.483,0-2.812-1.034-3.159-2.46c-0.061-0.251-0.022-0.517,0.108-0.74c0.089-0.152,2.207-3.768,4.267-5.647
	c0.981-0.753,3.948-1.767,6.516-1.767c0.967,0,1.833,0.137,2.575,0.407c2.964,1.085,6.762,4.537,7.449,5.177
	c0.117,0.035,0.541,0.118,1.907,0.118c0.525,0,1.17-0.012,1.963-0.039c0.012,0,0.023,0,0.034,0c0.489,0,0.909,0.355,0.987,0.842
	c0.114,0.713,1.938,12.465,1.938,12.465c0.071,0.46-0.185,0.909-0.617,1.082l-2.736,1.103
	C46.898,43.406,46.771,43.431,46.645,43.431z M49.501,23.5c-1.654,0-3-1.346-3-3V17H43c-1.654,0-3-1.346-3-3s1.346-3,3-3h3.501V7.5
	c0-1.654,1.346-3,3-3s3,1.346,3,3V11H56c1.654,0,3,1.346,3,3s-1.346,3-3,3h-3.499v3.5C52.501,22.154,51.155,23.5,49.501,23.5z"/>
<path opacity="0.15" d="M23.766,39.166c-0.169-0.107-0.328-0.128-0.55-0.076c-0.916,0.214-2.071,1.518-2.777,2.493
	c0.054,0.688,0.125,1.67,0.165,2.176c0.795,0.519,8.237,5.353,9.231,6.007c0.705-0.412,3.912-2.093,4.236-3.563
	C33.501,44.72,23.766,39.166,23.766,39.166z M10.5,42.054l4.654,0.694l2.606-16.927l-4.657-0.695L10.5,42.054z M32.653,29.735
	c-0.707,0.813-2.151,2.237-4.822,3.772c-3.15,1.806-8.046-1.684-6.096-4.647l0.59-0.899c-1.028,0.155-2.091,0.322-2.628,0.401
	c-0.23,1.515-1.604,10.136-1.604,10.136c0.47,0.395,0.84,0.72,1.136,0.986c0.861-1.034,2.099-2.241,3.474-2.563
	c0.81-0.184,1.596-0.06,2.277,0.373c0,0,11.204,6.384,11.28,8.369c0.239,0.981-0.176,1.905-0.788,2.7l3.539-0.131
	c1.759-0.038,5.493-4.8,5.56-4.855c-0.623-2.275-2.38-7.732-4.242-9.642C38.466,31.82,34.287,30.285,32.653,29.735z M56,12h-4.499
	V7.5c0-1.1-0.899-2-2-2s-2,0.9-2,2V12H43c-1.1,0-2,0.9-2,2s0.9,2,2,2h4.501v4.5c0,1.1,0.899,2,2,2s2-0.9,2-2V16H56c1.1,0,2-0.9,2-2
	S57.1,12,56,12z M49.273,25.821l2.604,16.927l4.659-0.694l-2.608-16.928L49.273,25.821z M42.959,28.611c0,0-4.164-3.946-7.207-5.06
	c-2.822-1.027-7.2,0.491-8.075,1.159c-1.971,1.798-4.077,5.413-4.077,5.413c0.346,1.421,2.017,2.081,3.09,1.466
	c3.924-2.233,5.116-4.451,5.116-4.451s7.418,2.248,10.151,5.056c2.306,2.368,4.117,8.23,4.688,10.236
	c0.987-0.398,2.134-0.861,2.739-1.104c0,0-1.822-11.747-1.937-12.46C43.761,28.992,43.237,28.795,42.959,28.611z"/>
<linearGradient id="SVGID_1_" gradientUnits="userSpaceOnUse" x1="34.25" y1="49.7656" x2="34.25" y2="5.5005">
	<stop  offset="0" style="stop-color:#D0CBC5"/>
	<stop  offset="0.5031" style="stop-color:#FAFCEF"/>
	<stop  offset="0.9693" style="stop-color:#FFFFFF"/>
</linearGradient>
<path fill="url(#SVGID_1_)" d="M23.766,39.166c-0.169-0.107-0.328-0.128-0.55-0.076c-0.916,0.214-2.071,1.518-2.777,2.493
	c0.054,0.688,0.125,1.67,0.165,2.176c0.795,0.519,8.237,5.353,9.231,6.007c0.705-0.412,3.912-2.093,4.236-3.563
	C33.501,44.72,23.766,39.166,23.766,39.166z M10.5,42.054l4.654,0.694l2.606-16.927l-4.657-0.695L10.5,42.054z M32.653,29.735
	c-0.707,0.813-2.151,2.237-4.822,3.772c-3.15,1.806-8.046-1.684-6.096-4.647l0.59-0.899c-1.028,0.155-2.091,0.322-2.628,0.401
	c-0.23,1.515-1.604,10.136-1.604,10.136c0.47,0.395,0.84,0.72,1.136,0.986c0.861-1.034,2.099-2.241,3.474-2.563
	c0.81-0.184,1.596-0.06,2.277,0.373c0,0,11.204,6.384,11.28,8.369c0.239,0.981-0.176,1.905-0.788,2.7l3.539-0.131
	c1.759-0.038,5.493-4.8,5.56-4.855c-0.623-2.275-2.38-7.732-4.242-9.642C38.466,31.82,34.287,30.285,32.653,29.735z M56,12h-4.499
	V7.5c0-1.1-0.899-2-2-2s-2,0.9-2,2V12H43c-1.1,0-2,0.9-2,2s0.9,2,2,2h4.501v4.5c0,1.1,0.899,2,2,2s2-0.9,2-2V16H56c1.1,0,2-0.9,2-2
	S57.1,12,56,12z M49.273,25.821l2.604,16.927l4.659-0.694l-2.608-16.928L49.273,25.821z M42.959,28.611c0,0-4.164-3.946-7.207-5.06
	c-2.822-1.027-7.2,0.491-8.075,1.159c-1.971,1.798-4.077,5.413-4.077,5.413c0.346,1.421,2.017,2.081,3.09,1.466
	c3.924-2.233,5.116-4.451,5.116-4.451s7.418,2.248,10.151,5.056c2.306,2.368,4.117,8.23,4.688,10.236
	c0.987-0.398,2.134-0.861,2.739-1.104c0,0-1.822-11.747-1.937-12.46C43.761,28.992,43.237,28.795,42.959,28.611z"/>
<path fill="#FFFFFF" d="M43,13h4.501v-1H43c-1.1,0-2,0.9-2,2c0,0.173,0.029,0.339,0.071,0.5C41.296,13.641,42.074,13,43,13z"/>
<path fill="#FFFFFF" d="M19.697,29.362c0.416-0.062,1.146-0.175,1.932-0.295c0.038-0.069,0.062-0.139,0.106-0.207l0.59-0.899
	c-1.028,0.155-2.091,0.322-2.628,0.401c-0.23,1.515-1.604,10.136-1.604,10.136c0.052,0.044,0.091,0.078,0.14,0.12
	C18.588,36.388,19.512,30.58,19.697,29.362z"/>
<path fill="#FFFFFF" d="M36.274,46.751c-0.119,0.576-0.423,1.12-0.803,1.613l0.612-0.022C36.298,47.839,36.388,47.305,36.274,46.751
	z"/>
<path fill="#FFFFFF" d="M49.501,6.5c1.101,0,2,0.9,2,2v-1c0-1.1-0.899-2-2-2s-2,0.9-2,2v1C47.501,7.4,48.4,6.5,49.501,6.5z"/>
<path fill="#FFFFFF" d="M51.501,13H56c0.926,0,1.704,0.641,1.929,1.5C57.971,14.339,58,14.173,58,14c0-1.1-0.9-2-2-2h-4.499V13z"/>
<path fill="#FFFFFF" d="M32.653,29.735c-0.707,0.813-2.151,2.237-4.822,3.772c-2.472,1.417-6.003-0.428-6.475-2.719
	c-0.563,2.699,3.649,5.338,6.475,3.719c2.671-1.535,4.115-2.96,4.822-3.772c1.634,0.55,5.813,2.085,7.675,4.001
	c1.684,1.726,3.278,6.344,4.029,8.897c0.126-0.152,0.204-0.248,0.213-0.256c-0.623-2.275-2.38-7.732-4.242-9.642
	C38.466,31.82,34.287,30.285,32.653,29.735z"/>
<polygon fill="#FFFFFF" points="49.273,25.821 49.424,26.798 53.928,26.125 56.386,42.076 56.536,42.054 53.928,25.125 "/>
<path fill="#FFFFFF" d="M42.959,28.611c0,0-4.164-3.946-7.207-5.06c-2.822-1.027-7.2,0.491-8.075,1.159
	c-1.971,1.798-4.077,5.413-4.077,5.413c0.052,0.216,0.143,0.407,0.25,0.586c0.611-0.997,2.26-3.569,3.827-4.999
	c0.875-0.667,5.253-2.186,8.075-1.159c3.043,1.114,7.207,5.06,7.207,5.06c0.278,0.184,0.802,0.381,4.488,0.256
	c0.095,0.59,1.356,8.723,1.79,11.519c0.046-0.019,0.105-0.042,0.146-0.059c0,0-1.822-11.747-1.937-12.46
	C43.761,28.992,43.237,28.795,42.959,28.611z"/>
<polygon fill="#FFFFFF" points="10.5,42.054 10.65,42.076 13.104,26.125 17.61,26.798 17.761,25.821 13.104,25.125 "/>
<path fill="#FFFFFF" d="M23.766,39.166c-0.169-0.107-0.328-0.128-0.55-0.076c-0.916,0.214-2.071,1.518-2.777,2.493
	c0.021,0.272,0.045,0.591,0.069,0.908c0.71-0.964,1.82-2.194,2.708-2.401c0.222-0.052,0.381-0.031,0.55,0.076
	c0,0,8.332,4.754,10.028,6.639c0.135-0.202,0.234-0.403,0.278-0.602C33.501,44.72,23.766,39.166,23.766,39.166z"/>
</svg>
