<?xml version="1.0" encoding="utf-8"?>
<!-- Generator: Adobe Illustrator 15.0.0, SVG Export Plug-In . SVG Version: 6.00 Build 0)  -->
<!DOCTYPE svg PUBLIC "-//W3C//DTD SVG 1.1//EN" "http://www.w3.org/Graphics/SVG/1.1/DTD/svg11.dtd">
<svg version="1.1" xmlns="http://www.w3.org/2000/svg" xmlns:xlink="http://www.w3.org/1999/xlink" x="0px" y="0px" width="67px"
	 height="57px" viewBox="0 0 67 57" enable-background="new 0 0 67 57" xml:space="preserve">
<g id="DO_NOT_EDIT_-_BOUNDING_BOX">
	<rect id="BOUNDING_BOX" fill="none" width="67" height="57"/>
</g>
<g id="PLACE_YOUR_GRAPHIC_HERE">
	<path opacity="0.3" d="M56.5,20.654l-10.615-8.846v5.308h-24.77c-5.84,0-10.615,4.777-10.615,10.616v8.846
		c0,5.84,4.775,10.615,10.615,10.615h7.077c0.971,0,1.769-0.795,1.769-1.77v-3.538c0-0.971-0.798-1.77-1.769-1.77h-7.077
		c-1.917,0-3.538-1.62-3.538-3.538v-8.846c0-1.918,1.621-3.539,3.538-3.539h24.77V29.5L56.5,20.654z"/>
	<rect x="16.381" y="16.446" fill="none" width="30" height="30"/>
	<path opacity="0.15" d="M21.115,47.192C14.71,47.192,9.5,41.981,9.5,35.577v-8.846c0-6.405,5.21-11.616,11.615-11.616h23.77v-4.308
		c0-0.388,0.225-0.741,0.576-0.906c0.135-0.063,0.28-0.094,0.424-0.094c0.229,0,0.457,0.079,0.641,0.232l10.615,8.846
		c0.228,0.19,0.359,0.471,0.359,0.768s-0.132,0.578-0.359,0.768l-10.615,8.847c-0.184,0.152-0.411,0.231-0.641,0.231
		c-0.145,0-0.289-0.031-0.424-0.095c-0.352-0.164-0.576-0.517-0.576-0.905v-4.308h-23.77c-1.376,0-2.538,1.163-2.538,2.539v8.846
		c0,1.376,1.162,2.538,2.538,2.538h7.077c1.527,0,2.769,1.242,2.769,2.77v3.538c0,1.527-1.242,2.77-2.769,2.77H21.115z"/>
	<path opacity="0.15" d="M56.5,19.654l-10.615-8.846v5.308h-24.77c-5.84,0-10.615,4.777-10.615,10.616v8.846
		c0,5.84,4.775,10.615,10.615,10.615h7.077c0.971,0,1.769-0.795,1.769-1.77v-3.538c0-0.971-0.798-1.77-1.769-1.77h-7.077
		c-1.917,0-3.538-1.62-3.538-3.538v-8.846c0-1.918,1.621-3.539,3.538-3.539h24.77V28.5L56.5,19.654z"/>
	<linearGradient id="SVGID_1_" gradientUnits="userSpaceOnUse" x1="33.5005" y1="46.1924" x2="33.5005" y2="10.8081">
		<stop  offset="0" style="stop-color:#D0CBC5"/>
		<stop  offset="0.5031" style="stop-color:#FAFCEF"/>
		<stop  offset="0.9693" style="stop-color:#FFFFFF"/>
	</linearGradient>
	<path fill="url(#SVGID_1_)" d="M56.5,19.654l-10.615-8.846v5.308h-24.77c-5.84,0-10.615,4.777-10.615,10.616v8.846
		c0,5.84,4.775,10.615,10.615,10.615h7.077c0.971,0,1.769-0.795,1.769-1.77v-3.538c0-0.971-0.798-1.77-1.769-1.77h-7.077
		c-1.917,0-3.538-1.62-3.538-3.538v-8.846c0-1.918,1.621-3.539,3.538-3.539h24.77V28.5L56.5,19.654z"/>
	<path fill="#FFFFFF" d="M55.9,20.154l-10.016-8.346v-1L56.5,19.654L55.9,20.154z M28.192,39.115h-7.077
		c-1.917,0-3.538-1.62-3.538-3.538v1c0,1.918,1.621,3.538,3.538,3.538h7.077c0.971,0,1.769,0.799,1.769,1.77v-1
		C29.961,39.914,29.163,39.115,28.192,39.115z M21.115,17.115h24.77v-1h-24.77c-5.84,0-10.615,4.777-10.615,10.616v1
		C10.5,21.893,15.275,17.115,21.115,17.115z"/>
</g>
<g id="DO_NOT_EDIT_-_FOCAL_ZONE_GUIDES">
</g>
</svg>
