<?xml version="1.0" encoding="utf-8"?>
<!-- Generator: Adobe Illustrator 15.0.0, SVG Export Plug-In  -->
<!DOCTYPE svg PUBLIC "-//W3C//DTD SVG 1.1//EN" "http://www.w3.org/Graphics/SVG/1.1/DTD/svg11.dtd" [
	<!ENTITY ns_flows "http://ns.adobe.com/Flows/1.0/">
]>
<svg version="1.1"
	 xmlns="http://www.w3.org/2000/svg" xmlns:xlink="http://www.w3.org/1999/xlink" xmlns:a="http://ns.adobe.com/AdobeSVGViewerExtensions/3.0/"
	 x="0px" y="0px" width="67px" height="57px" viewBox="0 0 67 57" enable-background="new 0 0 67 57" xml:space="preserve">
<defs>
</defs>
<rect id="BOUNDING_BOX_1_" fill="none" width="67" height="57"/>
<path opacity="0.3" d="M54.474,24.265c2.095-2.092,0.107-3.507,0.107-3.507c-0.991-1.083-3.43-1.175-3.43-1.175
	c-3.88-0.543-6.938-3.016-6.938-3.016l-8.041-5.806c-7.547-4.991-13.439-3.155-16.826-1.045c-0.726-1.158-2.003-1.934-3.472-1.934
	c-2.258,0-4.096,1.836-4.096,4.096c0,1.469,0.779,2.743,1.938,3.469c-2.113,3.387-3.947,9.277,1.043,16.826l5.804,8.044
	c0,0,2.476,3.05,3.018,6.936c0,0,0.092,2.436,1.175,3.429c0,0,1.415,1.987,3.513-0.107l9.715-9.713
	c0.675,2.252,2.74,3.904,5.213,3.904c3.016,0,5.464-2.445,5.464-5.462c0-2.473-1.652-4.538-3.906-5.214l0.136-0.137L54.474,24.265z"
	/>
<path opacity="0.15" d="M26.373,51.434c-1.295,0-2.113-0.874-2.359-1.181c-1.227-1.203-1.404-3.542-1.428-4.008
	c-0.511-3.547-2.774-6.37-2.797-6.398l-5.839-8.089c-5.073-7.671-3.368-13.793-1.539-17.155c-1.036-0.957-1.632-2.292-1.632-3.725
	c0-2.81,2.286-5.096,5.096-5.096c1.434,0,2.77,0.595,3.726,1.627c2.226-1.222,4.599-1.841,7.066-1.841
	c3.303,0,6.687,1.13,10.058,3.359l8.074,5.83c0.071,0.055,2.923,2.32,6.445,2.829c0.468,0.023,2.809,0.201,4.01,1.428
	c0.286,0.231,1.073,0.966,1.17,2.127c0.081,0.973-0.338,1.926-1.243,2.831l-8.686,8.691c1.941,1.14,3.167,3.214,3.167,5.54
	c0,3.563-2.899,6.462-6.464,6.462c-2.326,0-4.399-1.225-5.539-3.164l-8.682,8.68C28.145,51.012,27.269,51.434,26.373,51.434z"/>
<path opacity="0.15" d="M54.474,23.265c2.095-2.092,0.107-3.507,0.107-3.507c-0.991-1.083-3.43-1.175-3.43-1.175
	c-3.88-0.543-6.938-3.016-6.938-3.016l-8.041-5.806c-7.547-4.991-13.439-3.155-16.826-1.045c-0.726-1.158-2.003-1.934-3.472-1.934
	c-2.258,0-4.096,1.836-4.096,4.096c0,1.469,0.779,2.743,1.938,3.469c-2.113,3.387-3.947,9.277,1.043,16.826l5.804,8.044
	c0,0,2.476,3.05,3.018,6.936c0,0,0.092,2.436,1.175,3.429c0,0,1.415,1.987,3.513-0.107l9.715-9.713
	c0.675,2.252,2.74,3.904,5.213,3.904c3.016,0,5.464-2.445,5.464-5.462c0-2.473-1.652-4.538-3.906-5.214l0.136-0.137L54.474,23.265z"
	/>
<linearGradient id="SVGID_1_" gradientUnits="userSpaceOnUse" x1="33.5005" y1="50.4336" x2="33.5005" y2="6.5684">
	<stop  offset="0" style="stop-color:#D0CBC5"/>
	<stop  offset="0.5031" style="stop-color:#FAFCEF"/>
	<stop  offset="0.9693" style="stop-color:#FFFFFF"/>
</linearGradient>
<path fill="url(#SVGID_1_)" d="M54.474,23.265c2.095-2.092,0.107-3.507,0.107-3.507c-0.991-1.083-3.43-1.175-3.43-1.175
	c-3.88-0.543-6.938-3.016-6.938-3.016l-8.041-5.806c-7.547-4.991-13.439-3.155-16.826-1.045c-0.726-1.158-2.003-1.934-3.472-1.934
	c-2.258,0-4.096,1.836-4.096,4.096c0,1.469,0.779,2.743,1.938,3.469c-2.113,3.387-3.947,9.277,1.043,16.826l5.804,8.044
	c0,0,2.476,3.05,3.018,6.936c0,0,0.092,2.436,1.175,3.429c0,0,1.415,1.987,3.513-0.107l9.715-9.713
	c0.675,2.252,2.74,3.904,5.213,3.904c3.016,0,5.464-2.445,5.464-5.462c0-2.473-1.652-4.538-3.906-5.214l0.136-0.137L54.474,23.265z"
	/>
<path fill="#FFFFFF" d="M45.475,33.269l-0.583,0.584l-0.136,0.137c2.128,0.638,3.701,2.52,3.872,4.809
	c0.021-0.195,0.034-0.394,0.034-0.595C48.662,36.003,47.351,34.132,45.475,33.269z"/>
<path fill="#FFFFFF" d="M15.875,7.782c1.469,0,2.746,0.776,3.472,1.934c3.387-2.11,9.279-3.946,16.826,1.045l8.041,5.806
	c0,0,3.058,2.472,6.938,3.016c0,0,2.438,0.092,3.43,1.175c0,0,0.574,0.414,0.778,1.12c0.36-1.305-0.778-2.12-0.778-2.12
	c-0.991-1.083-3.43-1.175-3.43-1.175c-3.88-0.543-6.938-3.016-6.938-3.016l-8.041-5.806c-7.547-4.991-13.439-3.155-16.826-1.045
	c-0.726-1.158-2.003-1.934-3.472-1.934c-2.258,0-4.096,1.836-4.096,4.096c0,0.196,0.016,0.388,0.043,0.576
	C12.038,9.396,13.762,7.782,15.875,7.782z"/>
<path fill="#FFFFFF" d="M13.718,15.347c-0.144-0.09-0.281-0.188-0.413-0.294c-0.998,1.81-1.822,4.202-1.724,7.076
	C11.694,19.322,12.67,17.026,13.718,15.347z"/>
</svg>
