<?xml version="1.0" encoding="utf-8"?>
<!-- Generator: Adobe Illustrator 15.0.0, SVG Export Plug-In . SVG Version: 6.00 Build 0)  -->
<!DOCTYPE svg PUBLIC "-//W3C//DTD SVG 1.1//EN" "http://www.w3.org/Graphics/SVG/1.1/DTD/svg11.dtd">
<svg version="1.1" id="Ebene_1" xmlns="http://www.w3.org/2000/svg" xmlns:xlink="http://www.w3.org/1999/xlink" x="0px" y="0px"
	 width="67px" height="57px" viewBox="0 0 67 57" enable-background="new 0 0 67 57" xml:space="preserve">
<g>
	<rect fill="none" width="67" height="57"/>
</g>
<g>
	<rect x="10.5" y="5.5" fill="none" width="46" height="46"/>
</g>
<path opacity="0.15" enable-background="new    " d="M44,55c-1.654,0-3-1.346-3-3v-2c0,0.553-0.447,1-1,1H17c-1.654,0-3-1.346-3-3
	V10c0-1.654,1.346-3,3-3h7c0.553,0,1,0.447,1,1V7c0-2.206,1.794-4,4-4h8c2.206,0,4,1.794,4,4v1c0-0.553,0.447-1,1-1h7
	c1.654,0,3,1.346,3,3v22c0,0.553-0.447,1-1,1h9c1.654,0,3,1.346,3,3v16c0,1.654-1.346,3-3,3H44z M40,38c0.553,0,1,0.447,1,1v-3
	c0,0.553-0.447,1-1,1H23v1H40z M43,30v-1H23v1H43z M43,22v-1H23v1H43z"/>
<path opacity="0.3" enable-background="new    " d="M40,8c0-1.657-1.343-3-3-3h-8c-1.657,0-3,1.343-3,3v5h14V8z M51,33V11
	c0-1.104-0.896-2-2-2h-7v4c0,1.104-0.896,2-2,2H26c-1.104,0-2-0.896-2-2V9h-7c-1.104,0-2,0.896-2,2v38c0,1.104,0.896,2,2,2h23V40H22
	v-3h18c0-2.206,1.794-4,4-4H51z M22,21h22v3H22V21z M22,32v-3h22v3H22z M60,35H44c-1.104,0-2,0.896-2,2v16c0,1.104,0.896,2,2,2h16
	c1.104,0,2-0.896,2-2V37C62,35.896,61.104,35,60,35z"/>
<linearGradient id="SVGID_1_" gradientUnits="userSpaceOnUse" x1="175.9805" y1="-257.0195" x2="175.9805" y2="-207.0195" gradientTransform="matrix(1 0 0 -1 -137.48 -203.0195)">
	<stop  offset="0" style="stop-color:#D0CBC5"/>
	<stop  offset="0.5031" style="stop-color:#FAFCEF"/>
	<stop  offset="0.9693" style="stop-color:#FFFFFF"/>
</linearGradient>
<path fill="url(#SVGID_1_)" d="M40,7c0-1.657-1.343-3-3-3h-8c-1.657,0-3,1.343-3,3v5h14V7z M51,32V10c0-1.104-0.896-2-2-2h-7v4
	c0,1.104-0.896,2-2,2H26c-1.104,0-2-0.896-2-2V8h-7c-1.104,0-2,0.896-2,2v38c0,1.104,0.896,2,2,2h23V39H22v-3h18
	c0-2.206,1.794-4,4-4H51z M22,20h22v3H22V20z M22,31v-3h22v3H22z M60,34H44c-1.104,0-2,0.896-2,2v16c0,1.104,0.896,2,2,2h16
	c1.104,0,2-0.896,2-2V36C62,34.896,61.104,34,60,34z"/>
<path fill="#FFFFFF" d="M22,32h22v-1H22V32z M29,5h8c1.657,0,3,1.343,3,3V7c0-1.657-1.343-3-3-3h-8c-1.657,0-3,1.343-3,3v1
	C26,6.343,27.343,5,29,5z M51,11v-1c0-1.104-0.896-2-2-2h-7v1h7C50.104,9,51,9.896,51,11z M44,23H22v1h22V23z M24,13
	c0,1.104,0.896,2,2,2h14c1.104,0,2-0.896,2-2v-1c0,1.104-0.896,2-2,2H26c-1.104,0-2-0.896-2-2V13z M60,34H44c-1.104,0-2,0.896-2,2v1
	c0-1.104,0.896-2,2-2h16c1.104,0,2,0.896,2,2v-1C62,34.896,61.104,34,60,34z M24,8h-7c-1.104,0-2,0.896-2,2v1c0-1.104,0.896-2,2-2h7
	V8z M22,40h18v-1H22V40z"/>
</svg>
