<?xml version="1.0" encoding="utf-8"?>
<!-- Generator: Adobe Illustrator 15.0.2, SVG Export Plug-In . SVG Version: 6.00 Build 0)  -->
<!DOCTYPE svg PUBLIC "-//W3C//DTD SVG 1.1//EN" "http://www.w3.org/Graphics/SVG/1.1/DTD/svg11.dtd">
<svg version="1.1" xmlns="http://www.w3.org/2000/svg" xmlns:xlink="http://www.w3.org/1999/xlink" x="0px" y="0px" width="67px"
	 height="57px" viewBox="0 0 67 57" enable-background="new 0 0 67 57" xml:space="preserve">
<g id="DO_NOT_EDIT_-_BOUNDING_BOX">
	<rect id="BOUNDING_BOX" fill="none" width="67" height="57"/>
</g>
<g id="PLACE_YOUR_GRAPHIC_HERE">
	<path opacity="0.3" d="M52.273,12.403c-5.635-5.635-14.853-5.631-20.487,0L13.538,30.651c-4.05,4.051-4.05,10.68,0,14.729
		c4.046,4.05,10.675,4.05,14.726,0l6.724-6.725l10.884-10.884c2.466-2.465,2.466-6.5,0-8.967c-2.465-2.462-6.498-2.462-8.963,0.004
		l-17.29,17.286l3.205,3.203l17.287-17.288c0.696-0.693,1.867-0.693,2.561,0c0.697,0.694,0.697,1.867,0.004,2.561l-17.612,17.61
		c-2.296,2.294-6.027,2.294-8.323,0c-2.299-2.298-2.299-6.029,0-8.325l18.249-18.25c3.884-3.886,10.201-3.886,14.085,0
		c3.888,3.886,3.888,10.203,0,14.086L31.146,47.62l3.201,3.201l17.927-17.927C57.909,27.259,57.909,18.04,52.273,12.403z"/>
	<path opacity="0.15" d="M34.347,50.821c-0.266,0-0.52-0.105-0.707-0.293l-3.201-3.201c-0.391-0.391-0.391-1.023,0-1.414
		l17.926-17.928c1.691-1.689,2.623-3.939,2.623-6.335s-0.932-4.646-2.623-6.336c-1.689-1.691-3.939-2.622-6.336-2.622
		c-2.396,0-4.646,0.931-6.335,2.621l-18.249,18.25c-0.923,0.922-1.431,2.148-1.432,3.454c0,1.307,0.508,2.534,1.432,3.457
		c0.921,0.92,2.148,1.428,3.455,1.428s2.533-0.508,3.455-1.428l17.612-17.61c0.146-0.146,0.227-0.35,0.227-0.572
		c0-0.223-0.082-0.426-0.229-0.573c-0.147-0.148-0.351-0.229-0.573-0.229s-0.428,0.081-0.575,0.229L23.53,39.006
		c-0.195,0.195-0.451,0.293-0.707,0.293s-0.512-0.098-0.707-0.293l-3.205-3.203c-0.188-0.188-0.293-0.441-0.293-0.707
		s0.105-0.52,0.293-0.707l17.29-17.286c1.381-1.382,3.225-2.143,5.19-2.143c1.964,0,3.806,0.759,5.187,2.138
		c1.382,1.382,2.143,3.226,2.143,5.192c0,1.965-0.761,3.809-2.143,5.189L28.97,45.088c-2.148,2.147-5.014,3.33-8.071,3.33
		s-5.923-1.183-8.069-3.33c-2.147-2.147-3.33-5.014-3.33-8.071s1.183-5.924,3.331-8.072l18.249-18.248
		c2.915-2.913,6.805-4.518,10.952-4.518s8.036,1.604,10.949,4.518c6.039,6.04,6.039,15.867,0,21.905L35.054,50.528
		C34.866,50.716,34.612,50.821,34.347,50.821L34.347,50.821z"/>
	<path opacity="0.15" d="M52.273,11.403c-5.635-5.635-14.853-5.631-20.487,0L13.538,29.651c-4.05,4.051-4.05,10.68,0,14.729
		c4.046,4.05,10.675,4.05,14.726,0l6.724-6.725l10.884-10.884c2.466-2.465,2.466-6.5,0-8.967c-2.465-2.462-6.498-2.462-8.963,0.004
		l-17.29,17.286l3.205,3.203l17.287-17.288c0.696-0.693,1.867-0.693,2.561,0c0.697,0.694,0.697,1.867,0.004,2.561l-17.612,17.61
		c-2.296,2.294-6.027,2.294-8.323,0c-2.299-2.298-2.299-6.029,0-8.325l18.249-18.25c3.884-3.886,10.201-3.886,14.085,0
		c3.888,3.886,3.888,10.203,0,14.086L31.146,46.62l3.201,3.201l17.927-17.927C57.909,26.259,57.909,17.04,52.273,11.403z"/>
	<linearGradient id="SVGID_1_" gradientUnits="userSpaceOnUse" x1="33.5005" y1="49.8213" x2="33.5005" y2="7.1792">
		<stop  offset="0" style="stop-color:#D0CBC5"/>
		<stop  offset="0.5031" style="stop-color:#FAFCEF"/>
		<stop  offset="0.9693" style="stop-color:#FFFFFF"/>
	</linearGradient>
	<path fill="url(#SVGID_1_)" d="M52.273,11.403c-5.635-5.635-14.853-5.631-20.487,0L13.538,29.651c-4.05,4.051-4.05,10.68,0,14.729
		c4.046,4.05,10.675,4.05,14.726,0l6.724-6.725l10.884-10.884c2.466-2.465,2.466-6.5,0-8.967c-2.465-2.462-6.498-2.462-8.963,0.004
		l-17.29,17.286l3.205,3.203l17.287-17.288c0.696-0.693,1.867-0.693,2.561,0c0.697,0.694,0.697,1.867,0.004,2.561l-17.612,17.61
		c-2.296,2.294-6.027,2.294-8.323,0c-2.299-2.298-2.299-6.029,0-8.325l18.249-18.25c3.884-3.886,10.201-3.886,14.085,0
		c3.888,3.886,3.888,10.203,0,14.086L31.146,46.62l3.201,3.201l17.927-17.927C57.909,26.259,57.909,17.04,52.273,11.403z"/>
	<g>
		<path fill="#FFFFFF" d="M13.538,30.651l18.249-18.248c5.635-5.631,14.853-5.635,20.487,0c2.691,2.692,4.082,6.201,4.203,9.746
			c0.132-3.879-1.259-7.801-4.203-10.746c-5.635-5.635-14.853-5.631-20.487,0L13.538,29.651c-2.152,2.152-3.148,5.031-3.014,7.865
			C10.642,35.016,11.639,32.55,13.538,30.651z"/>
		<path fill="#FFFFFF" d="M51.964,22.15c-0.118,2.381-1.075,4.728-2.892,6.542L31.146,46.62l0.5,0.5l17.426-17.428
			C51.144,27.624,52.1,24.865,51.964,22.15z"/>
		<path fill="#FFFFFF" d="M16.739,42.182c2.296,2.294,6.027,2.294,8.323,0l17.612-17.61c0.472-0.472,0.614-1.164,0.443-1.778
			c-0.081,0.287-0.223,0.557-0.443,0.778l-17.612,17.61c-2.296,2.294-6.027,2.294-8.323,0c-1.022-1.021-1.563-2.328-1.677-3.663
			C14.92,39.188,15.461,40.905,16.739,42.182z"/>
		<path fill="#FFFFFF" d="M45.871,17.806c-2.465-2.462-6.498-2.462-8.963,0.004l-17.29,17.286l0.5,0.5l16.79-16.786
			c2.465-2.466,6.498-2.466,8.963-0.004c1.106,1.107,1.712,2.529,1.825,3.984C47.836,21.002,47.23,19.166,45.871,17.806z"/>
	</g>
</g>
<g id="DO_NOT_EDIT_-_FOCAL_ZONE_GUIDES">
</g>
</svg>
