<?xml version="1.0" encoding="utf-8"?>
<!-- Generator: Adobe Illustrator 15.0.0, SVG Export Plug-In . SVG Version: 6.00 Build 0)  -->
<!DOCTYPE svg PUBLIC "-//W3C//DTD SVG 1.1//EN" "http://www.w3.org/Graphics/SVG/1.1/DTD/svg11.dtd">
<svg version="1.1" xmlns="http://www.w3.org/2000/svg" xmlns:xlink="http://www.w3.org/1999/xlink" x="0px" y="0px" width="67px"
	 height="57px" viewBox="0 0 67 57" enable-background="new 0 0 67 57" xml:space="preserve">
<g id="DO_NOT_EDIT_-_BOUNDING_BOX">
	<rect id="BOUNDING_BOX" fill="none" width="67" height="57"/>
</g>
<g id="PLACE_YOUR_GRAPHIC_HERE">
	<path opacity="0.3" d="M32.652,31.494V17.627l11.122-2.941v12.017c-1.252-0.333-2.856-0.175-4.394,0.568
		c-2.614,1.264-4.014,3.7-3.125,5.439s3.731,2.124,6.351,0.856c2.082-1.007,3.395-2.756,3.392-4.305V8.728
		c0-0.611-0.485-0.983-1.075-0.828l-13.422,3.549c-0.591,0.157-1.075,0.785-1.075,1.396v16.084
		c-1.251-0.336-2.856-0.175-4.393,0.566c-2.614,1.267-4.016,3.7-3.125,5.439c0.889,1.739,3.731,2.121,6.35,0.858
		C31.337,34.784,32.652,33.04,32.652,31.494z M21.193,40.823c-2.181,0-3.945,1.767-3.945,3.945s1.765,3.945,3.945,3.945
		c2.179,0,3.945-1.767,3.945-3.945S23.372,40.823,21.193,40.823z M13.011,42.258c-1.388,0-2.511,1.123-2.511,2.511
		c0,1.386,1.123,2.512,2.511,2.512c1.387,0,2.511-1.126,2.511-2.512C15.521,43.381,14.397,42.258,13.011,42.258z M33.483,38.402
		c-3.517,0-6.366,2.851-6.366,6.366c0,3.517,2.85,6.367,6.366,6.367s6.366-2.851,6.366-6.367C39.85,41.253,37,38.402,33.483,38.402z
		 M45.776,40.825c-2.179,0-3.947,1.765-3.947,3.943s1.769,3.945,3.947,3.945c2.176,0,3.943-1.767,3.943-3.945
		S47.952,40.825,45.776,40.825z M53.99,42.258c-1.386,0-2.512,1.123-2.512,2.511c0,1.386,1.126,2.512,2.512,2.512
		c1.387,0,2.51-1.126,2.51-2.512C56.5,43.381,55.377,42.258,53.99,42.258z"/>
	<path opacity="0.15" d="M33.483,51.136c-3.941,0-7.17-3.112-7.357-7.009c-0.185,2.561-2.326,4.587-4.933,4.587
		c-2.366,0-4.349-1.67-4.833-3.894c-0.448,1.424-1.78,2.46-3.35,2.46c-1.936,0-3.511-1.575-3.511-3.512
		c0-1.936,1.575-3.511,3.511-3.511c1.569,0,2.902,1.035,3.35,2.459c0.483-2.224,2.466-3.894,4.833-3.894
		c2.606,0,4.748,2.026,4.933,4.587c0.188-3.896,3.416-7.008,7.357-7.008c3.944,0,7.175,3.116,7.358,7.016
		c0.18-2.563,2.324-4.593,4.935-4.593c2.388,0,4.385,1.701,4.844,3.954c0.429-1.456,1.777-2.521,3.37-2.521
		c1.936,0,3.51,1.575,3.51,3.511c0,1.937-1.574,3.512-3.51,3.512c-1.593,0-2.941-1.066-3.37-2.522
		c-0.459,2.255-2.456,3.956-4.844,3.956c-2.61,0-4.755-2.031-4.935-4.595C40.658,48.02,37.428,51.136,33.483,51.136z M26.165,36.536
		c-1.91,0-3.46-0.803-4.147-2.147c-0.446-0.872-0.5-1.879-0.153-2.913c0.519-1.55,1.915-3,3.733-3.881
		c1.131-0.546,2.339-0.833,3.494-0.833c0.113,0,0.224,0.002,0.334,0.008V11.844c0-1.071,0.782-2.086,1.818-2.362l13.423-3.549
		c0.173-0.045,0.348-0.069,0.52-0.069c1.033,0,1.812,0.801,1.812,1.863v20.535c0.004,1.997-1.549,4.041-3.956,5.205
		c-1.145,0.554-2.365,0.847-3.53,0.847c-1.909,0-3.459-0.803-4.146-2.148c-0.446-0.874-0.499-1.883-0.151-2.918
		c0.521-1.549,1.916-2.999,3.731-3.876c1.129-0.545,2.338-0.834,3.495-0.834c0.112,0,0.224,0.002,0.334,0.008v-9.56l-9.122,2.412
		v13.097c0,1.992-1.554,4.032-3.958,5.197C28.548,36.244,27.328,36.536,26.165,36.536C26.165,36.536,26.165,36.536,26.165,36.536z"
		/>
	<path opacity="0.15" d="M32.652,30.494V16.627l11.122-2.941v12.017c-1.252-0.333-2.856-0.175-4.394,0.568
		c-2.614,1.264-4.014,3.7-3.125,5.439s3.731,2.124,6.351,0.856c2.082-1.007,3.395-2.756,3.392-4.304V7.728
		c0-0.611-0.485-0.983-1.075-0.828l-13.422,3.549c-0.591,0.157-1.075,0.785-1.075,1.396v16.084
		c-1.251-0.336-2.856-0.175-4.393,0.566c-2.614,1.266-4.016,3.7-3.125,5.439c0.889,1.739,3.731,2.121,6.35,0.858
		C31.337,33.784,32.652,32.04,32.652,30.494z M21.193,39.823c-2.181,0-3.945,1.767-3.945,3.945s1.765,3.945,3.945,3.945
		c2.179,0,3.945-1.767,3.945-3.945S23.372,39.823,21.193,39.823z M13.011,41.258c-1.388,0-2.511,1.123-2.511,2.511
		c0,1.386,1.123,2.512,2.511,2.512c1.387,0,2.511-1.126,2.511-2.512C15.521,42.381,14.397,41.258,13.011,41.258z M33.483,37.402
		c-3.517,0-6.366,2.851-6.366,6.366c0,3.517,2.85,6.367,6.366,6.367s6.366-2.851,6.366-6.367C39.85,40.253,37,37.402,33.483,37.402z
		 M45.776,39.825c-2.179,0-3.947,1.765-3.947,3.943s1.769,3.945,3.947,3.945c2.176,0,3.943-1.767,3.943-3.945
		S47.952,39.825,45.776,39.825z M53.99,41.258c-1.386,0-2.512,1.123-2.512,2.511c0,1.386,1.126,2.512,2.512,2.512
		c1.387,0,2.51-1.126,2.51-2.512C56.5,42.381,55.377,41.258,53.99,41.258z"/>
	<linearGradient id="SVGID_1_" gradientUnits="userSpaceOnUse" x1="33.5005" y1="50.1357" x2="33.5005" y2="6.8647">
		<stop  offset="0" style="stop-color:#D0CBC5"/>
		<stop  offset="0.5031" style="stop-color:#FAFCEF"/>
		<stop  offset="0.9693" style="stop-color:#FFFFFF"/>
	</linearGradient>
	<path fill="url(#SVGID_1_)" d="M32.652,30.494V16.627l11.122-2.941v12.017c-1.252-0.333-2.856-0.175-4.394,0.568
		c-2.614,1.264-4.014,3.7-3.125,5.439s3.731,2.124,6.351,0.856c2.082-1.007,3.395-2.756,3.392-4.304V7.728
		c0-0.611-0.485-0.983-1.075-0.828l-13.422,3.549c-0.591,0.157-1.075,0.785-1.075,1.396v16.084
		c-1.251-0.336-2.856-0.175-4.393,0.566c-2.614,1.266-4.016,3.7-3.125,5.439c0.889,1.739,3.731,2.121,6.35,0.858
		C31.337,33.784,32.652,32.04,32.652,30.494z M21.193,39.823c-2.181,0-3.945,1.767-3.945,3.945s1.765,3.945,3.945,3.945
		c2.179,0,3.945-1.767,3.945-3.945S23.372,39.823,21.193,39.823z M13.011,41.258c-1.388,0-2.511,1.123-2.511,2.511
		c0,1.386,1.123,2.512,2.511,2.512c1.387,0,2.511-1.126,2.511-2.512C15.521,42.381,14.397,41.258,13.011,41.258z M33.483,37.402
		c-3.517,0-6.366,2.851-6.366,6.366c0,3.517,2.85,6.367,6.366,6.367s6.366-2.851,6.366-6.367C39.85,40.253,37,37.402,33.483,37.402z
		 M45.776,39.825c-2.179,0-3.947,1.765-3.947,3.943s1.769,3.945,3.947,3.945c2.176,0,3.943-1.767,3.943-3.945
		S47.952,39.825,45.776,39.825z M53.99,41.258c-1.386,0-2.512,1.123-2.512,2.511c0,1.386,1.126,2.512,2.512,2.512
		c1.387,0,2.51-1.126,2.51-2.512C56.5,42.381,55.377,41.258,53.99,41.258z"/>
	<path fill="#FFFFFF" d="M30.426,12.844v-1c0-0.611,0.484-1.238,1.075-1.396L44.923,6.9c0.59-0.156,1.075,0.216,1.075,0.828v1
		c0-0.611-0.485-0.983-1.075-0.828l-13.422,3.549C30.91,11.606,30.426,12.233,30.426,12.844z M26.033,29.494
		c1.536-0.741,3.142-0.902,4.393-0.566v-1c-1.251-0.336-2.856-0.175-4.393,0.566c-2.317,1.122-3.672,3.159-3.333,4.819
		C22.937,31.896,24.167,30.398,26.033,29.494z M39.381,27.271c1.537-0.743,3.142-0.902,4.394-0.568v-1
		c-1.252-0.333-2.856-0.175-4.394,0.568c-2.317,1.12-3.671,3.159-3.332,4.819C36.285,29.673,37.514,28.173,39.381,27.271z
		 M53.99,42.258c1.216,0,2.228,0.863,2.459,2.011c0.033-0.162,0.051-0.329,0.051-0.5c0-1.388-1.123-2.511-2.51-2.511
		c-1.386,0-2.512,1.123-2.512,2.511c0,0.171,0.018,0.338,0.051,0.5C51.761,43.121,52.775,42.258,53.99,42.258z M45.776,39.825
		c-2.179,0-3.947,1.765-3.947,3.943c0,0.171,0.029,0.335,0.051,0.5c0.248-1.939,1.889-3.443,3.896-3.443
		c2.005,0,3.645,1.504,3.893,3.443c0.021-0.165,0.051-0.329,0.051-0.5C49.72,41.59,47.952,39.825,45.776,39.825z M33.483,37.402
		c-3.517,0-6.366,2.851-6.366,6.366c0,0.169,0.012,0.335,0.025,0.5c0.255-3.281,2.993-5.866,6.341-5.866s6.085,2.585,6.341,5.866
		c0.013-0.165,0.025-0.331,0.025-0.5C39.85,40.253,37,37.402,33.483,37.402z M13.011,41.258c-1.388,0-2.511,1.123-2.511,2.511
		c0,0.171,0.018,0.338,0.05,0.5c0.232-1.147,1.244-2.011,2.46-2.011c1.215,0,2.229,0.863,2.46,2.011
		c0.033-0.162,0.05-0.329,0.05-0.5C15.521,42.381,14.397,41.258,13.011,41.258z M21.193,39.823c-2.181,0-3.945,1.767-3.945,3.945
		c0,0.171,0.029,0.335,0.05,0.5c0.248-1.94,1.886-3.445,3.895-3.445c2.007,0,3.646,1.505,3.895,3.445
		c0.021-0.165,0.05-0.329,0.05-0.5C25.139,41.59,23.372,39.823,21.193,39.823z"/>
</g>
<g id="DO_NOT_EDIT_-_FOCAL_ZONE_GUIDES">
</g>
</svg>
