<?xml version="1.0" encoding="utf-8"?>
<!-- Generator: Adobe Illustrator 15.0.0, SVG Export Plug-In . SVG Version: 6.00 Build 0)  -->
<!DOCTYPE svg PUBLIC "-//W3C//DTD SVG 1.1//EN" "http://www.w3.org/Graphics/SVG/1.1/DTD/svg11.dtd">
<svg version="1.1" xmlns="http://www.w3.org/2000/svg" xmlns:xlink="http://www.w3.org/1999/xlink" x="0px" y="0px" width="67px"
	 height="57px" viewBox="0 0 67 57" enable-background="new 0 0 67 57" xml:space="preserve">
<g id="DO_NOT_EDIT_-_BOUNDING_BOX">
	<rect id="BOUNDING_BOX" fill="none" width="67" height="57"/>
</g>
<g id="PLACE_YOUR_GRAPHIC_HERE">
	<path opacity="0.3" d="M20.3,21.587L11.385,52.5h5.185l1.823-6.801h9.351l1.783,6.801h6.033l-8.542-30.913H20.3z M19.201,42.217
		l3.897-15.363l3.796,15.363H19.201z M55.615,20.654l-13.127,0.003L47.101,6.5h-8.12l-6.365,19.462h13.362l-4.306,10.615
		l-4.522,0.003l8.846,15.92l8.847-15.923h-5.047L55.615,20.654z"/>
	<rect x="16.381" y="16.446" fill="none" width="30" height="30"/>
	<path opacity="0.15" d="M45.995,52.5c-0.363,0-0.697-0.197-0.874-0.515l-8.846-15.92c-0.172-0.31-0.168-0.687,0.012-0.992
		s0.508-0.493,0.861-0.493l3.85-0.003l3.495-8.615H32.615c-0.32,0-0.622-0.154-0.81-0.413s-0.241-0.593-0.141-0.898L38.03,5.189
		C38.164,4.778,38.548,4.5,38.98,4.5h8.12c0.32,0,0.621,0.153,0.81,0.413c0.188,0.259,0.24,0.593,0.142,0.897l-4.186,12.847
		l11.749-0.003c0.326,0,0.632,0.159,0.819,0.427s0.232,0.61,0.12,0.917l-5.329,14.58h3.616c0.354,0,0.683,0.188,0.862,0.493
		c0.18,0.305,0.184,0.683,0.012,0.992l-8.847,15.923C46.693,52.303,46.358,52.5,45.995,52.5z M29.526,52.5
		c-0.455,0-0.852-0.307-0.967-0.746l-1.587-6.055H19.16l-1.624,6.06c-0.117,0.438-0.513,0.741-0.966,0.741h-5.185
		c-0.314,0-0.61-0.147-0.799-0.398c-0.188-0.251-0.249-0.577-0.162-0.879l8.915-30.913c0.124-0.428,0.515-0.723,0.961-0.723h6.718
		c0.45,0,0.844,0.3,0.964,0.734l8.542,30.913c0.083,0.301,0.021,0.624-0.168,0.872c-0.189,0.249-0.483,0.395-0.796,0.395H29.526z
		 M25.617,40.217l-2.531-10.246l-2.6,10.246H25.617z"/>
	<path opacity="0.15" d="M20.3,20.587L11.385,51.5h5.185l1.823-6.801h9.351l1.783,6.801h6.033l-8.542-30.913H20.3z M19.201,41.217
		l3.897-15.363l3.796,15.363H19.201z M55.615,19.654l-13.127,0.003L47.101,5.5h-8.12l-6.365,19.462h13.362l-4.306,10.615
		l-4.522,0.003l8.846,15.92l8.847-15.923h-5.047L55.615,19.654z"/>
	<linearGradient id="SVGID_1_" gradientUnits="userSpaceOnUse" x1="33.5005" y1="51.5" x2="33.5005" y2="5.5005">
		<stop  offset="0" style="stop-color:#D0CBC5"/>
		<stop  offset="0.5031" style="stop-color:#FAFCEF"/>
		<stop  offset="0.9693" style="stop-color:#FFFFFF"/>
	</linearGradient>
	<path fill="url(#SVGID_1_)" d="M20.3,20.587L11.385,51.5h5.185l1.823-6.801h9.351l1.783,6.801h6.033l-8.542-30.913H20.3z
		 M19.201,41.217l3.897-15.363l3.796,15.363H19.201z M55.615,19.654l-13.127,0.003L47.101,5.5h-8.12l-6.365,19.462h13.362
		l-4.306,10.615l-4.522,0.003l8.846,15.92l8.847-15.923h-5.047L55.615,19.654z"/>
	<path fill="#FFFFFF" d="M41.672,36.577l-3.967,0.003l-0.556-1l4.522-0.003l3.9-9.615h0.405L41.672,36.577z M38.98,6.5h7.794
		l0.326-1h-8.12l-6.365,19.462h0.327L38.98,6.5z M42.814,19.657l-0.326,1l12.762-0.003l0.365-1L42.814,19.657z M20.3,20.587
		L11.385,51.5h0.289L20.3,21.587h6.718L35.283,51.5h0.276l-8.542-30.913H20.3z M49.795,36.577h4.491l0.556-1H50.16L49.795,36.577z
		 M26.895,42.217l-0.247-1h-7.192l-0.254,1H26.895z"/>
</g>
<g id="DO_NOT_EDIT_-_FOCAL_ZONE_GUIDES">
</g>
</svg>
