<?xml version="1.0" encoding="utf-8"?>
<!-- Generator: Adobe Illustrator 15.0.2, SVG Export Plug-In . SVG Version: 6.00 Build 0)  -->
<!DOCTYPE svg PUBLIC "-//W3C//DTD SVG 1.1//EN" "http://www.w3.org/Graphics/SVG/1.1/DTD/svg11.dtd">
<svg version="1.1" xmlns="http://www.w3.org/2000/svg" xmlns:xlink="http://www.w3.org/1999/xlink" x="0px" y="0px" width="67px"
	 height="57px" viewBox="0 0 67 57" enable-background="new 0 0 67 57" xml:space="preserve">
<g id="DO_NOT_EDIT_-_BOUNDING_BOX">
	<rect id="BOUNDING_BOX" fill="none" width="67" height="57"/>
</g>
<g id="PLACE_YOUR_GRAPHIC_HERE">
	<path opacity="0.3" d="M35.589,28.807l-5.887,5.888l2.528,2.528l5.887-5.888l5.889,5.888l2.528-2.528l-5.885-5.888l5.887-5.886
		l-2.528-2.53l-5.887,5.886l-5.888-5.886l-2.528,2.528L35.589,28.807z M54,13H31.333c-1.1,0-2.875,0.211-3.944,0.47l-2.419,1.001
		c-0.938,0.574-2.343,1.679-3.121,2.457L11.193,27.586c-0.778,0.778-0.778,2.051,0,2.828L21.85,41.069
		c0.778,0.777,2.182,1.884,3.12,2.458l2.419,1.003c1.069,0.259,2.844,0.47,3.944,0.47H54c1.1,0,2-0.9,2-2V15C56,13.9,55.1,13,54,13z
		 M52,41H31.333c-0.7,0-1.938-0.139-2.735-0.299l-1.773-0.734c-0.678-0.453-1.652-1.231-2.148-1.727L15.436,29l9.242-9.244
		c0.494-0.494,1.467-1.271,2.146-1.724l1.772-0.734C29.396,17.139,30.634,17,31.333,17H52V41z"/>
	<path opacity="0.15" d="M31.333,45c-1.19,0-3.026-0.219-4.179-0.498c-0.05-0.012-0.1-0.028-0.147-0.048l-2.419-1.003
		c-0.048-0.02-0.095-0.044-0.139-0.071c-1.012-0.619-2.464-1.763-3.305-2.604L10.486,30.121c-1.17-1.169-1.17-3.073,0-4.242
		l10.656-10.658c0.839-0.84,2.292-1.983,3.306-2.603c0.044-0.027,0.091-0.051,0.139-0.071l2.419-1.001
		c0.048-0.02,0.097-0.036,0.147-0.048C28.309,11.219,30.145,11,31.333,11H54c1.654,0,3,1.346,3,3v28c0,1.654-1.346,3-3,3H31.333z
		 M28.888,38.739C29.642,38.882,30.736,39,31.333,39H51V17H31.333c-0.596,0-1.691,0.118-2.446,0.261L27.3,17.918
		c-0.636,0.433-1.493,1.125-1.915,1.545L16.85,28l8.534,8.533c0.422,0.421,1.281,1.113,1.917,1.549L28.888,38.739z M44.006,37.223
		c-0.256,0-0.512-0.098-0.707-0.293l-5.182-5.181l-5.18,5.181c-0.188,0.188-0.442,0.293-0.707,0.293s-0.52-0.105-0.707-0.293
		l-2.528-2.528c-0.391-0.391-0.391-1.023,0-1.414l5.18-5.181l-5.177-5.181c-0.39-0.391-0.39-1.024,0-1.414l2.528-2.528
		c0.195-0.195,0.451-0.293,0.707-0.293s0.512,0.098,0.707,0.293l5.181,5.179l5.18-5.179c0.188-0.188,0.441-0.293,0.707-0.293l0,0
		c0.266,0,0.52,0.105,0.707,0.293l2.528,2.53c0.391,0.391,0.391,1.024,0,1.414l-5.18,5.179l5.178,5.181
		c0.391,0.391,0.391,1.023,0,1.414l-2.528,2.528C44.518,37.125,44.262,37.223,44.006,37.223z"/>
	<path opacity="0.15" d="M35.589,27.807l-5.887,5.888l2.528,2.528l5.887-5.888l5.889,5.888l2.528-2.528l-5.885-5.888l5.887-5.886
		l-2.528-2.53l-5.887,5.886l-5.888-5.886l-2.528,2.528L35.589,27.807z M54,12H31.333c-1.1,0-2.875,0.211-3.944,0.47l-2.419,1.001
		c-0.938,0.574-2.343,1.679-3.121,2.457L11.193,26.586c-0.778,0.778-0.778,2.05,0,2.828L21.85,40.069
		c0.778,0.777,2.182,1.884,3.12,2.458l2.419,1.003c1.069,0.259,2.844,0.47,3.944,0.47H54c1.1,0,2-0.9,2-2V14C56,12.9,55.1,12,54,12z
		 M52,40H31.333c-0.7,0-1.938-0.139-2.735-0.299l-1.773-0.734c-0.678-0.453-1.652-1.231-2.148-1.727L15.436,28l9.242-9.244
		c0.494-0.494,1.467-1.271,2.146-1.724l1.772-0.734C29.396,16.139,30.634,16,31.333,16H52V40z"/>
	<linearGradient id="SVGID_1_" gradientUnits="userSpaceOnUse" x1="33.3052" y1="44" x2="33.3052" y2="12.0005">
		<stop  offset="0" style="stop-color:#D0CBC5"/>
		<stop  offset="0.5031" style="stop-color:#FAFCEF"/>
		<stop  offset="0.9693" style="stop-color:#FFFFFF"/>
	</linearGradient>
	<path fill="url(#SVGID_1_)" d="M35.589,27.807l-5.887,5.888l2.528,2.528l5.887-5.888l5.889,5.888l2.528-2.528l-5.885-5.888
		l5.887-5.886l-2.528-2.53l-5.887,5.886l-5.888-5.886l-2.528,2.528L35.589,27.807z M54,12H31.333c-1.1,0-2.875,0.211-3.944,0.47
		l-2.419,1.001c-0.938,0.574-2.343,1.679-3.121,2.457L11.193,26.586c-0.778,0.778-0.778,2.05,0,2.828L21.85,40.069
		c0.778,0.777,2.182,1.884,3.12,2.458l2.419,1.003c1.069,0.259,2.844,0.47,3.944,0.47H54c1.1,0,2-0.9,2-2V14C56,12.9,55.1,12,54,12z
		 M52,40H31.333c-0.7,0-1.938-0.139-2.735-0.299l-1.773-0.734c-0.678-0.453-1.652-1.231-2.148-1.727L15.436,28l9.242-9.244
		c0.494-0.494,1.467-1.271,2.146-1.724l1.772-0.734C29.396,16.139,30.634,16,31.333,16H52V40z"/>
	<path fill="#FFFFFF" d="M30.202,34.194l5.387-5.388l-0.5-0.5l-5.387,5.388L30.202,34.194z M40.649,28.807l5.385,5.388l0.5-0.5
		l-5.385-5.388L40.649,28.807z M44.008,19.391l-5.887,5.886l-5.888-5.886l-2.528,2.528l0.5,0.5l2.028-2.028l5.888,5.886l5.887-5.886
		l2.028,2.03l0.5-0.5L44.008,19.391z M28.598,39.701l-1.773-0.734c-0.678-0.453-1.652-1.231-2.148-1.727l-8.741-8.74l-0.5,0.5
		l9.241,9.24c0.496,0.495,1.47,1.273,2.148,1.727l1.773,0.734C29.396,40.861,30.633,41,31.333,41H52v-1H31.333
		C30.633,40,29.396,39.861,28.598,39.701z M54,12H31.333c-1.1,0-2.875,0.211-3.944,0.47l-2.419,1.001
		c-0.938,0.574-2.343,1.679-3.121,2.457L11.193,26.586c-0.517,0.517-0.683,1.25-0.512,1.914c0.086-0.335,0.251-0.653,0.512-0.914
		L21.85,16.928c0.778-0.778,2.182-1.883,3.121-2.457l2.419-1.001c1.069-0.258,2.844-0.47,3.944-0.47H54c1.1,0,2,0.9,2,2v-1
		C56,12.9,55.1,12,54,12z"/>
</g>
<g id="DO_NOT_EDIT_-_FOCAL_ZONE_GUIDES">
</g>
</svg>
