<?xml version="1.0" encoding="utf-8"?>
<!-- Generator: Adobe Illustrator 15.0.2, SVG Export Plug-In  -->
<!DOCTYPE svg PUBLIC "-//W3C//DTD SVG 1.1//EN" "http://www.w3.org/Graphics/SVG/1.1/DTD/svg11.dtd" [
	<!ENTITY ns_flows "http://ns.adobe.com/Flows/1.0/">
]>
<svg version="1.1"
	 xmlns="http://www.w3.org/2000/svg" xmlns:xlink="http://www.w3.org/1999/xlink" xmlns:a="http://ns.adobe.com/AdobeSVGViewerExtensions/3.0/"
	 x="0px" y="0px" width="67px" height="57px" viewBox="0 0 67 57" enable-background="new 0 0 67 57" xml:space="preserve">
<defs>
</defs>
<rect id="BOUNDING_BOX_1_" fill="none" width="67" height="57"/>
<path opacity="0.3" d="M54.516,25.534H25.563l10.499-10.5c0.772-0.775,0.772-2.034,0-2.805l-3.146-3.147
	c-0.771-0.775-2.033-0.775-2.805,0L11.094,28.099c-0.771,0.771-0.771,2.03,0,2.806l19.018,19.018c0.771,0.771,2.033,0.771,2.805,0
	l3.146-3.146c0.772-0.772,0.772-2.035,0-2.807l-10.499-10.5h28.953c1.091,0,1.984-0.896,1.984-1.984v-3.968
	C56.5,26.425,55.606,25.534,54.516,25.534z"/>
<path opacity="0.15" d="M31.514,50.5c-0.798,0-1.547-0.31-2.109-0.87L10.387,30.611c-1.161-1.167-1.161-3.059,0-4.22L29.404,7.374
	c0.561-0.563,1.31-0.874,2.109-0.874s1.549,0.311,2.111,0.875l3.144,3.146c1.162,1.16,1.163,3.053,0.001,4.218l-8.793,8.794h26.539
	c1.646,0,2.984,1.338,2.984,2.983v3.968c0,1.646-1.339,2.984-2.984,2.984H27.977l8.792,8.793c0.563,0.562,0.872,1.312,0.872,2.11
	c0,0.798-0.31,1.548-0.872,2.11l-3.146,3.146C33.061,50.19,32.312,50.5,31.514,50.5z"/>
<path opacity="0.15" d="M54.516,24.534H25.563l10.499-10.5c0.772-0.775,0.772-2.034,0-2.805l-3.146-3.147
	c-0.771-0.775-2.033-0.775-2.805,0L11.094,27.099c-0.771,0.771-0.771,2.03,0,2.806l19.018,19.018c0.771,0.771,2.033,0.771,2.805,0
	l3.146-3.146c0.772-0.772,0.772-2.035,0-2.807l-10.499-10.5h28.953c1.091,0,1.984-0.896,1.984-1.984v-3.968
	C56.5,25.425,55.606,24.534,54.516,24.534z"/>
<linearGradient id="SVGID_1_" gradientUnits="userSpaceOnUse" x1="33.5078" y1="49.5" x2="33.5078" y2="7.5005">
	<stop  offset="0" style="stop-color:#D0CBC5"/>
	<stop  offset="0.5031" style="stop-color:#FAFCEF"/>
	<stop  offset="0.9693" style="stop-color:#FFFFFF"/>
</linearGradient>
<path fill="url(#SVGID_1_)" d="M54.516,24.534H25.563l10.499-10.5c0.772-0.775,0.772-2.034,0-2.805l-3.146-3.147
	c-0.771-0.775-2.033-0.775-2.805,0L11.094,27.099c-0.771,0.771-0.771,2.03,0,2.806l19.018,19.018c0.771,0.771,2.033,0.771,2.805,0
	l3.146-3.146c0.772-0.772,0.772-2.035,0-2.807l-10.499-10.5h28.953c1.091,0,1.984-0.896,1.984-1.984v-3.968
	C56.5,25.425,55.606,24.534,54.516,24.534z"/>
<path fill="#FFFFFF" d="M11.094,28.099L30.111,9.081c0.771-0.775,2.033-0.775,2.805,0l3.146,3.147
	c0.258,0.257,0.422,0.571,0.508,0.901c0.171-0.66,0.007-1.388-0.508-1.901l-3.146-3.147c-0.771-0.775-2.033-0.775-2.805,0
	L11.094,27.099c-0.514,0.514-0.678,1.242-0.507,1.901C10.672,28.67,10.836,28.356,11.094,28.099z"/>
<path fill="#FFFFFF" d="M26.563,33.47h-1l10.499,10.5c0.258,0.258,0.422,0.572,0.508,0.903c0.171-0.66,0.007-1.39-0.508-1.903
	L26.563,33.47z"/>
<path fill="#FFFFFF" d="M54.516,24.534H26.563l-1,1h28.953c1.091,0,1.984,0.891,1.984,1.983v-1
	C56.5,25.425,55.606,24.534,54.516,24.534z"/>
</svg>
