<?xml version="1.0" encoding="utf-8"?>
<!-- Generator: Adobe Illustrator 15.0.0, SVG Export Plug-In . SVG Version: 6.00 Build 0)  -->
<!DOCTYPE svg PUBLIC "-//W3C//DTD SVG 1.1//EN" "http://www.w3.org/Graphics/SVG/1.1/DTD/svg11.dtd">
<svg version="1.1" xmlns="http://www.w3.org/2000/svg" xmlns:xlink="http://www.w3.org/1999/xlink" x="0px" y="0px" width="67px"
	 height="57px" viewBox="0 0 67 57" enable-background="new 0 0 67 57" xml:space="preserve">
<g id="DO_NOT_EDIT_-_BOUNDING_BOX">
	<rect id="BOUNDING_BOX" fill="none" width="67" height="57"/>
</g>
<g id="PLACE_YOUR_GRAPHIC_HERE">
	<path opacity="0.3" d="M55.712,13.793c-0.249-0.145-0.528-0.216-0.805-0.216c-0.267,0-0.539,0.067-0.777,0.204L37.038,26.769
		V15.167c0-0.565-0.297-1.083-0.787-1.374c-0.249-0.145-0.529-0.216-0.806-0.216c-0.266,0-0.539,0.067-0.777,0.204L17.577,26.769
		V15.346c0-0.978-0.792-1.769-1.77-1.769h-3.539c-0.978,0-1.769,0.791-1.769,1.769v28.308c0,0.978,0.792,1.769,1.769,1.769h3.539
		c0.978,0,1.77-0.791,1.77-1.769V32.231l17.087,12.987c0.242,0.137,0.512,0.204,0.781,0.204c0.276,0,0.557-0.067,0.806-0.216
		c0.49-0.287,0.787-0.809,0.787-1.373V32.231l17.088,12.987c0.242,0.137,0.512,0.204,0.781,0.204c0.276,0,0.556-0.067,0.805-0.216
		c0.491-0.287,0.788-0.809,0.788-1.373V15.167C56.5,14.602,56.203,14.083,55.712,13.793z"/>
	<path opacity="0.15" d="M54.907,45.423c-0.446,0-0.887-0.115-1.272-0.333c-0.04-0.022-0.078-0.048-0.114-0.075L38.038,33.247v9.587
		c0,0.916-0.491,1.772-1.281,2.236c-0.386,0.229-0.841,0.353-1.312,0.353c-0.446,0-0.887-0.115-1.272-0.333
		c-0.04-0.022-0.078-0.048-0.114-0.075L18.577,33.248v9.406c0,1.526-1.242,2.769-2.77,2.769h-3.539
		c-1.527,0-2.769-1.242-2.769-2.769V14.346c0-1.527,1.242-2.769,2.769-2.769h3.539c1.527,0,2.77,1.242,2.77,2.769v9.406
		l15.485-11.768c0.035-0.026,0.071-0.05,0.109-0.072c0.384-0.219,0.824-0.335,1.273-0.335c0.461,0,0.914,0.122,1.309,0.352
		c0.807,0.477,1.284,1.312,1.284,2.238v9.586l15.486-11.769c0.035-0.026,0.071-0.05,0.109-0.072
		c0.384-0.219,0.824-0.335,1.273-0.335c0.461,0,0.913,0.122,1.308,0.352c0.807,0.476,1.285,1.312,1.285,2.238v28.667
		c0,0.917-0.492,1.773-1.283,2.236C55.832,45.3,55.377,45.423,54.907,45.423z"/>
	<path opacity="0.15" d="M55.712,12.793c-0.249-0.145-0.528-0.216-0.805-0.216c-0.267,0-0.539,0.067-0.777,0.204L37.038,25.769
		V14.167c0-0.565-0.297-1.083-0.787-1.374c-0.249-0.145-0.529-0.216-0.806-0.216c-0.266,0-0.539,0.067-0.777,0.204L17.577,25.769
		V14.346c0-0.978-0.792-1.769-1.77-1.769h-3.539c-0.978,0-1.769,0.791-1.769,1.769v28.308c0,0.978,0.792,1.769,1.769,1.769h3.539
		c0.978,0,1.77-0.791,1.77-1.769V31.231l17.087,12.987c0.242,0.137,0.512,0.204,0.781,0.204c0.276,0,0.557-0.067,0.806-0.216
		c0.49-0.287,0.787-0.809,0.787-1.373V31.231l17.088,12.987c0.242,0.137,0.512,0.204,0.781,0.204c0.276,0,0.556-0.067,0.805-0.216
		c0.491-0.287,0.788-0.809,0.788-1.373V14.167C56.5,13.602,56.203,13.083,55.712,12.793z"/>
	<linearGradient id="SVGID_1_" gradientUnits="userSpaceOnUse" x1="33.5005" y1="44.4229" x2="33.5005" y2="12.5776">
		<stop  offset="0" style="stop-color:#D0CBC5"/>
		<stop  offset="0.5031" style="stop-color:#FAFCEF"/>
		<stop  offset="0.9693" style="stop-color:#FFFFFF"/>
	</linearGradient>
	<path fill="url(#SVGID_1_)" d="M55.712,12.793c-0.249-0.145-0.528-0.216-0.805-0.216c-0.267,0-0.539,0.067-0.777,0.204
		L37.038,25.769V14.167c0-0.565-0.297-1.083-0.787-1.374c-0.249-0.145-0.529-0.216-0.806-0.216c-0.266,0-0.539,0.067-0.777,0.204
		L17.577,25.769V14.346c0-0.978-0.792-1.769-1.77-1.769h-3.539c-0.978,0-1.769,0.791-1.769,1.769v28.308
		c0,0.978,0.792,1.769,1.769,1.769h3.539c0.978,0,1.77-0.791,1.77-1.769V31.231l17.087,12.987c0.242,0.137,0.512,0.204,0.781,0.204
		c0.276,0,0.557-0.067,0.806-0.216c0.49-0.287,0.787-0.809,0.787-1.373V31.231l17.088,12.987c0.242,0.137,0.512,0.204,0.781,0.204
		c0.276,0,0.556-0.067,0.805-0.216c0.491-0.287,0.788-0.809,0.788-1.373V14.167C56.5,13.602,56.203,13.083,55.712,12.793z"/>
	<path fill="#FFFFFF" d="M17.577,25.769l17.091-12.988c0.238-0.136,0.512-0.204,0.777-0.204c0.276,0,0.557,0.071,0.806,0.216
		c0.49,0.29,0.787,0.809,0.787,1.374v1c0-0.565-0.297-1.083-0.787-1.374c-0.249-0.145-0.529-0.216-0.806-0.216
		c-0.266,0-0.539,0.067-0.777,0.204L17.577,26.769V25.769z M12.269,13.577h3.539c0.978,0,1.77,0.791,1.77,1.769v-1
		c0-0.978-0.792-1.769-1.77-1.769h-3.539c-0.978,0-1.769,0.791-1.769,1.769v1C10.5,14.368,11.292,13.577,12.269,13.577z
		 M55.712,12.793c-0.249-0.145-0.528-0.216-0.805-0.216c-0.267,0-0.539,0.067-0.777,0.204L37.038,25.769v1L54.13,13.781
		c0.238-0.136,0.511-0.204,0.777-0.204c0.276,0,0.556,0.071,0.805,0.216c0.491,0.29,0.788,0.809,0.788,1.374v-1
		C56.5,13.602,56.203,13.083,55.712,12.793z"/>
</g>
<g id="DO_NOT_EDIT_-_FOCAL_ZONE_GUIDES">
</g>
</svg>
