<?xml version="1.0" encoding="utf-8"?>
<!-- Generator: Adobe Illustrator 15.0.0, SVG Export Plug-In  -->
<!DOCTYPE svg PUBLIC "-//W3C//DTD SVG 1.1//EN" "http://www.w3.org/Graphics/SVG/1.1/DTD/svg11.dtd" [
	<!ENTITY ns_flows "http://ns.adobe.com/Flows/1.0/">
]>
<svg version="1.1"
	 xmlns="http://www.w3.org/2000/svg" xmlns:xlink="http://www.w3.org/1999/xlink" xmlns:a="http://ns.adobe.com/AdobeSVGViewerExtensions/3.0/"
	 x="0px" y="0px" width="67px" height="57px" viewBox="0 0 67 57" enable-background="new 0 0 67 57" xml:space="preserve">
<defs>
</defs>
<path opacity="0.3" d="M45.5,20.5h-29v18h29V20.5z M54.5,23.5h-3v-7c0-1.1-0.9-2-2-2h-37c-1.1,0-2,0.9-2,2v26c0,1.1,0.9,2,2,2h37
	c1.1,0,2-0.9,2-2v-7h3c1.1,0,2-0.9,2-2v-8C56.5,24.4,55.6,23.5,54.5,23.5z M47.5,40.5h-33v-22h33V40.5z"/>
<rect id="BOUNDING_BOX_2_" fill="none" width="67" height="57"/>
<path opacity="0.15" d="M12.5,44.5c-1.654,0-3-1.346-3-3v-26c0-1.654,1.346-3,3-3h37c1.654,0,3,1.346,3,3v6h2c1.654,0,3,1.346,3,3v8
	c0,1.654-1.346,3-3,3h-2v6c0,1.654-1.346,3-3,3H12.5z M46.5,38.5v-1c0,0.553-0.447,1-1,1H46.5z M16.5,38.5c-0.552,0-1-0.447-1-1v-18
	c0-0.552,0.448-1,1-1h29c0.553,0,1,0.448,1,1v-1h-31v20H16.5z"/>
<path opacity="0.15" d="M45.5,19.5h-29v18h29V19.5z M54.5,22.5h-3v-7c0-1.1-0.9-2-2-2h-37c-1.1,0-2,0.9-2,2v26c0,1.1,0.9,2,2,2h37
	c1.1,0,2-0.9,2-2v-7h3c1.1,0,2-0.9,2-2v-8C56.5,23.4,55.6,22.5,54.5,22.5z M47.5,39.5h-33v-22h33V39.5z"/>
<linearGradient id="SVGID_1_" gradientUnits="userSpaceOnUse" x1="33.5005" y1="43.5" x2="33.5005" y2="13.5005">
	<stop  offset="0" style="stop-color:#D0CBC5"/>
	<stop  offset="0.5031" style="stop-color:#FAFCEF"/>
	<stop  offset="0.9693" style="stop-color:#FFFFFF"/>
</linearGradient>
<path fill="url(#SVGID_1_)" d="M45.5,19.5h-29v18h29V19.5z M54.5,22.5h-3v-7c0-1.1-0.9-2-2-2h-37c-1.1,0-2,0.9-2,2v26
	c0,1.1,0.9,2,2,2h37c1.1,0,2-0.9,2-2v-7h3c1.1,0,2-0.9,2-2v-8C56.5,23.4,55.6,22.5,54.5,22.5z M47.5,39.5h-33v-22h33V39.5z"/>
<path fill="#FFFFFF" d="M12.5,14.5h37c1.1,0,2,0.9,2,2v-1c0-1.1-0.9-2-2-2h-37c-1.1,0-2,0.9-2,2v1C10.5,15.4,11.4,14.5,12.5,14.5z"
	/>
<rect x="16.5" y="19.5" fill="#FFFFFF" width="29" height="1"/>
<path fill="#FFFFFF" d="M54.5,22.5h-3v1h3c1.1,0,2,0.9,2,2v-1C56.5,23.4,55.6,22.5,54.5,22.5z"/>
<rect x="14.5" y="39.5" fill="#FFFFFF" width="33" height="1"/>
</svg>
