<?xml version="1.0" encoding="utf-8"?>
<!-- Generator: Adobe Illustrator 15.0.2, SVG Export Plug-In . SVG Version: 6.00 Build 0)  -->
<!DOCTYPE svg PUBLIC "-//W3C//DTD SVG 1.1//EN" "http://www.w3.org/Graphics/SVG/1.1/DTD/svg11.dtd">
<svg version="1.1" xmlns="http://www.w3.org/2000/svg" xmlns:xlink="http://www.w3.org/1999/xlink" x="0px" y="0px" width="67px"
	 height="57px" viewBox="0 0 67 57" enable-background="new 0 0 67 57" xml:space="preserve">
<g id="DO_NOT_EDIT_-_BOUNDING_BOX">
	<rect id="BOUNDING_BOX" fill="none" width="67" height="57"/>
</g>
<g id="PLACE_YOUR_GRAPHIC_HERE">
	<path opacity="0.3" d="M33.213,13.689c-0.383-0.391-1.102-0.788-1.638-0.816l-9.396-0.311l0.049-0.048l-6.017-6.016l-1.631,1.638
		l1.65,1.645l-2.454,2.453l-1.653-1.652L10.5,12.221l6.016,6.02l0.016-0.018l0.335,9.357c0.028,0.567,0.417,1.244,0.817,1.639
		l22.893,23.283V36.579H56.5L33.213,13.689z"/>
	<path opacity="0.15" d="M40.577,52.502c-0.263,0-0.521-0.104-0.713-0.299L16.971,28.92c-0.474-0.466-1.058-1.356-1.104-2.291
		l-0.32-8.943l-5.755-5.758c-0.389-0.39-0.39-1.02-0.002-1.411l1.624-1.638c0.187-0.189,0.442-0.295,0.708-0.296
		c0.001,0,0.001,0,0.002,0c0.265,0,0.519,0.105,0.707,0.292l0.946,0.945l1.039-1.038l-0.94-0.938
		c-0.391-0.39-0.392-1.022-0.002-1.414l1.631-1.638c0.187-0.188,0.442-0.294,0.708-0.294c0,0,0,0,0.001,0
		c0.265,0,0.52,0.105,0.707,0.293l5.789,5.789l8.9,0.294c0.893,0.046,1.824,0.61,2.319,1.116l23.274,22.876
		c0.289,0.284,0.378,0.716,0.225,1.092c-0.154,0.376-0.52,0.621-0.926,0.621H41.577v14.923c0,0.406-0.245,0.771-0.621,0.926
		C40.833,52.478,40.705,52.502,40.577,52.502z"/>
	<path opacity="0.15" d="M33.213,12.689c-0.383-0.391-1.102-0.788-1.638-0.816l-9.396-0.311l0.049-0.048l-6.017-6.016l-1.631,1.638
		l1.65,1.645l-2.454,2.453l-1.653-1.652L10.5,11.221l6.016,6.02l0.016-0.018l0.335,9.357c0.028,0.567,0.417,1.244,0.817,1.639
		l22.893,23.283V35.579H56.5L33.213,12.689z"/>
	<linearGradient id="SVGID_1_" gradientUnits="userSpaceOnUse" x1="33.5005" y1="51.502" x2="33.5005" y2="5.4985">
		<stop  offset="0" style="stop-color:#D0CBC5"/>
		<stop  offset="0.5031" style="stop-color:#FAFCEF"/>
		<stop  offset="0.9693" style="stop-color:#FFFFFF"/>
	</linearGradient>
	<path fill="url(#SVGID_1_)" d="M33.213,12.689c-0.383-0.391-1.102-0.788-1.638-0.816l-9.396-0.311l0.049-0.048l-6.017-6.016
		l-1.631,1.638l1.65,1.645l-2.454,2.453l-1.653-1.652L10.5,11.221l6.016,6.02l0.016-0.018l0.335,9.357
		c0.028,0.567,0.417,1.244,0.817,1.639l22.893,23.283V35.579H56.5L33.213,12.689z"/>
	<path fill="#FFFFFF" d="M13.777,11.234l-1.653-1.652L10.5,11.221l0.498,0.498l1.126-1.136l1.653,1.652l2.454-2.453l-0.501-0.5
		L13.777,11.234z M33.213,12.689c-0.383-0.391-1.102-0.788-1.638-0.816l-9.396-0.311l0.049-0.048l-6.017-6.016l-1.631,1.638
		l0.5,0.498l1.131-1.136l6.017,6.016l-0.049,0.048l9.396,0.311c0.536,0.028,1.255,0.425,1.638,0.816l22.27,21.89H56.5L33.213,12.689
		z"/>
</g>
<g id="DO_NOT_EDIT_-_FOCAL_ZONE_GUIDES">
</g>
</svg>
