<?xml version="1.0" encoding="utf-8"?>
<!-- Generator: Adobe Illustrator 15.0.0, SVG Export Plug-In  -->
<!DOCTYPE svg PUBLIC "-//W3C//DTD SVG 1.1//EN" "http://www.w3.org/Graphics/SVG/1.1/DTD/svg11.dtd" [
	<!ENTITY ns_flows "http://ns.adobe.com/Flows/1.0/">
]>
<svg version="1.1"
	 xmlns="http://www.w3.org/2000/svg" xmlns:xlink="http://www.w3.org/1999/xlink" xmlns:a="http://ns.adobe.com/AdobeSVGViewerExtensions/3.0/"
	 x="0px" y="0px" width="67px" height="57px" viewBox="0 0 67 57" enable-background="new 0 0 67 57" xml:space="preserve">
<defs>
</defs>
<rect id="BOUNDING_BOX_1_" fill="none" width="67" height="57"/>
<path opacity="0.3" d="M54.5,11.5h-42c-1.1,0-2,0.9-2,2v29c0,1.1,0.9,2,2,2h42c1.1,0,2-0.9,2-2v-29C56.5,12.4,55.6,11.5,54.5,11.5z
	 M28.987,38.711c-2.787,0.729-4.707,0.712-6.006,0.684c-1.3,0.028-3.22,0.045-6.007-0.684c-1.141-0.298-2.121-0.692-2.949-1.168
	l0.022-0.125c0.204-0.821,1.186-1.315,1.186-1.315c1.458-0.866,2.91-1.435,2.91-1.435c1.589-0.645,1.848-1.97,1.896-2.163
	c0.128-0.513,0.242-1.048,0.061-1.222c-0.905-0.79-1.259-2.67-1.259-2.67c-0.019-0.051-0.038-0.104-0.052-0.155
	c-0.455,0.432-0.572-0.933-0.731-1.423c-0.263-0.854-0.199-1.051-0.199-1.051c-0.034-0.64,0.428-0.418,0.428-0.418l0.038,0.048
	c-0.335-0.901-0.442-1.385-0.418-2.038c0.039-1.23-0.398-1.808,0.785-3.725c0,0,0.176-0.312,0.577-0.329
	c0.398-0.018,0.258-0.228,0.398-0.491c0.141-0.265,0.244-0.563,0.967-0.473c0.732,0.086,1.046-0.822,3.241-0.106
	c2.205,0.719,2.733,0.815,3.117,1.399c1.24,1.883,0.945,2.329,0.938,3.562c0,0.796-0.255,1.335-0.324,2.219l0.038-0.042
	c0,0,0.477-0.186,0.399,0.446c0,0-0.082,0.412-0.271,1.037c-0.183,0.592-0.412,1.884-0.854,1.331
	c-0.025,0.069-0.048,0.138-0.073,0.21c0,0-0.355,1.88-1.261,2.67c-0.178,0.174-0.066,0.709,0.061,1.222
	c0.045,0.165,0.498,1.271,1.394,1.887c0.159,0.104,0.339,0.196,0.539,0.276c0,0,1.454,0.568,2.915,1.435c0,0,0.979,0.494,1.18,1.315
	l0.042,0.222C30.942,38.075,30.043,38.435,28.987,38.711z M51,37.5H37c-0.825,0-1.5-0.675-1.5-1.5s0.675-1.5,1.5-1.5h14
	c0.825,0,1.5,0.675,1.5,1.5S51.825,37.5,51,37.5z M51,30.5H37c-0.825,0-1.5-0.675-1.5-1.5s0.675-1.5,1.5-1.5h14
	c0.825,0,1.5,0.675,1.5,1.5S51.825,30.5,51,30.5z M51,23.5H37c-0.825,0-1.5-0.675-1.5-1.5s0.675-1.5,1.5-1.5h14
	c0.825,0,1.5,0.675,1.5,1.5S51.825,23.5,51,23.5z"/>
<path opacity="0.15" d="M12.5,44.5c-1.654,0-3-1.346-3-3v-29c0-1.654,1.346-3,3-3h42c1.654,0,3,1.346,3,3v29c0,1.654-1.346,3-3,3
	H12.5z M23.003,37.395c0.229,0.005,0.477,0.01,0.747,0.01c1.055,0,2.718-0.068,4.984-0.661c0.586-0.153,1.121-0.333,1.614-0.544
	c-0.104-0.084-0.216-0.158-0.31-0.207c-1.428-0.845-2.809-1.388-2.822-1.393c-0.265-0.106-0.504-0.229-0.72-0.37
	c-1.171-0.803-1.728-2.146-1.813-2.462c-0.171-0.693-0.398-1.611,0.206-2.2c0.481-0.422,0.853-1.499,0.977-2.141
	c0.009-0.049,0.022-0.098,0.039-0.145l0.078-0.223c0.109-0.298,0.352-0.524,0.651-0.614c0.03-0.106,0.152-0.56,0.186-0.668
	c0.049-0.161,0.09-0.306,0.124-0.431c-0.224-0.198-0.355-0.483-0.331-0.792c0.037-0.468,0.117-0.846,0.187-1.18
	c0.075-0.354,0.134-0.633,0.134-0.961c0.001-0.231,0.011-0.432,0.021-0.621c0.038-0.756,0.056-1.101-0.794-2.391
	c-0.126-0.191-0.427-0.302-1.774-0.734l-0.818-0.264c-0.463-0.151-0.855-0.228-1.167-0.228c-0.309,0-0.492,0.074-0.723,0.167
	c-0.245,0.099-0.551,0.222-0.941,0.222c-0.034,0-0.14-0.006-0.194-0.011c-0.157,0.701-0.69,0.905-1.077,0.955
	c-0.656,1.098-0.626,1.55-0.582,2.223c0.019,0.271,0.036,0.554,0.026,0.876c-0.019,0.501,0.058,0.856,0.356,1.658
	c0.156,0.421,0.012,0.89-0.341,1.151c0.022,0.088,0.052,0.195,0.092,0.324c0.042,0.13,0.088,0.333,0.135,0.554
	c0.015,0.069,0.034,0.162,0.056,0.254c0.27,0.123,0.474,0.361,0.551,0.652c0.019,0.052,0.057,0.172,0.068,0.226
	c0.124,0.643,0.495,1.72,0.935,2.104c0.65,0.62,0.42,1.543,0.252,2.217c-0.314,1.317-1.197,2.323-2.491,2.848
	c-0.025,0.01-1.41,0.557-2.775,1.367c-0.092,0.049-0.19,0.111-0.285,0.181c0.54,0.233,1.131,0.435,1.767,0.601
	c2.267,0.593,3.931,0.661,4.986,0.661c0.27,0,0.519-0.005,0.747-0.01c0.007,0,0.015,0,0.022,0S22.996,37.395,23.003,37.395z
	 M37,34.5c-0.271,0-0.5,0.229-0.5,0.5s0.229,0.5,0.5,0.5h14c0.271,0,0.5-0.229,0.5-0.5s-0.229-0.5-0.5-0.5H37z M37,27.5
	c-0.271,0-0.5,0.229-0.5,0.5s0.229,0.5,0.5,0.5h14c0.271,0,0.5-0.229,0.5-0.5s-0.229-0.5-0.5-0.5H37z M37,20.5
	c-0.271,0-0.5,0.229-0.5,0.5s0.229,0.5,0.5,0.5h14c0.271,0,0.5-0.229,0.5-0.5s-0.229-0.5-0.5-0.5H37z"/>
<path opacity="0.15" d="M54.5,10.5h-42c-1.1,0-2,0.9-2,2v29c0,1.1,0.9,2,2,2h42c1.1,0,2-0.9,2-2v-29C56.5,11.4,55.6,10.5,54.5,10.5z
	 M28.987,37.711c-2.787,0.729-4.707,0.712-6.006,0.684c-1.3,0.028-3.22,0.045-6.007-0.684c-1.141-0.298-2.121-0.692-2.949-1.168
	l0.022-0.125c0.204-0.821,1.186-1.315,1.186-1.315c1.458-0.866,2.91-1.435,2.91-1.435c1.589-0.645,1.848-1.97,1.896-2.163
	c0.128-0.513,0.242-1.048,0.061-1.222c-0.905-0.79-1.259-2.67-1.259-2.67c-0.019-0.051-0.038-0.104-0.052-0.155
	c-0.455,0.432-0.572-0.933-0.731-1.423c-0.263-0.854-0.199-1.051-0.199-1.051c-0.034-0.64,0.428-0.418,0.428-0.418l0.038,0.048
	c-0.335-0.901-0.442-1.385-0.418-2.038c0.039-1.23-0.398-1.808,0.785-3.725c0,0,0.176-0.312,0.577-0.329
	c0.398-0.018,0.258-0.228,0.398-0.491c0.141-0.265,0.244-0.563,0.967-0.473c0.732,0.086,1.046-0.822,3.241-0.106
	c2.205,0.719,2.733,0.815,3.117,1.399c1.24,1.883,0.945,2.329,0.938,3.562c0,0.796-0.255,1.335-0.324,2.219l0.038-0.042
	c0,0,0.477-0.186,0.399,0.446c0,0-0.082,0.412-0.271,1.037c-0.183,0.592-0.412,1.884-0.854,1.331
	c-0.025,0.069-0.048,0.138-0.073,0.21c0,0-0.355,1.88-1.261,2.67c-0.178,0.174-0.066,0.709,0.061,1.222
	c0.045,0.165,0.498,1.271,1.394,1.887c0.159,0.104,0.339,0.196,0.539,0.276c0,0,1.454,0.568,2.915,1.435c0,0,0.979,0.494,1.18,1.315
	l0.042,0.222C30.942,37.075,30.043,37.435,28.987,37.711z M51,36.5H37c-0.825,0-1.5-0.675-1.5-1.5s0.675-1.5,1.5-1.5h14
	c0.825,0,1.5,0.675,1.5,1.5S51.825,36.5,51,36.5z M51,29.5H37c-0.825,0-1.5-0.675-1.5-1.5s0.675-1.5,1.5-1.5h14
	c0.825,0,1.5,0.675,1.5,1.5S51.825,29.5,51,29.5z M51,22.5H37c-0.825,0-1.5-0.675-1.5-1.5s0.675-1.5,1.5-1.5h14
	c0.825,0,1.5,0.675,1.5,1.5S51.825,22.5,51,22.5z"/>
<linearGradient id="SVGID_1_" gradientUnits="userSpaceOnUse" x1="33.5005" y1="43.5" x2="33.5005" y2="10.5005">
	<stop  offset="0" style="stop-color:#D0CBC5"/>
	<stop  offset="0.5031" style="stop-color:#FAFCEF"/>
	<stop  offset="0.9693" style="stop-color:#FFFFFF"/>
</linearGradient>
<path fill="url(#SVGID_1_)" d="M54.5,10.5h-42c-1.1,0-2,0.9-2,2v29c0,1.1,0.9,2,2,2h42c1.1,0,2-0.9,2-2v-29
	C56.5,11.4,55.6,10.5,54.5,10.5z M28.987,37.711c-2.787,0.729-4.707,0.712-6.006,0.684c-1.3,0.028-3.22,0.045-6.007-0.684
	c-1.141-0.298-2.121-0.692-2.949-1.168l0.022-0.125c0.204-0.821,1.186-1.315,1.186-1.315c1.458-0.866,2.91-1.435,2.91-1.435
	c1.589-0.645,1.848-1.97,1.896-2.163c0.128-0.513,0.242-1.048,0.061-1.222c-0.905-0.79-1.259-2.67-1.259-2.67
	c-0.019-0.051-0.038-0.104-0.052-0.155c-0.455,0.432-0.572-0.933-0.731-1.423c-0.263-0.854-0.199-1.051-0.199-1.051
	c-0.034-0.64,0.428-0.418,0.428-0.418l0.038,0.048c-0.335-0.901-0.442-1.385-0.418-2.038c0.039-1.23-0.398-1.808,0.785-3.725
	c0,0,0.176-0.312,0.577-0.329c0.398-0.018,0.258-0.228,0.398-0.491c0.141-0.265,0.244-0.563,0.967-0.473
	c0.732,0.086,1.046-0.822,3.241-0.106c2.205,0.719,2.733,0.815,3.117,1.399c1.24,1.883,0.945,2.329,0.938,3.562
	c0,0.796-0.255,1.335-0.324,2.219l0.038-0.042c0,0,0.477-0.186,0.399,0.446c0,0-0.082,0.412-0.271,1.037
	c-0.183,0.592-0.412,1.884-0.854,1.331c-0.025,0.069-0.048,0.138-0.073,0.21c0,0-0.355,1.88-1.261,2.67
	c-0.178,0.174-0.066,0.709,0.061,1.222c0.045,0.165,0.498,1.271,1.394,1.887c0.159,0.104,0.339,0.196,0.539,0.276
	c0,0,1.454,0.568,2.915,1.435c0,0,0.979,0.494,1.18,1.315l0.042,0.222C30.942,37.075,30.043,37.435,28.987,37.711z M51,36.5H37
	c-0.825,0-1.5-0.675-1.5-1.5s0.675-1.5,1.5-1.5h14c0.825,0,1.5,0.675,1.5,1.5S51.825,36.5,51,36.5z M51,29.5H37
	c-0.825,0-1.5-0.675-1.5-1.5s0.675-1.5,1.5-1.5h14c0.825,0,1.5,0.675,1.5,1.5S51.825,29.5,51,29.5z M51,22.5H37
	c-0.825,0-1.5-0.675-1.5-1.5s0.675-1.5,1.5-1.5h14c0.825,0,1.5,0.675,1.5,1.5S51.825,22.5,51,22.5z"/>
<path fill="#FFFFFF" d="M18.059,27.035c0.159,0.491,0.276,1.855,0.731,1.423c0.014,0.051,0.033,0.104,0.052,0.155
	c0,0,0.353,1.868,1.252,2.662c0.1-0.435,0.162-0.845,0.007-0.992c-0.905-0.79-1.259-2.67-1.259-2.67
	c-0.019-0.051-0.038-0.104-0.052-0.155c-0.455,0.432-0.572-0.933-0.731-1.423c-0.051-0.166-0.087-0.301-0.116-0.42
	c-0.055,0.065-0.093,0.174-0.083,0.37C17.86,25.984,17.796,26.181,18.059,27.035z"/>
<path fill="#FFFFFF" d="M27.608,24.631l0.038-0.042c0,0,0.061-0.022,0.134-0.024c0.079-0.372,0.151-0.727,0.151-1.153
	c0.003-0.557,0.059-0.956,0.011-1.397c-0.005,0.125-0.011,0.255-0.011,0.397C27.932,23.208,27.677,23.747,27.608,24.631z"/>
<path fill="#FFFFFF" d="M17.908,23.576c-0.013,0.346,0.015,0.648,0.091,0.986c0.125-0.072,0.29,0.003,0.29,0.003l0.038,0.048
	c-0.335-0.901-0.442-1.385-0.418-2.038c0.008-0.262-0.006-0.492-0.021-0.714C17.821,22.447,17.929,22.921,17.908,23.576z"/>
<path fill="#FFFFFF" d="M26.921,27.403c-0.025,0.069-0.048,0.138-0.073,0.21c0,0-0.355,1.88-1.261,2.67
	c-0.151,0.147-0.091,0.558,0.008,0.991c0.899-0.794,1.253-2.661,1.253-2.661c0.025-0.072,0.048-0.141,0.073-0.21
	c0.442,0.553,0.671-0.739,0.854-1.331c0.19-0.625,0.271-1.037,0.271-1.037c0.034-0.28-0.042-0.395-0.135-0.441
	c-0.038,0.141-0.081,0.297-0.136,0.478C27.592,26.664,27.363,27.956,26.921,27.403z"/>
<path fill="#FFFFFF" d="M37,30.5h14c0.825,0,1.5-0.675,1.5-1.5c0-0.176-0.036-0.343-0.093-0.5c-0.208,0.58-0.758,1-1.407,1H37
	c-0.649,0-1.199-0.42-1.407-1C35.536,28.657,35.5,28.824,35.5,29C35.5,29.825,36.175,30.5,37,30.5z"/>
<path fill="#FFFFFF" d="M54.5,10.5h-42c-1.1,0-2,0.9-2,2v1c0-1.1,0.9-2,2-2h42c1.1,0,2,0.9,2,2v-1C56.5,11.4,55.6,10.5,54.5,10.5z"
	/>
<path fill="#FFFFFF" d="M37,37.5h14c0.825,0,1.5-0.675,1.5-1.5c0-0.176-0.036-0.343-0.093-0.5c-0.208,0.58-0.758,1-1.407,1H37
	c-0.649,0-1.199-0.42-1.407-1C35.536,35.657,35.5,35.824,35.5,36C35.5,36.825,36.175,37.5,37,37.5z"/>
<path fill="#FFFFFF" d="M37,23.5h14c0.825,0,1.5-0.675,1.5-1.5c0-0.176-0.036-0.343-0.093-0.5c-0.208,0.58-0.758,1-1.407,1H37
	c-0.649,0-1.199-0.42-1.407-1C35.536,21.657,35.5,21.824,35.5,22C35.5,22.825,36.175,23.5,37,23.5z"/>
<path fill="#FFFFFF" d="M16.974,38.711c2.787,0.729,4.708,0.712,6.007,0.684c1.299,0.028,3.219,0.045,6.006-0.684
	c1.056-0.276,1.955-0.636,2.729-1.071l-0.042-0.222c-0.055-0.227-0.171-0.425-0.308-0.598c-0.694,0.354-1.477,0.654-2.38,0.891
	c-2.787,0.729-4.707,0.712-6.006,0.684c-1.3,0.028-3.22,0.045-6.007-0.684c-0.968-0.253-1.813-0.579-2.555-0.961
	c-0.163,0.188-0.307,0.409-0.371,0.668l-0.022,0.125C14.854,38.019,15.833,38.413,16.974,38.711z"/>
</svg>
