<?xml version="1.0" encoding="utf-8"?>
<!-- Generator: Adobe Illustrator 15.0.2, SVG Export Plug-In  -->
<!DOCTYPE svg PUBLIC "-//W3C//DTD SVG 1.1//EN" "http://www.w3.org/Graphics/SVG/1.1/DTD/svg11.dtd" [
	<!ENTITY ns_flows "http://ns.adobe.com/Flows/1.0/">
]>
<svg version="1.1"
	 xmlns="http://www.w3.org/2000/svg" xmlns:xlink="http://www.w3.org/1999/xlink" xmlns:a="http://ns.adobe.com/AdobeSVGViewerExtensions/3.0/"
	 x="0px" y="0px" width="67px" height="57px" viewBox="0 0 67 57" enable-background="new 0 0 67 57" xml:space="preserve">
<defs>
</defs>
<rect id="BOUNDING_BOX_1_" fill="none" width="67" height="57"/>
<path opacity="0.3" d="M44.574,35.853V15.407H10.5l6.815,20.445H44.574z M24.129,43.592c-1.88,0-3.407,1.527-3.407,3.408
	c0,1.88,1.527,3.407,3.407,3.407c1.88,0,3.408-1.527,3.408-3.407C27.537,45.119,26.01,43.592,24.129,43.592z M41.167,43.592
	c-1.881,0-3.408,1.527-3.408,3.408c0,1.88,1.527,3.407,3.408,3.407c1.88,0,3.407-1.527,3.407-3.407
	C44.574,45.119,43.047,43.592,41.167,43.592z M54.796,8.593h-8.519v29.889H17.315c-0.942,0-1.704,0.762-1.704,1.703
	s0.762,1.704,1.704,1.704h32.371V12h5.11c0.942,0,1.704-0.762,1.704-1.703C56.5,9.354,55.738,8.593,54.796,8.593z"/>
<path opacity="0.15" d="M41.167,50.407c-2.431,0-4.408-1.978-4.408-4.407c0-1.87,1.171-3.472,2.817-4.111H25.72
	c1.646,0.64,2.817,2.241,2.817,4.111c0,2.43-1.977,4.407-4.408,4.407c-2.43,0-4.407-1.978-4.407-4.407
	c0-1.87,1.17-3.472,2.817-4.111h-5.224c-1.491,0-2.704-1.213-2.704-2.704c0-1.49,1.213-2.703,2.704-2.703h27.962v-0.918
	c-0.181,0.179-0.429,0.289-0.703,0.289H17.315c-0.431,0-0.813-0.275-0.949-0.684L9.551,14.724c-0.102-0.305-0.05-0.64,0.138-0.901
	c0.188-0.261,0.49-0.416,0.811-0.416h34.074c0.274,0,0.522,0.11,0.703,0.289V7.593c0-0.552,0.447-1,1-1h8.519
	c1.491,0,2.704,1.213,2.704,2.704c0,1.491-1.213,2.703-2.704,2.703h-4.11v28.889c0,0.553-0.447,1-1,1h-6.928
	c1.646,0.64,2.816,2.241,2.816,4.111C45.574,48.43,43.597,50.407,41.167,50.407z"/>
<path opacity="0.15" d="M44.574,34.853V14.407H10.5l6.815,20.445H44.574z M24.129,42.592c-1.88,0-3.407,1.527-3.407,3.408
	c0,1.88,1.527,3.407,3.407,3.407c1.88,0,3.408-1.527,3.408-3.407C27.537,44.119,26.01,42.592,24.129,42.592z M41.167,42.592
	c-1.881,0-3.408,1.527-3.408,3.408c0,1.88,1.527,3.407,3.408,3.407c1.88,0,3.407-1.527,3.407-3.407
	C44.574,44.119,43.047,42.592,41.167,42.592z M54.796,7.593h-8.519v29.889H17.315c-0.942,0-1.704,0.762-1.704,1.703
	s0.762,1.704,1.704,1.704h32.371V11h5.11c0.942,0,1.704-0.762,1.704-1.703C56.5,8.354,55.738,7.593,54.796,7.593z"/>
<linearGradient id="SVGID_1_" gradientUnits="userSpaceOnUse" x1="33.5005" y1="49.4072" x2="33.5005" y2="7.5933">
	<stop  offset="0" style="stop-color:#D0CBC5"/>
	<stop  offset="0.5031" style="stop-color:#FAFCEF"/>
	<stop  offset="0.9693" style="stop-color:#FFFFFF"/>
</linearGradient>
<path fill="url(#SVGID_1_)" d="M44.574,34.853V14.407H10.5l6.815,20.445H44.574z M24.129,42.592c-1.88,0-3.407,1.527-3.407,3.408
	c0,1.88,1.527,3.407,3.407,3.407c1.88,0,3.408-1.527,3.408-3.407C27.537,44.119,26.01,42.592,24.129,42.592z M41.167,42.592
	c-1.881,0-3.408,1.527-3.408,3.408c0,1.88,1.527,3.407,3.408,3.407c1.88,0,3.407-1.527,3.407-3.407
	C44.574,44.119,43.047,42.592,41.167,42.592z M54.796,7.593h-8.519v29.889H17.315c-0.942,0-1.704,0.762-1.704,1.703
	s0.762,1.704,1.704,1.704h32.371V11h5.11c0.942,0,1.704-0.762,1.704-1.703C56.5,8.354,55.738,7.593,54.796,7.593z"/>
<path fill="#FFFFFF" d="M15.611,39.185c0,0.175,0.034,0.341,0.083,0.5c0.214-0.695,0.854-1.203,1.621-1.203h28.962v-1H17.315
	C16.373,37.481,15.611,38.243,15.611,39.185z M54.796,7.593h-8.519v1h8.519c0.767,0,1.406,0.508,1.621,1.204
	c0.049-0.159,0.083-0.325,0.083-0.5C56.5,8.354,55.738,7.593,54.796,7.593z M24.129,42.592c-1.88,0-3.407,1.527-3.407,3.408
	c0,0.171,0.026,0.336,0.05,0.5c0.244-1.643,1.648-2.908,3.357-2.908c1.709,0,3.113,1.266,3.357,2.908
	c0.024-0.164,0.05-0.329,0.05-0.5C27.537,44.119,26.01,42.592,24.129,42.592z M41.167,42.592c-1.881,0-3.408,1.527-3.408,3.408
	c0,0.171,0.026,0.336,0.051,0.5c0.243-1.643,1.647-2.908,3.357-2.908c1.709,0,3.112,1.266,3.356,2.908
	c0.024-0.164,0.051-0.329,0.051-0.5C44.574,44.119,43.047,42.592,41.167,42.592z M44.574,14.407H10.5l0.333,1h33.741V14.407z"/>
</svg>
