<?xml version="1.0" encoding="utf-8"?>
<!-- Generator: Adobe Illustrator 15.0.0, SVG Export Plug-In  -->
<!DOCTYPE svg PUBLIC "-//W3C//DTD SVG 1.1//EN" "http://www.w3.org/Graphics/SVG/1.1/DTD/svg11.dtd" [
	<!ENTITY ns_flows "http://ns.adobe.com/Flows/1.0/">
]>
<svg version="1.1"
	 xmlns="http://www.w3.org/2000/svg" xmlns:xlink="http://www.w3.org/1999/xlink" xmlns:a="http://ns.adobe.com/AdobeSVGViewerExtensions/3.0/"
	 x="0px" y="0px" width="67px" height="57px" viewBox="0 1.055 67 57" enable-background="new 0 1.055 67 57" xml:space="preserve">
<defs>
</defs>
<rect y="1.055" fill="none" width="67" height="57"/>
<rect x="10.5" y="6.555" fill="none" width="46" height="46"/>
<path fill="#FFFFFF" d="M18.305,9.53c0.039,0.049,0.061,0.106,0.086,0.161l0.063-0.11c0.062-0.275,0.104-0.732-0.149-1.051
	c-0.266-0.336-0.653-0.442-0.909-0.475h-3.318v0.066C12.34,8.436,11,10.078,11,12.055v1c0-1.977,1.34-3.619,3.078-3.934V9.055h3.318
	C17.652,9.088,18.039,9.194,18.305,9.53z M22.413,9.716c0.028-0.063,0.052-0.13,0.097-0.187c0.27-0.336,0.654-0.441,0.916-0.475
	h18.963c0.256,0.033,0.641,0.139,0.908,0.475c0.046,0.057,0.069,0.124,0.098,0.189l0.039-0.068c0.063-0.26,0.139-0.777-0.137-1.121
	c-0.27-0.335-0.652-0.441-0.908-0.474H23.426C23.164,8.088,22.78,8.194,22.51,8.53c-0.276,0.344-0.197,0.861-0.135,1.121
	L22.413,9.716z M24.168,14.698c0.15-0.374,0.074-0.73-0.018-0.972c-0.148,0.331-0.5,0.51-0.759,0.599h-6.022
	c-0.226-0.078-0.52-0.229-0.688-0.486c-0.06,0.243-0.101,0.48-0.112,0.71c0.012,0.052,0.006,0.099,0.027,0.149
	c0.136,0.352,0.508,0.535,0.773,0.627h6.022C23.658,15.233,24.027,15.049,24.168,14.698z M49.182,13.752
	c-0.154,0.313-0.492,0.486-0.74,0.572h-6.022c-0.262-0.089-0.61-0.268-0.76-0.6l-0.001,0.001c-0.092,0.241-0.167,0.598-0.018,0.972
	c0.141,0.352,0.508,0.535,0.777,0.627h6.021c0.265-0.092,0.637-0.275,0.773-0.627c0.124-0.312,0.088-0.616,0.021-0.85L49.182,13.752
	z M51.719,8.103V8.055h-3.303C48.16,8.088,47.77,8.194,47.502,8.53c-0.254,0.318-0.207,0.775-0.15,1.051l0.064,0.111
	c0.025-0.056,0.047-0.112,0.086-0.162c0.268-0.336,0.658-0.442,0.914-0.475h3.303v0.048C53.559,9.339,55,11.015,55,13.055v-1
	C55,10.015,53.559,8.339,51.719,8.103z"/>
<path opacity="0.3" d="M40.26,27.125h-5.806v3.87h5.806V27.125z M40.26,38.736h-5.806v3.87h5.806V38.736z M32.519,27.125h-5.805
	v3.87h5.805V27.125z M48.001,38.736h-5.806v3.87h5.806V38.736z M48.001,27.125h-5.806v3.87h5.806V27.125z M48.001,32.93h-5.806
	v3.871h5.806V32.93z M24.778,27.125h-5.805v3.87h5.805V27.125z M51.719,9.103V9.055h-3.303C48.16,9.088,47.77,9.194,47.502,9.53
	c-0.254,0.318-0.207,0.775-0.15,1.051l0.401,0.693l1.483,2.574c0.064,0.233,0.102,0.538-0.022,0.85
	c-0.138,0.352-0.51,0.535-0.772,0.627h-6.022c-0.271-0.092-0.638-0.275-0.776-0.627c-0.15-0.374-0.076-0.73,0.017-0.972l1.418-2.452
	l0.358-0.623c0.063-0.26,0.139-0.777-0.138-1.121c-0.271-0.336-0.653-0.442-0.909-0.475H23.426C23.164,9.088,22.78,9.194,22.51,9.53
	c-0.276,0.344-0.197,0.861-0.135,1.121l0.363,0.623l1.412,2.452c0.092,0.241,0.168,0.598,0.018,0.972
	c-0.141,0.352-0.51,0.535-0.776,0.627H17.37c-0.266-0.092-0.638-0.275-0.773-0.627c-0.021-0.051-0.016-0.098-0.027-0.149
	c0.018-0.325,0.068-0.661,0.193-1.016l0.011-0.033l1.286-2.226l0.396-0.693c0.062-0.275,0.104-0.732-0.149-1.051
	c-0.268-0.336-0.655-0.442-0.911-0.475h-3.318v0.066C12.34,9.436,11,11.078,11,13.055v34c0,2.2,1.801,4,4,4h36c2.199,0,4-1.8,4-4
	v-34C55,11.015,53.559,9.339,51.719,9.103z M49.936,44.542H17.039V25.19h32.897V44.542z M24.778,38.736h-5.805v3.87h5.805V38.736z
	 M24.778,32.93h-5.805v3.871h5.805V32.93z M32.519,32.93h-5.805v3.871h5.805V32.93z M32.519,38.736h-5.805v3.87h5.805V38.736z"/>
<path opacity="0.15" d="M15,51.055c-2.757,0-5-2.243-5-5v-34c0-2.321,1.484-4.306,3.573-4.846c0.148-0.097,0.321-0.154,0.505-0.154
	h3.318c0.043,0,0.086,0.003,0.129,0.008c0.65,0.084,1.191,0.376,1.564,0.843c0.387,0.488,0.508,1.16,0.343,1.895
	c-0.022,0.097-0.058,0.189-0.107,0.276l-1.633,2.834c-0.045,0.143-0.075,0.276-0.096,0.414h5.6c0.042-0.022,0.065-0.04,0.073-0.047
	c-0.004-0.008-0.01-0.062-0.032-0.135l-1.726-2.989c-0.049-0.085-0.086-0.176-0.108-0.271c-0.186-0.781-0.069-1.484,0.329-1.979
	c0.375-0.467,0.917-0.758,1.569-0.841c0.042-0.005,0.084-0.008,0.126-0.008h18.963c0.043,0,0.086,0.003,0.129,0.008
	c0.646,0.083,1.185,0.374,1.56,0.84c0.4,0.499,0.518,1.202,0.331,1.981c-0.022,0.093-0.059,0.182-0.105,0.265l-1.729,2.993
	c-0.021,0.072-0.021,0.131-0.005,0.178c-0.001-0.004,0-0.007,0.005-0.007c0.006,0,0.017,0.004,0.033,0.011h5.637
	c0.041-0.021,0.064-0.039,0.071-0.046c-0.003-0.003-0.009-0.025-0.016-0.054l-1.813-3.143c-0.054-0.093-0.093-0.194-0.114-0.3
	c-0.194-0.947,0.082-1.542,0.349-1.876c0.366-0.459,0.923-0.759,1.566-0.843c0.043-0.005,0.086-0.008,0.129-0.008h3.303
	c0.165,0,0.321,0.04,0.458,0.111C54.379,7.617,56,9.66,56,12.055v34c0,2.757-2.243,5-5,5H15z M48.936,42.542v-0.579
	c-0.102,0.267-0.313,0.479-0.581,0.579H48.936z M41.842,42.542c-0.301-0.113-0.532-0.368-0.614-0.683
	c-0.082,0.314-0.313,0.569-0.614,0.683H41.842z M34.101,42.542c-0.301-0.113-0.532-0.367-0.614-0.682
	c-0.082,0.314-0.313,0.568-0.613,0.682H34.101z M26.36,42.542c-0.301-0.114-0.532-0.368-0.614-0.684
	c-0.082,0.315-0.313,0.569-0.614,0.684H26.36z M18.62,42.542c-0.267-0.102-0.479-0.313-0.581-0.58v0.58H18.62z M25.033,36.768
	c0.348,0.092,0.623,0.367,0.713,0.716c0.09-0.349,0.365-0.624,0.713-0.716c-0.348-0.091-0.623-0.366-0.713-0.715
	C25.656,36.402,25.381,36.677,25.033,36.768z M40.26,36.736c0.465,0,0.855,0.317,0.968,0.747c0.091-0.349,0.365-0.623,0.713-0.715
	c-0.429-0.112-0.745-0.503-0.745-0.967V31.93c0-0.465,0.317-0.855,0.747-0.968c-0.349-0.091-0.624-0.366-0.715-0.715
	c-0.112,0.43-0.503,0.747-0.968,0.747h-5.806c-0.465,0-0.855-0.316-0.968-0.746c-0.091,0.349-0.366,0.623-0.714,0.714
	c0.43,0.112,0.747,0.503,0.747,0.968v3.871c0,0.464-0.316,0.854-0.745,0.967c0.348,0.092,0.622,0.366,0.712,0.714
	c0.113-0.43,0.503-0.746,0.968-0.746H40.26z M18.039,37.38c0.114-0.299,0.367-0.529,0.68-0.612c-0.313-0.082-0.566-0.313-0.68-0.611
	V37.38z M48.256,36.768c0.313,0.083,0.565,0.313,0.68,0.611v-1.222C48.821,36.457,48.568,36.686,48.256,36.768z M25.031,30.962
	c0.349,0.091,0.625,0.366,0.715,0.716c0.09-0.35,0.366-0.625,0.715-0.716c-0.349-0.091-0.625-0.366-0.715-0.716
	C25.656,30.596,25.38,30.872,25.031,30.962z M18.039,31.575c0.114-0.3,0.368-0.53,0.682-0.612c-0.314-0.082-0.568-0.313-0.682-0.612
	V31.575z M48.254,30.962c0.313,0.082,0.567,0.313,0.682,0.611v-1.223C48.821,30.65,48.567,30.88,48.254,30.962z M25.135,25.19
	c0.3,0.114,0.53,0.369,0.612,0.683c0.081-0.314,0.312-0.568,0.611-0.683H25.135z M40.616,25.19c0.299,0.114,0.529,0.368,0.611,0.682
	c0.082-0.313,0.313-0.567,0.611-0.682H40.616z M32.875,25.19c0.299,0.114,0.529,0.368,0.611,0.681
	c0.082-0.313,0.313-0.566,0.611-0.681H32.875z M18.039,25.769c0.101-0.266,0.313-0.478,0.579-0.579h-0.579V25.769z M48.357,25.19
	c0.266,0.102,0.477,0.313,0.578,0.578V25.19H48.357z"/>
<path opacity="0.15" d="M40.26,26.125h-5.806v3.87h5.806V26.125z M40.26,37.736h-5.806v3.87h5.806V37.736z M32.519,26.125h-5.805
	v3.87h5.805V26.125z M48.001,37.736h-5.806v3.87h5.806V37.736z M48.001,26.125h-5.806v3.87h5.806V26.125z M48.001,31.93h-5.806
	v3.871h5.806V31.93z M24.778,26.125h-5.805v3.87h5.805V26.125z M51.719,8.103V8.055h-3.303C48.16,8.088,47.77,8.194,47.502,8.53
	c-0.254,0.318-0.207,0.775-0.15,1.051l0.401,0.693l1.483,2.574c0.064,0.233,0.102,0.538-0.022,0.85
	c-0.138,0.352-0.51,0.535-0.772,0.627h-6.022c-0.271-0.092-0.638-0.275-0.776-0.627c-0.15-0.374-0.076-0.73,0.017-0.972l1.418-2.452
	l0.358-0.623c0.063-0.26,0.139-0.777-0.138-1.121c-0.271-0.336-0.653-0.442-0.909-0.475H23.426C23.164,8.088,22.78,8.194,22.51,8.53
	c-0.276,0.344-0.197,0.861-0.135,1.121l0.363,0.623l1.412,2.452c0.092,0.241,0.168,0.598,0.018,0.972
	c-0.141,0.352-0.51,0.535-0.776,0.627H17.37c-0.266-0.092-0.638-0.275-0.773-0.627c-0.021-0.051-0.016-0.098-0.027-0.149
	c0.018-0.325,0.068-0.661,0.193-1.016l0.011-0.033l1.286-2.226l0.396-0.693c0.062-0.275,0.104-0.732-0.149-1.051
	c-0.268-0.336-0.655-0.442-0.911-0.475h-3.318v0.066C12.34,8.436,11,10.078,11,12.055v34c0,2.2,1.801,4,4,4h36c2.199,0,4-1.8,4-4
	v-34C55,10.015,53.559,8.339,51.719,8.103z M49.936,43.542H17.039V24.19h32.897V43.542z M24.778,37.736h-5.805v3.87h5.805V37.736z
	 M24.778,31.93h-5.805v3.871h5.805V31.93z M32.519,31.93h-5.805v3.871h5.805V31.93z M32.519,37.736h-5.805v3.87h5.805V37.736z"/>
<linearGradient id="SVGID_1_" gradientUnits="userSpaceOnUse" x1="33.0005" y1="50.0552" x2="33.0005" y2="8.0557">
	<stop  offset="0" style="stop-color:#D0CBC5"/>
	<stop  offset="0.5031" style="stop-color:#FAFCEF"/>
	<stop  offset="0.9693" style="stop-color:#FFFFFF"/>
</linearGradient>
<path fill="url(#SVGID_1_)" d="M40.26,26.125h-5.806v3.87h5.806V26.125z M40.26,37.736h-5.806v3.87h5.806V37.736z M32.519,26.125
	h-5.805v3.87h5.805V26.125z M48.001,37.736h-5.806v3.87h5.806V37.736z M48.001,26.125h-5.806v3.87h5.806V26.125z M48.001,31.93
	h-5.806v3.871h5.806V31.93z M24.778,26.125h-5.805v3.87h5.805V26.125z M51.719,8.103V8.055h-3.303
	C48.16,8.088,47.77,8.194,47.502,8.53c-0.254,0.318-0.207,0.775-0.15,1.051l0.401,0.693l1.483,2.574
	c0.064,0.233,0.102,0.538-0.022,0.85c-0.138,0.352-0.51,0.535-0.772,0.627h-6.022c-0.271-0.092-0.638-0.275-0.776-0.627
	c-0.15-0.374-0.076-0.73,0.017-0.972l1.418-2.452l0.358-0.623c0.063-0.26,0.139-0.777-0.138-1.121
	c-0.271-0.336-0.653-0.442-0.909-0.475H23.426C23.164,8.088,22.78,8.194,22.51,8.53c-0.276,0.344-0.197,0.861-0.135,1.121
	l0.363,0.623l1.412,2.452c0.092,0.241,0.168,0.598,0.018,0.972c-0.141,0.352-0.51,0.535-0.776,0.627H17.37
	c-0.266-0.092-0.638-0.275-0.773-0.627c-0.021-0.051-0.016-0.098-0.027-0.149c0.018-0.325,0.068-0.661,0.193-1.016l0.011-0.033
	l1.286-2.226l0.396-0.693c0.062-0.275,0.104-0.732-0.149-1.051c-0.268-0.336-0.655-0.442-0.911-0.475h-3.318v0.066
	C12.34,8.436,11,10.078,11,12.055v34c0,2.2,1.801,4,4,4h36c2.199,0,4-1.8,4-4v-34C55,10.015,53.559,8.339,51.719,8.103z
	 M49.936,43.542H17.039V24.19h32.897V43.542z M24.778,37.736h-5.805v3.87h5.805V37.736z M24.778,31.93h-5.805v3.871h5.805V31.93z
	 M32.519,31.93h-5.805v3.871h5.805V31.93z M32.519,37.736h-5.805v3.87h5.805V37.736z"/>
<path fill="#FFFFFF" d="M16.597,14.698c0.135,0.352,0.507,0.535,0.773,0.627h6.022c0.266-0.092,0.635-0.275,0.776-0.627
	c0.15-0.374,0.074-0.73-0.018-0.971c-0.15,0.331-0.5,0.509-0.758,0.598H17.37c-0.226-0.078-0.519-0.229-0.688-0.485
	c-0.06,0.242-0.1,0.48-0.112,0.709C16.581,14.6,16.576,14.647,16.597,14.698z"/>
<rect x="26.714" y="31.93" fill="#FFFFFF" width="5.805" height="1"/>
<rect x="17.039" y="43.542" fill="#FFFFFF" width="32.897" height="1"/>
<rect x="26.714" y="37.736" fill="#FFFFFF" width="5.805" height="1"/>
<rect x="26.714" y="26.125" fill="#FFFFFF" width="5.805" height="1"/>
<rect x="18.974" y="37.736" fill="#FFFFFF" width="5.805" height="1"/>
<rect x="18.974" y="26.125" fill="#FFFFFF" width="5.805" height="1"/>
<rect x="18.974" y="31.93" fill="#FFFFFF" width="5.805" height="1"/>
<rect x="34.454" y="26.125" fill="#FFFFFF" width="5.806" height="1"/>
<path fill="#FFFFFF" d="M14.078,9.121V9.055h3.318c0.256,0.033,0.643,0.139,0.911,0.475c0.039,0.049,0.06,0.106,0.086,0.161
	l0.063-0.11c0.062-0.275,0.104-0.732-0.149-1.051c-0.268-0.336-0.655-0.442-0.911-0.475h-3.318v0.066
	C12.34,8.436,11,10.078,11,12.055v1C11,11.078,12.34,9.436,14.078,9.121z"/>
<path fill="#FFFFFF" d="M22.414,9.718c0.028-0.064,0.051-0.131,0.097-0.188c0.27-0.336,0.654-0.442,0.916-0.475h18.963
	c0.256,0.033,0.639,0.139,0.909,0.475c0.046,0.058,0.07,0.125,0.099,0.189l0.039-0.068c0.063-0.26,0.139-0.777-0.138-1.121
	c-0.271-0.336-0.653-0.442-0.909-0.475H23.426C23.164,8.088,22.78,8.194,22.51,8.53c-0.276,0.344-0.197,0.861-0.135,1.121
	L22.414,9.718z"/>
<rect x="34.454" y="37.736" fill="#FFFFFF" width="5.806" height="1"/>
<path fill="#FFFFFF" d="M41.643,14.698c0.139,0.352,0.506,0.535,0.776,0.627h6.022c0.263-0.092,0.635-0.275,0.772-0.627
	c0.124-0.312,0.087-0.617,0.022-0.85l-0.056-0.096c-0.153,0.313-0.492,0.486-0.739,0.573h-6.022
	c-0.263-0.089-0.612-0.267-0.76-0.599l0,0C41.566,13.968,41.492,14.324,41.643,14.698z"/>
<path fill="#FFFFFF" d="M51.719,8.103V8.055h-3.303C48.16,8.088,47.77,8.194,47.502,8.53c-0.254,0.318-0.207,0.775-0.15,1.051
	l0.064,0.111c0.025-0.055,0.047-0.112,0.086-0.162c0.268-0.336,0.658-0.442,0.914-0.475h3.303v0.048
	C53.559,9.339,55,11.015,55,13.055v-1C55,10.015,53.559,8.339,51.719,8.103z"/>
<rect x="42.195" y="37.736" fill="#FFFFFF" width="5.806" height="1"/>
<rect x="42.195" y="26.125" fill="#FFFFFF" width="5.806" height="1"/>
<rect x="42.195" y="31.93" fill="#FFFFFF" width="5.806" height="1"/>
<rect x="4.459" fill="none" width="58.055" height="58.055"/>
</svg>
