<?xml version="1.0" encoding="utf-8"?>
<!-- Generator: Adobe Illustrator 14.0.0, SVG Export Plug-In  -->
<!DOCTYPE svg PUBLIC "-//W3C//DTD SVG 1.1//EN" "http://www.w3.org/Graphics/SVG/1.1/DTD/svg11.dtd" [
	<!ENTITY ns_flows "http://ns.adobe.com/Flows/1.0/">
]>
<svg version="1.1"
	 xmlns="http://www.w3.org/2000/svg" xmlns:xlink="http://www.w3.org/1999/xlink" xmlns:a="http://ns.adobe.com/AdobeSVGViewerExtensions/3.0/"
	 x="0px" y="0px" width="67px" height="57px" viewBox="0 0 67 57" enable-background="new 0 0 67 57" xml:space="preserve">
<defs>
</defs>
<g>
	<rect fill="none" width="67" height="57"/>
</g>
<g>
	<rect x="10.5" y="5.5" fill="none" width="46" height="46"/>
</g>
<path opacity="0.15" d="M15,50c-2.757,0-5-2.243-5-5V11c0-2.321,1.483-4.305,3.572-4.846C13.721,6.057,13.894,6,14.078,6h3.318
	c0.043,0,0.086,0.003,0.129,0.008c0.652,0.085,1.193,0.378,1.563,0.847c0.384,0.48,0.506,1.153,0.341,1.89
	c-0.021,0.097-0.058,0.189-0.107,0.277l-0.396,0.693l-1.237,2.141c-0.045,0.145-0.075,0.277-0.096,0.414h5.602
	c0.042-0.021,0.065-0.039,0.073-0.047c-0.004-0.009-0.01-0.062-0.032-0.135l-1.364-2.37L21.511,9.1
	c-0.049-0.084-0.085-0.176-0.108-0.27c-0.188-0.782-0.071-1.486,0.328-1.982c0.374-0.467,0.917-0.757,1.569-0.84
	C23.342,6.002,23.384,6,23.426,6h18.962c0.043,0,0.086,0.003,0.129,0.008c0.648,0.084,1.188,0.376,1.562,0.842
	c0.4,0.5,0.518,1.205,0.327,1.983c-0.022,0.092-0.058,0.18-0.104,0.261l-1.729,2.993c-0.02,0.073-0.021,0.133-0.004,0.179
	c-0.002-0.006-0.001-0.008-0.001-0.008c0.011,0,0.022,0.004,0.04,0.012h5.637c0.041-0.021,0.064-0.039,0.071-0.047
	c-0.003-0.004-0.008-0.024-0.015-0.052l-1.813-3.145c-0.054-0.093-0.093-0.194-0.114-0.3c-0.194-0.945,0.082-1.542,0.348-1.875
	c0.372-0.467,0.914-0.758,1.567-0.844C48.33,6.003,48.373,6,48.416,6h3.303c0.165,0,0.321,0.04,0.458,0.111
	C54.379,6.562,56,8.604,56,11v34c0,2.757-2.243,5-5,5H15z M46.75,40v-0.705h-7.742c-0.28,0-0.549-0.118-0.737-0.325
	c-0.189-0.207-0.283-0.483-0.259-0.764c0.242-2.716,2.354-4.462,4.801-6.483c2.559-2.125,3.766-3.396,3.766-5.842
	c0-1.092,0-4.416-5.721-4.416c-1.469,0-2.964,0.198-4.551,0.605v0.619c1.044-0.309,2.158-0.543,3.383-0.543
	c2.703,0,4.191,1.385,4.191,3.9c0,2.178-1.356,3.463-3.271,5.039c-2.538,2.09-5.016,4.438-5.016,8.129V40H46.75z M30.515,39.971
	v-0.399h-3.129c-0.552,0-1-0.448-1-1V21.494h-1.33l-5.638,1.722v0.427l3.178-0.666c0.068-0.015,0.137-0.021,0.205-0.021
	c0.228,0,0.451,0.078,0.631,0.224c0.233,0.19,0.369,0.476,0.369,0.776v14.616c0,0.552-0.447,1-1,1h-3.383v0.399H30.515z"/>
<path opacity="0.3" d="M51.719,8.048V8h-3.303c-0.256,0.033-0.646,0.139-0.914,0.475c-0.254,0.318-0.207,0.775-0.15,1.051
	l0.401,0.693l1.483,2.574c0.065,0.233,0.102,0.538-0.022,0.85c-0.138,0.352-0.51,0.535-0.773,0.627h-6.022
	c-0.27-0.092-0.638-0.275-0.777-0.627c-0.15-0.374-0.075-0.73,0.017-0.972l1.418-2.452l0.358-0.623
	c0.063-0.26,0.139-0.777-0.137-1.121C43.028,8.139,42.644,8.033,42.388,8H23.426c-0.262,0.033-0.646,0.139-0.916,0.475
	c-0.276,0.344-0.197,0.861-0.135,1.121l0.363,0.623l1.412,2.452c0.092,0.241,0.168,0.598,0.018,0.972
	c-0.141,0.352-0.51,0.535-0.776,0.627h-6.022c-0.266-0.092-0.638-0.275-0.773-0.627c-0.021-0.051-0.016-0.098-0.027-0.149
	c0.018-0.325,0.068-0.661,0.193-1.016l0.011-0.033l1.286-2.226l0.396-0.693c0.062-0.275,0.104-0.732-0.149-1.051
	C18.039,8.139,17.652,8.033,17.396,8h-3.318v0.066C12.34,8.381,11,10.023,11,12v34c0,2.2,1.801,4,4,4h36c2.199,0,4-1.8,4-4V12
	C55,9.96,53.558,8.284,51.719,8.048z M31.515,41.971H18.418v-2.399h4.383V24.955l-4.383,0.918v-2.397l6.488-1.981h2.479v18.077
	h4.129V41.971z M47.75,42H34.594v-1.785c0-4.1,2.732-6.721,5.38-8.9c1.794-1.477,2.907-2.537,2.907-4.268
	c0-1.869-0.939-2.9-3.191-2.9c-1.594,0-3.021,0.447-4.383,0.922v-2.762c1.822-0.529,3.67-0.842,5.551-0.842
	c4.156,0,6.721,1.648,6.721,5.416c0,3.014-1.707,4.602-4.129,6.613c-2.563,2.117-4.245,3.596-4.441,5.801h8.742V42z"/>
<linearGradient id="SVGID_1_" gradientUnits="userSpaceOnUse" x1="33.0005" y1="49" x2="33.0005" y2="7.0005">
	<stop  offset="0" style="stop-color:#D0CBC5"/>
	<stop  offset="0.5031" style="stop-color:#FAFCEF"/>
	<stop  offset="0.9693" style="stop-color:#FFFFFF"/>
</linearGradient>
<path fill="url(#SVGID_1_)" d="M51.719,7.048V7h-3.303c-0.256,0.033-0.646,0.139-0.914,0.475c-0.254,0.318-0.207,0.775-0.15,1.051
	l0.401,0.693l1.483,2.574c0.065,0.233,0.102,0.538-0.022,0.85c-0.138,0.352-0.51,0.535-0.773,0.627h-6.022
	c-0.27-0.092-0.638-0.275-0.777-0.627c-0.15-0.374-0.075-0.73,0.017-0.972l1.418-2.452l0.358-0.623
	c0.063-0.26,0.139-0.777-0.137-1.121C43.028,7.139,42.644,7.033,42.388,7H23.426c-0.262,0.033-0.646,0.139-0.916,0.475
	c-0.276,0.344-0.197,0.861-0.135,1.121l0.363,0.623l1.412,2.452c0.092,0.241,0.168,0.598,0.018,0.972
	c-0.141,0.352-0.51,0.535-0.776,0.627h-6.022c-0.266-0.092-0.638-0.275-0.773-0.627c-0.021-0.051-0.016-0.098-0.027-0.149
	c0.018-0.325,0.068-0.661,0.193-1.016l0.011-0.033l1.286-2.226l0.396-0.693c0.062-0.275,0.104-0.732-0.149-1.051
	C18.039,7.139,17.652,7.033,17.396,7h-3.318v0.066C12.34,7.381,11,9.023,11,11v34c0,2.2,1.801,4,4,4h36c2.199,0,4-1.8,4-4V11
	C55,8.96,53.558,7.284,51.719,7.048z M31.515,40.971H18.418v-2.399h4.383V23.955l-4.383,0.918v-2.397l6.488-1.981h2.479v18.077
	h4.129V40.971z M47.75,41H34.594v-1.785c0-4.1,2.732-6.721,5.38-8.9c1.794-1.477,2.907-2.537,2.907-4.268
	c0-1.869-0.939-2.9-3.191-2.9c-1.594,0-3.021,0.447-4.383,0.922v-2.762c1.822-0.529,3.67-0.842,5.551-0.842
	c4.156,0,6.721,1.648,6.721,5.416c0,3.014-1.707,4.602-4.129,6.613c-2.563,2.117-4.245,3.596-4.441,5.801h8.742V41z"/>
<path fill="#FFFFFF" d="M39.008,38.295h0.218c0.55-1.688,2.069-3.021,4.224-4.801c2.422-2.012,4.129-3.6,4.129-6.613
	c0-0.217-0.011-0.424-0.027-0.626c-0.141,2.766-1.785,4.315-4.102,6.239C40.887,34.611,39.204,36.09,39.008,38.295z M18.305,8.475
	c0.039,0.049,0.061,0.106,0.086,0.161l0.063-0.11c0.062-0.275,0.104-0.732-0.149-1.051C18.039,7.139,17.652,7.033,17.396,7h-3.318
	v0.066C12.34,7.381,11,9.023,11,11v1c0-1.977,1.34-3.619,3.078-3.934V8h3.318C17.652,8.033,18.039,8.139,18.305,8.475z
	 M22.413,8.661c0.028-0.063,0.052-0.13,0.097-0.187c0.27-0.336,0.654-0.441,0.916-0.475h18.962c0.256,0.033,0.641,0.139,0.909,0.475
	c0.046,0.057,0.069,0.124,0.098,0.189l0.039-0.068c0.063-0.26,0.139-0.777-0.137-1.121C43.028,7.139,42.644,7.033,42.388,7H23.426
	c-0.262,0.033-0.646,0.139-0.916,0.475c-0.276,0.344-0.197,0.861-0.135,1.121L22.413,8.661z M24.168,13.643
	c0.15-0.374,0.074-0.73-0.018-0.972c-0.148,0.331-0.5,0.51-0.759,0.599h-6.022c-0.226-0.078-0.52-0.229-0.688-0.486
	c-0.06,0.243-0.101,0.48-0.112,0.71c0.012,0.052,0.006,0.099,0.027,0.149c0.136,0.352,0.508,0.535,0.773,0.627h6.022
	C23.658,14.178,24.027,13.994,24.168,13.643z M39.689,23.146c-1.594,0-3.021,0.447-4.383,0.922v1
	c1.362-0.475,2.789-0.922,4.383-0.922c2.018,0,2.976,0.834,3.154,2.35c0.018-0.146,0.037-0.292,0.037-0.449
	C42.881,24.178,41.941,23.146,39.689,23.146z M49.181,12.697c-0.153,0.313-0.491,0.486-0.74,0.572h-6.022
	c-0.262-0.089-0.611-0.268-0.76-0.6l-0.001,0.001c-0.092,0.241-0.167,0.598-0.017,0.972c0.14,0.352,0.508,0.535,0.777,0.627h6.022
	c0.264-0.092,0.636-0.275,0.773-0.627c0.124-0.312,0.088-0.616,0.022-0.85L49.181,12.697z M51.719,7.048V7h-3.303
	c-0.256,0.033-0.646,0.139-0.914,0.475c-0.254,0.318-0.207,0.775-0.15,1.051l0.064,0.111c0.025-0.056,0.047-0.112,0.086-0.162
	C47.77,8.139,48.16,8.033,48.416,8h3.303v0.048C53.558,8.284,55,9.96,55,12v-1C55,8.96,53.558,7.284,51.719,7.048z M22.801,24.955
	v-1l-4.383,0.918v1L22.801,24.955z M34.594,42H47.75v-1H34.594V42z M18.418,41.971h13.097v-1H18.418V41.971z"/>
</svg>
