<?xml version="1.0" encoding="utf-8"?>
<!-- Generator: Adobe Illustrator 15.0.2, SVG Export Plug-In . SVG Version: 6.00 Build 0)  -->
<!DOCTYPE svg PUBLIC "-//W3C//DTD SVG 1.1//EN" "http://www.w3.org/Graphics/SVG/1.1/DTD/svg11.dtd">
<svg version="1.1" id="Ebene_1" xmlns="http://www.w3.org/2000/svg" xmlns:xlink="http://www.w3.org/1999/xlink" x="0px" y="0px"
	 width="67px" height="57px" viewBox="0 0 67 57" enable-background="new 0 0 67 57" xml:space="preserve">
<rect fill="none" width="67" height="57"/>
<path opacity="0.3" d="M51.719,8.048V8h-3.303c-0.256,0.033-0.646,0.139-0.914,0.475c-0.254,0.318-0.207,0.775-0.15,1.051
	l0.401,0.693l1.483,2.574c0.064,0.233,0.102,0.538-0.022,0.85c-0.138,0.352-0.51,0.535-0.772,0.627h-6.022
	c-0.271-0.092-0.638-0.275-0.776-0.627c-0.15-0.374-0.076-0.73,0.017-0.972l1.418-2.452l0.358-0.623
	c0.063-0.26,0.139-0.777-0.138-1.121C43.027,8.139,42.645,8.033,42.389,8H23.426c-0.262,0.033-0.646,0.139-0.916,0.475
	c-0.276,0.344-0.197,0.861-0.135,1.121l0.363,0.623l1.412,2.452c0.092,0.241,0.168,0.598,0.018,0.972
	c-0.141,0.352-0.51,0.535-0.776,0.627H17.37c-0.266-0.092-0.638-0.275-0.773-0.627c-0.021-0.051-0.016-0.098-0.027-0.149
	c0.018-0.325,0.068-0.661,0.193-1.016l0.011-0.033l1.286-2.226l0.396-0.693c0.062-0.275,0.104-0.732-0.149-1.051
	C18.039,8.139,17.652,8.033,17.396,8h-3.318v0.066C12.34,8.381,11,10.023,11,12v34c0,2.2,1.801,4,4,4h36c2.199,0,4-1.8,4-4V12
	C55,9.96,53.559,8.284,51.719,8.048z M29.775,40.468c-1.263,1.002-3.229,1.503-5.897,1.503c-1.761,0-3.518-0.211-5.27-0.634v-2.695
	c1.887,0.458,3.415,0.688,4.582,0.688c1.285,0,2.252-0.29,2.898-0.869s0.97-1.449,0.97-2.608c0-1.249-0.436-2.136-1.307-2.662
	c-0.872-0.525-2.655-0.788-5.351-0.788v-2.548c2.65,0,4.371-0.225,5.162-0.674c0.79-0.449,1.186-1.289,1.186-2.52
	c0-0.845-0.274-1.48-0.822-1.907c-0.548-0.426-1.365-0.64-2.453-0.64c-1.213,0-2.632,0.211-4.259,0.634v-2.642
	c1.788-0.422,3.563-0.634,5.323-0.634c2.266,0,3.963,0.414,5.096,1.24c1.132,0.826,1.698,2.066,1.698,3.72
	c0,1.141-0.321,2.114-0.964,2.917c-0.643,0.805-1.57,1.387-2.783,1.746c1.321,0.252,2.331,0.791,3.032,1.617
	c0.701,0.827,1.052,1.865,1.052,3.113C31.669,37.918,31.037,39.467,29.775,40.468z M48.392,41.755H35.225v-2.372h4.447V24.921
	l-4.447,0.903v-2.372l6.509-1.955H44.2v17.885h4.191V41.755z"/>
<path opacity="0.15" d="M15,50c-2.757,0-5-2.243-5-5V11c0-2.321,1.484-4.306,3.573-4.846C13.722,6.057,13.894,6,14.078,6h3.318
	c0.043,0,0.086,0.003,0.129,0.008c0.65,0.084,1.191,0.376,1.564,0.843c0.387,0.488,0.508,1.16,0.343,1.895
	c-0.022,0.097-0.058,0.19-0.107,0.276l-1.633,2.834c-0.045,0.143-0.075,0.276-0.096,0.414h5.599c0.042-0.022,0.066-0.04,0.073-0.047
	c-0.004-0.008-0.01-0.061-0.032-0.134L21.511,9.1c-0.05-0.084-0.086-0.176-0.109-0.271c-0.186-0.781-0.07-1.484,0.328-1.979
	c0.376-0.468,0.919-0.759,1.57-0.841C23.342,6.002,23.384,6,23.426,6h18.963c0.043,0,0.086,0.003,0.129,0.008
	c0.646,0.083,1.185,0.374,1.56,0.84c0.4,0.499,0.518,1.202,0.331,1.981c-0.022,0.093-0.059,0.183-0.106,0.266l-1.729,2.993
	c-0.021,0.072-0.021,0.131-0.005,0.178c-0.001-0.005,0-0.007,0.005-0.007c0.006,0,0.017,0.004,0.033,0.011h5.637
	c0.052-0.027,0.071-0.046,0.072-0.047c-0.004-0.003-0.01-0.025-0.017-0.053l-1.813-3.143c-0.054-0.093-0.093-0.195-0.114-0.3
	c-0.194-0.947,0.082-1.542,0.349-1.876c0.366-0.459,0.923-0.759,1.566-0.843C48.33,6.003,48.373,6,48.416,6h3.303
	c0.165,0,0.321,0.04,0.458,0.111C54.379,6.562,56,8.604,56,11v34c0,2.757-2.243,5-5,5H15z M19.608,39.535
	c1.417,0.289,2.85,0.436,4.27,0.436c2.425,0,4.2-0.433,5.276-1.286c1.02-0.809,1.515-2.071,1.515-3.86
	c0-1.014-0.267-1.82-0.814-2.467c-0.554-0.652-1.358-1.072-2.457-1.281c-0.453-0.087-0.788-0.472-0.811-0.933
	c-0.023-0.461,0.272-0.878,0.714-1.009c1.007-0.298,1.776-0.773,2.286-1.411c0.501-0.627,0.745-1.377,0.745-2.293
	c0-1.327-0.421-2.279-1.288-2.912c-0.953-0.695-2.469-1.048-4.506-1.048c-1.422,0-2.874,0.147-4.323,0.438v0.577
	c1.201-0.248,2.293-0.374,3.259-0.374c1.328,0,2.332,0.278,3.067,0.851c0.551,0.429,1.208,1.246,1.208,2.696
	c0,2.007-0.92,2.951-1.691,3.39c-0.85,0.482-2.342,0.738-4.656,0.793v0.571c2.377,0.062,3.937,0.358,4.867,0.919
	c0.817,0.494,1.791,1.505,1.791,3.519c0,1.451-0.438,2.579-1.303,3.354c-0.833,0.746-2.032,1.124-3.565,1.124
	c-0.985,0-2.165-0.144-3.582-0.437V39.535z M47.392,39.755v-0.372H44.2c-0.553,0-1-0.447-1-1V21.498h-1.32l-5.655,1.698V23.6
	l3.248-0.659c0.066-0.014,0.133-0.02,0.199-0.02c0.229,0,0.453,0.079,0.633,0.226c0.232,0.19,0.367,0.474,0.367,0.774v14.462
	c0,0.553-0.447,1-1,1h-3.447v0.372H47.392z"/>
<path opacity="0.15" d="M51.719,7.048V7h-3.303c-0.256,0.033-0.646,0.139-0.914,0.475c-0.254,0.318-0.207,0.775-0.15,1.051
	l0.401,0.693l1.483,2.574c0.064,0.233,0.102,0.538-0.022,0.85c-0.138,0.352-0.51,0.535-0.772,0.627h-6.022
	c-0.271-0.092-0.638-0.275-0.776-0.627c-0.15-0.374-0.076-0.73,0.017-0.972l1.418-2.452l0.358-0.623
	c0.063-0.26,0.139-0.777-0.138-1.121C43.027,7.139,42.645,7.033,42.389,7H23.426c-0.262,0.033-0.646,0.139-0.916,0.475
	c-0.276,0.344-0.197,0.861-0.135,1.121l0.363,0.623l1.412,2.452c0.092,0.241,0.168,0.598,0.018,0.972
	c-0.141,0.352-0.51,0.535-0.776,0.627H17.37c-0.266-0.092-0.638-0.275-0.773-0.627c-0.021-0.051-0.016-0.098-0.027-0.149
	c0.018-0.325,0.068-0.661,0.193-1.016l0.011-0.033l1.286-2.226l0.396-0.693c0.062-0.275,0.104-0.732-0.149-1.051
	C18.039,7.139,17.652,7.033,17.396,7h-3.318v0.066C12.34,7.381,11,9.023,11,11v34c0,2.2,1.801,4,4,4h36c2.199,0,4-1.8,4-4V11
	C55,8.96,53.559,7.284,51.719,7.048z M29.775,39.468c-1.263,1.002-3.229,1.503-5.897,1.503c-1.761,0-3.518-0.211-5.27-0.634v-2.695
	c1.887,0.458,3.415,0.688,4.582,0.688c1.285,0,2.252-0.29,2.898-0.869s0.97-1.449,0.97-2.608c0-1.249-0.436-2.136-1.307-2.662
	c-0.872-0.525-2.655-0.788-5.351-0.788v-2.547c2.65,0,4.371-0.225,5.162-0.674c0.79-0.449,1.186-1.29,1.186-2.521
	c0-0.845-0.274-1.48-0.822-1.907c-0.548-0.426-1.365-0.64-2.453-0.64c-1.213,0-2.632,0.211-4.259,0.634v-2.642
	c1.788-0.422,3.563-0.634,5.323-0.634c2.266,0,3.963,0.414,5.096,1.24c1.132,0.826,1.698,2.066,1.698,3.72
	c0,1.141-0.321,2.114-0.964,2.917c-0.643,0.804-1.57,1.386-2.783,1.746c1.321,0.252,2.331,0.791,3.032,1.617
	c0.701,0.827,1.052,1.865,1.052,3.113C31.669,36.918,31.037,38.467,29.775,39.468z M48.392,40.755H35.225v-2.372h4.447V23.921
	l-4.447,0.903v-2.372l6.509-1.955H44.2v17.885h4.191V40.755z"/>
<linearGradient id="SVGID_1_" gradientUnits="userSpaceOnUse" x1="32.9995" y1="7" x2="32.9995" y2="49.0005">
	<stop  offset="0.0307" style="stop-color:#FFFFFF"/>
	<stop  offset="0.4969" style="stop-color:#FAFCEF"/>
	<stop  offset="1" style="stop-color:#D0CBC5"/>
</linearGradient>
<path fill="url(#SVGID_1_)" d="M51.719,7.048V7h-3.303c-0.256,0.033-0.646,0.139-0.914,0.475c-0.254,0.318-0.207,0.775-0.15,1.051
	l0.401,0.693l1.483,2.574c0.064,0.233,0.102,0.538-0.022,0.85c-0.138,0.352-0.51,0.535-0.772,0.627h-6.022
	c-0.271-0.092-0.638-0.275-0.776-0.627c-0.15-0.374-0.076-0.73,0.017-0.972l1.418-2.452l0.358-0.623
	c0.063-0.26,0.139-0.777-0.138-1.121C43.027,7.139,42.645,7.033,42.389,7H23.426c-0.262,0.033-0.646,0.139-0.916,0.475
	c-0.276,0.344-0.197,0.861-0.135,1.121l0.363,0.623l1.412,2.452c0.092,0.241,0.168,0.598,0.018,0.972
	c-0.141,0.352-0.51,0.535-0.776,0.627H17.37c-0.266-0.092-0.638-0.275-0.773-0.627c-0.021-0.051-0.016-0.098-0.027-0.149
	c0.018-0.325,0.068-0.661,0.193-1.016l0.011-0.033l1.286-2.226l0.396-0.693c0.062-0.275,0.104-0.732-0.149-1.051
	C18.039,7.139,17.652,7.033,17.396,7h-3.318v0.066C12.34,7.381,11,9.023,11,11v34c0,2.2,1.801,4,4,4h36c2.199,0,4-1.8,4-4V11
	C55,8.96,53.559,7.284,51.719,7.048z M29.775,39.468c-1.263,1.002-3.229,1.503-5.897,1.503c-1.761,0-3.518-0.211-5.27-0.634v-2.695
	c1.887,0.458,3.415,0.688,4.582,0.688c1.285,0,2.252-0.29,2.898-0.869s0.97-1.449,0.97-2.608c0-1.249-0.436-2.136-1.307-2.662
	c-0.872-0.525-2.655-0.788-5.351-0.788v-2.547c2.65,0,4.371-0.225,5.162-0.674c0.79-0.449,1.186-1.29,1.186-2.521
	c0-0.845-0.274-1.48-0.822-1.907c-0.548-0.426-1.365-0.64-2.453-0.64c-1.213,0-2.632,0.211-4.259,0.634v-2.642
	c1.788-0.422,3.563-0.634,5.323-0.634c2.266,0,3.963,0.414,5.096,1.24c1.132,0.826,1.698,2.066,1.698,3.72
	c0,1.141-0.321,2.114-0.964,2.917c-0.643,0.804-1.57,1.386-2.783,1.746c1.321,0.252,2.331,0.791,3.032,1.617
	c0.701,0.827,1.052,1.865,1.052,3.113C31.669,36.918,31.037,38.467,29.775,39.468z M48.392,40.755H35.225v-2.372h4.447V23.921
	l-4.447,0.903v-2.372l6.509-1.955H44.2v17.885h4.191V40.755z"/>
<g>
	<path fill="#FFFFFF" d="M25.752,32.189c-0.872-0.525-2.655-0.788-5.351-0.788v1c2.695,0,4.479,0.263,5.351,0.788
		c0.76,0.459,1.168,1.211,1.265,2.221c0.019-0.182,0.042-0.36,0.042-0.559C27.059,33.603,26.623,32.716,25.752,32.189z"/>
	<path fill="#FFFFFF" d="M41.643,13.643c0.139,0.352,0.506,0.535,0.776,0.627h6.022c0.263-0.092,0.635-0.275,0.772-0.627
		c0.124-0.312,0.087-0.617,0.022-0.85l-0.056-0.096c-0.153,0.313-0.492,0.486-0.739,0.573h-6.022
		c-0.263-0.089-0.612-0.268-0.76-0.599l0,0C41.566,12.913,41.492,13.269,41.643,13.643z"/>
	<path fill="#FFFFFF" d="M27.585,30.094c0.502,0.096,0.944,0.246,1.357,0.425c0.568-0.317,1.052-0.702,1.426-1.171
		c0.643-0.803,0.964-1.776,0.964-2.917c0-0.158-0.03-0.294-0.041-0.444c-0.09,0.901-0.389,1.693-0.923,2.362
		C29.726,29.152,28.798,29.734,27.585,30.094z"/>
	<path fill="#FFFFFF" d="M16.597,13.643c0.135,0.352,0.507,0.535,0.773,0.627h6.022c0.266-0.092,0.635-0.275,0.776-0.627
		c0.15-0.374,0.074-0.73-0.018-0.971c-0.15,0.331-0.5,0.509-0.758,0.598H17.37c-0.226-0.078-0.519-0.229-0.688-0.485
		c-0.06,0.242-0.1,0.48-0.112,0.709C16.581,13.545,16.576,13.592,16.597,13.643z"/>
	<path fill="#FFFFFF" d="M29.775,39.468c-1.263,1.002-3.229,1.503-5.897,1.503c-1.761,0-3.518-0.211-5.27-0.634v1
		c1.752,0.423,3.509,0.634,5.27,0.634c2.669,0,4.635-0.501,5.897-1.503c1.262-1.001,1.894-2.55,1.894-4.644
		c0-0.121-0.019-0.23-0.025-0.347C31.522,37.241,30.901,38.574,29.775,39.468z"/>
	<path fill="#FFFFFF" d="M23.474,24.112c1.088,0,1.905,0.214,2.453,0.64c0.432,0.336,0.688,0.809,0.779,1.405
		c0.017-0.164,0.043-0.318,0.043-0.498c0-0.845-0.274-1.48-0.822-1.907c-0.548-0.426-1.365-0.64-2.453-0.64
		c-1.213,0-2.632,0.211-4.259,0.634v1C20.842,24.324,22.261,24.112,23.474,24.112z"/>
	<path fill="#FFFFFF" d="M14.078,8.066V8h3.318c0.256,0.033,0.643,0.139,0.911,0.475c0.039,0.049,0.06,0.106,0.086,0.161l0.063-0.11
		c0.062-0.275,0.104-0.732-0.149-1.051C18.039,7.139,17.652,7.033,17.396,7h-3.318v0.066C12.34,7.381,11,9.023,11,11v1
		C11,10.023,12.34,8.381,14.078,8.066z"/>
	<path fill="#FFFFFF" d="M51.719,7.048V7h-3.303c-0.256,0.033-0.646,0.139-0.914,0.475c-0.254,0.318-0.207,0.775-0.15,1.051
		l0.064,0.111c0.025-0.055,0.047-0.112,0.086-0.162C47.77,8.139,48.16,8.033,48.416,8h3.303v0.048C53.559,8.284,55,9.96,55,12v-1
		C55,8.96,53.559,7.284,51.719,7.048z"/>
	<rect x="35.225" y="40.755" fill="#FFFFFF" width="13.167" height="1"/>
	<path fill="#FFFFFF" d="M22.414,8.662c0.028-0.064,0.051-0.13,0.096-0.187C22.78,8.139,23.164,8.033,23.426,8h18.963
		c0.256,0.033,0.639,0.139,0.909,0.475c0.046,0.058,0.07,0.125,0.099,0.189l0.039-0.068c0.063-0.26,0.139-0.777-0.138-1.121
		C43.027,7.139,42.645,7.033,42.389,7H23.426c-0.262,0.033-0.646,0.139-0.916,0.475c-0.276,0.344-0.197,0.861-0.135,1.121
		L22.414,8.662z"/>
	<polygon fill="#FFFFFF" points="39.672,24.921 39.672,23.921 35.225,24.824 35.225,25.824 	"/>
</g>
</svg>
