<?xml version="1.0" encoding="utf-8"?>
<!-- Generator: Adobe Illustrator 15.0.2, SVG Export Plug-In . SVG Version: 6.00 Build 0)  -->
<!DOCTYPE svg PUBLIC "-//W3C//DTD SVG 1.1//EN" "http://www.w3.org/Graphics/SVG/1.1/DTD/svg11.dtd">
<svg version="1.1" id="Ebene_1" xmlns="http://www.w3.org/2000/svg" xmlns:xlink="http://www.w3.org/1999/xlink" x="0px" y="0px"
	 width="67px" height="57px" viewBox="0 0 67 57" enable-background="new 0 0 67 57" xml:space="preserve">
<rect fill="none" width="67" height="57"/>
<path opacity="0.3" d="M51.501,23c-2.206,0-4-1.794-4-4v-2.5H45c-2.206,0-4-1.794-4-4c0-1.658,1.014-3.082,2.453-3.688
	c-0.029-0.12-0.074-0.236-0.155-0.337C43.027,8.139,42.645,8.033,42.389,8H23.426c-0.262,0.033-0.646,0.139-0.916,0.475
	c-0.276,0.344-0.197,0.861-0.135,1.121l0.363,0.623l1.412,2.452c0.092,0.241,0.168,0.598,0.018,0.972
	c-0.141,0.352-0.51,0.535-0.776,0.627H17.37c-0.266-0.092-0.638-0.275-0.773-0.627c-0.021-0.051-0.016-0.098-0.027-0.149
	c0.018-0.325,0.068-0.661,0.193-1.016l0.011-0.033l1.286-2.226l0.396-0.693c0.062-0.275,0.104-0.732-0.149-1.051
	C18.039,8.139,17.652,8.033,17.396,8h-3.318v0.066C12.34,8.381,11,10.023,11,12v34c0,2.2,1.801,4,4,4h36c2.199,0,4-1.8,4-4V20.898
	C54.321,22.144,53.017,23,51.501,23z M39.942,23.723C36.36,29.613,34.425,35.701,34.16,42h-4.834
	c0.415-6.299,2.354-12.201,5.794-17.713h-8.895V21.5h13.717V23.723z M58,10.5h-4.499V6c0-1.1-0.9-2-2-2s-2,0.9-2,2v4.5H45
	c-1.1,0-2,0.9-2,2s0.9,2,2,2h4.501V19c0,1.1,0.9,2,2,2s2-0.9,2-2v-4.5H58c1.1,0,2-0.9,2-2S59.1,10.5,58,10.5z"/>
<path opacity="0.15" d="M15,50c-2.757,0-5-2.243-5-5V11c0-2.321,1.484-4.306,3.573-4.846C13.722,6.057,13.894,6,14.078,6h3.318
	c0.043,0,0.086,0.003,0.129,0.008c0.65,0.084,1.191,0.376,1.564,0.843c0.387,0.488,0.508,1.16,0.343,1.895
	c-0.022,0.097-0.058,0.19-0.107,0.276l-1.633,2.834c-0.045,0.143-0.075,0.276-0.096,0.414h5.599c0.042-0.022,0.066-0.04,0.073-0.047
	c-0.004-0.008-0.01-0.061-0.032-0.134L21.511,9.1c-0.05-0.084-0.086-0.176-0.109-0.271c-0.186-0.781-0.07-1.484,0.328-1.979
	c0.376-0.468,0.919-0.759,1.57-0.841C23.342,6.002,23.384,6,23.426,6h18.963c0.043,0,0.086,0.003,0.129,0.008
	c0.646,0.083,1.185,0.374,1.56,0.84c0.165,0.206,0.278,0.443,0.348,0.728c0.113,0.466-0.12,0.946-0.554,1.145
	C44.22,8.579,44.602,8.5,45,8.5h3.501V5c0-1.654,1.346-3,3-3s3,1.346,3,3v3.5H58c1.654,0,3,1.346,3,3s-1.346,3-3,3h-3.499V18
	c0,0.457-0.103,0.891-0.286,1.279c0.189-0.241,0.48-0.381,0.785-0.381c0.082,0,0.165,0.01,0.247,0.031
	C55.689,19.042,56,19.441,56,19.898V45c0,2.757-2.243,5-5,5H15z M33.214,40c0.413-6.005,2.337-11.905,5.728-17.556V21.5H27.225
	v0.787h7.895c0.363,0,0.698,0.197,0.874,0.515c0.177,0.317,0.167,0.706-0.025,1.014C32.819,28.862,30.952,34.302,30.41,40H33.214z
	 M47.501,14.5c0.553,0,1,0.448,1,1V18v-3.5H47.501z M43.328,9.011c-0.649,0.436-1.102,1.105-1.263,1.867
	C42.229,10.104,42.692,9.439,43.328,9.011z"/>
<path opacity="0.15" d="M51.501,22c-2.206,0-4-1.794-4-4v-2.5H45c-2.206,0-4-1.794-4-4c0-1.658,1.014-3.082,2.453-3.688
	c-0.029-0.12-0.074-0.236-0.155-0.337C43.027,7.139,42.645,7.033,42.389,7H23.426c-0.262,0.033-0.646,0.139-0.916,0.475
	c-0.276,0.344-0.197,0.861-0.135,1.121l0.363,0.623l1.412,2.452c0.092,0.241,0.168,0.598,0.018,0.972
	c-0.141,0.352-0.51,0.535-0.776,0.627H17.37c-0.266-0.092-0.638-0.275-0.773-0.627c-0.021-0.051-0.016-0.098-0.027-0.149
	c0.018-0.325,0.068-0.661,0.193-1.016l0.011-0.033l1.286-2.226l0.396-0.693c0.062-0.275,0.104-0.732-0.149-1.051
	C18.039,7.139,17.652,7.033,17.396,7h-3.318v0.066C12.34,7.381,11,9.023,11,11v34c0,2.2,1.801,4,4,4h36c2.199,0,4-1.8,4-4V19.898
	C54.321,21.144,53.017,22,51.501,22z M39.942,22.723C36.36,28.613,34.425,34.701,34.16,41h-4.834
	c0.415-6.299,2.354-12.202,5.794-17.713h-8.895V20.5h13.717V22.723z M58,9.5h-4.499V5c0-1.1-0.9-2-2-2s-2,0.9-2,2v4.5H45
	c-1.1,0-2,0.9-2,2s0.9,2,2,2h4.501V18c0,1.1,0.9,2,2,2s2-0.9,2-2v-4.5H58c1.1,0,2-0.9,2-2S59.1,9.5,58,9.5z"/>
<linearGradient id="SVGID_1_" gradientUnits="userSpaceOnUse" x1="35.5" y1="49" x2="35.5" y2="3.0005">
	<stop  offset="0" style="stop-color:#D0CBC5"/>
	<stop  offset="0.5031" style="stop-color:#FAFCEF"/>
	<stop  offset="0.9693" style="stop-color:#FFFFFF"/>
</linearGradient>
<path fill="url(#SVGID_1_)" d="M51.501,22c-2.206,0-4-1.794-4-4v-2.5H45c-2.206,0-4-1.794-4-4c0-1.658,1.014-3.082,2.453-3.688
	c-0.029-0.12-0.074-0.236-0.155-0.337C43.027,7.139,42.645,7.033,42.389,7H23.426c-0.262,0.033-0.646,0.139-0.916,0.475
	c-0.276,0.344-0.197,0.861-0.135,1.121l0.363,0.623l1.412,2.452c0.092,0.241,0.168,0.598,0.018,0.972
	c-0.141,0.352-0.51,0.535-0.776,0.627H17.37c-0.266-0.092-0.638-0.275-0.773-0.627c-0.021-0.051-0.016-0.098-0.027-0.149
	c0.018-0.325,0.068-0.661,0.193-1.016l0.011-0.033l1.286-2.226l0.396-0.693c0.062-0.275,0.104-0.732-0.149-1.051
	C18.039,7.139,17.652,7.033,17.396,7h-3.318v0.066C12.34,7.381,11,9.023,11,11v34c0,2.2,1.801,4,4,4h36c2.199,0,4-1.8,4-4V19.898
	C54.321,21.144,53.017,22,51.501,22z M39.942,22.723C36.36,28.613,34.425,34.701,34.16,41h-4.834
	c0.415-6.299,2.354-12.202,5.794-17.713h-8.895V20.5h13.717V22.723z M58,9.5h-4.499V5c0-1.1-0.9-2-2-2s-2,0.9-2,2v4.5H45
	c-1.1,0-2,0.9-2,2s0.9,2,2,2h4.501V18c0,1.1,0.9,2,2,2s2-0.9,2-2v-4.5H58c1.1,0,2-0.9,2-2S59.1,9.5,58,9.5z"/>
<g>
	<path fill="#FFFFFF" d="M47.501,15.5H45c-2.059,0-3.739-1.569-3.957-3.571C41.017,12.117,41,12.307,41,12.5c0,2.206,1.794,4,4,4
		h2.501V15.5z"/>
	<path fill="#FFFFFF" d="M34.16,42c0.265-6.299,2.2-12.387,5.782-18.277v-1C36.36,28.613,34.425,34.701,34.16,41h-4.737
		c-0.031,0.334-0.075,0.664-0.097,1H34.16z"/>
	<path fill="#FFFFFF" d="M34.535,24.287c0.195-0.333,0.379-0.669,0.585-1h-8.895v1H34.535z"/>
	<path fill="#FFFFFF" d="M16.597,13.643c0.135,0.352,0.507,0.535,0.773,0.627h6.022c0.266-0.092,0.635-0.275,0.776-0.627
		c0.15-0.374,0.074-0.73-0.018-0.971c-0.15,0.331-0.5,0.509-0.758,0.598H17.37c-0.226-0.078-0.519-0.229-0.688-0.485
		c-0.06,0.242-0.1,0.48-0.112,0.709C16.581,13.545,16.576,13.592,16.597,13.643z"/>
	<path fill="#FFFFFF" d="M53.501,10.5H58c0.926,0,1.704,0.641,1.929,1.5C59.971,11.84,60,11.674,60,11.5c0-1.1-0.9-2-2-2h-4.499
		V10.5z"/>
	<path fill="#FFFFFF" d="M51.501,22c-2.206,0-4-1.794-4-4v1c0,2.206,1.794,4,4,4c1.516,0,2.82-0.856,3.499-2.102v-1
		C54.321,21.144,53.017,22,51.501,22z"/>
	<path fill="#FFFFFF" d="M14.078,8.066V8h3.318c0.256,0.033,0.643,0.139,0.911,0.475c0.039,0.049,0.06,0.106,0.086,0.161l0.063-0.11
		c0.062-0.275,0.104-0.732-0.149-1.051C18.039,7.139,17.652,7.033,17.396,7h-3.318v0.066C12.34,7.381,11,9.023,11,11v1
		C11,10.023,12.34,8.381,14.078,8.066z"/>
	<path fill="#FFFFFF" d="M22.414,8.662c0.028-0.064,0.051-0.13,0.096-0.187C22.78,8.139,23.164,8.033,23.426,8h18.963
		c0.133,0.017,0.299,0.056,0.466,0.134c0.19-0.122,0.388-0.232,0.599-0.321c-0.029-0.12-0.074-0.236-0.155-0.337
		C43.027,7.139,42.645,7.033,42.389,7H23.426c-0.262,0.033-0.646,0.139-0.916,0.475c-0.276,0.344-0.197,0.861-0.135,1.121
		L22.414,8.662z"/>
	<path fill="#FFFFFF" d="M43.071,12c0.225-0.859,1.003-1.5,1.929-1.5h4.501v-1H45c-1.1,0-2,0.9-2,2
		C43,11.674,43.029,11.84,43.071,12z"/>
	<path fill="#FFFFFF" d="M51.501,4c1.1,0,2,0.9,2,2V5c0-1.1-0.9-2-2-2s-2,0.9-2,2v1C49.501,4.9,50.401,4,51.501,4z"/>
</g>
</svg>
