<?xml version="1.0" encoding="utf-8"?>
<!-- Generator: Adobe Illustrator 15.0.2, SVG Export Plug-In . SVG Version: 6.00 Build 0)  -->
<!DOCTYPE svg PUBLIC "-//W3C//DTD SVG 1.1//EN" "http://www.w3.org/Graphics/SVG/1.1/DTD/svg11.dtd">
<svg version="1.1" id="Ebene_1" xmlns="http://www.w3.org/2000/svg" xmlns:xlink="http://www.w3.org/1999/xlink" x="0px" y="0px"
	 width="67px" height="57px" viewBox="0 0 67 57" enable-background="new 0 0 67 57" xml:space="preserve">
<path opacity="0.3" d="M54.131,39.952l-7.126-2.664c-1.621-0.849-2.577,0.278-2.577,0.278l-3.584,2.98
	c0.258-0.3-2.97,3.37-12.338-5.716l-0.003,0.001l-0.454-0.451v-0.003c-9.082-9.369-5.413-12.597-5.718-12.338l3.1-3.47
	c0,0,1.129-0.954,0.282-2.574l-2.668-7.135c0,0-0.867-1.639-2.371-1.283c-10.715,2.556-7.778,13.775-7.778,13.775
	c1.343,7.155,6.421,13.201,8.995,15.888l-0.016,0.011l3.049,3.049l0.008-0.006c2.045,2.094,8.681,8.303,16.716,9.809
	c0,0,11.217,2.938,13.772-7.779C55.775,40.82,54.131,39.952,54.131,39.952z"/>
<path opacity="0.15" d="M44.986,50.472c-2.036,0-3.528-0.385-3.591-0.4c-8.188-1.532-15.027-7.895-17.08-9.978
	c-0.035-0.025-0.067-0.055-0.099-0.086l-3.049-3.049c-0.052-0.052-0.098-0.109-0.137-0.171c-2.89-3.044-7.771-9.078-9.118-16.25
	c-0.044-0.159-1.411-5.547,1.246-9.975c1.496-2.494,3.946-4.162,7.283-4.958c0.219-0.052,0.438-0.078,0.655-0.078
	c1.457,0,2.465,1.173,2.832,1.866c0.02,0.038,0.038,0.077,0.053,0.118l2.648,7.08c0.883,1.752,0.101,3.141-0.49,3.688
	c0,0-2.984,3.342-2.987,3.346c-0.088,0.124-2.066,3.133,5.615,11.057c0.01,0.012,0.42,0.417,0.435,0.432
	c5.311,5.15,8.418,5.919,9.797,5.919c0.775,0,1.157-0.231,1.255-0.302c0.015-0.011,0.028-0.02,0.043-0.029l3.445-2.865
	c0.234-0.239,0.954-0.864,2.088-0.864c0.522,0,1.054,0.135,1.58,0.4l7.071,2.644c0.04,0.015,0.078,0.032,0.116,0.052
	c0.865,0.457,2.217,1.705,1.797,3.486C54.544,49.313,48.453,50.472,44.986,50.472L44.986,50.472z"/>
<path opacity="0.15" d="M54.131,38.952l-7.126-2.664c-1.621-0.849-2.577,0.278-2.577,0.278l-3.584,2.98
	c0.258-0.3-2.97,3.37-12.338-5.716l-0.003,0.001l-0.454-0.451v-0.003c-9.082-9.369-5.413-12.597-5.718-12.338l3.1-3.47
	c0,0,1.129-0.954,0.282-2.574l-2.668-7.135c0,0-0.867-1.639-2.371-1.283c-10.715,2.556-7.778,13.775-7.778,13.775
	c1.343,7.155,6.421,13.201,8.995,15.888l-0.016,0.011l3.049,3.049l0.008-0.006c2.045,2.094,8.681,8.303,16.716,9.809
	c0,0,11.217,2.938,13.772-7.779C55.775,39.82,54.131,38.952,54.131,38.952z"/>
<linearGradient id="SVGID_1_" gradientUnits="userSpaceOnUse" x1="33.999" y1="6.5278" x2="33.999" y2="49.4722">
	<stop  offset="0.0307" style="stop-color:#FFFFFF"/>
	<stop  offset="0.4969" style="stop-color:#FAFCEF"/>
	<stop  offset="1" style="stop-color:#D0CBC5"/>
</linearGradient>
<path fill="url(#SVGID_1_)" d="M54.131,38.952l-7.126-2.664c-1.621-0.849-2.577,0.278-2.577,0.278l-3.584,2.98
	c0.258-0.3-2.97,3.37-12.338-5.716l-0.003,0.001l-0.454-0.451v-0.003c-9.082-9.369-5.413-12.597-5.718-12.338l3.1-3.47
	c0,0,1.129-0.954,0.282-2.574l-2.668-7.135c0,0-0.867-1.639-2.371-1.283c-10.715,2.556-7.778,13.775-7.778,13.775
	c1.343,7.155,6.421,13.201,8.995,15.888l-0.016,0.011l3.049,3.049l0.008-0.006c2.045,2.094,8.681,8.303,16.716,9.809
	c0,0,11.217,2.938,13.772-7.779C55.775,39.82,54.131,38.952,54.131,38.952z"/>
<path fill="#FFFFFF" d="M23.045,8.861l2.668,7.135c0.124,0.236,0.195,0.453,0.245,0.66c0.112-0.424,0.111-0.979-0.245-1.66
	l-2.668-7.135c0,0-0.867-1.639-2.371-1.283c-7.264,1.732-8.252,7.444-8.136,10.945c0.115-3.502,1.53-8.37,8.136-9.945
	C22.178,7.223,23.045,8.861,23.045,8.861z M54.131,38.952l-7.126-2.664c-1.621-0.849-2.577,0.278-2.577,0.278l-3.584,2.98
	c0.258-0.3-2.97,3.37-12.338-5.716l-0.003,0.001l-0.454-0.451v-0.003c-4.711-4.86-5.988-8.064-6.172-9.99
	c-0.191,1.715,0.525,5.165,6.172,10.99v0.003l0.454,0.451l0.003-0.001c9.368,9.086,12.596,5.416,12.338,5.716l3.584-2.98
	c0,0,0.956-1.127,2.577-0.278l7.126,2.664c0,0,0.988,0.533,1.261,1.478c0.009-0.036,0.021-0.068,0.029-0.105
	C55.775,39.82,54.131,38.952,54.131,38.952z"/>
<rect fill="none" width="67" height="57"/>
</svg>
