<?xml version="1.0" encoding="utf-8"?>
<!-- Generator: Adobe Illustrator 14.0.0, SVG Export Plug-In  -->
<!DOCTYPE svg PUBLIC "-//W3C//DTD SVG 1.1//EN" "http://www.w3.org/Graphics/SVG/1.1/DTD/svg11.dtd" [
	<!ENTITY ns_flows "http://ns.adobe.com/Flows/1.0/">
]>
<svg version="1.1"
	 xmlns="http://www.w3.org/2000/svg" xmlns:xlink="http://www.w3.org/1999/xlink" xmlns:a="http://ns.adobe.com/AdobeSVGViewerExtensions/3.0/"
	 x="0px" y="0px" width="67px" height="57px" viewBox="0 0 67 57" enable-background="new 0 0 67 57" xml:space="preserve">
<defs>
</defs>
<rect fill="none" width="67" height="57"/>
<path opacity="0.15" d="M22,54c-0.334,0-0.646-0.167-0.832-0.445l-12-18c-0.204-0.307-0.224-0.701-0.05-1.026S9.631,34,10,34h6V23
	c0-1.654,1.346-3,3-3h6c1.654,0,3,1.346,3,3v11h6c0.369,0,0.708,0.203,0.882,0.528s0.154,0.72-0.05,1.026l-12,18
	C22.646,53.833,22.334,54,22,54L22,54z M41,38c-1.654,0-3-1.346-3-3V24h-6c-0.369,0-0.708-0.203-0.882-0.528s-0.154-0.72,0.05-1.026
	l12-18C43.354,4.167,43.666,4,44,4s0.646,0.167,0.832,0.445l12,18c0.204,0.307,0.224,0.701,0.05,1.026S56.369,24,56,24h-6v11
	c0,1.654-1.346,3-3,3H41z"/>
<path opacity="0.3" d="M44,6L32,24h7v12c0,1.1,0.9,2,2,2h6c1.1,0,2-0.9,2-2V24h7L44,6z M27,24c0-1.1-0.9-2-2-2h-6c-1.1,0-2,0.9-2,2
	v12h-7l12,18l12-18h-7V24z"/>
<linearGradient id="SVGID_1_" gradientUnits="userSpaceOnUse" x1="33.0005" y1="53" x2="33.0005" y2="5.0005">
	<stop  offset="0" style="stop-color:#D0CBC5"/>
	<stop  offset="0.5031" style="stop-color:#FAFCEF"/>
	<stop  offset="0.9693" style="stop-color:#FFFFFF"/>
</linearGradient>
<path fill="url(#SVGID_1_)" d="M44,5L32,23h7v12c0,1.1,0.9,2,2,2h6c1.1,0,2-0.9,2-2V23h7L44,5z M27,23c0-1.1-0.9-2-2-2h-6
	c-1.1,0-2,0.9-2,2v12h-7l12,18l12-18h-7V23z"/>
<path fill="#FFFFFF" d="M10.667,36H17v-1h-7L10.667,36z M27,23c0-1.1-0.9-2-2-2h-6c-1.1,0-2,0.9-2,2v1c0-1.1,0.9-2,2-2h6
	c1.1,0,2,0.9,2,2V23z M27,36h6.333L34,35h-7V36z M44,5L32,23h0.667L44,6l11.333,17H56L44,5z"/>
</svg>
