<?xml version="1.0" encoding="utf-8"?>
<!-- Generator: Adobe Illustrator 15.0.0, SVG Export Plug-In . SVG Version: 6.00 Build 0)  -->
<!DOCTYPE svg PUBLIC "-//W3C//DTD SVG 1.1//EN" "http://www.w3.org/Graphics/SVG/1.1/DTD/svg11.dtd">
<svg version="1.1" id="Ebene_1" xmlns="http://www.w3.org/2000/svg" xmlns:xlink="http://www.w3.org/1999/xlink" x="0px" y="0px"
	 width="67px" height="57px" viewBox="0 0 67 57" enable-background="new 0 0 67 57" xml:space="preserve">
<rect fill="none" width="67" height="57"/>
<rect x="10.5" y="5.5" fill="none" width="46" height="46"/>
<path opacity="0.15" enable-background="new    " d="M12.859,46.691c-1.853,0-3.359-1.506-3.359-3.357V15.025
	c0-1.852,1.507-3.358,3.359-3.358h0.332c0.426-1.366,1.702-2.359,3.206-2.359h3.538c1.504,0,2.781,0.993,3.207,2.359h30.999
	c1.853,0,3.358,1.507,3.358,3.358v28.309c0,1.852-1.507,3.357-3.358,3.357H12.859z M33.5,19.564
	c-5.627,0-10.205,4.578-10.205,10.206c0,5.627,4.578,10.205,10.205,10.205s10.205-4.578,10.205-10.205
	C43.705,24.143,39.127,19.564,33.5,19.564L33.5,19.564z M17.577,16.025c-0.749,0-1.358,0.609-1.358,1.359s0.609,1.359,1.358,1.359
	s1.358-0.609,1.358-1.359S18.326,16.025,17.577,16.025L17.577,16.025z M52.018,17.564V16.42h-5.133v1.145L52.018,17.564
	L52.018,17.564z M33.5,39.615c-5.429,0-9.846-4.418-9.846-9.846c0-5.431,4.417-9.848,9.846-9.848c5.43,0,9.846,4.417,9.846,9.848
	C43.346,35.197,38.93,39.615,33.5,39.615L33.5,39.615z M33.5,24.282c-3.025,0-5.486,2.462-5.486,5.488
	c0,3.024,2.461,5.486,5.486,5.486c3.025,0,5.486-2.462,5.486-5.486C38.986,26.744,36.525,24.282,33.5,24.282L33.5,24.282z"/>
<path opacity="0.3" enable-background="new    " d="M33.5,21.923c-4.887,0-8.846,3.959-8.846,8.847c0,4.885,3.959,8.847,8.846,8.847
	c4.887,0,8.846-3.962,8.846-8.847C42.346,25.882,38.387,21.923,33.5,21.923z M33.5,37.257c-3.578,0-6.486-2.909-6.486-6.487
	c0-3.578,2.908-6.486,6.486-6.486s6.486,2.909,6.486,6.486C39.986,34.348,37.078,37.257,33.5,37.257z M54.141,13.667H22.295
	c0-1.303-1.057-2.359-2.359-2.359h-3.538c-1.303,0-2.358,1.057-2.358,2.359h-1.18c-1.303,0-2.359,1.056-2.359,2.358v28.309
	c0,1.303,1.057,2.357,2.359,2.357h41.281c1.303,0,2.359-1.055,2.359-2.357V16.025C56.5,14.723,55.443,13.667,54.141,13.667z
	 M17.577,20.744c-1.304,0-2.358-1.057-2.358-2.359c0-1.302,1.055-2.359,2.358-2.359c1.303,0,2.358,1.058,2.358,2.359
	C19.936,19.688,18.881,20.744,17.577,20.744z M33.5,41.975c-6.189,0-11.205-5.017-11.205-11.205S27.311,19.565,33.5,19.565
	c6.189,0,11.205,5.015,11.205,11.205C44.705,36.958,39.689,41.975,33.5,41.975z M53.018,19.564h-7.133V16.42h7.133V19.564z"/>
<linearGradient id="SVGID_1_" gradientUnits="userSpaceOnUse" x1="170.9805" y1="-248.7109" x2="170.9805" y2="-213.3276" gradientTransform="matrix(1 0 0 -1 -137.48 -203.0195)">
	<stop  offset="0" style="stop-color:#D0CBC5"/>
	<stop  offset="0.5031" style="stop-color:#FAFCEF"/>
	<stop  offset="0.9693" style="stop-color:#FFFFFF"/>
</linearGradient>
<path fill="url(#SVGID_1_)" d="M33.5,20.923c-4.887,0-8.846,3.959-8.846,8.847c0,4.885,3.959,8.847,8.846,8.847
	c4.887,0,8.846-3.962,8.846-8.847C42.346,24.882,38.387,20.923,33.5,20.923z M33.5,36.257c-3.578,0-6.486-2.909-6.486-6.487
	c0-3.578,2.908-6.486,6.486-6.486s6.486,2.909,6.486,6.486C39.986,33.348,37.078,36.257,33.5,36.257z M54.141,12.667H22.295
	c0-1.303-1.057-2.359-2.359-2.359h-3.538c-1.303,0-2.358,1.057-2.358,2.359h-1.18c-1.303,0-2.359,1.056-2.359,2.358v28.309
	c0,1.303,1.057,2.357,2.359,2.357h41.281c1.303,0,2.359-1.055,2.359-2.357V15.025C56.5,13.723,55.443,12.667,54.141,12.667z
	 M17.577,19.744c-1.304,0-2.358-1.057-2.358-2.359c0-1.302,1.055-2.359,2.358-2.359c1.303,0,2.358,1.058,2.358,2.359
	C19.936,18.688,18.881,19.744,17.577,19.744z M33.5,40.975c-6.189,0-11.205-5.017-11.205-11.205S27.311,18.565,33.5,18.565
	c6.189,0,11.205,5.015,11.205,11.205C44.705,35.958,39.689,40.975,33.5,40.975z M53.018,18.564h-7.133V15.42h7.133V18.564z"/>
<path fill="#FFFFFF" d="M33.5,40.975c-6.021,0-10.916-4.75-11.18-10.705c-0.008,0.168-0.025,0.332-0.025,0.5
	c0,6.188,5.016,11.205,11.205,11.205c6.189,0,11.205-5.017,11.205-11.205c0-0.168-0.018-0.332-0.025-0.5
	C44.416,36.225,39.521,40.975,33.5,40.975z M17.577,19.744c-1.132,0-2.073-0.797-2.303-1.859c-0.035,0.162-0.056,0.328-0.056,0.5
	c0,1.303,1.055,2.359,2.358,2.359c1.303,0,2.358-1.057,2.358-2.359c0-0.172-0.021-0.338-0.056-0.5
	C19.65,18.947,18.709,19.744,17.577,19.744z M42.346,29.77c0-4.888-3.959-8.847-8.846-8.847c-4.887,0-8.846,3.959-8.846,8.847
	c0,0.17,0.016,0.334,0.025,0.5c0.26-4.652,4.103-8.347,8.82-8.347s8.562,3.693,8.819,8.347C42.33,30.104,42.346,29.938,42.346,29.77
	z M33.5,36.257c-3.409,0-6.204-2.644-6.461-5.987c-0.013,0.166-0.025,0.332-0.025,0.5c0,3.578,2.908,6.487,6.486,6.487
	s6.486-2.909,6.486-6.487c0-0.168-0.012-0.334-0.024-0.5C39.705,33.613,36.909,36.257,33.5,36.257z M54.141,12.667H22.295
	c0-1.303-1.057-2.359-2.359-2.359h-3.538c-1.303,0-2.358,1.057-2.358,2.359h-1.18c-1.303,0-2.359,1.056-2.359,2.358v1
	c0-1.303,1.057-2.358,2.359-2.358h1.18c0-1.303,1.056-2.359,2.358-2.359h3.538c1.303,0,2.359,1.057,2.359,2.359h31.846
	c1.303,0,2.359,1.056,2.359,2.358v-1C56.5,13.723,55.443,12.667,54.141,12.667z M45.885,19.564h7.133v-1h-7.133V19.564z"/>
</svg>
