<?xml version="1.0" encoding="utf-8"?>
<!-- Generator: Adobe Illustrator 15.0.2, SVG Export Plug-In  -->
<!DOCTYPE svg PUBLIC "-//W3C//DTD SVG 1.1//EN" "http://www.w3.org/Graphics/SVG/1.1/DTD/svg11.dtd" [
	<!ENTITY ns_flows "http://ns.adobe.com/Flows/1.0/">
]>
<svg version="1.1"
	 xmlns="http://www.w3.org/2000/svg" xmlns:xlink="http://www.w3.org/1999/xlink" xmlns:a="http://ns.adobe.com/AdobeSVGViewerExtensions/3.0/"
	 x="0px" y="0px" width="67px" height="57px" viewBox="0 0 67 57" enable-background="new 0 0 67 57" xml:space="preserve">
<defs>
</defs>
<rect id="BOUNDING_BOX_1_" fill="none" width="67" height="57"/>
<path opacity="0.3" d="M33.5,6.5c-12.706,0-23,10.297-23,23c0,12.702,10.294,23,23,23c12.702,0,23-10.298,23-23
	C56.5,16.797,46.202,6.5,33.5,6.5z M47.654,19.194L35.539,31.306c0,0,0,0.005-0.004,0.007l-1.157,1.154
	c-0.636,0.636-1.676,0.636-2.312,0l-9.257-9.256c-0.636-0.636-0.636-1.678,0-2.313l1.158-1.158c0.636-0.636,1.676-0.636,2.312,0
	l7.523,7.521l10.961-10.959c0.636-0.636,1.68-0.636,2.315,0l0.577,0.577C48.29,17.516,48.29,18.558,47.654,19.194z"/>
<path opacity="0.15" d="M33.5,52.5c-13.233,0-24-10.767-24-24s10.767-24,24-24s24,10.767,24,24S46.733,52.5,33.5,52.5z
	 M25.122,19.263c-0.171,0-0.33,0.065-0.449,0.184l-1.158,1.158c-0.244,0.244-0.244,0.656,0,0.899l9.257,9.256
	c0.119,0.118,0.278,0.184,0.449,0.184s0.331-0.065,0.449-0.184l13.276-13.273c0.244-0.244,0.243-0.657-0.001-0.901l-0.576-0.577
	c-0.119-0.119-0.278-0.184-0.45-0.184c-0.173,0-0.332,0.065-0.451,0.184L34.508,26.968c-0.195,0.195-0.451,0.293-0.707,0.293
	s-0.512-0.098-0.707-0.293l-7.523-7.521C25.452,19.328,25.293,19.263,25.122,19.263z"/>
<path opacity="0.15" d="M33.5,5.5c-12.706,0-23,10.297-23,23c0,12.702,10.294,23,23,23c12.702,0,23-10.298,23-23
	C56.5,15.797,46.202,5.5,33.5,5.5z M47.654,18.194L35.539,30.306c0,0,0,0.005-0.004,0.007l-1.157,1.154
	c-0.636,0.636-1.676,0.636-2.312,0l-9.257-9.256c-0.636-0.636-0.636-1.678,0-2.313l1.158-1.158c0.636-0.636,1.676-0.636,2.312,0
	l7.523,7.521l10.961-10.959c0.636-0.636,1.68-0.636,2.315,0l0.577,0.577C48.29,16.516,48.29,17.558,47.654,18.194z"/>
<linearGradient id="SVGID_1_" gradientUnits="userSpaceOnUse" x1="33.5005" y1="51.5" x2="33.5005" y2="5.5005">
	<stop  offset="0" style="stop-color:#D0CBC5"/>
	<stop  offset="0.5031" style="stop-color:#FAFCEF"/>
	<stop  offset="0.9693" style="stop-color:#FFFFFF"/>
</linearGradient>
<path fill="url(#SVGID_1_)" d="M33.5,5.5c-12.706,0-23,10.297-23,23c0,12.702,10.294,23,23,23c12.702,0,23-10.298,23-23
	C56.5,15.797,46.202,5.5,33.5,5.5z M47.654,18.194L35.539,30.306c0,0,0,0.005-0.004,0.007l-1.157,1.154
	c-0.636,0.636-1.676,0.636-2.312,0l-9.257-9.256c-0.636-0.636-0.636-1.678,0-2.313l1.158-1.158c0.636-0.636,1.676-0.636,2.312,0
	l7.523,7.521l10.961-10.959c0.636-0.636,1.68-0.636,2.315,0l0.577,0.577C48.29,16.516,48.29,17.558,47.654,18.194z"/>
<path fill="#FFFFFF" d="M33.5,5.5c-12.706,0-23,10.297-23,23c0,0.167,0.009,0.333,0.013,0.5C10.779,16.529,20.962,6.5,33.5,6.5
	c12.534,0,22.721,10.029,22.987,22.5c0.004-0.167,0.013-0.333,0.013-0.5C56.5,15.797,46.202,5.5,33.5,5.5z M47.654,18.194
	L35.539,30.306c0,0,0,0.005-0.004,0.007l-1.157,1.154c-0.636,0.636-1.676,0.636-2.312,0l-9.257-9.256
	c-0.189-0.189-0.315-0.417-0.392-0.657c-0.18,0.565-0.054,1.21,0.392,1.657l9.257,9.256c0.636,0.636,1.676,0.636,2.312,0
	l1.157-1.154c0.004-0.002,0.004-0.007,0.004-0.007l12.115-12.112c0.446-0.446,0.572-1.091,0.392-1.657
	C47.97,17.777,47.844,18.004,47.654,18.194z"/>
</svg>
