<?xml version="1.0" encoding="utf-8"?>
<!-- Generator: Adobe Illustrator 15.0.2, SVG Export Plug-In  -->
<!DOCTYPE svg PUBLIC "-//W3C//DTD SVG 1.1//EN" "http://www.w3.org/Graphics/SVG/1.1/DTD/svg11.dtd" [
	<!ENTITY ns_flows "http://ns.adobe.com/Flows/1.0/">
]>
<svg version="1.1"
	 xmlns="http://www.w3.org/2000/svg" xmlns:xlink="http://www.w3.org/1999/xlink" xmlns:a="http://ns.adobe.com/AdobeSVGViewerExtensions/3.0/"
	 x="0px" y="0px" width="67px" height="57px" viewBox="0 0 67 57" enable-background="new 0 0 67 57" xml:space="preserve">
<defs>
</defs>
<rect id="BOUNDING_BOX_1_" fill="none" width="67" height="57"/>
<path opacity="0.3" d="M40.504,29.5l15.415-15.413c0.774-0.773,0.774-2.031,0-2.802l-4.204-4.204c-0.774-0.775-2.028-0.775-2.8,0
	L33.5,22.493L18.089,7.081c-0.775-0.775-2.029-0.775-2.804,0l-4.204,4.204c-0.775,0.771-0.775,2.029,0,2.802L26.496,29.5
	L11.081,44.911c-0.775,0.775-0.775,2.029,0,2.804l4.204,4.204c0.774,0.774,2.029,0.774,2.804,0L33.5,36.504l15.415,15.415
	c0.771,0.774,2.025,0.774,2.8,0l4.204-4.204c0.774-0.774,0.774-2.028,0-2.804L40.504,29.5z"/>
<path opacity="0.15" d="M50.313,52.5c-0.796,0-1.545-0.311-2.106-0.875L33.5,36.918L18.796,51.626
	c-0.564,0.563-1.313,0.874-2.109,0.874c-0.797,0-1.545-0.311-2.109-0.874l-4.204-4.204C9.811,46.858,9.5,46.109,9.5,45.313
	s0.31-1.545,0.874-2.109L25.082,28.5L10.374,13.794C9.81,13.231,9.5,12.482,9.5,11.684c0-0.797,0.312-1.546,0.875-2.107l4.203-4.202
	C15.141,4.811,15.89,4.5,16.687,4.5c0.796,0,1.545,0.31,2.109,0.874L33.5,20.079L48.208,5.374C48.769,4.811,49.517,4.5,50.313,4.5
	s1.545,0.311,2.108,0.874l4.204,4.204c0.563,0.56,0.873,1.308,0.874,2.105c0,0.798-0.311,1.548-0.875,2.111L41.918,28.5
	l14.708,14.704c1.162,1.164,1.162,3.056,0,4.218l-4.204,4.204C51.858,52.189,51.109,52.5,50.313,52.5z"/>
<path opacity="0.15" d="M40.504,28.5l15.415-15.413c0.774-0.773,0.774-2.031,0-2.802l-4.204-4.204c-0.774-0.775-2.028-0.775-2.8,0
	L33.5,21.493L18.089,6.081c-0.775-0.775-2.029-0.775-2.804,0l-4.204,4.204c-0.775,0.771-0.775,2.029,0,2.802L26.496,28.5
	L11.081,43.911c-0.775,0.775-0.775,2.029,0,2.804l4.204,4.204c0.774,0.774,2.029,0.774,2.804,0L33.5,35.504l15.415,15.415
	c0.771,0.774,2.025,0.774,2.8,0l4.204-4.204c0.774-0.774,0.774-2.028,0-2.804L40.504,28.5z"/>
<linearGradient id="SVGID_1_" gradientUnits="userSpaceOnUse" x1="33.5005" y1="51.5" x2="33.5005" y2="5.5005">
	<stop  offset="0" style="stop-color:#D0CBC5"/>
	<stop  offset="0.5031" style="stop-color:#FAFCEF"/>
	<stop  offset="0.9693" style="stop-color:#FFFFFF"/>
</linearGradient>
<path fill="url(#SVGID_1_)" d="M40.504,28.5l15.415-15.413c0.774-0.773,0.774-2.031,0-2.802l-4.204-4.204
	c-0.774-0.775-2.028-0.775-2.8,0L33.5,21.493L18.089,6.081c-0.775-0.775-2.029-0.775-2.804,0l-4.204,4.204
	c-0.775,0.771-0.775,2.029,0,2.802L26.496,28.5L11.081,43.911c-0.775,0.775-0.775,2.029,0,2.804l4.204,4.204
	c0.774,0.774,2.029,0.774,2.804,0L33.5,35.504l15.415,15.415c0.771,0.774,2.025,0.774,2.8,0l4.204-4.204
	c0.774-0.774,0.774-2.028,0-2.804L40.504,28.5z"/>
<path fill="#FFFFFF" d="M11.081,11.285l4.204-4.204c0.774-0.775,2.029-0.775,2.804,0L33.5,22.493L48.915,7.081
	c0.771-0.775,2.025-0.775,2.8,0l4.204,4.204c0.259,0.257,0.423,0.571,0.509,0.9c0.172-0.659,0.007-1.387-0.509-1.9l-4.204-4.204
	c-0.774-0.775-2.028-0.775-2.8,0L33.5,21.493L18.089,6.081c-0.775-0.775-2.029-0.775-2.804,0l-4.204,4.204
	c-0.516,0.514-0.681,1.242-0.509,1.9C10.658,11.856,10.822,11.542,11.081,11.285z"/>
<path fill="#FFFFFF" d="M11.081,44.911L26.496,29.5l-0.5-0.5L11.081,43.911c-0.517,0.517-0.681,1.244-0.509,1.902
	C10.658,45.483,10.822,45.17,11.081,44.911z"/>
<path fill="#FFFFFF" d="M41.004,29l-0.5,0.5l15.415,15.411c0.259,0.259,0.423,0.572,0.509,0.902
	c0.172-0.658,0.007-1.386-0.509-1.902L41.004,29z"/>
</svg>
