<?xml version="1.0" encoding="utf-8"?>
<!-- Generator: Adobe Illustrator 14.0.0, SVG Export Plug-In  -->
<!DOCTYPE svg PUBLIC "-//W3C//DTD SVG 1.1//EN" "http://www.w3.org/Graphics/SVG/1.1/DTD/svg11.dtd" [
	<!ENTITY ns_flows "http://ns.adobe.com/Flows/1.0/">
]>
<svg version="1.1"
	 xmlns="http://www.w3.org/2000/svg" xmlns:xlink="http://www.w3.org/1999/xlink" xmlns:a="http://ns.adobe.com/AdobeSVGViewerExtensions/3.0/"
	 x="0px" y="0px" width="70px" height="70px" viewBox="0 0 70 70" enable-background="new 0 0 70 70" xml:space="preserve">
<defs>
</defs>
<rect fill="none" width="70" height="70"/>
<path opacity="0.15" d="M36.402,60.291c-0.641,0-1.231-0.011-1.774-0.023c-0.497,0.013-1.087,0.023-1.728,0.023
	c-2.549,0-6.574-0.162-12.071-1.574c-2.625-0.678-4.953-1.591-6.917-2.714c-0.376-0.215-0.571-0.647-0.483-1.071l0.056-0.271
	c0.565-2.262,2.935-3.505,3.203-3.64c3.283-1.919,6.538-3.183,6.674-3.236c1.923-0.768,3.189-2.176,3.651-4.067
	c0.309-1.203,0.361-1.704,0.341-1.916c-1.706-1.563-2.587-4.528-2.902-5.809c-1.055-0.272-1.372-1.769-1.655-3.103
	c-0.075-0.355-0.143-0.685-0.216-0.916c-0.526-1.655-0.554-2.388-0.508-2.729c-0.009-0.626,0.153-1.119,0.482-1.464
	c0.061-0.064,0.127-0.123,0.198-0.174c-0.466-1.445-0.61-2.454-0.568-3.69c0.021-0.596-0.015-1.133-0.05-1.653
	c-0.125-1.857-0.244-3.611,1.982-7.165c0.05-0.087,0.649-1.054,1.948-1.191c0.042-0.165,0.105-0.364,0.221-0.578l0.05-0.096
	c0.277-0.533,0.793-1.525,2.488-1.525c0.194,0,0.41,0.012,0.65,0.041c0.041,0.005,0.078,0.007,0.113,0.007
	c0.249,0,0.523-0.109,0.903-0.261c0.641-0.256,1.517-0.606,2.847-0.606c1.062,0,2.257,0.218,3.65,0.667l1.819,0.581
	c3.588,1.138,4.797,1.522,5.748,2.933c2.387,3.588,2.441,5.106,2.332,7.287c-0.019,0.377-0.039,0.78-0.041,1.231
	c0,1.068-0.189,1.955-0.373,2.813c-0.08,0.372-0.161,0.75-0.229,1.153c0.172,0.084,0.326,0.201,0.457,0.347
	c0.35,0.395,0.484,0.954,0.4,1.662c-0.023,0.125-0.221,1.059-0.661,2.491c-0.067,0.217-0.137,0.471-0.21,0.741
	c-0.409,1.503-0.831,3.055-1.996,3.22c-0.318,1.283-1.199,4.207-2.902,5.787c-0.019,0.192,0.018,0.666,0.316,1.834
	c0.098,0.334,1.03,2.473,2.742,3.645c0.322,0.195,0.663,0.365,1.029,0.508c0.135,0.052,3.383,1.315,6.726,3.264
	c0.213,0.105,2.58,1.35,3.134,3.572l0.107,0.537c0.085,0.426-0.116,0.857-0.496,1.068c-1.88,1.039-3.976,1.854-6.406,2.488
	C42.979,60.129,38.952,60.291,36.402,60.291L36.402,60.291z"/>
<path opacity="0.3" d="M48.233,58.748c-6.304,1.617-10.644,1.588-13.583,1.52c-2.938,0.068-7.276,0.098-13.572-1.52
	c-2.58-0.666-4.79-1.539-6.67-2.613l0.056-0.271c0.461-1.841,2.672-2.949,2.672-2.949c3.308-1.931,6.586-3.196,6.586-3.196
	c3.593-1.434,4.167-4.402,4.28-4.836c0.293-1.139,0.548-2.336,0.137-2.721c-2.034-1.762-2.841-5.964-2.841-5.964
	c-0.04-0.12-0.083-0.235-0.113-0.349c-1.035,0.969-1.304-2.082-1.651-3.178c-0.605-1.903-0.458-2.343-0.458-2.343
	c-0.072-1.43,0.98-0.933,0.98-0.933l0.072,0.106c-0.752-2.006-0.994-3.091-0.944-4.552c0.098-2.743-0.907-4.032,1.78-8.322
	c0,0,0.4-0.688,1.306-0.735c0.896-0.034,0.579-0.501,0.896-1.091c0.313-0.588,0.545-1.253,2.192-1.061
	c1.65,0.199,2.351-1.836,7.323-0.234c4.972,1.603,6.169,1.822,7.044,3.121c2.801,4.208,2.132,5.208,2.121,7.955
	c0,1.776-0.577,2.982-0.732,4.954l0.085-0.086c0,0,1.079-0.421,0.909,0.992c0,0-0.19,0.911-0.623,2.315
	c-0.413,1.318-0.926,4.2-1.928,2.97c-0.049,0.156-0.107,0.306-0.162,0.47c0,0-0.811,4.202-2.848,5.964
	c-0.41,0.385-0.159,1.582,0.133,2.721c0.099,0.376,1.123,2.837,3.146,4.222c0.367,0.224,0.768,0.435,1.231,0.614
	c0,0,3.272,1.266,6.584,3.196c0,0,2.209,1.108,2.668,2.949l0.097,0.489C52.648,57.326,50.616,58.127,48.233,58.748z"/>
<linearGradient id="SVGID_1_" gradientUnits="userSpaceOnUse" x1="34.4087" y1="59.291" x2="34.4087" y2="11.8892">
	<stop  offset="0" style="stop-color:#D0CBC5"/>
	<stop  offset="0.5031" style="stop-color:#FAFCEF"/>
	<stop  offset="0.9693" style="stop-color:#FFFFFF"/>
</linearGradient>
<path fill="url(#SVGID_1_)" d="M48.233,57.748c-6.304,1.617-10.644,1.588-13.583,1.52c-2.938,0.068-7.276,0.098-13.572-1.52
	c-2.58-0.666-4.79-1.539-6.67-2.613l0.056-0.271c0.461-1.841,2.672-2.949,2.672-2.949c3.308-1.931,6.586-3.196,6.586-3.196
	c3.593-1.434,4.167-4.402,4.28-4.836c0.293-1.139,0.548-2.336,0.137-2.721c-2.034-1.762-2.841-5.964-2.841-5.964
	c-0.04-0.12-0.083-0.235-0.113-0.349c-1.035,0.969-1.304-2.082-1.651-3.178c-0.605-1.903-0.458-2.343-0.458-2.343
	c-0.072-1.43,0.98-0.933,0.98-0.933l0.072,0.106c-0.752-2.006-0.994-3.091-0.944-4.552c0.098-2.743-0.907-4.032,1.78-8.322
	c0,0,0.4-0.688,1.306-0.735c0.896-0.034,0.579-0.501,0.896-1.091c0.313-0.588,0.545-1.253,2.192-1.061
	c1.65,0.199,2.351-1.836,7.323-0.234c4.972,1.603,6.169,1.822,7.044,3.121c2.801,4.208,2.132,5.208,2.121,7.955
	c0,1.776-0.577,2.982-0.732,4.954l0.085-0.086c0,0,1.079-0.421,0.909,0.992c0,0-0.19,0.911-0.623,2.315
	c-0.413,1.318-0.926,4.2-1.928,2.97c-0.049,0.156-0.107,0.306-0.162,0.47c0,0-0.811,4.202-2.848,5.964
	c-0.41,0.385-0.159,1.582,0.133,2.721c0.099,0.376,1.123,2.837,3.146,4.222c0.367,0.224,0.768,0.435,1.231,0.614
	c0,0,3.272,1.266,6.584,3.196c0,0,2.209,1.108,2.668,2.949l0.097,0.489C52.648,56.326,50.616,57.127,48.233,57.748z"/>
<path fill="#FFFFFF" d="M24.057,29.396l0.072,0.106c-0.164-0.437-0.299-0.824-0.417-1.188c-0.3-0.015-0.68,0.135-0.636,1.014
	c0,0-0.041,0.144,0.02,0.579C23.238,29.014,24.057,29.396,24.057,29.396z M45.256,28.434c-0.059,0.346-0.109,0.707-0.141,1.104
	l0.085-0.086c0,0,0.623-0.239,0.847,0.27c0.041-0.174,0.063-0.277,0.063-0.277C46.256,28.22,45.47,28.371,45.256,28.434z
	 M54.312,54.864c-0.459-1.841-2.668-2.949-2.668-2.949c-3.312-1.931-6.584-3.196-6.584-3.196c-0.464-0.18-0.864-0.391-1.231-0.614
	c-2.023-1.385-3.048-3.846-3.146-4.222c-0.123-0.479-0.234-0.963-0.297-1.397c-0.139,0.539,0.063,1.483,0.297,2.397
	c0.099,0.376,1.123,2.837,3.146,4.222c0.367,0.224,0.768,0.435,1.231,0.614c0,0,3.272,1.266,6.584,3.196
	c0,0,1.878,0.959,2.522,2.562c0.078-0.042,0.164-0.08,0.242-0.123L54.312,54.864z M28.003,43.883
	c-0.113,0.434-0.688,3.402-4.28,4.836c0,0-3.278,1.266-6.586,3.196c0,0-2.211,1.108-2.672,2.949l-0.056,0.271
	c0.088,0.051,0.187,0.095,0.277,0.145c0.713-1.486,2.451-2.364,2.451-2.364c3.308-1.931,6.586-3.196,6.586-3.196
	c3.593-1.434,4.167-4.402,4.28-4.836c0.236-0.916,0.441-1.864,0.3-2.402C28.24,42.916,28.126,43.403,28.003,43.883z M43.727,16.629
	c1.695,2.547,2.117,3.918,2.186,5.214c0.067-1.668-0.057-3.015-2.186-6.214c-0.875-1.299-2.072-1.519-7.044-3.121
	c-4.973-1.602-5.673,0.434-7.323,0.234c-1.646-0.192-1.879,0.473-2.192,1.061c-0.317,0.59,0,1.057-0.896,1.091
	c-0.906,0.047-1.306,0.735-1.306,0.735c-1.8,2.874-1.942,4.4-1.87,5.92c0.069-1.243,0.458-2.667,1.87-4.92
	c0,0,0.4-0.688,1.306-0.735c0.896-0.034,0.579-0.501,0.896-1.091c0.313-0.588,0.545-1.253,2.192-1.061
	c1.65,0.199,2.351-1.836,7.323-0.234C41.654,15.11,42.852,15.33,43.727,16.629z"/>
</svg>
