<?xml version="1.0" encoding="utf-8"?>
<!-- Generator: Adobe Illustrator 14.0.0, SVG Export Plug-In  -->
<!DOCTYPE svg PUBLIC "-//W3C//DTD SVG 1.1//EN" "http://www.w3.org/Graphics/SVG/1.1/DTD/svg11.dtd" [
	<!ENTITY ns_flows "http://ns.adobe.com/Flows/1.0/">
]>
<svg version="1.1"
	 xmlns="http://www.w3.org/2000/svg" xmlns:xlink="http://www.w3.org/1999/xlink" xmlns:a="http://ns.adobe.com/AdobeSVGViewerExtensions/3.0/"
	 x="0px" y="0px" width="67px" height="57px" viewBox="0 0 67 57" enable-background="new 0 0 67 57" xml:space="preserve">
<defs>
</defs>
<rect fill="none" width="67" height="57"/>
<path opacity="0.15" d="M32.367,30.773C32.551,30.925,32.775,31,33,31s0.449-0.075,0.633-0.227l22-18
	c0.327-0.268,0.451-0.712,0.309-1.11C55.8,11.266,55.423,11,55,11H11c-0.423,0-0.8,0.266-0.941,0.664
	c-0.143,0.398-0.019,0.843,0.309,1.11L32.367,30.773z M61.329,31.914l-4.243-4.242C56.634,27.22,56.172,27,55.672,27
	c-0.105,0-0.21,0.01-0.313,0.029C55.742,26.883,56,26.514,56,26.097V15c0-0.386-0.223-0.738-0.571-0.904
	C55.292,14.032,55.146,14,55,14c-0.227,0-0.451,0.077-0.633,0.226L33,31.708L11.633,14.226C11.451,14.077,11.227,14,11,14
	c-0.146,0-0.292,0.032-0.429,0.096C10.223,14.262,10,14.614,10,15v28c0,1.654,1.346,3,3,3h23.314c0.462,0,0.864-0.316,0.972-0.766
	c0,0,0.095-0.393,0.096-0.395l-1.773,7.346c-0.083,0.342,0.02,0.701,0.27,0.947c0.189,0.188,0.442,0.288,0.702,0.288
	c0.083,0,0.166-0.011,0.248-0.031l7.269-1.864c0.349-0.089,0.622-0.357,0.717-0.704s-0.004-0.718-0.258-0.972l-0.938-0.938
	l0.982,0.982c0.195,0.195,0.451,0.293,0.707,0.293c0.254,0,0.509-0.096,0.703-0.289l5.662-5.602
	c-0.282,0.285-0.366,0.712-0.214,1.084C51.613,45.756,51.979,46,52.384,46H53c1.654,0,3-1.346,3-3v-0.588
	c0-0.404-0.242-0.768-0.615-0.924c-0.124-0.051-0.255-0.076-0.385-0.076c-0.254,0-0.504,0.097-0.694,0.279l3.353-3.316
	c0.189-0.188,0.296-0.441,0.297-0.708c0.001-0.26-0.1-0.51-0.279-0.696c0.194,0.191,0.447,0.287,0.701,0.287
	s0.509-0.096,0.703-0.289l2.249-2.227C62.227,33.845,62.227,32.814,61.329,31.914z M38.356,44.064c-0.091,0-0.182,0.012-0.271,0.037
	c-0.108,0.031-0.209,0.078-0.298,0.141c0.241-0.299,0.622-0.726,1.224-1.324c-0.18,0.186-0.28,0.435-0.28,0.693
	c0,0.266,0.105,0.52,0.293,0.707l0.015,0.016C38.852,44.158,38.607,44.064,38.356,44.064z M51.317,31.025
	c-0.258,0-0.506,0.101-0.692,0.279l1.385-1.385c-0.179,0.186-0.278,0.434-0.278,0.691c0,0.261,0.102,0.51,0.282,0.697
	C51.827,31.127,51.577,31.025,51.317,31.025z"/>
<path opacity="0.3" d="M55,13H11l22,18L55,13z M38.317,43.197l15.233-15.232c0.448-0.449,0.936-0.732,1.449-0.868V16L33,34L11,16v28
	c0,1.104,0.896,2,2,2h23.314l0.098-0.404C36.58,44.901,38.054,43.461,38.317,43.197z M60.622,33.621l-4.243-4.242
	c-0.505-0.505-0.909-0.505-1.414,0l-2.233,2.232l5.646,5.646l2.245-2.222C61.127,34.531,61.126,34.127,60.622,33.621z
	 M39.731,44.611l5.576,5.576l11.647-11.523l-5.638-5.639L39.731,44.611z M36.58,53.421l7.269-1.864l-5.492-5.492L36.58,53.421z
	 M53,46c1.104,0,2-0.896,2-2v-0.588L52.384,46H53z"/>
<linearGradient id="SVGID_1_" gradientUnits="userSpaceOnUse" x1="36" y1="52.4209" x2="36" y2="12.0005">
	<stop  offset="0" style="stop-color:#D0CBC5"/>
	<stop  offset="0.5031" style="stop-color:#FAFCEF"/>
	<stop  offset="0.9693" style="stop-color:#FFFFFF"/>
</linearGradient>
<path fill="url(#SVGID_1_)" d="M55,12H11l22,18L55,12z M38.317,42.197l15.233-15.232c0.448-0.449,0.936-0.732,1.449-0.868V15L33,33
	L11,15v28c0,1.104,0.896,2,2,2h23.314l0.098-0.404C36.58,43.901,38.054,42.461,38.317,42.197z M60.622,32.621l-4.243-4.242
	c-0.505-0.505-0.909-0.505-1.414,0l-2.233,2.232l5.646,5.646l2.245-2.222C61.127,33.531,61.126,33.127,60.622,32.621z
	 M39.731,43.611l5.576,5.576l11.647-11.523l-5.638-5.639L39.731,43.611z M36.58,52.421l7.269-1.864l-5.492-5.492L36.58,52.421z
	 M53,45c1.104,0,2-0.896,2-2v-0.588L52.384,45H53z"/>
<path fill="#FFFFFF" d="M55,15L33,33L11,15v1l22,18l22-18V15z M53.777,13L55,12H11l1.223,1H53.777z M36.58,52.421l0.258-0.065
	l1.519-6.291l4.696,4.697l0.796-0.205l-5.492-5.492L36.58,52.421z M60.622,32.621l-4.243-4.242c-0.505-0.505-0.909-0.505-1.414,0
	l-2.233,2.232l0.5,0.5l1.733-1.732c0.505-0.505,0.909-0.505,1.414,0l4.243,4.242c0.072,0.072,0.11,0.139,0.162,0.208
	C61.094,33.417,61.055,33.055,60.622,32.621z M39.731,43.611l0.5,0.5l11.086-11.086l5.135,5.136l0.503-0.497l-5.638-5.639
	L39.731,43.611z"/>
</svg>
