<?xml version="1.0" encoding="utf-8"?>
<!-- Generator: Adobe Illustrator 15.0.2, SVG Export Plug-In . SVG Version: 6.00 Build 0)  -->
<!DOCTYPE svg PUBLIC "-//W3C//DTD SVG 1.1//EN" "http://www.w3.org/Graphics/SVG/1.1/DTD/svg11.dtd">
<svg version="1.1" xmlns="http://www.w3.org/2000/svg" xmlns:xlink="http://www.w3.org/1999/xlink" x="0px" y="0px" width="67px"
	 height="57px" viewBox="0 0 67 57" enable-background="new 0 0 67 57" xml:space="preserve">
<g id="DO_NOT_EDIT_-_BOUNDING_BOX">
	<rect id="BOUNDING_BOX" fill="none" width="67" height="57"/>
</g>
<g id="PLACE_YOUR_GRAPHIC_HERE">
	<path opacity="0.3" d="M55.5,37.714h-7.214V14.713h-6.572v0.001H25.282V7.5c0-0.55-0.45-1-1-1h-4.571c-0.55,0-1,0.45-1,1v7.214
		H11.5c-0.55,0-1,0.45-1,1v4.571c0,0.55,0.45,1,1,1h7.211v20.357c0,0.006,0.003,0.011,0.003,0.017v2.627h23V51.5c0,0.55,0.45,1,1,1
		h4.572c0.55,0,1-0.45,1-1v-7.214H55.5c0.55,0,1-0.45,1-1v-4.572C56.5,38.164,56.05,37.714,55.5,37.714z M41.714,37.714H25.282
		V21.286h16.432V37.714z"/>
	<path opacity="0.15" d="M42.714,52.5c-1.103,0-2-0.897-2-2v-6.214h-22c-0.552,0-1-0.447-1-1v-2.563
		c-0.002-0.026-0.003-0.054-0.003-0.08V21.286H11.5c-1.103,0-2-0.897-2-2v-4.571c0-1.103,0.897-2,2-2h6.211V6.5c0-1.103,0.897-2,2-2
		h4.571c1.103,0,2,0.897,2,2v6.214l22.004-0.001c0.265,0,0.52,0.105,0.707,0.293s0.293,0.442,0.293,0.707v22.001H55.5
		c1.103,0,2,0.897,2,2v4.572c0,1.103-0.897,2-2,2h-6.214V50.5c0,1.103-0.897,2-2,2H42.714z M40.714,35.714V21.286H26.282v14.428
		H40.714z"/>
	<path opacity="0.15" d="M55.5,36.714h-7.214V13.713h-6.572v0.001H25.282V6.5c0-0.55-0.45-1-1-1h-4.571c-0.55,0-1,0.45-1,1v7.214
		H11.5c-0.55,0-1,0.45-1,1v4.571c0,0.55,0.45,1,1,1h7.211v20.357c0,0.006,0.003,0.011,0.003,0.017v2.627h23V50.5c0,0.55,0.45,1,1,1
		h4.572c0.55,0,1-0.45,1-1v-7.214H55.5c0.55,0,1-0.45,1-1v-4.572C56.5,37.164,56.05,36.714,55.5,36.714z M41.714,36.714H25.282
		V20.286h16.432V36.714z"/>
	<linearGradient id="SVGID_1_" gradientUnits="userSpaceOnUse" x1="33.5005" y1="51.5" x2="33.5005" y2="5.5005">
		<stop  offset="0" style="stop-color:#D0CBC5"/>
		<stop  offset="0.5031" style="stop-color:#FAFCEF"/>
		<stop  offset="0.9693" style="stop-color:#FFFFFF"/>
	</linearGradient>
	<path fill="url(#SVGID_1_)" d="M55.5,36.714h-7.214V13.713h-6.572v0.001H25.282V6.5c0-0.55-0.45-1-1-1h-4.571c-0.55,0-1,0.45-1,1
		v7.214H11.5c-0.55,0-1,0.45-1,1v4.571c0,0.55,0.45,1,1,1h7.211v20.357c0,0.006,0.003,0.011,0.003,0.017v2.627h23V50.5
		c0,0.55,0.45,1,1,1h4.572c0.55,0,1-0.45,1-1v-7.214H55.5c0.55,0,1-0.45,1-1v-4.572C56.5,37.164,56.05,36.714,55.5,36.714z
		 M41.714,36.714H25.282V20.286h16.432V36.714z"/>
	<g>
		<rect x="25.282" y="36.714" fill="#FFFFFF" width="16.432" height="1"/>
		<path fill="#FFFFFF" d="M19.711,6.5h4.571c0.55,0,1,0.45,1,1v-1c0-0.55-0.45-1-1-1h-4.571c-0.55,0-1,0.45-1,1v1
			C18.711,6.95,19.161,6.5,19.711,6.5z"/>
		<polygon fill="#FFFFFF" points="25.282,14.714 41.714,14.714 41.714,14.713 48.286,14.713 48.286,13.713 41.714,13.713 
			41.714,13.714 25.282,13.714 		"/>
		<path fill="#FFFFFF" d="M11.5,14.714h7.211v-1H11.5c-0.55,0-1,0.45-1,1v1C10.5,15.165,10.95,14.714,11.5,14.714z"/>
		<path fill="#FFFFFF" d="M55.5,36.714h-7.214v1H55.5c0.55,0,1,0.45,1,1v-1C56.5,37.164,56.05,36.714,55.5,36.714z"/>
	</g>
</g>
<g id="DO_NOT_EDIT_-_FOCAL_ZONE_GUIDES">
</g>
</svg>
