<?xml version="1.0" encoding="utf-8"?>
<!-- Generator: Adobe Illustrator 15.0.2, SVG Export Plug-In . SVG Version: 6.00 Build 0)  -->
<!DOCTYPE svg PUBLIC "-//W3C//DTD SVG 1.1//EN" "http://www.w3.org/Graphics/SVG/1.1/DTD/svg11.dtd">
<svg version="1.1" xmlns="http://www.w3.org/2000/svg" xmlns:xlink="http://www.w3.org/1999/xlink" x="0px" y="0px" width="67px"
	 height="57px" viewBox="0 0 67 57" enable-background="new 0 0 67 57" xml:space="preserve">
<g id="DO_NOT_EDIT_-_BOUNDING_BOX">
	<rect id="BOUNDING_BOX" fill="none" width="67" height="57"/>
</g>
<g id="PLACE_YOUR_GRAPHIC_HERE">
	<path opacity="0.3" d="M47.196,34.694c-1.83,0-3.517,0.661-4.885,1.755l-4.8-6.262l10.601-14.098
		C52.22,9.581,47.657,6.5,47.657,6.5L33.502,24.962L19.346,6.5c0,0-4.562,3.081-0.455,9.589l10.601,14.098l-4.803,6.262
		c-1.365-1.094-3.052-1.755-4.881-1.755c-4.543,0-8.222,3.988-8.222,8.905s3.679,8.9,8.222,8.9c4.533,0,8.215-3.983,8.215-8.9
		c0-0.25-0.016-0.498-0.036-0.741l5.515-7.331l5.511,7.331c-0.016,0.243-0.032,0.491-0.032,0.741c0,4.917,3.682,8.9,8.216,8.9
		c4.543,0,8.218-3.983,8.218-8.9S51.739,34.694,47.196,34.694z M23.844,44.429c-0.016,0.109-0.039,0.224-0.062,0.334
		c-0.026,0.13-0.065,0.257-0.101,0.384c-0.098,0.324-0.211,0.64-0.357,0.926c-0.718,1.42-2.019,2.382-3.516,2.382
		c-2.272,0-4.111-2.174-4.111-4.854c0-2.685,1.839-4.855,4.111-4.855c1.293,0,2.434,0.722,3.188,1.827
		c0.133,0.197,0.253,0.408,0.363,0.63c0.014,0.029,0.027,0.062,0.043,0.094c0.091,0.195,0.172,0.397,0.24,0.611
		c0.032,0.104,0.058,0.208,0.085,0.315c0.042,0.155,0.084,0.315,0.11,0.48c0.046,0.29,0.079,0.589,0.079,0.897
		C23.916,43.882,23.883,44.158,23.844,44.429z M47.196,48.454c-1.511,0-2.817-0.975-3.532-2.417
		c-0.137-0.276-0.248-0.572-0.339-0.878c-0.039-0.134-0.077-0.264-0.104-0.4c-0.026-0.106-0.045-0.221-0.062-0.327
		c-0.039-0.273-0.071-0.55-0.071-0.832c0-0.309,0.032-0.607,0.078-0.897c0.025-0.162,0.067-0.318,0.106-0.471
		c0.029-0.11,0.056-0.221,0.088-0.328c0.068-0.211,0.149-0.41,0.237-0.602c0.017-0.036,0.032-0.071,0.049-0.106
		c0.107-0.218,0.228-0.427,0.36-0.624c0.754-1.105,1.895-1.827,3.188-1.827c2.271,0,4.111,2.171,4.111,4.855
		C51.308,46.28,49.468,48.454,47.196,48.454z"/>
	<path opacity="0.15" d="M47.196,52.5c-5.082,0-9.216-4.441-9.216-9.9c0-0.146,0.005-0.29,0.012-0.434l-4.491-5.975l-4.492,5.971
		c0.008,0.145,0.013,0.291,0.013,0.438c0,5.459-4.134,9.9-9.215,9.9c-5.085,0-9.222-4.441-9.222-9.9
		c0-5.462,4.137-9.905,9.222-9.905c1.658,0,3.256,0.474,4.676,1.379l3.752-4.892L18.091,15.69
		c-4.618-7.313,0.641-10.983,0.695-11.019C18.957,4.556,19.152,4.5,19.345,4.5c0.301,0,0.598,0.136,0.794,0.392l13.363,17.427
		L46.863,4.892C47.06,4.636,47.356,4.5,47.658,4.5c0.192,0,0.388,0.056,0.559,0.171c0.054,0.036,5.313,3.707,0.741,10.952
		l-10.19,13.559l3.75,4.893c1.422-0.905,3.021-1.38,4.679-1.38c5.083,0,9.218,4.443,9.218,9.905
		C56.414,48.059,52.279,52.5,47.196,52.5z M47.196,38.744c-0.898,0-1.76,0.507-2.362,1.391c-0.104,0.155-0.202,0.326-0.29,0.503
		c-0.108,0.238-0.176,0.401-0.231,0.574l-0.072,0.276c-0.037,0.145-0.067,0.255-0.085,0.368c-0.046,0.286-0.066,0.521-0.066,0.743
		c0,0.234,0.028,0.464,0.062,0.69c0.01,0.065,0.022,0.15,0.042,0.229c0.031,0.155,0.062,0.254,0.092,0.355
		c0.079,0.267,0.172,0.509,0.276,0.72c0.577,1.165,1.563,1.86,2.636,1.86c1.716,0,3.111-1.729,3.111-3.854
		C50.308,40.474,48.912,38.744,47.196,38.744z M19.808,38.744c-1.715,0-3.111,1.729-3.111,3.855c0,2.125,1.396,3.854,3.111,3.854
		c1.063,0,2.043-0.686,2.624-1.833c0.104-0.204,0.197-0.445,0.292-0.763c0.039-0.138,0.062-0.214,0.077-0.291
		c0.021-0.1,0.041-0.194,0.054-0.284c0.032-0.222,0.061-0.45,0.061-0.684c0-0.22-0.021-0.455-0.066-0.741
		c-0.021-0.13-0.055-0.255-0.087-0.376c-0.027-0.107-0.048-0.194-0.075-0.281c-0.052-0.165-0.118-0.327-0.191-0.484l-0.043-0.093
		c-0.08-0.16-0.177-0.333-0.286-0.494C21.567,39.251,20.706,38.744,19.808,38.744z"/>
	<path opacity="0.15" d="M47.196,33.694c-1.83,0-3.517,0.661-4.885,1.755l-4.8-6.262l10.601-14.098
		C52.22,8.581,47.657,5.5,47.657,5.5L33.502,23.962L19.346,5.5c0,0-4.562,3.081-0.455,9.589l10.601,14.098l-4.803,6.262
		c-1.365-1.094-3.052-1.755-4.881-1.755c-4.543,0-8.222,3.988-8.222,8.905s3.679,8.9,8.222,8.9c4.533,0,8.215-3.983,8.215-8.9
		c0-0.25-0.016-0.498-0.036-0.741l5.515-7.331l5.511,7.331c-0.016,0.243-0.032,0.491-0.032,0.741c0,4.917,3.682,8.9,8.216,8.9
		c4.543,0,8.218-3.983,8.218-8.9S51.739,33.694,47.196,33.694z M23.844,43.429c-0.016,0.109-0.039,0.224-0.062,0.334
		c-0.026,0.13-0.065,0.257-0.101,0.384c-0.098,0.324-0.211,0.64-0.357,0.926c-0.718,1.42-2.019,2.382-3.516,2.382
		c-2.272,0-4.111-2.174-4.111-4.854c0-2.685,1.839-4.855,4.111-4.855c1.293,0,2.434,0.722,3.188,1.827
		c0.133,0.197,0.253,0.408,0.363,0.63c0.014,0.029,0.027,0.062,0.043,0.094c0.091,0.195,0.172,0.397,0.24,0.611
		c0.032,0.104,0.058,0.208,0.085,0.315c0.042,0.155,0.084,0.315,0.11,0.48c0.046,0.29,0.079,0.589,0.079,0.897
		C23.916,42.882,23.883,43.158,23.844,43.429z M47.196,47.454c-1.511,0-2.817-0.975-3.532-2.417
		c-0.137-0.276-0.248-0.572-0.339-0.878c-0.039-0.134-0.077-0.264-0.104-0.4c-0.026-0.106-0.045-0.221-0.062-0.327
		c-0.039-0.273-0.071-0.55-0.071-0.832c0-0.309,0.032-0.607,0.078-0.897c0.025-0.162,0.067-0.318,0.106-0.471
		c0.029-0.11,0.056-0.221,0.088-0.328c0.068-0.211,0.149-0.41,0.237-0.602c0.017-0.036,0.032-0.071,0.049-0.106
		c0.107-0.218,0.228-0.427,0.36-0.624c0.754-1.105,1.895-1.827,3.188-1.827c2.271,0,4.111,2.171,4.111,4.855
		C51.308,45.28,49.468,47.454,47.196,47.454z"/>
	<linearGradient id="SVGID_1_" gradientUnits="userSpaceOnUse" x1="33.5005" y1="51.5" x2="33.5005" y2="5.5005">
		<stop  offset="0" style="stop-color:#D0CBC5"/>
		<stop  offset="0.5031" style="stop-color:#FAFCEF"/>
		<stop  offset="0.9693" style="stop-color:#FFFFFF"/>
	</linearGradient>
	<path fill="url(#SVGID_1_)" d="M47.196,33.694c-1.83,0-3.517,0.661-4.885,1.755l-4.8-6.262l10.601-14.098
		C52.22,8.581,47.657,5.5,47.657,5.5L33.502,23.962L19.346,5.5c0,0-4.562,3.081-0.455,9.589l10.601,14.098l-4.803,6.262
		c-1.365-1.094-3.052-1.755-4.881-1.755c-4.543,0-8.222,3.988-8.222,8.905s3.679,8.9,8.222,8.9c4.533,0,8.215-3.983,8.215-8.9
		c0-0.25-0.016-0.498-0.036-0.741l5.515-7.331l5.511,7.331c-0.016,0.243-0.032,0.491-0.032,0.741c0,4.917,3.682,8.9,8.216,8.9
		c4.543,0,8.218-3.983,8.218-8.9S51.739,33.694,47.196,33.694z M23.844,43.429c-0.016,0.109-0.039,0.224-0.062,0.334
		c-0.026,0.13-0.065,0.257-0.101,0.384c-0.098,0.324-0.211,0.64-0.357,0.926c-0.718,1.42-2.019,2.382-3.516,2.382
		c-2.272,0-4.111-2.174-4.111-4.854c0-2.685,1.839-4.855,4.111-4.855c1.293,0,2.434,0.722,3.188,1.827
		c0.133,0.197,0.253,0.408,0.363,0.63c0.014,0.029,0.027,0.062,0.043,0.094c0.091,0.195,0.172,0.397,0.24,0.611
		c0.032,0.104,0.058,0.208,0.085,0.315c0.042,0.155,0.084,0.315,0.11,0.48c0.046,0.29,0.079,0.589,0.079,0.897
		C23.916,42.882,23.883,43.158,23.844,43.429z M47.196,47.454c-1.511,0-2.817-0.975-3.532-2.417
		c-0.137-0.276-0.248-0.572-0.339-0.878c-0.039-0.134-0.077-0.264-0.104-0.4c-0.026-0.106-0.045-0.221-0.062-0.327
		c-0.039-0.273-0.071-0.55-0.071-0.832c0-0.309,0.032-0.607,0.078-0.897c0.025-0.162,0.067-0.318,0.106-0.471
		c0.029-0.11,0.056-0.221,0.088-0.328c0.068-0.211,0.149-0.41,0.237-0.602c0.017-0.036,0.032-0.071,0.049-0.106
		c0.107-0.218,0.228-0.427,0.36-0.624c0.754-1.105,1.895-1.827,3.188-1.827c2.271,0,4.111,2.171,4.111,4.855
		C51.308,45.28,49.468,47.454,47.196,47.454z"/>
	<path fill="#FFFFFF" d="M27.999,43.107c0.005-0.094,0.011-0.188,0.013-0.282l-0.025,0.033
		C27.993,42.94,27.994,43.024,27.999,43.107z M23.844,43.429c-0.016,0.109-0.039,0.224-0.062,0.334
		c-0.026,0.13-0.065,0.257-0.101,0.384c-0.098,0.324-0.211,0.64-0.357,0.926c-0.718,1.42-2.019,2.382-3.516,2.382
		c-2.127,0-3.854-1.912-4.068-4.354c-0.015,0.166-0.042,0.328-0.042,0.5c0,2.681,1.839,4.854,4.111,4.854
		c1.498,0,2.798-0.962,3.516-2.382c0.146-0.286,0.26-0.602,0.357-0.926c0.036-0.127,0.075-0.254,0.101-0.384
		c0.023-0.11,0.046-0.225,0.062-0.334c0.039-0.271,0.072-0.547,0.072-0.829c0-0.171-0.027-0.332-0.043-0.497
		C23.86,43.211,23.859,43.322,23.844,43.429z M24.688,35.449c-1.365-1.094-3.052-1.755-4.881-1.755
		c-4.543,0-8.222,3.988-8.222,8.905c0,0.169,0.015,0.334,0.023,0.5c0.241-4.683,3.811-8.405,8.198-8.405
		c1.829,0,3.516,0.661,4.881,1.755l4.803-6.262l-0.38-0.505L24.688,35.449z M47.196,33.694c-1.83,0-3.517,0.661-4.885,1.755
		l-4.42-5.767l-0.38,0.505l4.8,6.262c1.368-1.094,3.055-1.755,4.885-1.755c4.387,0,7.954,3.723,8.194,8.405
		c0.009-0.166,0.023-0.331,0.023-0.5C55.414,37.683,51.739,33.694,47.196,33.694z M49.795,10.508
		C50.046,7.131,47.657,5.5,47.657,5.5L33.502,23.962L19.346,5.5c0,0-2.388,1.631-2.137,5.008C17.431,7.811,19.346,6.5,19.346,6.5
		l14.156,18.462L47.657,6.5C47.657,6.5,49.572,7.811,49.795,10.508z M47.196,47.454c-1.511,0-2.817-0.975-3.532-2.417
		c-0.137-0.276-0.248-0.572-0.339-0.878c-0.039-0.134-0.077-0.264-0.104-0.4c-0.026-0.106-0.045-0.221-0.062-0.327
		c-0.016-0.107-0.017-0.219-0.028-0.328c-0.017,0.165-0.043,0.325-0.043,0.496c0,0.282,0.032,0.559,0.071,0.832
		c0.017,0.106,0.035,0.221,0.062,0.327c0.026,0.137,0.064,0.267,0.104,0.4c0.091,0.306,0.202,0.602,0.339,0.878
		c0.715,1.442,2.021,2.417,3.532,2.417c2.271,0,4.111-2.174,4.111-4.854c0-0.172-0.028-0.334-0.043-0.5
		C51.051,45.542,49.322,47.454,47.196,47.454z M39.003,43.082c0.005-0.074,0.005-0.15,0.01-0.224l-0.021-0.028
		C38.993,42.914,38.999,42.998,39.003,43.082z"/>
</g>
<g id="DO_NOT_EDIT_-_FOCAL_ZONE_GUIDES">
</g>
</svg>
