<?xml version="1.0" encoding="utf-8"?>
<!-- Generator: Adobe Illustrator 15.0.2, SVG Export Plug-In . SVG Version: 6.00 Build 0)  -->
<!DOCTYPE svg PUBLIC "-//W3C//DTD SVG 1.1//EN" "http://www.w3.org/Graphics/SVG/1.1/DTD/svg11.dtd">
<svg version="1.1" xmlns="http://www.w3.org/2000/svg" xmlns:xlink="http://www.w3.org/1999/xlink" x="0px" y="0px" width="67px"
	 height="57px" viewBox="0 0 67 57" enable-background="new 0 0 67 57" xml:space="preserve">
<g id="DO_NOT_EDIT_-_BOUNDING_BOX">
	<rect id="BOUNDING_BOX" fill="none" width="67" height="57"/>
</g>
<g id="PLACE_YOUR_GRAPHIC_HERE">
	<path opacity="0.3" d="M15,27.061h10v-7H15V27.061z M28.669,26.98h10.501v-7H28.669V26.98z M29,39.021h10v-7H29V39.021z M37,44h-6
		c-1.1,0-2,0.9-2,2v3c0,1.1,0.9,2,2,2h6c1.1,0,2-0.9,2-2v-3C39,44.9,38.1,44,37,44z M39,8.06H29v7h10V8.06z M43,27h10v-7H43V27z
		 M51,8l-8,0v7h10v-5C53,8.9,52.1,8,51,8z M15,10v5h10V8l-8,0C15.9,8,15,8.9,15,10z M43,39.021h8c1.1,0,2-0.9,2-2v-5H43V39.021z
		 M15,37.021c0,1.1,0.9,2,2,2h8v-7H15V37.021z"/>
	<path opacity="0.15" d="M31,51c-1.654,0-3-1.346-3-3v-3c0-1.654,1.346-3,3-3h6c1.654,0,3,1.346,3,3v3c0,1.654-1.346,3-3,3H31z
		 M43,39.021c-0.553,0-1-0.447-1-1v-7c0-0.553,0.447-1,1-1h10c0.553,0,1,0.447,1,1v5c0,1.654-1.346,3-3,3H43z M29,39.021
		c-0.552,0-1-0.447-1-1v-7c0-0.553,0.448-1,1-1h10c0.553,0,1,0.447,1,1v7c0,0.553-0.447,1-1,1H29z M17,39.021c-1.654,0-3-1.346-3-3
		v-5c0-0.553,0.448-1,1-1h10c0.552,0,1,0.447,1,1v7c0,0.553-0.448,1-1,1H17z M15,27.061c-0.552,0-1-0.448-1-1v-7
		c0-0.552,0.448-1,1-1h10c0.552,0,1,0.448,1,1v7c0,0.552-0.448,1-1,1H15z M43,27c-0.553,0-1-0.448-1-1v-7c0-0.552,0.447-1,1-1h10
		c0.553,0,1,0.448,1,1v7c0,0.552-0.447,1-1,1H43z M28.669,26.98c-0.552,0-1-0.448-1-1v-7c0-0.552,0.448-1,1-1h10.501
		c0.553,0,1,0.448,1,1v7c0,0.552-0.447,1-1,1H28.669z M29,15.06c-0.552,0-1-0.448-1-1v-7c0-0.552,0.448-1,1-1h10
		c0.553,0,1,0.448,1,1v7c0,0.552-0.447,1-1,1H29z M43,15c-0.553,0-1-0.448-1-1V7c0-0.265,0.105-0.52,0.293-0.707S42.734,6,43,6l8,0
		c1.654,0,3,1.346,3,3v5c0,0.552-0.447,1-1,1H43z M15,15c-0.552,0-1-0.448-1-1V9c0-1.654,1.346-3,3-3l8,0
		c0.265,0,0.52,0.105,0.707,0.293S26,6.734,26,7v7c0,0.552-0.448,1-1,1H15z"/>
	<path opacity="0.15" d="M15,26.061h10v-7H15V26.061z M28.669,25.98h10.501v-7H28.669V25.98z M29,38.021h10v-7H29V38.021z M37,43h-6
		c-1.1,0-2,0.9-2,2v3c0,1.1,0.9,2,2,2h6c1.1,0,2-0.9,2-2v-3C39,43.9,38.1,43,37,43z M39,7.06H29v7h10V7.06z M43,26h10v-7H43V26z
		 M51,7l-8,0v7h10V9C53,7.9,52.1,7,51,7z M15,9v5h10V7l-8,0C15.9,7,15,7.9,15,9z M43,38.021h8c1.1,0,2-0.9,2-2v-5H43V38.021z
		 M15,36.021c0,1.1,0.9,2,2,2h8v-7H15V36.021z"/>
	<linearGradient id="SVGID_1_" gradientUnits="userSpaceOnUse" x1="34" y1="50" x2="34" y2="7">
		<stop  offset="0" style="stop-color:#D0CBC5"/>
		<stop  offset="0.5031" style="stop-color:#FAFCEF"/>
		<stop  offset="0.9693" style="stop-color:#FFFFFF"/>
	</linearGradient>
	<path fill="url(#SVGID_1_)" d="M15,26.061h10v-7H15V26.061z M28.669,25.98h10.501v-7H28.669V25.98z M29,38.021h10v-7H29V38.021z
		 M37,43h-6c-1.1,0-2,0.9-2,2v3c0,1.1,0.9,2,2,2h6c1.1,0,2-0.9,2-2v-3C39,43.9,38.1,43,37,43z M39,7.06H29v7h10V7.06z M43,26h10v-7
		H43V26z M51,7l-8,0v7h10V9C53,7.9,52.1,7,51,7z M15,9v5h10V7l-8,0C15.9,7,15,7.9,15,9z M43,38.021h8c1.1,0,2-0.9,2-2v-5H43V38.021z
		 M15,36.021c0,1.1,0.9,2,2,2h8v-7H15V36.021z"/>
	<path fill="#FFFFFF" d="M15,9v1c0-1.1,0.9-2,2-2l8,0V7l-8,0C15.9,7,15,7.9,15,9z M15,20.061h10v-1H15V20.061z M15,32.021h10v-1H15
		V32.021z M39,7.06H29v1h10V7.06z M37,43h-6c-1.1,0-2,0.9-2,2v1c0-1.1,0.9-2,2-2h6c1.1,0,2,0.9,2,2v-1C39,43.9,38.1,43,37,43z
		 M43,32.021h10v-1H43V32.021z M51,7l-8,0v1l8,0c1.1,0,2,0.9,2,2V9C53,7.9,52.1,7,51,7z M43,20h10v-1H43V20z M29,32.021h10v-1H29
		V32.021z M28.669,19.98h10.501v-1H28.669V19.98z"/>
</g>
<g id="DO_NOT_EDIT_-_FOCAL_ZONE_GUIDES">
</g>
</svg>
