<?xml version="1.0" encoding="utf-8"?>
<!-- Generator: Adobe Illustrator 15.0.0, SVG Export Plug-In . SVG Version: 6.00 Build 0)  -->
<!DOCTYPE svg PUBLIC "-//W3C//DTD SVG 1.1//EN" "http://www.w3.org/Graphics/SVG/1.1/DTD/svg11.dtd">
<svg version="1.1" xmlns="http://www.w3.org/2000/svg" xmlns:xlink="http://www.w3.org/1999/xlink" x="0px" y="0px" width="67px"
	 height="57px" viewBox="0 0 67 57" enable-background="new 0 0 67 57" xml:space="preserve">
<g id="DO_NOT_EDIT_-_BOUNDING_BOX">
	<rect id="BOUNDING_BOX" fill="none" width="67" height="57"/>
</g>
<g id="PLACE_YOUR_GRAPHIC_HERE">
	<path opacity="0.3" d="M12.475,8.142v42.72c0,0.898,0.782,1.637,1.751,1.637h2.704V6.5h-2.704
		C13.257,6.5,12.475,7.239,12.475,8.142z M27.987,30.667h3.553l-1.76-7.666L27.987,30.667z M52.775,6.5H18.912v46h33.864
		c0.969,0,1.75-0.738,1.75-1.639V8.142C54.525,7.239,53.744,6.5,52.775,6.5z M32.794,36.204l-0.812-3.389h-4.447l-0.828,3.389
		h-3.345l4.579-16.322h4.492l4.285,16.322H32.794z M48.59,21.563l-6.049,12.491h5.957v2.15H38.201V34.52L44.25,22.03h-5.689v-2.148
		H48.59V21.563z"/>
	<path opacity="0.15" d="M52.775,4.5H20.929h-2.018h-4.686c-1.517,0-2.751,1.185-2.751,2.642v42.72c0,1.454,1.234,2.637,2.751,2.637
		h4.675c0.004,0,0.007,0.002,0.011,0.002h33.864c1.517,0,2.75-1.184,2.75-2.639V7.142C55.525,5.685,54.292,4.5,52.775,4.5z"/>
	<path opacity="0.15" d="M12.475,7.142v42.72c0,0.898,0.782,1.637,1.751,1.637h2.704V5.5h-2.704
		C13.257,5.5,12.475,6.239,12.475,7.142z M27.987,29.667h3.553l-1.76-7.666L27.987,29.667z M52.775,5.5H18.912v46h33.864
		c0.969,0,1.75-0.738,1.75-1.639V7.142C54.525,6.239,53.744,5.5,52.775,5.5z M32.794,35.204l-0.812-3.389h-4.447l-0.828,3.389
		h-3.345l4.579-16.322h4.492l4.285,16.322H32.794z M48.59,20.563l-6.049,12.491h5.957v2.15H38.201V33.52L44.25,21.03h-5.689v-2.148
		H48.59V20.563z"/>
	<linearGradient id="SVGID_1_" gradientUnits="userSpaceOnUse" x1="33.5005" y1="51.5" x2="33.5005" y2="5.5005">
		<stop  offset="0" style="stop-color:#D0CBC5"/>
		<stop  offset="0.5031" style="stop-color:#FAFCEF"/>
		<stop  offset="0.9693" style="stop-color:#FFFFFF"/>
	</linearGradient>
	<path fill="url(#SVGID_1_)" d="M12.475,7.142v42.72c0,0.898,0.782,1.637,1.751,1.637h2.704V5.5h-2.704
		C13.257,5.5,12.475,6.239,12.475,7.142z M27.987,29.667h3.553l-1.76-7.666L27.987,29.667z M52.775,5.5H18.912v46h33.864
		c0.969,0,1.75-0.738,1.75-1.639V7.142C54.525,6.239,53.744,5.5,52.775,5.5z M32.794,35.204l-0.812-3.389h-4.447l-0.828,3.389
		h-3.345l4.579-16.322h4.492l4.285,16.322H32.794z M48.59,20.563l-6.049,12.491h5.957v2.15H38.201V33.52L44.25,21.03h-5.689v-2.148
		H48.59V20.563z"/>
	<path fill="#FFFFFF" d="M23.363,36.204l0.281-1h3.064l0.828-3.389h4.447l0.812,3.389h3.662l0.263,1h-3.924l-0.812-3.389h-4.447
		l-0.828,3.389H23.363z M48.59,20.563l-6.049,12.491h0.484l5.564-11.491V20.563z M29.78,22.001l-1.793,7.666h0.234l1.559-6.666
		l1.53,6.666h0.229L29.78,22.001z M38.561,21.03v1h5.205l0.484-1H38.561z M52.775,5.5H18.912v1h33.864
		c0.969,0,1.75,0.739,1.75,1.642v-1C54.525,6.239,53.744,5.5,52.775,5.5z M12.475,7.142v1c0-0.902,0.782-1.642,1.751-1.642h2.704v-1
		h-2.704C13.257,5.5,12.475,6.239,12.475,7.142z M48.498,36.204v-1H38.201v1H48.498z"/>
</g>
<g id="DO_NOT_EDIT_-_FOCAL_ZONE_GUIDES">
</g>
</svg>
