<?xml version="1.0" encoding="utf-8"?>
<!-- Generator: Adobe Illustrator 15.0.0, SVG Export Plug-In . SVG Version: 6.00 Build 0)  -->
<!DOCTYPE svg PUBLIC "-//W3C//DTD SVG 1.1//EN" "http://www.w3.org/Graphics/SVG/1.1/DTD/svg11.dtd">
<svg version="1.1" xmlns="http://www.w3.org/2000/svg" xmlns:xlink="http://www.w3.org/1999/xlink" x="0px" y="0px" width="67px"
	 height="57px" viewBox="0 0 67 57" enable-background="new 0 0 67 57" xml:space="preserve">
<g id="DO_NOT_EDIT_-_BOUNDING_BOX">
	<rect id="BOUNDING_BOX" fill="none" width="67" height="57"/>
</g>
<g id="PLACE_YOUR_GRAPHIC_HERE">
	<path opacity="0.3" d="M51.192,6.5H15.808c-0.973,0-1.769,0.796-1.769,1.769V50.73c0,0.973,0.796,1.77,1.769,1.77h35.384
		c0.974,0,1.769-0.797,1.769-1.77V8.269C52.961,7.296,52.166,6.5,51.192,6.5z M24.993,41.885h-4.048
		c-0.978,0-1.769-0.791-1.769-1.77c0-0.978,0.791-1.77,1.769-1.77h4.048c0.978,0,1.769,0.792,1.769,1.77
		C26.762,41.094,25.971,41.885,24.993,41.885z M24.993,34.808h-4.048c-0.978,0-1.769-0.791-1.769-1.77
		c0-0.978,0.791-1.769,1.769-1.769h4.048c0.978,0,1.769,0.791,1.769,1.769C26.762,34.017,25.971,34.808,24.993,34.808z
		 M24.993,27.73h-4.048c-0.978,0-1.769-0.791-1.769-1.769c0-0.979,0.791-1.77,1.769-1.77h4.048c0.978,0,1.769,0.791,1.769,1.77
		C26.762,26.939,25.971,27.73,24.993,27.73z M24.993,20.654h-4.048c-0.978,0-1.769-0.792-1.769-1.769c0-0.978,0.791-1.77,1.769-1.77
		h4.048c0.978,0,1.769,0.792,1.769,1.77C26.762,19.862,25.971,20.654,24.993,20.654z M35.608,41.885H31.56
		c-0.978,0-1.769-0.791-1.769-1.77c0-0.978,0.792-1.77,1.769-1.77h4.048c0.978,0,1.769,0.792,1.769,1.77
		C37.377,41.094,36.586,41.885,35.608,41.885z M35.608,34.808H31.56c-0.978,0-1.769-0.791-1.769-1.77
		c0-0.978,0.792-1.769,1.769-1.769h4.048c0.978,0,1.769,0.791,1.769,1.769C37.377,34.017,36.586,34.808,35.608,34.808z
		 M35.608,27.73H31.56c-0.978,0-1.769-0.791-1.769-1.769c0-0.979,0.792-1.77,1.769-1.77h4.048c0.978,0,1.769,0.791,1.769,1.77
		C37.377,26.939,36.586,27.73,35.608,27.73z M35.608,20.654H31.56c-0.978,0-1.769-0.792-1.769-1.769c0-0.978,0.792-1.77,1.769-1.77
		h4.048c0.978,0,1.769,0.792,1.769,1.77C37.377,19.862,36.586,20.654,35.608,20.654z M46.223,41.885h-4.046
		c-0.979,0-1.771-0.791-1.771-1.77c0-0.978,0.791-1.77,1.771-1.77h4.046c0.979,0,1.77,0.792,1.77,1.77
		C47.992,41.094,47.201,41.885,46.223,41.885z M46.223,34.808h-4.046c-0.979,0-1.771-0.791-1.771-1.77
		c0-0.978,0.791-1.769,1.771-1.769h4.046c0.979,0,1.77,0.791,1.77,1.769C47.992,34.017,47.201,34.808,46.223,34.808z M46.223,27.73
		h-4.046c-0.979,0-1.771-0.791-1.771-1.769c0-0.979,0.791-1.77,1.771-1.77h4.046c0.979,0,1.77,0.791,1.77,1.77
		C47.992,26.939,47.201,27.73,46.223,27.73z M46.223,20.654h-4.046c-0.979,0-1.771-0.792-1.771-1.769c0-0.978,0.791-1.77,1.771-1.77
		h4.046c0.979,0,1.77,0.792,1.77,1.77C47.992,19.862,47.201,20.654,46.223,20.654z"/>
	<rect x="16.381" y="16.446" fill="none" width="30" height="30"/>
	<path opacity="0.15" d="M15.808,52.5c-1.527,0-2.769-1.242-2.769-2.77V7.269c0-1.527,1.242-2.769,2.769-2.769h35.384
		c1.526,0,2.769,1.242,2.769,2.769V49.73c0,1.527-1.242,2.77-2.769,2.77H15.808z M42.177,38.346c-0.425,0-0.771,0.345-0.771,0.77
		s0.346,0.77,0.771,0.77h4.046c0.425,0,0.77-0.345,0.77-0.77s-0.345-0.77-0.77-0.77H42.177z M31.56,38.346
		c-0.424,0-0.769,0.345-0.769,0.77s0.345,0.77,0.769,0.77h4.048c0.424,0,0.769-0.345,0.769-0.77s-0.345-0.77-0.769-0.77H31.56z
		 M20.945,38.346c-0.424,0-0.769,0.345-0.769,0.77s0.345,0.77,0.769,0.77h4.048c0.424,0,0.769-0.345,0.769-0.77
		s-0.345-0.77-0.769-0.77H20.945z M42.177,31.27c-0.425,0-0.771,0.345-0.771,0.769c0,0.425,0.346,0.77,0.771,0.77h4.046
		c0.425,0,0.77-0.345,0.77-0.77c0-0.424-0.345-0.769-0.77-0.769H42.177z M31.56,31.27c-0.424,0-0.769,0.345-0.769,0.769
		c0,0.425,0.345,0.77,0.769,0.77h4.048c0.424,0,0.769-0.345,0.769-0.77c0-0.424-0.345-0.769-0.769-0.769H31.56z M20.945,31.27
		c-0.424,0-0.769,0.345-0.769,0.769c0,0.425,0.345,0.77,0.769,0.77h4.048c0.424,0,0.769-0.345,0.769-0.77
		c0-0.424-0.345-0.769-0.769-0.769H20.945z M42.177,24.192c-0.425,0-0.771,0.345-0.771,0.77c0,0.424,0.346,0.769,0.771,0.769h4.046
		c0.425,0,0.77-0.345,0.77-0.769c0-0.424-0.345-0.77-0.77-0.77H42.177z M31.56,24.192c-0.424,0-0.769,0.345-0.769,0.77
		c0,0.424,0.345,0.769,0.769,0.769h4.048c0.424,0,0.769-0.345,0.769-0.769c0-0.424-0.345-0.77-0.769-0.77H31.56z M20.945,24.192
		c-0.424,0-0.769,0.345-0.769,0.77c0,0.424,0.345,0.769,0.769,0.769h4.048c0.424,0,0.769-0.345,0.769-0.769
		c0-0.424-0.345-0.77-0.769-0.77H20.945z M42.177,17.115c-0.425,0-0.771,0.345-0.771,0.77c0,0.424,0.346,0.769,0.771,0.769h4.046
		c0.425,0,0.77-0.345,0.77-0.769c0-0.424-0.345-0.77-0.77-0.77H42.177z M31.56,17.115c-0.424,0-0.769,0.345-0.769,0.77
		c0,0.424,0.345,0.769,0.769,0.769h4.048c0.424,0,0.769-0.345,0.769-0.769c0-0.424-0.345-0.77-0.769-0.77H31.56z M20.945,17.115
		c-0.424,0-0.769,0.345-0.769,0.77c0,0.424,0.345,0.769,0.769,0.769h4.048c0.424,0,0.769-0.345,0.769-0.769
		c0-0.424-0.345-0.77-0.769-0.77H20.945z"/>
	<path opacity="0.15" d="M51.192,5.5H15.808c-0.973,0-1.769,0.796-1.769,1.769V49.73c0,0.973,0.796,1.77,1.769,1.77h35.384
		c0.974,0,1.769-0.797,1.769-1.77V7.269C52.961,6.296,52.166,5.5,51.192,5.5z M24.993,40.885h-4.048
		c-0.978,0-1.769-0.791-1.769-1.77c0-0.978,0.791-1.77,1.769-1.77h4.048c0.978,0,1.769,0.792,1.769,1.77
		C26.762,40.094,25.971,40.885,24.993,40.885z M24.993,33.808h-4.048c-0.978,0-1.769-0.791-1.769-1.77
		c0-0.978,0.791-1.769,1.769-1.769h4.048c0.978,0,1.769,0.791,1.769,1.769C26.762,33.017,25.971,33.808,24.993,33.808z
		 M24.993,26.73h-4.048c-0.978,0-1.769-0.791-1.769-1.769c0-0.979,0.791-1.77,1.769-1.77h4.048c0.978,0,1.769,0.791,1.769,1.77
		C26.762,25.939,25.971,26.73,24.993,26.73z M24.993,19.654h-4.048c-0.978,0-1.769-0.792-1.769-1.769c0-0.978,0.791-1.77,1.769-1.77
		h4.048c0.978,0,1.769,0.792,1.769,1.77C26.762,18.862,25.971,19.654,24.993,19.654z M35.608,40.885H31.56
		c-0.978,0-1.769-0.791-1.769-1.77c0-0.978,0.792-1.77,1.769-1.77h4.048c0.978,0,1.769,0.792,1.769,1.77
		C37.377,40.094,36.586,40.885,35.608,40.885z M35.608,33.808H31.56c-0.978,0-1.769-0.791-1.769-1.77
		c0-0.978,0.792-1.769,1.769-1.769h4.048c0.978,0,1.769,0.791,1.769,1.769C37.377,33.017,36.586,33.808,35.608,33.808z
		 M35.608,26.73H31.56c-0.978,0-1.769-0.791-1.769-1.769c0-0.979,0.792-1.77,1.769-1.77h4.048c0.978,0,1.769,0.791,1.769,1.77
		C37.377,25.939,36.586,26.73,35.608,26.73z M35.608,19.654H31.56c-0.978,0-1.769-0.792-1.769-1.769c0-0.978,0.792-1.77,1.769-1.77
		h4.048c0.978,0,1.769,0.792,1.769,1.77C37.377,18.862,36.586,19.654,35.608,19.654z M46.223,40.885h-4.046
		c-0.979,0-1.771-0.791-1.771-1.77c0-0.978,0.791-1.77,1.771-1.77h4.046c0.979,0,1.77,0.792,1.77,1.77
		C47.992,40.094,47.201,40.885,46.223,40.885z M46.223,33.808h-4.046c-0.979,0-1.771-0.791-1.771-1.77
		c0-0.978,0.791-1.769,1.771-1.769h4.046c0.979,0,1.77,0.791,1.77,1.769C47.992,33.017,47.201,33.808,46.223,33.808z M46.223,26.73
		h-4.046c-0.979,0-1.771-0.791-1.771-1.769c0-0.979,0.791-1.77,1.771-1.77h4.046c0.979,0,1.77,0.791,1.77,1.77
		C47.992,25.939,47.201,26.73,46.223,26.73z M46.223,19.654h-4.046c-0.979,0-1.771-0.792-1.771-1.769c0-0.978,0.791-1.77,1.771-1.77
		h4.046c0.979,0,1.77,0.792,1.77,1.77C47.992,18.862,47.201,19.654,46.223,19.654z"/>
	<linearGradient id="SVGID_1_" gradientUnits="userSpaceOnUse" x1="33.5005" y1="51.5" x2="33.5005" y2="5.5005">
		<stop  offset="0" style="stop-color:#D0CBC5"/>
		<stop  offset="0.5031" style="stop-color:#FAFCEF"/>
		<stop  offset="0.9693" style="stop-color:#FFFFFF"/>
	</linearGradient>
	<path fill="url(#SVGID_1_)" d="M51.192,5.5H15.808c-0.973,0-1.769,0.796-1.769,1.769V49.73c0,0.973,0.796,1.77,1.769,1.77h35.384
		c0.974,0,1.769-0.797,1.769-1.77V7.269C52.961,6.296,52.166,5.5,51.192,5.5z M24.993,40.885h-4.048
		c-0.978,0-1.769-0.791-1.769-1.77c0-0.978,0.791-1.77,1.769-1.77h4.048c0.978,0,1.769,0.792,1.769,1.77
		C26.762,40.094,25.971,40.885,24.993,40.885z M24.993,33.808h-4.048c-0.978,0-1.769-0.791-1.769-1.77
		c0-0.978,0.791-1.769,1.769-1.769h4.048c0.978,0,1.769,0.791,1.769,1.769C26.762,33.017,25.971,33.808,24.993,33.808z
		 M24.993,26.73h-4.048c-0.978,0-1.769-0.791-1.769-1.769c0-0.979,0.791-1.77,1.769-1.77h4.048c0.978,0,1.769,0.791,1.769,1.77
		C26.762,25.939,25.971,26.73,24.993,26.73z M24.993,19.654h-4.048c-0.978,0-1.769-0.792-1.769-1.769c0-0.978,0.791-1.77,1.769-1.77
		h4.048c0.978,0,1.769,0.792,1.769,1.77C26.762,18.862,25.971,19.654,24.993,19.654z M35.608,40.885H31.56
		c-0.978,0-1.769-0.791-1.769-1.77c0-0.978,0.792-1.77,1.769-1.77h4.048c0.978,0,1.769,0.792,1.769,1.77
		C37.377,40.094,36.586,40.885,35.608,40.885z M35.608,33.808H31.56c-0.978,0-1.769-0.791-1.769-1.77
		c0-0.978,0.792-1.769,1.769-1.769h4.048c0.978,0,1.769,0.791,1.769,1.769C37.377,33.017,36.586,33.808,35.608,33.808z
		 M35.608,26.73H31.56c-0.978,0-1.769-0.791-1.769-1.769c0-0.979,0.792-1.77,1.769-1.77h4.048c0.978,0,1.769,0.791,1.769,1.77
		C37.377,25.939,36.586,26.73,35.608,26.73z M35.608,19.654H31.56c-0.978,0-1.769-0.792-1.769-1.769c0-0.978,0.792-1.77,1.769-1.77
		h4.048c0.978,0,1.769,0.792,1.769,1.77C37.377,18.862,36.586,19.654,35.608,19.654z M46.223,40.885h-4.046
		c-0.979,0-1.771-0.791-1.771-1.77c0-0.978,0.791-1.77,1.771-1.77h4.046c0.979,0,1.77,0.792,1.77,1.77
		C47.992,40.094,47.201,40.885,46.223,40.885z M46.223,33.808h-4.046c-0.979,0-1.771-0.791-1.771-1.77
		c0-0.978,0.791-1.769,1.771-1.769h4.046c0.979,0,1.77,0.791,1.77,1.769C47.992,33.017,47.201,33.808,46.223,33.808z M46.223,26.73
		h-4.046c-0.979,0-1.771-0.791-1.771-1.769c0-0.979,0.791-1.77,1.771-1.77h4.046c0.979,0,1.77,0.791,1.77,1.77
		C47.992,25.939,47.201,26.73,46.223,26.73z M46.223,19.654h-4.046c-0.979,0-1.771-0.792-1.771-1.769c0-0.978,0.791-1.77,1.771-1.77
		h4.046c0.979,0,1.77,0.792,1.77,1.77C47.992,18.862,47.201,19.654,46.223,19.654z"/>
	<path fill="#FFFFFF" d="M29.791,25.962c0-0.175,0.033-0.341,0.081-0.5c0.216,0.732,0.886,1.269,1.688,1.269h4.048
		c0.803,0,1.472-0.537,1.688-1.269c0.047,0.159,0.08,0.325,0.08,0.5c0,0.978-0.791,1.769-1.769,1.769H31.56
		C30.583,27.73,29.791,26.939,29.791,25.962z M20.945,41.885h4.048c0.978,0,1.769-0.791,1.769-1.77c0-0.175-0.033-0.34-0.08-0.5
		c-0.217,0.732-0.886,1.27-1.689,1.27h-4.048c-0.803,0-1.472-0.537-1.689-1.27c-0.047,0.16-0.08,0.325-0.08,0.5
		C19.176,41.094,19.967,41.885,20.945,41.885z M31.56,20.654h4.048c0.978,0,1.769-0.792,1.769-1.769c0-0.175-0.033-0.341-0.08-0.5
		c-0.217,0.732-0.886,1.269-1.688,1.269H31.56c-0.803,0-1.472-0.537-1.688-1.269c-0.047,0.159-0.081,0.325-0.081,0.5
		C29.791,19.862,30.583,20.654,31.56,20.654z M20.945,20.654h4.048c0.978,0,1.769-0.792,1.769-1.769c0-0.175-0.033-0.341-0.081-0.5
		c-0.216,0.732-0.886,1.269-1.688,1.269h-4.048c-0.803,0-1.472-0.537-1.689-1.269c-0.047,0.159-0.08,0.325-0.08,0.5
		C19.176,19.862,19.967,20.654,20.945,20.654z M31.56,34.808h4.048c0.978,0,1.769-0.791,1.769-1.77c0-0.175-0.033-0.34-0.08-0.5
		c-0.217,0.732-0.886,1.27-1.688,1.27H31.56c-0.803,0-1.472-0.537-1.688-1.27c-0.047,0.16-0.081,0.325-0.081,0.5
		C29.791,34.017,30.583,34.808,31.56,34.808z M20.945,34.808h4.048c0.978,0,1.769-0.791,1.769-1.77c0-0.175-0.033-0.34-0.081-0.5
		c-0.216,0.732-0.886,1.27-1.688,1.27h-4.048c-0.803,0-1.472-0.537-1.689-1.27c-0.047,0.16-0.08,0.325-0.08,0.5
		C19.176,34.017,19.967,34.808,20.945,34.808z M20.945,27.73h4.048c0.978,0,1.769-0.791,1.769-1.769c0-0.175-0.033-0.341-0.081-0.5
		c-0.216,0.732-0.886,1.269-1.688,1.269h-4.048c-0.803,0-1.472-0.537-1.689-1.269c-0.047,0.159-0.08,0.325-0.08,0.5
		C19.176,26.939,19.967,27.73,20.945,27.73z M42.177,41.885h4.046c0.979,0,1.77-0.791,1.77-1.77c0-0.175-0.033-0.34-0.08-0.5
		c-0.217,0.732-0.886,1.27-1.689,1.27h-4.046c-0.805,0-1.474-0.537-1.69-1.27c-0.047,0.16-0.08,0.325-0.08,0.5
		C40.406,41.094,41.197,41.885,42.177,41.885z M51.192,5.5H15.808c-0.973,0-1.769,0.796-1.769,1.769v1
		c0-0.973,0.796-1.769,1.769-1.769h35.384c0.974,0,1.769,0.796,1.769,1.769v-1C52.961,6.296,52.166,5.5,51.192,5.5z M42.177,34.808
		h4.046c0.979,0,1.77-0.791,1.77-1.77c0-0.175-0.033-0.34-0.08-0.5c-0.217,0.732-0.886,1.27-1.689,1.27h-4.046
		c-0.805,0-1.474-0.537-1.69-1.27c-0.047,0.16-0.08,0.325-0.08,0.5C40.406,34.017,41.197,34.808,42.177,34.808z M42.177,20.654
		h4.046c0.979,0,1.77-0.792,1.77-1.769c0-0.175-0.033-0.341-0.08-0.5c-0.217,0.732-0.886,1.269-1.689,1.269h-4.046
		c-0.805,0-1.474-0.537-1.69-1.269c-0.047,0.159-0.08,0.325-0.08,0.5C40.406,19.862,41.197,20.654,42.177,20.654z M42.177,27.73
		h4.046c0.979,0,1.77-0.791,1.77-1.769c0-0.175-0.033-0.341-0.08-0.5c-0.217,0.732-0.886,1.269-1.689,1.269h-4.046
		c-0.805,0-1.474-0.537-1.69-1.269c-0.047,0.159-0.08,0.325-0.08,0.5C40.406,26.939,41.197,27.73,42.177,27.73z M31.56,41.885h4.048
		c0.978,0,1.769-0.791,1.769-1.77c0-0.175-0.033-0.34-0.08-0.5c-0.217,0.732-0.886,1.27-1.688,1.27H31.56
		c-0.803,0-1.472-0.537-1.689-1.27c-0.047,0.16-0.08,0.325-0.08,0.5C29.791,41.094,30.583,41.885,31.56,41.885z"/>
</g>
<g id="DO_NOT_EDIT_-_FOCAL_ZONE_GUIDES">
</g>
</svg>
