<?xml version="1.0" encoding="utf-8"?>
<!-- Generator: Adobe Illustrator 15.0.0, SVG Export Plug-In . SVG Version: 6.00 Build 0)  -->
<!DOCTYPE svg PUBLIC "-//W3C//DTD SVG 1.1//EN" "http://www.w3.org/Graphics/SVG/1.1/DTD/svg11.dtd">
<svg version="1.1" xmlns="http://www.w3.org/2000/svg" xmlns:xlink="http://www.w3.org/1999/xlink" x="0px" y="0px" width="67px"
	 height="57px" viewBox="0 0 67 57" enable-background="new 0 0 67 57" xml:space="preserve">
<g id="DO_NOT_EDIT_-_BOUNDING_BOX">
	<rect id="BOUNDING_BOX" fill="none" width="67" height="57"/>
</g>
<g id="PLACE_YOUR_GRAPHIC_HERE">
	<path opacity="0.3" d="M53.243,23.957c1.829-0.103,3.257-0.873,3.257-1.819c0-1.017-1.649-1.839-3.681-1.839
		c-0.501,0-0.985,0.052-1.422,0.145c-2.557-4.402-6.52-9.344-11.458-9.344H27.061c-4.938,0-8.897,4.941-11.457,9.344
		c-0.437-0.093-0.919-0.145-1.423-0.145c-2.034,0-3.681,0.822-3.681,1.839c0,0.946,1.428,1.717,3.261,1.819
		c-0.364,0.783-0.66,1.46-0.881,1.993c-1.454,1.348-2.38,3.253-2.38,5.39v11.959c0,2.542,1.649,4.602,3.681,4.602
		c1.782,0,3.267-1.585,3.606-3.69c0.027,0,0.048,0.01,0.074,0.01h31.281c0.022,0,0.045-0.01,0.073-0.01
		c0.337,2.105,1.822,3.69,3.604,3.69c2.031,0,3.681-2.06,3.681-4.602V31.34c0-2.137-0.925-4.042-2.378-5.39
		C53.9,25.417,53.605,24.74,53.243,23.957z M27.061,14.78h12.879c3.511,0,6.979,5.018,9.177,9.199H17.885
		C20.081,19.798,23.552,14.78,27.061,14.78z M13.812,30.42c0-1.727,1.817-3.129,4.05-3.129c2.231,0,4.048,1.402,4.048,3.129
		c0,1.723-1.816,3.128-4.048,3.128C15.629,33.548,13.812,32.143,13.812,30.42z M43.909,42.378H23.091
		c-1.567,0-2.839-1.235-2.839-2.76c0-1.523,1.271-2.759,2.839-2.759h20.818c1.568,0,2.839,1.235,2.839,2.759
		C46.748,41.143,45.478,42.378,43.909,42.378z M49.143,33.548c-2.233,0-4.05-1.405-4.05-3.128c0-1.727,1.816-3.129,4.05-3.129
		c2.229,0,4.046,1.402,4.046,3.129C53.188,32.143,51.372,33.548,49.143,33.548z"/>
	<rect x="16.381" y="16.446" fill="none" width="30" height="30"/>
	<path opacity="0.15" d="M52.819,47.9c-1.989,0-3.735-1.504-4.396-3.681H18.578c-0.662,2.177-2.409,3.681-4.397,3.681
		C11.6,47.9,9.5,45.388,9.5,42.299V30.34c0-2.262,0.899-4.373,2.538-5.97c0.081-0.191,0.169-0.397,0.266-0.618
		C10.601,23.334,9.5,22.351,9.5,21.138c0-1.645,1.968-2.839,4.681-2.839c0.308,0,0.612,0.017,0.909,0.05
		c3.657-6.055,7.788-9.25,11.971-9.25h12.879c4.188,0,8.318,3.195,11.972,9.249c0.297-0.033,0.601-0.05,0.908-0.05
		c2.668,0,4.681,1.22,4.681,2.839c0,1.213-1.101,2.196-2.802,2.614c0.096,0.221,0.185,0.427,0.265,0.618
		c1.638,1.597,2.537,3.708,2.537,5.97v11.959C57.5,45.388,55.4,47.9,52.819,47.9z M23.091,36.859c-1.014,0-1.839,0.789-1.839,1.759
		c0,0.971,0.825,1.76,1.839,1.76h20.818c1.014,0,1.839-0.789,1.839-1.76c0-0.97-0.825-1.759-1.839-1.759H23.091z M49.143,27.291
		c-1.653,0-3.05,0.975-3.05,2.129c0,1.153,1.396,2.128,3.05,2.128c1.651,0,3.046-0.975,3.046-2.128
		C52.188,28.266,50.794,27.291,49.143,27.291z M17.861,27.291c-1.653,0-3.05,0.975-3.05,2.129c0,1.153,1.396,2.128,3.05,2.128
		c1.652,0,3.048-0.975,3.048-2.128C20.909,28.266,19.514,27.291,17.861,27.291z M47.425,21.979
		c-2.618-4.538-5.363-7.199-7.485-7.199H27.061c-2.123,0-4.867,2.661-7.484,7.199H47.425z"/>
	<path opacity="0.15" d="M53.243,22.957c1.829-0.103,3.257-0.873,3.257-1.819c0-1.017-1.649-1.839-3.681-1.839
		c-0.501,0-0.985,0.052-1.422,0.145c-2.557-4.402-6.52-9.344-11.458-9.344H27.061c-4.938,0-8.897,4.941-11.457,9.344
		c-0.437-0.093-0.919-0.145-1.423-0.145c-2.034,0-3.681,0.822-3.681,1.839c0,0.946,1.428,1.717,3.261,1.819
		c-0.364,0.783-0.66,1.46-0.881,1.993c-1.454,1.348-2.38,3.253-2.38,5.39v11.959c0,2.542,1.649,4.602,3.681,4.602
		c1.782,0,3.267-1.585,3.606-3.69c0.027,0,0.048,0.01,0.074,0.01h31.281c0.022,0,0.045-0.01,0.073-0.01
		c0.337,2.105,1.822,3.69,3.604,3.69c2.031,0,3.681-2.06,3.681-4.602V30.34c0-2.137-0.925-4.042-2.378-5.39
		C53.9,24.417,53.605,23.74,53.243,22.957z M27.061,13.78h12.879c3.511,0,6.979,5.018,9.177,9.199H17.885
		C20.081,18.798,23.552,13.78,27.061,13.78z M13.812,29.42c0-1.727,1.817-3.129,4.05-3.129c2.231,0,4.048,1.402,4.048,3.129
		c0,1.723-1.816,3.128-4.048,3.128C15.629,32.548,13.812,31.143,13.812,29.42z M43.909,41.378H23.091
		c-1.567,0-2.839-1.235-2.839-2.76c0-1.523,1.271-2.759,2.839-2.759h20.818c1.568,0,2.839,1.235,2.839,2.759
		C46.748,40.143,45.478,41.378,43.909,41.378z M49.143,32.548c-2.233,0-4.05-1.405-4.05-3.128c0-1.727,1.816-3.129,4.05-3.129
		c2.229,0,4.046,1.402,4.046,3.129C53.188,31.143,51.372,32.548,49.143,32.548z"/>
	<linearGradient id="SVGID_1_" gradientUnits="userSpaceOnUse" x1="33.5005" y1="46.9004" x2="33.5005" y2="10.1001">
		<stop  offset="0" style="stop-color:#D0CBC5"/>
		<stop  offset="0.5031" style="stop-color:#FAFCEF"/>
		<stop  offset="0.9693" style="stop-color:#FFFFFF"/>
	</linearGradient>
	<path fill="url(#SVGID_1_)" d="M53.243,22.957c1.829-0.103,3.257-0.873,3.257-1.819c0-1.017-1.649-1.839-3.681-1.839
		c-0.501,0-0.985,0.052-1.422,0.145c-2.557-4.402-6.52-9.344-11.458-9.344H27.061c-4.938,0-8.897,4.941-11.457,9.344
		c-0.437-0.093-0.919-0.145-1.423-0.145c-2.034,0-3.681,0.822-3.681,1.839c0,0.946,1.428,1.717,3.261,1.819
		c-0.364,0.783-0.66,1.46-0.881,1.993c-1.454,1.348-2.38,3.253-2.38,5.39v11.959c0,2.542,1.649,4.602,3.681,4.602
		c1.782,0,3.267-1.585,3.606-3.69c0.027,0,0.048,0.01,0.074,0.01h31.281c0.022,0,0.045-0.01,0.073-0.01
		c0.337,2.105,1.822,3.69,3.604,3.69c2.031,0,3.681-2.06,3.681-4.602V30.34c0-2.137-0.925-4.042-2.378-5.39
		C53.9,24.417,53.605,23.74,53.243,22.957z M27.061,13.78h12.879c3.511,0,6.979,5.018,9.177,9.199H17.885
		C20.081,18.798,23.552,13.78,27.061,13.78z M13.812,29.42c0-1.727,1.817-3.129,4.05-3.129c2.231,0,4.048,1.402,4.048,3.129
		c0,1.723-1.816,3.128-4.048,3.128C15.629,32.548,13.812,31.143,13.812,29.42z M43.909,41.378H23.091
		c-1.567,0-2.839-1.235-2.839-2.76c0-1.523,1.271-2.759,2.839-2.759h20.818c1.568,0,2.839,1.235,2.839,2.759
		C46.748,40.143,45.478,41.378,43.909,41.378z M49.143,32.548c-2.233,0-4.05-1.405-4.05-3.128c0-1.727,1.816-3.129,4.05-3.129
		c2.229,0,4.046,1.402,4.046,3.129C53.188,31.143,51.372,32.548,49.143,32.548z"/>
	<path fill="#FFFFFF" d="M46.696,39.118c0.03,0.163,0.052,0.329,0.052,0.5c0,1.524-1.271,2.76-2.839,2.76H23.091
		c-1.567,0-2.839-1.235-2.839-2.76c0-0.171,0.021-0.337,0.052-0.5c0.243,1.285,1.396,2.26,2.787,2.26h20.818
		C45.301,41.378,46.453,40.403,46.696,39.118z M49.143,32.548c-2.012,0-3.672-1.144-3.984-2.629
		c-0.034,0.164-0.065,0.329-0.065,0.501c0,1.723,1.816,3.128,4.05,3.128c2.229,0,4.046-1.405,4.046-3.128
		c0-0.172-0.031-0.337-0.065-0.501C52.811,31.404,51.15,32.548,49.143,32.548z M14.181,20.299c0.504,0,0.986,0.052,1.423,0.145
		c2.56-4.402,6.519-9.344,11.457-9.344h12.879c4.938,0,8.901,4.941,11.458,9.344c0.437-0.093,0.921-0.145,1.422-0.145
		c1.683,0,3.089,0.567,3.526,1.34c0.091-0.16,0.154-0.326,0.154-0.501c0-1.017-1.649-1.839-3.681-1.839
		c-0.501,0-0.985,0.052-1.422,0.145c-2.557-4.402-6.52-9.344-11.458-9.344H27.061c-4.938,0-8.897,4.941-11.457,9.344
		c-0.437-0.093-0.919-0.145-1.423-0.145c-2.034,0-3.681,0.822-3.681,1.839c0,0.175,0.063,0.341,0.154,0.5
		C11.092,20.866,12.495,20.299,14.181,20.299z M53.675,23.913c-0.143,0.017-0.283,0.036-0.432,0.044
		c0.362,0.783,0.657,1.46,0.879,1.993c1.453,1.348,2.378,3.253,2.378,5.39v-1c0-2.137-0.925-4.042-2.378-5.39
		C53.998,24.65,53.845,24.296,53.675,23.913z M13.761,23.957c-0.149-0.008-0.29-0.028-0.433-0.045
		c-0.17,0.384-0.324,0.738-0.448,1.038c-1.454,1.348-2.38,3.253-2.38,5.39v1c0-2.137,0.926-4.042,2.38-5.39
		C13.101,25.417,13.396,24.74,13.761,23.957z M17.861,33.548c2.231,0,4.048-1.405,4.048-3.128c0-0.172-0.031-0.337-0.065-0.501
		c-0.313,1.485-1.973,2.629-3.982,2.629c-2.011,0-3.672-1.144-3.984-2.629c-0.034,0.164-0.065,0.329-0.065,0.501
		C13.812,32.143,15.629,33.548,17.861,33.548z M49.116,23.979c-0.173-0.329-0.356-0.664-0.544-1H18.429
		c-0.188,0.336-0.371,0.671-0.544,1H49.116z"/>
</g>
<g id="DO_NOT_EDIT_-_FOCAL_ZONE_GUIDES">
</g>
</svg>
