<?xml version="1.0" encoding="utf-8"?>
<!-- Generator: Adobe Illustrator 15.0.2, SVG Export Plug-In  -->
<!DOCTYPE svg PUBLIC "-//W3C//DTD SVG 1.1//EN" "http://www.w3.org/Graphics/SVG/1.1/DTD/svg11.dtd" [
	<!ENTITY ns_flows "http://ns.adobe.com/Flows/1.0/">
]>
<svg version="1.1"
	 xmlns="http://www.w3.org/2000/svg" xmlns:xlink="http://www.w3.org/1999/xlink" xmlns:a="http://ns.adobe.com/AdobeSVGViewerExtensions/3.0/"
	 x="0px" y="0px" width="67px" height="57px" viewBox="0 0 67 57" enable-background="new 0 0 67 57" xml:space="preserve">
<defs>
</defs>
<rect id="BOUNDING_BOX_1_" fill="none" width="67" height="57"/>
<path opacity="0.3" d="M55.415,12.848l-5.263-5.265c-1.448-1.444-3.812-1.444-5.26,0l-2.615,2.625l10.525,10.524l2.612-2.625
	C56.863,16.663,56.863,14.294,55.415,12.848z M16.582,35.895c-0.722,0.726-1.579,2.111-1.904,3.079L10.593,51.23
	c-0.322,0.967,0.207,1.499,1.178,1.175l12.253-4.081c0.971-0.325,2.353-1.182,3.083-1.904l23.197-23.183L39.782,12.713
	L16.582,35.895z M22.549,45.712l-5.581,1.952l-1.621-1.635l1.949-5.581l1.095-1.102l5.256,5.266L22.549,45.712z"/>
<path opacity="0.15" d="M11.247,52.5c-0.598,0-1.104-0.244-1.423-0.688c-0.358-0.496-0.421-1.17-0.179-1.897l4.084-12.258
	c0.374-1.112,1.315-2.635,2.144-3.468l23.203-23.184c0.195-0.195,0.451-0.292,0.707-0.292s0.512,0.098,0.707,0.293L51.012,21.53
	c0.188,0.188,0.293,0.442,0.293,0.707c0,0.266-0.105,0.52-0.293,0.708L27.814,46.127c-0.841,0.834-2.365,1.774-3.472,2.146
	l-12.255,4.082C11.797,52.451,11.514,52.5,11.247,52.5C11.248,52.5,11.248,52.5,11.247,52.5z M17.234,45.512l4.769-1.668
	l0.231-0.231l-3.841-3.849l-0.228,0.229l-1.668,4.776L17.234,45.512z M52.803,20.731c-0.266,0-0.52-0.105-0.707-0.293L41.57,9.915
	c-0.39-0.39-0.391-1.022-0.001-1.413l2.615-2.625C45.075,4.988,46.261,4.5,47.522,4.5s2.447,0.488,3.336,1.375l5.264,5.266
	c0.89,0.888,1.38,2.074,1.379,3.339c0,1.264-0.49,2.448-1.38,3.335l-2.609,2.622C53.324,20.625,53.069,20.731,52.803,20.731
	L52.803,20.731z"/>
<path opacity="0.15" d="M55.415,11.848l-5.263-5.265c-1.448-1.444-3.812-1.444-5.26,0l-2.615,2.625l10.525,10.524l2.612-2.625
	C56.863,15.663,56.863,13.294,55.415,11.848z M16.582,34.895c-0.722,0.726-1.579,2.111-1.904,3.079L10.593,50.23
	c-0.322,0.967,0.207,1.499,1.178,1.175l12.253-4.081c0.971-0.325,2.353-1.182,3.083-1.904l23.197-23.183L39.782,11.713
	L16.582,34.895z M22.549,44.712l-5.581,1.952l-1.621-1.635l1.949-5.581l1.095-1.102l5.256,5.266L22.549,44.712z"/>
<linearGradient id="SVGID_1_" gradientUnits="userSpaceOnUse" x1="33.5005" y1="51.5" x2="33.5005" y2="5.5">
	<stop  offset="0" style="stop-color:#D0CBC5"/>
	<stop  offset="0.5031" style="stop-color:#FAFCEF"/>
	<stop  offset="0.9693" style="stop-color:#FFFFFF"/>
</linearGradient>
<path fill="url(#SVGID_1_)" d="M55.415,11.848l-5.263-5.265c-1.448-1.444-3.812-1.444-5.26,0l-2.615,2.625l10.525,10.524
	l2.612-2.625C56.863,15.663,56.863,13.294,55.415,11.848z M16.582,34.895c-0.722,0.726-1.579,2.111-1.904,3.079L10.593,50.23
	c-0.322,0.967,0.207,1.499,1.178,1.175l12.253-4.081c0.971-0.325,2.353-1.182,3.083-1.904l23.197-23.183L39.782,11.713
	L16.582,34.895z M22.549,44.712l-5.581,1.952l-1.621-1.635l1.949-5.581l1.095-1.102l5.256,5.266L22.549,44.712z"/>
<path fill="#FFFFFF" d="M55.415,11.848l-5.263-5.265c-1.448-1.444-3.812-1.444-5.26,0l-2.615,2.625l0.499,0.499l2.116-2.124
	c1.448-1.444,3.812-1.444,5.26,0l5.263,5.265c0.597,0.596,0.934,1.35,1.038,2.13C56.604,13.865,56.267,12.698,55.415,11.848z
	 M16.582,34.895c-0.722,0.726-1.579,2.111-1.904,3.079L10.593,50.23c-0.134,0.402-0.113,0.724,0.018,0.945l4.066-12.202
	c0.325-0.968,1.182-2.354,1.904-3.079l23.201-23.182l10.022,10.024l0.5-0.5L39.782,11.713L16.582,34.895z M22.549,44.712
	l-5.581,1.952l-1.362-1.374l-0.258,0.739l1.621,1.635l5.581-1.952l1.099-1.1l-0.5-0.5L22.549,44.712z"/>
</svg>
