<?xml version="1.0" encoding="utf-8"?>
<!-- Generator: Adobe Illustrator 15.0.0, SVG Export Plug-In . SVG Version: 6.00 Build 0)  -->
<!DOCTYPE svg PUBLIC "-//W3C//DTD SVG 1.1//EN" "http://www.w3.org/Graphics/SVG/1.1/DTD/svg11.dtd">
<svg version="1.1" id="Ebene_1" xmlns="http://www.w3.org/2000/svg" xmlns:xlink="http://www.w3.org/1999/xlink" x="0px" y="0px"
	 width="67px" height="57px" viewBox="0 0 67 57" enable-background="new 0 0 67 57" xml:space="preserve">
<g id="DO_NOT_EDIT_-_BOUNDING_BOX">
	<rect id="BOUNDING_BOX" fill="none" width="67" height="57"/>
</g>
<g id="PLACE_YOUR_GRAPHIC_HERE">
	<path opacity="0.3" enable-background="new    " d="M20.009,32.164c1.699-0.423,3.251-0.625,4.699-0.663v-9.338
		c-1.448,0-3,0.181-4.699,0.601V32.164z M52.906,38.428v-7.83c-1.703,0.245-3.254,0.262-4.698,0.125v7.896
		C49.652,38.713,51.203,38.671,52.906,38.428z M32.541,32.961c2.686,1.046,5.148,2.457,7.832,3.625v-8.303
		c-2.684-1.363-5.146-3.01-7.832-4.256V32.961z M16.241,6.5c-0.962,0-1.75,0.9-1.75,2v42c0,1.1,0.788,2,1.75,2
		c0.962,0,1.75-0.9,1.75-2v-42C17.991,7.4,17.203,6.5,16.241,6.5z M40.373,20.454v7.829c2.342,1.191,4.855,2.154,7.835,2.438v-7.829
		C45.229,22.613,42.715,21.645,40.373,20.454z M40.373,12.62c-2.684-1.362-5.146-3.016-7.832-4.263v7.835
		c2.686,1.253,5.148,2.9,7.832,4.262V12.62z M52.906,22.764v-7.835c-1.703,0.245-3.254,0.266-4.698,0.129v7.835
		C49.652,23.024,51.203,23.007,52.906,22.764z M20.009,7.099v7.83c1.699-0.42,3.251-0.601,4.699-0.601V6.5
		C23.26,6.5,21.708,6.676,20.009,7.099z M24.708,14.328v7.835c2.974,0,5.488,0.774,7.833,1.864v-7.835
		C30.196,15.104,27.682,14.328,24.708,14.328z"/>
	<rect x="16.381" y="16.446" fill="none" width="30" height="30"/>
	<path opacity="0.15" enable-background="new    " d="M16.241,52.5c-1.517,0-2.75-1.346-2.75-3v-42c0-1.654,1.233-3,2.75-3
		c1.517,0,2.75,1.346,2.75,3v42C18.991,51.154,17.758,52.5,16.241,52.5z M49.637,38.665c-3.802-0.023-9.535-2.106-9.662-2.163
		c-1.164-0.507-2.293-1.061-3.384-1.596c-1.497-0.735-2.911-1.43-4.413-2.016c-0.384-0.148-4.438-1.316-7.444-1.392
		c-1.458,0.038-2.925,0.245-4.484,0.634c-0.08,0.02-0.161,0.029-0.242,0.029c-0.221,0-0.438-0.073-0.616-0.212
		c-0.243-0.188-0.384-0.479-0.384-0.788V6.096c0-0.459,0.313-0.859,0.758-0.97c1.699-0.42,3.316-0.626,4.942-0.626
		c0.552,0,7.236,0.876,12.718,4.349c1.104,0.635,2.244,1.292,3.399,1.879c4.522,2.021,8.606,2.413,9.172,2.413
		c0.899,0,1.83-0.068,2.767-0.203c0.047-0.007,0.096-0.01,0.143-0.01c0.238,0,0.472,0.085,0.654,0.244
		c0.219,0.19,0.346,0.466,0.346,0.756v23.5c0,0.497-0.365,0.92-0.858,0.99C51.898,38.581,50.751,38.672,49.637,38.665z"/>
	<path opacity="0.15" enable-background="new    " d="M20.009,31.164c1.699-0.423,3.251-0.625,4.699-0.663v-9.338
		c-1.448,0-3,0.181-4.699,0.601V31.164z M52.906,37.428v-7.83c-1.703,0.245-3.254,0.262-4.698,0.125v7.896
		C49.652,37.713,51.203,37.671,52.906,37.428z M32.541,31.961c2.686,1.046,5.148,2.457,7.832,3.625v-8.303
		c-2.684-1.363-5.146-3.01-7.832-4.256V31.961z M16.241,5.5c-0.962,0-1.75,0.9-1.75,2v42c0,1.1,0.788,2,1.75,2
		c0.962,0,1.75-0.9,1.75-2v-42C17.991,6.4,17.203,5.5,16.241,5.5z M40.373,19.454v7.829c2.342,1.191,4.855,2.154,7.835,2.438v-7.829
		C45.229,21.613,42.715,20.645,40.373,19.454z M40.373,11.62c-2.684-1.362-5.146-3.016-7.832-4.263v7.835
		c2.686,1.253,5.148,2.9,7.832,4.262V11.62z M52.906,21.764v-7.835c-1.703,0.245-3.254,0.266-4.698,0.129v7.835
		C49.652,22.024,51.203,22.007,52.906,21.764z M20.009,6.099v7.83c1.699-0.42,3.251-0.601,4.699-0.601V5.5
		C23.26,5.5,21.708,5.676,20.009,6.099z M24.708,13.328v7.835c2.974,0,5.488,0.774,7.833,1.864v-7.835
		C30.196,14.104,27.682,13.328,24.708,13.328z"/>
	
		<linearGradient id="SVGID_1_" gradientUnits="userSpaceOnUse" x1="319.2988" y1="-402.4004" x2="319.2988" y2="-356.4004" gradientTransform="matrix(1 0 0 -1 -285.5996 -350.9004)">
		<stop  offset="0" style="stop-color:#D0CBC5"/>
		<stop  offset="0.5031" style="stop-color:#FAFCEF"/>
		<stop  offset="0.9693" style="stop-color:#FFFFFF"/>
	</linearGradient>
	<path fill="url(#SVGID_1_)" d="M20.009,31.164c1.699-0.423,3.251-0.625,4.699-0.663v-9.338c-1.448,0-3,0.181-4.699,0.601V31.164z
		 M52.906,37.428v-7.83c-1.703,0.245-3.254,0.262-4.698,0.125v7.896C49.652,37.713,51.203,37.671,52.906,37.428z M32.541,31.961
		c2.686,1.046,5.148,2.457,7.832,3.625v-8.303c-2.684-1.363-5.146-3.01-7.832-4.256V31.961z M16.241,5.5c-0.962,0-1.75,0.9-1.75,2
		v42c0,1.1,0.788,2,1.75,2c0.962,0,1.75-0.9,1.75-2v-42C17.991,6.4,17.203,5.5,16.241,5.5z M40.373,19.454v7.829
		c2.342,1.191,4.855,2.154,7.835,2.438v-7.829C45.229,21.613,42.715,20.645,40.373,19.454z M40.373,11.62
		c-2.684-1.362-5.146-3.016-7.832-4.263v7.835c2.686,1.253,5.148,2.9,7.832,4.262V11.62z M52.906,21.764v-7.835
		c-1.703,0.245-3.254,0.266-4.698,0.129v7.835C49.652,22.024,51.203,22.007,52.906,21.764z M20.009,6.099v7.83
		c1.699-0.42,3.251-0.601,4.699-0.601V5.5C23.26,5.5,21.708,5.676,20.009,6.099z M24.708,13.328v7.835
		c2.974,0,5.488,0.774,7.833,1.864v-7.835C30.196,14.104,27.682,13.328,24.708,13.328z"/>
	<path fill="#FFFFFF" d="M40.373,12.62c-2.684-1.362-5.146-3.016-7.832-4.263v-1c2.686,1.247,5.148,2.9,7.832,4.263V12.62z
		 M24.708,14.328c2.974,0,5.488,0.776,7.833,1.864v-1c-2.345-1.088-4.859-1.864-7.833-1.864V14.328z M40.373,20.454
		c2.342,1.19,4.855,2.159,7.835,2.438v-1c-2.979-0.279-5.493-1.248-7.835-2.438V20.454z M24.708,5.5c-1.448,0-3,0.176-4.699,0.599v1
		C21.708,6.676,23.26,6.5,24.708,6.5V5.5z M48.208,29.723v1c1.444,0.137,2.995,0.12,4.698-0.125v-1
		C51.203,29.843,49.652,29.859,48.208,29.723z M16.241,5.5c-0.962,0-1.75,0.9-1.75,2v1c0-1.1,0.788-2,1.75-2
		c0.962,0,1.75,0.9,1.75,2v-1C17.991,6.4,17.203,5.5,16.241,5.5z M32.541,23.027v1c2.686,1.246,5.148,2.893,7.832,4.256v-1
		C37.689,25.92,35.227,24.273,32.541,23.027z M48.208,14.058v1c1.444,0.137,2.995,0.116,4.698-0.129v-1
		C51.203,14.174,49.652,14.194,48.208,14.058z M20.009,21.764v1c1.699-0.42,3.251-0.601,4.699-0.601v-1
		C23.26,21.163,21.708,21.344,20.009,21.764z"/>
</g>
<g id="DO_NOT_EDIT_-_FOCAL_ZONE_GUIDES">
</g>
</svg>
