<?xml version="1.0" encoding="utf-8"?>
<!-- Generator: Adobe Illustrator 15.0.2, SVG Export Plug-In . SVG Version: 6.00 Build 0)  -->
<!DOCTYPE svg PUBLIC "-//W3C//DTD SVG 1.1//EN" "http://www.w3.org/Graphics/SVG/1.1/DTD/svg11.dtd">
<svg version="1.1" xmlns="http://www.w3.org/2000/svg" xmlns:xlink="http://www.w3.org/1999/xlink" x="0px" y="0px" width="67px"
	 height="57px" viewBox="0 0 67 57" enable-background="new 0 0 67 57" xml:space="preserve">
<g id="DO_NOT_EDIT_-_BOUNDING_BOX">
	<rect id="BOUNDING_BOX" fill="none" width="67" height="57"/>
</g>
<g id="PLACE_YOUR_GRAPHIC_HERE">
	<path opacity="0.3" d="M51.404,25.023c-5.884-4.028-13.807-4.293-16.358-4.261l-0.002-0.013l-3.759,0.001v0.018
		c-3.244,0.067-10.109,0.666-15.354,4.255c0,0-8.735,5.108-3.696,13.293c0.706,1.148,2.255,0.669,2.255,0.669l6.042-2.752
		c1.525-0.477,1.419-1.76,1.419-1.76l0.228-4.056c0.024,0.349-0.246-3.906,11.137-4.084h0.56l0.001,0.003
		c11.386,0.176,11.114,4.43,11.135,4.084l0.376,4.048c0,0-0.106,1.288,1.418,1.762l6.037,2.755c0,0,1.555,0.479,2.261-0.668
		C60.142,30.128,51.404,25.023,51.404,25.023z M40.283,30.155c-1.373-0.313-11.869-0.319-13.24-0.009
		c-1.981,0.449-1.239,4.988-1.239,4.988l15.736,0.015C41.54,35.149,42.268,30.609,40.283,30.155z"/>
	<path opacity="0.15" d="M53.584,39.085c-0.541,0-0.957-0.12-1.035-0.144c-0.041-0.013-0.081-0.028-0.12-0.046l-5.983-2.73
		c-1.673-0.552-2.075-1.927-2.059-2.672l-0.36-3.876c-0.003-0.015-0.005-0.029-0.008-0.044c-0.004-0.031-0.569-3.088-10.156-3.236
		c-0.022,0-0.546-0.003-0.546-0.003c-9.537,0.149-10.139,3.214-10.144,3.246c0,0.002-0.219,3.896-0.219,3.896
		c0.024,0.738-0.37,2.133-2.059,2.691l-5.99,2.729c-0.039,0.018-0.078,0.032-0.119,0.045c-0.078,0.024-0.493,0.145-1.033,0.145
		c-1.035,0-1.877-0.442-2.37-1.245c-1.587-2.579-2.076-5.152-1.453-7.648c1.105-4.42,5.317-6.927,5.496-7.032
		c5.226-3.579,11.977-4.292,15.652-4.387c0.066-0.014,0.136-0.022,0.206-0.022l3.76-0.001c0.052,0,0.104,0.004,0.153,0.012
		l0.209-0.001c3.031,0,10.712,0.433,16.563,4.438c0.119,0.066,4.332,2.571,5.438,6.992c0.625,2.496,0.137,5.07-1.451,7.651
		C55.463,38.644,54.62,39.085,53.584,39.085L53.584,39.085z M25.803,35.135c-0.49,0-0.907-0.355-0.986-0.839
		c-0.149-0.913-0.755-5.499,2.004-6.125c1.042-0.236,5.417-0.254,6.733-0.254c0.968,0,5.852,0.013,6.951,0.263
		c2.758,0.631,2.168,5.215,2.021,6.127c-0.077,0.485-0.496,0.842-0.987,0.842L25.803,35.135z"/>
	<path opacity="0.15" d="M51.404,24.023c-5.884-4.028-13.807-4.293-16.358-4.261l-0.002-0.013l-3.759,0.001v0.018
		c-3.244,0.067-10.109,0.666-15.354,4.255c0,0-8.735,5.108-3.696,13.293c0.706,1.148,2.255,0.669,2.255,0.669l6.042-2.752
		c1.525-0.477,1.419-1.76,1.419-1.76l0.228-4.056c0.024,0.349-0.246-3.906,11.137-4.084h0.56l0.001,0.003
		c11.386,0.176,11.114,4.43,11.135,4.084l0.376,4.048c0,0-0.106,1.288,1.418,1.762l6.037,2.755c0,0,1.555,0.479,2.261-0.668
		C60.142,29.128,51.404,24.023,51.404,24.023z M40.283,29.155c-1.373-0.313-11.869-0.319-13.24-0.009
		c-1.981,0.449-1.239,4.988-1.239,4.988l15.736,0.015C41.54,34.149,42.268,29.609,40.283,29.155z"/>
	<linearGradient id="SVGID_1_" gradientUnits="userSpaceOnUse" x1="33.6694" y1="38.085" x2="33.6694" y2="19.7495">
		<stop  offset="0" style="stop-color:#D0CBC5"/>
		<stop  offset="0.5031" style="stop-color:#FAFCEF"/>
		<stop  offset="0.9693" style="stop-color:#FFFFFF"/>
	</linearGradient>
	<path fill="url(#SVGID_1_)" d="M51.404,24.023c-5.884-4.028-13.807-4.293-16.358-4.261l-0.002-0.013l-3.759,0.001v0.018
		c-3.244,0.067-10.109,0.666-15.354,4.255c0,0-8.735,5.108-3.696,13.293c0.706,1.148,2.255,0.669,2.255,0.669l6.042-2.752
		c1.525-0.477,1.419-1.76,1.419-1.76l0.228-4.056c0.024,0.349-0.246-3.906,11.137-4.084h0.56l0.001,0.003
		c11.386,0.176,11.114,4.43,11.135,4.084l0.376,4.048c0,0-0.106,1.288,1.418,1.762l6.037,2.755c0,0,1.555,0.479,2.261-0.668
		C60.142,29.128,51.404,24.023,51.404,24.023z M40.283,29.155c-1.373-0.313-11.869-0.319-13.24-0.009
		c-1.981,0.449-1.239,4.988-1.239,4.988l15.736,0.015C41.54,34.149,42.268,29.609,40.283,29.155z"/>
	<path fill="#FFFFFF" d="M40.283,29.155c-1.373-0.313-11.869-0.319-13.24-0.009c-1.282,0.291-1.422,2.291-1.363,3.668
		c0.062-1.192,0.371-2.443,1.363-2.668c1.372-0.311,11.867-0.305,13.24,0.009c1.007,0.23,1.314,1.512,1.374,2.719
		C41.718,31.495,41.582,29.452,40.283,29.155z M51.404,24.023c-5.884-4.028-13.807-4.293-16.358-4.261l-0.002-0.013l-3.759,0.001
		v0.018c-3.244,0.067-10.109,0.666-15.354,4.255c0,0-5.563,3.259-5.242,8.74c0.345-4.875,5.242-7.74,5.242-7.74
		c5.245-3.589,12.109-4.188,15.354-4.255V20.75l3.759-0.001l0.002,0.013c2.552-0.032,10.475,0.233,16.358,4.261
		c0,0,4.899,2.863,5.245,7.741C56.97,27.281,51.404,24.023,51.404,24.023z"/>
</g>
<g id="DO_NOT_EDIT_-_FOCAL_ZONE_GUIDES">
</g>
</svg>
