<?xml version="1.0" encoding="utf-8"?>
<!-- Generator: Adobe Illustrator 15.0.0, SVG Export Plug-In . SVG Version: 6.00 Build 0)  -->
<!DOCTYPE svg PUBLIC "-//W3C//DTD SVG 1.1//EN" "http://www.w3.org/Graphics/SVG/1.1/DTD/svg11.dtd">
<svg version="1.1" xmlns="http://www.w3.org/2000/svg" xmlns:xlink="http://www.w3.org/1999/xlink" x="0px" y="0px" width="67px"
	 height="57px" viewBox="0 0 67 57" enable-background="new 0 0 67 57" xml:space="preserve">
<g id="DO_NOT_EDIT_-_BOUNDING_BOX">
	<rect id="BOUNDING_BOX" fill="none" width="67" height="57"/>
</g>
<g id="PLACE_YOUR_GRAPHIC_HERE">
	<path opacity="0.3" d="M18.714,36.071h-4.929v-23h4.929V9.786H10.5v29.572h8.214V36.071z M46.243,43.591
		c-2.44-1.471-4.867-2.44-4.867-2.44c-0.339-0.136-0.641-0.295-0.906-0.468c-1.496-1.056-2.253-2.93-2.336-3.216
		c-0.209-0.866-0.394-1.784-0.09-2.079c1.508-1.341,2.102-4.543,2.102-4.543c0.038-0.126,0.075-0.241,0.123-0.356
		c0.736,0.936,1.122-1.263,1.423-2.269c0.314-1.068,0.453-1.762,0.453-1.762c0.131-1.078-0.664-0.761-0.664-0.761l-0.064,0.071
		c0.115-1.505,0.536-2.425,0.536-3.777c0.013-2.099,0.508-2.859-1.569-6.068c-0.636-0.992-1.524-1.155-5.205-2.379
		c-3.664-1.222-4.191,0.329-5.414,0.178c-1.213-0.147-1.383,0.359-1.614,0.809c-0.24,0.446,0,0.804-0.671,0.831
		c-0.664,0.034-0.962,0.562-0.962,0.562c-1.977,3.27-1.244,4.253-1.308,6.347c-0.037,1.11,0.136,1.938,0.699,3.469l-0.067-0.08
		c0,0-0.773-0.379-0.714,0.709c0,0-0.11,0.337,0.334,1.787c0.26,0.838,0.462,3.157,1.216,2.423c0.025,0.088,0.058,0.18,0.087,0.267
		c0,0,0.597,3.202,2.104,4.545c0.307,0.297,0.112,1.211-0.1,2.081c-0.087,0.325-0.514,2.592-3.173,3.684
		c0,0-2.423,0.969-4.865,2.438c0,0-1.64,0.844-1.983,2.242l-0.034,0.206c1.391,0.818,3.031,1.482,4.932,1.989
		c4.656,1.243,7.87,1.216,10.039,1.168c2.171,0.048,5.379,0.075,10.03-1.168c1.771-0.467,3.276-1.081,4.569-1.819l-0.067-0.376
		C47.878,44.435,46.243,43.591,46.243,43.591z M48.286,9.786v3.286h4.928v23h-4.928v3.286H56.5V9.786H48.286z"/>
	<rect x="16.381" y="16.446" fill="none" width="30" height="30"/>
	<path opacity="0.15" d="M34.96,49.215c-0.469,0-0.9-0.008-1.297-0.017c-0.353,0.009-0.784,0.017-1.252,0.017
		c-1.915,0-4.932-0.126-9.022-1.219c-1.969-0.524-3.712-1.229-5.181-2.093c-0.356-0.21-0.547-0.616-0.48-1.023l0.034-0.206
		c0.455-1.866,2.303-2.862,2.512-2.971c2.424-1.461,4.849-2.437,4.951-2.478c0.927-0.381,2.132-1.201,2.557-2.928
		c0.164-0.672,0.244-1.103,0.248-1.324c-1.221-1.198-1.86-3.296-2.117-4.345c-0.799-0.324-1.036-1.466-1.249-2.492
		c-0.055-0.266-0.104-0.512-0.158-0.686c-0.369-1.202-0.418-1.805-0.382-2.145c-0.009-0.544,0.134-0.976,0.427-1.285
		c0.014-0.015,0.028-0.029,0.042-0.042c-0.317-1.042-0.416-1.806-0.384-2.742c0.014-0.45-0.014-0.846-0.04-1.227
		c-0.097-1.454-0.188-2.827,1.491-5.604c0.218-0.387,0.73-0.868,1.463-1.006c0.035-0.109,0.081-0.224,0.145-0.343
		c0.242-0.481,0.684-1.36,2.1-1.36c0.154,0,0.325,0.01,0.516,0.033c0.003,0,0.007,0,0.01,0c0.176,0,0.366-0.078,0.605-0.176
		c0.495-0.203,1.174-0.482,2.21-0.482c0.816,0,1.727,0.171,2.784,0.524l1.378,0.454c2.703,0.884,3.613,1.181,4.353,2.335
		c1.807,2.791,1.846,3.979,1.76,5.688c-0.015,0.284-0.03,0.586-0.032,0.925c0,0.833-0.142,1.52-0.277,2.185
		c-0.048,0.233-0.097,0.471-0.141,0.719c0.089,0.061,0.17,0.133,0.243,0.215c0.313,0.354,0.435,0.846,0.36,1.462
		c-0.019,0.105-0.164,0.825-0.487,1.923c-0.047,0.158-0.095,0.342-0.146,0.538c-0.306,1.165-0.62,2.366-1.516,2.624
		c-0.261,1.054-0.896,3.101-2.106,4.308c0.001,0.177,0.049,0.535,0.224,1.261c0.073,0.227,0.755,1.797,1.94,2.633
		c0.192,0.124,0.438,0.252,0.702,0.356c0.102,0.041,2.529,1.018,5.012,2.513c0.151,0.075,1.995,1.073,2.429,2.865l0.08,0.435
		c0.074,0.417-0.121,0.835-0.488,1.045c-1.403,0.802-3.022,1.447-4.811,1.918C39.887,49.089,36.872,49.215,34.96,49.215z
		 M48.286,39.357c-0.553,0-1-0.447-1-1v-3.286c0-0.553,0.447-1,1-1h3.928v-21h-3.928c-0.553,0-1-0.448-1-1V8.786
		c0-0.552,0.447-1,1-1H56.5c0.553,0,1,0.448,1,1v29.572c0,0.553-0.447,1-1,1H48.286z M10.5,39.357c-0.552,0-1-0.447-1-1V8.786
		c0-0.552,0.448-1,1-1h8.214c0.552,0,1,0.448,1,1v3.286c0,0.552-0.448,1-1,1h-3.929v21h3.929c0.552,0,1,0.447,1,1v3.286
		c0,0.553-0.448,1-1,1H10.5z"/>
	<path opacity="0.15" d="M18.714,35.071h-4.929v-23h4.929V8.786H10.5v29.572h8.214V35.071z M46.243,42.591
		c-2.44-1.471-4.867-2.44-4.867-2.44c-0.339-0.136-0.641-0.295-0.906-0.468c-1.496-1.056-2.253-2.93-2.336-3.216
		c-0.209-0.866-0.394-1.784-0.09-2.079c1.508-1.341,2.102-4.543,2.102-4.543c0.038-0.126,0.075-0.241,0.123-0.356
		c0.736,0.936,1.122-1.263,1.423-2.269c0.314-1.068,0.453-1.762,0.453-1.762c0.131-1.078-0.664-0.761-0.664-0.761l-0.064,0.071
		c0.115-1.505,0.536-2.425,0.536-3.777c0.013-2.099,0.508-2.859-1.569-6.068c-0.636-0.992-1.524-1.155-5.205-2.379
		c-3.664-1.222-4.191,0.329-5.414,0.178c-1.213-0.147-1.383,0.359-1.614,0.809c-0.24,0.446,0,0.804-0.671,0.831
		c-0.664,0.034-0.962,0.562-0.962,0.562c-1.977,3.27-1.244,4.253-1.308,6.347c-0.037,1.11,0.136,1.938,0.699,3.469l-0.067-0.08
		c0,0-0.773-0.379-0.714,0.709c0,0-0.11,0.337,0.334,1.787c0.26,0.838,0.462,3.157,1.216,2.423c0.025,0.088,0.058,0.18,0.087,0.267
		c0,0,0.597,3.202,2.104,4.545c0.307,0.297,0.112,1.211-0.1,2.081c-0.087,0.325-0.514,2.592-3.173,3.684
		c0,0-2.423,0.969-4.865,2.438c0,0-1.64,0.844-1.983,2.242l-0.034,0.206c1.391,0.818,3.031,1.482,4.932,1.989
		c4.656,1.243,7.87,1.216,10.039,1.168c2.171,0.048,5.379,0.075,10.03-1.168c1.771-0.467,3.276-1.081,4.569-1.819l-0.067-0.376
		C47.878,43.435,46.243,42.591,46.243,42.591z M48.286,8.786v3.286h4.928v23h-4.928v3.286H56.5V8.786H48.286z"/>
	<linearGradient id="SVGID_1_" gradientUnits="userSpaceOnUse" x1="33.5005" y1="48.2148" x2="33.5005" y2="8.7861">
		<stop  offset="0" style="stop-color:#D0CBC5"/>
		<stop  offset="0.5031" style="stop-color:#FAFCEF"/>
		<stop  offset="0.9693" style="stop-color:#FFFFFF"/>
	</linearGradient>
	<path fill="url(#SVGID_1_)" d="M18.714,35.071h-4.929v-23h4.929V8.786H10.5v29.572h8.214V35.071z M46.243,42.591
		c-2.44-1.471-4.867-2.44-4.867-2.44c-0.339-0.136-0.641-0.295-0.906-0.468c-1.496-1.056-2.253-2.93-2.336-3.216
		c-0.209-0.866-0.394-1.784-0.09-2.079c1.508-1.341,2.102-4.543,2.102-4.543c0.038-0.126,0.075-0.241,0.123-0.356
		c0.736,0.936,1.122-1.263,1.423-2.269c0.314-1.068,0.453-1.762,0.453-1.762c0.131-1.078-0.664-0.761-0.664-0.761l-0.064,0.071
		c0.115-1.505,0.536-2.425,0.536-3.777c0.013-2.099,0.508-2.859-1.569-6.068c-0.636-0.992-1.524-1.155-5.205-2.379
		c-3.664-1.222-4.191,0.329-5.414,0.178c-1.213-0.147-1.383,0.359-1.614,0.809c-0.24,0.446,0,0.804-0.671,0.831
		c-0.664,0.034-0.962,0.562-0.962,0.562c-1.977,3.27-1.244,4.253-1.308,6.347c-0.037,1.11,0.136,1.938,0.699,3.469l-0.067-0.08
		c0,0-0.773-0.379-0.714,0.709c0,0-0.11,0.337,0.334,1.787c0.26,0.838,0.462,3.157,1.216,2.423c0.025,0.088,0.058,0.18,0.087,0.267
		c0,0,0.597,3.202,2.104,4.545c0.307,0.297,0.112,1.211-0.1,2.081c-0.087,0.325-0.514,2.592-3.173,3.684
		c0,0-2.423,0.969-4.865,2.438c0,0-1.64,0.844-1.983,2.242l-0.034,0.206c1.391,0.818,3.031,1.482,4.932,1.989
		c4.656,1.243,7.87,1.216,10.039,1.168c2.171,0.048,5.379,0.075,10.03-1.168c1.771-0.467,3.276-1.081,4.569-1.819l-0.067-0.376
		C47.878,43.435,46.243,42.591,46.243,42.591z M48.286,8.786v3.286h4.928v23h-4.928v3.286H56.5V8.786H48.286z"/>
	<path fill="#FFFFFF" d="M25.162,25.96c-0.078-0.458-0.035-0.592-0.035-0.592c-0.033-0.607,0.192-0.752,0.399-0.767
		c0.101,0.34,0.225,0.709,0.382,1.138l-0.067-0.08C25.841,25.659,25.302,25.403,25.162,25.96z M26.517,15.924
		c0,0,0.298-0.528,0.962-0.562c0.671-0.027,0.431-0.385,0.671-0.831c0.231-0.449,0.401-0.956,1.614-0.809
		c1.223,0.151,1.75-1.4,5.414-0.178c3.681,1.224,4.569,1.388,5.205,2.379c1.211,1.871,1.546,2.909,1.613,3.866
		c0.063-1.334,0.019-2.346-1.613-4.866c-0.636-0.992-1.524-1.155-5.205-2.379c-3.664-1.222-4.191,0.329-5.414,0.178
		c-1.213-0.147-1.383,0.359-1.614,0.809c-0.24,0.446,0,0.804-0.671,0.831c-0.664,0.034-0.962,0.562-0.962,0.562
		c-1.371,2.268-1.438,3.436-1.373,4.637C25.212,18.639,25.52,17.572,26.517,15.924z M41.56,24.675
		c-0.06,0.337-0.113,0.693-0.144,1.094l0.064-0.071c0,0,0.393-0.149,0.58,0.138c0.056-0.238,0.084-0.377,0.084-0.377
		C42.251,24.584,41.754,24.627,41.56,24.675z M53.214,35.071h-4.928v1h4.928V35.071z M25.206,21.646
		c0.001,0.03,0.002,0.061,0.002,0.092C25.208,21.707,25.206,21.676,25.206,21.646z M46.243,42.591
		c-2.44-1.471-4.867-2.44-4.867-2.44c-0.339-0.136-0.641-0.295-0.906-0.468c-1.496-1.056-2.253-2.93-2.336-3.216
		c-0.074-0.307-0.144-0.618-0.19-0.907c-0.146,0.396,0.012,1.168,0.19,1.907c0.083,0.286,0.84,2.16,2.336,3.216
		c0.266,0.173,0.567,0.332,0.906,0.468c0,0,2.427,0.97,4.867,2.44c0,0,1.255,0.647,1.793,1.75c0.081-0.044,0.169-0.085,0.248-0.13
		l-0.067-0.376C47.878,43.435,46.243,42.591,46.243,42.591z M48.286,8.786v1H56.5v-1H48.286z M18.714,36.071v-1h-4.929v1H18.714z
		 M19.015,45.202c0.576-1.013,1.716-1.609,1.716-1.609c2.442-1.47,4.865-2.438,4.865-2.438c2.659-1.092,3.086-3.358,3.173-3.684
		c0.183-0.749,0.35-1.528,0.198-1.921c-0.049,0.293-0.122,0.609-0.198,0.921c-0.087,0.325-0.514,2.592-3.173,3.684
		c0,0-2.423,0.969-4.865,2.438c0,0-1.64,0.844-1.983,2.242l-0.034,0.206C18.81,45.098,18.917,45.147,19.015,45.202z M18.714,8.786
		H10.5v1h8.214V8.786z"/>
</g>
<g id="DO_NOT_EDIT_-_FOCAL_ZONE_GUIDES">
</g>
</svg>
