<?xml version="1.0" encoding="utf-8"?>
<!-- Generator: Adobe Illustrator 15.0.0, SVG Export Plug-In . SVG Version: 6.00 Build 0)  -->
<!DOCTYPE svg PUBLIC "-//W3C//DTD SVG 1.1//EN" "http://www.w3.org/Graphics/SVG/1.1/DTD/svg11.dtd">
<svg version="1.1" xmlns="http://www.w3.org/2000/svg" xmlns:xlink="http://www.w3.org/1999/xlink" x="0px" y="0px" width="67px"
	 height="57px" viewBox="0 0 67 57" enable-background="new 0 0 67 57" xml:space="preserve">
<g id="DO_NOT_EDIT_-_BOUNDING_BOX">
	<rect id="BOUNDING_BOX" fill="none" width="67" height="57"/>
</g>
<g id="PLACE_YOUR_GRAPHIC_HERE">
	<path opacity="0.3" d="M13.615,12.669c-0.348-0.277-0.771-0.419-1.198-0.419c-0.281,0-0.565,0.063-0.831,0.191
		c-0.663,0.318-1.085,0.988-1.085,1.726v30.667c0,0.738,0.423,1.408,1.085,1.727c0.266,0.127,0.55,0.19,0.831,0.19
		c0.427,0,0.85-0.143,1.198-0.419l19.167-15.334c0.453-0.363,0.719-0.913,0.719-1.497s-0.266-1.134-0.719-1.497L13.615,12.669z
		 M55.781,28.003L36.614,12.669c-0.348-0.277-0.771-0.419-1.197-0.419c-0.281,0-0.565,0.063-0.831,0.191
		c-0.663,0.318-1.086,0.988-1.086,1.726V29.5v15.333c0,0.738,0.423,1.408,1.086,1.727c0.266,0.127,0.55,0.19,0.831,0.19
		c0.427,0,0.85-0.143,1.197-0.419l19.167-15.334c0.453-0.363,0.719-0.913,0.719-1.497S56.234,28.366,55.781,28.003z"/>
	<path opacity="0.15" d="M35.417,46.75c-0.432,0-0.868-0.1-1.263-0.288c-1.005-0.483-1.654-1.515-1.654-2.629v-12.33L14.239,46.112
		c-0.519,0.412-1.166,0.638-1.823,0.638c-0.431,0-0.867-0.1-1.262-0.288C10.148,45.979,9.5,44.947,9.5,43.833V13.167
		c0-1.113,0.648-2.145,1.652-2.627c0.396-0.189,0.833-0.29,1.264-0.29c0.659,0,1.306,0.227,1.821,0.637L32.5,25.497V13.167
		c0-1.114,0.649-2.145,1.653-2.627c0.395-0.189,0.831-0.29,1.264-0.29c0.659,0,1.306,0.227,1.821,0.638l19.168,15.334
		C57.102,26.78,57.5,27.61,57.5,28.5c0,0.891-0.398,1.721-1.093,2.277L37.239,46.112C36.721,46.524,36.074,46.75,35.417,46.75z"/>
	<path opacity="0.15" d="M13.615,11.669c-0.348-0.277-0.771-0.419-1.198-0.419c-0.281,0-0.565,0.063-0.831,0.191
		c-0.663,0.318-1.085,0.988-1.085,1.726v30.667c0,0.738,0.423,1.408,1.085,1.727c0.266,0.127,0.55,0.19,0.831,0.19
		c0.427,0,0.85-0.143,1.198-0.419l19.167-15.334c0.453-0.363,0.719-0.913,0.719-1.497s-0.266-1.134-0.719-1.497L13.615,11.669z
		 M55.781,27.003L36.614,11.669c-0.348-0.277-0.771-0.419-1.197-0.419c-0.281,0-0.565,0.063-0.831,0.191
		c-0.663,0.318-1.086,0.988-1.086,1.726V28.5v15.333c0,0.738,0.423,1.408,1.086,1.727c0.266,0.127,0.55,0.19,0.831,0.19
		c0.427,0,0.85-0.143,1.197-0.419l19.167-15.334c0.453-0.363,0.719-0.913,0.719-1.497S56.234,27.366,55.781,27.003z"/>
	<linearGradient id="SVGID_1_" gradientUnits="userSpaceOnUse" x1="33.5005" y1="45.75" x2="33.5005" y2="11.2505">
		<stop  offset="0" style="stop-color:#D0CBC5"/>
		<stop  offset="0.5031" style="stop-color:#FAFCEF"/>
		<stop  offset="0.9693" style="stop-color:#FFFFFF"/>
	</linearGradient>
	<path fill="url(#SVGID_1_)" d="M13.615,11.669c-0.348-0.277-0.771-0.419-1.198-0.419c-0.281,0-0.565,0.063-0.831,0.191
		c-0.663,0.318-1.085,0.988-1.085,1.726v30.667c0,0.738,0.423,1.408,1.085,1.727c0.266,0.127,0.55,0.19,0.831,0.19
		c0.427,0,0.85-0.143,1.198-0.419l19.167-15.334c0.453-0.363,0.719-0.913,0.719-1.497s-0.266-1.134-0.719-1.497L13.615,11.669z
		 M55.781,27.003L36.614,11.669c-0.348-0.277-0.771-0.419-1.197-0.419c-0.281,0-0.565,0.063-0.831,0.191
		c-0.663,0.318-1.086,0.988-1.086,1.726V28.5v15.333c0,0.738,0.423,1.408,1.086,1.727c0.266,0.127,0.55,0.19,0.831,0.19
		c0.427,0,0.85-0.143,1.197-0.419l19.167-15.334c0.453-0.363,0.719-0.913,0.719-1.497S56.234,27.366,55.781,27.003z"/>
	<path fill="#FFFFFF" d="M33.5,14.167v-1c0-0.737,0.423-1.407,1.086-1.726c0.266-0.127,0.55-0.191,0.831-0.191
		c0.427,0,0.85,0.142,1.197,0.419l19.167,15.333c0.453,0.363,0.719,0.913,0.719,1.497c0,0.172-0.029,0.338-0.073,0.5
		c-0.105-0.389-0.325-0.741-0.646-0.997L36.614,12.669c-0.348-0.277-0.771-0.419-1.197-0.419c-0.281,0-0.565,0.063-0.831,0.191
		C33.923,12.759,33.5,13.429,33.5,14.167z M11.585,12.441c0.266-0.127,0.55-0.191,0.831-0.191c0.427,0,0.85,0.142,1.198,0.419
		l19.167,15.333c0.32,0.256,0.54,0.608,0.646,0.997c0.044-0.162,0.073-0.328,0.073-0.5c0-0.584-0.266-1.134-0.719-1.497
		L13.615,11.669c-0.348-0.277-0.771-0.419-1.198-0.419c-0.281,0-0.565,0.063-0.831,0.191c-0.663,0.318-1.085,0.988-1.085,1.726v1
		C10.5,13.429,10.923,12.759,11.585,12.441z"/>
</g>
<g id="DO_NOT_EDIT_-_FOCAL_ZONE_GUIDES">
</g>
</svg>
