<?xml version="1.0" encoding="utf-8"?>
<!-- Generator: Adobe Illustrator 15.0.0, SVG Export Plug-In . SVG Version: 6.00 Build 0)  -->
<!DOCTYPE svg PUBLIC "-//W3C//DTD SVG 1.1//EN" "http://www.w3.org/Graphics/SVG/1.1/DTD/svg11.dtd">
<svg version="1.1" xmlns="http://www.w3.org/2000/svg" xmlns:xlink="http://www.w3.org/1999/xlink" x="0px" y="0px" width="67px"
	 height="57px" viewBox="0 0 67 57" enable-background="new 0 0 67 57" xml:space="preserve">
<g id="DO_NOT_EDIT_-_BOUNDING_BOX">
	<rect id="BOUNDING_BOX" fill="none" width="67" height="57"/>
</g>
<g id="PLACE_YOUR_GRAPHIC_HERE">
	<path opacity="0.3" d="M56.5,24.775c0-0.865-0.702-1.553-1.572-1.576h-0.016c-0.007,0-0.013-0.005-0.02-0.005
		c-0.01,0-0.016,0.005-0.022,0.005l-15.158,0.005l-4.69-14.183c-0.215-0.624-0.799-1.084-1.509-1.084
		c-0.696,0-1.276,0.446-1.498,1.059h-0.025l-4.698,14.208L12.249,23.2l-0.007,0.018c-0.051,0-0.09-0.022-0.138-0.022
		c-0.886,0-1.604,0.706-1.604,1.581c0,0.625,0.379,1.16,0.924,1.415l-0.013,0.027l12.046,8.573l-4.643,14.001
		c-0.106,0.217-0.18,0.441-0.18,0.699c0,0.868,0.719,1.572,1.604,1.572c0.351,0,0.655-0.132,0.918-0.321l0.017,0.01L33.5,41.958
		l12.106,8.64c0.013,0.013,0.032,0.019,0.045,0.03l0.106,0.072h0.003c0.276,0.213,0.606,0.362,0.985,0.362
		c0.889,0,1.61-0.704,1.61-1.572c0-0.142-0.048-0.263-0.08-0.393l0.01-0.005l-0.035-0.107c-0.017-0.05-0.026-0.104-0.049-0.153
		L43.547,34.79l12.261-8.727l-0.007-0.022C56.215,25.755,56.5,25.306,56.5,24.775z"/>
	<rect x="16.381" y="16.446" fill="none" width="30" height="30"/>
	<path opacity="0.15" d="M46.746,51.063c-0.538,0-1.069-0.183-1.54-0.528c-0.004-0.002-0.181-0.122-0.181-0.122L33.5,42.187
		l-11.747,8.379c-0.06,0.043-0.124,0.078-0.191,0.106c-0.418,0.26-0.863,0.391-1.324,0.391c-1.436,0-2.604-1.154-2.604-2.572
		c0-0.358,0.082-0.71,0.25-1.073l4.391-13.24l-11.444-8.145c-0.035-0.024-0.067-0.051-0.097-0.079
		C9.966,25.485,9.5,24.674,9.5,23.775c0-1.423,1.168-2.581,2.604-2.581c0.027,0,0.145,0.005,0.145,0.005l14.319,0.005L31.04,7.683
		c0.032-0.097,0.078-0.187,0.135-0.267c0.429-0.894,1.338-1.478,2.337-1.478c1.105,0,2.092,0.707,2.454,1.759l4.468,13.508
		L54.797,21.2c0.032-0.003,0.064-0.005,0.096-0.005c0.047,0,0.095,0.003,0.144,0.011c1.407,0.096,2.464,1.202,2.464,2.57
		c0,0.755-0.34,1.452-0.941,1.946c-0.05,0.059-0.107,0.111-0.171,0.157l-11.659,8.298l4.412,13.309
		c0.023,0.059,0.042,0.119,0.059,0.181l0.037,0.116c0.021,0.063,0.035,0.127,0.043,0.191c0.042,0.157,0.077,0.32,0.077,0.517
		C49.356,49.908,48.186,51.063,46.746,51.063z"/>
	<path opacity="0.15" d="M56.5,23.775c0-0.865-0.702-1.553-1.572-1.576h-0.016c-0.007,0-0.013-0.005-0.02-0.005
		c-0.01,0-0.016,0.005-0.022,0.005l-15.158,0.005l-4.69-14.183c-0.215-0.624-0.799-1.084-1.509-1.084
		c-0.696,0-1.276,0.446-1.498,1.059h-0.025l-4.698,14.208L12.249,22.2l-0.007,0.018c-0.051,0-0.09-0.022-0.138-0.022
		c-0.886,0-1.604,0.706-1.604,1.581c0,0.625,0.379,1.16,0.924,1.415l-0.013,0.027l12.046,8.573l-4.643,14.001
		c-0.106,0.217-0.18,0.441-0.18,0.699c0,0.868,0.719,1.572,1.604,1.572c0.351,0,0.655-0.132,0.918-0.321l0.017,0.01L33.5,40.958
		l12.106,8.64c0.013,0.013,0.032,0.019,0.045,0.03l0.106,0.072h0.003c0.276,0.213,0.606,0.362,0.985,0.362
		c0.889,0,1.61-0.704,1.61-1.572c0-0.142-0.048-0.263-0.08-0.393l0.01-0.005l-0.035-0.107c-0.017-0.05-0.026-0.104-0.049-0.153
		L43.547,33.79l12.261-8.727l-0.007-0.022C56.215,24.755,56.5,24.306,56.5,23.775z"/>
	<linearGradient id="SVGID_1_" gradientUnits="userSpaceOnUse" x1="33.5005" y1="50.0625" x2="33.5005" y2="6.938">
		<stop  offset="0" style="stop-color:#D0CBC5"/>
		<stop  offset="0.5031" style="stop-color:#FAFCEF"/>
		<stop  offset="0.9693" style="stop-color:#FFFFFF"/>
	</linearGradient>
	<path fill="url(#SVGID_1_)" d="M56.5,23.775c0-0.865-0.702-1.553-1.572-1.576h-0.016c-0.007,0-0.013-0.005-0.02-0.005
		c-0.01,0-0.016,0.005-0.022,0.005l-15.158,0.005l-4.69-14.183c-0.215-0.624-0.799-1.084-1.509-1.084
		c-0.696,0-1.276,0.446-1.498,1.059h-0.025l-4.698,14.208L12.249,22.2l-0.007,0.018c-0.051,0-0.09-0.022-0.138-0.022
		c-0.886,0-1.604,0.706-1.604,1.581c0,0.625,0.379,1.16,0.924,1.415l-0.013,0.027l12.046,8.573l-4.643,14.001
		c-0.106,0.217-0.18,0.441-0.18,0.699c0,0.868,0.719,1.572,1.604,1.572c0.351,0,0.655-0.132,0.918-0.321l0.017,0.01L33.5,40.958
		l12.106,8.64c0.013,0.013,0.032,0.019,0.045,0.03l0.106,0.072h0.003c0.276,0.213,0.606,0.362,0.985,0.362
		c0.889,0,1.61-0.704,1.61-1.572c0-0.142-0.048-0.263-0.08-0.393l0.01-0.005l-0.035-0.107c-0.017-0.05-0.026-0.104-0.049-0.153
		L43.547,33.79l12.261-8.727l-0.007-0.022C56.215,24.755,56.5,24.306,56.5,23.775z"/>
	<path fill="#FFFFFF" d="M18.814,48.791c-0.034,0.07-0.058,0.144-0.084,0.216c-0.058-0.163-0.096-0.335-0.096-0.517
		c0-0.258,0.073-0.482,0.18-0.699L23.189,34.6l0.268,0.19L18.814,48.791z M12.104,23.195c0.048,0,0.087,0.022,0.138,0.022
		l0.007-0.018l15.042,0.005l4.698-14.208h0.025c0.222-0.613,0.802-1.059,1.498-1.059c0.71,0,1.294,0.46,1.509,1.084l4.69,14.183
		L54.87,23.2c0.007,0,0.013-0.005,0.022-0.005c0.007,0,0.013,0.005,0.02,0.005h0.016c0.688,0.018,1.264,0.454,1.478,1.061
		c0.056-0.152,0.095-0.312,0.095-0.485c0-0.865-0.702-1.553-1.572-1.576h-0.016c-0.007,0-0.013-0.005-0.02-0.005
		c-0.01,0-0.016,0.005-0.022,0.005l-15.158,0.005l-4.69-14.183c-0.215-0.624-0.799-1.084-1.509-1.084
		c-0.696,0-1.276,0.446-1.498,1.059h-0.025l-4.698,14.208L12.249,22.2l-0.007,0.018c-0.051,0-0.09-0.022-0.138-0.022
		c-0.886,0-1.604,0.706-1.604,1.581c0,0.175,0.036,0.34,0.091,0.497C10.805,23.647,11.398,23.195,12.104,23.195z M48.286,48.093
		l-0.035-0.107c-0.017-0.05-0.026-0.104-0.049-0.153L43.815,34.6l-0.269,0.19l4.655,14.042c0.022,0.049,0.032,0.104,0.049,0.153
		l0.008,0.024c0.06-0.163,0.098-0.336,0.098-0.52c0-0.142-0.048-0.263-0.08-0.393L48.286,48.093z"/>
</g>
<g id="DO_NOT_EDIT_-_FOCAL_ZONE_GUIDES">
</g>
</svg>
