<?xml version="1.0" encoding="utf-8"?>
<!-- Generator: Adobe Illustrator 15.0.0, SVG Export Plug-In . SVG Version: 6.00 Build 0)  -->
<!DOCTYPE svg PUBLIC "-//W3C//DTD SVG 1.1//EN" "http://www.w3.org/Graphics/SVG/1.1/DTD/svg11.dtd">
<svg version="1.1" id="Ebene_1" xmlns="http://www.w3.org/2000/svg" xmlns:xlink="http://www.w3.org/1999/xlink" x="0px" y="0px"
	 width="67px" height="57px" viewBox="0 0 67 57" enable-background="new 0 0 67 57" xml:space="preserve">
<rect fill="none" width="67" height="57"/>
<path opacity="0.15" enable-background="new    " d="M13,45c-1.654,0-3-1.346-3-3V15c0-1.654,1.346-3,3-3h40c1.654,0,3,1.346,3,3v27
	c0,1.654-1.346,3-3,3H13z M51,40.999v-1h-1v1H51z M46,40.999v-1h-1v1H46z M41,40.999v-1h-1v1H41z M36,40.999v-1h-1v1H36z M31,40.999
	v-1h-1v1H31z M26,40.999v-1h-1v1H26z M21,40.999v-1h-1v1H21z M16,40.999v-1h-1v1H16z M50.984,36V21h-14.98v15H50.984z M30.036,36V21
	H15v15H30.036z M51,16.999v-1h-1v1H51z M46,16.999v-1h-1v1H46z M41,16.999v-1h-1v1H41z M36,16.999v-1h-1v1H36z M31,16.999v-1h-1v1
	H31z M26,16.999v-1h-1v1H26z M21,16.999v-1h-1v1H21z M16,16.999v-1h-1v1H16z"/>
<path opacity="0.3" enable-background="new    " d="M53,14H13c-1.1,0-2,0.9-2,2v27c0,1.1,0.9,2,2,2h40c1.1,0,2-0.9,2-2V16
	C55,14.9,54.1,14,53,14z M49,15.999h3v3h-3V15.999z M44,15.999h3v3h-3V15.999z M39,15.999h3v3h-3V15.999z M34,15.999h3v3h-3V15.999z
	 M24,15.999h3v3h-3V15.999z M19,15.999h3v3h-3V15.999z M14,15.999h3v3h-3V15.999z M17,42.999h-3v-3h3V42.999z M22,42.999h-3v-3h3
	V42.999z M27,42.999h-3v-3h3V42.999z M32,42.999h-3v-3h3V42.999z M31.036,38H14V21h17.036V38z M32,18.999h-3v-3h3V18.999z
	 M37,42.999h-3v-3h3V42.999z M42,42.999h-3v-3h3V42.999z M47,42.999h-3v-3h3V42.999z M52,42.999h-3v-3h3V42.999z M51.984,38h-16.98
	V21h16.98V38z"/>
<linearGradient id="SVGID_1_" gradientUnits="userSpaceOnUse" x1="170.4805" y1="-264.7725" x2="170.4805" y2="-198.0042" gradientTransform="matrix(1 0 0 -1 -137.48 -203.0195)">
	<stop  offset="0" style="stop-color:#D0CBC5"/>
	<stop  offset="0.5031" style="stop-color:#FAFCEF"/>
	<stop  offset="0.9693" style="stop-color:#FFFFFF"/>
</linearGradient>
<path fill="url(#SVGID_1_)" d="M53,13H13c-1.1,0-2,0.9-2,2v27c0,1.1,0.9,2,2,2h40c1.1,0,2-0.9,2-2V15C55,13.9,54.1,13,53,13z
	 M49,14.999h3v3h-3V14.999z M44,14.999h3v3h-3V14.999z M39,14.999h3v3h-3V14.999z M34,14.999h3v3h-3V14.999z M24,14.999h3v3h-3
	V14.999z M19,14.999h3v3h-3V14.999z M14,14.999h3v3h-3V14.999z M17,41.999h-3v-3h3V41.999z M22,41.999h-3v-3h3V41.999z M27,41.999
	h-3v-3h3V41.999z M32,41.999h-3v-3h3V41.999z M31.036,37H14V20h17.036V37z M32,17.999h-3v-3h3V17.999z M37,41.999h-3v-3h3V41.999z
	 M42,41.999h-3v-3h3V41.999z M47,41.999h-3v-3h3V41.999z M52,41.999h-3v-3h3V41.999z M51.984,37h-16.98V20h16.98V37z"/>
<path fill="#FFFFFF" d="M19,42.999h3v-1h-3V42.999z M34,42.999h3v-1h-3V42.999z M29,42.999h3v-1h-3V42.999z M29,18.999h3v-1h-3
	V18.999z M24,42.999h3v-1h-3V42.999z M24,17.999v1h3v-1H24z M14,17.999v1h3v-1H14z M14,42.999h3v-1h-3V42.999z M19,17.999v1h3v-1H19
	z M14,38h17.036v-1H14V38z M49,42.999h3v-1h-3V42.999z M49,18.999h3v-1h-3V18.999z M53,13H13c-1.1,0-2,0.9-2,2v1c0-1.1,0.9-2,2-2h40
	c1.1,0,2,0.9,2,2v-1C55,13.9,54.1,13,53,13z M44,42.999h3v-1h-3V42.999z M44,17.999v1h3v-1H44z M39,17.999v1h3v-1H39z M35.004,38
	h16.98v-1h-16.98V38z M39,42.999h3v-1h-3V42.999z M34,18.999h3v-1h-3V18.999z"/>
</svg>
