<?xml version="1.0" encoding="utf-8"?>
<!-- Generator: Adobe Illustrator 15.0.0, SVG Export Plug-In . SVG Version: 6.00 Build 0)  -->
<!DOCTYPE svg PUBLIC "-//W3C//DTD SVG 1.1//EN" "http://www.w3.org/Graphics/SVG/1.1/DTD/svg11.dtd">
<svg version="1.1" id="Ebene_1" xmlns="http://www.w3.org/2000/svg" xmlns:xlink="http://www.w3.org/1999/xlink" x="0px" y="0px"
	 width="67px" height="57px" viewBox="0 0 67 57" enable-background="new 0 0 67 57" xml:space="preserve">
<path opacity="0.15" enable-background="new    " d="M12.029,46.1C10.359,46.1,9,44.709,9,43V18.096c0-0.853,0.352-1.67,0.968-2.257
	c0.27-0.319,0.609-0.54,0.988-0.642l0.177-0.047c0.078-0.03,0.233-0.074,0.395-0.102l40.964-10.98C52.66,4.022,52.836,4,53.01,4
	c0.904,0,1.699,0.609,1.932,1.483l0.519,1.931c0.284,1.066-0.351,2.165-1.415,2.449L34.873,15h19.098C55.641,15,57,16.389,57,18.096
	V21c1.104,0,2,0.897,2,2v6c0,1.104-0.896,2-2,2v12c0,1.709-1.359,3.1-3.029,3.1H12.029z M50,31V21H13.998L14,31h5
	c-1.104,0-2-0.896-2-2v-6c0-1.103,0.896-2,2-2h1c1.102,0,2,0.897,2,2v6c0,1.104-0.898,2-2,2H50z"/>
<g>
	<rect fill="none" width="67" height="57"/>
</g>
<g>
	<rect x="10.5" y="5.5" fill="none" width="46" height="46"/>
</g>
<path opacity="0.3" enable-background="new    " d="M57,23h-1v-3.904C56,17.937,55.092,17,53.971,17H27.277l26.508-7.103
	c0.533-0.143,0.85-0.69,0.707-1.225L53.975,6.74c-0.144-0.534-0.691-0.851-1.226-0.707L11.693,17.035
	c-0.104,0.018-0.205,0.047-0.303,0.081l-0.176,0.047c-0.219,0.059-0.387,0.195-0.516,0.361C10.273,17.908,10,18.466,10,19.096V44
	c0,1.159,0.908,2.1,2.029,2.1h41.942C55.092,46.1,56,45.159,56,44V31h1c0.553,0,1-0.447,1-1v-6C58,23.447,57.553,23,57,23z M51,32
	c0,0.553-0.447,1-1,1H14c-0.553,0-1-0.447-1-1V22c0-0.553,0.447-1,1-1h36c0.553,0,1,0.447,1,1V32z M20,23h-1c-0.553,0-1,0.447-1,1v6
	c0,0.553,0.447,1,1,1h1c0.551,0,1-0.447,1-1v-6C21,23.447,20.551,23,20,23z"/>
<linearGradient id="SVGID_1_" gradientUnits="userSpaceOnUse" x1="171.4805" y1="-248.1191" x2="171.4805" y2="-208.0181" gradientTransform="matrix(1 0 0 -1 -137.48 -203.0195)">
	<stop  offset="0" style="stop-color:#D0CBC5"/>
	<stop  offset="0.5031" style="stop-color:#FAFCEF"/>
	<stop  offset="0.9693" style="stop-color:#FFFFFF"/>
</linearGradient>
<path fill="url(#SVGID_1_)" d="M57,22h-1v-3.904C56,16.937,55.092,16,53.971,16H27.277l26.508-7.103
	c0.533-0.143,0.85-0.69,0.707-1.225L53.975,5.74c-0.144-0.534-0.691-0.851-1.226-0.707L11.693,16.035
	c-0.104,0.018-0.205,0.047-0.303,0.081l-0.176,0.047c-0.219,0.059-0.387,0.195-0.516,0.361C10.273,16.908,10,17.466,10,18.096V43
	c0,1.159,0.908,2.1,2.029,2.1h41.942C55.092,45.1,56,44.159,56,43V30h1c0.553,0,1-0.447,1-1v-6C58,22.447,57.553,22,57,22z M51,31
	c0,0.553-0.447,1-1,1H14c-0.553,0-1-0.447-1-1V21c0-0.553,0.447-1,1-1h36c0.553,0,1,0.447,1,1V31z M20,22h-1c-0.553,0-1,0.447-1,1v6
	c0,0.553,0.447,1,1,1h1c0.551,0,1-0.447,1-1v-6C21,22.447,20.551,22,20,22z"/>
<path fill="#FFFFFF" d="M50,32H14c-0.553,0-1-0.447-1-1v1c0,0.553,0.447,1,1,1h36c0.553,0,1-0.447,1-1v-1C51,31.553,50.553,32,50,32
	z M19,22c-0.553,0-1,0.447-1,1v1c0-0.553,0.447-1,1-1h1c0.551,0,1,0.447,1,1v-1c0-0.553-0.449-1-1-1H19z M53.975,6.741l0.438,1.633
	c0.104-0.211,0.146-0.456,0.08-0.701l-0.519-1.932c-0.143-0.534-0.69-0.851-1.225-0.707L11.693,16.035
	c-0.104,0.018-0.205,0.047-0.303,0.081l-0.176,0.047c-0.219,0.059-0.387,0.195-0.516,0.361C10.273,16.908,10,17.466,10,18.096v1
	c0-0.63,0.273-1.188,0.699-1.571c0.129-0.166,0.297-0.303,0.516-0.361l0.176-0.047c0.098-0.034,0.198-0.063,0.303-0.081L52.75,6.034
	C53.283,5.891,53.832,6.207,53.975,6.741z M57,22h-1v1h1c0.553,0,1,0.447,1,1v-1C58,22.447,57.553,22,57,22z M56,18.096
	C56,16.937,55.092,16,53.971,16H31.01l-3.732,1h26.693C55.092,17,56,17.937,56,19.096V18.096z"/>
</svg>
