<?xml version="1.0" encoding="utf-8"?>
<!-- Generator: Adobe Illustrator 15.0.2, SVG Export Plug-In . SVG Version: 6.00 Build 0)  -->
<!DOCTYPE svg PUBLIC "-//W3C//DTD SVG 1.1//EN" "http://www.w3.org/Graphics/SVG/1.1/DTD/svg11.dtd">
<svg version="1.1" id="Ebene_1" xmlns="http://www.w3.org/2000/svg" xmlns:xlink="http://www.w3.org/1999/xlink" x="0px" y="0px"
	 width="67px" height="57px" viewBox="0 0 67 57" enable-background="new 0 0 67 57" xml:space="preserve">
<path opacity="0.3" d="M55,13H11l22,18L55,13z M60.001,45l-13-9v5h-11c-0.397,0-1,0.602-1,1v6c0,0.4,0.603,1,1,1h11v5L60.001,45z
	 M45.001,39v-3c0-0.744,0.413-1.427,1.072-1.771C46.364,34.075,46.684,34,47.001,34c0.399,0,0.798,0.12,1.139,0.355L55,39.104V16
	L33,34L11,16v28c0,1.104,0.896,2,2,2h20.001v-4c0-1.514,1.486-3,3-3H45.001z"/>
<path opacity="0.15" d="M47.001,54c-0.159,0-0.318-0.038-0.464-0.114c-0.33-0.173-0.536-0.514-0.536-0.886v-4h-10
	c-0.953,0-2-1.047-2-2v-2c0,0.553-0.448,1-1,1H13c-1.654,0-3-1.346-3-3V15c0-0.386,0.223-0.738,0.572-0.904
	C10.708,14.032,10.854,14,11,14c0.227,0,0.451,0.077,0.633,0.226L33,31.708l21.367-17.482C54.549,14.077,54.773,14,55,14
	c0.146,0,0.292,0.032,0.429,0.096C55.777,14.262,56,14.614,56,15v23.104c0,0.372-0.206,0.713-0.536,0.886
	c-0.146,0.076-0.305,0.114-0.464,0.114c-0.2,0-0.398-0.06-0.569-0.178l-6.86-4.749c-0.163-0.113-0.354-0.175-0.553-0.178
	c0.194,0.003,0.387,0.063,0.553,0.178l13,9c0.27,0.187,0.431,0.494,0.431,0.822s-0.161,0.636-0.431,0.822l-13,9
	C47.399,53.94,47.201,54,47.001,54z M33,31c-0.225,0-0.449-0.075-0.633-0.226l-22-18c-0.327-0.268-0.451-0.712-0.309-1.11
	C10.2,11.266,10.577,11,11,11h44c0.423,0,0.8,0.266,0.941,0.664c0.143,0.398,0.019,0.843-0.309,1.11l-22,18
	C33.449,30.925,33.225,31,33,31z"/>
<path opacity="0.15" d="M55,12H11l22,18L55,12z M60.001,44l-13-9v5h-11c-0.397,0-1,0.602-1,1v6c0,0.4,0.603,1,1,1h11v5L60.001,44z
	 M45.001,38v-3c0-0.744,0.413-1.427,1.072-1.771C46.364,33.075,46.684,33,47.001,33c0.399,0,0.798,0.12,1.139,0.355L55,38.104V15
	L33,33L11,15v28c0,1.104,0.896,2,2,2h20.001v-4c0-1.514,1.486-3,3-3H45.001z"/>
<linearGradient id="SVGID_1_" gradientUnits="userSpaceOnUse" x1="35.501" y1="12" x2="35.501" y2="53.0005">
	<stop  offset="0.0307" style="stop-color:#FFFFFF"/>
	<stop  offset="0.4969" style="stop-color:#FAFCEF"/>
	<stop  offset="1" style="stop-color:#D0CBC5"/>
</linearGradient>
<path fill="url(#SVGID_1_)" d="M55,12H11l22,18L55,12z M60.001,44l-13-9v5h-11c-0.397,0-1,0.602-1,1v6c0,0.4,0.603,1,1,1h11v5
	L60.001,44z M45.001,38v-3c0-0.744,0.413-1.427,1.072-1.771C46.364,33.075,46.684,33,47.001,33c0.399,0,0.798,0.12,1.139,0.355
	L55,38.104V15L33,33L11,15v28c0,1.104,0.896,2,2,2h20.001v-4c0-1.514,1.486-3,3-3H45.001z"/>
<path fill="#FFFFFF" d="M47.001,35v1l12.277,8.5l0.723-0.5L47.001,35z M35.001,41v1c0-0.398,0.603-1,1-1h11v-1h-11
	C35.604,40,35.001,40.602,35.001,41z M55,15L33,33L11,15v1l22,18l22-18V15z M53.777,13L55,12H11l1.222,1H53.777z"/>
<rect fill="none" width="67" height="57"/>
</svg>
