<?xml version="1.0" encoding="utf-8"?>
<!-- Generator: Adobe Illustrator 15.0.2, SVG Export Plug-In . SVG Version: 6.00 Build 0)  -->
<!DOCTYPE svg PUBLIC "-//W3C//DTD SVG 1.1//EN" "http://www.w3.org/Graphics/SVG/1.1/DTD/svg11.dtd">
<svg version="1.1" xmlns="http://www.w3.org/2000/svg" xmlns:xlink="http://www.w3.org/1999/xlink" x="0px" y="0px" width="67px"
	 height="57px" viewBox="0 0 67 57" enable-background="new 0 0 67 57" xml:space="preserve">
<g id="DO_NOT_EDIT_-_BOUNDING_BOX">
	<rect id="BOUNDING_BOX" fill="none" width="67" height="57"/>
</g>
<g id="PLACE_YOUR_GRAPHIC_HERE">
	<path opacity="0.3" d="M54,8H22c-1.1,0-2,0.9-2,2v23c0,1.1,0.9,2,2,2h32c1.1,0,2-0.9,2-2V10C56,8.9,55.1,8,54,8z M52.539,23.578
		l-4.223-4.223l-6.058,6.058l-3.672-3.671l6.058-6.058l-4.222-4.222h12.116V23.578z M35,42H15V26h3v-4h-5c-1.1,0-2,0.9-2,2v20
		c0,1.1,0.9,2,2,2h24c1.1,0,2-0.9,2-2v-7h-4V42z"/>
	<path opacity="0.15" d="M13,46c-1.654,0-3-1.346-3-3V23c0-1.654,1.346-3,3-3h5c0.552,0,1,0.448,1,1v4c0,0.552-0.448,1-1,1h-2v14h18
		v-4c0-0.553,0.447-1,1-1H22c-1.654,0-3-1.346-3-3V9c0-1.654,1.346-3,3-3h32c1.654,0,3,1.346,3,3v23c0,1.654-1.346,3-3,3H39
		c0.553,0,1,0.447,1,1v7c0,1.654-1.346,3-3,3H13z M42.259,22.999l5.351-5.351c0.188-0.188,0.441-0.293,0.707-0.293
		s0.52,0.105,0.707,0.293l2.516,2.516v-8.702h-8.702l2.515,2.515c0.391,0.391,0.391,1.023,0,1.414l-5.351,5.351L42.259,22.999z"/>
	<path opacity="0.15" d="M54,7H22c-1.1,0-2,0.9-2,2v23c0,1.1,0.9,2,2,2h32c1.1,0,2-0.9,2-2V9C56,7.9,55.1,7,54,7z M52.539,22.578
		l-4.223-4.223l-6.058,6.058l-3.672-3.671l6.058-6.058l-4.222-4.222h12.116V22.578z M35,41H15V25h3v-4h-5c-1.1,0-2,0.9-2,2v20
		c0,1.1,0.9,2,2,2h24c1.1,0,2-0.9,2-2v-7h-4V41z"/>
	<linearGradient id="SVGID_1_" gradientUnits="userSpaceOnUse" x1="33.5005" y1="45" x2="33.5005" y2="7.0005">
		<stop  offset="0" style="stop-color:#D0CBC5"/>
		<stop  offset="0.5031" style="stop-color:#FAFCEF"/>
		<stop  offset="0.9693" style="stop-color:#FFFFFF"/>
	</linearGradient>
	<path fill="url(#SVGID_1_)" d="M54,7H22c-1.1,0-2,0.9-2,2v23c0,1.1,0.9,2,2,2h32c1.1,0,2-0.9,2-2V9C56,7.9,55.1,7,54,7z
		 M52.539,22.578l-4.223-4.223l-6.058,6.058l-3.672-3.671l6.058-6.058l-4.222-4.222h12.116V22.578z M35,41H15V25h3v-4h-5
		c-1.1,0-2,0.9-2,2v20c0,1.1,0.9,2,2,2h24c1.1,0,2-0.9,2-2v-7h-4V41z"/>
	<path fill="#FFFFFF" d="M42.259,24.413l-3.172-3.171l-0.5,0.5l3.672,3.671l6.058-6.058l4.223,4.223v-1l-4.223-4.223L42.259,24.413z
		 M15,42h20v-1H15V42z M44.645,14.684l-3.222-3.222h-1l3.722,3.722L44.645,14.684z M54,7H22c-1.1,0-2,0.9-2,2v1c0-1.1,0.9-2,2-2h32
		c1.1,0,2,0.9,2,2V9C56,7.9,55.1,7,54,7z M35,37h4v-1h-4V37z M18,21h-5c-1.1,0-2,0.9-2,2v1c0-1.1,0.9-2,2-2h5V21z"/>
</g>
<g id="DO_NOT_EDIT_-_FOCAL_ZONE_GUIDES">
</g>
</svg>
