<?xml version="1.0" encoding="utf-8"?>
<!-- Generator: Adobe Illustrator 15.0.0, SVG Export Plug-In . SVG Version: 6.00 Build 0)  -->
<!DOCTYPE svg PUBLIC "-//W3C//DTD SVG 1.1//EN" "http://www.w3.org/Graphics/SVG/1.1/DTD/svg11.dtd">
<svg version="1.1" id="Ebene_1" xmlns="http://www.w3.org/2000/svg" xmlns:xlink="http://www.w3.org/1999/xlink" x="0px" y="0px"
	 width="67px" height="57px" viewBox="0 0 67 57" enable-background="new 0 0 67 57" xml:space="preserve">
<rect fill="none" width="67" height="57"/>
<path fill-opacity="0.1" d="M55,19h1v-8c0-1.654-1.346-3-3-3H13c-1.654,0-3,1.346-3,3v27c0,1.654,1.346,3,3,3h5v7
	c0,1.654,1.346,3,3,3h34c1.654,0,3-1.346,3-3V22C58,20.346,56.654,19,55,19z M50,11.999h1v1h-1V11.999z M45,11.999h1v1h-1V11.999z
	 M40,11.999h1v1h-1V11.999z M36.004,17h14.98v2h-14.98V17z M35,11.999h1v1h-1V11.999z M30,11.999h1v1h-1V11.999z M25,11.999h1v1h-1
	V11.999z M20,11.999h1v1h-1V11.999z M15,11.999h1v1h-1V11.999z M18,36.999h-3v-1h3V36.999z M18,22v10h-3V17h15.036v2H21
	C19.346,19,18,20.346,18,22z M53,33.32l-5.744-4.98c-0.105-0.098-0.675-0.585-1.466-0.585c-0.793,0-1.36,0.487-1.405,0.532
	l-8.377,6.543l-4.75-3.811c-0.106-0.099-0.675-0.586-1.468-0.586c-0.792,0-1.361,0.487-1.529,0.647L23,36.859V24h30V33.32z"/>
<path opacity="0.3" enable-background="new    " d="M14,17h17.036v2h3.968v-2h16.98v2H55v-7c0-1.1-0.9-2-2-2H13c-1.1,0-2,0.9-2,2v27
	c0,1.1,0.9,2,2,2h4v-2.001h-3v-3h3V34h-3V17z M49,11.999h3v3h-3V11.999z M44,11.999h3v3h-3V11.999z M39,11.999h3v3h-3V11.999z
	 M34,11.999h3v3h-3V11.999z M29,11.999h3v3h-3V11.999z M24,11.999h3v3h-3V11.999z M19,11.999h3v3h-3V11.999z M14,11.999h3v3h-3
	V11.999z M55,21H21c-1.101,0-2,0.9-2,2v26c0,1.1,0.899,2,2,2h34c1.1,0,2-0.9,2-2V23C57,21.9,56.1,21,55,21z M54,48H22V24h32V48z
	 M52,34.777l-5.422-4.702c0,0-0.348-0.32-0.788-0.32c-0.442,0-0.79,0.32-0.79,0.32l-8.999,7.028L36,37.105l-5.421-4.352
	c0,0-0.348-0.32-0.789-0.32S29,32.755,29,32.755l-5,5.491V46h28V34.777z"/>
<linearGradient id="SVGID_1_" gradientUnits="userSpaceOnUse" x1="171.4805" y1="-253.0195" x2="171.4805" y2="-212.0195" gradientTransform="matrix(1 0 0 -1 -137.48 -203.0195)">
	<stop  offset="0" style="stop-color:#D0CBC5"/>
	<stop  offset="0.5031" style="stop-color:#FAFCEF"/>
	<stop  offset="0.9693" style="stop-color:#FFFFFF"/>
</linearGradient>
<path fill="url(#SVGID_1_)" d="M14,16h17.036v2h3.968v-2h16.98v2H55v-7c0-1.1-0.9-2-2-2H13c-1.1,0-2,0.9-2,2v27c0,1.1,0.9,2,2,2h4
	v-2.001h-3v-3h3V33h-3V16z M49,10.999h3v3h-3V10.999z M44,10.999h3v3h-3V10.999z M39,10.999h3v3h-3V10.999z M34,10.999h3v3h-3
	V10.999z M29,10.999h3v3h-3V10.999z M24,10.999h3v3h-3V10.999z M19,10.999h3v3h-3V10.999z M14,10.999h3v3h-3V10.999z M55,20H21
	c-1.101,0-2,0.9-2,2v26c0,1.1,0.899,2,2,2h34c1.1,0,2-0.9,2-2V22C57,20.9,56.1,20,55,20z M54,47H22V23h32V47z M52,33.777
	l-5.422-4.702c0,0-0.348-0.32-0.788-0.32c-0.442,0-0.79,0.32-0.79,0.32l-8.999,7.028L36,36.105l-5.421-4.352
	c0,0-0.348-0.32-0.789-0.32S29,31.755,29,31.755l-5,5.491V45h28V33.777z"/>
<path fill="#FFFFFF" d="M37,14.999v-1h-3v1H37z M32,14.999v-1h-3v1H32z M47,14.999v-1h-3v1H47z M27,14.999v-1h-3v1H27z M55,12v-1
	c0-1.1-0.9-2-2-2H13c-1.1,0-2,0.9-2,2v1c0-1.1,0.9-2,2-2h40C54.1,10,55,10.9,55,12z M52,14.999v-1h-3v1H52z M42,14.999v-1h-3v1H42z
	 M30.579,32.755L36,37.105l0.001-0.002L45,30.075c0,0,0.348-0.32,0.79-0.32c0.44,0,0.788,0.32,0.788,0.32L52,34.777v-1l-5.422-4.702
	c0,0-0.348-0.32-0.788-0.32c-0.442,0-0.79,0.32-0.79,0.32l-8.999,7.028L36,36.105l-5.421-4.352c0,0-0.348-0.32-0.789-0.32
	S29,31.755,29,31.755l-5,5.491v1l5-5.491c0,0,0.349-0.321,0.79-0.321S30.579,32.755,30.579,32.755z M22,48h32v-1H22V48z M55,20H21
	c-1.101,0-2,0.9-2,2v1c0-1.1,0.899-2,2-2h34c1.1,0,2,0.9,2,2v-1C57,20.9,56.1,20,55,20z M14,38.999h3v-1h-3V38.999z M22,14.999v-1
	h-3v1H22z M14,14.999h3v-1h-3V14.999z M14,34h3v-1h-3V34z"/>
</svg>
