<?xml version="1.0" encoding="utf-8"?>
<!-- Generator: Adobe Illustrator 15.0.0, SVG Export Plug-In . SVG Version: 6.00 Build 0)  -->
<!DOCTYPE svg PUBLIC "-//W3C//DTD SVG 1.1//EN" "http://www.w3.org/Graphics/SVG/1.1/DTD/svg11.dtd">
<svg version="1.1" xmlns="http://www.w3.org/2000/svg" xmlns:xlink="http://www.w3.org/1999/xlink" x="0px" y="0px" width="67px"
	 height="57px" viewBox="0 0 67 57" enable-background="new 0 0 67 57" xml:space="preserve">
<g id="DO_NOT_EDIT_-_BOUNDING_BOX">
	<rect id="BOUNDING_BOX" fill="none" width="67" height="57"/>
</g>
<g id="PLACE_YOUR_GRAPHIC_HERE">
	<path opacity="0.3" d="M44.848,20.994c-1.831,0.008-3.316,1.502-3.312,3.329c0.007,1.826,1.495,3.313,3.319,3.313h0.012
		c1.83-0.008,3.315-1.503,3.311-3.333C48.173,22.479,46.682,20.994,44.848,20.994z M54.062,19.812v0.003
		c-1.54-3.83-5.278-6.536-9.652-6.554h-0.083c-0.417,0.003-0.829,0.029-1.235,0.079c-1.098,0.18-1.916,0.375-3.439,1.046
		c-0.306,0.135-0.639,0.289-1.013,0.467c-2.037,0.969-3.735,1.129-4.58,1.137c-0.004,0-0.007,0.002-0.009,0.002h-1.099
		c-0.003,0-0.007-0.002-0.008-0.002c-0.848-0.008-2.546-0.168-4.582-1.137c-0.371-0.178-0.708-0.332-1.014-0.467
		c-1.523-0.671-2.341-0.867-3.438-1.046c-0.406-0.05-0.818-0.075-1.235-0.079H22.59c-4.374,0.018-8.112,2.724-9.651,6.554v-0.003
		c-3.978,9.258-1.893,20.786-1.893,20.786l-0.002-0.002c0.282,2.473,2.371,4.393,4.92,4.404c1.582,0.005,2.992-0.735,3.907-1.887
		V43.11c0,0,2.707-3.483,5.598-8.385l0.001-0.002c0,0,0.579-0.894,1.616-1.57c0.234-0.154,0.494-0.294,0.779-0.409
		c0.452-0.187,0.966-0.307,1.54-0.307h8.192c0.571,0,1.084,0.12,1.537,0.307c0.285,0.115,0.545,0.255,0.779,0.409
		c1.036,0.677,1.615,1.57,1.615,1.57l0.002,0.002c2.891,4.901,5.598,8.385,5.598,8.385l0.002,0.003
		c0.912,1.151,2.322,1.892,3.906,1.887c2.548-0.012,4.637-1.932,4.917-4.404v0.002C55.954,40.598,58.038,29.07,54.062,19.812z
		 M26.216,25.989h-2.054v2.054c0,0.903-0.737,1.642-1.643,1.642c-0.901,0-1.643-0.739-1.643-1.642v-2.054h-2.054
		c-0.901,0-1.643-0.74-1.643-1.643s0.741-1.643,1.643-1.643h2.054v-2.054c0-0.903,0.741-1.643,1.643-1.643
		c0.905,0,1.643,0.74,1.643,1.643v2.054h2.054c0.905,0,1.644,0.739,1.644,1.643S27.121,25.989,26.216,25.989z M33.5,25.57
		c-0.681,0-1.232-0.55-1.232-1.233c0-0.679,0.552-1.232,1.232-1.232c0.68,0,1.232,0.554,1.232,1.232
		C34.732,25.02,34.18,25.57,33.5,25.57z M44.876,30.101c-3.194,0.011-5.793-2.573-5.804-5.769c-0.009-3.196,2.576-5.789,5.766-5.801
		c3.194-0.008,5.795,2.568,5.805,5.764C50.65,27.49,48.067,30.087,44.876,30.101z"/>
	<path opacity="0.15" d="M51.021,45c-1.83,0-3.534-0.826-4.675-2.266c-0.119-0.154-2.775-3.586-5.658-8.47
		c-0.032-0.048-0.516-0.748-1.321-1.274c-0.194-0.127-0.397-0.234-0.607-0.319c-0.379-0.155-0.768-0.233-1.162-0.233h-8.192
		c-0.397,0-0.787,0.078-1.159,0.231c-0.217,0.087-0.42,0.194-0.611,0.319c-0.839,0.548-1.322,1.272-1.327,1.279l-0.001-0.001
		c-2.754,4.661-5.267,7.964-5.61,8.41c-0.014,0.021-0.028,0.04-0.043,0.059C19.511,44.175,17.807,45,15.98,45
		c-3.045-0.014-5.584-2.286-5.929-5.286c-0.179-1.031-1.973-12.122,1.969-21.296c0.003-0.008,0.007-0.016,0.011-0.023
		c1.757-4.316,5.894-7.114,10.555-7.133c0.556,0.004,1.01,0.033,1.444,0.086c1.245,0.203,2.145,0.43,3.72,1.124
		c0.315,0.139,0.662,0.297,1.044,0.48c1.865,0.887,3.406,1.032,4.158,1.039c0.018,0,1.085,0,1.106,0
		c0.742-0.007,2.281-0.151,4.15-1.041c0.384-0.182,0.726-0.34,1.039-0.479c1.575-0.694,2.476-0.921,3.682-1.118
		c0.475-0.059,0.928-0.088,1.389-0.092c4.755,0.019,8.894,2.817,10.651,7.132c0.004,0.008,0.007,0.016,0.011,0.024
		c4.049,9.427,2.045,20.875,1.958,21.358c-0.331,2.937-2.87,5.211-5.896,5.225C51.04,45,51.023,45,51.021,45z"/>
	<path opacity="0.15" d="M44.848,19.994c-1.831,0.008-3.316,1.502-3.312,3.329c0.007,1.826,1.495,3.313,3.319,3.313h0.012
		c1.83-0.008,3.315-1.503,3.311-3.333C48.173,21.479,46.682,19.994,44.848,19.994z M54.062,18.812v0.003
		c-1.54-3.83-5.278-6.536-9.652-6.554h-0.083c-0.417,0.003-0.829,0.029-1.235,0.079c-1.098,0.18-1.916,0.375-3.439,1.046
		c-0.306,0.135-0.639,0.289-1.013,0.467c-2.037,0.969-3.735,1.129-4.58,1.137c-0.004,0-0.007,0.002-0.009,0.002h-1.099
		c-0.003,0-0.007-0.002-0.008-0.002c-0.848-0.008-2.546-0.168-4.582-1.137c-0.371-0.178-0.708-0.332-1.014-0.467
		c-1.523-0.671-2.341-0.867-3.438-1.046c-0.406-0.05-0.818-0.075-1.235-0.079H22.59c-4.374,0.018-8.112,2.724-9.651,6.554v-0.003
		c-3.978,9.259-1.893,20.786-1.893,20.786l-0.002-0.002c0.282,2.473,2.371,4.393,4.92,4.404c1.582,0.005,2.992-0.735,3.907-1.887
		V42.11c0,0,2.707-3.483,5.598-8.385l0.001-0.002c0,0,0.579-0.894,1.616-1.57c0.234-0.154,0.494-0.294,0.779-0.409
		c0.452-0.187,0.966-0.307,1.54-0.307h8.192c0.571,0,1.084,0.12,1.537,0.307c0.285,0.115,0.545,0.255,0.779,0.409
		c1.036,0.677,1.615,1.57,1.615,1.57l0.002,0.002c2.891,4.901,5.598,8.385,5.598,8.385l0.002,0.003
		c0.912,1.151,2.322,1.892,3.906,1.887c2.548-0.012,4.637-1.932,4.917-4.404v0.002C55.954,39.598,58.038,28.071,54.062,18.812z
		 M26.216,24.989h-2.054v2.054c0,0.903-0.737,1.642-1.643,1.642c-0.901,0-1.643-0.739-1.643-1.642v-2.054h-2.054
		c-0.901,0-1.643-0.74-1.643-1.643s0.741-1.643,1.643-1.643h2.054v-2.054c0-0.903,0.741-1.643,1.643-1.643
		c0.905,0,1.643,0.74,1.643,1.643v2.054h2.054c0.905,0,1.644,0.739,1.644,1.643S27.121,24.989,26.216,24.989z M33.5,24.57
		c-0.681,0-1.232-0.55-1.232-1.233c0-0.679,0.552-1.232,1.232-1.232c0.68,0,1.232,0.554,1.232,1.232
		C34.732,24.02,34.18,24.57,33.5,24.57z M44.876,29.101c-3.194,0.011-5.793-2.573-5.804-5.769c-0.009-3.196,2.576-5.789,5.766-5.801
		c3.194-0.008,5.795,2.568,5.805,5.764C50.65,26.49,48.067,29.087,44.876,29.101z"/>
	<linearGradient id="SVGID_1_" gradientUnits="userSpaceOnUse" x1="33.5005" y1="44" x2="33.5005" y2="12.2617">
		<stop  offset="0" style="stop-color:#D0CBC5"/>
		<stop  offset="0.5031" style="stop-color:#FAFCEF"/>
		<stop  offset="0.9693" style="stop-color:#FFFFFF"/>
	</linearGradient>
	<path fill="url(#SVGID_1_)" d="M44.848,19.994c-1.831,0.008-3.316,1.502-3.312,3.329c0.007,1.826,1.495,3.313,3.319,3.313h0.012
		c1.83-0.008,3.315-1.503,3.311-3.333C48.173,21.479,46.682,19.994,44.848,19.994z M54.062,18.812v0.003
		c-1.54-3.83-5.278-6.536-9.652-6.554h-0.083c-0.417,0.003-0.829,0.029-1.235,0.079c-1.098,0.18-1.916,0.375-3.439,1.046
		c-0.306,0.135-0.639,0.289-1.013,0.467c-2.037,0.969-3.735,1.129-4.58,1.137c-0.004,0-0.007,0.002-0.009,0.002h-1.099
		c-0.003,0-0.007-0.002-0.008-0.002c-0.848-0.008-2.546-0.168-4.582-1.137c-0.371-0.178-0.708-0.332-1.014-0.467
		c-1.523-0.671-2.341-0.867-3.438-1.046c-0.406-0.05-0.818-0.075-1.235-0.079H22.59c-4.374,0.018-8.112,2.724-9.651,6.554v-0.003
		c-3.978,9.259-1.893,20.786-1.893,20.786l-0.002-0.002c0.282,2.473,2.371,4.393,4.92,4.404c1.582,0.005,2.992-0.735,3.907-1.887
		V42.11c0,0,2.707-3.483,5.598-8.385l0.001-0.002c0,0,0.579-0.894,1.616-1.57c0.234-0.154,0.494-0.294,0.779-0.409
		c0.452-0.187,0.966-0.307,1.54-0.307h8.192c0.571,0,1.084,0.12,1.537,0.307c0.285,0.115,0.545,0.255,0.779,0.409
		c1.036,0.677,1.615,1.57,1.615,1.57l0.002,0.002c2.891,4.901,5.598,8.385,5.598,8.385l0.002,0.003
		c0.912,1.151,2.322,1.892,3.906,1.887c2.548-0.012,4.637-1.932,4.917-4.404v0.002C55.954,39.598,58.038,28.071,54.062,18.812z
		 M26.216,24.989h-2.054v2.054c0,0.903-0.737,1.642-1.643,1.642c-0.901,0-1.643-0.739-1.643-1.642v-2.054h-2.054
		c-0.901,0-1.643-0.74-1.643-1.643s0.741-1.643,1.643-1.643h2.054v-2.054c0-0.903,0.741-1.643,1.643-1.643
		c0.905,0,1.643,0.74,1.643,1.643v2.054h2.054c0.905,0,1.644,0.739,1.644,1.643S27.121,24.989,26.216,24.989z M33.5,24.57
		c-0.681,0-1.232-0.55-1.232-1.233c0-0.679,0.552-1.232,1.232-1.232c0.68,0,1.232,0.554,1.232,1.232
		C34.732,24.02,34.18,24.57,33.5,24.57z M44.876,29.101c-3.194,0.011-5.793-2.573-5.804-5.769c-0.009-3.196,2.576-5.789,5.766-5.801
		c3.194-0.008,5.795,2.568,5.805,5.764C50.65,26.49,48.067,29.087,44.876,29.101z"/>
	<path fill="#FFFFFF" d="M17.181,24.346c0-0.175,0.035-0.341,0.087-0.5c0.214,0.659,0.829,1.143,1.556,1.143h2.054v1h-2.054
		C17.922,25.989,17.181,25.249,17.181,24.346z M26.216,24.989h-2.054v1h2.054c0.905,0,1.644-0.74,1.644-1.643
		c0-0.175-0.035-0.341-0.086-0.5C27.559,24.505,26.945,24.989,26.216,24.989z M12.939,19.812v0.003
		c1.539-3.83,5.277-6.536,9.651-6.554h0.083c0.417,0.003,0.829,0.029,1.235,0.079c1.098,0.18,1.915,0.375,3.438,1.046
		c0.306,0.135,0.643,0.289,1.014,0.467c2.036,0.969,3.734,1.129,4.582,1.137c0.001,0,0.005,0.002,0.008,0.002h1.099
		c0.002,0,0.005-0.002,0.009-0.002c0.845-0.008,2.543-0.168,4.58-1.137c0.374-0.178,0.707-0.332,1.013-0.467
		c1.523-0.671,2.342-0.867,3.439-1.046c0.406-0.05,0.818-0.075,1.235-0.079h0.083c4.374,0.018,8.112,2.724,9.652,6.554v-0.003
		c1.856,4.323,2.392,9.139,2.435,13.046c0.04-4.064-0.416-9.346-2.435-14.046v0.003c-1.54-3.83-5.278-6.536-9.652-6.554h-0.083
		c-0.417,0.003-0.829,0.029-1.235,0.079c-1.098,0.18-1.916,0.375-3.439,1.046c-0.306,0.135-0.639,0.289-1.013,0.467
		c-2.037,0.969-3.735,1.129-4.58,1.137c-0.004,0-0.007,0.002-0.009,0.002h-1.099c-0.003,0-0.007-0.002-0.008-0.002
		c-0.848-0.008-2.546-0.168-4.582-1.137c-0.371-0.178-0.708-0.332-1.014-0.467c-1.523-0.671-2.341-0.867-3.438-1.046
		c-0.406-0.05-0.818-0.075-1.235-0.079H22.59c-4.374,0.018-8.112,2.724-9.651,6.554v-0.003c-2.02,4.7-2.476,9.982-2.436,14.046
		C10.547,28.951,11.082,24.135,12.939,19.812z M20.877,28.042c0,0.903,0.741,1.642,1.643,1.642c0.905,0,1.643-0.739,1.643-1.642v-1
		c0,0.903-0.737,1.642-1.643,1.642c-0.901,0-1.643-0.739-1.643-1.642V28.042z M33.5,25.57c0.68,0,1.232-0.55,1.232-1.233
		c0-0.178-0.042-0.346-0.11-0.499c-0.192,0.431-0.621,0.732-1.122,0.732c-0.502,0-0.93-0.301-1.122-0.732
		c-0.068,0.153-0.11,0.321-0.11,0.499C32.268,25.02,32.819,25.57,33.5,25.57z M44.876,30.101c3.191-0.014,5.774-2.61,5.767-5.806
		c0-0.16-0.012-0.317-0.025-0.473c-0.259,2.949-2.728,5.267-5.741,5.279c-3.036,0.01-5.528-2.324-5.778-5.299
		c-0.016,0.175-0.025,0.351-0.025,0.53C39.083,27.527,41.682,30.111,44.876,30.101z M44.848,19.994
		c-1.831,0.008-3.316,1.502-3.312,3.329c0.001,0.166,0.026,0.325,0.051,0.485c0.246-1.583,1.606-2.807,3.261-2.814
		c1.667,0,3.037,1.229,3.279,2.822c0.026-0.168,0.051-0.338,0.051-0.514C48.173,21.479,46.682,19.994,44.848,19.994z"/>
</g>
<g id="DO_NOT_EDIT_-_FOCAL_ZONE_GUIDES">
</g>
</svg>
