<?xml version="1.0" encoding="utf-8"?>
<!-- Generator: Adobe Illustrator 15.0.2, SVG Export Plug-In  -->
<!DOCTYPE svg PUBLIC "-//W3C//DTD SVG 1.1//EN" "http://www.w3.org/Graphics/SVG/1.1/DTD/svg11.dtd" [
	<!ENTITY ns_flows "http://ns.adobe.com/Flows/1.0/">
]>
<svg version="1.1"
	 xmlns="http://www.w3.org/2000/svg" xmlns:xlink="http://www.w3.org/1999/xlink" xmlns:a="http://ns.adobe.com/AdobeSVGViewerExtensions/3.0/"
	 x="0px" y="0px" width="67px" height="57px" viewBox="0 0 67 57" enable-background="new 0 0 67 57" xml:space="preserve">
<defs>
</defs>
<rect id="BOUNDING_BOX_1_" fill="none" width="67" height="57"/>
<path opacity="0.3" d="M21.5,7.5h-8c-1.1,0-2,0.9-2,2v8c0,1.1,0.9,2,2,2h8c1.1,0,2-0.9,2-2v-8C23.5,8.4,22.6,7.5,21.5,7.5z
	 M37.5,39.5h-8c-1.1,0-2,0.9-2,2v8c0,1.1,0.9,2,2,2h8c1.1,0,2-0.9,2-2v-8C39.5,40.4,38.6,39.5,37.5,39.5z M21.5,23.5h-8
	c-1.1,0-2,0.9-2,2v8c0,1.1,0.9,2,2,2h8c1.1,0,2-0.9,2-2v-8C23.5,24.4,22.6,23.5,21.5,23.5z M21.5,39.5h-8c-1.1,0-2,0.9-2,2v8
	c0,1.1,0.9,2,2,2h8c1.1,0,2-0.9,2-2v-8C23.5,40.4,22.6,39.5,21.5,39.5z M37.5,7.5h-8c-1.1,0-2,0.9-2,2v8c0,1.1,0.9,2,2,2h8
	c1.1,0,2-0.9,2-2v-8C39.5,8.4,38.6,7.5,37.5,7.5z M37.5,23.5h-8c-1.1,0-2,0.9-2,2v8c0,1.1,0.9,2,2,2h8c1.1,0,2-0.9,2-2v-8
	C39.5,24.4,38.6,23.5,37.5,23.5z M53.5,23.5h-8c-1.1,0-2,0.9-2,2v8c0,1.1,0.9,2,2,2h8c1.1,0,2-0.9,2-2v-8
	C55.5,24.4,54.6,23.5,53.5,23.5z M53.5,7.5h-8c-1.1,0-2,0.9-2,2v8c0,1.1,0.9,2,2,2h8c1.1,0,2-0.9,2-2v-8C55.5,8.4,54.6,7.5,53.5,7.5
	z M53.5,39.5h-8c-1.1,0-2,0.9-2,2v8c0,1.1,0.9,2,2,2h8c1.1,0,2-0.9,2-2v-8C55.5,40.4,54.6,39.5,53.5,39.5z"/>
<path opacity="0.15" d="M45.5,51.5c-1.654,0-3-1.346-3-3v-8c0-1.654,1.346-3,3-3h8c1.654,0,3,1.346,3,3v8c0,1.654-1.346,3-3,3H45.5z
	 M29.5,51.5c-1.654,0-3-1.346-3-3v-8c0-1.654,1.346-3,3-3h8c1.654,0,3,1.346,3,3v8c0,1.654-1.346,3-3,3H29.5z M13.5,51.5
	c-1.654,0-3-1.346-3-3v-8c0-1.654,1.346-3,3-3h8c1.654,0,3,1.346,3,3v8c0,1.654-1.346,3-3,3H13.5z M45.5,35.5c-1.654,0-3-1.346-3-3
	v-8c0-1.654,1.346-3,3-3h8c1.654,0,3,1.346,3,3v8c0,1.654-1.346,3-3,3H45.5z M29.5,35.5c-1.654,0-3-1.346-3-3v-8
	c0-1.654,1.346-3,3-3h8c1.654,0,3,1.346,3,3v8c0,1.654-1.346,3-3,3H29.5z M13.5,35.5c-1.654,0-3-1.346-3-3v-8c0-1.654,1.346-3,3-3h8
	c1.654,0,3,1.346,3,3v8c0,1.654-1.346,3-3,3H13.5z M45.5,19.5c-1.654,0-3-1.346-3-3v-8c0-1.654,1.346-3,3-3h8c1.654,0,3,1.346,3,3v8
	c0,1.654-1.346,3-3,3H45.5z M29.5,19.5c-1.654,0-3-1.346-3-3v-8c0-1.654,1.346-3,3-3h8c1.654,0,3,1.346,3,3v8c0,1.654-1.346,3-3,3
	H29.5z M13.5,19.5c-1.654,0-3-1.346-3-3v-8c0-1.654,1.346-3,3-3h8c1.654,0,3,1.346,3,3v8c0,1.654-1.346,3-3,3H13.5z"/>
<path opacity="0.15" d="M21.5,6.5h-8c-1.1,0-2,0.9-2,2v8c0,1.1,0.9,2,2,2h8c1.1,0,2-0.9,2-2v-8C23.5,7.4,22.6,6.5,21.5,6.5z
	 M37.5,38.5h-8c-1.1,0-2,0.9-2,2v8c0,1.1,0.9,2,2,2h8c1.1,0,2-0.9,2-2v-8C39.5,39.4,38.6,38.5,37.5,38.5z M21.5,22.5h-8
	c-1.1,0-2,0.9-2,2v8c0,1.1,0.9,2,2,2h8c1.1,0,2-0.9,2-2v-8C23.5,23.4,22.6,22.5,21.5,22.5z M21.5,38.5h-8c-1.1,0-2,0.9-2,2v8
	c0,1.1,0.9,2,2,2h8c1.1,0,2-0.9,2-2v-8C23.5,39.4,22.6,38.5,21.5,38.5z M37.5,6.5h-8c-1.1,0-2,0.9-2,2v8c0,1.1,0.9,2,2,2h8
	c1.1,0,2-0.9,2-2v-8C39.5,7.4,38.6,6.5,37.5,6.5z M37.5,22.5h-8c-1.1,0-2,0.9-2,2v8c0,1.1,0.9,2,2,2h8c1.1,0,2-0.9,2-2v-8
	C39.5,23.4,38.6,22.5,37.5,22.5z M53.5,22.5h-8c-1.1,0-2,0.9-2,2v8c0,1.1,0.9,2,2,2h8c1.1,0,2-0.9,2-2v-8
	C55.5,23.4,54.6,22.5,53.5,22.5z M53.5,6.5h-8c-1.1,0-2,0.9-2,2v8c0,1.1,0.9,2,2,2h8c1.1,0,2-0.9,2-2v-8C55.5,7.4,54.6,6.5,53.5,6.5
	z M53.5,38.5h-8c-1.1,0-2,0.9-2,2v8c0,1.1,0.9,2,2,2h8c1.1,0,2-0.9,2-2v-8C55.5,39.4,54.6,38.5,53.5,38.5z"/>
<linearGradient id="SVGID_1_" gradientUnits="userSpaceOnUse" x1="33.5005" y1="50.5" x2="33.5005" y2="6.5005">
	<stop  offset="0" style="stop-color:#D0CBC5"/>
	<stop  offset="0.5031" style="stop-color:#FAFCEF"/>
	<stop  offset="0.9693" style="stop-color:#FFFFFF"/>
</linearGradient>
<path fill="url(#SVGID_1_)" d="M21.5,6.5h-8c-1.1,0-2,0.9-2,2v8c0,1.1,0.9,2,2,2h8c1.1,0,2-0.9,2-2v-8C23.5,7.4,22.6,6.5,21.5,6.5z
	 M37.5,38.5h-8c-1.1,0-2,0.9-2,2v8c0,1.1,0.9,2,2,2h8c1.1,0,2-0.9,2-2v-8C39.5,39.4,38.6,38.5,37.5,38.5z M21.5,22.5h-8
	c-1.1,0-2,0.9-2,2v8c0,1.1,0.9,2,2,2h8c1.1,0,2-0.9,2-2v-8C23.5,23.4,22.6,22.5,21.5,22.5z M21.5,38.5h-8c-1.1,0-2,0.9-2,2v8
	c0,1.1,0.9,2,2,2h8c1.1,0,2-0.9,2-2v-8C23.5,39.4,22.6,38.5,21.5,38.5z M37.5,6.5h-8c-1.1,0-2,0.9-2,2v8c0,1.1,0.9,2,2,2h8
	c1.1,0,2-0.9,2-2v-8C39.5,7.4,38.6,6.5,37.5,6.5z M37.5,22.5h-8c-1.1,0-2,0.9-2,2v8c0,1.1,0.9,2,2,2h8c1.1,0,2-0.9,2-2v-8
	C39.5,23.4,38.6,22.5,37.5,22.5z M53.5,22.5h-8c-1.1,0-2,0.9-2,2v8c0,1.1,0.9,2,2,2h8c1.1,0,2-0.9,2-2v-8
	C55.5,23.4,54.6,22.5,53.5,22.5z M53.5,6.5h-8c-1.1,0-2,0.9-2,2v8c0,1.1,0.9,2,2,2h8c1.1,0,2-0.9,2-2v-8C55.5,7.4,54.6,6.5,53.5,6.5
	z M53.5,38.5h-8c-1.1,0-2,0.9-2,2v8c0,1.1,0.9,2,2,2h8c1.1,0,2-0.9,2-2v-8C55.5,39.4,54.6,38.5,53.5,38.5z"/>
<path fill="#FFFFFF" d="M37.5,38.5h-8c-1.1,0-2,0.9-2,2v1c0-1.1,0.9-2,2-2h8c1.1,0,2,0.9,2,2v-1C39.5,39.4,38.6,38.5,37.5,38.5z"/>
<path fill="#FFFFFF" d="M21.5,38.5h-8c-1.1,0-2,0.9-2,2v1c0-1.1,0.9-2,2-2h8c1.1,0,2,0.9,2,2v-1C23.5,39.4,22.6,38.5,21.5,38.5z"/>
<path fill="#FFFFFF" d="M37.5,22.5h-8c-1.1,0-2,0.9-2,2v1c0-1.1,0.9-2,2-2h8c1.1,0,2,0.9,2,2v-1C39.5,23.4,38.6,22.5,37.5,22.5z"/>
<path fill="#FFFFFF" d="M21.5,22.5h-8c-1.1,0-2,0.9-2,2v1c0-1.1,0.9-2,2-2h8c1.1,0,2,0.9,2,2v-1C23.5,23.4,22.6,22.5,21.5,22.5z"/>
<path fill="#FFFFFF" d="M21.5,6.5h-8c-1.1,0-2,0.9-2,2v1c0-1.1,0.9-2,2-2h8c1.1,0,2,0.9,2,2v-1C23.5,7.4,22.6,6.5,21.5,6.5z"/>
<path fill="#FFFFFF" d="M37.5,6.5h-8c-1.1,0-2,0.9-2,2v1c0-1.1,0.9-2,2-2h8c1.1,0,2,0.9,2,2v-1C39.5,7.4,38.6,6.5,37.5,6.5z"/>
<path fill="#FFFFFF" d="M53.5,6.5h-8c-1.1,0-2,0.9-2,2v1c0-1.1,0.9-2,2-2h8c1.1,0,2,0.9,2,2v-1C55.5,7.4,54.6,6.5,53.5,6.5z"/>
<path fill="#FFFFFF" d="M53.5,22.5h-8c-1.1,0-2,0.9-2,2v1c0-1.1,0.9-2,2-2h8c1.1,0,2,0.9,2,2v-1C55.5,23.4,54.6,22.5,53.5,22.5z"/>
<path fill="#FFFFFF" d="M53.5,38.5h-8c-1.1,0-2,0.9-2,2v1c0-1.1,0.9-2,2-2h8c1.1,0,2,0.9,2,2v-1C55.5,39.4,54.6,38.5,53.5,38.5z"/>
</svg>
