<?xml version="1.0" encoding="utf-8"?>
<!-- Generator: Adobe Illustrator 14.0.0, SVG Export Plug-In  -->
<!DOCTYPE svg PUBLIC "-//W3C//DTD SVG 1.1//EN" "http://www.w3.org/Graphics/SVG/1.1/DTD/svg11.dtd" [
	<!ENTITY ns_flows "http://ns.adobe.com/Flows/1.0/">
]>
<svg version="1.1"
	 xmlns="http://www.w3.org/2000/svg" xmlns:xlink="http://www.w3.org/1999/xlink" xmlns:a="http://ns.adobe.com/AdobeSVGViewerExtensions/3.0/"
	 x="0px" y="0px" width="67px" height="57px" viewBox="0 0 67 57" enable-background="new 0 0 67 57" xml:space="preserve">
<defs>
</defs>
<rect fill="none" width="67" height="57"/>
<rect x="10.5" y="5.5" fill="none" width="46" height="46"/>
<path opacity="0.15" d="M35.064,48.855c-0.505,0-0.97-0.008-1.397-0.019c-0.381,0.011-0.846,0.019-1.351,0.019
	c-2.007,0-5.177-0.129-9.507-1.24c-2.075-0.535-3.916-1.258-5.472-2.147c-0.378-0.216-0.572-0.651-0.482-1.076L16.9,44.18
	c0.466-1.869,2.403-2.887,2.622-2.996c2.575-1.505,5.141-2.501,5.248-2.543c1.438-0.573,2.384-1.625,2.727-3.035
	c0.081-0.316,0.139-0.564,0.179-0.761c-0.097,0.382-0.411,0.696-0.802,0.765c-2.046,0.357-3.61,0.399-4.609,0.399
	c-0.347,0-0.666-0.006-0.961-0.013c-0.261,0.008-0.593,0.014-0.953,0.014c-1.453,0-3.745-0.094-6.869-0.896
	c-1.507-0.39-2.845-0.915-3.977-1.562c-0.38-0.217-0.575-0.655-0.481-1.082l0.033-0.152c0.362-1.463,1.854-2.246,2.022-2.331
	c1.843-1.077,3.696-1.796,3.773-1.827c0.941-0.375,1.542-1.039,1.774-1.969c0.104-0.414,0.15-0.651,0.168-0.789
	c-0.858-0.885-1.332-2.295-1.545-3.098c-0.641-0.342-0.836-1.266-0.987-1.979c-0.038-0.182-0.071-0.351-0.109-0.469
	c-0.283-0.895-0.332-1.377-0.304-1.672c-0.003-0.417,0.104-0.762,0.319-1.029c-0.193-0.654-0.282-1.238-0.257-1.955
	c0.011-0.324-0.009-0.607-0.027-0.88c-0.072-1.063-0.146-2.163,1.176-4.272c0.174-0.299,0.567-0.67,1.127-0.818
	c0.02-0.046,0.042-0.095,0.068-0.144c0.2-0.381,0.6-1.142,1.812-1.142c0.123,0,0.261,0.008,0.414,0.026h0.002
	c0.068,0,0.22-0.061,0.354-0.114c0.369-0.147,0.927-0.37,1.755-0.37c0.642,0,1.354,0.129,2.178,0.395l1.021,0.325
	c2.057,0.652,2.827,0.896,3.444,1.814c0.224,0.333,0.266,0.831,0.052,1.17c0.319-0.418,0.85-0.826,1.839-0.826
	c0.16,0,0.338,0.01,0.536,0.034c0.006,0,0.013,0,0.019,0c0.202,0,0.379-0.068,0.673-0.185c0.518-0.207,1.227-0.49,2.31-0.49
	c0.855,0,1.813,0.174,2.926,0.533l1.426,0.455c1.269,0.402,2.164,0.687,2.837,0.98c-0.204-0.126-0.357-0.322-0.43-0.554
	c-0.084-0.271-0.049-0.566,0.097-0.811c0.081-0.146,0.116-0.208,0.16-0.278c0.175-0.301,0.569-0.673,1.13-0.821
	c0.021-0.047,0.043-0.097,0.07-0.147c0.196-0.375,0.595-1.138,1.809-1.138c0.123,0,0.261,0.008,0.414,0.026h0.002
	c0.068,0,0.22-0.061,0.353-0.114c0.369-0.147,0.928-0.37,1.756-0.37c0.642,0,1.354,0.129,2.179,0.395l1.024,0.327
	c2.054,0.652,2.822,0.896,3.439,1.813c1.413,2.122,1.445,3.032,1.38,4.341c-0.011,0.206-0.021,0.426-0.022,0.671
	c0,0.642-0.111,1.16-0.219,1.661c-0.025,0.119-0.051,0.238-0.074,0.356c0.035,0.032,0.068,0.065,0.101,0.102
	c0.283,0.319,0.395,0.749,0.331,1.275c-0.019,0.106-0.133,0.649-0.386,1.47c-0.036,0.115-0.072,0.25-0.111,0.394
	c-0.215,0.795-0.475,1.753-1.18,2.05c-0.219,0.803-0.691,2.173-1.54,3.059c0.015,0.128,0.056,0.352,0.155,0.738
	c0.054,0.162,0.533,1.223,1.356,1.785c0.133,0.081,0.306,0.167,0.487,0.238c0.076,0.029,1.927,0.748,3.825,1.855
	c0.113,0.055,1.601,0.838,1.959,2.273l0.064,0.319c0.085,0.427-0.115,0.86-0.496,1.071c-1.088,0.602-2.294,1.069-3.688,1.432
	c-3.13,0.803-5.423,0.896-6.875,0.896l0,0c-0.361,0-0.693-0.006-0.999-0.014c-0.244,0.007-0.557,0.012-0.895,0.012
	c-1.078,0-2.77-0.049-4.997-0.469c-0.351-0.066-0.64-0.314-0.758-0.65c-0.108-0.31-0.059-0.65,0.13-0.914
	c-0.085,0.096-0.173,0.188-0.264,0.275c0.002,0.17,0.049,0.529,0.243,1.288c0.08,0.261,0.78,1.853,2.061,2.729
	c0.228,0.137,0.49,0.269,0.762,0.374c0.106,0.041,2.666,1.037,5.3,2.572c0.164,0.08,2.098,1.097,2.556,2.933l0.087,0.428
	c0.086,0.428-0.115,0.861-0.497,1.072c-1.489,0.823-3.147,1.467-5.069,1.969C40.241,48.727,37.071,48.855,35.064,48.855
	L35.064,48.855z"/>
<path opacity="0.3" d="M21.326,35.996c1.271,0.029,3.02,0.041,5.375-0.372c0.001-0.007,0.004-0.019,0.005-0.024
	c-1.09-1.24-1.72-2.985-2.043-4.143c-0.951-0.682-1.249-2.09-1.449-3.031c-0.049-0.233-0.09-0.449-0.139-0.602
	c-0.415-1.311-0.497-2.063-0.455-2.558c0.004-0.663,0.181-1.157,0.396-1.515c-0.23-0.863-0.34-1.68-0.307-2.646
	c0.015-0.407-0.01-0.779-0.037-1.173c-0.123-1.825-0.072-3.451,1.737-6.339c0.266-0.461,0.843-1.028,1.659-1.322
	c0.084-0.161,0.207-0.386,0.378-0.623c-0.017-0.025-0.026-0.043-0.043-0.069c-0.489-0.728-1.159-0.85-3.941-1.746
	c-2.781-0.896-3.174,0.242-4.098,0.13c-0.92-0.107-1.05,0.265-1.227,0.593c-0.176,0.33,0,0.592-0.5,0.61
	c-0.506,0.026-0.73,0.412-0.73,0.412c-1.504,2.4-0.942,3.121-0.997,4.655c-0.028,0.817,0.107,1.425,0.528,2.547l-0.041-0.06
	c0,0-0.588-0.277-0.547,0.522c0,0-0.082,0.246,0.256,1.312c0.193,0.612,0.345,2.319,0.923,1.777c0.018,0.063,0.04,0.129,0.064,0.195
	c0,0,0.45,2.351,1.588,3.336c0.231,0.215,0.087,0.886-0.074,1.523c-0.065,0.242-0.387,1.902-2.396,2.705
	c0,0-1.834,0.707-3.686,1.788c0,0-1.238,0.62-1.494,1.65L10,33.684c1.053,0.602,2.289,1.089,3.73,1.462
	C17.254,36.051,19.684,36.033,21.326,35.996z M56.945,33.532c-0.257-1.03-1.492-1.65-1.492-1.65
	c-1.852-1.081-3.684-1.788-3.684-1.788c-0.26-0.102-0.484-0.218-0.689-0.344c-1.133-0.774-1.705-2.151-1.76-2.361
	c-0.165-0.638-0.305-1.309-0.074-1.523c1.139-0.985,1.593-3.336,1.593-3.336c0.03-0.092,0.063-0.176,0.092-0.263
	c0.56,0.688,0.848-0.925,1.077-1.662c0.242-0.786,0.349-1.296,0.349-1.296c0.096-0.791-0.508-0.555-0.508-0.555l-0.047,0.048
	c0.085-1.103,0.409-1.777,0.409-2.771c0.005-1.537,0.381-2.098-1.188-4.451c-0.489-0.728-1.16-0.85-3.94-1.746
	c-2.783-0.896-3.175,0.242-4.099,0.13c-0.92-0.107-1.05,0.265-1.226,0.593c-0.178,0.33,0,0.592-0.501,0.61
	c-0.507,0.026-0.731,0.412-0.731,0.412c-0.06,0.096-0.097,0.173-0.15,0.263c0.924,0.422,1.544,0.897,2.082,1.694
	c2.044,3.07,2.132,4.484,2.033,6.447c-0.014,0.279-0.029,0.576-0.03,0.909c0,0.961-0.17,1.754-0.319,2.454
	c-0.014,0.061-0.026,0.123-0.04,0.184c0.337,0.41,0.68,1.107,0.552,2.181c-0.007,0.059-0.017,0.116-0.028,0.174
	c-0.008,0.032-0.173,0.817-0.536,1.993c-0.05,0.16-0.1,0.343-0.152,0.537c-0.283,1.042-0.676,2.489-1.718,3.119
	c-0.326,1.135-0.947,2.791-2.002,4.021c2.533,0.479,4.395,0.47,5.729,0.439c1.644,0.037,4.072,0.055,7.6-0.851
	c1.334-0.347,2.471-0.795,3.455-1.339L56.945,33.532z M47.001,43.078c-2.595-1.514-5.158-2.504-5.158-2.504
	c-0.362-0.141-0.677-0.306-0.964-0.48c-1.585-1.086-2.388-3.014-2.465-3.308c-0.229-0.892-0.425-1.831-0.104-2.132
	c1.596-1.38,2.229-4.67,2.229-4.67c0.044-0.129,0.09-0.247,0.128-0.369c0.784,0.964,1.187-1.294,1.51-2.326
	c0.34-1.1,0.489-1.813,0.489-1.813c0.132-1.106-0.714-0.778-0.714-0.778l-0.065,0.068c0.121-1.543,0.573-2.488,0.573-3.879
	c0.008-2.152,0.532-2.937-1.662-6.231c-0.686-1.018-1.623-1.189-5.518-2.445c-3.895-1.255-4.443,0.34-5.736,0.184
	c-1.289-0.151-1.472,0.37-1.717,0.831c-0.248,0.462,0,0.827-0.701,0.854c-0.709,0.037-1.022,0.577-1.022,0.577
	c-2.105,3.36-1.318,4.37-1.396,6.519c-0.039,1.144,0.15,1.994,0.738,3.564l-0.056-0.083c0,0-0.824-0.39-0.769,0.73
	c0,0-0.113,0.345,0.359,1.835c0.271,0.859,0.483,3.248,1.293,2.49c0.025,0.088,0.059,0.179,0.09,0.273c0,0,0.631,3.29,2.225,4.67
	c0.322,0.301,0.123,1.24-0.107,2.132c-0.088,0.341-0.538,2.665-3.352,3.788c0,0-2.568,0.99-5.16,2.504c0,0-1.732,0.867-2.092,2.311
	L17.834,45.6c1.473,0.842,3.203,1.525,5.225,2.047c4.932,1.267,8.33,1.244,10.632,1.191c2.301,0.053,5.7,0.075,10.639-1.191
	c1.866-0.486,3.459-1.113,4.838-1.875l-0.077-0.383C48.73,43.945,47.001,43.078,47.001,43.078z"/>
<linearGradient id="SVGID_1_" gradientUnits="userSpaceOnUse" x1="33.5005" y1="47.8564" x2="33.5005" y2="8.4878">
	<stop  offset="0" style="stop-color:#D0CBC5"/>
	<stop  offset="0.5031" style="stop-color:#FAFCEF"/>
	<stop  offset="0.9693" style="stop-color:#FFFFFF"/>
</linearGradient>
<path fill="url(#SVGID_1_)" d="M21.326,34.996c1.271,0.029,3.02,0.041,5.375-0.372c0.001-0.007,0.004-0.019,0.005-0.024
	c-1.09-1.24-1.72-2.985-2.043-4.143c-0.951-0.682-1.249-2.09-1.449-3.031c-0.049-0.233-0.09-0.449-0.139-0.602
	c-0.415-1.311-0.497-2.063-0.455-2.558c0.004-0.663,0.181-1.157,0.396-1.515c-0.23-0.863-0.34-1.68-0.307-2.646
	c0.015-0.407-0.01-0.779-0.037-1.173c-0.123-1.825-0.072-3.451,1.737-6.339c0.266-0.461,0.843-1.028,1.659-1.322
	c0.084-0.162,0.207-0.386,0.378-0.623c-0.017-0.025-0.026-0.043-0.043-0.069c-0.489-0.728-1.159-0.85-3.941-1.746
	c-2.781-0.896-3.174,0.242-4.098,0.13c-0.92-0.107-1.05,0.265-1.227,0.593c-0.176,0.33,0,0.592-0.5,0.61
	c-0.506,0.026-0.73,0.412-0.73,0.412c-1.504,2.4-0.942,3.121-0.997,4.655c-0.028,0.817,0.107,1.425,0.528,2.547l-0.041-0.06
	c0,0-0.588-0.277-0.547,0.522c0,0-0.082,0.246,0.256,1.312c0.193,0.612,0.345,2.319,0.923,1.777c0.018,0.063,0.04,0.129,0.064,0.195
	c0,0,0.45,2.351,1.588,3.336c0.231,0.215,0.087,0.886-0.074,1.523c-0.065,0.242-0.387,1.902-2.396,2.705
	c0,0-1.834,0.707-3.686,1.788c0,0-1.238,0.62-1.494,1.65L10,32.684c1.053,0.602,2.289,1.089,3.73,1.462
	C17.254,35.051,19.684,35.033,21.326,34.996z M56.945,32.532c-0.257-1.03-1.492-1.65-1.492-1.65
	c-1.852-1.081-3.684-1.788-3.684-1.788c-0.26-0.102-0.484-0.218-0.689-0.344c-1.133-0.774-1.705-2.151-1.76-2.361
	c-0.165-0.638-0.305-1.309-0.074-1.523c1.139-0.985,1.593-3.336,1.593-3.336c0.03-0.092,0.063-0.176,0.092-0.263
	c0.56,0.688,0.848-0.925,1.077-1.662c0.242-0.786,0.349-1.296,0.349-1.296c0.096-0.791-0.508-0.555-0.508-0.555l-0.047,0.048
	c0.085-1.103,0.409-1.777,0.409-2.771c0.005-1.537,0.381-2.098-1.188-4.451c-0.489-0.728-1.16-0.85-3.94-1.746
	c-2.783-0.896-3.175,0.242-4.099,0.13c-0.92-0.107-1.05,0.265-1.226,0.593c-0.178,0.33,0,0.592-0.501,0.61
	c-0.507,0.026-0.731,0.412-0.731,0.412c-0.06,0.096-0.097,0.173-0.15,0.263c0.924,0.422,1.544,0.897,2.082,1.694
	c2.044,3.07,2.132,4.484,2.033,6.447c-0.014,0.279-0.029,0.576-0.03,0.909c0,0.961-0.17,1.754-0.319,2.454
	c-0.014,0.061-0.026,0.123-0.04,0.184c0.337,0.41,0.68,1.107,0.552,2.181c-0.007,0.059-0.017,0.116-0.028,0.174
	c-0.008,0.032-0.173,0.817-0.536,1.993c-0.05,0.16-0.1,0.343-0.152,0.537c-0.283,1.042-0.676,2.489-1.718,3.119
	c-0.326,1.135-0.947,2.791-2.002,4.021c2.533,0.479,4.395,0.47,5.729,0.439c1.644,0.037,4.072,0.055,7.6-0.851
	c1.334-0.347,2.471-0.795,3.455-1.339L56.945,32.532z M47.001,42.078c-2.595-1.514-5.158-2.504-5.158-2.504
	c-0.362-0.141-0.677-0.306-0.964-0.48c-1.585-1.086-2.388-3.014-2.465-3.308c-0.229-0.892-0.425-1.831-0.104-2.132
	c1.596-1.38,2.229-4.67,2.229-4.67c0.044-0.129,0.09-0.247,0.128-0.369c0.784,0.964,1.187-1.294,1.51-2.326
	c0.34-1.1,0.489-1.813,0.489-1.813c0.132-1.106-0.714-0.778-0.714-0.778l-0.065,0.068c0.121-1.543,0.573-2.488,0.573-3.879
	c0.008-2.152,0.532-2.937-1.662-6.231c-0.686-1.018-1.623-1.189-5.518-2.445c-3.895-1.255-4.443,0.34-5.736,0.184
	c-1.289-0.151-1.472,0.37-1.717,0.831c-0.248,0.462,0,0.827-0.701,0.854c-0.709,0.037-1.022,0.577-1.022,0.577
	c-2.105,3.36-1.318,4.37-1.396,6.519c-0.039,1.144,0.15,1.994,0.738,3.564l-0.056-0.083c0,0-0.824-0.39-0.769,0.73
	c0,0-0.113,0.345,0.359,1.835c0.271,0.859,0.483,3.248,1.293,2.49c0.025,0.088,0.059,0.179,0.09,0.273c0,0,0.631,3.29,2.225,4.67
	c0.322,0.301,0.123,1.24-0.107,2.132c-0.088,0.341-0.538,2.665-3.352,3.788c0,0-2.568,0.99-5.16,2.504c0,0-1.732,0.867-2.092,2.311
	L17.834,44.6c1.473,0.842,3.203,1.525,5.225,2.047c4.932,1.267,8.33,1.244,10.632,1.191c2.301,0.053,5.7,0.075,10.639-1.191
	c1.866-0.486,3.459-1.113,4.838-1.875l-0.077-0.383C48.73,42.945,47.001,42.078,47.001,42.078z"/>
<path fill="#FFFFFF" d="M44.491,19.984c0.024-0.473,0.035-0.914,0.013-1.354c-0.005,0.118-0.007,0.232-0.013,0.354
	c-0.014,0.279-0.029,0.576-0.03,0.909c0,0.961-0.17,1.754-0.319,2.454c-0.014,0.061-0.026,0.123-0.04,0.184
	c0.055,0.066,0.107,0.153,0.16,0.235c0.107-0.554,0.199-1.168,0.199-1.873C44.462,20.561,44.478,20.264,44.491,19.984z
	 M15.908,11.58c0,0,0.225-0.386,0.73-0.412c0.5-0.019,0.324-0.28,0.5-0.61c0.177-0.329,0.307-0.701,1.227-0.593
	c0.924,0.112,1.316-1.027,4.098-0.13c2.262,0.729,3.121,0.95,3.629,1.396c0.084-0.158,0.197-0.362,0.355-0.582
	c-0.017-0.025-0.026-0.043-0.043-0.069c-0.489-0.728-1.159-0.85-3.941-1.746c-2.781-0.896-3.174,0.242-4.098,0.13
	c-0.92-0.107-1.05,0.265-1.227,0.593c-0.176,0.33,0,0.592-0.5,0.61c-0.506,0.026-0.73,0.412-0.73,0.412
	c-1.113,1.777-1.094,2.635-1.031,3.583C14.941,13.506,15.182,12.74,15.908,11.58z M42.58,24.848
	c0.058-0.235,0.087-0.372,0.087-0.372c0.107-0.902-0.429-0.851-0.633-0.8c-0.062,0.336-0.115,0.692-0.146,1.09l0.065-0.068
	C41.953,24.697,42.382,24.538,42.58,24.848z M23.075,27.824c0.049,0.152,0.09,0.368,0.139,0.602c0.2,0.941,0.498,2.35,1.449,3.031
	c0.253,0.906,0.704,2.165,1.406,3.268c0.207-0.031,0.414-0.063,0.632-0.101c0.001-0.007,0.004-0.019,0.005-0.024
	c-1.09-1.24-1.72-2.985-2.043-4.143c-0.951-0.682-1.249-2.09-1.449-3.031c-0.049-0.233-0.09-0.449-0.139-0.602
	c-0.264-0.833-0.384-1.422-0.433-1.881c-0.01,0.104-0.021,0.208-0.022,0.323C22.578,25.762,22.66,26.514,23.075,27.824z
	 M40.858,34.666c0.671-1.064,1.107-2.252,1.36-3.131c1.042-0.63,1.435-2.077,1.718-3.119c0.053-0.194,0.103-0.377,0.152-0.537
	c0.363-1.176,0.528-1.961,0.536-1.993c0.012-0.058,0.021-0.115,0.028-0.174c0.04-0.341,0.022-0.631-0.017-0.899
	c-0.004,0.024-0.007,0.049-0.012,0.073c-0.008,0.032-0.173,0.817-0.536,1.993c-0.05,0.16-0.1,0.343-0.152,0.537
	c-0.283,1.042-0.676,2.489-1.718,3.119c-0.326,1.135-0.947,2.791-2.002,4.021C40.438,34.599,40.647,34.632,40.858,34.666z
	 M41.258,11.168c0.501-0.019,0.323-0.28,0.501-0.61c0.176-0.329,0.306-0.701,1.226-0.593c0.924,0.112,1.315-1.027,4.099-0.13
	c2.78,0.896,3.451,1.019,3.94,1.746c0.895,1.342,1.148,2.098,1.208,2.787c0.054-1.092,0.112-1.807-1.208-3.787
	c-0.489-0.728-1.16-0.85-3.94-1.746c-2.783-0.896-3.175,0.242-4.099,0.13c-0.92-0.107-1.05,0.265-1.226,0.593
	c-0.178,0.33,0,0.592-0.501,0.61c-0.507,0.026-0.731,0.412-0.731,0.412c-0.06,0.096-0.097,0.173-0.15,0.263
	c0.254,0.116,0.481,0.238,0.694,0.368C41.131,11.195,41.186,11.172,41.258,11.168z M51.967,17.727
	c-0.068,0.328-0.134,0.669-0.165,1.075l0.047-0.048c0,0,0.237-0.093,0.392,0.033c0.076-0.294,0.116-0.479,0.116-0.479
	C52.425,17.742,52.137,17.703,51.967,17.727z M22.71,21.105c-0.024,0.693,0.05,1.309,0.164,1.921
	c0.044-0.099,0.093-0.191,0.143-0.274c-0.23-0.863-0.34-1.68-0.307-2.646c0.015-0.407-0.01-0.779-0.037-1.173
	c-0.011-0.163-0.018-0.323-0.024-0.483c-0.025,0.498-0.01,0.984,0.024,1.483C22.7,20.326,22.725,20.698,22.71,21.105z
	 M24.623,24.386c0,0-0.043,0.134,0.037,0.59c0.148-0.588,0.731-0.32,0.731-0.32l0.056,0.083c-0.16-0.428-0.289-0.801-0.393-1.143
	C24.834,23.611,24.592,23.762,24.623,24.386z M47.001,42.078c-2.595-1.514-5.158-2.504-5.158-2.504
	c-0.362-0.141-0.677-0.306-0.964-0.48c-1.585-1.086-2.388-3.014-2.465-3.308c-0.082-0.322-0.16-0.65-0.211-0.952
	c-0.151,0.405,0.017,1.193,0.211,1.952c0.077,0.294,0.88,2.222,2.465,3.308c0.287,0.175,0.602,0.34,0.964,0.48
	c0,0,2.563,0.99,5.158,2.504c0,0,1.343,0.676,1.907,1.825c0.084-0.045,0.176-0.086,0.259-0.132l-0.077-0.383
	C48.73,42.945,47.001,42.078,47.001,42.078z M56.945,32.532c-0.257-1.03-1.492-1.65-1.492-1.65
	c-1.852-1.081-3.684-1.788-3.684-1.788c-0.26-0.102-0.484-0.218-0.689-0.344c-1.133-0.774-1.705-2.151-1.76-2.361
	c-0.039-0.15-0.076-0.303-0.107-0.45c-0.162,0.26-0.045,0.861,0.107,1.45c0.055,0.21,0.627,1.587,1.76,2.361
	c0.205,0.126,0.43,0.242,0.689,0.344c0,0,1.832,0.707,3.684,1.788c0,0,0.782,0.401,1.23,1.085c0.104-0.054,0.215-0.104,0.316-0.16
	L56.945,32.532z M40.799,14.655c1.289,1.937,1.638,3.005,1.706,3.994c0.063-1.368,0.016-2.409-1.706-4.994
	c-0.686-1.018-1.623-1.189-5.518-2.445c-3.895-1.255-4.443,0.34-5.736,0.184c-1.289-0.151-1.472,0.37-1.717,0.831
	c-0.248,0.462,0,0.827-0.701,0.854c-0.709,0.037-1.022,0.577-1.022,0.577c-1.456,2.324-1.528,3.523-1.46,4.753
	c0.069-0.95,0.393-2.049,1.46-3.753c0,0,0.313-0.54,1.022-0.577c0.701-0.026,0.453-0.392,0.701-0.854
	c0.245-0.461,0.428-0.982,1.717-0.831c1.293,0.156,1.842-1.438,5.736-0.184C39.176,13.466,40.113,13.638,40.799,14.655z
	 M28.482,35.786c-0.088,0.341-0.538,2.665-3.352,3.788c0,0-2.568,0.99-5.16,2.504c0,0-1.732,0.867-2.092,2.311L17.834,44.6
	c0.099,0.057,0.208,0.106,0.309,0.161c0.602-1.06,1.828-1.683,1.828-1.683c2.592-1.514,5.16-2.504,5.16-2.504
	c2.813-1.123,3.264-3.447,3.352-3.788c0.197-0.761,0.367-1.552,0.215-1.956C28.645,35.133,28.566,35.463,28.482,35.786z
	 M15.398,18.723l0.041,0.06c-0.16-0.428-0.269-0.77-0.353-1.089c-0.134,0.04-0.255,0.174-0.235,0.552c0,0-0.04,0.133,0.062,0.601
	C15.057,18.564,15.398,18.723,15.398,18.723z M17.608,26.389c-0.065,0.242-0.387,1.902-2.396,2.705c0,0-1.834,0.707-3.686,1.788
	c0,0-1.238,0.62-1.494,1.65L10,32.684c0.113,0.065,0.238,0.123,0.355,0.186c0.456-0.626,1.172-0.987,1.172-0.987
	c1.852-1.081,3.686-1.788,3.686-1.788c2.009-0.803,2.33-2.463,2.396-2.705c0.149-0.591,0.271-1.193,0.106-1.452
	C17.684,26.085,17.646,26.237,17.608,26.389z"/>
</svg>
