<?xml version="1.0" encoding="utf-8"?>
<!-- Generator: Adobe Illustrator 15.0.2, SVG Export Plug-In  -->
<!DOCTYPE svg PUBLIC "-//W3C//DTD SVG 1.1//EN" "http://www.w3.org/Graphics/SVG/1.1/DTD/svg11.dtd" [
	<!ENTITY ns_flows "http://ns.adobe.com/Flows/1.0/">
]>
<svg version="1.1"
	 xmlns="http://www.w3.org/2000/svg" xmlns:xlink="http://www.w3.org/1999/xlink" xmlns:a="http://ns.adobe.com/AdobeSVGViewerExtensions/3.0/"
	 x="0px" y="0px" width="67px" height="57px" viewBox="0 0 67 57" enable-background="new 0 0 67 57" xml:space="preserve">
<defs>
</defs>
<rect id="BOUNDING_BOX_1_" fill="none" width="67" height="57"/>
<path opacity="0.3" d="M46.605,23.165c-0.02,1.011-0.08,1.655-0.397,2.847c-0.084,0.308-0.321,1.352-0.392,1.625l-1.771,6.554
	c-0.546,2.013,0.513,4.042,2.405,5.209l4.146-16.154c-0.017-0.046-0.026-0.103-0.032-0.152c0-0.08-0.01-0.159,0-0.239l-0.042-0.01
	C48.909,13.564,42.936,6.5,33.643,6.5c-9.078,0-14.978,6.745-16.768,15.719h-0.019c0,0.053,0,0.119-0.01,0.199
	c-0.064,0.316-0.128,0.629-0.18,0.955h0.035c-0.074,0.38-0.128,0.748-0.103,0.948l3.628,14.904l0.1,0.393
	c1.95-1.123,3.086-3.174,2.573-5.218L21.254,27.8c-0.067-0.261-0.292-1.31-0.366-1.623c-0.241-0.96-0.257-1.912-0.241-2.865
	c1.116-7.292,5.787-12.773,12.995-12.773C40.793,10.539,45.451,15.947,46.605,23.165z M15.001,24.708
	c-0.016-0.063-0.025-0.126-0.035-0.192c-0.006-0.048,0-0.107-0.003-0.159l-1.142,0.438c-2.477,0.946-3.757,3.262-3.176,5.583
	l1.648,6.589c0.587,2.357,2.83,3.715,5.505,3.363l0.991-0.205c-0.013-0.04-0.048-0.071-0.058-0.112L15.001,24.708z M52.967,24.588
	l-0.924-0.371l-4,15.589c-0.017,0.069-0.071,0.119-0.097,0.184c0,0,1.014,0.221,1.018,0.221c0,0,1.305,0.104,1.911-0.003
	c0.004-0.002,0.007-0.003,0.01-0.003c0.257-0.047,0.523-0.074,0.761-0.154l-0.696,2.712l0.01,0.002l-4.347,2.317
	c-0.95-0.87-2.377-1.102-3.58-0.46l-3.689,1.968c-1.526,0.818-2.107,2.719-1.293,4.249c0.815,1.528,2.718,2.106,4.244,1.291
	l3.687-1.968c1.202-0.644,1.806-1.957,1.616-3.235l5.146-2.744l0.231-0.899l2.065-8.059l1.293-4.802
	c0.083-0.312,0.135-0.622,0.15-0.932C56.63,27.385,55.302,25.377,52.967,24.588z"/>
<path opacity="0.15" d="M40.821,52.5c-1.533,0-2.933-0.84-3.653-2.19c-1.071-2.012-0.307-4.523,1.702-5.601l3.691-1.97
	c0.594-0.316,1.261-0.483,1.93-0.483c0.791,0,1.556,0.225,2.215,0.643l3.382-1.803l0.216-0.841
	c-0.066,0.001-0.137,0.002-0.209,0.002c-0.602,0-1.211-0.049-1.211-0.049c-0.003,0-0.006,0-0.01,0c-0.033,0-0.137-0.022-1.141-0.24
	c-0.286-0.063-0.531-0.248-0.669-0.507c-0.037-0.067-0.064-0.14-0.084-0.213c-0.049,0.03-0.101,0.057-0.155,0.079
	c-0.12,0.048-0.247,0.072-0.374,0.072c-0.183,0-0.365-0.05-0.524-0.148c-2.374-1.464-3.49-3.945-2.846-6.322l1.77-6.553
	c0.026-0.101,0.084-0.345,0.146-0.613c0.093-0.392,0.196-0.831,0.246-1.014c0.28-1.053,0.341-1.622,0.36-2.514
	c-1.185-7.217-5.762-11.696-11.961-11.696c-6.261,0-10.853,4.542-11.997,11.858c-0.015,0.987,0.018,1.761,0.212,2.537l0.151,0.678
	c0.083,0.376,0.174,0.79,0.212,0.938l1.647,6.606c0.6,2.39-0.623,4.933-3.044,6.326c-0.154,0.089-0.326,0.134-0.499,0.134
	c-0.132,0-0.265-0.026-0.389-0.079c-0.069-0.029-0.135-0.065-0.194-0.109c-0.022,0.07-0.053,0.139-0.09,0.203
	c-0.143,0.244-0.383,0.416-0.66,0.474l-0.991,0.205c-0.398,0.055-0.718,0.075-1.031,0.075c-2.798,0-5.015-1.639-5.647-4.176
	l-1.648-6.588c-0.714-2.855,0.843-5.635,3.789-6.76l1.14-0.438c0.116-0.044,0.237-0.066,0.358-0.066
	c0.188,0,0.375,0.053,0.539,0.158c0.051,0.032,0.098,0.069,0.142,0.109c0.008-0.057,0.018-0.118,0.029-0.181
	c-0.007-0.075-0.005-0.151,0.007-0.226c0.053-0.334,0.118-0.656,0.184-0.98c0-0.118,0.02-0.231,0.057-0.337
	C17.982,10.779,24.764,4.5,33.643,4.5c9.113,0,15.928,6.488,17.825,16.95c0.077,0.161,0.111,0.341,0.089,0.525
	c0,0,0.001,0.001,0.001,0.001c0.046,0.127,0.056,0.231,0.042,0.345c0.14-0.069,0.291-0.104,0.443-0.104
	c0.126,0,0.253,0.024,0.372,0.072l0.924,0.371c2.641,0.891,4.325,3.27,4.141,5.901c-0.017,0.351-0.078,0.734-0.182,1.12
	l-1.293,4.804l-2.294,8.947c-0.07,0.271-0.251,0.501-0.498,0.634l-4.584,2.444c-0.042,1.466-0.86,2.829-2.177,3.534l-3.688,1.968
	C42.168,52.331,41.496,52.5,40.821,52.5L40.821,52.5z"/>
<path opacity="0.15" d="M46.605,22.165c-0.02,1.011-0.08,1.655-0.397,2.847c-0.084,0.308-0.321,1.352-0.392,1.625l-1.771,6.554
	c-0.546,2.013,0.513,4.042,2.405,5.209l4.146-16.154c-0.017-0.046-0.026-0.103-0.032-0.152c0-0.08-0.01-0.159,0-0.239l-0.042-0.01
	C48.909,12.564,42.936,5.5,33.643,5.5c-9.078,0-14.978,6.745-16.768,15.719h-0.019c0,0.053,0,0.119-0.01,0.199
	c-0.064,0.316-0.128,0.629-0.18,0.955h0.035c-0.074,0.38-0.128,0.748-0.103,0.948l3.628,14.904l0.1,0.393
	c1.95-1.123,3.086-3.174,2.573-5.218L21.254,26.8c-0.067-0.261-0.292-1.31-0.366-1.623c-0.241-0.96-0.257-1.912-0.241-2.865
	c1.116-7.292,5.787-12.773,12.995-12.773C40.793,9.539,45.451,14.947,46.605,22.165z M15.001,23.708
	c-0.016-0.063-0.025-0.126-0.035-0.192c-0.006-0.048,0-0.107-0.003-0.159l-1.142,0.438c-2.477,0.946-3.757,3.262-3.176,5.583
	l1.648,6.589c0.587,2.357,2.83,3.715,5.505,3.363l0.991-0.205c-0.013-0.04-0.048-0.071-0.058-0.112L15.001,23.708z M52.967,23.588
	l-0.924-0.371l-4,15.589c-0.017,0.069-0.071,0.119-0.097,0.184c0,0,1.014,0.221,1.018,0.221c0,0,1.305,0.104,1.911-0.003
	c0.004-0.002,0.007-0.003,0.01-0.003c0.257-0.047,0.523-0.074,0.761-0.154l-0.696,2.712l0.01,0.002l-4.347,2.317
	c-0.95-0.87-2.377-1.102-3.58-0.46l-3.689,1.968c-1.526,0.818-2.107,2.719-1.293,4.249c0.815,1.528,2.718,2.106,4.244,1.291
	l3.687-1.968c1.202-0.644,1.806-1.957,1.616-3.235l5.146-2.744l0.231-0.899l2.065-8.059l1.293-4.802
	c0.083-0.312,0.135-0.622,0.15-0.932C56.63,26.385,55.302,24.377,52.967,23.588z"/>
<linearGradient id="SVGID_1_" gradientUnits="userSpaceOnUse" x1="33.5005" y1="51.5" x2="33.5005" y2="5.5005">
	<stop  offset="0" style="stop-color:#D0CBC5"/>
	<stop  offset="0.5031" style="stop-color:#FAFCEF"/>
	<stop  offset="0.9693" style="stop-color:#FFFFFF"/>
</linearGradient>
<path fill="url(#SVGID_1_)" d="M46.605,22.165c-0.02,1.011-0.08,1.655-0.397,2.847c-0.084,0.308-0.321,1.352-0.392,1.625
	l-1.771,6.554c-0.546,2.013,0.513,4.042,2.405,5.209l4.146-16.154c-0.017-0.046-0.026-0.103-0.032-0.152c0-0.08-0.01-0.159,0-0.239
	l-0.042-0.01C48.909,12.564,42.936,5.5,33.643,5.5c-9.078,0-14.978,6.745-16.768,15.719h-0.019c0,0.053,0,0.119-0.01,0.199
	c-0.064,0.316-0.128,0.629-0.18,0.955h0.035c-0.074,0.38-0.128,0.748-0.103,0.948l3.628,14.904l0.1,0.393
	c1.95-1.123,3.086-3.174,2.573-5.218L21.254,26.8c-0.067-0.261-0.292-1.31-0.366-1.623c-0.241-0.96-0.257-1.912-0.241-2.865
	c1.116-7.292,5.787-12.773,12.995-12.773C40.793,9.539,45.451,14.947,46.605,22.165z M15.001,23.708
	c-0.016-0.063-0.025-0.126-0.035-0.192c-0.006-0.048,0-0.107-0.003-0.159l-1.142,0.438c-2.477,0.946-3.757,3.262-3.176,5.583
	l1.648,6.589c0.587,2.357,2.83,3.715,5.505,3.363l0.991-0.205c-0.013-0.04-0.048-0.071-0.058-0.112L15.001,23.708z M52.967,23.588
	l-0.924-0.371l-4,15.589c-0.017,0.069-0.071,0.119-0.097,0.184c0,0,1.014,0.221,1.018,0.221c0,0,1.305,0.104,1.911-0.003
	c0.004-0.002,0.007-0.003,0.01-0.003c0.257-0.047,0.523-0.074,0.761-0.154l-0.696,2.712l0.01,0.002l-4.347,2.317
	c-0.95-0.87-2.377-1.102-3.58-0.46l-3.689,1.968c-1.526,0.818-2.107,2.719-1.293,4.249c0.815,1.528,2.718,2.106,4.244,1.291
	l3.687-1.968c1.202-0.644,1.806-1.957,1.616-3.235l5.146-2.744l0.231-0.899l2.065-8.059l1.293-4.802
	c0.083-0.312,0.135-0.622,0.15-0.932C56.63,26.385,55.302,24.377,52.967,23.588z"/>
<path fill="#FFFFFF" d="M45.816,26.637l-1.771,6.554c-0.146,0.535-0.17,1.069-0.103,1.591c0.023-0.197,0.049-0.394,0.103-0.591
	l1.771-6.554c0.07-0.272,0.308-1.317,0.392-1.625c0.317-1.192,0.378-1.836,0.397-2.847c-0.01-0.063-0.025-0.124-0.036-0.187
	c-0.044,0.619-0.137,1.19-0.361,2.034C46.124,25.32,45.887,26.364,45.816,26.637z"/>
<path fill="#FFFFFF" d="M39.343,46.59l3.689-1.968c1.203-0.642,2.63-0.41,3.58,0.46l4.347-2.317l-0.01-0.002l0.696-2.712
	c-0.087,0.029-0.181,0.047-0.273,0.065l-0.423,1.646l0.01,0.002l-4.347,2.317c-0.95-0.87-2.377-1.102-3.58-0.46l-3.689,1.968
	c-1.213,0.65-1.814,1.982-1.608,3.271C37.888,47.927,38.446,47.07,39.343,46.59z"/>
<path fill="#FFFFFF" d="M47.946,38.99c0,0,0.128,0.027,0.29,0.063l3.807-14.836l0.924,0.371c2.02,0.682,3.28,2.277,3.49,4.058
	c0.005-0.051,0.022-0.103,0.025-0.154c0.147-2.106-1.181-4.114-3.516-4.903l-0.924-0.371l-4,15.589
	C48.026,38.876,47.972,38.926,47.946,38.99z"/>
<path fill="#FFFFFF" d="M21.254,26.8c-0.067-0.261-0.292-1.31-0.366-1.623c-0.16-0.636-0.216-1.268-0.234-1.899
	c-0.001,0.012-0.004,0.023-0.006,0.035c-0.016,0.953,0,1.904,0.241,2.865c0.074,0.313,0.298,1.362,0.366,1.623l1.646,6.598
	c0.046,0.182,0.063,0.363,0.083,0.545c0.069-0.506,0.047-1.025-0.083-1.545L21.254,26.8z"/>
<path fill="#FFFFFF" d="M15.001,23.708c-0.016-0.063-0.025-0.126-0.035-0.192c-0.006-0.048,0-0.107-0.003-0.159l-1.142,0.438
	c-2.243,0.857-3.489,2.838-3.275,4.927c0.21-1.7,1.395-3.209,3.275-3.927l1.142-0.438c0.003,0.051-0.003,0.11,0.003,0.159
	c0.01,0.066,0.019,0.13,0.035,0.192l3.528,14.471l0.261-0.054c-0.013-0.04-0.048-0.071-0.058-0.112L15.001,23.708z"/>
<path fill="#FFFFFF" d="M16.599,23.32l0.064,0.264c0.012-0.07,0.024-0.14,0.039-0.211h-0.035c0.051-0.326,0.115-0.638,0.18-0.955
	c0.01-0.08,0.01-0.146,0.01-0.199h0.019C18.665,13.245,24.564,6.5,33.643,6.5c9.234,0,15.187,6.978,16.845,16.172l0.109-0.427
	c-0.017-0.046-0.026-0.103-0.032-0.152c0-0.08-0.01-0.159,0-0.239l-0.042-0.01C48.909,12.564,42.936,5.5,33.643,5.5
	c-9.078,0-14.978,6.745-16.768,15.719h-0.019c0,0.053,0,0.119-0.01,0.199c-0.064,0.316-0.128,0.629-0.18,0.955h0.035
	C16.628,22.752,16.573,23.12,16.599,23.32z"/>
</svg>
