<?xml version="1.0" encoding="utf-8"?>
<!-- Generator: Adobe Illustrator 15.0.0, SVG Export Plug-In . SVG Version: 6.00 Build 0)  -->
<!DOCTYPE svg PUBLIC "-//W3C//DTD SVG 1.1//EN" "http://www.w3.org/Graphics/SVG/1.1/DTD/svg11.dtd">
<svg version="1.1" xmlns="http://www.w3.org/2000/svg" xmlns:xlink="http://www.w3.org/1999/xlink" x="0px" y="0px" width="67px"
	 height="57px" viewBox="0 0 67 57" enable-background="new 0 0 67 57" xml:space="preserve">
<g id="DO_NOT_EDIT_-_BOUNDING_BOX">
	<rect id="BOUNDING_BOX" fill="none" width="67" height="57"/>
</g>
<g id="PLACE_YOUR_GRAPHIC_HERE">
	<path opacity="0.3" d="M14.996,30.766c-0.016-0.063-0.025-0.126-0.035-0.192c-0.006-0.048,0-0.107-0.003-0.158l-1.142,0.438
		c-2.477,0.946-3.757,3.263-3.177,5.585l1.649,6.59c0.587,2.358,2.83,3.716,5.506,3.364l0.992-0.205
		c-0.013-0.04-0.048-0.07-0.058-0.112L14.996,30.766z M50.567,28.941c0.001-0.01-0.001-0.02,0-0.03l-0.042-0.01
		c-1.614-9.283-7.589-16.348-16.883-16.348c-9.081,0-14.981,6.746-16.772,15.723h-0.02c0,0.053,0,0.119-0.009,0.199
		c-0.062,0.302-0.122,0.601-0.171,0.91c0.009,0.015,0.015,0.029,0.023,0.045h0.003c0,0.002,0,0.004-0.001,0.006
		c0.145,0.256,0.237,0.543,0.257,0.845c0.001,0.021,0.002,0.051,0.003,0.082l3.662,15.021c0.01,0.023,0.019,0.052,0.029,0.077
		c1.744-1.156,2.732-3.078,2.249-5.002l-1.646-6.6c-0.067-0.262-0.292-1.311-0.366-1.624c-0.241-0.961-0.257-1.912-0.241-2.865
		c1.117-7.293,5.789-12.777,12.999-12.777c7.152,0,11.81,5.41,12.965,12.63c-0.019,1.011-0.08,1.655-0.397,2.848
		c-0.084,0.308-0.321,1.353-0.392,1.625l-1.771,6.556c-0.512,1.891,0.401,3.787,2.082,4.979c0.012-0.027,0.021-0.052,0.036-0.08
		l3.943-15.372C50.19,29.461,50.354,29.18,50.567,28.941z M52.971,30.646l-0.925-0.37l-4.001,15.594
		c-0.016,0.069-0.07,0.118-0.096,0.183l1.007,0.222c2.695,0.415,4.98-0.915,5.612-3.264l1.768-6.562
		C56.991,34.037,55.64,31.547,52.971,30.646z"/>
	<rect x="16.381" y="16.446" fill="none" width="30" height="30"/>
	<path opacity="0.15" d="M16.966,46.446c-2.8,0-5.017-1.64-5.648-4.178l-1.649-6.588c-0.714-2.856,0.845-5.637,3.79-6.762
		l1.141-0.437c0.116-0.044,0.237-0.066,0.358-0.066c0.188,0,0.376,0.053,0.539,0.158c0.121,0.077,0.221,0.178,0.298,0.294
		c-0.004-0.009-0.009-0.019-0.013-0.028c-0.085-0.187-0.13-0.418-0.099-0.613c0.052-0.324,0.115-0.636,0.179-0.951
		c0-0.118,0.02-0.23,0.057-0.335c2.068-10.111,8.849-16.386,17.724-16.386c9.114,0,15.929,6.489,17.829,16.952
		c0.056,0.116,0.089,0.242,0.096,0.373l0,0c0.002,0.049,0.001,0.114-0.004,0.163c-0.019,0.181-0.086,0.354-0.193,0.499
		c0.066-0.062,0.142-0.114,0.225-0.156c0.142-0.072,0.297-0.108,0.452-0.108c0.126,0,0.252,0.024,0.371,0.072l0.925,0.37
		c3.038,1.024,4.762,4.039,3.959,6.994l-1.767,6.559c-0.667,2.478-2.87,4.079-5.612,4.079l0,0c-0.367,0-0.743-0.029-1.118-0.087
		l-1.069-0.233c-0.286-0.063-0.53-0.248-0.668-0.507c-0.138-0.258-0.155-0.563-0.048-0.836c0.017-0.041,0.052-0.11,0.085-0.171
		l0.027-0.106c-0.019,0.069-0.044,0.138-0.077,0.201c-0.134,0.258-0.39,0.484-0.671,0.553c-0.1,0.024-0.203,0.038-0.306,0.038
		c-0.188,0-0.374-0.046-0.527-0.154c-2.125-1.508-3.071-3.828-2.468-6.057l1.771-6.555c0.026-0.101,0.084-0.345,0.146-0.613
		c0.093-0.392,0.196-0.83,0.246-1.015c0.281-1.057,0.342-1.625,0.36-2.514c-1.186-7.219-5.764-11.7-11.963-11.7
		c-6.263,0-10.856,4.543-12,11.862c-0.015,0.987,0.018,1.761,0.212,2.537l0.151,0.676c0.083,0.377,0.174,0.793,0.213,0.942
		l1.648,6.606c0.563,2.244-0.483,4.63-2.667,6.077c-0.166,0.11-0.358,0.167-0.553,0.167c-0.102,0-0.205-0.016-0.304-0.047
		c-0.272-0.087-0.494-0.286-0.609-0.546c0.002,0.005,0.004,0.011,0.005,0.017c0.085,0.27,0.053,0.563-0.09,0.808
		s-0.383,0.416-0.66,0.474l-0.992,0.205C17.599,46.426,17.279,46.446,16.966,46.446L16.966,46.446z M15.958,29.5l3.576,14.657
		L15.985,29.6c-0.016-0.067-0.026-0.137-0.028-0.206c0-0.001,0-0.002,0-0.003C15.958,29.431,15.958,29.481,15.958,29.5z
		 M47.739,42.039c0,0,3.344-13.032,3.347-13.042C51.082,29.007,47.739,42.039,47.739,42.039z"/>
	<path opacity="0.15" d="M14.996,29.766c-0.016-0.063-0.025-0.126-0.035-0.192c-0.006-0.048,0-0.107-0.003-0.158l-1.142,0.438
		c-2.477,0.946-3.757,3.263-3.177,5.585l1.649,6.59c0.587,2.358,2.83,3.716,5.506,3.364l0.992-0.205
		c-0.013-0.04-0.048-0.07-0.058-0.112L14.996,29.766z M50.567,27.941c0.001-0.01-0.001-0.02,0-0.03l-0.042-0.01
		c-1.614-9.283-7.589-16.348-16.883-16.348c-9.081,0-14.981,6.746-16.772,15.723h-0.02c0,0.053,0,0.119-0.009,0.199
		c-0.062,0.302-0.122,0.601-0.171,0.91c0.009,0.015,0.015,0.03,0.023,0.044h0.003c0,0.002,0,0.004-0.001,0.006
		c0.145,0.256,0.237,0.543,0.257,0.845c0.001,0.021,0.002,0.051,0.003,0.082l3.662,15.021c0.01,0.023,0.019,0.052,0.029,0.077
		c1.744-1.156,2.732-3.078,2.249-5.002l-1.646-6.6c-0.067-0.262-0.292-1.311-0.366-1.624c-0.241-0.961-0.257-1.912-0.241-2.865
		c1.117-7.293,5.789-12.777,12.999-12.777c7.152,0,11.81,5.41,12.965,12.629c-0.019,1.011-0.08,1.656-0.397,2.848
		c-0.084,0.308-0.321,1.353-0.392,1.625l-1.771,6.556c-0.512,1.891,0.401,3.787,2.082,4.979c0.012-0.027,0.021-0.052,0.036-0.08
		l3.943-15.372C50.19,28.461,50.354,28.179,50.567,27.941z M52.971,29.646l-0.925-0.37l-4.001,15.594
		c-0.016,0.069-0.07,0.118-0.096,0.183l1.007,0.222c2.695,0.415,4.98-0.915,5.612-3.264l1.768-6.562
		C56.991,33.037,55.64,30.547,52.971,29.646z"/>
	<linearGradient id="SVGID_1_" gradientUnits="userSpaceOnUse" x1="33.5005" y1="45.4463" x2="33.5005" y2="11.5537">
		<stop  offset="0" style="stop-color:#D0CBC5"/>
		<stop  offset="0.5031" style="stop-color:#FAFCEF"/>
		<stop  offset="0.9693" style="stop-color:#FFFFFF"/>
	</linearGradient>
	<path fill="url(#SVGID_1_)" d="M14.996,29.766c-0.016-0.063-0.025-0.126-0.035-0.192c-0.006-0.048,0-0.107-0.003-0.158
		l-1.142,0.438c-2.477,0.946-3.757,3.263-3.177,5.585l1.649,6.59c0.587,2.358,2.83,3.716,5.506,3.364l0.992-0.205
		c-0.013-0.04-0.048-0.07-0.058-0.112L14.996,29.766z M50.567,27.941c0.001-0.01-0.001-0.02,0-0.03l-0.042-0.01
		c-1.614-9.283-7.589-16.348-16.883-16.348c-9.081,0-14.981,6.746-16.772,15.723h-0.02c0,0.053,0,0.119-0.009,0.199
		c-0.062,0.302-0.122,0.601-0.171,0.91c0.009,0.015,0.015,0.03,0.023,0.044h0.003c0,0.002,0,0.004-0.001,0.006
		c0.145,0.256,0.237,0.543,0.257,0.845c0.001,0.021,0.002,0.051,0.003,0.082l3.662,15.021c0.01,0.023,0.019,0.052,0.029,0.077
		c1.744-1.156,2.732-3.078,2.249-5.002l-1.646-6.6c-0.067-0.262-0.292-1.311-0.366-1.624c-0.241-0.961-0.257-1.912-0.241-2.865
		c1.117-7.293,5.789-12.777,12.999-12.777c7.152,0,11.81,5.41,12.965,12.629c-0.019,1.011-0.08,1.656-0.397,2.848
		c-0.084,0.308-0.321,1.353-0.392,1.625l-1.771,6.556c-0.512,1.891,0.401,3.787,2.082,4.979c0.012-0.027,0.021-0.052,0.036-0.08
		l3.943-15.372C50.19,28.461,50.354,28.179,50.567,27.941z M52.971,29.646l-0.925-0.37l-4.001,15.594
		c-0.016,0.069-0.07,0.118-0.096,0.183l1.007,0.222c2.695,0.415,4.98-0.915,5.612-3.264l1.768-6.562
		C56.991,33.037,55.64,30.547,52.971,29.646z"/>
	<path fill="#FFFFFF" d="M44.047,40.251c-0.051,0.188-0.077,0.375-0.101,0.563c-0.063-0.512-0.042-1.036,0.101-1.563l1.771-6.556
		c0.07-0.272,0.308-1.317,0.392-1.625c0.225-0.844,0.317-1.414,0.361-2.032c0.011,0.062,0.026,0.122,0.036,0.185
		c-0.019,1.011-0.08,1.655-0.397,2.848c-0.084,0.308-0.321,1.353-0.392,1.625L44.047,40.251z M47.949,45.052l0.289,0.063
		l3.808-14.84l0.925,0.37c2.019,0.682,3.279,2.272,3.492,4.05c0.22-2.158-1.101-4.242-3.492-5.05l-0.925-0.37l-4.001,15.594
		C48.029,44.938,47.975,44.987,47.949,45.052z M21.25,32.859c-0.067-0.262-0.292-1.311-0.366-1.624
		c-0.16-0.637-0.216-1.269-0.234-1.899c-0.001,0.012-0.004,0.022-0.006,0.034c-0.016,0.953,0,1.904,0.241,2.865
		c0.074,0.313,0.298,1.362,0.366,1.624l1.646,6.6c0.043,0.172,0.061,0.343,0.081,0.514c0.065-0.495,0.047-1.004-0.081-1.514
		L21.25,32.859z M16.697,28.429c0,0.002,0,0.004-0.001,0.006c0.044,0.078,0.073,0.164,0.106,0.247
		c0.014-0.068,0.025-0.138,0.039-0.207c0.009-0.08,0.009-0.146,0.009-0.199h0.02c1.791-8.977,7.691-15.723,16.772-15.723
		c9.057,0,14.95,6.716,16.739,15.648c0.059-0.089,0.115-0.18,0.187-0.26c0.001-0.01-0.001-0.02,0-0.03l-0.042-0.01
		c-1.614-9.283-7.589-16.348-16.883-16.348c-9.081,0-14.981,6.746-16.772,15.723h-0.02c0,0.053,0,0.119-0.009,0.199
		c-0.062,0.302-0.122,0.601-0.171,0.91c0.009,0.015,0.015,0.03,0.023,0.044H16.697z M14.996,29.766
		c-0.016-0.063-0.025-0.126-0.035-0.192c-0.006-0.048,0-0.107-0.003-0.158l-1.142,0.438c-2.243,0.857-3.489,2.839-3.276,4.93
		c0.21-1.701,1.396-3.211,3.276-3.93l1.142-0.438c0.003,0.051-0.003,0.11,0.003,0.158c0.01,0.066,0.019,0.13,0.035,0.192
		l3.529,14.475l0.261-0.054c-0.013-0.04-0.048-0.07-0.058-0.112L14.996,29.766z"/>
</g>
<g id="DO_NOT_EDIT_-_FOCAL_ZONE_GUIDES">
</g>
</svg>
