<?xml version="1.0" encoding="utf-8"?>
<!-- Generator: Adobe Illustrator 15.0.2, SVG Export Plug-In . SVG Version: 6.00 Build 0)  -->
<!DOCTYPE svg PUBLIC "-//W3C//DTD SVG 1.1//EN" "http://www.w3.org/Graphics/SVG/1.1/DTD/svg11.dtd">
<svg version="1.1" xmlns="http://www.w3.org/2000/svg" xmlns:xlink="http://www.w3.org/1999/xlink" x="0px" y="0px" width="67px"
	 height="57px" viewBox="0 0 67 57" enable-background="new 0 0 67 57" xml:space="preserve">
<g id="DO_NOT_EDIT_-_BOUNDING_BOX">
	<rect id="BOUNDING_BOX" fill="none" width="67" height="57"/>
</g>
<g id="PLACE_YOUR_GRAPHIC_HERE">
	<path opacity="0.3" d="M33.5,7C21.074,7,11,17.074,11,29.5C11,41.927,21.074,52,33.5,52C45.926,52,56,41.927,56,29.5
		C56,17.074,45.926,7,33.5,7z M34.721,45.594c-3.063,0-5.913-0.845-8.363-2.305c1.91,0.814,3.992,1.269,6.189,1.269
		c9.557,0,15.06-6.823,15.06-15.014c0-5.503-4.732-11.229-10.773-11.229c-5.896,0-10.067,4.046-10.3,9.888h-0.007v1.321h4.678
		l-8.711,11.832l-8.867-11.828h4.702c-0.003-0.113-0.013-0.227-0.013-0.345c0-9.062,7.339-16.409,16.405-16.409
		c9.063,0,16.408,7.347,16.408,16.409C51.129,38.245,43.783,45.594,34.721,45.594z"/>
	<path opacity="0.15" d="M33.5,52C20.542,52,10,41.458,10,28.5S20.542,5,33.5,5S57,15.542,57,28.5S46.458,52,33.5,52z
		 M36.833,16.314c6.938,0,11.773,6.445,11.773,12.229c0,5.558-2.294,10.127-6.115,12.942c4.565-2.678,7.638-7.639,7.638-13.304
		c0-8.497-6.912-15.409-15.408-15.409c-8.495,0-15.405,6.912-15.405,15.409l0.013,0.314c0.008,0.271-0.094,0.532-0.282,0.727
		c-0.188,0.194-0.447,0.304-0.718,0.304h-2.703l6.86,9.151l6.741-9.155h-2.7c-0.552,0-1-0.447-1-1v-1.321
		c0-0.055,0.004-0.109,0.013-0.162C25.848,20.719,30.476,16.314,36.833,16.314z"/>
	<path opacity="0.15" d="M33.5,6C21.074,6,11,16.074,11,28.5C11,40.927,21.074,51,33.5,51C45.926,51,56,40.927,56,28.5
		C56,16.074,45.926,6,33.5,6z M34.721,44.594c-3.063,0-5.913-0.845-8.363-2.305c1.91,0.814,3.992,1.269,6.189,1.269
		c9.557,0,15.06-6.823,15.06-15.014c0-5.503-4.732-11.229-10.773-11.229c-5.896,0-10.067,4.046-10.3,9.888h-0.007v1.321h4.678
		l-8.711,11.832l-8.867-11.828h4.702c-0.003-0.113-0.013-0.227-0.013-0.345c0-9.062,7.339-16.409,16.405-16.409
		c9.063,0,16.408,7.347,16.408,16.409C51.129,37.245,43.783,44.594,34.721,44.594z"/>
	<linearGradient id="SVGID_1_" gradientUnits="userSpaceOnUse" x1="33.5005" y1="51" x2="33.5005" y2="6.0005">
		<stop  offset="0" style="stop-color:#D0CBC5"/>
		<stop  offset="0.5031" style="stop-color:#FAFCEF"/>
		<stop  offset="0.9693" style="stop-color:#FFFFFF"/>
	</linearGradient>
	<path fill="url(#SVGID_1_)" d="M33.5,6C21.074,6,11,16.074,11,28.5C11,40.927,21.074,51,33.5,51C45.926,51,56,40.927,56,28.5
		C56,16.074,45.926,6,33.5,6z M34.721,44.594c-3.063,0-5.913-0.845-8.363-2.305c1.91,0.814,3.992,1.269,6.189,1.269
		c9.557,0,15.06-6.823,15.06-15.014c0-5.503-4.732-11.229-10.773-11.229c-5.896,0-10.067,4.046-10.3,9.888h-0.007v1.321h4.678
		l-8.711,11.832l-8.867-11.828h4.702c-0.003-0.113-0.013-0.227-0.013-0.345c0-9.062,7.339-16.409,16.405-16.409
		c9.063,0,16.408,7.347,16.408,16.409C51.129,37.245,43.783,44.594,34.721,44.594z"/>
	<path fill="#FFFFFF" d="M33.5,6C21.074,6,11,16.074,11,28.5c0,0.168,0.009,0.333,0.013,0.5C11.279,16.806,21.241,7,33.5,7
		c12.258,0,22.221,9.806,22.487,22C55.991,28.833,56,28.668,56,28.5C56,16.074,45.926,6,33.5,6z M34.721,44.594
		c-0.483,0-0.96-0.028-1.432-0.069c-0.248,0.009-0.488,0.033-0.742,0.033c-2.197,0-4.28-0.454-6.189-1.269
		c2.451,1.46,5.3,2.305,8.363,2.305c9.063,0,16.408-7.349,16.408-16.411c0-0.169-0.021-0.333-0.025-0.5
		C50.837,37.512,43.614,44.594,34.721,44.594z M30.468,29.523l-7.975,10.832l-8.117-10.828h-0.75l8.867,11.828l8.711-11.832H30.468z
		 M36.833,18.314c5.879,0,10.505,5.423,10.75,10.785c0.006-0.186,0.023-0.368,0.023-0.556c0-5.503-4.732-11.229-10.773-11.229
		c-5.896,0-10.067,4.046-10.3,9.888h-0.007v1h0.007C26.766,22.36,30.938,18.314,36.833,18.314z"/>
</g>
<g id="DO_NOT_EDIT_-_FOCAL_ZONE_GUIDES">
</g>
</svg>
