<?xml version="1.0" encoding="utf-8"?>
<!-- Generator: Adobe Illustrator 14.0.0, SVG Export Plug-In  -->
<!DOCTYPE svg PUBLIC "-//W3C//DTD SVG 1.1//EN" "http://www.w3.org/Graphics/SVG/1.1/DTD/svg11.dtd" [
	<!ENTITY ns_flows "http://ns.adobe.com/Flows/1.0/">
]>
<svg version="1.1"
	 xmlns="http://www.w3.org/2000/svg" xmlns:xlink="http://www.w3.org/1999/xlink" xmlns:a="http://ns.adobe.com/AdobeSVGViewerExtensions/3.0/"
	 x="0px" y="0px" width="67px" height="57px" viewBox="0 0 67 57" enable-background="new 0 0 67 57" xml:space="preserve">
<defs>
</defs>
<rect fill="none" width="67" height="57"/>
<path opacity="0.15" d="M52,55c-0.328,0-0.636-0.161-0.822-0.431l-9-13c-0.171-0.247-0.22-0.555-0.141-0.838
	c-0.08,0.283-0.031,0.59,0.142,0.839l1.979,2.86c0.212,0.306,0.236,0.704,0.063,1.034C44.049,45.793,43.708,46,43.336,46H13
	c-1.654,0-3-1.346-3-3V15c0-0.386,0.223-0.738,0.571-0.904C10.708,14.032,10.854,14,11,14c0.227,0,0.451,0.077,0.633,0.226
	L33,31.708l21.367-17.482C54.549,14.077,54.773,14,55,14c0.146,0,0.292,0.032,0.429,0.096C55.777,14.262,56,14.614,56,15v12
	c0,0.553-0.447,1-1,1c0.953,0,2,1.047,2,2v10h4c0.372,0,0.713,0.207,0.886,0.536s0.148,0.728-0.063,1.033l-9,13
	C52.636,54.839,52.328,55,52,55L52,55z M43,40c-0.316,0-0.608,0.147-0.795,0.394C42.393,40.148,42.686,40,43,40L43,40z M47,40v-1
	c0,0.553-0.447,1-1,1H47z M33,31c-0.225,0-0.449-0.075-0.633-0.227l-22-18c-0.327-0.268-0.451-0.712-0.309-1.11
	C10.2,11.266,10.577,11,11,11h44c0.423,0,0.8,0.266,0.941,0.664c0.143,0.398,0.019,0.843-0.309,1.11l-22,18
	C33.449,30.925,33.225,31,33,31L33,31z"/>
<path opacity="0.3" d="M41.229,41.072C41.573,40.413,42.256,40,43,40h3v-9c0-1.514,1.486-3,3-3h6V16L33,34L11,16v28
	c0,1.104,0.896,2,2,2h30.336l-1.98-2.861C40.933,42.526,40.883,41.73,41.229,41.072z M55,13H11l22,18L55,13z M56,42V31
	c0-0.398-0.601-1-1-1h-6c-0.4,0-1,0.602-1,1v11h-5l9,13l9-13H56z"/>
<linearGradient id="SVGID_1_" gradientUnits="userSpaceOnUse" x1="36" y1="54" x2="36" y2="12.0005">
	<stop  offset="0" style="stop-color:#D0CBC5"/>
	<stop  offset="0.5031" style="stop-color:#FAFCEF"/>
	<stop  offset="0.9693" style="stop-color:#FFFFFF"/>
</linearGradient>
<path fill="url(#SVGID_1_)" d="M41.229,40.072C41.573,39.413,42.256,39,43,39h3v-9c0-1.514,1.486-3,3-3h6V15L33,33L11,15v28
	c0,1.104,0.896,2,2,2h30.336l-1.98-2.861C40.933,41.526,40.883,40.73,41.229,40.072z M55,12H11l22,18L55,12z M56,41V30
	c0-0.398-0.601-1-1-1h-6c-0.4,0-1,0.602-1,1v11h-5l9,13l9-13H56z"/>
<path fill="#FFFFFF" d="M41.077,41.492c-0.147,0.558-0.059,1.159,0.278,1.646L42.644,45h0.692l-1.98-2.861
	C41.218,41.939,41.135,41.719,41.077,41.492z M55,15L33,33L11,15v1l22,18l22-18V15z M53.777,13L55,12H11l1.223,1H53.777z M43.692,42
	H48v-1h-5L43.692,42z M56,30c0-0.398-0.601-1-1-1h-6c-0.4,0-1,0.602-1,1v1c0-0.398,0.6-1,1-1h6c0.399,0,1,0.602,1,1V30z M56,41v1
	h4.308L61,41H56z"/>
</svg>
