<?xml version="1.0" encoding="utf-8"?>
<!-- Generator: Adobe Illustrator 15.0.0, SVG Export Plug-In  -->
<!DOCTYPE svg PUBLIC "-//W3C//DTD SVG 1.1//EN" "http://www.w3.org/Graphics/SVG/1.1/DTD/svg11.dtd" [
	<!ENTITY ns_flows "http://ns.adobe.com/Flows/1.0/">
]>
<svg version="1.1"
	 xmlns="http://www.w3.org/2000/svg" xmlns:xlink="http://www.w3.org/1999/xlink" xmlns:a="http://ns.adobe.com/AdobeSVGViewerExtensions/3.0/"
	 x="0px" y="0px" width="67px" height="57px" viewBox="0 0 67 57" enable-background="new 0 0 67 57" xml:space="preserve">
<defs>
</defs>
<path opacity="0.3" d="M45.331,30.695c7.022,0,12.714-5.691,12.714-12.716c0-7.015-5.691-12.709-12.714-12.709
	c-7.019,0-12.711,5.694-12.711,12.709C32.62,25.004,38.313,30.695,45.331,30.695z M45.919,17.451
	c0.204-1.15,0.328-1.831,1.299-2.067c0.545-0.132,2.179-0.344,3.317,0.109c0.534,0.212,1.394,0.126,1.521-0.583
	c0.143-0.757-0.361-0.808-1.583-1.149c-1.094-0.31-2.131,0.617-3.023,0.616c-0.398,0-0.377-0.336-0.37-0.809
	c0.005-0.469,1.726-1.681,1.907-1.82c0.35-0.267,1.372-0.155,1.391-0.155c1.126,0.035,0.877-0.729,0.119-0.765
	c-1.334-0.063-1.234-0.766-1.25-0.974c-0.019-0.212,0.194-0.745,1.221-0.773c0.33-0.008,1.634-0.063,1.986,0.04
	c0.089,0.064,0.572,0.488,0.572,0.488c1.908,1.756,3.212,4.16,3.563,6.862c0.021,0.405,0.068,0.835,0.053,0.966
	c-0.032,0.235-0.501,0.96-1.138,0.839c-0.705-0.125-1.165-1.957-1.922-1.383c-1.265,0.956,1.945,2.549,1.945,3.05
	c0,0.504-0.677,1.24-0.972,1.477c-0.44,0.356-0.363,1.715-0.363,1.715c0,0.96-0.644,2.104-0.975,2.543
	c-0.331,0.441-1.768,2.08-2.605,1.066c-0.626-0.751-0.097-2.3-0.281-3.953c-0.065-0.596,0.049-2.284-2.495-2.59
	C45.576,19.93,45.771,18.283,45.919,17.451z M34.214,15.662c0.538-2.637,1.999-4.939,4.026-6.562c0,0,2.101-1.589,3.861-1.992
	c0.781-0.175,2.334-0.52,2.229,0.017c-0.112,0.582-2.086,2.497-2.666,2.702c-0.582,0.21-0.809,0.172-1.209-0.092
	c-0.561-0.373-1.778,0.624-1.023,0.975c0.256,0.12,0.718,0.158,1.448,0.411c1.166,0.4,1.504,1.094,0.83,1.274
	c-3.376,0.914-1.795,1.968-3.076,3.248c-0.657,0.659-0.612,0.92-1.076,1.08c-0.57,0.188-0.662-0.641-1.198-0.664
	c-0.192-0.008-1.762,0.024-2.158,0.024C34.146,16.082,34.214,15.662,34.214,15.662z M39.36,19.004c0.566,0.61,0.47,1.502,2.108,2.19
	c0.463,0.191,1.325,0.743,1.079,1.238c-0.248,0.495-0.795,0.677-0.745,1.584c0.08,1.452-1.091,1.336-1.357,2.33
	c-0.263,0.95-0.57,1.575-0.57,1.575c-0.768-0.42-1.478-0.93-2.12-1.508c0.175-0.927-0.136-3.215-0.516-3.471
	c-1.087-0.74-1.048-0.527-1.142-3.426C36.045,17.903,38.774,18.363,39.36,19.004z M54.131,39.952l-7.126-2.664
	c-1.621-0.849-2.577,0.278-2.577,0.278l-3.584,2.979c0.258-0.3-2.97,3.37-12.338-5.716l-0.003,0.001l-0.454-0.451v-0.003
	c-9.082-9.369-5.413-12.597-5.718-12.338l3.1-3.47c0,0,1.129-0.954,0.282-2.574L23.045,8.86c0,0-0.867-1.639-2.371-1.283
	c-10.715,2.556-7.778,13.775-7.778,13.775c1.343,7.155,6.421,13.201,8.995,15.888l-0.016,0.011l3.049,3.049l0.008-0.006
	c2.045,2.095,8.681,8.304,16.716,9.81c0,0,11.217,2.938,13.771-7.779C55.775,40.82,54.131,39.952,54.131,39.952z"/>
<rect fill="none" width="67" height="57"/>
<path opacity="0.15" d="M44.985,50.472c-2.036,0-3.527-0.385-3.59-0.4c-8.191-1.533-15.028-7.896-17.08-9.979
	c-0.035-0.026-0.067-0.055-0.099-0.086l-3.049-3.049c-0.052-0.052-0.098-0.109-0.137-0.171c-2.89-3.046-7.772-9.081-9.118-16.25
	c-0.044-0.159-1.411-5.546,1.245-9.974c1.496-2.494,3.947-4.162,7.284-4.958c0.219-0.052,0.439-0.078,0.656-0.078
	c1.456,0,2.465,1.173,2.831,1.866c0.02,0.038,0.038,0.077,0.053,0.118l2.648,7.081c0.883,1.752,0.101,3.14-0.49,3.687
	c0,0-2.985,3.343-2.988,3.347c-0.088,0.125-2.067,3.132,5.615,11.057c0.01,0.012,0.42,0.417,0.435,0.432
	c5.311,5.15,8.418,5.919,9.797,5.919c0.776,0,1.157-0.231,1.255-0.302c0.015-0.011,0.028-0.02,0.043-0.029l3.445-2.864
	c0.234-0.24,0.955-0.864,2.088-0.864c0.522,0,1.054,0.135,1.58,0.4l7.071,2.644c0.04,0.015,0.078,0.032,0.116,0.052
	c0.865,0.457,2.217,1.705,1.796,3.487C54.544,49.313,48.452,50.472,44.985,50.472L44.985,50.472z M45.331,30.695
	c-7.561,0-13.711-6.153-13.711-13.716c0-7.56,6.151-13.709,13.711-13.709c7.562,0,13.714,6.15,13.714,13.709
	C59.045,24.542,52.893,30.695,45.331,30.695z M38.788,24.982c0.191,0.157,0.388,0.308,0.589,0.45
	c0.035-0.111,0.07-0.229,0.104-0.353c0.191-0.714,0.663-1.104,0.975-1.361c0.325-0.269,0.367-0.303,0.349-0.646
	c-0.051-0.921,0.322-1.45,0.602-1.781c-0.095-0.063-0.207-0.125-0.319-0.171c-1.476-0.619-1.918-1.466-2.211-2.027
	c-0.093-0.178-0.167-0.319-0.248-0.407c-0.106-0.086-0.599-0.27-1.113-0.27c-0.283,0-0.427,0.06-0.454,0.081l0.045,0.236
	c0.032,1.021,0.059,1.827,0.143,1.998c0.032,0.035,0.213,0.156,0.359,0.254l0.194,0.131C38.651,21.688,38.819,23.834,38.788,24.982z
	 M48.81,15.217c-0.621,0-1.158,0.09-1.355,0.138c-0.281,0.068-0.34,0.083-0.551,1.271c-0.046,0.26-0.154,0.872,0.078,1.185
	c0.189,0.256,0.635,0.358,0.975,0.399c3.145,0.378,3.306,2.604,3.358,3.335l0.012,0.139c0.082,0.735,0.041,1.424,0.004,2.032
	c-0.026,0.446-0.065,1.097,0.02,1.331c0.245-0.104,0.724-0.506,1.069-0.967c0.271-0.359,0.774-1.297,0.774-1.943
	c-0.038-0.642,0.005-1.903,0.734-2.493c0.144-0.115,0.327-0.323,0.456-0.503c-0.091-0.075-0.189-0.155-0.274-0.224
	c-0.861-0.694-1.838-1.481-1.821-2.531c0.008-0.5,0.254-0.958,0.691-1.289c0.271-0.205,0.58-0.313,0.895-0.313
	c0.82,0,1.297,0.667,1.645,1.155c0.033,0.046,0.072,0.101,0.111,0.155c-0.002-0.028-0.03-0.407-0.039-0.57
	c-0.304-2.313-1.457-4.534-3.241-6.176c0,0-0.17-0.149-0.316-0.275c-0.1-0.005-0.259-0.011-0.501-0.011c-0.051,0-0.102,0-0.151,0
	c0.473,0.261,0.775,0.714,0.764,1.226c-0.012,0.486-0.382,1.308-1.693,1.308c-0.011,0-0.094-0.001-0.104-0.001
	c-0.12-0.009-0.275-0.022-0.46-0.022c-0.201,0-0.314,0.017-0.365,0.027c0,0-0.189,0.14-0.259,0.192
	c0.236-0.055,0.485-0.091,0.745-0.091c0.253,0,0.501,0.034,0.738,0.101l0.325,0.089c0.957,0.26,2.268,0.616,1.968,2.207
	c-0.161,0.894-0.947,1.499-1.954,1.499c-0.317,0-0.635-0.06-0.919-0.172C49.828,15.288,49.359,15.217,48.81,15.217z M36.403,14.058
	c0.464,0.02,0.795,0.241,1.018,0.45c0.118-0.152,0.278-0.345,0.506-0.573c0.252-0.251,0.292-0.445,0.365-0.797
	c0.2-0.968,0.584-1.668,1.771-2.223c-0.139-0.037-0.261-0.065-0.369-0.091c-0.254-0.06-0.474-0.111-0.686-0.21
	c-0.496-0.23-0.793-0.661-0.815-1.15c-1.322,1.255-2.295,2.85-2.804,4.601c0.35-0.005,0.68-0.01,0.856-0.01L36.403,14.058z
	 M40.687,7.74c0.114,0.04,0.223,0.094,0.323,0.161c0.05,0.033,0.081,0.051,0.1,0.061c0.009-0.01,0.081-0.027,0.216-0.076
	c0.172-0.085,0.56-0.415,0.954-0.792C41.778,7.214,41.216,7.461,40.687,7.74z"/>
<path opacity="0.15" d="M45.331,29.695c7.022,0,12.714-5.691,12.714-12.716c0-7.015-5.691-12.709-12.714-12.709
	c-7.019,0-12.711,5.694-12.711,12.709C32.62,24.004,38.313,29.695,45.331,29.695z M45.919,16.451
	c0.204-1.15,0.328-1.831,1.299-2.067c0.545-0.132,2.179-0.344,3.317,0.109c0.534,0.212,1.394,0.126,1.521-0.583
	c0.143-0.757-0.361-0.808-1.583-1.149c-1.094-0.31-2.131,0.617-3.023,0.616c-0.398,0-0.377-0.336-0.37-0.809
	c0.005-0.469,1.726-1.681,1.907-1.82c0.35-0.267,1.372-0.155,1.391-0.155c1.126,0.035,0.877-0.729,0.119-0.765
	c-1.334-0.063-1.234-0.766-1.25-0.974c-0.019-0.212,0.194-0.745,1.221-0.773c0.33-0.008,1.634-0.063,1.986,0.04
	c0.089,0.064,0.572,0.488,0.572,0.488c1.908,1.756,3.212,4.16,3.563,6.862c0.021,0.405,0.068,0.835,0.053,0.966
	c-0.032,0.235-0.501,0.96-1.138,0.839c-0.705-0.125-1.165-1.957-1.922-1.383c-1.265,0.956,1.945,2.549,1.945,3.05
	c0,0.504-0.677,1.24-0.972,1.477c-0.44,0.356-0.363,1.715-0.363,1.715c0,0.96-0.644,2.104-0.975,2.543
	c-0.331,0.441-1.768,2.08-2.605,1.066c-0.626-0.751-0.097-2.3-0.281-3.953c-0.065-0.596,0.049-2.284-2.495-2.59
	C45.576,18.93,45.771,17.283,45.919,16.451z M34.214,14.662c0.538-2.637,1.999-4.939,4.026-6.562c0,0,2.101-1.589,3.861-1.992
	c0.781-0.175,2.334-0.52,2.229,0.017c-0.112,0.582-2.086,2.497-2.666,2.702c-0.582,0.21-0.809,0.172-1.209-0.092
	c-0.561-0.373-1.778,0.624-1.023,0.975c0.256,0.12,0.718,0.158,1.448,0.411c1.166,0.4,1.504,1.094,0.83,1.274
	c-3.376,0.914-1.795,1.968-3.076,3.248c-0.657,0.659-0.612,0.92-1.076,1.08c-0.57,0.188-0.662-0.641-1.198-0.664
	c-0.192-0.008-1.762,0.024-2.158,0.024C34.146,15.082,34.214,14.662,34.214,14.662z M39.36,18.004c0.566,0.61,0.47,1.502,2.108,2.19
	c0.463,0.191,1.325,0.743,1.079,1.238c-0.248,0.495-0.795,0.677-0.745,1.584c0.08,1.452-1.091,1.336-1.357,2.33
	c-0.263,0.95-0.57,1.575-0.57,1.575c-0.768-0.42-1.478-0.93-2.12-1.508c0.175-0.927-0.136-3.215-0.516-3.471
	c-1.087-0.74-1.048-0.527-1.142-3.426C36.045,16.903,38.774,17.363,39.36,18.004z M54.131,38.952l-7.126-2.664
	c-1.621-0.849-2.577,0.278-2.577,0.278l-3.584,2.979c0.258-0.3-2.97,3.37-12.338-5.716l-0.003,0.001l-0.454-0.451v-0.003
	c-9.082-9.369-5.413-12.597-5.718-12.338l3.1-3.47c0,0,1.129-0.954,0.282-2.574L23.045,7.86c0,0-0.867-1.639-2.371-1.283
	c-10.715,2.556-7.778,13.775-7.778,13.775c1.343,7.155,6.421,13.201,8.995,15.888l-0.016,0.011l3.049,3.049l0.008-0.006
	c2.045,2.095,8.681,8.304,16.716,9.81c0,0,11.217,2.938,13.771-7.779C55.775,39.82,54.131,38.952,54.131,38.952z"/>
<linearGradient id="SVGID_1_" gradientUnits="userSpaceOnUse" x1="35.2861" y1="49.4717" x2="35.2861" y2="4.27">
	<stop  offset="0" style="stop-color:#D0CBC5"/>
	<stop  offset="0.5031" style="stop-color:#FAFCEF"/>
	<stop  offset="0.9693" style="stop-color:#FFFFFF"/>
</linearGradient>
<path fill="url(#SVGID_1_)" d="M45.331,29.695c7.022,0,12.714-5.691,12.714-12.716c0-7.015-5.691-12.709-12.714-12.709
	c-7.019,0-12.711,5.694-12.711,12.709C32.62,24.004,38.313,29.695,45.331,29.695z M45.919,16.451
	c0.204-1.15,0.328-1.831,1.299-2.067c0.545-0.132,2.179-0.344,3.317,0.109c0.534,0.212,1.394,0.126,1.521-0.583
	c0.143-0.757-0.361-0.808-1.583-1.149c-1.094-0.31-2.131,0.617-3.023,0.616c-0.398,0-0.377-0.336-0.37-0.809
	c0.005-0.469,1.726-1.681,1.907-1.82c0.35-0.267,1.372-0.155,1.391-0.155c1.126,0.035,0.877-0.729,0.119-0.765
	c-1.334-0.063-1.234-0.766-1.25-0.974c-0.019-0.212,0.194-0.745,1.221-0.773c0.33-0.008,1.634-0.063,1.986,0.04
	c0.089,0.064,0.572,0.488,0.572,0.488c1.908,1.756,3.212,4.16,3.563,6.862c0.021,0.405,0.068,0.835,0.053,0.966
	c-0.032,0.235-0.501,0.96-1.138,0.839c-0.705-0.125-1.165-1.957-1.922-1.383c-1.265,0.956,1.945,2.549,1.945,3.05
	c0,0.504-0.677,1.24-0.972,1.477c-0.44,0.356-0.363,1.715-0.363,1.715c0,0.96-0.644,2.104-0.975,2.543
	c-0.331,0.441-1.768,2.08-2.605,1.066c-0.626-0.751-0.097-2.3-0.281-3.953c-0.065-0.596,0.049-2.284-2.495-2.59
	C45.576,18.93,45.771,17.283,45.919,16.451z M34.214,14.662c0.538-2.637,1.999-4.939,4.026-6.562c0,0,2.101-1.589,3.861-1.992
	c0.781-0.175,2.334-0.52,2.229,0.017c-0.112,0.582-2.086,2.497-2.666,2.702c-0.582,0.21-0.809,0.172-1.209-0.092
	c-0.561-0.373-1.778,0.624-1.023,0.975c0.256,0.12,0.718,0.158,1.448,0.411c1.166,0.4,1.504,1.094,0.83,1.274
	c-3.376,0.914-1.795,1.968-3.076,3.248c-0.657,0.659-0.612,0.92-1.076,1.08c-0.57,0.188-0.662-0.641-1.198-0.664
	c-0.192-0.008-1.762,0.024-2.158,0.024C34.146,15.082,34.214,14.662,34.214,14.662z M39.36,18.004c0.566,0.61,0.47,1.502,2.108,2.19
	c0.463,0.191,1.325,0.743,1.079,1.238c-0.248,0.495-0.795,0.677-0.745,1.584c0.08,1.452-1.091,1.336-1.357,2.33
	c-0.263,0.95-0.57,1.575-0.57,1.575c-0.768-0.42-1.478-0.93-2.12-1.508c0.175-0.927-0.136-3.215-0.516-3.471
	c-1.087-0.74-1.048-0.527-1.142-3.426C36.045,16.903,38.774,17.363,39.36,18.004z M54.131,38.952l-7.126-2.664
	c-1.621-0.849-2.577,0.278-2.577,0.278l-3.584,2.979c0.258-0.3-2.97,3.37-12.338-5.716l-0.003,0.001l-0.454-0.451v-0.003
	c-9.082-9.369-5.413-12.597-5.718-12.338l3.1-3.47c0,0,1.129-0.954,0.282-2.574L23.045,7.86c0,0-0.867-1.639-2.371-1.283
	c-10.715,2.556-7.778,13.775-7.778,13.775c1.343,7.155,6.421,13.201,8.995,15.888l-0.016,0.011l3.049,3.049l0.008-0.006
	c2.045,2.095,8.681,8.304,16.716,9.81c0,0,11.217,2.938,13.771-7.779C55.775,39.82,54.131,38.952,54.131,38.952z"/>
<path fill="#FFFFFF" d="M47.837,20.202c2.544,0.306,2.43,1.995,2.495,2.59c0.015,0.13,0.019,0.258,0.024,0.387
	c0.021-0.443,0.029-0.909-0.024-1.387c-0.065-0.596,0.049-2.284-2.495-2.59c-1.361-0.164-1.829-0.826-1.956-1.509
	C45.757,18.568,45.778,19.955,47.837,20.202z"/>
<path fill="#FFFFFF" d="M47.362,14.354c0.187-0.038,0.438-0.076,0.736-0.103c0.732-0.241,1.536-0.727,2.375-0.49
	c0.716,0.2,1.178,0.303,1.415,0.503c0.079-0.096,0.142-0.209,0.168-0.354c0.143-0.757-0.361-0.808-1.583-1.149
	c-1.094-0.31-2.131,0.617-3.023,0.616c-0.113,0-0.187-0.033-0.242-0.083c-0.073,0.104-0.127,0.2-0.128,0.274
	C47.074,13.995,47.072,14.296,47.362,14.354z"/>
<path fill="#FFFFFF" d="M56.643,17.438c0.015-0.12-0.023-0.491-0.046-0.863c-0.134,0.299-0.551,0.805-1.092,0.703
	c-0.705-0.125-1.165-1.957-1.922-1.383c-0.411,0.311-0.346,0.689-0.075,1.075c0.026-0.025,0.043-0.051,0.075-0.075
	c0.757-0.573,1.217,1.258,1.922,1.383C56.142,18.397,56.61,17.673,56.643,17.438z"/>
<path fill="#FFFFFF" d="M45.331,5.27c6.854,0,12.424,5.428,12.688,12.21c0.007-0.167,0.025-0.332,0.025-0.5
	c0-7.015-5.691-12.709-12.714-12.709c-7.019,0-12.711,5.694-12.711,12.709c0,0.169,0.019,0.333,0.025,0.5
	C32.91,10.697,38.481,5.27,45.331,5.27z"/>
<path fill="#FFFFFF" d="M54.557,20.42c-0.44,0.356-0.363,1.715-0.363,1.715c0,0.96-0.644,2.104-0.975,2.543
	c-0.331,0.441-1.768,2.08-2.605,1.066c-0.185-0.221-0.262-0.517-0.294-0.858c-0.044,0.783-0.051,1.444,0.294,1.858
	c0.838,1.014,2.274-0.625,2.605-1.066c0.331-0.44,0.975-1.583,0.975-2.543c0,0-0.077-1.359,0.363-1.715
	c0.295-0.237,0.972-0.973,0.972-1.477c0-0.086-0.099-0.206-0.248-0.347C55.057,19.946,54.736,20.276,54.557,20.42z"/>
<path fill="#FFFFFF" d="M50.378,10.593c1.126,0.035,0.877-0.729,0.119-0.765c-0.612-0.029-0.915-0.194-1.072-0.382
	c-0.142,0.151-0.187,0.313-0.178,0.409c0.011,0.137-0.021,0.485,0.331,0.727C49.964,10.55,50.366,10.593,50.378,10.593z"/>
<path fill="#FFFFFF" d="M20.674,7.577c1.504-0.356,2.371,1.283,2.371,1.283l2.668,7.135c0.123,0.236,0.195,0.453,0.245,0.659
	c0.111-0.424,0.111-0.979-0.245-1.659L23.045,7.86c0,0-0.867-1.639-2.371-1.283c-7.264,1.732-8.252,7.444-8.136,10.945
	C12.653,14.02,14.068,9.153,20.674,7.577z"/>
<path fill="#FFFFFF" d="M34.202,16.082c0.396,0,1.966-0.033,2.158-0.024c0.536,0.023,0.628,0.853,1.198,0.664
	c0.464-0.159,0.419-0.421,1.076-1.08c1.281-1.279-0.3-2.334,3.076-3.248c0.516-0.138,0.435-0.577-0.152-0.954
	c-3.161,0.903-1.664,1.943-2.924,3.202c-0.657,0.659-0.612,0.92-1.076,1.08c-0.57,0.188-0.662-0.641-1.198-0.664
	c-0.173-0.007-1.456,0.018-2.001,0.023c-0.05,0.193-0.105,0.384-0.146,0.581C34.214,15.662,34.146,16.082,34.202,16.082z"/>
<path fill="#FFFFFF" d="M54.131,38.952l-7.126-2.664c-1.621-0.849-2.577,0.278-2.577,0.278l-3.584,2.979
	c0.258-0.3-2.97,3.37-12.338-5.716l-0.003,0.001l-0.454-0.451v-0.003c-4.711-4.86-5.988-8.064-6.172-9.99
	c-0.191,1.715,0.525,5.165,6.172,10.99v0.003l0.454,0.451l0.003-0.001c9.368,9.086,12.596,5.416,12.338,5.716l3.584-2.979
	c0,0,0.956-1.127,2.577-0.278l7.126,2.664c0,0,0.987,0.532,1.261,1.477c0.009-0.036,0.02-0.068,0.028-0.104
	C55.775,39.82,54.131,38.952,54.131,38.952z"/>
<path fill="#FFFFFF" d="M41.665,8.826c-0.582,0.21-0.809,0.172-1.209-0.092c-0.561-0.373-1.778,0.624-1.023,0.975
	c0.067,0.031,0.15,0.057,0.247,0.083c0.258-0.142,0.564-0.198,0.776-0.057c0.4,0.265,0.627,0.303,1.209,0.092
	c0.58-0.205,2.554-2.12,2.666-2.702c0.039-0.199-0.152-0.276-0.446-0.286C43.24,7.626,42.087,8.677,41.665,8.826z"/>
<path fill="#FFFFFF" d="M39.875,27.92c0,0,0.308-0.625,0.57-1.575c0.267-0.993,1.438-0.877,1.357-2.33
	c-0.05-0.907,0.497-1.089,0.745-1.584c0.113-0.228-0.013-0.467-0.223-0.678c-0.258,0.305-0.56,0.577-0.522,1.262
	c0.08,1.452-1.091,1.336-1.357,2.33c-0.263,0.95-0.57,1.575-0.57,1.575c-0.752-0.412-1.445-0.911-2.078-1.474
	c0.015,0.375,0.005,0.719-0.042,0.966C38.397,26.991,39.107,27.5,39.875,27.92z"/>
<path fill="#FFFFFF" d="M37.239,22.941c0.255,0.172,0.475,1.255,0.542,2.231c0.097-1.028-0.19-2.994-0.542-3.231
	c-0.987-0.672-1.046-0.566-1.118-2.71c-0.019,0.087-0.026,0.181-0.023,0.284C36.191,22.414,36.152,22.202,37.239,22.941z"/>
</svg>
