<?xml version="1.0" encoding="utf-8"?>
<!-- Generator: Adobe Illustrator 15.0.0, SVG Export Plug-In . SVG Version: 6.00 Build 0)  -->
<!DOCTYPE svg PUBLIC "-//W3C//DTD SVG 1.1//EN" "http://www.w3.org/Graphics/SVG/1.1/DTD/svg11.dtd">
<svg version="1.1" xmlns="http://www.w3.org/2000/svg" xmlns:xlink="http://www.w3.org/1999/xlink" x="0px" y="0px" width="67px"
	 height="57px" viewBox="0 0 67 57" enable-background="new 0 0 67 57" xml:space="preserve">
<g id="DO_NOT_EDIT_-_BOUNDING_BOX">
	<rect id="BOUNDING_BOX" fill="none" width="67" height="57"/>
</g>
<g id="PLACE_YOUR_GRAPHIC_HERE">
	<path opacity="0.3" d="M54.584,15.126H12.419c-1.062,0-1.919,0.856-1.919,1.917v24.915c0,1.059,0.857,1.916,1.919,1.916h42.165
		c1.06,0,1.916-0.857,1.916-1.916V17.043C56.5,15.982,55.644,15.126,54.584,15.126z M43.084,18.958h3.832v3.833h-3.832V18.958z
		 M39.25,28.541v-3.833h3.834v3.833H39.25z M41.166,30.458v3.833h-3.832v-3.833H41.166z M37.334,18.958h3.832v3.833h-3.832V18.958z
		 M37.334,28.541H33.5v-3.833h3.834V28.541z M35.416,30.458v3.833h-3.832v-3.833H35.416z M31.584,18.958h3.832v3.833h-3.832V18.958z
		 M31.584,28.541H27.75v-3.833h3.834V28.541z M29.666,30.458v3.833h-3.831v-3.833H29.666z M25.834,18.958h3.831v3.833h-3.831V18.958
		z M25.834,28.541H22v-3.833h3.834V28.541z M20.084,18.958h3.831v3.833h-3.831V18.958z M14.334,18.958h3.834v3.833h-3.834V18.958z
		 M14.334,24.708h5.75v3.833h-5.75V24.708z M18.169,34.291h-3.834v-3.833h3.834V34.291z M20.084,30.458h3.831v3.833h-3.831V30.458z
		 M45,40.041H22v-3.833h23V40.041z M46.916,34.291h-3.832v-3.833h3.832V34.291z M52.669,34.291h-3.835v-5.75H45v-3.833h7.669V34.291
		z M52.669,22.791h-3.835v-3.833h3.835V22.791z"/>
	<rect x="16.381" y="16.446" fill="none" width="30" height="30"/>
	<path opacity="0.15" d="M12.419,43.874c-1.609,0-2.919-1.309-2.919-2.916V16.043c0-1.608,1.31-2.917,2.919-2.917h42.165
		c1.607,0,2.916,1.309,2.916,2.917v24.915c0,1.607-1.309,2.916-2.916,2.916H12.419z M44,38.041v-1.833H23v1.833H44z M51.669,32.291
		v-7.583H46v1.833h2.834c0.553,0,1,0.448,1,1v4.75H51.669z M45.916,32.291v-1.833h-1.832v1.833H45.916z M40.166,32.291v-1.833
		h-1.832v1.833H40.166z M34.416,32.291v-1.833h-1.832v1.833H34.416z M28.666,32.291v-1.833h-1.831v1.833H28.666z M22.916,32.291
		v-1.833h-1.831v1.833H22.916z M17.169,32.291v-1.833h-1.834v1.833H17.169z M42.084,26.541v-1.833H40.25v1.833H42.084z
		 M36.334,26.541v-1.833H34.5v1.833H36.334z M30.584,26.541v-1.833H28.75v1.833H30.584z M24.834,26.541v-1.833H23v1.833H24.834z
		 M19.084,26.541v-1.833h-3.75v1.833H19.084z M51.669,20.791v-1.833h-1.835v1.833H51.669z M45.916,20.791v-1.833h-1.832v1.833
		H45.916z M40.166,20.791v-1.833h-1.832v1.833H40.166z M34.416,20.791v-1.833h-1.832v1.833H34.416z M28.666,20.791v-1.833h-1.831
		v1.833H28.666z M22.916,20.791v-1.833h-1.831v1.833H22.916z M17.169,20.791v-1.833h-1.834v1.833H17.169z"/>
	<path opacity="0.15" d="M54.584,14.126H12.419c-1.062,0-1.919,0.856-1.919,1.917v24.915c0,1.059,0.857,1.916,1.919,1.916h42.165
		c1.06,0,1.916-0.857,1.916-1.916V16.043C56.5,14.982,55.644,14.126,54.584,14.126z M43.084,17.958h3.832v3.833h-3.832V17.958z
		 M39.25,27.541v-3.833h3.834v3.833H39.25z M41.166,29.458v3.833h-3.832v-3.833H41.166z M37.334,17.958h3.832v3.833h-3.832V17.958z
		 M37.334,27.541H33.5v-3.833h3.834V27.541z M35.416,29.458v3.833h-3.832v-3.833H35.416z M31.584,17.958h3.832v3.833h-3.832V17.958z
		 M31.584,27.541H27.75v-3.833h3.834V27.541z M29.666,29.458v3.833h-3.831v-3.833H29.666z M25.834,17.958h3.831v3.833h-3.831V17.958
		z M25.834,27.541H22v-3.833h3.834V27.541z M20.084,17.958h3.831v3.833h-3.831V17.958z M14.334,17.958h3.834v3.833h-3.834V17.958z
		 M14.334,23.708h5.75v3.833h-5.75V23.708z M18.169,33.291h-3.834v-3.833h3.834V33.291z M20.084,29.458h3.831v3.833h-3.831V29.458z
		 M45,39.041H22v-3.833h23V39.041z M46.916,33.291h-3.832v-3.833h3.832V33.291z M52.669,33.291h-3.835v-5.75H45v-3.833h7.669V33.291
		z M52.669,21.791h-3.835v-3.833h3.835V21.791z"/>
	<linearGradient id="SVGID_1_" gradientUnits="userSpaceOnUse" x1="33.5005" y1="42.874" x2="33.5005" y2="14.1265">
		<stop  offset="0" style="stop-color:#D0CBC5"/>
		<stop  offset="0.5031" style="stop-color:#FAFCEF"/>
		<stop  offset="0.9693" style="stop-color:#FFFFFF"/>
	</linearGradient>
	<path fill="url(#SVGID_1_)" d="M54.584,14.126H12.419c-1.062,0-1.919,0.856-1.919,1.917v24.915c0,1.059,0.857,1.916,1.919,1.916
		h42.165c1.06,0,1.916-0.857,1.916-1.916V16.043C56.5,14.982,55.644,14.126,54.584,14.126z M43.084,17.958h3.832v3.833h-3.832
		V17.958z M39.25,27.541v-3.833h3.834v3.833H39.25z M41.166,29.458v3.833h-3.832v-3.833H41.166z M37.334,17.958h3.832v3.833h-3.832
		V17.958z M37.334,27.541H33.5v-3.833h3.834V27.541z M35.416,29.458v3.833h-3.832v-3.833H35.416z M31.584,17.958h3.832v3.833h-3.832
		V17.958z M31.584,27.541H27.75v-3.833h3.834V27.541z M29.666,29.458v3.833h-3.831v-3.833H29.666z M25.834,17.958h3.831v3.833
		h-3.831V17.958z M25.834,27.541H22v-3.833h3.834V27.541z M20.084,17.958h3.831v3.833h-3.831V17.958z M14.334,17.958h3.834v3.833
		h-3.834V17.958z M14.334,23.708h5.75v3.833h-5.75V23.708z M18.169,33.291h-3.834v-3.833h3.834V33.291z M20.084,29.458h3.831v3.833
		h-3.831V29.458z M45,39.041H22v-3.833h23V39.041z M46.916,33.291h-3.832v-3.833h3.832V33.291z M52.669,33.291h-3.835v-5.75H45
		v-3.833h7.669V33.291z M52.669,21.791h-3.835v-3.833h3.835V21.791z"/>
	<path fill="#FFFFFF" d="M29.666,34.291h-3.831v-1h3.831V34.291z M25.834,28.541v-1H22v1H25.834z M37.334,28.541v-1H33.5v1H37.334z
		 M31.584,28.541v-1H27.75v1H31.584z M46.916,22.791v-1h-3.832v1H46.916z M35.416,33.291h-3.832v1h3.832V33.291z M41.166,33.291
		h-3.832v1h3.832V33.291z M18.169,22.791v-1h-3.834v1H18.169z M48.834,28.541v-1H45v1H48.834z M52.669,22.791v-1h-3.835v1H52.669z
		 M52.669,33.291h-3.835v1h3.835V33.291z M54.584,14.126H12.419c-1.062,0-1.919,0.856-1.919,1.917v1
		c0-1.061,0.857-1.917,1.919-1.917h42.165c1.06,0,1.916,0.856,1.916,1.917v-1C56.5,14.982,55.644,14.126,54.584,14.126z
		 M23.916,22.791v-1h-3.831v1H23.916z M23.916,34.291v-1h-3.831v1H23.916z M20.084,28.541v-1h-5.75v1H20.084z M18.169,34.291v-1
		h-3.834v1H18.169z M35.416,22.791v-1h-3.832v1H35.416z M29.666,22.791v-1h-3.831v1H29.666z M41.166,22.791v-1h-3.832v1H41.166z
		 M46.916,33.291h-3.832v1h3.832V33.291z M45,39.041H22v1h23V39.041z M43.084,28.541v-1H39.25v1H43.084z"/>
</g>
<g id="DO_NOT_EDIT_-_FOCAL_ZONE_GUIDES">
</g>
</svg>
