<?xml version="1.0" encoding="utf-8"?>
<!-- Generator: Adobe Illustrator 15.0.0, SVG Export Plug-In . SVG Version: 6.00 Build 0)  -->
<!DOCTYPE svg PUBLIC "-//W3C//DTD SVG 1.1//EN" "http://www.w3.org/Graphics/SVG/1.1/DTD/svg11.dtd">
<svg version="1.1" xmlns="http://www.w3.org/2000/svg" xmlns:xlink="http://www.w3.org/1999/xlink" x="0px" y="0px" width="67px"
	 height="57px" viewBox="0 0 67 57" enable-background="new 0 0 67 57" xml:space="preserve">
<g id="DO_NOT_EDIT_-_BOUNDING_BOX">
	<rect id="BOUNDING_BOX" fill="none" width="67" height="57"/>
</g>
<g id="PLACE_YOUR_GRAPHIC_HERE">
	<path opacity="0.3" d="M55.149,40.502h-1.354v-27.06c0-0.747-0.606-1.354-1.354-1.354H14.559c-0.745,0-1.351,0.606-1.351,1.354
		v27.06h-1.354c-0.744,0-1.354,0.603-1.354,1.351v2.705c0,0.751,0.61,1.354,1.354,1.354h43.295c0.744,0,1.351-0.603,1.351-1.354
		v-2.705C56.5,41.104,55.894,40.502,55.149,40.502z M37.991,43.012h-10v-2h10V43.012z M51.09,37.793H15.913V14.797H51.09V37.793z"/>
	<rect x="16.381" y="16.446" fill="none" width="30" height="30"/>
	<path opacity="0.15" d="M11.854,45.911c-1.298,0-2.354-1.056-2.354-2.354v-2.705c0-1.296,1.056-2.351,2.354-2.351h0.354v-26.06
		c0-1.298,1.055-2.354,2.351-2.354h37.882c1.298,0,2.354,1.056,2.354,2.354v26.06h0.354c1.296,0,2.351,1.055,2.351,2.351v2.705
		c0,1.298-1.055,2.354-2.351,2.354H11.854z M50.09,35.793V14.797H16.913v20.996H50.09z"/>
	<path opacity="0.15" d="M55.149,39.502h-1.354v-27.06c0-0.747-0.606-1.354-1.354-1.354H14.559c-0.745,0-1.351,0.606-1.351,1.354
		v27.06h-1.354c-0.744,0-1.354,0.603-1.354,1.351v2.705c0,0.751,0.61,1.354,1.354,1.354h43.295c0.744,0,1.351-0.603,1.351-1.354
		v-2.705C56.5,40.104,55.894,39.502,55.149,39.502z M37.991,42.012h-10v-2h10V42.012z M51.09,36.793H15.913V13.797H51.09V36.793z"/>
	<linearGradient id="SVGID_1_" gradientUnits="userSpaceOnUse" x1="33.5005" y1="44.9111" x2="33.5005" y2="11.0894">
		<stop  offset="0" style="stop-color:#D0CBC5"/>
		<stop  offset="0.5031" style="stop-color:#FAFCEF"/>
		<stop  offset="0.9693" style="stop-color:#FFFFFF"/>
	</linearGradient>
	<path fill="url(#SVGID_1_)" d="M55.149,39.502h-1.354v-27.06c0-0.747-0.606-1.354-1.354-1.354H14.559
		c-0.745,0-1.351,0.606-1.351,1.354v27.06h-1.354c-0.744,0-1.354,0.603-1.354,1.351v2.705c0,0.751,0.61,1.354,1.354,1.354h43.295
		c0.744,0,1.351-0.603,1.351-1.354v-2.705C56.5,40.104,55.894,39.502,55.149,39.502z M37.991,42.012h-10v-2h10V42.012z
		 M51.09,36.793H15.913V13.797H51.09V36.793z"/>
	<path fill="#FFFFFF" d="M13.208,13.442v-1c0-0.747,0.606-1.354,1.351-1.354h37.882c0.747,0,1.354,0.606,1.354,1.354v1
		c0-0.747-0.606-1.354-1.354-1.354H14.559C13.814,12.089,13.208,12.695,13.208,13.442z M37.991,43.012v-1h-10v1H37.991z
		 M51.09,37.793v-1H15.913v1H51.09z M55.149,39.502h-1.354v1h1.354c0.744,0,1.351,0.603,1.351,1.351v-1
		C56.5,40.104,55.894,39.502,55.149,39.502z M11.854,40.502h1.354v-1h-1.354c-0.744,0-1.354,0.603-1.354,1.351v1
		C10.5,41.104,11.11,40.502,11.854,40.502z"/>
</g>
<g id="DO_NOT_EDIT_-_FOCAL_ZONE_GUIDES">
</g>
</svg>
