<?xml version="1.0" encoding="utf-8"?>
<!-- Generator: Adobe Illustrator 15.0.0, SVG Export Plug-In . SVG Version: 6.00 Build 0)  -->
<!DOCTYPE svg PUBLIC "-//W3C//DTD SVG 1.1//EN" "http://www.w3.org/Graphics/SVG/1.1/DTD/svg11.dtd">
<svg version="1.1" id="Ebene_1" xmlns="http://www.w3.org/2000/svg" xmlns:xlink="http://www.w3.org/1999/xlink" x="0px" y="0px"
	 width="67px" height="57px" viewBox="0 0 67 57" enable-background="new 0 0 67 57" xml:space="preserve">
<rect fill="none" width="67" height="57"/>
<path opacity="0.15" enable-background="new    " d="M33.172,52c-0.267,0-0.521-0.105-0.709-0.296L19.658,38.792
	c-1.766-1.692-3.174-3.733-4.169-6.051C14.501,30.418,14,27.89,14,25.224c0-2.64,0.512-5.159,1.52-7.49
	c1.003-2.32,2.388-4.374,4.115-6.103c1.739-1.734,3.782-3.117,6.074-4.113C28.021,6.511,30.532,6,33.173,6
	c2.64,0,5.16,0.51,7.494,1.517c2.31,0.994,4.362,2.379,6.103,4.113c1.727,1.729,3.11,3.782,4.119,6.103
	c1.006,2.332,1.516,4.852,1.516,7.491c0,2.677-0.51,5.208-1.516,7.521c-1.013,2.312-2.408,4.349-4.152,6.058L33.881,51.706
	C33.693,51.895,33.438,52,33.172,52L33.172,52z M33.173,17.138c-1.146,0-2.178,0.208-3.156,0.635
	c-0.982,0.428-1.843,1.01-2.56,1.729c-0.723,0.721-1.306,1.583-1.734,2.564c-0.42,0.963-0.633,2.025-0.633,3.157
	c0,1.133,0.213,2.198,0.634,3.166c0.428,0.978,1.011,1.837,1.73,2.556c0.723,0.726,1.584,1.307,2.56,1.729
	c0.982,0.431,2.015,0.638,3.159,0.638c1.149,0,2.185-0.207,3.163-0.637c0.977-0.422,1.838-1.004,2.566-1.73
	c0.719-0.719,1.3-1.58,1.726-2.557c0.421-0.967,0.634-2.032,0.634-3.165c0-1.132-0.213-2.194-0.634-3.157
	c-0.426-0.98-1.007-1.842-1.728-2.563c-0.723-0.724-1.586-1.306-2.563-1.73C35.357,17.346,34.322,17.138,33.173,17.138
	L33.173,17.138z"/>
<path opacity="0.3" enable-background="new    " d="M33.173,8c-2.513,0-4.868,0.478-7.065,1.435
	c-2.193,0.953-4.116,2.259-5.766,3.903c-1.648,1.649-2.948,3.58-3.904,5.793C15.479,21.345,15,23.71,15,26.224
	c0,2.552,0.473,4.924,1.408,7.124c0.942,2.193,2.26,4.109,3.96,5.74L33.173,52l12.862-12.912c1.664-1.631,2.975-3.547,3.936-5.74
	c0.955-2.199,1.434-4.572,1.434-7.124c0-2.514-0.479-4.879-1.434-7.093c-0.961-2.213-2.262-4.144-3.908-5.793
	c-1.647-1.645-3.578-2.95-5.791-3.903C38.051,8.478,35.691,8,33.173,8z M33.173,35.313c-1.276,0-2.459-0.24-3.557-0.721
	c-1.097-0.477-2.056-1.123-2.868-1.938c-0.816-0.814-1.461-1.77-1.941-2.866c-0.479-1.101-0.717-2.287-0.717-3.564
	c0-1.272,0.238-2.461,0.717-3.558c0.48-1.1,1.125-2.055,1.941-2.869c0.813-0.816,1.771-1.463,2.868-1.94
	c1.098-0.479,2.28-0.719,3.557-0.719c1.282,0,2.466,0.239,3.563,0.719c1.1,0.478,2.056,1.124,2.871,1.94
	c0.813,0.814,1.459,1.77,1.938,2.869c0.479,1.097,0.717,2.285,0.717,3.558c0,1.277-0.238,2.464-0.717,3.564
	c-0.479,1.099-1.123,2.052-1.938,2.866c-0.815,0.814-1.771,1.463-2.871,1.938C35.639,35.072,34.455,35.313,33.173,35.313z"/>
<rect x="10.5" y="5.5" fill="none" width="46" height="46"/>
<linearGradient id="SVGID_1_" gradientUnits="userSpaceOnUse" x1="170.6826" y1="-254.0195" x2="170.6826" y2="-210.0195" gradientTransform="matrix(1 0 0 -1 -137.48 -203.0195)">
	<stop  offset="0" style="stop-color:#D0CBC5"/>
	<stop  offset="0.5031" style="stop-color:#FAFCEF"/>
	<stop  offset="0.9693" style="stop-color:#FFFFFF"/>
</linearGradient>
<path fill="url(#SVGID_1_)" d="M33.173,7c-2.513,0-4.868,0.478-7.065,1.435c-2.193,0.953-4.116,2.259-5.766,3.903
	c-1.648,1.649-2.948,3.58-3.904,5.793C15.479,20.345,15,22.71,15,25.224c0,2.552,0.473,4.924,1.408,7.124
	c0.942,2.193,2.26,4.109,3.96,5.74L33.173,51l12.862-12.912c1.664-1.631,2.975-3.547,3.936-5.74
	c0.955-2.199,1.434-4.572,1.434-7.124c0-2.514-0.479-4.879-1.434-7.093c-0.961-2.213-2.262-4.144-3.908-5.793
	c-1.647-1.645-3.578-2.95-5.791-3.903C38.051,7.478,35.691,7,33.173,7z M33.173,34.313c-1.276,0-2.459-0.24-3.557-0.721
	c-1.097-0.477-2.056-1.123-2.868-1.938c-0.816-0.814-1.461-1.77-1.941-2.866c-0.479-1.101-0.717-2.287-0.717-3.564
	c0-1.272,0.238-2.461,0.717-3.558c0.48-1.1,1.125-2.055,1.941-2.869c0.813-0.816,1.771-1.463,2.868-1.94
	c1.098-0.479,2.28-0.719,3.557-0.719c1.282,0,2.466,0.239,3.563,0.719c1.1,0.478,2.056,1.124,2.871,1.94
	c0.813,0.814,1.459,1.77,1.938,2.869c0.479,1.097,0.717,2.285,0.717,3.558c0,1.277-0.238,2.464-0.717,3.564
	c-0.479,1.099-1.123,2.052-1.938,2.866c-0.815,0.814-1.771,1.463-2.871,1.938C35.639,34.072,34.455,34.313,33.173,34.313z"/>
<path fill="#FFFFFF" d="M41.545,28.788c-0.479,1.099-1.123,2.052-1.938,2.866c-0.815,0.814-1.771,1.463-2.871,1.938
	c-1.098,0.48-2.281,0.721-3.563,0.721c-1.276,0-2.459-0.24-3.557-0.721c-1.097-0.477-2.056-1.123-2.868-1.938
	c-0.816-0.814-1.461-1.77-1.941-2.866c-0.415-0.954-0.639-1.978-0.693-3.063c-0.008,0.166-0.023,0.33-0.023,0.499
	c0,1.277,0.238,2.464,0.717,3.564c0.48,1.099,1.125,2.052,1.941,2.866c0.813,0.814,1.771,1.463,2.868,1.938
	c1.098,0.48,2.28,0.721,3.557,0.721c1.282,0,2.467-0.24,3.563-0.721c1.101-0.477,2.057-1.123,2.873-1.938
	c0.813-0.814,1.457-1.77,1.937-2.866c0.479-1.101,0.718-2.287,0.718-3.564c0-0.169-0.017-0.333-0.023-0.499
	C42.184,26.811,41.96,27.834,41.545,28.788z M49.971,18.131c-0.961-2.213-2.262-4.144-3.908-5.793
	c-1.647-1.645-3.578-2.95-5.791-3.903C38.051,7.478,35.691,7,33.173,7c-2.513,0-4.868,0.478-7.065,1.435
	c-2.193,0.953-4.116,2.259-5.766,3.903c-1.648,1.649-2.948,3.58-3.904,5.793C15.479,20.345,15,22.71,15,25.224
	c0,0.172,0.02,0.337,0.023,0.507c0.06-2.328,0.52-4.532,1.414-6.6c0.956-2.213,2.256-4.144,3.904-5.793
	c1.649-1.645,3.572-2.95,5.766-3.903C28.305,8.478,30.66,8,33.173,8c2.519,0,4.878,0.478,7.099,1.435
	c2.213,0.953,4.144,2.259,5.791,3.903c1.646,1.649,2.947,3.58,3.908,5.793c0.891,2.065,1.35,4.269,1.408,6.596
	c0.005-0.169,0.023-0.332,0.023-0.503C51.402,22.71,50.926,20.345,49.971,18.131z"/>
</svg>
