<?xml version="1.0" encoding="utf-8"?>
<!-- Generator: Adobe Illustrator 14.0.0, SVG Export Plug-In  -->
<!DOCTYPE svg PUBLIC "-//W3C//DTD SVG 1.1//EN" "http://www.w3.org/Graphics/SVG/1.1/DTD/svg11.dtd" [
	<!ENTITY ns_flows "http://ns.adobe.com/Flows/1.0/">
]>
<svg version="1.1"
	 xmlns="http://www.w3.org/2000/svg" xmlns:xlink="http://www.w3.org/1999/xlink" xmlns:a="http://ns.adobe.com/AdobeSVGViewerExtensions/3.0/"
	 x="0px" y="0px" width="67px" height="57px" viewBox="0 0 67 57" enable-background="new 0 0 67 57" xml:space="preserve">
<defs>
</defs>
<rect fill="none" width="67" height="57"/>
<path opacity="0.15" d="M19.646,50.955c-2.078,0-3.646-1.666-3.646-3.874V24.08c0-2.209,1.567-3.874,3.646-3.874h0.438v-2.349
	c-0.311-3.292,0.921-10.142,7.836-11.846c0.095-0.023,2.331-0.562,5.532-0.562c0.193,0,0.39,0.002,0.59,0.006
	c0.155-0.004,0.347-0.005,0.536-0.005c3.294,0,5.536,0.561,5.559,0.566c6.897,1.699,8.131,8.549,7.818,11.933l0.003,2.257h0.168
	c2.137,0,3.875,1.737,3.875,3.874v23.001c0,2.136-1.738,3.874-3.875,3.874H19.646z M34.938,41.527v-5.521
	c0-0.355,0.188-0.685,0.496-0.863c0.889-0.52,1.42-1.431,1.42-2.438c0-1.563-1.271-2.832-2.833-2.832s-2.833,1.27-2.833,2.832
	c0,1.01,0.53,1.922,1.419,2.438c0.308,0.179,0.497,0.509,0.497,0.864v5.52H34.938z M41.65,20.206l0.006-2.688
	c0.05-0.549,0.347-4.54-3.045-5.374c-0.033-0.008-0.064-0.018-0.096-0.029v0c-0.023,0-1.502-0.336-3.67-0.363
	c-0.071,0.018-0.146,0.027-0.22,0.027c-0.013,0-0.025,0-0.038-0.001c-0.202-0.009-0.389-0.011-0.581-0.012
	c-0.178,0.001-0.357,0.003-0.552,0.012c-0.016,0-0.03,0.001-0.045,0.001c-0.077,0-0.153-0.009-0.228-0.026
	c-2.132,0.03-3.599,0.352-3.764,0.39c-3.372,0.832-3.083,4.838-3.039,5.292l0.015,0.263l0.001,2.507H41.65z"/>
<path opacity="0.3" d="M48.125,22.206h-1.167v-3.349c0.292-3.159-0.809-9.331-7.069-10.872c-0.107-0.027-2.482-0.598-5.868-0.53
	c-3.384-0.069-5.763,0.503-5.862,0.527c-6.269,1.544-7.369,7.716-7.075,10.875v3.349h-1.438c-1.583,0-2.646,1.296-2.646,2.874
	v23.001c0,1.581,1.063,2.874,2.646,2.874h28.479c1.58,0,2.875-1.293,2.875-2.874V25.08C51,23.502,49.705,22.206,48.125,22.206z
	 M35.938,37.007v6.521h-3.834v-6.52c-1.142-0.664-1.916-1.886-1.916-3.303c0-2.116,1.715-3.832,3.833-3.832
	c2.111,0,3.833,1.716,3.833,3.832C37.854,35.119,37.075,36.342,35.938,37.007z M42.656,18.521l-0.008,3.686H25.396v-3.457
	l-0.011-0.216c-0.053-0.543-0.39-5.328,3.807-6.363c0.019-0.004,1.726-0.408,4.219-0.418v0.028c0.208-0.009,0.4-0.012,0.602-0.013
	c0.205,0.001,0.404,0.003,0.619,0.013v-0.028c2.491,0.006,4.198,0.414,4.219,0.421C43.046,13.205,42.709,17.99,42.656,18.521z"/>
<linearGradient id="SVGID_1_" gradientUnits="userSpaceOnUse" x1="34" y1="49.9551" x2="34" y2="6.4497">
	<stop  offset="0" style="stop-color:#D0CBC5"/>
	<stop  offset="0.5031" style="stop-color:#FAFCEF"/>
	<stop  offset="0.9693" style="stop-color:#FFFFFF"/>
</linearGradient>
<path fill="url(#SVGID_1_)" d="M48.125,21.206h-1.167v-3.349c0.292-3.159-0.809-9.331-7.069-10.872
	c-0.107-0.027-2.482-0.598-5.868-0.53c-3.384-0.069-5.763,0.503-5.862,0.527c-6.269,1.544-7.369,7.716-7.075,10.875v3.349h-1.438
	c-1.583,0-2.646,1.296-2.646,2.874v23.001c0,1.581,1.063,2.874,2.646,2.874h28.479c1.58,0,2.875-1.293,2.875-2.874V24.08
	C51,22.502,49.705,21.206,48.125,21.206z M35.938,36.007v6.521h-3.834v-6.52c-1.142-0.664-1.916-1.886-1.916-3.303
	c0-2.116,1.715-3.832,3.833-3.832c2.111,0,3.833,1.716,3.833,3.832C37.854,34.119,37.075,35.342,35.938,36.007z M42.656,17.521
	l-0.008,3.686H25.396v-3.457l-0.011-0.216c-0.053-0.542-0.39-5.328,3.807-6.363c0.019-0.004,1.726-0.408,4.219-0.418v0.028
	c0.208-0.009,0.4-0.012,0.602-0.013c0.205,0.001,0.404,0.003,0.619,0.013v-0.028c2.491,0.006,4.198,0.414,4.219,0.421
	C43.046,12.205,42.709,16.99,42.656,17.521z"/>
<path fill="#FFFFFF" d="M32.104,43.527h3.834v-1h-3.834V43.527z M25.396,17.749l-0.011-0.216c-0.004-0.034-0.008-0.085-0.012-0.151
	c-0.033,0.576-0.002,1.01,0.012,1.151l0.011,0.216V17.749z M17,24.08v1c0-1.578,1.063-2.874,2.646-2.874h1.438v-1h-1.438
	C18.063,21.206,17,22.502,17,24.08z M32.104,36.008c-0.987-0.574-1.697-1.566-1.872-2.74c-0.017,0.146-0.044,0.287-0.044,0.438
	c0,1.417,0.774,2.639,1.916,3.303V36.008z M48.125,21.206h-1.167v1h1.167c1.58,0,2.875,1.296,2.875,2.874v-1
	C51,22.502,49.705,21.206,48.125,21.206z M35.938,36.007v1c1.138-0.665,1.916-1.888,1.916-3.302c0-0.15-0.027-0.292-0.045-0.438
	C37.634,34.439,36.921,35.432,35.938,36.007z M39.889,6.985c-0.107-0.027-2.482-0.598-5.868-0.53
	c-3.384-0.069-5.763,0.503-5.862,0.527c-5.977,1.473-7.252,7.146-7.104,10.409c0.141-3.314,1.701-8.078,7.104-9.409
	c0.1-0.024,2.479-0.597,5.862-0.527c3.386-0.067,5.761,0.503,5.868,0.53c5.397,1.329,6.956,6.096,7.098,9.41
	C47.134,14.132,45.86,8.456,39.889,6.985z M42.656,17.521l-0.008,3.686H25.396v1h17.253l0.008-3.686
	c0.014-0.139,0.045-0.57,0.012-1.146C42.664,17.438,42.66,17.487,42.656,17.521z"/>
</svg>
