<?xml version="1.0" encoding="utf-8"?>
<!-- Generator: Adobe Illustrator 14.0.0, SVG Export Plug-In  -->
<!DOCTYPE svg PUBLIC "-//W3C//DTD SVG 1.1//EN" "http://www.w3.org/Graphics/SVG/1.1/DTD/svg11.dtd" [
	<!ENTITY ns_flows "http://ns.adobe.com/Flows/1.0/">
]>
<svg version="1.1"
	 xmlns="http://www.w3.org/2000/svg" xmlns:xlink="http://www.w3.org/1999/xlink" xmlns:a="http://ns.adobe.com/AdobeSVGViewerExtensions/3.0/"
	 x="0px" y="0px" width="67px" height="57px" viewBox="0 0 67 57" enable-background="new 0 0 67 57" xml:space="preserve">
<defs>
</defs>
<rect fill="none" width="67" height="57"/>
<rect x="10.5" y="5.5" fill="none" width="46" height="46"/>
<path opacity="0.15" d="M34.662,50C19.479,50,13,43.4,13,27.932C13,13.789,20.693,6,34.662,6c13.689,0,20.631,6.712,20.631,19.95
	v0.768c0,10.24-2.716,14.417-9.373,14.417c-2.023,0-4.26-0.245-5.856-1.921c-1.764,0.82-4.51,1.874-6.976,1.874
	c-6.272,0-9.193-3.908-9.193-12.301c0-6.438,1.161-13.021,9.774-13.021c1.149,0,2.802,0.427,3.887,0.749
	c0.183-0.211,0.453-0.344,0.754-0.344h4.905c0.553,0,1,0.447,1,1v9.003c0,8.229,0.57,8.229,1.705,8.229c1.222,0,2.376,0,2.376-7.686
	v-0.81c0-9.456-3.822-13.14-13.634-13.14c-10.035,0-14.709,4.818-14.709,15.163c0,11.259,3.849,15.249,14.709,15.249
	c1.736,0,6.307-0.396,6.353-0.399c0.029-0.003,0.059-0.004,0.087-0.004c0.243,0,0.479,0.088,0.662,0.25
	c0.205,0.182,0.327,0.438,0.337,0.712l0.181,4.774c0.021,0.528-0.374,0.98-0.899,1.033C41.198,49.565,36.849,50,34.662,50L34.662,50
	z M34.71,22.4c-2.994,0-3.865,0.844-3.865,6.432c0,5.437,1.693,5.437,2.603,5.437c1.088,0,2.438-0.274,4.112-0.838
	c-0.172-1.336-0.25-2.996-0.25-5.23v-5.357C36.518,22.643,35.397,22.4,34.71,22.4L34.71,22.4z"/>
<path opacity="0.3" d="M54.293,27.718c0,10.671-3.061,13.417-8.373,13.417c-2.656,0-4.414-0.499-5.584-2.163
	c-1.711,0.856-4.728,2.116-7.248,2.116c-4.818,0-8.193-2.386-8.193-11.301c0-7.428,1.754-12.021,8.774-12.021
	c1.625,0,4.641,1.037,4.641,1.037v-0.632h4.905v9.003c0,8.555,0.588,9.229,2.705,9.229c2.253,0,3.376-1.077,3.376-8.686v-0.81
	c0-10.177-4.322-14.14-14.634-14.14c-10.443,0-15.709,5.179-15.709,16.163c0,11.931,4.41,16.249,15.709,16.249
	c1.801,0,6.439-0.403,6.439-0.403l0.181,4.774c0,0-4.459,0.448-6.62,0.448C21.34,50,14,45.181,14,28.932
	C14,14.391,22.014,8,34.662,8c13.375,0,19.631,6.525,19.631,18.95V27.718z M38.672,35.1C38.4,33.57,38.31,31.633,38.31,29.2v-6.122
	c0,0-2.297-0.678-3.6-0.678c-4.054,0-4.865,1.938-4.865,7.432c0,5.225,1.53,6.437,3.603,6.437
	C35.249,36.269,37.318,35.596,38.672,35.1z"/>
<linearGradient id="SVGID_1_" gradientUnits="userSpaceOnUse" x1="34.1465" y1="49" x2="34.1465" y2="7.0005">
	<stop  offset="0" style="stop-color:#D0CBC5"/>
	<stop  offset="0.5031" style="stop-color:#FAFCEF"/>
	<stop  offset="0.9693" style="stop-color:#FFFFFF"/>
</linearGradient>
<path fill="url(#SVGID_1_)" d="M54.293,26.718c0,10.671-3.061,13.417-8.373,13.417c-2.656,0-4.414-0.499-5.584-2.163
	c-1.711,0.856-4.728,2.116-7.248,2.116c-4.818,0-8.193-2.386-8.193-11.301c0-7.428,1.754-12.021,8.774-12.021
	c1.625,0,4.641,1.037,4.641,1.037v-0.632h4.905v9.003c0,8.555,0.588,9.229,2.705,9.229c2.253,0,3.376-1.077,3.376-8.686v-0.81
	c0-10.177-4.322-14.14-14.634-14.14c-10.443,0-15.709,5.179-15.709,16.163c0,11.931,4.41,16.249,15.709,16.249
	c1.801,0,6.439-0.403,6.439-0.403l0.181,4.774c0,0-4.459,0.448-6.62,0.448C21.34,49,14,44.181,14,27.932
	C14,13.391,22.014,7,34.662,7c13.375,0,19.631,6.525,19.631,18.95V26.718z M38.672,34.1C38.4,32.57,38.31,30.633,38.31,28.2v-6.122
	c0,0-2.297-0.678-3.6-0.678c-4.054,0-4.865,1.938-4.865,7.432c0,5.225,1.53,6.437,3.603,6.437
	C35.249,35.269,37.318,34.596,38.672,34.1z"/>
<path fill="#FFFFFF" d="M43.215,17.172H38.31v0.632c0,0-3.016-1.037-4.641-1.037c-7.021,0-8.774,4.593-8.774,12.021
	c0,0.137,0.008,0.258,0.01,0.392c0.098-7.064,1.94-11.412,8.765-11.412c1.625,0,4.641,1.037,4.641,1.037v-0.632h4.905V17.172z
	 M18.967,28.492c-0.002,0.148-0.014,0.288-0.014,0.439c0,11.931,4.41,16.249,15.709,16.249c1.801,0,6.439-0.403,6.439-0.403v-1
	c0,0-4.639,0.403-6.439,0.403C23.547,44.181,19.109,39.984,18.967,28.492z M45.92,35.403c-2.117,0-2.705-0.674-2.705-9.229v1
	c0,8.555,0.588,9.229,2.705,9.229c2.253,0,3.376-1.077,3.376-8.686v-0.81c0-0.018-0.001-0.032-0.001-0.05
	C49.279,34.333,48.158,35.403,45.92,35.403z M34.662,7C22.014,7,14,13.391,14,27.932c0,0.242,0.007,0.474,0.01,0.711
	C14.119,14.313,22.101,8,34.662,8c13.344,0,19.599,6.497,19.628,18.865c0.001-0.051,0.003-0.096,0.003-0.147V25.95
	C54.293,13.525,48.037,7,34.662,7z M29.852,29.183c-0.003,0.214-0.007,0.424-0.007,0.649c0,5.225,1.53,6.437,3.603,6.437
	c1.802,0,3.871-0.673,5.225-1.169c-0.053-0.297-0.094-0.624-0.133-0.952c-1.354,0.49-3.346,1.121-5.092,1.121
	C31.424,35.269,29.921,34.102,29.852,29.183z"/>
</svg>
