<?xml version="1.0" encoding="utf-8"?>
<!-- Generator: Adobe Illustrator 15.0.0, SVG Export Plug-In . SVG Version: 6.00 Build 0)  -->
<!DOCTYPE svg PUBLIC "-//W3C//DTD SVG 1.1//EN" "http://www.w3.org/Graphics/SVG/1.1/DTD/svg11.dtd">
<svg version="1.1" xmlns="http://www.w3.org/2000/svg" xmlns:xlink="http://www.w3.org/1999/xlink" x="0px" y="0px" width="67px"
	 height="57px" viewBox="0 0 67 57" enable-background="new 0 0 67 57" xml:space="preserve">
<g id="DO_NOT_EDIT_-_BOUNDING_BOX">
	<rect id="BOUNDING_BOX" fill="none" width="67" height="57"/>
</g>
<g id="PLACE_YOUR_GRAPHIC_HERE">
	<path opacity="0.3" d="M22.259,32.199l7.488-7.489L16.844,11.808H12.27c-0.972,0-1.77,0.796-1.77,1.77v7.077l0.11-0.107
		L22.259,32.199z M10.5,27.945v16.013l8.006-8.007L10.5,27.945z M42.649,11.808H21.848l10.401,10.401L42.649,11.808z M35.742,45.683
		l1.51,1.51H54.73c0.975,0,1.77-0.797,1.77-1.77V43.35l-9.213-9.212L35.742,45.683z M54.73,11.808h-2.073l-8.847,8.846L56.5,33.343
		V13.577C56.5,12.604,55.705,11.808,54.73,11.808z M17.272,47.192h12.475l-6.234-6.237L17.272,47.192z M38.808,25.657L27.266,37.202
		l5.979,5.979l11.541-11.545L38.808,25.657z"/>
	<rect x="16.381" y="16.446" fill="none" width="30" height="30"/>
	<path opacity="0.15" d="M37.252,47.192c-0.266,0-0.52-0.105-0.707-0.293l-1.51-1.51c-0.391-0.391-0.391-1.023,0-1.414L46.58,32.431
		c0.195-0.195,0.451-0.293,0.707-0.293s0.512,0.098,0.707,0.293l9.213,9.212c0.188,0.188,0.293,0.441,0.293,0.707v2.073
		c0,1.527-1.242,2.77-2.77,2.77H37.252z M17.272,47.192c-0.404,0-0.769-0.244-0.924-0.617c-0.155-0.374-0.069-0.804,0.217-1.09
		l6.24-6.237c0.195-0.195,0.451-0.293,0.707-0.293s0.512,0.098,0.707,0.293l6.234,6.237c0.286,0.286,0.372,0.716,0.217,1.09
		s-0.52,0.617-0.924,0.617H17.272z M10.5,43.958c-0.129,0-0.259-0.024-0.383-0.076C9.744,43.728,9.5,43.362,9.5,42.958V26.945
		c0-0.404,0.244-0.769,0.617-0.924c0.124-0.051,0.254-0.076,0.383-0.076c0.26,0,0.516,0.102,0.707,0.293l8.006,8.006
		c0.391,0.391,0.391,1.023,0,1.414l-8.006,8.007C11.016,43.856,10.76,43.958,10.5,43.958z M33.244,43.181
		c-0.265,0-0.52-0.105-0.707-0.293l-5.979-5.979c-0.391-0.391-0.391-1.023,0-1.414L38.101,23.95
		c0.188-0.188,0.441-0.293,0.707-0.293s0.52,0.105,0.707,0.293l5.978,5.979c0.391,0.391,0.391,1.023,0,1.414L33.951,42.888
		C33.764,43.075,33.509,43.181,33.244,43.181z M56.5,33.343c-0.26,0-0.516-0.102-0.707-0.293L43.104,20.361
		c-0.188-0.188-0.293-0.442-0.293-0.707s0.105-0.52,0.293-0.707l8.847-8.846c0.188-0.188,0.441-0.293,0.707-0.293h2.073
		c1.527,0,2.77,1.242,2.77,2.77v19.766c0,0.404-0.243,0.77-0.617,0.924C56.759,33.318,56.629,33.343,56.5,33.343z M22.259,32.199
		c-0.265,0-0.52-0.105-0.707-0.293L10.278,20.629c-0.057-0.013-0.113-0.031-0.168-0.054c-0.37-0.157-0.61-0.52-0.61-0.921v-7.077
		c0-1.527,1.242-2.77,2.77-2.77h4.574c0.265,0,0.52,0.105,0.707,0.293l12.903,12.903c0.391,0.391,0.391,1.023,0,1.414l-7.488,7.489
		C22.778,32.094,22.524,32.199,22.259,32.199L22.259,32.199z M32.249,22.209c-0.265,0-0.52-0.105-0.707-0.293L21.141,11.515
		c-0.286-0.286-0.372-0.716-0.217-1.09c0.155-0.374,0.52-0.617,0.924-0.617h20.802c0.404,0,0.77,0.244,0.924,0.617
		c0.155,0.374,0.069,0.804-0.217,1.09l-10.4,10.401C32.769,22.104,32.514,22.209,32.249,22.209z"/>
	<path opacity="0.15" d="M22.259,31.199l7.488-7.489L16.844,10.808H12.27c-0.972,0-1.77,0.796-1.77,1.77v7.077l0.11-0.107
		L22.259,31.199z M10.5,26.945v16.013l8.006-8.007L10.5,26.945z M42.649,10.808H21.848l10.401,10.401L42.649,10.808z M35.742,44.683
		l1.51,1.51H54.73c0.975,0,1.77-0.797,1.77-1.77V42.35l-9.213-9.212L35.742,44.683z M54.73,10.808h-2.073l-8.847,8.846L56.5,32.343
		V12.577C56.5,11.604,55.705,10.808,54.73,10.808z M17.272,46.192h12.475l-6.234-6.237L17.272,46.192z M38.808,24.657L27.266,36.202
		l5.979,5.979l11.541-11.545L38.808,24.657z"/>
	<linearGradient id="SVGID_1_" gradientUnits="userSpaceOnUse" x1="33.5005" y1="46.1924" x2="33.5005" y2="10.8081">
		<stop  offset="0" style="stop-color:#D0CBC5"/>
		<stop  offset="0.5031" style="stop-color:#FAFCEF"/>
		<stop  offset="0.9693" style="stop-color:#FFFFFF"/>
	</linearGradient>
	<path fill="url(#SVGID_1_)" d="M22.259,31.199l7.488-7.489L16.844,10.808H12.27c-0.972,0-1.77,0.796-1.77,1.77v7.077l0.11-0.107
		L22.259,31.199z M10.5,26.945v16.013l8.006-8.007L10.5,26.945z M42.649,10.808H21.848l10.401,10.401L42.649,10.808z M35.742,44.683
		l1.51,1.51H54.73c0.975,0,1.77-0.797,1.77-1.77V42.35l-9.213-9.212L35.742,44.683z M54.73,10.808h-2.073l-8.847,8.846L56.5,32.343
		V12.577C56.5,11.604,55.705,10.808,54.73,10.808z M17.272,46.192h12.475l-6.234-6.237L17.272,46.192z M38.808,24.657L27.266,36.202
		l5.979,5.979l11.541-11.545L38.808,24.657z"/>
	<path fill="#FFFFFF" d="M10.5,13.577v-1c0-0.973,0.798-1.77,1.77-1.77h4.574L29.747,23.71l-0.5,0.5L16.844,11.808H12.27
		C11.298,11.808,10.5,12.604,10.5,13.577z M41.649,11.808l1-1H21.848l1,1H41.649z M38.808,24.657L27.266,36.202l0.5,0.5
		l11.042-11.045l5.478,5.479l0.5-0.5L38.808,24.657z M35.742,44.683l0.5,0.5l11.045-11.045L56.5,43.35v-1l-9.213-9.212
		L35.742,44.683z M54.73,10.808h-2.073l-8.847,8.846l0.5,0.5l8.347-8.346h2.073c0.975,0,1.77,0.796,1.77,1.77v-1
		C56.5,11.604,55.705,10.808,54.73,10.808z M18.506,34.951L10.5,26.945v1l7.506,7.506L18.506,34.951z M17.272,46.192h1l5.24-5.237
		l5.235,5.237h1l-6.234-6.237L17.272,46.192z"/>
</g>
<g id="DO_NOT_EDIT_-_FOCAL_ZONE_GUIDES">
</g>
</svg>
