<?xml version="1.0" encoding="utf-8"?>
<!-- Generator: Adobe Illustrator 15.0.2, SVG Export Plug-In . SVG Version: 6.00 Build 0)  -->
<!DOCTYPE svg PUBLIC "-//W3C//DTD SVG 1.1//EN" "http://www.w3.org/Graphics/SVG/1.1/DTD/svg11.dtd">
<svg version="1.1" xmlns="http://www.w3.org/2000/svg" xmlns:xlink="http://www.w3.org/1999/xlink" x="0px" y="0px" width="67px"
	 height="57px" viewBox="0 0 67 57" enable-background="new 0 0 67 57" xml:space="preserve">
<g id="DO_NOT_EDIT_-_BOUNDING_BOX">
	<rect id="BOUNDING_BOX" fill="none" width="67" height="57"/>
</g>
<g id="PLACE_YOUR_GRAPHIC_HERE">
	<path opacity="0.3" d="M24.003,24.941c-3.024-12.244,1.313-20.543,9.241-13.911c0.527-0.372,1.122-0.641,1.754-0.822
		c-11.738-9.962-21.122,1.59-18.853,17.593C18.317,26.078,21.037,25.023,24.003,24.941z M35.05,27.955
		c1.013,1.014,3.537,1.549,7.298,1.549c3.764,0,6.286-0.535,7.299-1.548c1.013-1.014,1.549-3.537,1.549-7.299
		c0-3.762-0.536-6.287-1.549-7.299s-3.535-1.548-7.299-1.548c-3.761,0-6.285,0.536-7.298,1.548c-1.013,1.015-1.55,3.538-1.55,7.299
		C33.5,24.417,34.037,26.942,35.05,27.955z M46.715,34.138h-4.605c3.229,15.405-2.885,20.103-10.617,12.732
		c-0.458,0.359-0.942,0.681-1.444,0.964c10.971,10.469,21.082,2.328,20.211-14.533C49.181,33.821,47.986,34.138,46.715,34.138z
		 M33.5,38.353c0-5.241-4.19-8.849-8.841-8.849c-4.652,0-8.854,3.83-8.854,8.849c0,5.017,4.254,8.848,8.763,8.848
		C29.083,47.2,33.5,43.594,33.5,38.353z"/>
	<path opacity="0.15" d="M39.593,52.5c-3.308,0-6.847-1.709-10.235-4.942c-0.229-0.219-0.341-0.533-0.302-0.848
		c0.039-0.314,0.225-0.591,0.501-0.747c0.466-0.263,0.91-0.559,1.318-0.88c0.182-0.143,0.4-0.213,0.617-0.213
		c0.249,0,0.498,0.093,0.69,0.276c2.125,2.024,4.191,3.14,5.819,3.14c0.974,0,1.759-0.384,2.399-1.173
		c1.827-2.25,2.093-7.27,0.73-13.771c-0.063-0.295,0.013-0.602,0.202-0.836c0.19-0.233,0.476-0.369,0.776-0.369h4.605
		c1.05,0,2.096-0.248,3.109-0.737c0.138-0.066,0.286-0.1,0.435-0.1c0.177,0,0.353,0.047,0.51,0.14
		c0.288,0.171,0.472,0.475,0.489,0.809c0.386,7.464-1.276,13.549-4.68,17.132C44.641,51.422,42.225,52.5,39.593,52.5z M24.567,47.2
		c-5.292,0-9.763-4.51-9.763-9.848c0-5.431,4.421-9.848,9.854-9.848c5.518,0,9.841,4.326,9.841,9.848
		C34.5,43.436,29.344,47.2,24.567,47.2z M42.348,29.505c-4.091,0-6.784-0.621-8.006-1.844c-1.222-1.222-1.842-3.916-1.842-8.004
		c0-4.087,0.62-6.781,1.842-8.006c1.223-1.222,3.916-1.842,8.006-1.842c4.091,0,6.784,0.62,8.006,1.841
		c1.222,1.222,1.842,3.916,1.842,8.006c0,4.089-0.619,6.782-1.841,8.006C49.132,28.885,46.438,29.505,42.348,29.505z M16.145,27.801
		c-0.125,0-0.251-0.023-0.371-0.071c-0.333-0.133-0.569-0.434-0.62-0.789c-1.089-7.685,0.403-14.741,3.992-18.875
		C21.172,5.733,23.731,4.5,26.545,4.5c2.954,0,6.015,1.327,9.1,3.945c0.281,0.238,0.408,0.612,0.33,0.973
		c-0.078,0.361-0.348,0.649-0.702,0.751c-0.549,0.157-1.038,0.386-1.453,0.678c-0.173,0.122-0.375,0.183-0.576,0.183
		c-0.229,0-0.457-0.078-0.642-0.233c-1.653-1.383-3.198-2.115-4.465-2.115c-0.958,0-1.778,0.426-2.437,1.267
		c-1.904,2.432-2.19,7.83-0.727,13.752c0.073,0.293,0.008,0.604-0.175,0.845s-0.466,0.386-0.768,0.394
		c-2.666,0.074-5.177,0.988-7.264,2.644C16.587,27.727,16.367,27.801,16.145,27.801z"/>
	<path opacity="0.15" d="M24.003,23.941c-3.024-12.244,1.313-20.543,9.241-13.911c0.527-0.372,1.122-0.641,1.754-0.822
		c-11.738-9.962-21.122,1.59-18.853,17.593C18.317,25.078,21.037,24.023,24.003,23.941z M35.05,26.955
		c1.013,1.014,3.537,1.55,7.298,1.55c3.764,0,6.286-0.536,7.299-1.548c1.013-1.014,1.549-3.537,1.549-7.299
		c0-3.762-0.536-6.287-1.549-7.299s-3.535-1.548-7.299-1.548c-3.761,0-6.285,0.536-7.298,1.548c-1.013,1.015-1.55,3.538-1.55,7.299
		C33.5,23.417,34.037,25.942,35.05,26.955z M46.715,33.138h-4.605c3.229,15.405-2.885,20.103-10.617,12.732
		c-0.458,0.359-0.942,0.681-1.444,0.964c10.971,10.469,21.082,2.328,20.211-14.533C49.181,32.821,47.986,33.138,46.715,33.138z
		 M33.5,37.353c0-5.241-4.19-8.848-8.841-8.848c-4.652,0-8.854,3.83-8.854,8.848c0,5.017,4.254,8.848,8.763,8.848
		C29.083,46.2,33.5,42.594,33.5,37.353z"/>
	<linearGradient id="SVGID_1_" gradientUnits="userSpaceOnUse" x1="33.5005" y1="51.5" x2="33.5005" y2="5.5005">
		<stop  offset="0" style="stop-color:#D0CBC5"/>
		<stop  offset="0.5031" style="stop-color:#FAFCEF"/>
		<stop  offset="0.9693" style="stop-color:#FFFFFF"/>
	</linearGradient>
	<path fill="url(#SVGID_1_)" d="M24.003,23.941c-3.024-12.244,1.313-20.543,9.241-13.911c0.527-0.372,1.122-0.641,1.754-0.822
		c-11.738-9.962-21.122,1.59-18.853,17.593C18.317,25.078,21.037,24.023,24.003,23.941z M35.05,26.955
		c1.013,1.014,3.537,1.55,7.298,1.55c3.764,0,6.286-0.536,7.299-1.548c1.013-1.014,1.549-3.537,1.549-7.299
		c0-3.762-0.536-6.287-1.549-7.299s-3.535-1.548-7.299-1.548c-3.761,0-6.285,0.536-7.298,1.548c-1.013,1.015-1.55,3.538-1.55,7.299
		C33.5,23.417,34.037,25.942,35.05,26.955z M46.715,33.138h-4.605c3.229,15.405-2.885,20.103-10.617,12.732
		c-0.458,0.359-0.942,0.681-1.444,0.964c10.971,10.469,21.082,2.328,20.211-14.533C49.181,32.821,47.986,33.138,46.715,33.138z
		 M33.5,37.353c0-5.241-4.19-8.848-8.841-8.848c-4.652,0-8.854,3.83-8.854,8.848c0,5.017,4.254,8.848,8.763,8.848
		C29.083,46.2,33.5,42.594,33.5,37.353z"/>
	<g>
		<path fill="#FFFFFF" d="M31.492,45.87c-0.458,0.359-0.942,0.681-1.444,0.964c0.22,0.21,0.439,0.4,0.659,0.596
			c0.269-0.176,0.532-0.36,0.786-0.56c6.396,6.097,11.68,3.928,11.488-5.721C42.795,49.941,37.661,51.75,31.492,45.87z"/>
		<path fill="#FFFFFF" d="M33.509,20.157c0.047-3.478,0.575-5.832,1.541-6.799c1.013-1.013,3.537-1.548,7.298-1.548
			c3.764,0,6.286,0.536,7.299,1.548c0.966,0.966,1.492,3.321,1.539,6.799c0.003-0.168,0.01-0.326,0.01-0.5
			c0-3.762-0.536-6.287-1.549-7.299s-3.535-1.548-7.299-1.548c-3.761,0-6.285,0.536-7.298,1.548c-1.013,1.015-1.55,3.538-1.55,7.299
			C33.5,19.831,33.507,19.988,33.509,20.157z"/>
		<path fill="#FFFFFF" d="M23.776,23.957c0.076-0.003,0.15-0.014,0.227-0.016c-0.607-2.459-0.913-4.756-0.957-6.808
			C23,19.162,23.231,21.466,23.776,23.957z"/>
		<path fill="#FFFFFF" d="M46.715,33.138h-4.605c0.071,0.341,0.133,0.67,0.195,1h4.41c1.271,0,2.466-0.316,3.544-0.837
			c0.023,0.456,0.035,0.903,0.043,1.346c0.008-0.764-0.001-1.541-0.043-2.346C49.181,32.821,47.986,33.138,46.715,33.138z"/>
		<path fill="#FFFFFF" d="M34.142,9.525c0.276-0.125,0.562-0.233,0.856-0.317C24.295,0.124,15.554,8.93,15.815,22.686
			C15.982,9.874,24.093,1.81,34.142,9.525z"/>
		<path fill="#FFFFFF" d="M24.659,29.504c4.496,0,8.55,3.376,8.815,8.336c0.009-0.162,0.026-0.321,0.026-0.487
			c0-5.241-4.19-8.848-8.841-8.848c-4.652,0-8.854,3.83-8.854,8.848c0,0.168,0.017,0.331,0.026,0.497
			C16.103,33.082,20.165,29.504,24.659,29.504z"/>
	</g>
</g>
<g id="DO_NOT_EDIT_-_FOCAL_ZONE_GUIDES">
</g>
</svg>
