<?xml version="1.0" encoding="utf-8"?>
<!-- Generator: Adobe Illustrator 14.0.0, SVG Export Plug-In  -->
<!DOCTYPE svg PUBLIC "-//W3C//DTD SVG 1.1//EN" "http://www.w3.org/Graphics/SVG/1.1/DTD/svg11.dtd" [
	<!ENTITY ns_flows "http://ns.adobe.com/Flows/1.0/">
]>
<svg version="1.1"
	 xmlns="http://www.w3.org/2000/svg" xmlns:xlink="http://www.w3.org/1999/xlink" xmlns:a="http://ns.adobe.com/AdobeSVGViewerExtensions/3.0/"
	 x="0px" y="0px" width="67px" height="57px" viewBox="0 0 67 57" enable-background="new 0 0 67 57" xml:space="preserve">
<defs>
</defs>
<rect fill="none" width="67" height="57"/>
<path opacity="0.15" d="M30,51c-11.028,0-20-8.972-20-20v-3c0-1.654,1.346-3,3-3h4c1.654,0,3,1.346,3,3v3c0,5.514,4.486,10,10,10
	s10-4.486,10-10v-2h-7c-0.356,0-0.686-0.189-0.865-0.498c-0.179-0.309-0.18-0.688-0.003-0.998l12-21C44.31,6.192,44.642,6,45,6
	s0.69,0.192,0.868,0.504l12,21c0.177,0.31,0.176,0.689-0.003,0.998C57.686,28.811,57.356,29,57,29h-7v2C50,42.028,41.028,51,30,51
	L30,51z"/>
<path opacity="0.3" d="M45,8L33,29h8v3c0,6.075-4.925,11-11,11s-11-4.925-11-11v-3c0-1.1-0.9-2-2-2h-4c-1.1,0-2,0.9-2,2v3
	c0,10.493,8.507,19,19,19s19-8.507,19-19v-3h8L45,8z"/>
<linearGradient id="SVGID_1_" gradientUnits="userSpaceOnUse" x1="34" y1="50" x2="34" y2="7.0005">
	<stop  offset="0" style="stop-color:#D0CBC5"/>
	<stop  offset="0.5031" style="stop-color:#FAFCEF"/>
	<stop  offset="0.9693" style="stop-color:#FFFFFF"/>
</linearGradient>
<path fill="url(#SVGID_1_)" d="M45,7L33,28h8v3c0,6.075-4.925,11-11,11s-11-4.925-11-11v-3c0-1.1-0.9-2-2-2h-4c-1.1,0-2,0.9-2,2v3
	c0,10.493,8.507,19,19,19s19-8.507,19-19v-3h8L45,7z"/>
<path fill="#FFFFFF" d="M30,42c-6.075,0-11-4.925-11-11v1c0,6.075,4.925,11,11,11s11-4.925,11-11v-1C41,37.075,36.075,42,30,42z
	 M19,28c0-1.1-0.9-2-2-2h-4c-1.1,0-2,0.9-2,2v1c0-1.1,0.9-2,2-2h4c1.1,0,2,0.9,2,2V28z M45,7L33,28h0.571L45,8l11.429,20H57L45,7z"
	/>
</svg>
