<?xml version="1.0" encoding="utf-8"?>
<!-- Generator: Adobe Illustrator 15.0.0, SVG Export Plug-In . SVG Version: 6.00 Build 0)  -->
<!DOCTYPE svg PUBLIC "-//W3C//DTD SVG 1.1//EN" "http://www.w3.org/Graphics/SVG/1.1/DTD/svg11.dtd">
<svg version="1.1" id="Ebene_1" xmlns="http://www.w3.org/2000/svg" xmlns:xlink="http://www.w3.org/1999/xlink" x="0px" y="0px"
	 width="67px" height="57px" viewBox="0 0 67 57" enable-background="new 0 0 67 57" xml:space="preserve">
<rect fill="none" width="67" height="57"/>
<path opacity="0.15" enable-background="new    " d="M20,46c-0.553,0-1-0.447-1-1c0,0.553-0.447,1-1,1h-7c-1.178,0-2-0.822-2-2V12
	c0-1.178,0.822-2,2-2h7c0.553,0,1,0.448,1,1c0-0.552,0.447-1,1-1h35c1.178,0,2,0.822,2,2v32c0,1.178-0.822,2-2,2H20z M34.957,33.23
	c-2.145,0-3.957,1.123-3.957,2.453s1.813,2.453,3.957,2.453c2.141,0,3.947-1.123,3.947-2.453V23.718
	c0-0.292,0.127-0.568,0.349-0.759c0.183-0.157,0.414-0.241,0.651-0.241c0.05,0,0.101,0.004,0.15,0.011
	c1.646,0.251,3.332,0.59,4.944,0.994v-3.707c-2.196-0.525-4.356-0.867-6.379-1.157c-0.001,0.015-0.002,13.929-0.002,13.929
	c0,0.339-0.173,0.655-0.456,0.839c-0.165,0.107-0.354,0.161-0.544,0.161c-0.14,0-0.278-0.028-0.408-0.087
	C36.523,33.393,35.744,33.23,34.957,33.23L34.957,33.23z"/>
<path opacity="0.3" enable-background="new    " d="M55,12H20v34h35c0.652,0,1-0.393,1-1V13C56,12.391,55.652,12,55,12z M46,26.021
	c-1.732-0.481-3.816-0.955-6.096-1.303v11.967c0,1.906-2.213,3.451-4.947,3.451c-2.742,0-4.957-1.545-4.957-3.451
	c0-1.91,2.215-3.455,4.957-3.455c0.98,0,1.889,0.211,2.662,0.559V19.923c0-1.171,1.121-1.057,1.121-1.057
	c2.011,0.288,4.627,0.688,7.26,1.368V26.021z M10,13v32c0,0.607,0.346,1,1,1h7V12h-7C10.346,12,10,12.391,10,13z"/>
<linearGradient id="SVGID_1_" gradientUnits="userSpaceOnUse" x1="170.4805" y1="-248.0195" x2="170.4805" y2="-214.0195" gradientTransform="matrix(1 0 0 -1 -137.48 -203.0195)">
	<stop  offset="0" style="stop-color:#D0CBC5"/>
	<stop  offset="0.5031" style="stop-color:#FAFCEF"/>
	<stop  offset="0.9693" style="stop-color:#FFFFFF"/>
</linearGradient>
<path fill="url(#SVGID_1_)" d="M55,11H20v34h35c0.652,0,1-0.393,1-1V12C56,11.391,55.652,11,55,11z M46,25.021
	c-1.732-0.481-3.816-0.955-6.096-1.303v11.967c0,1.906-2.213,3.451-4.947,3.451c-2.742,0-4.957-1.545-4.957-3.451
	c0-1.91,2.215-3.455,4.957-3.455c0.98,0,1.889,0.211,2.662,0.559V18.923c0-1.171,1.121-1.057,1.121-1.057
	c2.011,0.288,4.627,0.688,7.26,1.368V25.021z M10,12v32c0,0.607,0.346,1,1,1h7V11h-7C10.346,11,10,11.391,10,12z"/>
<path fill="#FFFFFF" d="M34.957,39.137c-2.496,0-4.535-1.283-4.885-2.951C30.038,36.35,30,36.514,30,36.686
	c0,1.906,2.215,3.451,4.957,3.451c2.734,0,4.947-1.545,4.947-3.451v-1C39.904,37.592,37.691,39.137,34.957,39.137z M10,12v1
	c0-0.609,0.346-1,1-1h7v-1h-7C10.346,11,10,11.391,10,12z M55,11H20v1h35c0.652,0,1,0.391,1,1v-1C56,11.391,55.652,11,55,11z
	 M39.904,24.718c2.277,0.348,4.363,0.821,6.096,1.303v-1c-1.732-0.481-3.816-0.955-6.096-1.303V24.718z"/>
</svg>
