<?xml version="1.0" encoding="utf-8"?>
<!-- Generator: Adobe Illustrator 15.0.0, SVG Export Plug-In . SVG Version: 6.00 Build 0)  -->
<!DOCTYPE svg PUBLIC "-//W3C//DTD SVG 1.1//EN" "http://www.w3.org/Graphics/SVG/1.1/DTD/svg11.dtd">
<svg version="1.1" id="Ebene_1" xmlns="http://www.w3.org/2000/svg" xmlns:xlink="http://www.w3.org/1999/xlink" x="0px" y="0px"
	 width="67px" height="57px" viewBox="0 0 67 57" enable-background="new 0 0 67 57" xml:space="preserve">
<rect fill="none" width="67" height="57"/>
<path opacity="0.15" enable-background="new    " d="M20,47c-0.553,0-1-0.447-1-1c0,0.553-0.447,1-1,1h-7c-1.178,0-2-0.822-2-2V12
	c0-1.178,0.822-2,2-2h7c0.553,0,1,0.447,1,1c0-0.553,0.447-1,1-1h35.82c1.242,0,2.18,0.859,2.18,2v33c0,1.141-0.938,2-2.18,2H20z
	 M39,15.5c-7.168,0-13,5.832-13,13s5.832,13,13,13s13-5.832,13-13S46.168,15.5,39,15.5L39,15.5z M38.816,41.305
	c-0.547-0.008-0.985-0.453-0.985-1v-2.191c0-0.27,0.106-0.525,0.299-0.713c0.188-0.186,0.438-0.287,0.701-0.287
	c0.006,0,0.17,0.002,0.17,0.002c2.31,0,4.474-0.895,6.099-2.516c1.539-1.539,2.428-3.599,2.504-5.795
	c0.02-0.539,0.461-0.966,1-0.966h2.193c0.271,0,0.528,0.109,0.717,0.303c0.188,0.194,0.291,0.455,0.283,0.726
	c-0.093,3.287-1.42,6.375-3.736,8.693c-2.416,2.416-5.635,3.746-9.063,3.746L38.816,41.305z M38.809,36.93
	c-0.543-0.014-0.978-0.457-0.978-1V33.74c0-0.227,0.076-0.442,0.214-0.617c-1.984-0.41-3.52-2.07-3.738-4.118
	c-0.156,0.101-0.342,0.159-0.541,0.159h-2.188c-0.273,0-0.534-0.111-0.723-0.31c-0.189-0.197-0.289-0.463-0.276-0.736
	c0.097-2.117,0.969-4.1,2.454-5.584c1.59-1.589,3.705-2.464,5.961-2.464l0.195,0.002c0.543,0.013,0.978,0.457,0.978,1v2.189
	c0,0.225-0.076,0.442-0.213,0.617c1.985,0.409,3.521,2.069,3.737,4.117c0.156-0.101,0.343-0.158,0.541-0.158h2.189
	c0.273,0,0.534,0.111,0.723,0.31c0.188,0.197,0.289,0.463,0.276,0.735c-0.096,2.114-0.968,4.099-2.455,5.585
	c-1.59,1.59-3.708,2.465-5.966,2.465L38.809,36.93z M39,28.228c-0.15,0-0.273,0.122-0.273,0.272S38.85,28.772,39,28.772
	c0.146,0,0.271-0.125,0.271-0.272S39.146,28.228,39,28.228L39,28.228z M27.203,29.163c-0.271,0-0.528-0.108-0.717-0.303
	c-0.189-0.194-0.29-0.455-0.283-0.726c0.093-3.289,1.419-6.378,3.735-8.695c2.417-2.415,5.632-3.744,9.057-3.744l0.187,0.001
	c0.545,0.008,0.984,0.453,0.984,1v2.19c0,0.269-0.107,0.525-0.299,0.713c-0.188,0.185-0.439,0.287-0.701,0.287
	c-0.006,0-0.163-0.001-0.163-0.001c-2.313,0-4.481,0.894-6.104,2.516c-1.539,1.537-2.429,3.596-2.506,5.797
	c-0.019,0.538-0.46,0.965-0.999,0.965H27.203z"/>
<path opacity="0.3" enable-background="new    " d="M39.166,24.261v-2.189c-1.958-0.045-3.932,0.675-5.427,2.17
	c-1.367,1.365-2.08,3.132-2.162,4.922h2.188c0.081-1.23,0.584-2.438,1.521-3.376C36.354,24.721,37.77,24.215,39.166,24.261z M10,13
	v33c0,0.607,0.346,1,1,1h7V12h-7C10.346,12,10,12.391,10,13z M39.166,19.887v-2.19c-3.078-0.044-6.17,1.102-8.521,3.45
	c-2.219,2.221-3.36,5.105-3.442,8.017h2.191c0.082-2.352,1.007-4.68,2.798-6.469C34.111,20.774,36.646,19.845,39.166,19.887z
	 M38.831,34.738v2.189c1.959,0.045,3.933-0.675,5.428-2.169c1.366-1.366,2.082-3.135,2.163-4.923h-2.189
	c-0.078,1.23-0.582,2.438-1.52,3.377C41.645,34.277,40.23,34.785,38.831,34.738z M55.82,12H20v35h35.82c0.652,0,1.18-0.393,1.18-1
	V13C57,12.391,56.473,12,55.82,12z M39,43.5c-7.733,0-14-6.268-14-14c0-7.732,6.267-14,14-14c7.732,0,14,6.268,14,14
	C53,37.232,46.732,43.5,39,43.5z M45.807,36.307c-1.92,1.918-4.455,2.85-6.976,2.807v2.191c3.079,0.043,6.172-1.103,8.521-3.451
	c2.221-2.223,3.362-5.106,3.444-8.016h-2.194C48.521,32.188,47.598,34.516,45.807,36.307z M42.718,29.5
	c0-2.05-1.668-3.719-3.718-3.719c-2.053,0-3.721,1.669-3.721,3.719c0,2.051,1.668,3.719,3.721,3.719
	C41.05,33.219,42.718,31.551,42.718,29.5z M37.727,29.5c0-0.701,0.571-1.272,1.273-1.272c0.701,0,1.271,0.571,1.271,1.272
	s-0.57,1.271-1.271,1.271C38.298,30.771,37.727,30.201,37.727,29.5z"/>
<linearGradient id="SVGID_1_" gradientUnits="userSpaceOnUse" x1="170.9805" y1="-249.0195" x2="170.9805" y2="-214.0195" gradientTransform="matrix(1 0 0 -1 -137.48 -203.0195)">
	<stop  offset="0" style="stop-color:#D0CBC5"/>
	<stop  offset="0.5031" style="stop-color:#FAFCEF"/>
	<stop  offset="0.9693" style="stop-color:#FFFFFF"/>
</linearGradient>
<path fill="url(#SVGID_1_)" d="M39.166,23.261v-2.189c-1.958-0.045-3.932,0.675-5.427,2.17c-1.367,1.365-2.08,3.132-2.162,4.922
	h2.188c0.081-1.23,0.584-2.438,1.521-3.376C36.354,23.721,37.77,23.215,39.166,23.261z M10,12v33c0,0.607,0.346,1,1,1h7V11h-7
	C10.346,11,10,11.391,10,12z M39.166,18.887v-2.19c-3.078-0.044-6.17,1.102-8.521,3.45c-2.219,2.221-3.36,5.105-3.442,8.017h2.191
	c0.082-2.352,1.007-4.68,2.798-6.469C34.111,19.774,36.646,18.845,39.166,18.887z M38.831,33.738v2.189
	c1.959,0.045,3.933-0.675,5.428-2.169c1.366-1.366,2.082-3.135,2.163-4.923h-2.189c-0.078,1.23-0.582,2.438-1.52,3.377
	C41.645,33.277,40.23,33.785,38.831,33.738z M55.82,11H20v35h35.82c0.652,0,1.18-0.393,1.18-1V12C57,11.391,56.473,11,55.82,11z
	 M39,42.5c-7.733,0-14-6.268-14-14c0-7.732,6.267-14,14-14c7.732,0,14,6.268,14,14C53,36.232,46.732,42.5,39,42.5z M45.807,35.307
	c-1.92,1.918-4.455,2.85-6.976,2.807v2.191c3.079,0.043,6.172-1.103,8.521-3.451c2.221-2.223,3.362-5.106,3.444-8.016h-2.194
	C48.521,31.188,47.598,33.516,45.807,35.307z M42.718,28.5c0-2.05-1.668-3.719-3.718-3.719c-2.053,0-3.721,1.669-3.721,3.719
	c0,2.051,1.668,3.719,3.721,3.719C41.05,32.219,42.718,30.551,42.718,28.5z M37.727,28.5c0-0.701,0.571-1.272,1.273-1.272
	c0.701,0,1.271,0.571,1.271,1.272s-0.57,1.271-1.271,1.271C38.298,29.771,37.727,29.201,37.727,28.5z"/>
<path fill="#FFFFFF" d="M40.271,29.5c0-0.178-0.037-0.348-0.104-0.5c-0.195,0.453-0.646,0.771-1.169,0.771
	c-0.524,0-0.976-0.318-1.17-0.771c-0.065,0.152-0.104,0.322-0.104,0.5c0,0.701,0.571,1.271,1.273,1.271
	C39.701,30.771,40.271,30.201,40.271,29.5z M48.604,29.838h2.119c0.037-0.332,0.064-0.666,0.074-1h-2.193
	c-0.082,2.35-1.006,4.678-2.797,6.469c-1.92,1.918-4.455,2.85-6.976,2.807v1c2.521,0.043,5.056-0.889,6.976-2.807
	C47.598,34.516,48.521,32.188,48.604,29.838z M39,42.5c-7.564,0-13.709-6.001-13.975-13.5C25.02,29.167,25,29.331,25,29.5
	c0,7.732,6.267,14,14,14c7.732,0,14-6.268,14-14c0-0.169-0.02-0.333-0.025-0.5C52.709,36.499,46.563,42.5,39,42.5z M42.713,32.214
	c-1.068,1.063-2.48,1.571-3.882,1.524v1c1.399,0.047,2.813-0.461,3.882-1.524c0.938-0.938,1.439-2.146,1.52-3.377h2.07
	c0.059-0.331,0.104-0.665,0.119-1h-2.189C44.152,30.066,43.648,31.273,42.713,32.214z M10,12v1c0-0.609,0.346-1,1-1h7v-1h-7
	C10.346,11,10,11.391,10,12z M55.82,11H20v1h35.82c0.652,0,1.18,0.391,1.18,1v-1C57,11.391,56.473,11,55.82,11z M39,24.781
	c-2.053,0-3.721,1.669-3.721,3.719c0,0.171,0.029,0.335,0.052,0.5c0.247-1.813,1.788-3.219,3.669-3.219
	c1.879,0,3.42,1.406,3.667,3.219c0.022-0.165,0.051-0.329,0.051-0.5C42.718,26.45,41.05,24.781,39,24.781z M27.203,28.163h0.074
	c0.288-2.564,1.404-5.051,3.368-7.017c2.351-2.349,5.442-3.494,8.521-3.45v-1c-3.078-0.044-6.17,1.102-8.521,3.45
	C28.427,22.367,27.285,25.252,27.203,28.163z M39.166,21.071c-1.958-0.045-3.932,0.675-5.427,2.17
	c-1.367,1.365-2.08,3.132-2.162,4.922h0.12c0.26-1.437,0.931-2.813,2.042-3.922c1.496-1.495,3.469-2.215,5.427-2.17V21.071z"/>
</svg>
