<?xml version="1.0" encoding="utf-8"?>
<!-- Generator: Adobe Illustrator 15.0.0, SVG Export Plug-In . SVG Version: 6.00 Build 0)  -->
<!DOCTYPE svg PUBLIC "-//W3C//DTD SVG 1.1//EN" "http://www.w3.org/Graphics/SVG/1.1/DTD/svg11.dtd">
<svg version="1.1" xmlns="http://www.w3.org/2000/svg" xmlns:xlink="http://www.w3.org/1999/xlink" x="0px" y="0px" width="67px"
	 height="57px" viewBox="0 0 67 57" enable-background="new 0 0 67 57" xml:space="preserve">
<g id="DO_NOT_EDIT_-_BOUNDING_BOX">
	<rect id="BOUNDING_BOX" fill="none" width="67" height="57"/>
</g>
<g id="PLACE_YOUR_GRAPHIC_HERE">
	<path opacity="0.3" d="M32.579,27.66c0-1.015-0.824-1.841-1.838-1.841c-1.018,0-1.842,0.826-1.842,1.841
		c0,1.014,0.824,1.84,1.842,1.84C31.755,29.5,32.579,28.674,32.579,27.66z M48.985,29.503c0,0-1.159-0.118-1.159,1.096v14.393
		c-0.802-0.36-1.742-0.579-2.756-0.579c-2.837,0-5.131,1.604-5.131,3.584s2.294,3.585,5.131,3.585c2.83,0,5.121-1.604,5.121-3.585
		v-12.42c2.358,0.359,4.518,0.852,6.309,1.351v-6.004C53.775,30.217,51.067,29.802,48.985,29.503z M45.984,40.965v-5.65
		c-0.795,1.591-1.842,3.092-3.17,4.421c-3.397,3.396-7.867,5.053-12.317,4.991v-3.17c3.642,0.063,7.306-1.285,10.081-4.059
		c2.59-2.588,3.928-5.952,4.046-9.353h2.605c0.462-0.31,1.037-0.485,1.672-0.485c0.064,0,0.209,0.008,0.27,0.013
		c0.597,0.085,1.197,0.175,1.8,0.27c0.004-0.095,0.01-0.188,0.01-0.282c0-11.178-9.062-20.241-20.239-20.241
		C19.56,7.419,10.5,16.482,10.5,27.66c0,11.177,9.06,20.24,20.241,20.24c2.71,0,5.293-0.537,7.658-1.503
		c0.796-2.08,3.115-3.593,5.994-3.8C44.958,42.085,45.484,41.537,45.984,40.965z M41.47,28.146
		c-0.118,2.585-1.151,5.143-3.128,7.116c-2.159,2.162-5.016,3.202-7.845,3.14v-3.167c2.021,0.067,4.068-0.668,5.611-2.205
		c1.354-1.358,2.082-3.104,2.194-4.884H41.47z M13.684,27.174c0.118-4.209,1.771-8.38,4.978-11.59
		c3.398-3.396,7.87-5.053,12.32-4.988v3.165c-3.642-0.063-7.31,1.284-10.085,4.06c-2.59,2.588-3.924,5.953-4.043,9.354H13.684z
		 M20.009,27.174c0.117-2.588,1.15-5.144,3.124-7.117c2.163-2.161,5.016-3.201,7.849-3.137v3.164
		c-2.021-0.064-4.068,0.666-5.608,2.209c-1.357,1.354-2.085,3.102-2.198,4.881H20.009z M25.363,27.66
		c0-2.964,2.409-5.377,5.378-5.377c2.961,0,5.374,2.413,5.374,5.377c0,2.965-2.413,5.376-5.374,5.376
		C27.772,33.036,25.363,30.625,25.363,27.66z"/>
	<path opacity="0.15" d="M45.07,51.581c-3.438,0-6.131-2.014-6.131-4.585c0-0.283,0.032-0.559,0.095-0.826
		c-0.076,0.063-0.163,0.115-0.257,0.153c-2.563,1.047-5.267,1.577-8.036,1.577C19.029,47.9,9.5,38.372,9.5,26.66
		c0-11.712,9.529-21.241,21.241-21.241c11.711,0,21.239,9.529,21.239,21.241c0,0.086-0.004,0.171-0.008,0.257
		c-0.013,0.284-0.148,0.584-0.368,0.764c-0.081,0.066-0.172,0.124-0.268,0.167c1.757,0.284,3.571,0.629,5.414,1.106
		c0.441,0.115,0.749,0.512,0.749,0.968v6.004c0,0.313-0.146,0.607-0.396,0.796c-0.176,0.134-0.389,0.204-0.604,0.204
		c-0.09,0-0.18-0.012-0.269-0.037c-1.614-0.449-3.336-0.837-5.04-1.136v11.242C51.191,49.567,48.503,51.581,45.07,51.581z
		 M31.497,42.711c4.015-0.186,7.758-1.831,10.61-4.683c1.199-1.2,2.202-2.6,2.982-4.161c0.172-0.344,0.522-0.553,0.895-0.553
		c0.076,0,0.153,0.009,0.229,0.026c0.26,0.062,0.476,0.221,0.612,0.434v-4.176c0-0.636,0.21-1.12,0.529-1.461
		c-0.041,0.005-0.084,0.008-0.126,0.008h-1.67c-0.339,3.436-1.836,6.623-4.274,9.06c-2.631,2.629-6.082,4.152-9.788,4.335V42.711z
		 M45.07,42.412c0.593,0,1.185,0.067,1.756,0.197v-2.104c-0.026,0.041-0.056,0.081-0.089,0.118
		c-0.561,0.642-1.107,1.202-1.672,1.715c-0.029,0.026-0.061,0.052-0.093,0.075C45.006,42.412,45.038,42.412,45.07,42.412z
		 M31.497,36.375c2.325-0.176,4.481-1.162,6.137-2.82c1.471-1.468,2.421-3.359,2.733-5.409H39.19
		c-0.302,1.734-1.126,3.338-2.374,4.59c-1.444,1.438-3.31,2.301-5.319,2.472V36.375z M30.741,22.283
		c-2.414,0-4.378,1.963-4.378,4.377c0,2.413,1.964,4.376,4.378,4.376c2.412,0,4.374-1.963,4.374-4.376
		C35.115,24.247,33.153,22.283,30.741,22.283z M22.288,25.174c0.302-1.738,1.129-3.341,2.379-4.589c1.435-1.437,3.3-2.3,5.315-2.473
		v-1.167c-2.324,0.175-4.482,1.161-6.142,2.819c-1.469,1.468-2.417,3.36-2.729,5.41H22.288z M15.918,25.174
		c0.339-3.439,1.835-6.626,4.271-9.061c2.63-2.629,6.083-4.153,9.792-4.335v-1.167c-4.015,0.183-7.76,1.828-10.613,4.681
		c-2.663,2.665-4.283,6.142-4.624,9.882H15.918z M30.741,29.5c-1.567,0-2.842-1.274-2.842-2.84c0-1.566,1.275-2.841,2.842-2.841
		c1.565,0,2.838,1.274,2.838,2.841C33.579,28.226,32.306,29.5,30.741,29.5z"/>
	<path opacity="0.15" d="M32.579,26.66c0-1.015-0.824-1.841-1.838-1.841c-1.018,0-1.842,0.826-1.842,1.841
		c0,1.014,0.824,1.84,1.842,1.84C31.755,28.5,32.579,27.674,32.579,26.66z M48.985,28.503c0,0-1.159-0.118-1.159,1.096v14.393
		c-0.802-0.36-1.742-0.579-2.756-0.579c-2.837,0-5.131,1.604-5.131,3.584s2.294,3.585,5.131,3.585c2.83,0,5.121-1.604,5.121-3.585
		v-12.42c2.358,0.359,4.518,0.852,6.309,1.351v-6.004C53.775,29.217,51.067,28.802,48.985,28.503z M45.984,39.965v-5.65
		c-0.795,1.591-1.842,3.092-3.17,4.421c-3.397,3.396-7.867,5.053-12.317,4.991v-3.17c3.642,0.063,7.306-1.285,10.081-4.059
		c2.59-2.588,3.928-5.952,4.046-9.353h2.605c0.462-0.31,1.037-0.485,1.672-0.485c0.064,0,0.209,0.008,0.27,0.013
		c0.597,0.085,1.197,0.175,1.8,0.27c0.004-0.095,0.01-0.188,0.01-0.282c0-11.178-9.062-20.241-20.239-20.241
		C19.56,6.419,10.5,15.482,10.5,26.66c0,11.177,9.06,20.24,20.241,20.24c2.71,0,5.293-0.537,7.658-1.503
		c0.796-2.08,3.115-3.593,5.994-3.8C44.958,41.085,45.484,40.537,45.984,39.965z M41.47,27.146
		c-0.118,2.585-1.151,5.143-3.128,7.116c-2.159,2.162-5.016,3.202-7.845,3.14v-3.167c2.021,0.067,4.068-0.668,5.611-2.205
		c1.354-1.358,2.082-3.104,2.194-4.884H41.47z M13.684,26.174c0.118-4.209,1.771-8.38,4.978-11.59
		c3.398-3.396,7.87-5.053,12.32-4.988v3.165c-3.642-0.063-7.31,1.284-10.085,4.06c-2.59,2.588-3.924,5.953-4.043,9.354H13.684z
		 M20.009,26.174c0.117-2.588,1.15-5.144,3.124-7.117c2.163-2.161,5.016-3.201,7.849-3.137v3.164
		c-2.021-0.064-4.068,0.666-5.608,2.209c-1.357,1.354-2.085,3.102-2.198,4.881H20.009z M25.363,26.66
		c0-2.964,2.409-5.377,5.378-5.377c2.961,0,5.374,2.413,5.374,5.377c0,2.965-2.413,5.376-5.374,5.376
		C27.772,32.036,25.363,29.625,25.363,26.66z"/>
	<linearGradient id="SVGID_1_" gradientUnits="userSpaceOnUse" x1="33.5005" y1="50.5811" x2="33.5005" y2="6.4194">
		<stop  offset="0" style="stop-color:#D0CBC5"/>
		<stop  offset="0.5031" style="stop-color:#FAFCEF"/>
		<stop  offset="0.9693" style="stop-color:#FFFFFF"/>
	</linearGradient>
	<path fill="url(#SVGID_1_)" d="M32.579,26.66c0-1.015-0.824-1.841-1.838-1.841c-1.018,0-1.842,0.826-1.842,1.841
		c0,1.014,0.824,1.84,1.842,1.84C31.755,28.5,32.579,27.674,32.579,26.66z M48.985,28.503c0,0-1.159-0.118-1.159,1.096v14.393
		c-0.802-0.36-1.742-0.579-2.756-0.579c-2.837,0-5.131,1.604-5.131,3.584s2.294,3.585,5.131,3.585c2.83,0,5.121-1.604,5.121-3.585
		v-12.42c2.358,0.359,4.518,0.852,6.309,1.351v-6.004C53.775,29.217,51.067,28.802,48.985,28.503z M45.984,39.965v-5.65
		c-0.795,1.591-1.842,3.092-3.17,4.421c-3.397,3.396-7.867,5.053-12.317,4.991v-3.17c3.642,0.063,7.306-1.285,10.081-4.059
		c2.59-2.588,3.928-5.952,4.046-9.353h2.605c0.462-0.31,1.037-0.485,1.672-0.485c0.064,0,0.209,0.008,0.27,0.013
		c0.597,0.085,1.197,0.175,1.8,0.27c0.004-0.095,0.01-0.188,0.01-0.282c0-11.178-9.062-20.241-20.239-20.241
		C19.56,6.419,10.5,15.482,10.5,26.66c0,11.177,9.06,20.24,20.241,20.24c2.71,0,5.293-0.537,7.658-1.503
		c0.796-2.08,3.115-3.593,5.994-3.8C44.958,41.085,45.484,40.537,45.984,39.965z M41.47,27.146
		c-0.118,2.585-1.151,5.143-3.128,7.116c-2.159,2.162-5.016,3.202-7.845,3.14v-3.167c2.021,0.067,4.068-0.668,5.611-2.205
		c1.354-1.358,2.082-3.104,2.194-4.884H41.47z M13.684,26.174c0.118-4.209,1.771-8.38,4.978-11.59
		c3.398-3.396,7.87-5.053,12.32-4.988v3.165c-3.642-0.063-7.31,1.284-10.085,4.06c-2.59,2.588-3.924,5.953-4.043,9.354H13.684z
		 M20.009,26.174c0.117-2.588,1.15-5.144,3.124-7.117c2.163-2.161,5.016-3.201,7.849-3.137v3.164
		c-2.021-0.064-4.068,0.666-5.608,2.209c-1.357,1.354-2.085,3.102-2.198,4.881H20.009z M25.363,26.66
		c0-2.964,2.409-5.377,5.378-5.377c2.961,0,5.374,2.413,5.374,5.377c0,2.965-2.413,5.376-5.374,5.376
		C27.772,32.036,25.363,29.625,25.363,26.66z"/>
	<path fill="#FFFFFF" d="M32.579,26.66c0,0.174-0.032,0.34-0.078,0.5c-0.219-0.771-0.921-1.341-1.76-1.341
		c-0.843,0-1.545,0.57-1.764,1.341c-0.045-0.16-0.078-0.326-0.078-0.5c0-1.015,0.824-1.841,1.842-1.841
		C31.755,24.819,32.579,25.646,32.579,26.66z M42.814,38.735c-3.397,3.396-7.867,5.053-12.317,4.991v1
		c4.45,0.062,8.92-1.596,12.317-4.991c1.328-1.329,2.375-2.83,3.17-4.421v-1C45.189,35.905,44.143,37.406,42.814,38.735z
		 M23.175,27.174c0.113-1.779,0.841-3.526,2.198-4.881c1.54-1.543,3.587-2.273,5.608-2.209v-1c-2.021-0.064-4.068,0.666-5.608,2.209
		c-1.357,1.354-2.085,3.102-2.198,4.881h-3.073c-0.046,0.332-0.078,0.666-0.093,1H23.175z M39.939,46.996
		c0,0.171,0.039,0.335,0.072,0.5c0.351-1.741,2.467-3.084,5.059-3.084c1.014,0,1.954,0.219,2.756,0.579v-1
		c-0.802-0.36-1.742-0.579-2.756-0.579C42.233,43.412,39.939,45.016,39.939,46.996z M30.741,7.419
		c10.935,0,19.819,8.679,20.203,19.52c0.009,0.001,0.018,0.002,0.026,0.004c0.004-0.095,0.01-0.188,0.01-0.282
		c0-11.178-9.062-20.241-20.239-20.241C19.56,6.419,10.5,15.482,10.5,26.66c0,0.169,0.021,0.332,0.025,0.5
		C10.793,16.216,19.729,7.419,30.741,7.419z M48.985,28.503c0,0-1.159-0.118-1.159,1.096v1c0-1.214,1.159-1.096,1.159-1.096
		c2.082,0.299,4.79,0.714,7.515,1.42v-1C53.775,29.217,51.067,28.802,48.985,28.503z M16.854,27.174
		c0.119-3.4,1.453-6.766,4.043-9.354c2.775-2.775,6.443-4.122,10.085-4.06v-1c-3.642-0.063-7.31,1.284-10.085,4.06
		c-2.59,2.588-3.924,5.953-4.043,9.354h-3.096c-0.029,0.333-0.064,0.666-0.074,1H16.854z M30.497,37.401v1
		c2.829,0.063,5.686-0.978,7.845-3.14c1.977-1.974,3.01-4.531,3.128-7.116h-0.093c-0.31,2.236-1.314,4.397-3.035,6.116
		C36.183,36.424,33.326,37.464,30.497,37.401z M30.741,33.036c2.961,0,5.374-2.411,5.374-5.376c0-0.171-0.035-0.333-0.051-0.5
		c-0.257,2.728-2.533,4.876-5.323,4.876c-2.797,0-5.071-2.148-5.327-4.876c-0.016,0.167-0.051,0.329-0.051,0.5
		C25.363,30.625,27.772,33.036,30.741,33.036z"/>
</g>
<g id="DO_NOT_EDIT_-_FOCAL_ZONE_GUIDES">
</g>
</svg>
