<?xml version="1.0" encoding="utf-8"?>
<!-- Generator: Adobe Illustrator 15.0.0, SVG Export Plug-In . SVG Version: 6.00 Build 0)  -->
<!DOCTYPE svg PUBLIC "-//W3C//DTD SVG 1.1//EN" "http://www.w3.org/Graphics/SVG/1.1/DTD/svg11.dtd">
<svg version="1.1" id="Ebene_1" xmlns="http://www.w3.org/2000/svg" xmlns:xlink="http://www.w3.org/1999/xlink" x="0px" y="0px"
	 width="67px" height="57px" viewBox="0 0 67 57" enable-background="new 0 0 67 57" xml:space="preserve">
<rect fill="none" width="67" height="57"/>
<path opacity="0.15" enable-background="new    " d="M18.986,53.869c-2.979,0-5.381-1.254-6.424-3.354
	c-0.883-1.773-0.727-3.902,0.443-5.994c1.1-1.967,2.986-3.688,5.314-4.847c1.846-0.916,3.809-1.399,5.68-1.399
	c0.701,0,1.371,0.065,2.002,0.199V11.91c0-1.011,0.738-1.965,1.717-2.219l25.064-6.498c0.161-0.042,0.323-0.063,0.485-0.063
	C54.256,3.13,55,3.895,55,4.91v34.994c-0.186,3.133-2.666,6.293-6.32,8.109c-1.848,0.92-3.816,1.405-5.691,1.405h-0.002
	c-2.979,0-5.381-1.254-6.426-3.354c-0.883-1.773-0.727-3.902,0.443-5.994c1.1-1.967,2.988-3.689,5.316-4.846
	c1.844-0.918,3.809-1.402,5.678-1.402c0.703,0,1.371,0.068,2.002,0.201V16.981l-19,4.925c0,0,0,22.049-0.002,22.073
	c0.041,3.18-2.484,6.578-6.314,8.483C22.834,53.383,20.863,53.869,18.986,53.869L18.986,53.869z"/>
<path opacity="0.3" enable-background="new    " d="M54.002,5.91c0-0.55-0.436-0.887-0.967-0.749l-25.064,6.498
	c-0.533,0.138-0.969,0.701-0.969,1.251v27.912c-2.203-0.905-5.301-0.711-8.236,0.748c-4.443,2.211-6.82,6.463-5.309,9.5
	c1.508,3.035,6.338,3.707,10.783,1.496c3.598-1.789,5.838-4.918,5.758-7.656h0.004V22.133l21-5.444v19.683
	c-2.203-0.906-5.299-0.711-8.234,0.748c-4.445,2.21-6.822,6.462-5.309,9.5c1.51,3.038,6.338,3.709,10.777,1.5
	c3.41-1.695,5.609-4.589,5.766-7.216V5.91z"/>
<linearGradient id="SVGID_1_" gradientUnits="userSpaceOnUse" x1="170.9824" y1="-255.8887" x2="170.9824" y2="-207.1499" gradientTransform="matrix(1 0 0 -1 -137.48 -203.0195)">
	<stop  offset="0" style="stop-color:#D0CBC5"/>
	<stop  offset="0.5031" style="stop-color:#FAFCEF"/>
	<stop  offset="0.9693" style="stop-color:#FFFFFF"/>
</linearGradient>
<path fill="url(#SVGID_1_)" d="M54.002,4.91c0-0.55-0.436-0.887-0.967-0.749l-25.064,6.498c-0.533,0.138-0.969,0.701-0.969,1.251
	v27.912c-2.203-0.905-5.301-0.711-8.236,0.748c-4.443,2.211-6.82,6.463-5.309,9.5c1.508,3.035,6.338,3.707,10.783,1.496
	c3.598-1.789,5.838-4.918,5.758-7.656h0.004V21.133l21-5.444v19.683c-2.203-0.906-5.299-0.711-8.234,0.748
	c-4.445,2.21-6.822,6.462-5.309,9.5c1.51,3.038,6.338,3.709,10.777,1.5c3.41-1.695,5.609-4.589,5.766-7.216V4.91z"/>
<path fill="#FFFFFF" d="M42.768,36.119c-3.74,1.859-6.006,5.162-5.731,7.975c0.271-2.563,2.428-5.332,5.731-6.975
	c2.937-1.459,6.031-1.654,8.234-0.748v-1C48.799,34.465,45.703,34.66,42.768,36.119z M18.766,40.57
	c-3.738,1.859-6.004,5.164-5.73,7.975c0.27-2.563,2.428-5.332,5.73-6.975c2.936-1.459,6.033-1.653,8.236-0.748v-1
	C24.799,38.917,21.701,39.111,18.766,40.57z M53.035,4.161l-25.064,6.498c-0.533,0.138-0.969,0.701-0.969,1.251v1
	c0-0.55,0.436-1.113,0.969-1.251l25.064-6.498c0.531-0.138,0.967,0.199,0.967,0.749v-1C54.002,4.36,53.566,4.023,53.035,4.161z"/>
</svg>
