<?xml version="1.0" encoding="utf-8"?>
<!-- Generator: Adobe Illustrator 15.0.0, SVG Export Plug-In . SVG Version: 6.00 Build 0)  -->
<!DOCTYPE svg PUBLIC "-//W3C//DTD SVG 1.1//EN" "http://www.w3.org/Graphics/SVG/1.1/DTD/svg11.dtd">
<svg version="1.1" id="Ebene_1" xmlns="http://www.w3.org/2000/svg" xmlns:xlink="http://www.w3.org/1999/xlink" x="0px" y="0px"
	 width="67px" height="57px" viewBox="0 0 67 57" enable-background="new 0 0 67 57" xml:space="preserve">
<rect fill="none" width="67" height="57"/>
<path opacity="0.15" enable-background="new    " d="M48.577,55C44.889,55,42,52.85,42,50.105c0-0.27,0.027-0.533,0.081-0.789
	C41.945,49.723,41.566,50,41.133,50H17c-1.654,0-3-1.346-3-3V10c0-1.654,1.346-3,3-3h32c1.654,0,3,1.346,3,3v18.487
	c0,0.311-0.145,0.603-0.389,0.791C51.955,29.091,52.35,29,52.743,29c0.034,0,0.157,0.006,0.19,0.009
	c2.646,0.38,5.45,0.828,8.316,1.571c0.441,0.113,0.75,0.512,0.75,0.968v6.524c0,0.314-0.146,0.607-0.396,0.797
	c-0.176,0.134-0.389,0.203-0.604,0.203c-0.09,0-0.18-0.012-0.27-0.036c-1.785-0.497-3.696-0.927-5.588-1.255v12.324
	C55.143,52.85,52.259,55,48.577,55L48.577,55z M20.5,38c-0.275,0-0.5,0.225-0.5,0.5s0.225,0.5,0.5,0.5h25c0.275,0,0.5-0.225,0.5-0.5
	S45.775,38,45.5,38H20.5z M20.5,31c-0.275,0-0.5,0.225-0.5,0.5s0.225,0.5,0.5,0.5h25c0.275,0,0.5-0.225,0.5-0.5S45.775,31,45.5,31
	H20.5z M20.5,24c-0.275,0-0.5,0.225-0.5,0.5s0.225,0.5,0.5,0.5h25c0.275,0,0.5-0.225,0.5-0.5S45.775,24,45.5,24H20.5z M20.5,17
	c-0.275,0-0.5,0.225-0.5,0.5s0.225,0.5,0.5,0.5h25c0.275,0,0.5-0.225,0.5-0.5S45.775,17,45.5,17H20.5z"/>
<path opacity="0.3" enable-background="new    " d="M49.572,45.262V32.195c0-1.187,0.552-2.158,1.428-2.709V11c0-1.104-0.896-2-2-2
	H17c-1.104,0-2,0.896-2,2v37c0,1.104,0.896,2,2,2h24.133c0.648-2.76,3.684-4.791,7.444-4.791
	C48.91,45.209,49.242,45.227,49.572,45.262z M45.5,41h-25c-0.828,0-1.5-0.672-1.5-1.5s0.672-1.5,1.5-1.5h25
	c0.828,0,1.5,0.672,1.5,1.5S46.328,41,45.5,41z M45.5,34h-25c-0.828,0-1.5-0.672-1.5-1.5s0.672-1.5,1.5-1.5h25
	c0.828,0,1.5,0.672,1.5,1.5S46.328,34,45.5,34z M45.5,27h-25c-0.828,0-1.5-0.672-1.5-1.5s0.672-1.5,1.5-1.5h25
	c0.828,0,1.5,0.672,1.5,1.5S46.328,27,45.5,27z M45.5,20h-25c-0.828,0-1.5-0.672-1.5-1.5s0.672-1.5,1.5-1.5h25
	c0.828,0,1.5,0.672,1.5,1.5S46.328,20,45.5,20z M52.833,31.004c0,0-1.261-0.129-1.261,1.191V47.84
	c-0.872-0.393-1.893-0.631-2.995-0.631c-3.084,0-5.577,1.742-5.577,3.896C43,53.259,45.493,55,48.577,55
	c3.075,0,5.565-1.741,5.565-3.895v-13.5c2.563,0.392,4.91,0.926,6.856,1.467v-6.524C58.038,31.779,55.096,31.329,52.833,31.004z"/>
<linearGradient id="SVGID_1_" gradientUnits="userSpaceOnUse" x1="175.4805" y1="-257.0195" x2="175.4805" y2="-211.0195" gradientTransform="matrix(1 0 0 -1 -137.48 -203.0195)">
	<stop  offset="0" style="stop-color:#D0CBC5"/>
	<stop  offset="0.5031" style="stop-color:#FAFCEF"/>
	<stop  offset="0.9693" style="stop-color:#FFFFFF"/>
</linearGradient>
<path fill="url(#SVGID_1_)" d="M49.572,44.262V31.195c0-1.187,0.552-2.158,1.428-2.708V10c0-1.104-0.896-2-2-2H17
	c-1.104,0-2,0.896-2,2v37c0,1.104,0.896,2,2,2h24.133c0.648-2.76,3.684-4.791,7.444-4.791C48.91,44.209,49.242,44.227,49.572,44.262
	z M45.5,40h-25c-0.828,0-1.5-0.672-1.5-1.5s0.672-1.5,1.5-1.5h25c0.828,0,1.5,0.672,1.5,1.5S46.328,40,45.5,40z M45.5,33h-25
	c-0.828,0-1.5-0.672-1.5-1.5s0.672-1.5,1.5-1.5h25c0.828,0,1.5,0.672,1.5,1.5S46.328,33,45.5,33z M45.5,26h-25
	c-0.828,0-1.5-0.672-1.5-1.5s0.672-1.5,1.5-1.5h25c0.828,0,1.5,0.672,1.5,1.5S46.328,26,45.5,26z M45.5,19h-25
	c-0.828,0-1.5-0.672-1.5-1.5s0.672-1.5,1.5-1.5h25c0.828,0,1.5,0.672,1.5,1.5S46.328,19,45.5,19z M52.833,30.004
	c0,0-1.261-0.129-1.261,1.191V46.84c-0.872-0.393-1.893-0.631-2.995-0.631c-3.084,0-5.577,1.742-5.577,3.896
	C43,52.259,45.493,54,48.577,54c3.075,0,5.565-1.741,5.565-3.895v-13.5c2.563,0.392,4.91,0.926,6.856,1.467v-6.524
	C58.038,30.779,55.096,30.329,52.833,30.004z"/>
<path fill="#FFFFFF" d="M46.908,25c-0.207,0.581-0.756,1-1.408,1h-25c-0.652,0-1.201-0.419-1.408-1C19.036,25.157,19,25.324,19,25.5
	c0,0.828,0.672,1.5,1.5,1.5h25c0.828,0,1.5-0.672,1.5-1.5C47,25.324,46.964,25.157,46.908,25z M51,11v-1c0-1.104-0.896-2-2-2H17
	c-1.104,0-2,0.896-2,2v1c0-1.104,0.896-2,2-2h32C50.104,9,51,9.896,51,11z M45.5,33h-25c-0.652,0-1.201-0.419-1.408-1
	C19.036,32.156,19,32.324,19,32.5c0,0.828,0.672,1.5,1.5,1.5h25c0.828,0,1.5-0.672,1.5-1.5c0-0.176-0.036-0.344-0.092-0.5
	C46.701,32.581,46.152,33,45.5,33z M43,50.105c0,0.17,0.021,0.336,0.051,0.5c0.352-1.918,2.686-3.396,5.526-3.396
	c1.103,0,2.123,0.238,2.995,0.631v-1c-0.872-0.393-1.893-0.631-2.995-0.631C45.493,46.209,43,47.951,43,50.105z M46.908,18
	c-0.207,0.581-0.756,1-1.408,1h-25c-0.652,0-1.201-0.419-1.408-1C19.036,18.157,19,18.324,19,18.5c0,0.828,0.672,1.5,1.5,1.5h25
	c0.828,0,1.5-0.672,1.5-1.5C47,18.324,46.964,18.157,46.908,18z M52.833,30.004c0,0-1.261-0.129-1.261,1.191v1
	c0-1.32,1.261-1.191,1.261-1.191c2.263,0.325,5.205,0.775,8.167,1.544v-1C58.038,30.779,55.096,30.329,52.833,30.004z M47,39.5
	c0-0.176-0.036-0.344-0.092-0.5c-0.207,0.581-0.756,1-1.408,1h-25c-0.652,0-1.201-0.419-1.408-1C19.036,39.156,19,39.324,19,39.5
	c0,0.828,0.672,1.5,1.5,1.5h25C46.328,41,47,40.328,47,39.5z"/>
</svg>
