<?xml version="1.0" encoding="utf-8"?>
<!-- Generator: Adobe Illustrator 15.0.0, SVG Export Plug-In  -->
<!DOCTYPE svg PUBLIC "-//W3C//DTD SVG 1.1//EN" "http://www.w3.org/Graphics/SVG/1.1/DTD/svg11.dtd" [
	<!ENTITY ns_flows "http://ns.adobe.com/Flows/1.0/">
]>
<svg version="1.1"
	 xmlns="http://www.w3.org/2000/svg" xmlns:xlink="http://www.w3.org/1999/xlink" xmlns:a="http://ns.adobe.com/AdobeSVGViewerExtensions/3.0/"
	 x="0px" y="0px" width="67px" height="57px" viewBox="0 0 67 57" enable-background="new 0 0 67 57" xml:space="preserve">
<defs>
</defs>
<path opacity="0.3" d="M47.005,37.288c-1.621-0.849-2.577,0.278-2.577,0.278l-3.584,2.979c0.258-0.3-2.97,3.37-12.338-5.716
	l-0.003,0.001l-0.454-0.451v-0.003c-9.082-9.369-5.413-12.597-5.718-12.338l3.1-3.47c0,0,1.129-0.954,0.282-2.574L23.045,8.86
	c0,0-0.867-1.639-2.371-1.283c-10.715,2.556-7.778,13.775-7.778,13.775c1.343,7.155,6.421,13.201,8.995,15.888l-0.016,0.011
	l3.049,3.049l0.008-0.006c1.938,1.984,7.998,7.655,15.462,9.527l10.922-10.922L47.005,37.288z M54.131,39.952l-0.756-0.283
	l-10.64,10.64c2.876,0.419,10.617,0.689,12.685-7.984C55.775,40.82,54.131,39.952,54.131,39.952z"/>
<rect fill="none" width="67" height="57"/>
<path opacity="0.15" d="M44.987,50.472c-0.799,0-1.605-0.059-2.396-0.174c-0.374-0.055-0.686-0.315-0.805-0.675
	c-0.117-0.352-0.028-0.739,0.228-1.007l-0.912,0.912c-0.189,0.189-0.445,0.293-0.707,0.293c-0.081,0-0.163-0.01-0.243-0.03
	c-7.684-1.927-13.947-7.781-15.836-9.698c-0.035-0.025-0.067-0.055-0.099-0.086l-3.049-3.049c-0.052-0.052-0.098-0.109-0.137-0.171
	c-2.89-3.046-7.772-9.081-9.118-16.25c-0.044-0.159-1.411-5.546,1.245-9.974c1.496-2.494,3.947-4.162,7.284-4.958
	c0.219-0.052,0.439-0.078,0.655-0.078c1.456,0,2.465,1.173,2.832,1.866c0.02,0.038,0.038,0.077,0.053,0.118l2.648,7.081
	c0.883,1.752,0.101,3.14-0.49,3.687c0,0-2.984,3.343-2.987,3.347c-0.088,0.125-2.067,3.132,5.615,11.057
	c0.01,0.012,0.42,0.417,0.435,0.432c5.311,5.15,8.418,5.919,9.797,5.919c0.775,0,1.157-0.231,1.255-0.302
	c0.015-0.011,0.028-0.02,0.043-0.029l3.445-2.864c0.234-0.24,0.955-0.864,2.088-0.864c0.522,0,1.053,0.135,1.58,0.4l4.256,1.591
	c0.319,0.119,0.556,0.392,0.628,0.725c0.07,0.325-0.025,0.664-0.256,0.904l0.63-0.63c0.19-0.191,0.446-0.293,0.707-0.293
	c0.118,0,0.236,0.021,0.351,0.063l0.756,0.283c0.04,0.015,0.079,0.032,0.116,0.052c0.865,0.457,2.217,1.705,1.796,3.487
	C54.544,49.313,48.454,50.472,44.987,50.472L44.987,50.472z"/>
<path opacity="0.15" d="M47.005,36.288c-1.621-0.849-2.577,0.278-2.577,0.278l-3.584,2.979c0.258-0.3-2.97,3.37-12.338-5.716
	l-0.003,0.001l-0.454-0.451v-0.003c-9.082-9.369-5.413-12.597-5.718-12.338l3.1-3.47c0,0,1.129-0.954,0.282-2.574L23.045,7.86
	c0,0-0.867-1.639-2.371-1.283c-10.715,2.556-7.778,13.775-7.778,13.775c1.343,7.155,6.421,13.201,8.995,15.888l-0.016,0.011
	l3.049,3.049l0.008-0.006c1.938,1.984,7.998,7.655,15.462,9.527l10.922-10.922L47.005,36.288z M54.131,38.952l-0.756-0.283
	l-10.64,10.64c2.876,0.419,10.617,0.689,12.685-7.984C55.775,39.82,54.131,38.952,54.131,38.952z"/>
<linearGradient id="SVGID_1_" gradientUnits="userSpaceOnUse" x1="33.9995" y1="49.4717" x2="33.9995" y2="6.5269">
	<stop  offset="0" style="stop-color:#D0CBC5"/>
	<stop  offset="0.5031" style="stop-color:#FAFCEF"/>
	<stop  offset="0.9693" style="stop-color:#FFFFFF"/>
</linearGradient>
<path fill="url(#SVGID_1_)" d="M47.005,36.288c-1.621-0.849-2.577,0.278-2.577,0.278l-3.584,2.979c0.258-0.3-2.97,3.37-12.338-5.716
	l-0.003,0.001l-0.454-0.451v-0.003c-9.082-9.369-5.413-12.597-5.718-12.338l3.1-3.47c0,0,1.129-0.954,0.282-2.574L23.045,7.86
	c0,0-0.867-1.639-2.371-1.283c-10.715,2.556-7.778,13.775-7.778,13.775c1.343,7.155,6.421,13.201,8.995,15.888l-0.016,0.011
	l3.049,3.049l0.008-0.006c1.938,1.984,7.998,7.655,15.462,9.527l10.922-10.922L47.005,36.288z M54.131,38.952l-0.756-0.283
	l-10.64,10.64c2.876,0.419,10.617,0.689,12.685-7.984C55.775,39.82,54.131,38.952,54.131,38.952z"/>
<path fill="#FFFFFF" d="M21.877,23.387c-0.191,1.715,0.525,5.165,6.172,10.99v0.003l0.454,0.451l0.003-0.001
	c9.368,9.086,12.596,5.416,12.338,5.716l3.584-2.979c0,0,0.956-1.127,2.577-0.278l3.584,1.339l0.728-0.728l-4.312-1.611
	c-1.621-0.849-2.577,0.278-2.577,0.278l-3.584,2.979c0.258-0.3-2.97,3.37-12.338-5.716l-0.003,0.001l-0.454-0.451v-0.003
	C23.337,28.517,22.061,25.313,21.877,23.387z"/>
<path fill="#FFFFFF" d="M43.635,49.409l9.74-9.74l0.756,0.283c0,0,0.984,0.53,1.26,1.472c0.009-0.035,0.021-0.064,0.029-0.1
	c0.355-1.504-1.289-2.372-1.289-2.372l-0.756-0.283l-10.64,10.64C42.994,49.347,43.305,49.38,43.635,49.409z"/>
<path fill="#FFFFFF" d="M20.674,7.577c1.504-0.356,2.371,1.283,2.371,1.283l2.668,7.135c0.123,0.236,0.195,0.453,0.245,0.659
	c0.111-0.424,0.111-0.979-0.245-1.659L23.045,7.86c0,0-0.867-1.639-2.371-1.283c-7.264,1.732-8.252,7.444-8.136,10.945
	C12.653,14.02,14.068,9.153,20.674,7.577z"/>
<path fill="#EC1C24" d="M36.299,52.451c-0.256,0-0.512-0.098-0.707-0.293c-0.391-0.391-0.391-1.023,0-1.414l15.372-15.372
	c0.391-0.391,1.023-0.391,1.414,0s0.391,1.023,0,1.414L37.006,52.158C36.811,52.354,36.555,52.451,36.299,52.451z"/>
</svg>
