<?xml version="1.0" encoding="utf-8"?>
<!-- Generator: Adobe Illustrator 15.0.0, SVG Export Plug-In . SVG Version: 6.00 Build 0)  -->
<!DOCTYPE svg PUBLIC "-//W3C//DTD SVG 1.1//EN" "http://www.w3.org/Graphics/SVG/1.1/DTD/svg11.dtd">
<svg version="1.1" id="Ebene_1" xmlns="http://www.w3.org/2000/svg" xmlns:xlink="http://www.w3.org/1999/xlink" x="0px" y="0px"
	 width="67px" height="57px" viewBox="0 0 67 57" enable-background="new 0 0 67 57" xml:space="preserve">
<path opacity="0.3" d="M47.5,21c-1.381,0-2.5,1.119-2.5,2.5V28c0,6.064-4.936,11-11,11c-1.922,0-3.729-0.499-5.304-1.369
	l-3.625,3.624c1.761,1.188,3.764,2.043,5.928,2.454V48h-8v4.014h22V48h-8v-4.291C44.4,42.305,50,35.811,50,28v-4.5
	C50,22.119,48.881,21,47.5,21z M34,36c4.418,0,8-3.582,8-8v-3.672L30.938,35.39C31.881,35.781,32.915,36,34,36z M42,18.443V16
	c0-4.418-3.582-8-8-8s-8,3.582-8,8v12c0,1.801,0.603,3.458,1.607,4.795C32.371,28,37.391,22.994,42,18.443z M23,28v-4.5
	c0-1.381-1.119-2.5-2.5-2.5S18,22.119,18,23.5V28c0,4.028,1.498,7.699,3.956,10.51c1.143-1.161,2.32-2.354,3.522-3.567
	C23.931,33.048,23,30.631,23,28z"/>
<path fill="#FFFFFF" d="M34,8c4.418,0,8,3.582,8,8v-1c0-4.418-3.582-8-8-8s-8,3.582-8,8v1C26,11.582,29.582,8,34,8z M23,48h8v-1h-8
	V48z M23,22.5c0-1.381-1.119-2.5-2.5-2.5S18,21.119,18,22.5v1c0-1.381,1.119-2.5,2.5-2.5s2.5,1.119,2.5,2.5V22.5z M47.5,20
	c-1.381,0-2.5,1.119-2.5,2.5v1c0-1.381,1.119-2.5,2.5-2.5s2.5,1.119,2.5,2.5v-1C50,21.119,48.881,20,47.5,20z M37,48h8v-1h-8V48z
	 M34,38c-6.065,0-11-4.936-11-11v1c0,6.064,4.935,11,11,11c6.064,0,11-4.936,11-11v-1C45,33.064,40.064,38,34,38z"/>
<g>
	<rect x="10.5" y="5.5" fill="none" width="46" height="46"/>
</g>
<linearGradient id="SVGID_1_" gradientUnits="userSpaceOnUse" x1="166.9199" y1="-235.8984" x2="166.9199" y2="-233.0195" gradientTransform="matrix(1 0 0 -1 -137.48 -203.0195)">
	<stop  offset="0" style="stop-color:#D0CBC5"/>
	<stop  offset="0.5031" style="stop-color:#FAFCEF"/>
	<stop  offset="0.9693" style="stop-color:#FFFFFF"/>
</linearGradient>
<polygon fill="url(#SVGID_1_)" points="30.879,30 28,30 28,32.879 "/>
<linearGradient id="SVGID_2_" gradientUnits="userSpaceOnUse" x1="166.9199" y1="-235.8984" x2="166.9199" y2="-233.0195" gradientTransform="matrix(1 0 0 -1 -137.48 -203.0195)">
	<stop  offset="0" style="stop-color:#D0CBC5"/>
	<stop  offset="0.5031" style="stop-color:#FAFCEF"/>
	<stop  offset="0.9693" style="stop-color:#FFFFFF"/>
</linearGradient>
<polygon fill="url(#SVGID_2_)" points="30.879,30 28,30 28,32.879 "/>
<linearGradient id="SVGID_3_" gradientUnits="userSpaceOnUse" x1="166.9199" y1="-235.8984" x2="166.9199" y2="-233.0195" gradientTransform="matrix(1 0 0 -1 -137.48 -203.0195)">
	<stop  offset="0" style="stop-color:#D0CBC5"/>
	<stop  offset="0.5031" style="stop-color:#FAFCEF"/>
	<stop  offset="0.9693" style="stop-color:#FFFFFF"/>
</linearGradient>
<polygon fill="url(#SVGID_3_)" points="30.879,30 28,30 28,32.879 "/>
<path opacity="0.15" d="M23,52.014c-0.552,0-1-0.447-1-1V47c0-0.553,0.448-1,1-1h7v-2.484c-1.947-0.471-3.79-1.287-5.487-2.432
	c-0.248-0.167-0.408-0.436-0.437-0.733c-0.028-0.297,0.077-0.592,0.289-0.803l3.625-3.624c0.192-0.192,0.448-0.293,0.708-0.293
	c0.165,0,0.332,0.041,0.483,0.125C30.653,36.569,32.319,37,34,37c5.514,0,10-4.486,10-10v-4.5c0-1.93,1.57-3.5,3.5-3.5
	s3.5,1.57,3.5,3.5V27c0,7.874-5.418,14.691-13,16.517V46h7c0.553,0,1,0.447,1,1v4.014c0,0.553-0.447,1-1,1H23z M21.926,38.51
	c-0.278-0.009-0.541-0.132-0.724-0.342C18.493,35.069,17,31.103,17,27v-4.5c0-1.93,1.57-3.5,3.5-3.5s3.5,1.57,3.5,3.5V27
	c0,2.29,0.8,4.531,2.252,6.31c0.324,0.396,0.296,0.973-0.064,1.336c-1.201,1.214-2.378,2.405-3.52,3.565
	c-0.188,0.191-0.445,0.299-0.713,0.299C21.946,38.51,21.936,38.51,21.926,38.51z M34,36c-1.189,0-2.348-0.231-3.446-0.687
	c-0.309-0.128-0.533-0.401-0.598-0.729c-0.065-0.327,0.038-0.665,0.274-0.901l11.063-11.062c0.191-0.191,0.447-0.293,0.707-0.293
	c0.129,0,0.259,0.025,0.383,0.076C42.757,22.559,43,22.923,43,23.328V27C43,31.963,38.963,36,34,36z M27.539,32.793
	c-0.29-0.021-0.556-0.165-0.73-0.397C25.625,30.822,25,28.956,25,27V15c0-4.962,4.038-9,9-9c4.963,0,9,4.038,9,9v2.443
	c0,0.268-0.107,0.524-0.298,0.711c-4.596,4.537-9.57,9.498-14.385,14.345c-0.188,0.189-0.444,0.295-0.709,0.295
	C27.584,32.795,27.562,32.794,27.539,32.793z"/>
<path opacity="0.15" d="M47.5,20c-1.381,0-2.5,1.119-2.5,2.5V27c0,6.064-4.936,11-11,11c-1.922,0-3.729-0.499-5.304-1.369
	l-3.625,3.624c1.761,1.188,3.764,2.043,5.928,2.454V47h-8v4.014h22V47h-8v-4.291C44.4,41.305,50,34.811,50,27v-4.5
	C50,21.119,48.881,20,47.5,20z M34,35c4.418,0,8-3.582,8-8v-3.672L30.938,34.39C31.881,34.781,32.915,35,34,35z M42,17.443V15
	c0-4.418-3.582-8-8-8s-8,3.582-8,8v12c0,1.801,0.603,3.458,1.607,4.795C32.371,27,37.391,21.994,42,17.443z M23,27v-4.5
	c0-1.381-1.119-2.5-2.5-2.5S18,21.119,18,22.5V27c0,4.028,1.498,7.699,3.956,10.51c1.143-1.161,2.32-2.354,3.522-3.567
	C23.931,32.048,23,29.631,23,27z"/>
<linearGradient id="SVGID_4_" gradientUnits="userSpaceOnUse" x1="33.9995" y1="7" x2="33.9995" y2="51.0142">
	<stop  offset="0.0307" style="stop-color:#FFFFFF"/>
	<stop  offset="0.4969" style="stop-color:#FAFCEF"/>
	<stop  offset="1" style="stop-color:#D0CBC5"/>
</linearGradient>
<path fill="url(#SVGID_4_)" d="M47.5,20c-1.381,0-2.5,1.119-2.5,2.5V27c0,6.064-4.936,11-11,11c-1.922,0-3.729-0.499-5.304-1.369
	l-3.625,3.624c1.761,1.188,3.764,2.043,5.928,2.454V47h-8v4.014h22V47h-8v-4.291C44.4,41.305,50,34.811,50,27v-4.5
	C50,21.119,48.881,20,47.5,20z M34,35c4.418,0,8-3.582,8-8v-3.672L30.938,34.39C31.881,34.781,32.915,35,34,35z M42,17.443V15
	c0-4.418-3.582-8-8-8s-8,3.582-8,8v12c0,1.801,0.603,3.458,1.607,4.795C32.371,27,37.391,21.994,42,17.443z M23,27v-4.5
	c0-1.381-1.119-2.5-2.5-2.5S18,21.119,18,22.5V27c0,4.028,1.498,7.699,3.956,10.51c1.143-1.161,2.32-2.354,3.522-3.567
	C23.931,32.048,23,29.631,23,27z"/>
<path fill="#FFFFFF" d="M26,16v-1c0-4.418,3.582-8,8-8s8,3.582,8,8v1c0-4.418-3.582-8-8-8S26,11.582,26,16z M23,48h8v-1h-8V48z
	 M30.938,34.39c0.24,0.1,0.485,0.188,0.736,0.264L42,24.328v-1L30.938,34.39z M34,38c-1.922,0-3.729-0.499-5.304-1.369l-3.625,3.624
	c0.201,0.136,0.416,0.251,0.623,0.377l3.001-3.001C30.271,38.501,32.078,39,34,39c6.064,0,11-4.936,11-11v-1
	C45,33.064,40.064,38,34,38z M47.5,20c-1.381,0-2.5,1.119-2.5,2.5v1c0-1.381,1.119-2.5,2.5-2.5s2.5,1.119,2.5,2.5v-1
	C50,21.119,48.881,20,47.5,20z M37,48h8v-1h-8V48z M20.5,21c1.381,0,2.5,1.119,2.5,2.5v-1c0-1.381-1.119-2.5-2.5-2.5
	S18,21.119,18,22.5v1C18,22.119,19.119,21,20.5,21z M23,28c0,2.376,0.765,4.574,2.051,6.374c0.145-0.146,0.281-0.285,0.426-0.432
	C23.931,32.048,23,29.631,23,27V28z"/>
<path fill="#FF0000" d="M9.5,52.377c-0.383,0-0.767-0.146-1.06-0.439c-0.587-0.586-0.587-1.535-0.002-2.119l47.38-47.379
	c0.586-0.586,1.533-0.585,2.119,0.001c0.586,0.587,0.588,1.535,0.002,2.12L10.561,51.938C10.269,52.23,9.884,52.377,9.5,52.377
	L9.5,52.377z"/>
</svg>
