<?xml version="1.0" encoding="utf-8"?>
<!-- Generator: Adobe Illustrator 15.0.0, SVG Export Plug-In . SVG Version: 6.00 Build 0)  -->
<!DOCTYPE svg PUBLIC "-//W3C//DTD SVG 1.1//EN" "http://www.w3.org/Graphics/SVG/1.1/DTD/svg11.dtd">
<svg version="1.1" xmlns="http://www.w3.org/2000/svg" xmlns:xlink="http://www.w3.org/1999/xlink" x="0px" y="0px" width="67px"
	 height="57px" viewBox="0 0 67 57" enable-background="new 0 0 67 57" xml:space="preserve">
<g id="DO_NOT_EDIT_-_BOUNDING_BOX">
	<rect id="BOUNDING_BOX" fill="none" width="67" height="57"/>
</g>
<g id="PLACE_YOUR_GRAPHIC_HERE">
	<path opacity="0.3" d="M33.881,39.24l8.468,7.41c1.464,1.283,2.664,0.737,2.664-1.211V21.315L27.087,39.24H33.881z M42.349,12.348
		l-8.468,7.41h-8.352c-1.947,0-3.542,1.595-3.542,3.542v12.398c0,0.777,0.262,1.492,0.691,2.078
		c7.09-7.192,15.41-15.5,22.334-22.299v-1.919C45.013,11.611,43.813,11.068,42.349,12.348z"/>
	<g>
		<rect x="10.5" y="5.5" fill="none" width="46" height="46"/>
	</g>
	<path opacity="0.15" d="M43.806,47.346c-0.69-0.001-1.402-0.317-2.116-0.943l-8.185-7.162h-6.418c-0.404,0-0.769-0.243-0.924-0.617
		s-0.069-0.804,0.217-1.09l17.926-17.925c0.191-0.191,0.447-0.293,0.707-0.293c0.129,0,0.259,0.025,0.383,0.076
		c0.374,0.155,0.617,0.52,0.617,0.924v24.125c0,0.802-0.167,1.463-0.495,1.964C45.119,47.011,44.512,47.346,43.806,47.346
		L43.806,47.346z M22.605,37.773c-0.292-0.021-0.561-0.17-0.734-0.406c-0.579-0.79-0.884-1.713-0.884-2.669V22.3
		c0-2.505,2.038-4.542,4.542-4.542h7.976l8.186-7.163c0.714-0.625,1.426-0.941,2.115-0.941c1.019,0,2.207,0.761,2.207,2.904v1.919
		c0,0.269-0.107,0.525-0.3,0.713C38.825,21.955,30.48,30.286,23.39,37.479c-0.188,0.191-0.445,0.298-0.712,0.298
		C22.654,37.776,22.63,37.775,22.605,37.773z"/>
	<path opacity="0.15" d="M33.881,38.24l8.468,7.41c1.464,1.283,2.664,0.737,2.664-1.211V20.315L27.087,38.24H33.881z M42.349,11.348
		l-8.468,7.41h-8.352c-1.947,0-3.542,1.595-3.542,3.542v12.398c0,0.777,0.262,1.492,0.691,2.078
		c7.09-7.192,15.41-15.5,22.334-22.299v-1.919C45.013,10.611,43.813,10.068,42.349,11.348z"/>
	<linearGradient id="SVGID_1_" gradientUnits="userSpaceOnUse" x1="33.5005" y1="46.3447" x2="33.5005" y2="10.6548">
		<stop  offset="0" style="stop-color:#D0CBC5"/>
		<stop  offset="0.5031" style="stop-color:#FAFCEF"/>
		<stop  offset="0.9693" style="stop-color:#FFFFFF"/>
	</linearGradient>
	<path fill="url(#SVGID_1_)" d="M33.881,38.24l8.468,7.41c1.464,1.283,2.664,0.737,2.664-1.211V20.315L27.087,38.24H33.881z
		 M42.349,11.348l-8.468,7.41h-8.352c-1.947,0-3.542,1.595-3.542,3.542v12.398c0,0.777,0.262,1.492,0.691,2.078
		c7.09-7.192,15.41-15.5,22.334-22.299v-1.919C45.013,10.611,43.813,10.068,42.349,11.348z"/>
	<path fill="#FFFFFF" d="M45.013,12.559v1c0-1.948-1.2-2.491-2.664-1.211l-8.468,7.41h-8.352c-1.947,0-3.542,1.595-3.542,3.542v-1
		c0-1.948,1.595-3.542,3.542-3.542h8.352l8.468-7.41C43.813,10.068,45.013,10.611,45.013,12.559z M28.087,38.24l16.926-16.925v-1
		L27.087,38.24H28.087z"/>
	<path fill="#FF0000" d="M9.5,52.377c-0.383,0-0.767-0.146-1.06-0.439c-0.587-0.586-0.587-1.535-0.002-2.119l47.38-47.379
		c0.586-0.586,1.533-0.585,2.119,0.001c0.586,0.587,0.588,1.535,0.002,2.12L10.561,51.938C10.269,52.23,9.884,52.377,9.5,52.377
		L9.5,52.377z"/>
</g>
<g id="DO_NOT_EDIT_-_FOCAL_ZONE_GUIDES">
</g>
</svg>
