<?xml version="1.0" encoding="utf-8"?>
<!-- Generator: Adobe Illustrator 15.0.2, SVG Export Plug-In  -->
<!DOCTYPE svg PUBLIC "-//W3C//DTD SVG 1.1//EN" "http://www.w3.org/Graphics/SVG/1.1/DTD/svg11.dtd" [
	<!ENTITY ns_flows "http://ns.adobe.com/Flows/1.0/">
]>
<svg version="1.1"
	 xmlns="http://www.w3.org/2000/svg" xmlns:xlink="http://www.w3.org/1999/xlink" xmlns:a="http://ns.adobe.com/AdobeSVGViewerExtensions/3.0/"
	 x="0px" y="0px" width="67px" height="57px" viewBox="0 0 67 57" enable-background="new 0 0 67 57" xml:space="preserve">
<defs>
</defs>
<rect id="BOUNDING_BOX_1_" fill="none" width="67" height="57"/>
<path opacity="0.3" d="M55.922,28.099L36.904,9.081c-0.771-0.775-2.033-0.775-2.805,0l-3.146,3.147c-0.772,0.771-0.772,2.03,0,2.805
	l10.5,10.5H12.5c-1.091,0-1.985,0.891-1.985,1.983v3.968c0,1.089,0.894,1.984,1.985,1.984h28.953l-10.5,10.5
	c-0.772,0.771-0.772,2.034,0,2.807l3.146,3.146c0.771,0.771,2.033,0.771,2.805,0l19.018-19.018
	C56.693,30.129,56.693,28.87,55.922,28.099z"/>
<path opacity="0.15" d="M35.502,50.5c-0.798,0-1.547-0.31-2.109-0.87l-3.146-3.146c-1.164-1.164-1.164-3.058,0-4.221l8.792-8.793
	H12.5c-1.646,0-2.985-1.339-2.985-2.984v-3.968c0-1.645,1.339-2.983,2.985-2.983h26.539l-8.792-8.793
	c-1.163-1.167-1.162-3.059,0-4.22l3.146-3.146C33.953,6.811,34.703,6.5,35.502,6.5s1.549,0.311,2.111,0.875l19.016,19.016
	c1.16,1.161,1.161,3.053,0.002,4.218l-19.02,19.02C37.049,50.19,36.3,50.5,35.502,50.5z"/>
<path opacity="0.15" d="M55.922,27.099L36.904,8.081c-0.771-0.775-2.033-0.775-2.805,0l-3.146,3.147
	c-0.772,0.771-0.772,2.03,0,2.805l10.5,10.5H12.5c-1.091,0-1.985,0.891-1.985,1.983v3.968c0,1.089,0.894,1.984,1.985,1.984h28.953
	l-10.5,10.5c-0.772,0.771-0.772,2.034,0,2.807l3.146,3.146c0.771,0.771,2.033,0.771,2.805,0l19.018-19.018
	C56.693,29.129,56.693,27.87,55.922,27.099z"/>
<linearGradient id="SVGID_1_" gradientUnits="userSpaceOnUse" x1="33.5078" y1="49.5" x2="33.5078" y2="7.5005">
	<stop  offset="0" style="stop-color:#D0CBC5"/>
	<stop  offset="0.5031" style="stop-color:#FAFCEF"/>
	<stop  offset="0.9693" style="stop-color:#FFFFFF"/>
</linearGradient>
<path fill="url(#SVGID_1_)" d="M55.922,27.099L36.904,8.081c-0.771-0.775-2.033-0.775-2.805,0l-3.146,3.147
	c-0.772,0.771-0.772,2.03,0,2.805l10.5,10.5H12.5c-1.091,0-1.985,0.891-1.985,1.983v3.968c0,1.089,0.894,1.984,1.985,1.984h28.953
	l-10.5,10.5c-0.772,0.771-0.772,2.034,0,2.807l3.146,3.146c0.771,0.771,2.033,0.771,2.805,0l19.018-19.018
	C56.693,29.129,56.693,27.87,55.922,27.099z"/>
<path fill="#FFFFFF" d="M30.954,12.228L34.1,9.081c0.771-0.775,2.033-0.775,2.805,0l19.018,19.018
	c0.258,0.258,0.421,0.571,0.507,0.901c0.171-0.659,0.007-1.388-0.507-1.901L36.904,8.081c-0.771-0.775-2.033-0.775-2.805,0
	l-3.146,3.147c-0.514,0.514-0.678,1.242-0.507,1.901C30.532,12.799,30.696,12.485,30.954,12.228z"/>
<path fill="#FFFFFF" d="M12.5,25.534h28.953l-1-1H12.5c-1.091,0-1.985,0.891-1.985,1.983v1C10.515,26.425,11.409,25.534,12.5,25.534
	z"/>
<path fill="#FFFFFF" d="M41.453,33.47h-1l-9.5,9.5c-0.514,0.514-0.678,1.243-0.507,1.903c0.085-0.331,0.25-0.646,0.507-0.903
	L41.453,33.47z"/>
</svg>
