<?xml version="1.0" encoding="utf-8"?>
<!-- Generator: Adobe Illustrator 15.0.2, SVG Export Plug-In . SVG Version: 6.00 Build 0)  -->
<!DOCTYPE svg PUBLIC "-//W3C//DTD SVG 1.1//EN" "http://www.w3.org/Graphics/SVG/1.1/DTD/svg11.dtd">
<svg version="1.1" id="Ebene_1" xmlns="http://www.w3.org/2000/svg" xmlns:xlink="http://www.w3.org/1999/xlink" x="0px" y="0px"
	 width="67px" height="57px" viewBox="0 0 67 57" enable-background="new 0 0 67 57" xml:space="preserve">
<path opacity="0.3" d="M50.02,46.05l3.536-3.535c0.391-0.392,0.391-1.023,0-1.415l-0.707-0.707c-0.392-0.391-1.023-0.391-1.415,0
	l-3.535,3.536l-3.535-3.536c-0.392-0.391-1.023-0.391-1.415,0L42.241,41.1c-0.391,0.392-0.391,1.023,0,1.415l3.536,3.535
	l-3.536,3.535c-0.391,0.392-0.391,1.023,0,1.415l0.707,0.707c0.392,0.391,1.023,0.391,1.415,0l3.535-3.536l3.535,3.536
	c0.392,0.391,1.023,0.391,1.415,0L53.556,51c0.391-0.392,0.391-1.023,0-1.415L50.02,46.05z M50.998,15.143V8.007
	c0.003-0.272-0.1-0.519-0.289-0.712C50.52,7.105,50.268,7,50,7H16.451c-0.552,0-1,0.449-1,1v7.136c0,0.303,0.135,0.577,0.354,0.763
	l15.885,12.15V51c0,0.551,0.448,1,1,1h1.548c0.553,0,1-0.449,1-1V28.041l15.354-12.143C50.816,15.71,50.996,15.435,50.998,15.143z
	 M31.691,23.406L19,13.981v-3.433h12.691V23.406z M47.414,14.112l-12.176,9.306v-12.87h12.176V14.112z"/>
<rect fill="none" width="67" height="57"/>
<path opacity="0.15" d="M52.142,52c-0.534,0-1.036-0.208-1.414-0.585l-2.829-2.83l-2.828,2.829C44.691,51.792,44.189,52,43.655,52
	c-0.533,0-1.035-0.208-1.413-0.585l-0.708-0.708c-0.778-0.78-0.778-2.049-0.001-2.828l2.83-2.829l-2.829-2.828
	c-0.778-0.78-0.778-2.049-0.001-2.828l0.708-0.708c0.379-0.378,0.881-0.586,1.414-0.586c0.534,0,1.036,0.208,1.414,0.585l2.829,2.83
	l2.828-2.829c0.379-0.378,0.881-0.586,1.415-0.586c0.533,0,1.035,0.208,1.413,0.585l0.708,0.708c0.778,0.78,0.778,2.049,0.001,2.828
	l-2.83,2.829l2.829,2.828c0.778,0.78,0.778,2.049,0.001,2.828l-0.708,0.708C53.177,51.792,52.675,52,52.142,52z M32.69,52
	c-1.103,0-2-0.897-2-2V27.543l-15.492-11.85c-0.489-0.413-0.747-0.969-0.747-1.558V7c0-1.103,0.897-2,2-2H50
	c0.535,0,1.038,0.209,1.417,0.589c0.383,0.389,0.587,0.895,0.581,1.429v7.125c-0.004,0.566-0.282,1.118-0.765,1.522l-14.995,11.86
	V50c0,1.103-0.897,2-2,2H32.69z M30.691,20.418v-9.87H20v1.93L30.691,20.418z M36.238,20.395l10.176-7.777v-2.07H36.238V20.395z"/>
<path opacity="0.15" d="M50.02,45.05l3.536-3.535c0.391-0.392,0.391-1.023,0-1.415l-0.707-0.707c-0.392-0.391-1.023-0.391-1.415,0
	l-3.535,3.536l-3.535-3.536c-0.392-0.391-1.023-0.391-1.415,0L42.241,40.1c-0.391,0.392-0.391,1.023,0,1.415l3.536,3.535
	l-3.536,3.535c-0.391,0.392-0.391,1.023,0,1.415l0.707,0.707c0.392,0.391,1.023,0.391,1.415,0l3.535-3.536l3.535,3.536
	c0.392,0.391,1.023,0.391,1.415,0L53.556,50c0.391-0.392,0.391-1.023,0-1.415L50.02,45.05z M50.998,14.143V7.007
	c0.003-0.272-0.1-0.519-0.289-0.712C50.52,6.105,50.268,6,50,6H16.451c-0.552,0-1,0.449-1,1v7.136c0,0.303,0.135,0.577,0.354,0.763
	l15.885,12.15V50c0,0.551,0.448,1,1,1h1.548c0.553,0,1-0.449,1-1V27.041l15.354-12.143C50.816,14.71,50.996,14.435,50.998,14.143z
	 M31.691,22.406L19,12.981V9.548h12.691V22.406z M47.414,13.112l-12.176,9.306V9.548h12.176V13.112z"/>
<linearGradient id="SVGID_1_" gradientUnits="userSpaceOnUse" x1="34.6494" y1="51" x2="34.6494" y2="6.0005">
	<stop  offset="0" style="stop-color:#D0CBC5"/>
	<stop  offset="0.5031" style="stop-color:#FAFCEF"/>
	<stop  offset="0.9693" style="stop-color:#FFFFFF"/>
</linearGradient>
<path fill="url(#SVGID_1_)" d="M50.02,45.05l3.536-3.535c0.391-0.392,0.391-1.023,0-1.415l-0.707-0.707
	c-0.392-0.391-1.023-0.391-1.415,0l-3.535,3.536l-3.535-3.536c-0.392-0.391-1.023-0.391-1.415,0L42.241,40.1
	c-0.391,0.392-0.391,1.023,0,1.415l3.536,3.535l-3.536,3.535c-0.391,0.392-0.391,1.023,0,1.415l0.707,0.707
	c0.392,0.391,1.023,0.391,1.415,0l3.535-3.536l3.535,3.536c0.392,0.391,1.023,0.391,1.415,0L53.556,50
	c0.391-0.392,0.391-1.023,0-1.415L50.02,45.05z M50.998,14.143V7.007c0.003-0.272-0.1-0.519-0.289-0.712C50.52,6.105,50.268,6,50,6
	H16.451c-0.552,0-1,0.449-1,1v7.136c0,0.303,0.135,0.577,0.354,0.763l15.885,12.15V50c0,0.551,0.448,1,1,1h1.548
	c0.553,0,1-0.449,1-1V27.041l15.354-12.143C50.816,14.71,50.996,14.435,50.998,14.143z M31.691,22.406L19,12.981V9.548h12.691
	V22.406z M47.414,13.112l-12.176,9.306V9.548h12.176V13.112z"/>
<g>
	<path fill="#FFFFFF" d="M45.777,46.05l-0.5-0.5l-3.036,3.035c-0.329,0.33-0.364,0.823-0.138,1.208
		c0.042-0.072,0.076-0.146,0.138-0.208L45.777,46.05z"/>
	<path fill="#FFFFFF" d="M44.363,39.393c-0.392-0.391-1.023-0.391-1.415,0L42.241,40.1c-0.329,0.33-0.364,0.824-0.138,1.207
		c0.042-0.07,0.076-0.146,0.138-0.207l0.707-0.707c0.392-0.391,1.023-0.391,1.415,0l3.535,3.536l3.535-3.536
		c0.392-0.391,1.023-0.391,1.415,0l0.707,0.707c0.062,0.062,0.096,0.137,0.138,0.207c0.227-0.383,0.191-0.877-0.138-1.207
		l-0.707-0.707c-0.392-0.391-1.023-0.391-1.415,0l-3.535,3.536L44.363,39.393z"/>
	<polygon fill="#FFFFFF" points="47.414,14.112 47.414,13.112 35.238,22.418 35.238,23.418 	"/>
	<path fill="#FFFFFF" d="M50.52,45.55l-0.5,0.5l3.536,3.535c0.062,0.062,0.096,0.136,0.138,0.208
		c0.227-0.385,0.191-0.878-0.138-1.208L50.52,45.55z"/>
	<polygon fill="#FFFFFF" points="31.691,23.406 31.691,22.406 19,12.981 19,13.981 	"/>
	<path fill="#FFFFFF" d="M16.451,7H50c0.268,0,0.52,0.105,0.709,0.295c0.189,0.193,0.292,0.44,0.289,0.712v-1
		c0.003-0.272-0.1-0.519-0.289-0.712C50.52,6.105,50.268,6,50,6H16.451c-0.552,0-1,0.449-1,1v1C15.451,7.449,15.899,7,16.451,7z"/>
</g>
</svg>
