<?xml version="1.0" encoding="utf-8"?>
<!-- Generator: Adobe Illustrator 15.0.0, SVG Export Plug-In  -->
<!DOCTYPE svg PUBLIC "-//W3C//DTD SVG 1.1//EN" "http://www.w3.org/Graphics/SVG/1.1/DTD/svg11.dtd" [
	<!ENTITY ns_flows "http://ns.adobe.com/Flows/1.0/">
]>
<svg version="1.1"
	 xmlns="http://www.w3.org/2000/svg" xmlns:xlink="http://www.w3.org/1999/xlink" xmlns:a="http://ns.adobe.com/AdobeSVGViewerExtensions/3.0/"
	 x="0px" y="0px" width="67px" height="57px" viewBox="0 0 67 57" enable-background="new 0 0 67 57" xml:space="preserve">
<defs>
</defs>
<rect id="BOUNDING_BOX_1_" fill="none" width="67" height="57"/>
<path opacity="0.3" d="M48.5,12.5h-30c-1.1,0-2,0.9-2,2v30c0,1.1,0.9,2,2,2h30c1.1,0,2-0.9,2-2v-30C50.5,13.4,49.6,12.5,48.5,12.5z
	 M44,36.5H23c-0.825,0-1.5-0.675-1.5-1.5s0.675-1.5,1.5-1.5h21c0.825,0,1.5,0.675,1.5,1.5S44.825,36.5,44,36.5z M44,29.5H23
	c-0.825,0-1.5-0.675-1.5-1.5s0.675-1.5,1.5-1.5h21c0.825,0,1.5,0.675,1.5,1.5S44.825,29.5,44,29.5z M44,22.5H23
	c-0.825,0-1.5-0.675-1.5-1.5s0.675-1.5,1.5-1.5h21c0.825,0,1.5,0.675,1.5,1.5S44.825,22.5,44,22.5z"/>
<path opacity="0.15" d="M18.5,46.5c-1.654,0-3-1.346-3-3v-30c0-1.654,1.346-3,3-3h30c1.654,0,3,1.346,3,3v30c0,1.654-1.346,3-3,3
	H18.5z M23,33.5c-0.271,0-0.5,0.229-0.5,0.5s0.229,0.5,0.5,0.5h21c0.271,0,0.5-0.229,0.5-0.5s-0.229-0.5-0.5-0.5H23z M23,26.5
	c-0.271,0-0.5,0.229-0.5,0.5s0.229,0.5,0.5,0.5h21c0.271,0,0.5-0.229,0.5-0.5s-0.229-0.5-0.5-0.5H23z M23,19.5
	c-0.271,0-0.5,0.229-0.5,0.5s0.229,0.5,0.5,0.5h21c0.271,0,0.5-0.229,0.5-0.5s-0.229-0.5-0.5-0.5H23z"/>
<path opacity="0.15" d="M48.5,11.5h-30c-1.1,0-2,0.9-2,2v30c0,1.1,0.9,2,2,2h30c1.1,0,2-0.9,2-2v-30C50.5,12.4,49.6,11.5,48.5,11.5z
	 M44,35.5H23c-0.825,0-1.5-0.675-1.5-1.5s0.675-1.5,1.5-1.5h21c0.825,0,1.5,0.675,1.5,1.5S44.825,35.5,44,35.5z M44,28.5H23
	c-0.825,0-1.5-0.675-1.5-1.5s0.675-1.5,1.5-1.5h21c0.825,0,1.5,0.675,1.5,1.5S44.825,28.5,44,28.5z M44,21.5H23
	c-0.825,0-1.5-0.675-1.5-1.5s0.675-1.5,1.5-1.5h21c0.825,0,1.5,0.675,1.5,1.5S44.825,21.5,44,21.5z"/>
<linearGradient id="SVGID_1_" gradientUnits="userSpaceOnUse" x1="33.5005" y1="45.5" x2="33.5005" y2="11.5005">
	<stop  offset="0" style="stop-color:#D0CBC5"/>
	<stop  offset="0.5031" style="stop-color:#FAFCEF"/>
	<stop  offset="0.9693" style="stop-color:#FFFFFF"/>
</linearGradient>
<path fill="url(#SVGID_1_)" d="M48.5,11.5h-30c-1.1,0-2,0.9-2,2v30c0,1.1,0.9,2,2,2h30c1.1,0,2-0.9,2-2v-30
	C50.5,12.4,49.6,11.5,48.5,11.5z M44,35.5H23c-0.825,0-1.5-0.675-1.5-1.5s0.675-1.5,1.5-1.5h21c0.825,0,1.5,0.675,1.5,1.5
	S44.825,35.5,44,35.5z M44,28.5H23c-0.825,0-1.5-0.675-1.5-1.5s0.675-1.5,1.5-1.5h21c0.825,0,1.5,0.675,1.5,1.5S44.825,28.5,44,28.5
	z M44,21.5H23c-0.825,0-1.5-0.675-1.5-1.5s0.675-1.5,1.5-1.5h21c0.825,0,1.5,0.675,1.5,1.5S44.825,21.5,44,21.5z"/>
<path fill="#FFFFFF" d="M23,29.5h21c0.825,0,1.5-0.675,1.5-1.5c0-0.176-0.036-0.343-0.093-0.5c-0.208,0.58-0.758,1-1.407,1H23
	c-0.649,0-1.2-0.42-1.407-1C21.536,27.657,21.5,27.824,21.5,28C21.5,28.825,22.175,29.5,23,29.5z"/>
<path fill="#FFFFFF" d="M23,22.5h21c0.825,0,1.5-0.675,1.5-1.5c0-0.176-0.036-0.343-0.093-0.5c-0.208,0.58-0.758,1-1.407,1H23
	c-0.649,0-1.2-0.42-1.407-1C21.536,20.657,21.5,20.824,21.5,21C21.5,21.825,22.175,22.5,23,22.5z"/>
<path fill="#FFFFFF" d="M23,36.5h21c0.825,0,1.5-0.675,1.5-1.5c0-0.176-0.036-0.343-0.093-0.5c-0.208,0.58-0.758,1-1.407,1H23
	c-0.649,0-1.2-0.42-1.407-1C21.536,34.657,21.5,34.824,21.5,35C21.5,35.825,22.175,36.5,23,36.5z"/>
<path fill="#FFFFFF" d="M48.5,11.5h-30c-1.1,0-2,0.9-2,2v1c0-1.1,0.9-2,2-2h30c1.1,0,2,0.9,2,2v-1C50.5,12.4,49.6,11.5,48.5,11.5z"
	/>
</svg>
