<?xml version="1.0" encoding="utf-8"?>
<!-- Generator: Adobe Illustrator 15.0.0, SVG Export Plug-In . SVG Version: 6.00 Build 0)  -->
<!DOCTYPE svg PUBLIC "-//W3C//DTD SVG 1.1//EN" "http://www.w3.org/Graphics/SVG/1.1/DTD/svg11.dtd">
<svg version="1.1" xmlns="http://www.w3.org/2000/svg" xmlns:xlink="http://www.w3.org/1999/xlink" x="0px" y="0px" width="67px"
	 height="57px" viewBox="0 0 67 57" enable-background="new 0 0 67 57" xml:space="preserve">
<g id="DO_NOT_EDIT_-_BOUNDING_BOX">
	<rect id="BOUNDING_BOX" fill="none" width="67" height="57"/>
</g>
<g id="PLACE_YOUR_GRAPHIC_HERE">
	<path opacity="0.3" d="M23.028,10.087c-0.539-0.687-1.336-1.074-2.193-1.074c-0.608,0-1.188,0.195-1.676,0.561
		c-1.225,0.966-1.439,2.705-0.511,3.897l1.93,2.492c0.528,0.678,1.32,1.065,2.182,1.065c0.15,0,0.302-0.016,0.452-0.041
		c0.418-0.059,0.837-0.235,1.22-0.517c1.223-0.944,1.447-2.678,0.531-3.888L23.028,10.087z M35.892,18.705
		c0.148,0,0.291-0.013,0.437-0.034c0.488-0.083,0.919-0.275,1.266-0.557l2.477-1.913c0.594-0.461,0.969-1.124,1.055-1.863
		c0.084-0.733-0.123-1.455-0.581-2.027c-0.492-0.653-1.316-1.062-2.174-1.062c-0.606,0-1.21,0.208-1.689,0.582l-2.495,1.922
		c-1.197,0.935-1.412,2.671-0.494,3.872C34.207,18.299,35.03,18.705,35.892,18.705z M21.078,24.614
		c-0.611,0-1.195,0.202-1.682,0.576l-2.49,1.934c-1.197,0.917-1.426,2.653-0.513,3.866c0.565,0.703,1.361,1.087,2.213,1.087
		c0.146,0,0.29-0.013,0.435-0.034c0.487-0.087,0.924-0.282,1.278-0.576l2.458-1.891c0.59-0.462,0.963-1.114,1.056-1.849
		c0.09-0.733-0.108-1.458-0.562-2.039C22.729,25.004,21.932,24.614,21.078,24.614z M29.319,15.124
		c0.118,0.019,0.24,0.028,0.362,0.028c0.15,0,0.297-0.012,0.452-0.04c1.187-0.189,2.132-1.17,2.279-2.38l0.399-3.111
		c0.099-0.721-0.093-1.452-0.545-2.04c-0.452-0.588-1.111-0.965-1.853-1.055C30.303,6.509,30.183,6.5,30.063,6.5
		c-1.38,0-2.559,1.034-2.738,2.405l-0.398,3.12C26.741,13.542,27.814,14.929,29.319,15.124z M19.2,23.243
		c0.166,0,0.328-0.012,0.486-0.043c1.152-0.188,2.093-1.157,2.261-2.352c0.098-0.743-0.093-1.464-0.542-2.052
		c-0.452-0.588-1.11-0.966-1.848-1.062l-3.12-0.402c-0.116-0.016-0.233-0.021-0.351-0.021c-1.384,0-2.56,1.04-2.738,2.414
		c-0.093,0.734,0.102,1.458,0.554,2.043c0.452,0.582,1.105,0.957,1.835,1.053l3.12,0.402C18.998,23.236,19.101,23.243,19.2,23.243z
		 M53.377,47.504l-8.156-10.61l5.667-3.281c0.449-0.26,0.722-0.737,0.719-1.254s-0.278-0.993-0.73-1.247L27.682,17.975
		c-0.225-0.127-0.469-0.189-0.712-0.189c-0.313,0-0.625,0.102-0.881,0.303c-0.459,0.353-0.662,0.95-0.512,1.511l6.839,25.756
		c0.133,0.499,0.524,0.889,1.023,1.021c0.122,0.034,0.249,0.05,0.373,0.05c0.38,0,0.752-0.148,1.024-0.427l4.627-4.671l8.156,10.607
		c0.232,0.307,0.576,0.502,0.957,0.551c0.062,0.007,0.124,0.013,0.186,0.013c0.318,0,0.628-0.103,0.882-0.3l3.467-2.675
		C53.742,49.039,53.859,48.139,53.377,47.504z"/>
	<path opacity="0.15" d="M48.762,52.5c-0.098,0-0.198-0.008-0.296-0.019c-0.671-0.086-1.248-0.419-1.644-0.94l-7.454-9.695
		l-3.822,3.858c-0.448,0.458-1.082,0.723-1.734,0.723c-0.22,0-0.437-0.029-0.642-0.087c-0.832-0.222-1.496-0.885-1.72-1.728
		L24.61,18.856c-0.255-0.953,0.086-1.959,0.869-2.561c0.415-0.326,0.947-0.51,1.49-0.51c0.419,0,0.835,0.11,1.204,0.318
		l23.195,13.137c0.757,0.425,1.232,1.235,1.237,2.111c0.005,0.874-0.462,1.688-1.218,2.125l-4.681,2.71l7.462,9.707
		c0.815,1.072,0.612,2.606-0.449,3.423l-3.466,2.675C49.834,52.318,49.303,52.5,48.762,52.5z M18.606,32.077
		c-1.156,0-2.247-0.532-2.993-1.461c-1.262-1.676-0.947-4.036,0.684-5.286l2.485-1.93c0.074-0.058,0.15-0.112,0.228-0.163
		c-0.078-0.004-0.162-0.011-0.26-0.022l-3.14-0.405c-0.997-0.131-1.883-0.64-2.498-1.431c-0.614-0.795-0.883-1.782-0.756-2.782
		c0.243-1.876,1.846-3.289,3.73-3.289c0.163,0,0.325,0.009,0.485,0.03l3.114,0.402c0.094,0.012,0.188,0.028,0.28,0.047
		c-0.062-0.068-0.121-0.138-0.177-0.211l-1.931-2.494c-1.265-1.624-0.96-4,0.682-5.294c0.683-0.513,1.47-0.775,2.295-0.775
		c1.168,0,2.254,0.531,2.98,1.457l1.938,2.5c0.056,0.074,0.108,0.149,0.158,0.225c0.004-0.097,0.013-0.194,0.024-0.292l0.398-3.124
		c0.245-1.871,1.848-3.279,3.73-3.279c0.167,0,0.334,0.013,0.49,0.035c0.991,0.12,1.888,0.631,2.506,1.436
		c0.616,0.801,0.879,1.791,0.743,2.786l-0.398,3.102c-0.011,0.096-0.027,0.19-0.045,0.284c0.067-0.062,0.138-0.121,0.211-0.178
		l2.5-1.926c0.65-0.508,1.469-0.79,2.3-0.79c1.173,0,2.283,0.546,2.973,1.46c0.608,0.76,0.891,1.742,0.775,2.743
		c-0.117,1.011-0.627,1.912-1.435,2.54l-2.479,1.915c-0.461,0.375-1.059,0.64-1.708,0.751c-0.217,0.032-0.407,0.048-0.605,0.048
		c-1.17,0-2.29-0.551-2.995-1.474c-0.688-0.9-0.907-2.02-0.694-3.056c-0.524,0.477-1.183,0.807-1.912,0.923
		c-0.196,0.035-0.401,0.052-0.609,0.052c-0.174,0-0.35-0.014-0.518-0.04c-1.122-0.145-2.071-0.792-2.65-1.69
		c-0.048,1.08-0.553,2.132-1.47,2.84c-0.53,0.391-1.109,0.634-1.692,0.715c-0.18,0.03-0.386,0.05-0.591,0.05
		c-0.257,0-0.51-0.025-0.755-0.075c0.067,0.075,0.132,0.153,0.194,0.233c0.609,0.799,0.872,1.79,0.74,2.792
		c-0.155,1.1-0.782,2.055-1.661,2.642c1.085,0.057,2.088,0.578,2.776,1.449c0.621,0.795,0.893,1.781,0.771,2.781
		c-0.126,0.999-0.634,1.89-1.432,2.514l-2.464,1.896c-0.455,0.377-1.056,0.65-1.712,0.768C18.993,32.061,18.8,32.077,18.606,32.077z
		"/>
	<path opacity="0.15" d="M23.028,9.087c-0.539-0.687-1.336-1.074-2.193-1.074c-0.608,0-1.188,0.195-1.676,0.561
		c-1.225,0.966-1.439,2.705-0.511,3.897l1.93,2.492c0.528,0.678,1.32,1.065,2.182,1.065c0.15,0,0.302-0.016,0.452-0.041
		c0.418-0.059,0.837-0.235,1.22-0.517c1.223-0.944,1.447-2.678,0.531-3.888L23.028,9.087z M35.892,17.705
		c0.148,0,0.291-0.013,0.437-0.034c0.488-0.083,0.919-0.275,1.266-0.557l2.477-1.913c0.594-0.461,0.969-1.124,1.055-1.863
		c0.084-0.733-0.123-1.455-0.581-2.027c-0.492-0.653-1.316-1.062-2.174-1.062c-0.606,0-1.21,0.208-1.689,0.582l-2.495,1.922
		c-1.197,0.935-1.412,2.671-0.494,3.872C34.207,17.299,35.03,17.705,35.892,17.705z M21.078,23.614
		c-0.611,0-1.195,0.202-1.682,0.576l-2.49,1.934c-1.197,0.917-1.426,2.653-0.513,3.866c0.565,0.703,1.361,1.087,2.213,1.087
		c0.146,0,0.29-0.013,0.435-0.034c0.487-0.087,0.924-0.282,1.278-0.576l2.458-1.891c0.59-0.462,0.963-1.114,1.056-1.849
		c0.09-0.733-0.108-1.458-0.562-2.039C22.729,24.004,21.932,23.614,21.078,23.614z M29.319,14.124
		c0.118,0.019,0.24,0.028,0.362,0.028c0.15,0,0.297-0.012,0.452-0.04c1.187-0.189,2.132-1.17,2.279-2.38l0.399-3.111
		c0.099-0.721-0.093-1.452-0.545-2.04c-0.452-0.588-1.111-0.965-1.853-1.055C30.303,5.509,30.183,5.5,30.063,5.5
		c-1.38,0-2.559,1.034-2.738,2.405l-0.398,3.12C26.741,12.542,27.814,13.929,29.319,14.124z M19.2,22.243
		c0.166,0,0.328-0.012,0.486-0.043c1.152-0.188,2.093-1.157,2.261-2.352c0.098-0.743-0.093-1.464-0.542-2.052
		c-0.452-0.588-1.11-0.966-1.848-1.062l-3.12-0.402c-0.116-0.016-0.233-0.021-0.351-0.021c-1.384,0-2.56,1.04-2.738,2.414
		c-0.093,0.734,0.102,1.458,0.554,2.043c0.452,0.582,1.105,0.957,1.835,1.053l3.12,0.402C18.998,22.236,19.101,22.243,19.2,22.243z
		 M53.377,46.504l-8.156-10.61l5.667-3.281c0.449-0.26,0.722-0.737,0.719-1.254s-0.278-0.993-0.73-1.247L27.682,16.975
		c-0.225-0.127-0.469-0.189-0.712-0.189c-0.313,0-0.625,0.102-0.881,0.303c-0.459,0.353-0.662,0.95-0.512,1.511l6.839,25.756
		c0.133,0.499,0.524,0.889,1.023,1.021c0.122,0.034,0.249,0.05,0.373,0.05c0.38,0,0.752-0.148,1.024-0.427l4.627-4.671l8.156,10.607
		c0.232,0.307,0.576,0.502,0.957,0.551c0.062,0.007,0.124,0.013,0.186,0.013c0.318,0,0.628-0.103,0.882-0.3l3.467-2.675
		C53.742,48.039,53.859,47.139,53.377,46.504z"/>
	<linearGradient id="SVGID_1_" gradientUnits="userSpaceOnUse" x1="33.5005" y1="51.5" x2="33.5005" y2="5.5005">
		<stop  offset="0" style="stop-color:#D0CBC5"/>
		<stop  offset="0.5031" style="stop-color:#FAFCEF"/>
		<stop  offset="0.9693" style="stop-color:#FFFFFF"/>
	</linearGradient>
	<path fill="url(#SVGID_1_)" d="M23.028,9.087c-0.539-0.687-1.336-1.074-2.193-1.074c-0.608,0-1.188,0.195-1.676,0.561
		c-1.225,0.966-1.439,2.705-0.511,3.897l1.93,2.492c0.528,0.678,1.32,1.065,2.182,1.065c0.15,0,0.302-0.016,0.452-0.041
		c0.418-0.059,0.837-0.235,1.22-0.517c1.223-0.944,1.447-2.678,0.531-3.888L23.028,9.087z M35.892,17.705
		c0.148,0,0.291-0.013,0.437-0.034c0.488-0.083,0.919-0.275,1.266-0.557l2.477-1.913c0.594-0.461,0.969-1.124,1.055-1.863
		c0.084-0.733-0.123-1.455-0.581-2.027c-0.492-0.653-1.316-1.062-2.174-1.062c-0.606,0-1.21,0.208-1.689,0.582l-2.495,1.922
		c-1.197,0.935-1.412,2.671-0.494,3.872C34.207,17.299,35.03,17.705,35.892,17.705z M21.078,23.614
		c-0.611,0-1.195,0.202-1.682,0.576l-2.49,1.934c-1.197,0.917-1.426,2.653-0.513,3.866c0.565,0.703,1.361,1.087,2.213,1.087
		c0.146,0,0.29-0.013,0.435-0.034c0.487-0.087,0.924-0.282,1.278-0.576l2.458-1.891c0.59-0.462,0.963-1.114,1.056-1.849
		c0.09-0.733-0.108-1.458-0.562-2.039C22.729,24.004,21.932,23.614,21.078,23.614z M29.319,14.124
		c0.118,0.019,0.24,0.028,0.362,0.028c0.15,0,0.297-0.012,0.452-0.04c1.187-0.189,2.132-1.17,2.279-2.38l0.399-3.111
		c0.099-0.721-0.093-1.452-0.545-2.04c-0.452-0.588-1.111-0.965-1.853-1.055C30.303,5.509,30.183,5.5,30.063,5.5
		c-1.38,0-2.559,1.034-2.738,2.405l-0.398,3.12C26.741,12.542,27.814,13.929,29.319,14.124z M19.2,22.243
		c0.166,0,0.328-0.012,0.486-0.043c1.152-0.188,2.093-1.157,2.261-2.352c0.098-0.743-0.093-1.464-0.542-2.052
		c-0.452-0.588-1.11-0.966-1.848-1.062l-3.12-0.402c-0.116-0.016-0.233-0.021-0.351-0.021c-1.384,0-2.56,1.04-2.738,2.414
		c-0.093,0.734,0.102,1.458,0.554,2.043c0.452,0.582,1.105,0.957,1.835,1.053l3.12,0.402C18.998,22.236,19.101,22.243,19.2,22.243z
		 M53.377,46.504l-8.156-10.61l5.667-3.281c0.449-0.26,0.722-0.737,0.719-1.254s-0.278-0.993-0.73-1.247L27.682,16.975
		c-0.225-0.127-0.469-0.189-0.712-0.189c-0.313,0-0.625,0.102-0.881,0.303c-0.459,0.353-0.662,0.95-0.512,1.511l6.839,25.756
		c0.133,0.499,0.524,0.889,1.023,1.021c0.122,0.034,0.249,0.05,0.373,0.05c0.38,0,0.752-0.148,1.024-0.427l4.627-4.671l8.156,10.607
		c0.232,0.307,0.576,0.502,0.957,0.551c0.062,0.007,0.124,0.013,0.186,0.013c0.318,0,0.628-0.103,0.882-0.3l3.467-2.675
		C53.742,48.039,53.859,47.139,53.377,46.504z"/>
	<path fill="#FFFFFF" d="M25.577,18.6c-0.15-0.561,0.053-1.158,0.512-1.511c0.255-0.201,0.568-0.303,0.881-0.303
		c0.243,0,0.487,0.062,0.712,0.189l23.194,13.137c0.452,0.254,0.728,0.73,0.73,1.247c0.001,0.178-0.041,0.346-0.101,0.506
		c-0.116-0.312-0.329-0.584-0.63-0.753L27.682,17.975c-0.225-0.127-0.469-0.189-0.712-0.189c-0.313,0-0.625,0.102-0.881,0.303
		c-0.223,0.171-0.383,0.401-0.474,0.656L25.577,18.6z M34.186,13.752l2.495-1.922c0.479-0.375,1.083-0.582,1.689-0.582
		c0.857,0,1.682,0.409,2.174,1.062c0.285,0.356,0.46,0.773,0.541,1.211c0.012-0.062,0.032-0.121,0.04-0.184
		c0.084-0.733-0.123-1.455-0.581-2.027c-0.492-0.653-1.316-1.062-2.174-1.062c-0.606,0-1.21,0.208-1.689,0.582l-2.495,1.922
		c-0.838,0.655-1.183,1.702-1.006,2.684C33.298,14.792,33.631,14.185,34.186,13.752z M45.221,36.894l8.156,10.61
		c0.088,0.115,0.133,0.245,0.182,0.373c0.167-0.448,0.131-0.963-0.182-1.373l-7.624-9.918L45.221,36.894z M27.326,8.905
		C27.505,7.534,28.683,6.5,30.063,6.5c0.119,0,0.24,0.009,0.351,0.025c0.742,0.09,1.401,0.467,1.853,1.055
		c0.281,0.366,0.448,0.788,0.521,1.227l0.024-0.187c0.099-0.721-0.093-1.452-0.545-2.04c-0.452-0.588-1.111-0.965-1.853-1.055
		C30.303,5.509,30.183,5.5,30.063,5.5c-1.38,0-2.559,1.034-2.738,2.405l-0.398,3.12c-0.033,0.269-0.014,0.53,0.027,0.785
		L27.326,8.905z M23.028,9.087c-0.539-0.687-1.336-1.074-2.193-1.074c-0.608,0-1.188,0.195-1.676,0.561
		c-0.858,0.677-1.208,1.731-1.029,2.713c0.12-0.649,0.461-1.265,1.029-1.713c0.487-0.365,1.068-0.561,1.676-0.561
		c0.857,0,1.655,0.387,2.193,1.074l1.935,2.495c0.271,0.358,0.43,0.763,0.505,1.178c0.137-0.743-0.018-1.534-0.505-2.178
		L23.028,9.087z M21.078,23.614c-0.611,0-1.195,0.202-1.682,0.576l-2.49,1.934c-0.842,0.646-1.193,1.696-1.016,2.685
		c0.119-0.648,0.458-1.257,1.016-1.685l2.49-1.934c0.487-0.375,1.071-0.576,1.682-0.576c0.854,0,1.651,0.39,2.193,1.075
		c0.277,0.355,0.447,0.768,0.525,1.2c0.01-0.054,0.03-0.105,0.037-0.161c0.09-0.733-0.108-1.458-0.562-2.039
		C22.729,24.004,21.932,23.614,21.078,23.614z M16.086,17.309c0.118,0,0.235,0.006,0.351,0.021l3.12,0.402
		c0.738,0.096,1.396,0.474,1.848,1.062c0.271,0.354,0.435,0.761,0.511,1.188c0.009-0.046,0.024-0.089,0.03-0.136
		c0.098-0.743-0.093-1.464-0.542-2.052c-0.452-0.588-1.11-0.966-1.848-1.062l-3.12-0.402c-0.116-0.016-0.233-0.021-0.351-0.021
		c-1.384,0-2.56,1.04-2.738,2.414c-0.036,0.288-0.016,0.571,0.034,0.848C13.626,18.275,14.756,17.309,16.086,17.309z"/>
</g>
<g id="DO_NOT_EDIT_-_FOCAL_ZONE_GUIDES">
</g>
</svg>
