<?xml version="1.0" encoding="utf-8"?>
<!-- Generator: Adobe Illustrator 15.0.0, SVG Export Plug-In  -->
<!DOCTYPE svg PUBLIC "-//W3C//DTD SVG 1.1//EN" "http://www.w3.org/Graphics/SVG/1.1/DTD/svg11.dtd" [
	<!ENTITY ns_flows "http://ns.adobe.com/Flows/1.0/">
]>
<svg version="1.1"
	 xmlns="http://www.w3.org/2000/svg" xmlns:xlink="http://www.w3.org/1999/xlink" xmlns:a="http://ns.adobe.com/AdobeSVGViewerExtensions/3.0/"
	 x="0px" y="0px" width="67px" height="57px" viewBox="0 0 67 57" enable-background="new 0 0 67 57" xml:space="preserve">
<defs>
</defs>
<rect id="BOUNDING_BOX_1_" fill="none" width="67" height="57"/>
<path opacity="0.3" d="M15,19.5h37c1.925,0,3.5-1.576,3.5-3.5c0-1.926-1.575-3.5-3.5-3.5H15c-1.925,0-3.5,1.574-3.5,3.5
	C11.5,17.924,13.075,19.5,15,19.5z M52,38.5H15c-1.925,0-3.5,1.574-3.5,3.5c0,1.924,1.575,3.5,3.5,3.5h37c1.925,0,3.5-1.576,3.5-3.5
	C55.5,40.074,53.925,38.5,52,38.5z M52,25.5H15c-1.925,0-3.5,1.574-3.5,3.5c0,1.924,1.575,3.5,3.5,3.5h37c1.925,0,3.5-1.576,3.5-3.5
	C55.5,27.074,53.925,25.5,52,25.5z"/>
<path opacity="0.15" d="M15,45.5c-2.481,0-4.5-2.019-4.5-4.5s2.019-4.5,4.5-4.5h37c2.481,0,4.5,2.019,4.5,4.5s-2.019,4.5-4.5,4.5H15
	z M15,32.5c-2.481,0-4.5-2.019-4.5-4.5s2.019-4.5,4.5-4.5h37c2.481,0,4.5,2.019,4.5,4.5s-2.019,4.5-4.5,4.5H15z M15,19.5
	c-2.481,0-4.5-2.019-4.5-4.5s2.019-4.5,4.5-4.5h37c2.481,0,4.5,2.019,4.5,4.5s-2.019,4.5-4.5,4.5H15z"/>
<path opacity="0.15" d="M15,18.5h37c1.925,0,3.5-1.576,3.5-3.5c0-1.926-1.575-3.5-3.5-3.5H15c-1.925,0-3.5,1.574-3.5,3.5
	C11.5,16.924,13.075,18.5,15,18.5z M52,37.5H15c-1.925,0-3.5,1.574-3.5,3.5c0,1.924,1.575,3.5,3.5,3.5h37c1.925,0,3.5-1.576,3.5-3.5
	C55.5,39.074,53.925,37.5,52,37.5z M52,24.5H15c-1.925,0-3.5,1.574-3.5,3.5c0,1.924,1.575,3.5,3.5,3.5h37c1.925,0,3.5-1.576,3.5-3.5
	C55.5,26.074,53.925,24.5,52,24.5z"/>
<linearGradient id="SVGID_1_" gradientUnits="userSpaceOnUse" x1="33.5005" y1="44.5" x2="33.5005" y2="11.5005">
	<stop  offset="0" style="stop-color:#D0CBC5"/>
	<stop  offset="0.5031" style="stop-color:#FAFCEF"/>
	<stop  offset="0.9693" style="stop-color:#FFFFFF"/>
</linearGradient>
<path fill="url(#SVGID_1_)" d="M15,18.5h37c1.925,0,3.5-1.576,3.5-3.5c0-1.926-1.575-3.5-3.5-3.5H15c-1.925,0-3.5,1.574-3.5,3.5
	C11.5,16.924,13.075,18.5,15,18.5z M52,37.5H15c-1.925,0-3.5,1.574-3.5,3.5c0,1.924,1.575,3.5,3.5,3.5h37c1.925,0,3.5-1.576,3.5-3.5
	C55.5,39.074,53.925,37.5,52,37.5z M52,24.5H15c-1.925,0-3.5,1.574-3.5,3.5c0,1.924,1.575,3.5,3.5,3.5h37c1.925,0,3.5-1.576,3.5-3.5
	C55.5,26.074,53.925,24.5,52,24.5z"/>
<path fill="#FFFFFF" d="M52,37.5H15c-1.925,0-3.5,1.574-3.5,3.5c0,0.171,0.027,0.335,0.051,0.5c0.247-1.689,1.695-3,3.449-3h37
	c1.754,0,3.203,1.311,3.449,3c0.024-0.165,0.051-0.329,0.051-0.5C55.5,39.074,53.925,37.5,52,37.5z"/>
<path fill="#FFFFFF" d="M15,12.5h37c1.754,0,3.203,1.311,3.449,3c0.024-0.165,0.051-0.329,0.051-0.5c0-1.926-1.575-3.5-3.5-3.5H15
	c-1.925,0-3.5,1.574-3.5,3.5c0,0.171,0.027,0.335,0.051,0.5C11.797,13.811,13.246,12.5,15,12.5z"/>
<path fill="#FFFFFF" d="M52,24.5H15c-1.925,0-3.5,1.574-3.5,3.5c0,0.171,0.027,0.335,0.051,0.5c0.247-1.689,1.695-3,3.449-3h37
	c1.754,0,3.203,1.311,3.449,3c0.024-0.165,0.051-0.329,0.051-0.5C55.5,26.074,53.925,24.5,52,24.5z"/>
</svg>
