<?xml version="1.0" encoding="utf-8"?>
<!-- Generator: Adobe Illustrator 14.0.0, SVG Export Plug-In  -->
<!DOCTYPE svg PUBLIC "-//W3C//DTD SVG 1.1//EN" "http://www.w3.org/Graphics/SVG/1.1/DTD/svg11.dtd" [
	<!ENTITY ns_flows "http://ns.adobe.com/Flows/1.0/">
]>
<svg version="1.1"
	 xmlns="http://www.w3.org/2000/svg" xmlns:xlink="http://www.w3.org/1999/xlink" xmlns:a="http://ns.adobe.com/AdobeSVGViewerExtensions/3.0/"
	 x="0px" y="0px" width="67px" height="57px" viewBox="0 0 67 57" enable-background="new 0 0 67 57" xml:space="preserve">
<defs>
</defs>
<rect fill="none" width="67" height="57"/>
<path opacity="0.15" d="M29,52c-1.654,0-3-1.346-3-3V33h-9c-0.365,0-0.702-0.199-0.877-0.52c-0.176-0.321-0.162-0.712,0.035-1.02
	l16-25C32.342,6.174,32.659,6,33,6s0.658,0.174,0.842,0.461l16,25c0.197,0.308,0.211,0.698,0.035,1.02
	C49.702,32.801,49.365,33,49,33h-9v16c0,1.654-1.346,3-3,3H29z"/>
<path opacity="0.3" d="M33,8L17,33h10v17c0,1.1,0.9,2,2,2h8c1.1,0,2-0.9,2-2V33h10L33,8z"/>
<linearGradient id="SVGID_1_" gradientUnits="userSpaceOnUse" x1="33.0005" y1="51" x2="33.0005" y2="7.0005">
	<stop  offset="0" style="stop-color:#D0CBC5"/>
	<stop  offset="0.5031" style="stop-color:#FAFCEF"/>
	<stop  offset="0.9693" style="stop-color:#FFFFFF"/>
</linearGradient>
<path fill="url(#SVGID_1_)" d="M33,7L17,32h10v17c0,1.1,0.9,2,2,2h8c1.1,0,2-0.9,2-2V32h10L33,7z"/>
<polygon fill="#FFFFFF" points="33,8 48.36,32 49,32 33,7 17,32 17.64,32 "/>
</svg>
