<?xml version="1.0" encoding="utf-8"?>
<!-- Generator: Adobe Illustrator 15.0.0, SVG Export Plug-In . SVG Version: 6.00 Build 0)  -->
<!DOCTYPE svg PUBLIC "-//W3C//DTD SVG 1.1//EN" "http://www.w3.org/Graphics/SVG/1.1/DTD/svg11.dtd">
<svg version="1.1" xmlns="http://www.w3.org/2000/svg" xmlns:xlink="http://www.w3.org/1999/xlink" x="0px" y="0px" width="67px"
	 height="57px" viewBox="0 0 67 57" enable-background="new 0 0 67 57" xml:space="preserve">
<g id="DO_NOT_EDIT_-_BOUNDING_BOX">
	<rect id="BOUNDING_BOX" fill="none" width="67" height="57"/>
</g>
<g id="PLACE_YOUR_GRAPHIC_HERE">
	<path opacity="0.3" d="M22.815,22.133c0.492,0,0.892-0.31,1.017-0.785l0.025-0.097c0.251-0.972,1.013-3.926,2.557-6.622
		c1.596-2.782,3.849-5.973,7.086-6.003c3.247,0.037,5.493,3.228,7.087,6.003c1.534,2.679,2.3,5.633,2.553,6.605l0.03,0.11
		c0.119,0.476,0.516,0.782,1.011,0.782c0.347,0,0.673-0.156,0.876-0.416c0.192-0.25,0.253-0.569,0.166-0.898
		C42.464,10.26,37.359,6.5,33.5,6.5c-1.331,0-8.162,0.689-11.72,14.309c-0.09,0.333-0.029,0.655,0.163,0.908
		C22.144,21.977,22.468,22.133,22.815,22.133z M50.214,16.486h-4.259c0.437,1.175,0.842,2.441,1.202,3.82
		c0.244,0.922,0.057,1.881-0.516,2.624c-0.591,0.754-1.507,1.196-2.461,1.196c-1.421,0-2.606-0.922-2.951-2.296l-0.018-0.064
		c-0.218-0.836-0.806-3.087-1.901-5.28H27.69c-1.105,2.209-1.688,4.459-1.896,5.26c0,0-0.028,0.11-0.029,0.11
		c-0.358,1.362-1.543,2.277-2.951,2.277c-0.961,0-1.879-0.447-2.456-1.195c-0.578-0.759-0.761-1.722-0.51-2.65
		c0.362-1.385,0.76-2.648,1.185-3.801h-4.249L15.881,52.5h35.238L50.214,16.486z"/>
	<path opacity="0.15" d="M51.214,15.461c-0.014-0.542-0.457-0.975-1-0.975h-5.727C41.425,7.228,37.008,4.5,33.5,4.5
		c-1.265,0-7.041,0.55-10.997,9.986h-5.717c-0.542,0-0.986,0.433-1,0.975l-0.905,36.014c-0.007,0.27,0.095,0.53,0.284,0.724
		c0.188,0.193,0.446,0.302,0.716,0.302h35.238c0.27,0,0.527-0.108,0.716-0.302s0.291-0.454,0.284-0.724L51.214,15.461z
		 M27.282,14.127c1.461-2.548,3.489-5.476,6.207-5.5c2.741,0.031,4.77,2.956,6.23,5.5c0.068,0.118,0.126,0.24,0.188,0.359H27.089
		C27.153,14.366,27.214,14.246,27.282,14.127z"/>
	<path opacity="0.15" d="M22.815,21.133c0.492,0,0.892-0.31,1.017-0.785l0.025-0.097c0.251-0.972,1.013-3.926,2.557-6.622
		c1.596-2.782,3.849-5.973,7.086-6.003c3.247,0.037,5.493,3.228,7.087,6.003c1.534,2.679,2.3,5.633,2.553,6.605l0.03,0.11
		c0.119,0.476,0.516,0.782,1.011,0.782c0.347,0,0.673-0.156,0.876-0.416c0.192-0.25,0.253-0.569,0.166-0.898
		C42.464,9.26,37.359,5.5,33.5,5.5c-1.331,0-8.162,0.689-11.72,14.309c-0.09,0.333-0.029,0.655,0.163,0.908
		C22.144,20.977,22.468,21.133,22.815,21.133z M50.214,15.486h-4.259c0.437,1.175,0.842,2.441,1.202,3.82
		c0.244,0.922,0.057,1.881-0.516,2.624c-0.591,0.754-1.507,1.196-2.461,1.196c-1.421,0-2.606-0.922-2.951-2.296l-0.018-0.064
		c-0.218-0.836-0.806-3.087-1.901-5.28H27.69c-1.105,2.209-1.688,4.459-1.896,5.26c0,0-0.028,0.11-0.029,0.11
		c-0.358,1.362-1.543,2.277-2.951,2.277c-0.961,0-1.879-0.447-2.456-1.195c-0.578-0.759-0.761-1.722-0.51-2.65
		c0.362-1.385,0.76-2.648,1.185-3.801h-4.249L15.881,51.5h35.238L50.214,15.486z"/>
	<linearGradient id="SVGID_1_" gradientUnits="userSpaceOnUse" x1="33.5005" y1="51.5" x2="33.5005" y2="5.5005">
		<stop  offset="0" style="stop-color:#D0CBC5"/>
		<stop  offset="0.5031" style="stop-color:#FAFCEF"/>
		<stop  offset="0.9693" style="stop-color:#FFFFFF"/>
	</linearGradient>
	<path fill="url(#SVGID_1_)" d="M22.815,21.133c0.492,0,0.892-0.31,1.017-0.785l0.025-0.097c0.251-0.972,1.013-3.926,2.557-6.622
		c1.596-2.782,3.849-5.973,7.086-6.003c3.247,0.037,5.493,3.228,7.087,6.003c1.534,2.679,2.3,5.633,2.553,6.605l0.03,0.11
		c0.119,0.476,0.516,0.782,1.011,0.782c0.347,0,0.673-0.156,0.876-0.416c0.192-0.25,0.253-0.569,0.166-0.898
		C42.464,9.26,37.359,5.5,33.5,5.5c-1.331,0-8.162,0.689-11.72,14.309c-0.09,0.333-0.029,0.655,0.163,0.908
		C22.144,20.977,22.468,21.133,22.815,21.133z M50.214,15.486h-4.259c0.437,1.175,0.842,2.441,1.202,3.82
		c0.244,0.922,0.057,1.881-0.516,2.624c-0.591,0.754-1.507,1.196-2.461,1.196c-1.421,0-2.606-0.922-2.951-2.296l-0.018-0.064
		c-0.218-0.836-0.806-3.087-1.901-5.28H27.69c-1.105,2.209-1.688,4.459-1.896,5.26c0,0-0.028,0.11-0.029,0.11
		c-0.358,1.362-1.543,2.277-2.951,2.277c-0.961,0-1.879-0.447-2.456-1.195c-0.578-0.759-0.761-1.722-0.51-2.65
		c0.362-1.385,0.76-2.648,1.185-3.801h-4.249L15.881,51.5h35.238L50.214,15.486z"/>
	<path fill="#FFFFFF" d="M19.792,20.659c0.085,0.458,0.274,0.895,0.567,1.279c0.577,0.749,1.495,1.195,2.456,1.195
		c1.407,0,2.593-0.915,2.951-2.277c0,0,0.029-0.109,0.029-0.11c0.207-0.801,0.791-3.051,1.896-5.26h11.62
		c1.096,2.193,1.684,4.444,1.901,5.28l0.018,0.064c0.345,1.374,1.53,2.296,2.951,2.296c0.954,0,1.87-0.442,2.461-1.196
		c0.293-0.381,0.481-0.819,0.566-1.279c0.121,0.813-0.065,1.628-0.566,2.279c-0.591,0.754-1.507,1.196-2.461,1.196
		c-1.421,0-2.606-0.922-2.951-2.296l-0.018-0.064c-0.218-0.836-0.806-3.087-1.901-5.28H27.69c-1.105,2.209-1.688,4.459-1.896,5.26
		c0,0-0.028,0.11-0.029,0.11c-0.358,1.362-1.543,2.277-2.951,2.277c-0.961,0-1.879-0.447-2.456-1.195
		C19.858,22.279,19.674,21.468,19.792,20.659z M50.214,16.486l0.88,35.014h0.025l-0.905-36.014h-4.259
		c0.119,0.32,0.229,0.666,0.344,1H50.214z M33.5,6.5c3.822,0,8.863,3.699,11.641,14.024c0.103-0.216,0.149-0.456,0.082-0.712
		C42.464,9.26,37.359,5.5,33.5,5.5c-1.331,0-8.162,0.689-11.72,14.309c-0.069,0.257-0.023,0.499,0.079,0.716
		C25.437,7.186,32.179,6.5,33.5,6.5z M16.786,16.486h3.909c0.113-0.335,0.223-0.682,0.34-1h-4.249L15.881,51.5h0.025L16.786,16.486z
		"/>
</g>
<g id="DO_NOT_EDIT_-_FOCAL_ZONE_GUIDES">
</g>
</svg>
