<?xml version="1.0" encoding="utf-8"?>
<!-- Generator: Adobe Illustrator 15.0.0, SVG Export Plug-In . SVG Version: 6.00 Build 0)  -->
<!DOCTYPE svg PUBLIC "-//W3C//DTD SVG 1.1//EN" "http://www.w3.org/Graphics/SVG/1.1/DTD/svg11.dtd">
<svg version="1.1" xmlns="http://www.w3.org/2000/svg" xmlns:xlink="http://www.w3.org/1999/xlink" x="0px" y="0px" width="67px"
	 height="57px" viewBox="0 0 67 57" enable-background="new 0 0 67 57" xml:space="preserve">
<g id="DO_NOT_EDIT_-_BOUNDING_BOX">
	<rect id="BOUNDING_BOX" fill="none" width="67" height="57"/>
</g>
<g id="PLACE_YOUR_GRAPHIC_HERE">
	<path opacity="0.3" d="M50.214,16.484h-4.259c0.437,1.175,0.841,2.442,1.202,3.822c0.244,0.922,0.057,1.881-0.516,2.624
		c-0.595,0.754-1.509,1.194-2.461,1.194c-1.418,0-2.604-0.92-2.95-2.291l-0.018-0.061c-0.217-0.835-0.8-3.085-1.901-5.289h-11.62
		c-1.105,2.209-1.689,4.46-1.896,5.262c0,0-0.028,0.11-0.029,0.11c-0.358,1.362-1.543,2.277-2.951,2.277
		c-0.961,0-1.879-0.447-2.456-1.195c-0.578-0.759-0.761-1.722-0.51-2.65c0.362-1.386,0.76-2.649,1.186-3.803h-4.249L15.881,52.5
		h35.238L50.214,16.484z M40.621,42.346c0.001,1.113-0.942,2.369-2.441,3.095c-1.882,0.91-3.926,0.633-4.565-0.617
		c-0.64-1.249,0.367-3.003,2.248-3.911c1.105-0.534,2.259-0.649,3.157-0.406v-8.642l-7.997,2.113v9.971
		c0,1.113-0.944,2.367-2.44,3.091c-1.883,0.909-3.927,0.633-4.565-0.617c-0.641-1.247,0.366-3.001,2.247-3.913
		c1.105-0.53,2.259-0.646,3.158-0.404V30.54c0-0.441,0.349-0.892,0.773-1.005l9.651-2.552c0.426-0.11,0.774,0.156,0.774,0.595
		V42.346z M22.815,22.133c0.492,0,0.892-0.31,1.017-0.785l0.025-0.097c0.251-0.972,1.013-3.926,2.557-6.622
		c1.596-2.782,3.849-5.975,7.086-6.005c3.246,0.039,5.492,3.228,7.088,6.003c1.534,2.681,2.3,5.635,2.551,6.605l0.031,0.111
		c0.12,0.476,0.517,0.78,1.011,0.78c0.347,0,0.673-0.156,0.876-0.414c0.192-0.25,0.253-0.569,0.166-0.898
		C42.463,10.26,37.36,6.5,33.5,6.5c-1.331,0-8.162,0.689-11.72,14.309c-0.09,0.333-0.029,0.655,0.163,0.908
		C22.144,21.977,22.468,22.133,22.815,22.133z"/>
	<path opacity="0.15" d="M51.214,15.459c-0.014-0.542-0.457-0.975-1-0.975h-5.728C41.424,7.228,37.008,4.5,33.5,4.5
		c-1.265,0-7.04,0.55-10.996,9.984h-5.718c-0.542,0-0.986,0.433-1,0.975l-0.905,36.015c-0.007,0.27,0.095,0.53,0.284,0.724
		c0.188,0.193,0.446,0.302,0.716,0.302h35.238c0.27,0,0.527-0.108,0.716-0.302s0.291-0.454,0.284-0.724L51.214,15.459z
		 M33.488,8.625c2.739,0.033,4.77,2.957,6.231,5.5c0.068,0.119,0.127,0.24,0.191,0.36H27.09c0.065-0.119,0.124-0.239,0.192-0.357
		C28.743,11.579,30.772,8.65,33.488,8.625z"/>
	<path opacity="0.15" d="M50.214,15.484h-4.259c0.437,1.175,0.841,2.442,1.202,3.822c0.244,0.922,0.057,1.881-0.516,2.624
		c-0.595,0.754-1.509,1.194-2.461,1.194c-1.418,0-2.604-0.92-2.95-2.291l-0.018-0.061c-0.217-0.835-0.8-3.085-1.901-5.289h-11.62
		c-1.105,2.209-1.689,4.46-1.896,5.262c0,0-0.028,0.11-0.029,0.11c-0.358,1.362-1.543,2.277-2.951,2.277
		c-0.961,0-1.879-0.447-2.456-1.195c-0.578-0.759-0.761-1.722-0.51-2.65c0.362-1.386,0.76-2.649,1.186-3.803h-4.249L15.881,51.5
		h35.238L50.214,15.484z M40.621,41.346c0.001,1.113-0.942,2.369-2.441,3.095c-1.882,0.91-3.926,0.633-4.565-0.617
		c-0.64-1.249,0.367-3.003,2.248-3.911c1.105-0.534,2.259-0.649,3.157-0.406v-8.642l-7.997,2.113v9.971
		c0,1.113-0.944,2.367-2.44,3.091c-1.883,0.909-3.927,0.633-4.565-0.617c-0.641-1.247,0.366-3.001,2.247-3.913
		c1.105-0.53,2.259-0.646,3.158-0.404V29.54c0-0.441,0.349-0.892,0.773-1.005l9.651-2.552c0.426-0.11,0.774,0.156,0.774,0.595
		V41.346z M22.815,21.133c0.492,0,0.892-0.31,1.017-0.785l0.025-0.097c0.251-0.972,1.013-3.926,2.557-6.622
		c1.596-2.782,3.849-5.975,7.086-6.005c3.246,0.039,5.492,3.228,7.088,6.003c1.534,2.681,2.3,5.635,2.551,6.605l0.031,0.111
		c0.12,0.476,0.517,0.78,1.011,0.78c0.347,0,0.673-0.156,0.876-0.414c0.192-0.25,0.253-0.569,0.166-0.898
		C42.463,9.26,37.36,5.5,33.5,5.5c-1.331,0-8.162,0.689-11.72,14.309c-0.09,0.333-0.029,0.655,0.163,0.908
		C22.144,20.977,22.468,21.133,22.815,21.133z"/>
	<linearGradient id="SVGID_1_" gradientUnits="userSpaceOnUse" x1="33.5005" y1="51.5" x2="33.5005" y2="5.5005">
		<stop  offset="0" style="stop-color:#D0CBC5"/>
		<stop  offset="0.5031" style="stop-color:#FAFCEF"/>
		<stop  offset="0.9693" style="stop-color:#FFFFFF"/>
	</linearGradient>
	<path fill="url(#SVGID_1_)" d="M50.214,15.484h-4.259c0.437,1.175,0.841,2.442,1.202,3.822c0.244,0.922,0.057,1.881-0.516,2.624
		c-0.595,0.754-1.509,1.194-2.461,1.194c-1.418,0-2.604-0.92-2.95-2.291l-0.018-0.061c-0.217-0.835-0.8-3.085-1.901-5.289h-11.62
		c-1.105,2.209-1.689,4.46-1.896,5.262c0,0-0.028,0.11-0.029,0.11c-0.358,1.362-1.543,2.277-2.951,2.277
		c-0.961,0-1.879-0.447-2.456-1.195c-0.578-0.759-0.761-1.722-0.51-2.65c0.362-1.386,0.76-2.649,1.186-3.803h-4.249L15.881,51.5
		h35.238L50.214,15.484z M40.621,41.346c0.001,1.113-0.942,2.369-2.441,3.095c-1.882,0.91-3.926,0.633-4.565-0.617
		c-0.64-1.249,0.367-3.003,2.248-3.911c1.105-0.534,2.259-0.649,3.157-0.406v-8.642l-7.997,2.113v9.971
		c0,1.113-0.944,2.367-2.44,3.091c-1.883,0.909-3.927,0.633-4.565-0.617c-0.641-1.247,0.366-3.001,2.247-3.913
		c1.105-0.53,2.259-0.646,3.158-0.404V29.54c0-0.441,0.349-0.892,0.773-1.005l9.651-2.552c0.426-0.11,0.774,0.156,0.774,0.595
		V41.346z M22.815,21.133c0.492,0,0.892-0.31,1.017-0.785l0.025-0.097c0.251-0.972,1.013-3.926,2.557-6.622
		c1.596-2.782,3.849-5.975,7.086-6.005c3.246,0.039,5.492,3.228,7.088,6.003c1.534,2.681,2.3,5.635,2.551,6.605l0.031,0.111
		c0.12,0.476,0.517,0.78,1.011,0.78c0.347,0,0.673-0.156,0.876-0.414c0.192-0.25,0.253-0.569,0.166-0.898
		C42.463,9.26,37.36,5.5,33.5,5.5c-1.331,0-8.162,0.689-11.72,14.309c-0.09,0.333-0.029,0.655,0.163,0.908
		C22.144,20.977,22.468,21.133,22.815,21.133z"/>
	<path fill="#FFFFFF" d="M46.298,16.484c-0.113-0.334-0.224-0.68-0.343-1h4.259L51.119,51.5h-0.025l-0.88-35.016H46.298z
		 M39.02,30.864l-7.997,2.113v1l7.997-2.113V30.864z M20.359,22.938c0.577,0.749,1.495,1.195,2.456,1.195
		c1.407,0,2.593-0.915,2.951-2.277c0,0,0.029-0.109,0.029-0.11c0.208-0.802,0.791-3.052,1.896-5.262h11.62
		c1.102,2.204,1.685,4.454,1.901,5.289l0.018,0.061c0.347,1.37,1.532,2.291,2.95,2.291c0.952,0,1.866-0.44,2.461-1.194
		c0.501-0.651,0.688-1.467,0.566-2.279c-0.085,0.46-0.273,0.898-0.566,1.279c-0.595,0.754-1.509,1.194-2.461,1.194
		c-1.418,0-2.604-0.92-2.95-2.291l-0.018-0.061c-0.217-0.835-0.8-3.085-1.901-5.289h-11.62c-1.105,2.209-1.689,4.46-1.896,5.262
		c0,0-0.028,0.11-0.029,0.11c-0.358,1.362-1.543,2.277-2.951,2.277c-0.961,0-1.879-0.447-2.456-1.195
		c-0.292-0.384-0.482-0.821-0.567-1.279C19.674,21.468,19.858,22.279,20.359,22.938z M24.017,46.422
		c0.639,1.25,2.683,1.526,4.565,0.617c1.496-0.724,2.44-1.978,2.44-3.091v-1c0,1.113-0.944,2.367-2.44,3.091
		c-1.883,0.909-3.927,0.633-4.565-0.617c-0.055-0.106-0.082-0.222-0.113-0.335C23.79,45.555,23.808,46.016,24.017,46.422z
		 M16.786,16.484h3.909c0.113-0.335,0.223-0.682,0.34-1h-4.249L15.881,51.5h0.025L16.786,16.484z M38.18,45.44
		c1.499-0.726,2.442-1.981,2.441-3.095v-1c0.001,1.113-0.942,2.369-2.441,3.095c-1.882,0.91-3.926,0.633-4.565-0.617
		c-0.055-0.106-0.081-0.222-0.112-0.335c-0.114,0.468-0.096,0.929,0.112,1.335C34.254,46.073,36.298,46.351,38.18,45.44z M33.5,6.5
		c3.824,0,8.863,3.699,11.641,14.024c0.103-0.216,0.149-0.456,0.082-0.712C42.463,9.26,37.36,5.5,33.5,5.5
		c-1.331,0-8.162,0.689-11.72,14.309c-0.069,0.257-0.023,0.499,0.079,0.716C25.437,7.186,32.179,6.5,33.5,6.5z"/>
</g>
<g id="DO_NOT_EDIT_-_FOCAL_ZONE_GUIDES">
</g>
</svg>
