<?xml version="1.0" encoding="utf-8"?>
<!-- Generator: Adobe Illustrator 15.0.0, SVG Export Plug-In . SVG Version: 6.00 Build 0)  -->
<!DOCTYPE svg PUBLIC "-//W3C//DTD SVG 1.1//EN" "http://www.w3.org/Graphics/SVG/1.1/DTD/svg11.dtd">
<svg version="1.1" xmlns="http://www.w3.org/2000/svg" xmlns:xlink="http://www.w3.org/1999/xlink" x="0px" y="0px" width="67px"
	 height="57px" viewBox="0 0 67 57" enable-background="new 0 0 67 57" xml:space="preserve">
<g id="DO_NOT_EDIT_-_BOUNDING_BOX">
	<rect id="BOUNDING_BOX" fill="none" width="67" height="57"/>
</g>
<g id="PLACE_YOUR_GRAPHIC_HERE">
	<path opacity="0.3" d="M25.234,6.5h-8c-1.101,0-2,0.9-2,2v42c0,1.1,0.899,2,2,2h8c1.1,0,2-0.9,2-2v-42
		C27.234,7.4,26.333,6.5,25.234,6.5z M49.766,6.5h-8c-1.1,0-2,0.9-2,2v42c0,1.1,0.9,2,2,2h8c1.1,0,2-0.9,2-2v-42
		C51.766,7.4,50.865,6.5,49.766,6.5z"/>
	<path opacity="0.15" d="M41.766,52.5c-1.654,0-3-1.346-3-3v-42c0-1.654,1.346-3,3-3h8c1.654,0,3,1.346,3,3v42c0,1.654-1.346,3-3,3
		H41.766z M17.234,52.5c-1.654,0-3-1.346-3-3v-42c0-1.654,1.346-3,3-3h8c1.654,0,3,1.346,3,3v42c0,1.654-1.346,3-3,3H17.234z"/>
	<path opacity="0.15" d="M25.234,5.5h-8c-1.101,0-2,0.9-2,2v42c0,1.1,0.899,2,2,2h8c1.1,0,2-0.9,2-2v-42
		C27.234,6.4,26.333,5.5,25.234,5.5z M49.766,5.5h-8c-1.1,0-2,0.9-2,2v42c0,1.1,0.9,2,2,2h8c1.1,0,2-0.9,2-2v-42
		C51.766,6.4,50.865,5.5,49.766,5.5z"/>
	<linearGradient id="SVGID_1_" gradientUnits="userSpaceOnUse" x1="33.5" y1="51.5" x2="33.5" y2="5.5005">
		<stop  offset="0" style="stop-color:#D0CBC5"/>
		<stop  offset="0.5031" style="stop-color:#FAFCEF"/>
		<stop  offset="0.9693" style="stop-color:#FFFFFF"/>
	</linearGradient>
	<path fill="url(#SVGID_1_)" d="M25.234,5.5h-8c-1.101,0-2,0.9-2,2v42c0,1.1,0.899,2,2,2h8c1.1,0,2-0.9,2-2v-42
		C27.234,6.4,26.333,5.5,25.234,5.5z M49.766,5.5h-8c-1.1,0-2,0.9-2,2v42c0,1.1,0.9,2,2,2h8c1.1,0,2-0.9,2-2v-42
		C51.766,6.4,50.865,5.5,49.766,5.5z"/>
	<path fill="#FFFFFF" d="M27.234,7.5v1c0-1.1-0.9-2-2-2h-8c-1.101,0-2,0.9-2,2v-1c0-1.1,0.899-2,2-2h8
		C26.333,5.5,27.234,6.4,27.234,7.5z M49.766,5.5h-8c-1.1,0-2,0.9-2,2v1c0-1.1,0.9-2,2-2h8c1.1,0,2,0.9,2,2v-1
		C51.766,6.4,50.865,5.5,49.766,5.5z"/>
</g>
<g id="DO_NOT_EDIT_-_FOCAL_ZONE_GUIDES">
</g>
</svg>
