<?xml version="1.0" encoding="utf-8"?>
<!-- Generator: Adobe Illustrator 14.0.0, SVG Export Plug-In  -->
<!DOCTYPE svg PUBLIC "-//W3C//DTD SVG 1.1//EN" "http://www.w3.org/Graphics/SVG/1.1/DTD/svg11.dtd" [
	<!ENTITY ns_flows "http://ns.adobe.com/Flows/1.0/">
]>
<svg version="1.1"
	 xmlns="http://www.w3.org/2000/svg" xmlns:xlink="http://www.w3.org/1999/xlink" xmlns:a="http://ns.adobe.com/AdobeSVGViewerExtensions/3.0/"
	 x="0px" y="0px" width="67px" height="57px" viewBox="0 0 67 57" enable-background="new 0 0 67 57" xml:space="preserve">
<defs>
</defs>
<g>
	<rect fill="none" width="67" height="57"/>
</g>
<g>
	<rect x="10.5" y="5.5" fill="none" width="46" height="46"/>
</g>
<path opacity="0.15" d="M35.561,45.893c-4.265,0-9.73-0.267-14.184-2.342c-3.303-1.877-4.123-3.829-4.242-5.144
	c-0.106-1.167,0.233-2.95,2.455-4.816c1.449-1.218,1.504-1.848,1.461-2.062c-0.214-1.054-3.42-2.039-5.541-2.691
	c-5.568-1.714-5.515-5.505-5.51-5.665c-0.021-1.501,0.587-2.913,1.809-4.151c4.437-4.498,16.191-5.687,21.788-5.687
	c0.28,0,0.548,0.003,0.801,0.009C53.905,13.786,58,22.469,58,29.675C58,38.769,48.144,45.893,35.561,45.893L35.561,45.893z
	 M26.35,35.296c-1.415,0-2.565,1.15-2.565,2.565s1.15,2.566,2.565,2.566s2.566-1.151,2.566-2.566S27.765,35.296,26.35,35.296
	L26.35,35.296z M47.577,22.429c-0.886,0-1.578,0.338-1.854,0.905c-0.282,0.582-0.043,1.21,0.124,1.532
	c0.335,0.645,0.967,1.228,1.732,1.598c0.573,0.278,1.181,0.425,1.758,0.425c0.885,0,1.577-0.338,1.852-0.904
	c0.211-0.435,0.128-0.893,0.021-1.2c-0.267-0.77-0.968-1.49-1.876-1.93C48.762,22.575,48.154,22.429,47.577,22.429L47.577,22.429z
	 M26.121,19.578c-0.233,0-0.471,0.02-0.706,0.059c-0.842,0.137-1.614,0.516-2.119,1.038c-0.253,0.261-0.661,0.795-0.557,1.434
	c0.148,0.898,1.249,1.551,2.618,1.551c0.233,0,0.471-0.02,0.707-0.059c0.997-0.163,1.876-0.655,2.352-1.316
	c0.189-0.265,0.398-0.679,0.32-1.153C28.593,20.244,27.468,19.578,26.121,19.578L26.121,19.578z M37.348,18.876
	c-1.509,0-2.792,0.811-2.859,1.807c-0.045,0.646,0.412,1.139,0.688,1.376c0.552,0.473,1.356,0.777,2.206,0.835
	c0.104,0.008,0.206,0.011,0.308,0.011c1.535,0,2.791-0.793,2.859-1.806c0.074-1.087-1.251-2.1-2.895-2.212
	C37.551,18.879,37.449,18.876,37.348,18.876L37.348,18.876z"/>
<path opacity="0.3" d="M34.375,15.451C27.776,15.303,10.9,17.082,11,24.312c0,0-0.1,3.169,4.804,4.678
	c4.379,1.347,8.863,2.748,4.43,6.475c-3.208,2.695-2.834,5.782,1.566,8.288C26.172,45.79,31.654,46,35.561,46
	C47.431,46,57,39.402,57,30.782C57,22.164,50.68,15.82,34.375,15.451z M21.753,23.378c-0.27-1.641,1.3-3.262,3.501-3.621
	c2.2-0.359,4.203,0.681,4.469,2.318c0.271,1.64-1.296,3.26-3.498,3.62C24.022,26.054,22.022,25.017,21.753,23.378z M26.35,42.535
	c-1.968,0-3.565-1.599-3.565-3.566c0-1.971,1.598-3.565,3.565-3.565c1.969,0,3.566,1.595,3.566,3.565
	C29.916,40.937,28.318,42.535,26.35,42.535z M37.314,24.999c-2.227-0.151-3.938-1.621-3.824-3.277
	c0.113-1.655,2.011-2.879,4.232-2.726c2.226,0.152,3.938,1.619,3.824,3.277C41.435,23.932,39.541,25.151,37.314,24.999z
	 M52.089,27.528c-0.726,1.496-2.937,1.917-4.944,0.943c-2.006-0.971-3.045-2.973-2.32-4.467c0.725-1.495,2.938-1.92,4.945-0.943
	C51.777,24.033,52.814,26.034,52.089,27.528z"/>
<linearGradient id="SVGID_1_" gradientUnits="userSpaceOnUse" x1="34" y1="44.8926" x2="34" y2="14.3359">
	<stop  offset="0" style="stop-color:#D0CBC5"/>
	<stop  offset="0.5031" style="stop-color:#FAFCEF"/>
	<stop  offset="0.9693" style="stop-color:#FFFFFF"/>
</linearGradient>
<path fill="url(#SVGID_1_)" d="M34.375,14.344C27.776,14.195,10.9,15.975,11,23.204c0,0-0.1,3.169,4.804,4.678
	c4.379,1.347,8.863,2.748,4.43,6.475c-3.208,2.695-2.834,5.782,1.566,8.288c4.372,2.038,9.854,2.248,13.761,2.248
	C47.431,44.893,57,38.295,57,29.675C57,21.057,50.68,14.713,34.375,14.344z M21.753,22.271c-0.27-1.641,1.3-3.262,3.501-3.621
	c2.2-0.359,4.203,0.681,4.469,2.318c0.271,1.64-1.296,3.26-3.498,3.62C24.022,24.946,22.022,23.909,21.753,22.271z M26.35,41.428
	c-1.968,0-3.565-1.599-3.565-3.566c0-1.971,1.598-3.565,3.565-3.565c1.969,0,3.566,1.595,3.566,3.565
	C29.916,39.829,28.318,41.428,26.35,41.428z M37.314,23.892c-2.227-0.151-3.938-1.621-3.824-3.277
	c0.113-1.655,2.011-2.879,4.232-2.726c2.226,0.152,3.938,1.619,3.824,3.277C41.435,22.824,39.541,24.044,37.314,23.892z
	 M52.089,26.421c-0.726,1.496-2.937,1.917-4.944,0.943c-2.006-0.971-3.045-2.973-2.32-4.467c0.725-1.495,2.938-1.92,4.945-0.943
	C51.777,22.926,52.814,24.927,52.089,26.421z"/>
<path fill="#FFFFFF" d="M26.35,41.428c-1.778,0-3.242-1.31-3.51-3.013c-0.028,0.182-0.056,0.364-0.056,0.554
	c0,1.968,1.598,3.566,3.565,3.566c1.969,0,3.566-1.599,3.566-3.566c0-0.189-0.027-0.372-0.056-0.554
	C29.592,40.118,28.129,41.428,26.35,41.428z M26.225,25.695c2.202-0.36,3.769-1.98,3.498-3.62c-0.011-0.064-0.04-0.121-0.056-0.184
	c-0.313,1.284-1.66,2.404-3.442,2.696c-2.115,0.345-4.027-0.605-4.415-2.133c-0.073,0.302-0.108,0.61-0.057,0.923
	C22.022,25.017,24.022,26.054,26.225,25.695z M20.233,34.356c-1.607,1.351-2.315,2.8-2.067,4.225c0.18-1.06,0.875-2.115,2.067-3.117
	c1.628-1.368,2.046-2.421,1.716-3.274C21.748,32.814,21.223,33.525,20.233,34.356z M37.314,23.892
	c-1.894-0.129-3.402-1.214-3.745-2.554c-0.031,0.127-0.07,0.251-0.079,0.384c-0.113,1.656,1.598,3.126,3.824,3.277
	c2.227,0.152,4.12-1.067,4.232-2.726c0.017-0.248-0.019-0.488-0.078-0.724C41.111,23.006,39.363,24.031,37.314,23.892z
	 M52.089,26.421c-0.726,1.496-2.937,1.917-4.944,0.943c-1.348-0.652-2.242-1.77-2.476-2.886c-0.336,1.42,0.674,3.121,2.476,3.993
	c2.008,0.974,4.219,0.553,4.944-0.943c0.238-0.491,0.271-1.036,0.156-1.582C52.207,26.107,52.163,26.269,52.089,26.421z
	 M34.375,14.344C27.776,14.195,10.9,15.975,11,23.204c0,0-0.002,0.163,0.045,0.423c0.938-6.657,16.945-8.319,23.33-8.176
	c15.783,0.357,22.21,6.313,22.605,14.512c0.002-0.098,0.02-0.19,0.02-0.288C57,21.057,50.68,14.713,34.375,14.344z"/>
</svg>
