<?xml version="1.0" encoding="utf-8"?>
<!-- Generator: Adobe Illustrator 15.0.0, SVG Export Plug-In . SVG Version: 6.00 Build 0)  -->
<!DOCTYPE svg PUBLIC "-//W3C//DTD SVG 1.1//EN" "http://www.w3.org/Graphics/SVG/1.1/DTD/svg11.dtd">
<svg version="1.1" xmlns="http://www.w3.org/2000/svg" xmlns:xlink="http://www.w3.org/1999/xlink" x="0px" y="0px" width="67px"
	 height="57px" viewBox="0 0 67 57" enable-background="new 0 0 67 57" xml:space="preserve">
<g id="DO_NOT_EDIT_-_BOUNDING_BOX">
	<rect id="BOUNDING_BOX" fill="none" width="67" height="57"/>
</g>
<g id="PLACE_YOUR_GRAPHIC_HERE">
	<path opacity="0.3" d="M50.5,27.845l-7-4.702c0,0-0.348-0.32-0.788-0.32c-0.442,0-0.79,0.32-0.79,0.32l-10.421,7.029L31.5,30.174
		l-7-4.352c0,0-0.348-0.32-0.789-0.32s-0.79,0.32-0.79,0.32L16.5,31.314v10.754h34V27.845z M53.5,11.068h-40c-1.101,0-2,0.9-2,2v32
		c0,1.1,0.899,2,2,2h40c1.1,0,2-0.9,2-2v-32C55.5,11.968,54.6,11.068,53.5,11.068z M52.5,44.068h-38v-30h38V44.068z"/>
	<rect x="16.381" y="16.446" fill="none" width="30" height="30"/>
	<path opacity="0.15" d="M13.5,47.068c-1.654,0-3-1.346-3-3v-32c0-1.654,1.346-3,3-3h40c1.654,0,3,1.346,3,3v32c0,1.654-1.346,3-3,3
		H13.5z M51.5,42.068v-1c0,0.553-0.447,1-1,1H51.5z M16.5,42.068c-0.552,0-1-0.447-1-1V30.314c0-0.292,0.128-0.57,0.35-0.76
		l6.421-5.493c0.08-0.075,0.65-0.561,1.44-0.561c0.661,0,1.167,0.339,1.377,0.508l6.389,3.972l9.839-6.637
		c0.199-0.164,0.715-0.522,1.396-0.522c0.678,0,1.192,0.358,1.393,0.522l6.953,4.67c0.276,0.186,0.442,0.497,0.442,0.83V14.068h-36
		v28H16.5z"/>
	<path opacity="0.15" d="M50.5,26.845l-7-4.702c0,0-0.348-0.32-0.788-0.32c-0.442,0-0.79,0.32-0.79,0.32l-10.421,7.029L31.5,29.174
		l-7-4.352c0,0-0.348-0.32-0.789-0.32s-0.79,0.32-0.79,0.32L16.5,30.314v10.754h34V26.845z M53.5,10.068h-40c-1.101,0-2,0.9-2,2v32
		c0,1.1,0.899,2,2,2h40c1.1,0,2-0.9,2-2v-32C55.5,10.968,54.6,10.068,53.5,10.068z M52.5,43.068h-38v-30h38V43.068z"/>
	<linearGradient id="SVGID_1_" gradientUnits="userSpaceOnUse" x1="33.5005" y1="46.0684" x2="33.5005" y2="10.0684">
		<stop  offset="0" style="stop-color:#D0CBC5"/>
		<stop  offset="0.5031" style="stop-color:#FAFCEF"/>
		<stop  offset="0.9693" style="stop-color:#FFFFFF"/>
	</linearGradient>
	<path fill="url(#SVGID_1_)" d="M50.5,26.845l-7-4.702c0,0-0.348-0.32-0.788-0.32c-0.442,0-0.79,0.32-0.79,0.32l-10.421,7.029
		L31.5,29.174l-7-4.352c0,0-0.348-0.32-0.789-0.32s-0.79,0.32-0.79,0.32L16.5,30.314v10.754h34V26.845z M53.5,10.068h-40
		c-1.101,0-2,0.9-2,2v32c0,1.1,0.899,2,2,2h40c1.1,0,2-0.9,2-2v-32C55.5,10.968,54.6,10.068,53.5,10.068z M52.5,43.068h-38v-30h38
		V43.068z"/>
	<path fill="#FFFFFF" d="M50.5,26.845v1l-7-4.702c0,0-0.348-0.32-0.788-0.32c-0.442,0-0.79,0.32-0.79,0.32l-10.421,7.029
		L31.5,30.174l-7-4.352c0,0-0.348-0.32-0.789-0.32s-0.79,0.32-0.79,0.32L16.5,31.314v-1l6.421-5.493c0,0,0.349-0.32,0.79-0.32
		s0.789,0.32,0.789,0.32l7,4.352l0.001-0.002l10.421-7.029c0,0,0.348-0.32,0.79-0.32c0.44,0,0.788,0.32,0.788,0.32L50.5,26.845z
		 M52.5,44.068v-1h-38v1H52.5z M53.5,10.068h-40c-1.101,0-2,0.9-2,2v1c0-1.1,0.899-2,2-2h40c1.1,0,2,0.9,2,2v-1
		C55.5,10.968,54.6,10.068,53.5,10.068z"/>
</g>
<g id="DO_NOT_EDIT_-_FOCAL_ZONE_GUIDES">
</g>
</svg>
