<?xml version="1.0" encoding="utf-8"?>
<!-- Generator: Adobe Illustrator 15.0.0, SVG Export Plug-In . SVG Version: 6.00 Build 0)  -->
<!DOCTYPE svg PUBLIC "-//W3C//DTD SVG 1.1//EN" "http://www.w3.org/Graphics/SVG/1.1/DTD/svg11.dtd">
<svg version="1.1" id="Ebene_1" xmlns="http://www.w3.org/2000/svg" xmlns:xlink="http://www.w3.org/1999/xlink" x="0px" y="0px"
	 width="67px" height="57px" viewBox="0 0 67 57" enable-background="new 0 0 67 57" xml:space="preserve">
<rect fill="none" width="67" height="57"/>
<path opacity="0.15" enable-background="new    " d="M20,46c-0.553,0-1-0.447-1-1c0,0.553-0.447,1-1,1h-7c-1.178,0-2-0.822-2-2V12
	c0-1.178,0.822-2,2-2h7c0.553,0,1,0.448,1,1c0-0.552,0.447-1,1-1h35c1.178,0,2,0.822,2,2v32c0,1.178-0.822,2-2,2H20z M28,19.5
	c-0.552,0-1,0.449-1,1v16c0,0.551,0.448,1,1,1h21c0.553,0,1-0.449,1-1v-16c0-0.551-0.447-1-1-1H28z M29,36.5c-0.553,0-1-0.447-1-1
	v-14c0-0.552,0.447-1,1-1h19c0.553,0,1,0.448,1,1v14c0,0.553-0.447,1-1,1H29z M45,32.5v-3.09l-2.146-2.285l-4.192,4.014
	c-0.193,0.186-0.442,0.277-0.69,0.277c-0.242,0-0.482-0.087-0.675-0.262l-2.661-2.426L32,31.502V32.5H45z"/>
<path opacity="0.3" enable-background="new    " d="M10,13v32c0,0.607,0.346,1,1,1h7V12h-7C10.346,12,10,12.391,10,13z M55,12H20v34
	h35c0.652,0,1-0.393,1-1V13C56,12.391,55.652,12,55,12z M51,37.5c0,1.104-0.896,2-2,2H28c-1.104,0-2-0.896-2-2v-16
	c0-1.104,0.896-2,2-2h21c1.104,0,2,0.896,2,2V37.5z M29,36.5h19v-14H29V36.5z M31,32.104l3.145-3.308c0,0,0.209-0.191,0.477-0.191
	s0.477,0.191,0.477,0.191l2.873,2.62l4.422-4.232c0,0,0.211-0.193,0.479-0.193c0.264,0,0.473,0.193,0.473,0.193L46,30.014V34.5H31
	V32.104z"/>
<linearGradient id="SVGID_1_" gradientUnits="userSpaceOnUse" x1="170.4805" y1="-248.0195" x2="170.4805" y2="-214.0195" gradientTransform="matrix(1 0 0 -1 -137.48 -203.0195)">
	<stop  offset="0" style="stop-color:#D0CBC5"/>
	<stop  offset="0.5031" style="stop-color:#FAFCEF"/>
	<stop  offset="0.9693" style="stop-color:#FFFFFF"/>
</linearGradient>
<path fill="url(#SVGID_1_)" d="M10,12v32c0,0.607,0.346,1,1,1h7V11h-7C10.346,11,10,11.391,10,12z M55,11H20v34h35
	c0.652,0,1-0.393,1-1V12C56,11.391,55.652,11,55,11z M51,36.5c0,1.104-0.896,2-2,2H28c-1.104,0-2-0.896-2-2v-16c0-1.104,0.896-2,2-2
	h21c1.104,0,2,0.896,2,2V36.5z M29,35.5h19v-14H29V35.5z M31,31.104l3.145-3.308c0,0,0.209-0.191,0.477-0.191
	s0.477,0.191,0.477,0.191l2.873,2.62l4.422-4.232c0,0,0.211-0.193,0.479-0.193c0.264,0,0.473,0.193,0.473,0.193L46,29.014V33.5H31
	V31.104z"/>
<path fill="#FFFFFF" d="M10,12v1c0-0.609,0.346-1,1-1h7v-1h-7C10.346,11,10,11.391,10,12z M49,38.5H28c-1.104,0-2-0.896-2-2v1
	c0,1.104,0.896,2,2,2h21c1.104,0,2-0.896,2-2v-1C51,37.604,50.104,38.5,49,38.5z M55,11H20v1h35c0.652,0,1,0.391,1,1v-1
	C56,11.391,55.652,11,55,11z M48,21.5H29v1h19V21.5z M46,34.5v-1H31v1H46z"/>
</svg>
