<?xml version="1.0" encoding="utf-8"?>
<!-- Generator: Adobe Illustrator 15.0.0, SVG Export Plug-In . SVG Version: 6.00 Build 0)  -->
<!DOCTYPE svg PUBLIC "-//W3C//DTD SVG 1.1//EN" "http://www.w3.org/Graphics/SVG/1.1/DTD/svg11.dtd">
<svg version="1.1" id="Ebene_1" xmlns="http://www.w3.org/2000/svg" xmlns:xlink="http://www.w3.org/1999/xlink" x="0px" y="0px"
	 width="67px" height="57px" viewBox="0 0 67 57" enable-background="new 0 0 67 57" xml:space="preserve">
<rect fill="none" width="67" height="57"/>
<path opacity="0.15" enable-background="new    " d="M48.577,55C44.889,55,42,52.85,42,50.105c0-0.27,0.027-0.533,0.08-0.789
	C41.945,49.723,41.566,50,41.133,50H17c-1.654,0-3-1.346-3-3V10c0-1.654,1.346-3,3-3h32c1.654,0,3,1.346,3,3v18.487
	c0,0.311-0.145,0.603-0.389,0.791C51.956,29.091,52.35,29,52.743,29c0.034,0,0.157,0.006,0.19,0.009
	c2.646,0.38,5.451,0.828,8.316,1.571c0.441,0.113,0.75,0.512,0.75,0.968v6.524c0,0.314-0.146,0.607-0.396,0.797
	c-0.176,0.134-0.389,0.203-0.604,0.203c-0.09,0-0.18-0.012-0.27-0.036c-1.785-0.497-3.697-0.927-5.588-1.255v12.324
	C55.143,52.85,52.258,55,48.577,55L48.577,55z M26.5,38c-0.275,0-0.5,0.225-0.5,0.5s0.225,0.5,0.5,0.5h19c0.275,0,0.5-0.225,0.5-0.5
	S45.775,38,45.5,38H26.5z M20.5,38c-0.275,0-0.5,0.225-0.5,0.5s0.225,0.5,0.5,0.5s0.5-0.225,0.5-0.5S20.775,38,20.5,38L20.5,38z
	 M26.5,31c-0.275,0-0.5,0.225-0.5,0.5s0.225,0.5,0.5,0.5h19c0.275,0,0.5-0.225,0.5-0.5S45.775,31,45.5,31H26.5z M20.5,31
	c-0.275,0-0.5,0.225-0.5,0.5s0.225,0.5,0.5,0.5s0.5-0.225,0.5-0.5S20.775,31,20.5,31L20.5,31z M26.5,24c-0.275,0-0.5,0.225-0.5,0.5
	s0.225,0.5,0.5,0.5h19c0.275,0,0.5-0.225,0.5-0.5S45.775,24,45.5,24H26.5z M20.5,24c-0.275,0-0.5,0.225-0.5,0.5s0.225,0.5,0.5,0.5
	s0.5-0.225,0.5-0.5S20.775,24,20.5,24L20.5,24z M26.5,17c-0.275,0-0.5,0.225-0.5,0.5s0.225,0.5,0.5,0.5h19
	c0.275,0,0.5-0.225,0.5-0.5S45.775,17,45.5,17H26.5z M20.5,17c-0.275,0-0.5,0.225-0.5,0.5s0.225,0.5,0.5,0.5s0.5-0.225,0.5-0.5
	S20.775,17,20.5,17L20.5,17z"/>
<path opacity="0.3" enable-background="new    " d="M49.572,45.262V32.195c0-1.188,0.552-2.158,1.429-2.709V11c0-1.104-0.896-2-2-2
	H17c-1.104,0-2,0.896-2,2v37c0,1.104,0.896,2,2,2h24.133c0.648-2.76,3.682-4.791,7.443-4.791
	C48.911,45.209,49.243,45.227,49.572,45.262z M20.5,41c-0.828,0-1.5-0.672-1.5-1.5s0.672-1.5,1.5-1.5s1.5,0.672,1.5,1.5
	S21.328,41,20.5,41z M20.5,34c-0.828,0-1.5-0.672-1.5-1.5s0.672-1.5,1.5-1.5s1.5,0.672,1.5,1.5S21.328,34,20.5,34z M20.5,27
	c-0.828,0-1.5-0.672-1.5-1.5s0.672-1.5,1.5-1.5s1.5,0.672,1.5,1.5S21.328,27,20.5,27z M20.5,20c-0.828,0-1.5-0.672-1.5-1.5
	s0.672-1.5,1.5-1.5s1.5,0.672,1.5,1.5S21.328,20,20.5,20z M45.5,41h-19c-0.828,0-1.5-0.672-1.5-1.5s0.672-1.5,1.5-1.5h19
	c0.828,0,1.5,0.672,1.5,1.5S46.329,41,45.5,41z M45.5,34h-19c-0.828,0-1.5-0.672-1.5-1.5s0.672-1.5,1.5-1.5h19
	c0.828,0,1.5,0.672,1.5,1.5S46.329,34,45.5,34z M45.5,27h-19c-0.828,0-1.5-0.672-1.5-1.5s0.672-1.5,1.5-1.5h19
	c0.828,0,1.5,0.672,1.5,1.5S46.329,27,45.5,27z M45.5,20h-19c-0.828,0-1.5-0.672-1.5-1.5s0.672-1.5,1.5-1.5h19
	c0.828,0,1.5,0.672,1.5,1.5S46.329,20,45.5,20z M52.833,31.004c0,0-1.261-0.129-1.261,1.191V47.84
	c-0.872-0.393-1.893-0.631-2.995-0.631c-3.084,0-5.576,1.742-5.576,3.896C43,53.259,45.493,55,48.577,55
	c3.075,0,5.565-1.741,5.565-3.895v-13.5c2.563,0.392,4.91,0.926,6.857,1.467v-6.524C58.038,31.779,55.096,31.329,52.833,31.004z"/>
<linearGradient id="SVGID_1_" gradientUnits="userSpaceOnUse" x1="175.4805" y1="-257.0195" x2="175.4805" y2="-211.0195" gradientTransform="matrix(1 0 0 -1 -137.48 -203.0195)">
	<stop  offset="0" style="stop-color:#D0CBC5"/>
	<stop  offset="0.5031" style="stop-color:#FAFCEF"/>
	<stop  offset="0.9693" style="stop-color:#FFFFFF"/>
</linearGradient>
<path fill="url(#SVGID_1_)" d="M49.572,44.262V31.195c0-1.188,0.552-2.158,1.429-2.708V10c0-1.104-0.896-2-2-2H17
	c-1.104,0-2,0.896-2,2v37c0,1.104,0.896,2,2,2h24.133c0.648-2.76,3.682-4.791,7.443-4.791
	C48.911,44.209,49.243,44.227,49.572,44.262z M20.5,40c-0.828,0-1.5-0.672-1.5-1.5s0.672-1.5,1.5-1.5s1.5,0.672,1.5,1.5
	S21.328,40,20.5,40z M20.5,33c-0.828,0-1.5-0.672-1.5-1.5s0.672-1.5,1.5-1.5s1.5,0.672,1.5,1.5S21.328,33,20.5,33z M20.5,26
	c-0.828,0-1.5-0.672-1.5-1.5s0.672-1.5,1.5-1.5s1.5,0.672,1.5,1.5S21.328,26,20.5,26z M20.5,19c-0.828,0-1.5-0.672-1.5-1.5
	s0.672-1.5,1.5-1.5s1.5,0.672,1.5,1.5S21.328,19,20.5,19z M45.5,40h-19c-0.828,0-1.5-0.672-1.5-1.5s0.672-1.5,1.5-1.5h19
	c0.828,0,1.5,0.672,1.5,1.5S46.329,40,45.5,40z M45.5,33h-19c-0.828,0-1.5-0.672-1.5-1.5s0.672-1.5,1.5-1.5h19
	c0.828,0,1.5,0.672,1.5,1.5S46.329,33,45.5,33z M45.5,26h-19c-0.828,0-1.5-0.672-1.5-1.5s0.672-1.5,1.5-1.5h19
	c0.828,0,1.5,0.672,1.5,1.5S46.329,26,45.5,26z M45.5,19h-19c-0.828,0-1.5-0.672-1.5-1.5s0.672-1.5,1.5-1.5h19
	c0.828,0,1.5,0.672,1.5,1.5S46.329,19,45.5,19z M52.833,30.004c0,0-1.261-0.129-1.261,1.191V46.84
	c-0.872-0.393-1.893-0.631-2.995-0.631c-3.084,0-5.576,1.742-5.576,3.896C43,52.259,45.493,54,48.577,54
	c3.075,0,5.565-1.741,5.565-3.895v-13.5c2.563,0.392,4.91,0.926,6.857,1.467v-6.524C58.038,30.779,55.096,30.329,52.833,30.004z"/>
<path fill="#FFFFFF" d="M20.5,40c-0.652,0-1.201-0.419-1.408-1C19.036,39.156,19,39.324,19,39.5c0,0.828,0.672,1.5,1.5,1.5
	s1.5-0.672,1.5-1.5c0-0.176-0.036-0.344-0.092-0.5C21.701,39.581,21.152,40,20.5,40z M45.5,33h-19c-0.652,0-1.201-0.419-1.408-1
	C25.036,32.156,25,32.324,25,32.5c0,0.828,0.672,1.5,1.5,1.5h19c0.828,0,1.5-0.672,1.5-1.5c0-0.176-0.037-0.344-0.092-0.5
	C46.702,32.581,46.152,33,45.5,33z M20.5,33c-0.652,0-1.201-0.419-1.408-1C19.036,32.156,19,32.324,19,32.5
	c0,0.828,0.672,1.5,1.5,1.5s1.5-0.672,1.5-1.5c0-0.176-0.036-0.344-0.092-0.5C21.701,32.581,21.152,33,20.5,33z M51,11v-1
	c0-1.104-0.896-2-2-2H17c-1.104,0-2,0.896-2,2v1c0-1.104,0.896-2,2-2h32C50.104,9,51,9.896,51,11z M46.909,25
	c-0.207,0.581-0.757,1-1.408,1h-19c-0.652,0-1.201-0.419-1.408-1C25.036,25.157,25,25.324,25,25.5c0,0.828,0.672,1.5,1.5,1.5h19
	c0.828,0,1.5-0.672,1.5-1.5C47,25.324,46.963,25.157,46.909,25z M46.909,18c-0.207,0.581-0.757,1-1.408,1h-19
	c-0.652,0-1.201-0.419-1.408-1C25.036,18.157,25,18.324,25,18.5c0,0.828,0.672,1.5,1.5,1.5h19c0.828,0,1.5-0.672,1.5-1.5
	C47,18.324,46.963,18.157,46.909,18z M43,50.105c0,0.17,0.02,0.336,0.051,0.5c0.352-1.918,2.686-3.396,5.525-3.396
	c1.104,0,2.123,0.238,2.996,0.631v-1c-0.873-0.393-1.893-0.631-2.996-0.631C45.493,46.209,43,47.951,43,50.105z M52.833,30.004
	c0,0-1.261-0.129-1.261,1.191v1c0-1.32,1.261-1.191,1.261-1.191c2.265,0.325,5.205,0.775,8.168,1.544v-1
	C58.038,30.779,55.096,30.329,52.833,30.004z M20.5,19c-0.652,0-1.201-0.419-1.408-1C19.036,18.157,19,18.324,19,18.5
	c0,0.828,0.672,1.5,1.5,1.5s1.5-0.672,1.5-1.5c0-0.176-0.036-0.343-0.092-0.5C21.701,18.581,21.152,19,20.5,19z M47,39.5
	c0-0.176-0.037-0.344-0.092-0.5c-0.207,0.581-0.756,1-1.408,1h-19c-0.652,0-1.201-0.419-1.408-1C25.036,39.156,25,39.324,25,39.5
	c0,0.828,0.672,1.5,1.5,1.5h19C46.329,41,47,40.328,47,39.5z M20.5,26c-0.652,0-1.201-0.419-1.408-1
	C19.036,25.157,19,25.324,19,25.5c0,0.828,0.672,1.5,1.5,1.5s1.5-0.672,1.5-1.5c0-0.176-0.036-0.343-0.092-0.5
	C21.701,25.581,21.152,26,20.5,26z"/>
</svg>
