<?xml version="1.0" encoding="utf-8"?>
<!-- Generator: Adobe Illustrator 15.0.0, SVG Export Plug-In . SVG Version: 6.00 Build 0)  -->
<!DOCTYPE svg PUBLIC "-//W3C//DTD SVG 1.1//EN" "http://www.w3.org/Graphics/SVG/1.1/DTD/svg11.dtd">
<svg version="1.1" xmlns="http://www.w3.org/2000/svg" xmlns:xlink="http://www.w3.org/1999/xlink" x="0px" y="0px" width="67px"
	 height="57px" viewBox="0 0 67 57" enable-background="new 0 0 67 57" xml:space="preserve">
<g id="DO_NOT_EDIT_-_BOUNDING_BOX">
	<rect id="BOUNDING_BOX" fill="none" width="67" height="57"/>
</g>
<g id="PLACE_YOUR_GRAPHIC_HERE">
	<path opacity="0.3" d="M51.878,27.496l-34.5-20.7C17.027,6.599,16.641,6.5,16.25,6.5c-0.4,0-0.804,0.105-1.159,0.314
		C14.381,7.228,13.95,7.982,13.95,8.8v41.4c0,0.817,0.431,1.572,1.141,1.985c0.355,0.211,0.759,0.314,1.159,0.314
		c0.391,0,0.777-0.099,1.127-0.297l34.5-20.699c0.723-0.409,1.172-1.173,1.172-2.004S52.601,27.905,51.878,27.496z"/>
	<path opacity="0.15" d="M16.25,52.5c-0.592,0-1.169-0.157-1.67-0.455c-1.002-0.583-1.63-1.675-1.63-2.845V7.8
		c0-1.169,0.627-2.261,1.638-2.85c0.499-0.293,1.075-0.45,1.662-0.45c0.566,0,1.126,0.147,1.619,0.426l34.523,20.713
		c1.014,0.574,1.657,1.675,1.657,2.861s-0.644,2.288-1.679,2.874L17.892,52.061C17.377,52.353,16.817,52.5,16.25,52.5z"/>
	<path opacity="0.15" d="M51.878,26.496l-34.5-20.7C17.027,5.599,16.641,5.5,16.25,5.5c-0.4,0-0.804,0.105-1.159,0.314
		C14.381,6.228,13.95,6.982,13.95,7.8v41.4c0,0.817,0.431,1.572,1.141,1.985c0.355,0.211,0.759,0.314,1.159,0.314
		c0.391,0,0.777-0.099,1.127-0.297l34.5-20.699c0.723-0.409,1.172-1.173,1.172-2.004S52.601,26.905,51.878,26.496z"/>
	<linearGradient id="SVGID_1_" gradientUnits="userSpaceOnUse" x1="33.5005" y1="51.5" x2="33.5005" y2="5.5005">
		<stop  offset="0" style="stop-color:#D0CBC5"/>
		<stop  offset="0.5031" style="stop-color:#FAFCEF"/>
		<stop  offset="0.9693" style="stop-color:#FFFFFF"/>
	</linearGradient>
	<path fill="url(#SVGID_1_)" d="M51.878,26.496l-34.5-20.7C17.027,5.599,16.641,5.5,16.25,5.5c-0.4,0-0.804,0.105-1.159,0.314
		C14.381,6.228,13.95,6.982,13.95,7.8v41.4c0,0.817,0.431,1.572,1.141,1.985c0.355,0.211,0.759,0.314,1.159,0.314
		c0.391,0,0.777-0.099,1.127-0.297l34.5-20.699c0.723-0.409,1.172-1.173,1.172-2.004S52.601,26.905,51.878,26.496z"/>
	<path fill="#FFFFFF" d="M15.091,6.814C15.446,6.605,15.85,6.5,16.25,6.5c0.391,0,0.777,0.099,1.127,0.296l34.5,20.7
		c0.573,0.325,0.964,0.876,1.104,1.504c0.037-0.163,0.067-0.329,0.067-0.5c0-0.831-0.449-1.595-1.172-2.004l-34.5-20.7
		C17.027,5.599,16.641,5.5,16.25,5.5c-0.4,0-0.804,0.105-1.159,0.314C14.381,6.228,13.95,6.982,13.95,7.8v1
		C13.95,7.982,14.381,7.228,15.091,6.814z"/>
</g>
<g id="DO_NOT_EDIT_-_FOCAL_ZONE_GUIDES">
</g>
</svg>
