<?xml version="1.0" encoding="utf-8"?>
<!-- Generator: Adobe Illustrator 14.0.0, SVG Export Plug-In  -->
<!DOCTYPE svg PUBLIC "-//W3C//DTD SVG 1.1//EN" "http://www.w3.org/Graphics/SVG/1.1/DTD/svg11.dtd" [
	<!ENTITY ns_flows "http://ns.adobe.com/Flows/1.0/">
]>
<svg version="1.1"
	 xmlns="http://www.w3.org/2000/svg" xmlns:xlink="http://www.w3.org/1999/xlink" xmlns:a="http://ns.adobe.com/AdobeSVGViewerExtensions/3.0/"
	 x="0px" y="0px" width="67px" height="57px" viewBox="0 0 67 57" enable-background="new 0 0 67 57" xml:space="preserve">
<defs>
</defs>
<rect fill="none" width="67" height="57"/>
<path opacity="0.15" d="M33.097,54.756c-3.151,0-7.939-14.969-7.988-19.676c0.003-2.629,4.022-3.998,7.991-3.998
	c3.876,0,7.787,1.248,7.787,4.036c-0.049,5.3-4.879,19.636-7.761,19.637l-0.029-0.999V54.756z M22.439,41.965
	c-0.184,0-0.367-0.051-0.529-0.152C15.705,37.942,12,31.283,12,24c0-11.58,9.42-21,20.999-21C44.579,3,54,12.42,54,24
	c0,7.254-3.683,13.896-9.851,17.772c-0.163,0.103-0.348,0.153-0.532,0.153c-0.202,0-0.404-0.061-0.576-0.183
	c-0.33-0.233-0.487-0.641-0.4-1.034c0.096-0.43,0.183-0.863,0.26-1.295c0.079-0.443,0.146-0.885,0.201-1.322
	c0.06-0.45,0.105-0.891,0.133-1.322c0.018-0.265,0.14-0.512,0.34-0.688c3.494-3.059,5.498-7.463,5.498-12.082
	c0-8.863-7.21-16.073-16.073-16.073S16.926,15.137,16.926,24c0,4.622,2.006,9.027,5.503,12.088c0.198,0.174,0.32,0.418,0.339,0.682
	c0.031,0.43,0.083,0.873,0.147,1.324c0.063,0.44,0.138,0.889,0.225,1.342c0.083,0.437,0.176,0.873,0.274,1.307
	c0.09,0.394-0.065,0.803-0.395,1.037C22.847,41.902,22.643,41.965,22.439,41.965L22.439,41.965z M23.113,32.947
	c-0.3-0.003-0.583-0.14-0.771-0.373c-1.98-2.459-3.027-5.424-3.027-8.574c0-7.545,6.139-13.683,13.685-13.683
	c7.545,0,13.683,6.137,13.683,13.681c0,3.146-1.043,6.107-3.018,8.563c-0.188,0.234-0.472,0.371-0.772,0.374c0,0-0.005,0-0.007,0
	c-0.298,0-0.58-0.133-0.771-0.362c-0.179-0.216-0.377-0.422-0.589-0.618c-0.205-0.188-0.428-0.369-0.663-0.539
	c-0.229-0.163-0.471-0.32-0.732-0.468c-0.255-0.144-0.435-0.393-0.49-0.681s0.018-0.585,0.2-0.814
	c1.254-1.569,1.916-3.454,1.916-5.452c0-4.828-3.929-8.756-8.757-8.756S24.242,19.172,24.242,24c0,2.01,0.666,3.902,1.928,5.474
	c0.184,0.229,0.257,0.527,0.201,0.815c-0.055,0.288-0.234,0.537-0.49,0.682c-0.259,0.146-0.505,0.303-0.735,0.468
	c-0.241,0.169-0.46,0.347-0.666,0.535c-0.211,0.194-0.411,0.397-0.59,0.613c-0.19,0.228-0.472,0.36-0.769,0.36
	C23.121,32.947,23.115,32.947,23.113,32.947z M32.998,29.688c-1.698,0-3.296-0.662-4.498-1.864c-1.204-1.202-1.867-2.8-1.866-4.499
	c0-3.511,2.855-6.369,6.364-6.369c3.51,0,6.365,2.857,6.365,6.37C39.363,26.833,36.508,29.688,32.998,29.688L32.998,29.688z"/>
<path opacity="0.3" d="M38.363,24.325c0-2.967-2.406-5.37-5.365-5.37c-2.954,0-5.364,2.403-5.364,5.37
	c-0.001,2.96,2.406,5.362,5.364,5.362C35.959,29.688,38.363,27.285,38.363,24.325z M33.1,33.082c-3.436,0-6.989,1.119-6.991,2.988
	c0.057,5.49,5.122,18.786,7.01,18.685c1.524,0.041,6.712-12.465,6.769-18.637C39.887,34.13,36.473,33.082,33.1,33.082z
	 M44.094,39.216c-0.057,0.454-0.127,0.913-0.209,1.373c-0.079,0.446-0.169,0.894-0.268,1.337C49.247,38.389,53,32.141,53,25
	c0-11.052-8.951-20-20.001-20S13,13.95,13,25c0,7.168,3.778,13.434,9.439,16.965c-0.102-0.446-0.197-0.895-0.282-1.341
	c-0.09-0.468-0.166-0.932-0.232-1.39c-0.067-0.475-0.122-0.941-0.154-1.395c-3.576-3.129-5.845-7.714-5.845-12.84
	c0-9.432,7.642-17.073,17.073-17.073c9.433,0,17.073,7.641,17.073,17.073c0,5.124-2.266,9.705-5.84,12.834
	C44.203,38.287,44.155,38.75,44.094,39.216 M24.565,31.623c0.259-0.184,0.534-0.359,0.824-0.523c-1.341-1.671-2.147-3.79-2.147-6.1
	c0-5.389,4.368-9.756,9.757-9.756c5.39,0,9.757,4.367,9.757,9.756c0,2.299-0.803,4.409-2.135,6.076
	c0.293,0.165,0.564,0.342,0.825,0.527c0.269,0.193,0.521,0.399,0.757,0.616v-0.001c0.246,0.228,0.475,0.466,0.682,0.716
	c1.747-2.173,2.797-4.93,2.797-7.937c0-7.006-5.677-12.681-12.683-12.681c-7.007,0-12.685,5.675-12.685,12.683
	c0,3.011,1.055,5.771,2.807,7.947c0.207-0.249,0.438-0.485,0.684-0.712C24.041,32.02,24.293,31.816,24.565,31.623"/>
<linearGradient id="SVGID_1_" gradientUnits="userSpaceOnUse" x1="33.0005" y1="53.7559" x2="33.0005" y2="4.0005">
	<stop  offset="0" style="stop-color:#D0CBC5"/>
	<stop  offset="0.5031" style="stop-color:#FAFCEF"/>
	<stop  offset="0.9693" style="stop-color:#FFFFFF"/>
</linearGradient>
<path fill="url(#SVGID_1_)" d="M38.363,23.325c0-2.967-2.406-5.37-5.365-5.37c-2.954,0-5.364,2.403-5.364,5.37
	c-0.001,2.96,2.406,5.362,5.364,5.362C35.959,28.688,38.363,26.285,38.363,23.325z M33.1,32.082c-3.436,0-6.989,1.119-6.991,2.988
	c0.057,5.49,5.122,18.786,7.01,18.685c1.524,0.041,6.712-12.465,6.769-18.637C39.887,33.13,36.473,32.082,33.1,32.082z
	 M44.094,38.216c-0.057,0.454-0.127,0.913-0.209,1.373c-0.079,0.446-0.169,0.894-0.268,1.337C49.247,37.389,53,31.141,53,24
	c0-11.052-8.951-20-20.001-20S13,12.95,13,24c0,7.168,3.778,13.434,9.439,16.965c-0.102-0.446-0.197-0.895-0.282-1.341
	c-0.09-0.468-0.166-0.932-0.232-1.39c-0.067-0.475-0.122-0.941-0.154-1.395c-3.576-3.129-5.845-7.714-5.845-12.84
	c0-9.432,7.642-17.073,17.073-17.073c9.433,0,17.073,7.641,17.073,17.073c0,5.124-2.266,9.705-5.84,12.834
	C44.203,37.287,44.155,37.75,44.094,38.216 M24.565,30.623c0.259-0.184,0.534-0.359,0.824-0.523c-1.341-1.671-2.147-3.79-2.147-6.1
	c0-5.389,4.368-9.756,9.757-9.756c5.39,0,9.757,4.367,9.757,9.756c0,2.299-0.803,4.409-2.135,6.076
	c0.293,0.165,0.564,0.342,0.825,0.527c0.269,0.193,0.521,0.399,0.757,0.616v-0.001c0.246,0.228,0.475,0.466,0.682,0.716
	c1.747-2.173,2.797-4.93,2.797-7.937c0-7.006-5.677-12.681-12.683-12.681c-7.007,0-12.685,5.675-12.685,12.683
	c0,3.011,1.055,5.771,2.807,7.947c0.207-0.249,0.438-0.485,0.684-0.712C24.041,31.02,24.293,30.816,24.565,30.623"/>
<path fill="#FFFFFF" d="M45.658,24.535c0.008-0.18,0.023-0.355,0.023-0.537c0-7.006-5.677-12.681-12.683-12.681
	c-7.007,0-12.685,5.675-12.685,12.683c0,0.181,0.016,0.357,0.023,0.536c0.246-6.791,5.811-12.219,12.661-12.219
	C39.849,12.317,45.412,17.746,45.658,24.535z M27.634,23.325c0,0.171,0.034,0.333,0.05,0.501c0.257-2.729,2.531-4.871,5.314-4.871
	c2.788,0,5.059,2.141,5.314,4.87c0.016-0.167,0.051-0.329,0.051-0.5c0-2.967-2.406-5.37-5.365-5.37
	C30.044,17.956,27.634,20.358,27.634,23.325z M32.999,4C21.949,4,13,12.95,13,24c0,0.203,0.014,0.403,0.02,0.605
	C13.232,13.74,22.082,5,32.999,5s19.77,8.738,19.981,19.606C52.986,24.404,53,24.203,53,24C53,12.948,44.049,4,32.999,4z
	 M33.1,32.082c-3.436,0-6.989,1.119-6.991,2.988c0.003,0.225,0.016,0.466,0.034,0.715c0.344-1.697,3.701-2.703,6.957-2.703
	c3.213,0,6.455,0.952,6.758,2.76c0.016-0.248,0.027-0.492,0.029-0.724C39.887,33.13,36.473,32.082,33.1,32.082z"/>
</svg>
