<?xml version="1.0" encoding="utf-8"?>
<!-- Generator: Adobe Illustrator 15.0.2, SVG Export Plug-In  -->
<!DOCTYPE svg PUBLIC "-//W3C//DTD SVG 1.1//EN" "http://www.w3.org/Graphics/SVG/1.1/DTD/svg11.dtd" [
	<!ENTITY ns_flows "http://ns.adobe.com/Flows/1.0/">
]>
<svg version="1.1"
	 xmlns="http://www.w3.org/2000/svg" xmlns:xlink="http://www.w3.org/1999/xlink" xmlns:a="http://ns.adobe.com/AdobeSVGViewerExtensions/3.0/"
	 x="0px" y="0px" width="67px" height="57px" viewBox="0 0 67 57" enable-background="new 0 0 67 57" xml:space="preserve">
<defs>
</defs>
<rect id="BOUNDING_BOX_1_" fill="none" width="67" height="57"/>
<path opacity="0.3" d="M50.346,23.365c-1.268,0-2.301,1.036-2.301,2.301v2.301c0,0.847-0.687,1.533-1.534,1.533
	c-0.737,0-1.328-0.532-1.473-1.232c-0.019-0.006-0.041-0.013-0.061-0.016v-5.653c0-1.265-1.033-2.298-2.298-2.298
	c-1.268,0-2.301,1.033-2.301,2.298v5.368c0,0.847-0.687,1.533-1.533,1.533c-0.848,0-1.534-0.687-1.534-1.533v-6.902
	c0-1.265-1.036-2.298-2.301-2.298c-1.264,0-2.297,1.033-2.297,2.298v6.902c0,0.847-0.687,1.533-1.534,1.533
	c-0.847,0-1.534-0.687-1.534-1.533V8.801c0-1.268-1.036-2.301-2.3-2.301c-1.268,0-2.301,1.033-2.301,2.301v25.298
	c0,0.847-0.687,1.533-1.534,1.533s-1.534-0.687-1.534-1.533v-2.702c-3-3.661-5.756-2.936-7.027-2.089c-1.341,0.896,0,2.493,0,2.493
	l12.142,18.271l0.022-0.07c0.767,1.476,2.294,2.499,4.065,2.499h12.268c2.034,0,3.754-1.351,4.354-3.195h0.02l3.767-9.476
	c0.902-2.121,1.06-5.551,1.06-5.551v-8.612C52.646,24.401,51.609,23.365,50.346,23.365z"/>
<path opacity="0.15" d="M31.18,52.5c-1.95,0-3.739-1.021-4.757-2.691c-0.062-0.053-0.117-0.113-0.164-0.184L14.143,31.393
	c-0.201-0.255-0.924-1.259-0.766-2.363c0.063-0.44,0.291-1.067,1.018-1.553c0.828-0.552,1.835-0.855,2.837-0.855
	c1.343,0,3.391,0.545,5.519,3.142c0.146,0.179,0.227,0.402,0.227,0.634v2.702c0,0.294,0.239,0.533,0.534,0.533
	s0.534-0.239,0.534-0.533V7.801c0-1.82,1.481-3.301,3.301-3.301s3.3,1.481,3.3,3.301v19.166c0,0.294,0.24,0.533,0.534,0.533
	s0.534-0.239,0.534-0.533v-6.902c0-1.818,1.479-3.298,3.297-3.298c1.82,0,3.301,1.479,3.301,3.298v6.902
	c0,0.294,0.239,0.533,0.534,0.533c0.294,0,0.533-0.239,0.533-0.533v-5.368c0-1.818,1.48-3.298,3.301-3.298
	c1.818,0,3.298,1.479,3.298,3.298v5.326c0.017,0.045,0.03,0.092,0.04,0.141c0.045,0.216,0.215,0.435,0.493,0.435
	c0.295,0,0.534-0.239,0.534-0.533v-2.301c0-1.82,1.48-3.301,3.301-3.301s3.301,1.481,3.301,3.301v8.612
	c-0.008,0.193-0.178,3.682-1.14,5.942l-3.757,9.453c-0.019,0.046-0.04,0.091-0.064,0.133c-0.809,2.218-2.889,3.693-5.238,3.693
	H31.18z"/>
<path opacity="0.15" d="M50.346,22.365c-1.268,0-2.301,1.036-2.301,2.301v2.301c0,0.847-0.687,1.533-1.534,1.533
	c-0.737,0-1.328-0.532-1.473-1.232c-0.019-0.006-0.041-0.013-0.061-0.016v-5.653c0-1.265-1.033-2.298-2.298-2.298
	c-1.268,0-2.301,1.033-2.301,2.298v5.368c0,0.847-0.687,1.533-1.533,1.533c-0.848,0-1.534-0.687-1.534-1.533v-6.902
	c0-1.265-1.036-2.298-2.301-2.298c-1.264,0-2.297,1.033-2.297,2.298v6.902c0,0.847-0.687,1.533-1.534,1.533
	c-0.847,0-1.534-0.687-1.534-1.533V7.801c0-1.268-1.036-2.301-2.3-2.301c-1.268,0-2.301,1.033-2.301,2.301v25.298
	c0,0.847-0.687,1.533-1.534,1.533s-1.534-0.687-1.534-1.533v-2.702c-3-3.661-5.756-2.936-7.027-2.089c-1.341,0.896,0,2.493,0,2.493
	l12.142,18.271l0.022-0.07c0.767,1.476,2.294,2.499,4.065,2.499h12.268c2.034,0,3.754-1.351,4.354-3.195h0.02l3.767-9.476
	c0.902-2.121,1.06-5.551,1.06-5.551v-8.612C52.646,23.401,51.609,22.365,50.346,22.365z"/>
<linearGradient id="SVGID_1_" gradientUnits="userSpaceOnUse" x1="33.5005" y1="51.5" x2="33.5005" y2="5.5005">
	<stop  offset="0" style="stop-color:#D0CBC5"/>
	<stop  offset="0.5031" style="stop-color:#FAFCEF"/>
	<stop  offset="0.9693" style="stop-color:#FFFFFF"/>
</linearGradient>
<path fill="url(#SVGID_1_)" d="M50.346,22.365c-1.268,0-2.301,1.036-2.301,2.301v2.301c0,0.847-0.687,1.533-1.534,1.533
	c-0.737,0-1.328-0.532-1.473-1.232c-0.019-0.006-0.041-0.013-0.061-0.016v-5.653c0-1.265-1.033-2.298-2.298-2.298
	c-1.268,0-2.301,1.033-2.301,2.298v5.368c0,0.847-0.687,1.533-1.533,1.533c-0.848,0-1.534-0.687-1.534-1.533v-6.902
	c0-1.265-1.036-2.298-2.301-2.298c-1.264,0-2.297,1.033-2.297,2.298v6.902c0,0.847-0.687,1.533-1.534,1.533
	c-0.847,0-1.534-0.687-1.534-1.533V7.801c0-1.268-1.036-2.301-2.3-2.301c-1.268,0-2.301,1.033-2.301,2.301v25.298
	c0,0.847-0.687,1.533-1.534,1.533s-1.534-0.687-1.534-1.533v-2.702c-3-3.661-5.756-2.936-7.027-2.089c-1.341,0.896,0,2.493,0,2.493
	l12.142,18.271l0.022-0.07c0.767,1.476,2.294,2.499,4.065,2.499h12.268c2.034,0,3.754-1.351,4.354-3.195h0.02l3.767-9.476
	c0.902-2.121,1.06-5.551,1.06-5.551v-8.612C52.646,23.401,51.609,22.365,50.346,22.365z"/>
<path fill="#FFFFFF" d="M50.346,22.365c-1.268,0-2.301,1.036-2.301,2.301v1c0-1.265,1.033-2.301,2.301-2.301
	c1.264,0,2.301,1.036,2.301,2.301v-1C52.646,23.401,51.609,22.365,50.346,22.365z"/>
<path fill="#FFFFFF" d="M35.011,18.767c1.265,0,2.301,1.033,2.301,2.298v-1c0-1.265-1.036-2.298-2.301-2.298
	c-1.264,0-2.297,1.033-2.297,2.298v1C32.713,19.8,33.747,18.767,35.011,18.767z"/>
<path fill="#FFFFFF" d="M42.68,20.301c1.265,0,2.298,1.033,2.298,2.298v-1c0-1.265-1.033-2.298-2.298-2.298
	c-1.268,0-2.301,1.033-2.301,2.298v1C40.379,21.334,41.412,20.301,42.68,20.301z"/>
<path fill="#FFFFFF" d="M44.978,28.252c0.02,0.003,0.042,0.01,0.061,0.016c0.145,0.7,0.735,1.232,1.473,1.232
	c0.848,0,1.534-0.687,1.534-1.533v-1c0,0.847-0.687,1.533-1.534,1.533c-0.737,0-1.328-0.532-1.473-1.232
	c-0.019-0.006-0.041-0.013-0.061-0.016V28.252z"/>
<path fill="#FFFFFF" d="M37.312,27.967c0,0.847,0.687,1.533,1.534,1.533c0.847,0,1.533-0.687,1.533-1.533v-1
	c0,0.847-0.687,1.533-1.533,1.533c-0.848,0-1.534-0.687-1.534-1.533V27.967z"/>
<path fill="#FFFFFF" d="M14.95,29.308c1.271-0.847,4.027-1.572,7.027,2.089v-1c-3-3.661-5.756-2.936-7.027-2.089
	c-0.669,0.447-0.67,1.068-0.504,1.58C14.534,29.679,14.691,29.48,14.95,29.308z"/>
<path fill="#FFFFFF" d="M21.977,34.099c0,0.847,0.687,1.533,1.534,1.533s1.534-0.687,1.534-1.533v-1
	c0,0.847-0.687,1.533-1.534,1.533s-1.534-0.687-1.534-1.533V34.099z"/>
<path fill="#FFFFFF" d="M29.646,27.967c0,0.847,0.687,1.533,1.534,1.533c0.847,0,1.534-0.687,1.534-1.533v-1
	c0,0.847-0.687,1.533-1.534,1.533c-0.847,0-1.534-0.687-1.534-1.533V27.967z"/>
<path fill="#FFFFFF" d="M27.345,6.5c1.264,0,2.3,1.033,2.3,2.301v-1c0-1.268-1.036-2.301-2.3-2.301
	c-1.268,0-2.301,1.033-2.301,2.301v1C25.044,7.533,26.078,6.5,27.345,6.5z"/>
</svg>
