<?xml version="1.0" encoding="utf-8"?>
<!-- Generator: Adobe Illustrator 15.0.0, SVG Export Plug-In . SVG Version: 6.00 Build 0)  -->
<!DOCTYPE svg PUBLIC "-//W3C//DTD SVG 1.1//EN" "http://www.w3.org/Graphics/SVG/1.1/DTD/svg11.dtd">
<svg version="1.1" id="Ebene_1" xmlns="http://www.w3.org/2000/svg" xmlns:xlink="http://www.w3.org/1999/xlink" x="0px" y="0px"
	 width="67px" height="57px" viewBox="0 0 67 57" enable-background="new 0 0 67 57" xml:space="preserve">
<rect fill="none" width="67" height="57"/>
<path opacity="0.15" enable-background="new    " d="M54.945,35.417c0.019,0.001,0.037,0.001,0.055,0.001
	c0.221,0,0.438-0.072,0.616-0.213C55.857,35.016,56,34.727,56,34.418V13c0-1.654-1.346-3-3-3H13c-1.654,0-3,1.346-3,3v32
	c0,1.654,1.346,3,3,3h22.896c0.295,0,0.572-0.129,0.764-0.354c0.148-0.176,0.232-0.397,0.236-0.625
	C37.645,51.275,40.248,53,45.506,53h5.655C57.521,53,60,50.477,60,43.999C60,39.012,58.529,36.367,54.945,35.417z M15,43v-1
	c0,0.553,0.447,1,1,1H15z M36.666,43.999C36.666,44,36.666,44.001,36.666,43.999c0-0.552-0.447-0.999-1-0.999h0.102
	c0.461,0,0.856-0.314,0.969-0.751C36.688,42.797,36.666,43.38,36.666,43.999z M43.604,22.276c-0.199-0.163-0.715-0.521-1.393-0.521
	c-0.682,0-1.195,0.359-1.396,0.522l-9.839,6.637l-6.388-3.971c-0.212-0.17-0.717-0.51-1.378-0.51c-0.792,0-1.361,0.488-1.44,0.562
	l-6.421,5.491c-0.222,0.188-0.35,0.468-0.35,0.76V15h36v12.777c0-0.333-0.166-0.645-0.441-0.83L43.604,22.276z M46,46.861v-6.391
	l5.113,3.193L46,46.861z M51.161,35H50c0.553,0,1-0.447,1-1v0.023c0,0.494,0.359,0.908,0.836,0.985
	C51.616,35.003,51.391,35,51.161,35z"/>
<path opacity="0.3" enable-background="new    " d="M14,45V15h38v20.023c1.109,0.043,2.107,0.174,3,0.395V14c0-1.1-0.9-2-2-2H13
	c-1.101,0-2,0.9-2,2v32c0,1.1,0.899,2,2,2h22.896c-0.148-0.906-0.23-1.898-0.23-3H14z M41.422,24.075l-10.421,7.028L31,31.105
	l-7-4.352c0,0-0.348-0.321-0.789-0.321s-0.79,0.321-0.79,0.321L16,32.246V43h19.768c0.545-5.575,3.541-8,9.738-8H50v-6.223l-7-4.702
	c0,0-0.348-0.32-0.788-0.32C41.77,23.755,41.422,24.075,41.422,24.075z M51.161,37h-5.655c-5.809,0-7.84,2.072-7.84,7.999
	c0,5.929,2.031,8.001,7.84,8.001h5.655C56.969,53,59,50.928,59,44.999C59,39.072,56.969,37,51.161,37z M45,49.667v-10l8,4.998
	L45,49.667z"/>
<linearGradient id="SVGID_1_" gradientUnits="userSpaceOnUse" x1="172.4805" y1="-255.0195" x2="172.4805" y2="-214.0195" gradientTransform="matrix(1 0 0 -1 -137.48 -203.0195)">
	<stop  offset="0" style="stop-color:#D0CBC5"/>
	<stop  offset="0.5031" style="stop-color:#FAFCEF"/>
	<stop  offset="0.9693" style="stop-color:#FFFFFF"/>
</linearGradient>
<path fill="url(#SVGID_1_)" d="M14,44V14h38v20.023c1.109,0.043,2.107,0.174,3,0.395V13c0-1.1-0.9-2-2-2H13c-1.101,0-2,0.9-2,2v32
	c0,1.1,0.899,2,2,2h22.896c-0.148-0.906-0.23-1.898-0.23-3H14z M41.422,23.075l-10.421,7.028L31,30.105l-7-4.352
	c0,0-0.348-0.321-0.789-0.321s-0.79,0.321-0.79,0.321L16,31.246V42h19.768c0.545-5.575,3.541-8,9.738-8H50v-6.223l-7-4.702
	c0,0-0.348-0.32-0.788-0.32C41.77,22.755,41.422,23.075,41.422,23.075z M51.161,36h-5.655c-5.809,0-7.84,2.072-7.84,7.999
	c0,5.929,2.031,8.001,7.84,8.001h5.655C56.969,52,59,49.928,59,43.999C59,38.072,56.969,36,51.161,36z M45,48.667v-10l8,4.998
	L45,48.667z"/>
<path fill="#FFFFFF" d="M55,14v-1c0-1.1-0.9-2-2-2H13c-1.101,0-2,0.9-2,2v1c0-1.1,0.899-2,2-2h40C54.1,12,55,12.9,55,14z
	 M41.422,23.075l-10.421,7.028L31,30.105l-7-4.352c0,0-0.348-0.321-0.789-0.321s-0.79,0.321-0.79,0.321L16,31.246v1l6.421-5.491
	c0,0,0.349-0.321,0.79-0.321S24,26.755,24,26.755l7,4.351l0.001-0.002l10.421-7.027c0,0,0.348-0.32,0.79-0.32
	c0.44,0,0.788,0.32,0.788,0.32l7,4.702v-1l-7-4.702c0,0-0.348-0.32-0.788-0.32C41.77,22.755,41.422,23.075,41.422,23.075z
	 M51.161,36h-5.655c-5.809,0-7.84,2.072-7.84,7.999c0,0.174,0.008,0.333,0.012,0.5C37.794,38.965,39.867,37,45.506,37h5.655
	c5.638,0,7.711,1.965,7.827,7.499c0.004-0.167,0.012-0.326,0.012-0.5C59,38.072,56.969,36,51.161,36z M14,44v1h21.666
	c0,0.716,0.046,1.37,0.111,2h0.119c-0.148-0.906-0.23-1.898-0.23-3H14z M45,48.667v1l8-5.002l-0.8-0.5L45,48.667z"/>
</svg>
