<?xml version="1.0" encoding="utf-8"?>
<!-- Generator: Adobe Illustrator 15.0.2, SVG Export Plug-In . SVG Version: 6.00 Build 0)  -->
<!DOCTYPE svg PUBLIC "-//W3C//DTD SVG 1.1//EN" "http://www.w3.org/Graphics/SVG/1.1/DTD/svg11.dtd">
<svg version="1.1" xmlns="http://www.w3.org/2000/svg" xmlns:xlink="http://www.w3.org/1999/xlink" x="0px" y="0px" width="67px"
	 height="57px" viewBox="0 0 67 57" enable-background="new 0 0 67 57" xml:space="preserve">
<g id="DO_NOT_EDIT_-_BOUNDING_BOX">
	<rect id="BOUNDING_BOX" fill="none" width="67" height="57"/>
</g>
<g id="PLACE_YOUR_GRAPHIC_HERE">
	<g>
		<linearGradient id="SVGID_1_" gradientUnits="userSpaceOnUse" x1="33.5005" y1="51.9883" x2="33.5005" y2="5.0117">
			<stop  offset="0" style="stop-color:#D0CBC5"/>
			<stop  offset="0.5031" style="stop-color:#FAFCEF"/>
			<stop  offset="0.9693" style="stop-color:#FFFFFF"/>
		</linearGradient>
		<path fill="url(#SVGID_1_)" d="M34.754,23.578c2.814,0.43,5.391,1.017,7.527,1.611v-7.163c-3.25-0.843-6.482-1.338-8.964-1.694
			c0,0-1.385-0.142-1.385,1.308v17.173c-0.958-0.431-2.078-0.69-3.288-0.69c-3.386,0-6.122,1.91-6.122,4.275
			c0,2.366,2.736,4.275,6.122,4.275c3.376,0,6.11-1.909,6.11-4.275V23.578z M20.522,38.397c0-3.519,3.568-6.275,8.122-6.275
			c0.431,0,0.862,0.027,1.288,0.081V29H11.005C11.004,29.168,11,29.33,11,29.5c0,16.328,5.602,22.254,21.5,22.488V43.94
			c-1.141,0.468-2.451,0.732-3.856,0.732C24.09,44.673,20.522,41.916,20.522,38.397z M29.932,17.639
			c0-1.667,1.045-2.935,2.568-3.239V7.011C17.443,7.234,11.625,12.566,11.051,27h18.881V17.639z M44.281,18.026v7.163
			c0,0.625-0.292,1.214-0.79,1.593c-0.126,0.096-0.271,0.156-0.413,0.218h12.87C55.375,12.566,49.558,7.233,34.5,7.011v7.477
			c2.672,0.396,5.444,0.866,8.283,1.602C43.665,16.319,44.281,17.115,44.281,18.026z M55.994,29h-19.24v9.397
			c0,1.719-0.854,3.253-2.254,4.375v9.216C50.399,51.754,56,45.828,56,29.5C56,29.33,55.996,29.168,55.994,29z"/>
		<linearGradient id="SVGID_2_" gradientUnits="userSpaceOnUse" x1="33.5005" y1="51.9883" x2="33.5005" y2="5.0117">
			<stop  offset="0" style="stop-color:#D0CBC5"/>
			<stop  offset="0.5031" style="stop-color:#FAFCEF"/>
			<stop  offset="0.9693" style="stop-color:#FFFFFF"/>
		</linearGradient>
		<path fill="url(#SVGID_2_)" d="M34.5,51.988c-0.263,0-0.515-0.104-0.702-0.288c-0.191-0.188-0.298-0.444-0.298-0.712
			c0,0.268-0.107,0.524-0.298,0.712c-0.187,0.185-0.439,0.288-0.702,0.288c-0.005,0-0.01,0-0.015,0C16.094,51.746,10,45.381,10,28.5
			l0.005-0.506c0.003-0.55,0.45-0.994,1-0.994h0.046c-0.272,0-0.532-0.111-0.721-0.307c-0.188-0.196-0.289-0.461-0.278-0.732
			c0.59-14.845,6.88-20.719,22.433-20.949c0.005,0,0.01,0,0.015,0c0.263,0,0.515,0.103,0.702,0.288
			C33.393,5.487,33.5,5.744,33.5,6.011c0-0.268,0.107-0.524,0.298-0.712c0.187-0.185,0.439-0.288,0.702-0.288
			c0.005,0,0.01,0,0.015,0c15.554,0.229,21.843,6.103,22.433,20.949c0.011,0.272-0.09,0.536-0.278,0.732S56.221,27,55.948,27h0.046
			c0.548,0,0.993,0.44,1,0.988L57,28.5c0,16.881-6.094,23.246-22.485,23.488C34.51,51.988,34.505,51.988,34.5,51.988z M32.5,41.94
			c0.196,0,0.39,0.058,0.557,0.17c0.277,0.186,0.443,0.497,0.443,0.83v-1.168c0-0.259,0.1-0.505,0.276-0.689
			c-0.459,0.352-0.985,0.655-1.565,0.9C32.306,41.954,32.403,41.94,32.5,41.94z M28.644,32.122c-3.994,0-7.122,2.317-7.122,5.275
			C21.522,34.439,24.65,32.122,28.644,32.122z M29.584,32.17c0.457,0.047,0.908,0.127,1.348,0.239V26c0,0.552-0.448,1-1,1
			c0.552,0,1,0.448,1,1v3.203c0,0.287-0.124,0.561-0.339,0.75c-0.184,0.162-0.419,0.25-0.661,0.25c-0.042,0-0.083-0.003-0.125-0.008
			C29.733,32.186,29.659,32.178,29.584,32.17z M35.754,28c0-0.552,0.447-1,1-1h6.324c-0.474,0-0.882-0.332-0.979-0.795
			c-0.087-0.414,0.097-0.832,0.446-1.052c-0.086,0.023-0.175,0.036-0.265,0.036s-0.18-0.012-0.269-0.037
			c-2-0.557-4.143-1.035-6.259-1.399V28zz M42.606,16.08c-0.024-0.008-0.314-0.084-0.434-0.114
			C42.292,15.996,42.582,16.072,42.606,16.08z M33.419,14.337c0.28,0.04,0.561,0.081,0.843,0.123
			c-0.443-0.108-0.763-0.507-0.763-0.972V13.4c0,0.461-0.315,0.861-0.76,0.971c0.158-0.029,0.318-0.043,0.478-0.043
			C33.252,14.328,33.385,14.333,33.419,14.337z"/>
		<linearGradient id="SVGID_3_" gradientUnits="userSpaceOnUse" x1="33.5005" y1="51.9883" x2="33.5005" y2="5.0117">
			<stop  offset="0" style="stop-color:#D0CBC5"/>
			<stop  offset="0.5031" style="stop-color:#FAFCEF"/>
			<stop  offset="0.9693" style="stop-color:#FFFFFF"/>
		</linearGradient>
		<path fill="url(#SVGID_3_)" d="M34.754,22.578c2.814,0.43,5.391,1.017,7.527,1.611v-7.163c-3.25-0.843-6.482-1.338-8.964-1.694
			c0,0-1.385-0.142-1.385,1.308v17.173c-0.958-0.431-2.078-0.69-3.288-0.69c-3.386,0-6.122,1.91-6.122,4.275
			c0,2.366,2.736,4.275,6.122,4.275c3.376,0,6.11-1.909,6.11-4.275V22.578z M20.522,37.397c0-3.519,3.568-6.275,8.122-6.275
			c0.431,0,0.862,0.027,1.288,0.081V28H11.005C11.004,28.168,11,28.33,11,28.5c0,16.328,5.602,22.254,21.5,22.488V42.94
			c-1.141,0.468-2.451,0.732-3.856,0.732C24.09,43.673,20.522,40.916,20.522,37.397z M29.932,16.639
			c0-1.667,1.045-2.935,2.568-3.239V6.011C17.443,6.234,11.625,11.566,11.051,26h18.881V16.639z M44.281,17.026v7.163
			c0,0.625-0.292,1.214-0.79,1.593c-0.126,0.096-0.271,0.156-0.413,0.218h12.87C55.375,11.566,49.558,6.233,34.5,6.011v7.477
			c2.672,0.396,5.444,0.866,8.283,1.602C43.665,15.319,44.281,16.115,44.281,17.026z M55.994,28h-19.24v9.397
			c0,1.719-0.854,3.253-2.254,4.375v9.216C50.399,50.754,56,44.828,56,28.5C56,28.33,55.996,28.168,55.994,28z"/>
		<linearGradient id="SVGID_4_" gradientUnits="userSpaceOnUse" x1="33.5005" y1="51.9883" x2="33.5005" y2="5.0117">
			<stop  offset="0" style="stop-color:#D0CBC5"/>
			<stop  offset="0.5031" style="stop-color:#FAFCEF"/>
			<stop  offset="0.9693" style="stop-color:#FFFFFF"/>
		</linearGradient>
		<path fill="url(#SVGID_4_)" d="M34.754,22.578c2.814,0.43,5.391,1.017,7.527,1.611v-7.163c-3.25-0.843-6.482-1.338-8.964-1.694
			c0,0-1.385-0.142-1.385,1.308v17.173c-0.958-0.431-2.078-0.69-3.288-0.69c-3.386,0-6.122,1.91-6.122,4.275
			c0,2.366,2.736,4.275,6.122,4.275c3.376,0,6.11-1.909,6.11-4.275V22.578z M20.522,37.397c0-3.519,3.568-6.275,8.122-6.275
			c0.431,0,0.862,0.027,1.288,0.081V28H11.005C11.004,28.168,11,28.33,11,28.5c0,16.328,5.602,22.254,21.5,22.488V42.94
			c-1.141,0.468-2.451,0.732-3.856,0.732C24.09,43.673,20.522,40.916,20.522,37.397z M29.932,16.639
			c0-1.667,1.045-2.935,2.568-3.239V6.011C17.443,6.234,11.625,11.566,11.051,26h18.881V16.639z M44.281,17.026v7.163
			c0,0.625-0.292,1.214-0.79,1.593c-0.126,0.096-0.271,0.156-0.413,0.218h12.87C55.375,11.566,49.558,6.233,34.5,6.011v7.477
			c2.672,0.396,5.444,0.866,8.283,1.602C43.665,15.319,44.281,16.115,44.281,17.026z M55.994,28h-19.24v9.397
			c0,1.719-0.854,3.253-2.254,4.375v9.216C50.399,50.754,56,44.828,56,28.5C56,28.33,55.996,28.168,55.994,28z"/>
		<linearGradient id="SVGID_5_" gradientUnits="userSpaceOnUse" x1="33.5005" y1="51.9883" x2="33.5005" y2="5.0117">
			<stop  offset="0" style="stop-color:#D0CBC5"/>
			<stop  offset="0.5031" style="stop-color:#FAFCEF"/>
			<stop  offset="0.9693" style="stop-color:#FFFFFF"/>
		</linearGradient>
		<path fill="url(#SVGID_5_)" d="M43.078,26h1.023c0.112-0.253,0.18-0.527,0.18-0.811v-1c0,0.625-0.292,1.214-0.79,1.593
			C43.365,25.878,43.221,25.938,43.078,26z M55.883,26h0.065C55.375,11.566,49.558,6.233,34.5,6.011v1
			C49.195,7.228,55.075,12.337,55.883,26z M56,28.5c0-0.17-0.004-0.332-0.006-0.5h-19.24v1h19.24c0,0.005,0,0.01,0,0.016
			C55.996,28.842,56,28.675,56,28.5z M22.522,37.397c0,0.17,0.018,0.336,0.045,0.5c0.354-2.128,2.934-3.775,6.077-3.775
			c1.21,0,2.33,0.26,3.288,0.69v-1c-0.958-0.431-2.078-0.69-3.288-0.69C25.258,33.122,22.522,35.032,22.522,37.397z M34.5,41.772v1
			c1.399-1.122,2.254-2.656,2.254-4.375v-1C36.754,39.116,35.899,40.65,34.5,41.772z M20.554,37.897
			c-0.016,0.165-0.032,0.331-0.032,0.5c0,3.519,3.568,6.275,8.122,6.275c1.405,0,2.715-0.265,3.856-0.732v-1
			c-1.141,0.468-2.451,0.732-3.856,0.732C24.309,43.673,20.875,41.173,20.554,37.897z M42.281,17.026
			c-3.25-0.843-6.482-1.338-8.964-1.694c0,0-1.385-0.142-1.385,1.308v1c0-1.45,1.385-1.308,1.385-1.308
			c2.481,0.356,5.714,0.852,8.964,1.694V17.026z M29.932,28H11.005C11.004,28.168,11,28.33,11,28.5s0.004,0.332,0.005,0.5h18.927V28
			z M32.5,7.011v-1C17.443,6.234,11.625,11.566,11.051,26h0.065C11.925,12.337,17.805,7.229,32.5,7.011z"/>
	</g>
	<g>
		<path opacity="0.3" d="M34.754,23.578c2.814,0.43,5.391,1.017,7.527,1.611v-7.163c-3.25-0.843-6.482-1.338-8.964-1.694
			c0,0-1.385-0.142-1.385,1.308v17.173c-0.958-0.431-2.078-0.69-3.288-0.69c-3.386,0-6.122,1.91-6.122,4.275
			c0,2.366,2.736,4.275,6.122,4.275c3.376,0,6.11-1.909,6.11-4.275V23.578z M20.522,38.397c0-3.519,3.568-6.275,8.122-6.275
			c0.431,0,0.862,0.027,1.288,0.081V29H11.005C11.004,29.168,11,29.33,11,29.5c0,16.328,5.602,22.254,21.5,22.488V43.94
			c-1.141,0.468-2.451,0.732-3.856,0.732C24.09,44.673,20.522,41.916,20.522,38.397z M29.932,17.639
			c0-1.667,1.045-2.935,2.568-3.239V7.011C17.443,7.234,11.625,12.566,11.051,27h18.881V17.639z M44.281,18.026v7.163
			c0,0.625-0.292,1.214-0.79,1.593c-0.126,0.096-0.271,0.156-0.413,0.218h12.87C55.375,12.566,49.558,7.233,34.5,7.011v7.477
			c2.672,0.396,5.444,0.866,8.283,1.602C43.665,16.319,44.281,17.115,44.281,18.026z M55.994,29h-19.24v9.397
			c0,1.719-0.854,3.253-2.254,4.375v9.216C50.399,51.754,56,45.828,56,29.5C56,29.33,55.996,29.168,55.994,29z"/>
		<path opacity="0.15" d="M34.5,51.988c-0.263,0-0.515-0.104-0.702-0.288c-0.191-0.188-0.298-0.444-0.298-0.712
			c0,0.268-0.107,0.524-0.298,0.712c-0.187,0.185-0.439,0.288-0.702,0.288c-0.005,0-0.01,0-0.015,0C16.094,51.746,10,45.381,10,28.5
			l0.005-0.506c0.003-0.55,0.45-0.994,1-0.994h0.046c-0.272,0-0.532-0.111-0.721-0.307c-0.188-0.196-0.289-0.461-0.278-0.732
			c0.59-14.845,6.88-20.719,22.433-20.949c0.005,0,0.01,0,0.015,0c0.263,0,0.515,0.103,0.702,0.288
			C33.393,5.487,33.5,5.744,33.5,6.011c0-0.268,0.107-0.524,0.298-0.712c0.187-0.185,0.439-0.288,0.702-0.288
			c0.005,0,0.01,0,0.015,0c15.554,0.229,21.843,6.103,22.433,20.949c0.011,0.272-0.09,0.536-0.278,0.732S56.221,27,55.948,27h0.046
			c0.548,0,0.993,0.44,1,0.988L57,28.5c0,16.881-6.094,23.246-22.485,23.488C34.51,51.988,34.505,51.988,34.5,51.988z M32.5,41.94
			c0.196,0,0.39,0.058,0.557,0.17c0.277,0.186,0.443,0.497,0.443,0.83v-1.168c0-0.259,0.1-0.505,0.276-0.689
			c-0.459,0.352-0.985,0.655-1.565,0.9C32.306,41.954,32.403,41.94,32.5,41.94z M28.644,32.122c-3.994,0-7.122,2.317-7.122,5.275
			C21.522,34.439,24.65,32.122,28.644,32.122z M29.584,32.17c0.457,0.047,0.908,0.127,1.348,0.239V26c0,0.552-0.448,1-1,1
			c0.552,0,1,0.448,1,1v3.203c0,0.287-0.124,0.561-0.339,0.75c-0.184,0.162-0.419,0.25-0.661,0.25c-0.042,0-0.083-0.003-0.125-0.008
			C29.733,32.186,29.659,32.178,29.584,32.17z M35.754,28c0-0.552,0.447-1,1-1h6.324c-0.474,0-0.882-0.332-0.979-0.795
			c-0.087-0.414,0.097-0.832,0.446-1.052c-0.086,0.023-0.175,0.036-0.265,0.036s-0.18-0.012-0.269-0.037
			c-2-0.557-4.143-1.035-6.259-1.399V28zz M42.606,16.08c-0.024-0.008-0.314-0.084-0.434-0.114
			C42.292,15.996,42.582,16.072,42.606,16.08z M33.419,14.337c0.28,0.04,0.561,0.081,0.843,0.123
			c-0.443-0.108-0.763-0.507-0.763-0.972V13.4c0,0.461-0.315,0.861-0.76,0.971c0.158-0.029,0.318-0.043,0.478-0.043
			C33.252,14.328,33.385,14.333,33.419,14.337z"/>
		<path opacity="0.15" d="M34.754,22.578c2.814,0.43,5.391,1.017,7.527,1.611v-7.163c-3.25-0.843-6.482-1.338-8.964-1.694
			c0,0-1.385-0.142-1.385,1.308v17.173c-0.958-0.431-2.078-0.69-3.288-0.69c-3.386,0-6.122,1.91-6.122,4.275
			c0,2.366,2.736,4.275,6.122,4.275c3.376,0,6.11-1.909,6.11-4.275V22.578z M20.522,37.397c0-3.519,3.568-6.275,8.122-6.275
			c0.431,0,0.862,0.027,1.288,0.081V28H11.005C11.004,28.168,11,28.33,11,28.5c0,16.328,5.602,22.254,21.5,22.488V42.94
			c-1.141,0.468-2.451,0.732-3.856,0.732C24.09,43.673,20.522,40.916,20.522,37.397z M29.932,16.639
			c0-1.667,1.045-2.935,2.568-3.239V6.011C17.443,6.234,11.625,11.566,11.051,26h18.881V16.639z M44.281,17.026v7.163
			c0,0.625-0.292,1.214-0.79,1.593c-0.126,0.096-0.271,0.156-0.413,0.218h12.87C55.375,11.566,49.558,6.233,34.5,6.011v7.477
			c2.672,0.396,5.444,0.866,8.283,1.602C43.665,15.319,44.281,16.115,44.281,17.026z M55.994,28h-19.24v9.397
			c0,1.719-0.854,3.253-2.254,4.375v9.216C50.399,50.754,56,44.828,56,28.5C56,28.33,55.996,28.168,55.994,28z"/>
		<linearGradient id="SVGID_6_" gradientUnits="userSpaceOnUse" x1="33.5005" y1="50.9883" x2="33.5005" y2="6.0117">
			<stop  offset="0" style="stop-color:#D0CBC5"/>
			<stop  offset="0.5031" style="stop-color:#FAFCEF"/>
			<stop  offset="0.9693" style="stop-color:#FFFFFF"/>
		</linearGradient>
		<path fill="url(#SVGID_6_)" d="M34.754,22.578c2.814,0.43,5.391,1.017,7.527,1.611v-7.163c-3.25-0.843-6.482-1.338-8.964-1.694
			c0,0-1.385-0.142-1.385,1.308v17.173c-0.958-0.431-2.078-0.69-3.288-0.69c-3.386,0-6.122,1.91-6.122,4.275
			c0,2.366,2.736,4.275,6.122,4.275c3.376,0,6.11-1.909,6.11-4.275V22.578z M20.522,37.397c0-3.519,3.568-6.275,8.122-6.275
			c0.431,0,0.862,0.027,1.288,0.081V28H11.005C11.004,28.168,11,28.33,11,28.5c0,16.328,5.602,22.254,21.5,22.488V42.94
			c-1.141,0.468-2.451,0.732-3.856,0.732C24.09,43.673,20.522,40.916,20.522,37.397z M29.932,16.639
			c0-1.667,1.045-2.935,2.568-3.239V6.011C17.443,6.234,11.625,11.566,11.051,26h18.881V16.639z M44.281,17.026v7.163
			c0,0.625-0.292,1.214-0.79,1.593c-0.126,0.096-0.271,0.156-0.413,0.218h12.87C55.375,11.566,49.558,6.233,34.5,6.011v7.477
			c2.672,0.396,5.444,0.866,8.283,1.602C43.665,15.319,44.281,16.115,44.281,17.026z M55.994,28h-19.24v9.397
			c0,1.719-0.854,3.253-2.254,4.375v9.216C50.399,50.754,56,44.828,56,28.5C56,28.33,55.996,28.168,55.994,28z"/>
		<path fill="#FFFFFF" d="M43.078,26h1.023c0.112-0.253,0.18-0.527,0.18-0.811v-1c0,0.625-0.292,1.214-0.79,1.593
			C43.365,25.878,43.221,25.938,43.078,26z M55.883,26h0.065C55.375,11.566,49.558,6.233,34.5,6.011v1
			C49.195,7.228,55.075,12.337,55.883,26z M56,28.5c0-0.17-0.004-0.332-0.006-0.5h-19.24v1h19.24c0,0.005,0,0.01,0,0.016
			C55.996,28.842,56,28.675,56,28.5z M22.522,37.397c0,0.17,0.018,0.336,0.045,0.5c0.354-2.128,2.934-3.775,6.077-3.775
			c1.21,0,2.33,0.26,3.288,0.69v-1c-0.958-0.431-2.078-0.69-3.288-0.69C25.258,33.122,22.522,35.032,22.522,37.397z M34.5,41.772v1
			c1.399-1.122,2.254-2.656,2.254-4.375v-1C36.754,39.116,35.899,40.65,34.5,41.772z M20.554,37.897
			c-0.016,0.165-0.032,0.331-0.032,0.5c0,3.519,3.568,6.275,8.122,6.275c1.405,0,2.715-0.265,3.856-0.732v-1
			c-1.141,0.468-2.451,0.732-3.856,0.732C24.309,43.673,20.875,41.173,20.554,37.897z M42.281,17.026
			c-3.25-0.843-6.482-1.338-8.964-1.694c0,0-1.385-0.142-1.385,1.308v1c0-1.45,1.385-1.308,1.385-1.308
			c2.481,0.356,5.714,0.852,8.964,1.694V17.026z M29.932,28H11.005C11.004,28.168,11,28.33,11,28.5s0.004,0.332,0.005,0.5h18.927V28
			z M32.5,7.011v-1C17.443,6.234,11.625,11.566,11.051,26h0.065C11.925,12.337,17.805,7.229,32.5,7.011z"/>
	</g>
</g>
<g id="DO_NOT_EDIT_-_FOCAL_ZONE_GUIDES">
</g>
</svg>
