<?xml version="1.0" encoding="utf-8"?>
<!-- Generator: Adobe Illustrator 14.0.0, SVG Export Plug-In  -->
<!DOCTYPE svg PUBLIC "-//W3C//DTD SVG 1.1//EN" "http://www.w3.org/Graphics/SVG/1.1/DTD/svg11.dtd" [
	<!ENTITY ns_flows "http://ns.adobe.com/Flows/1.0/">
]>
<svg version="1.1"
	 xmlns="http://www.w3.org/2000/svg" xmlns:xlink="http://www.w3.org/1999/xlink" xmlns:a="http://ns.adobe.com/AdobeSVGViewerExtensions/3.0/"
	 x="0px" y="0px" width="67px" height="57px" viewBox="0 0 67 57" enable-background="new 0 0 67 57" xml:space="preserve">
<defs>
</defs>
<g>
	<rect fill="none" width="67" height="57"/>
</g>
<g>
	<rect x="10.5" y="5.5" fill="none" width="46" height="46"/>
</g>
<path opacity="0.15" d="M33.002,53C24.155,53,14,50.158,14,28C14,5.842,24.155,3,33.002,3C41.847,3,52,5.842,52,28
	c0.001,10.337-1.926,17.214-5.89,21.025C42.478,52.519,37.663,53,33.002,53L33.002,53z M31.587,30.898
	c0.147,0,0.295,0.033,0.433,0.1c0.347,0.166,0.567,0.516,0.567,0.9V44.83l8.949-10.068l-6.245-6.407
	c-0.379-0.389-0.379-1.008,0-1.396l6.245-6.402l-8.949-10.068v12.927c0,0.404-0.243,0.77-0.617,0.924
	c-0.124,0.052-0.254,0.076-0.383,0.076c-0.26,0-0.516-0.102-0.707-0.293l-6.364-6.362l-1.36,1.36l8.999,7.78
	c0.231,0.2,0.358,0.495,0.345,0.801s-0.166,0.588-0.413,0.768l-8.86,6.387l1.364,1.365l6.372-5.102
	C31.143,30.972,31.364,30.898,31.587,30.898L31.587,30.898z M34.414,39.972c-0.129,0-0.259-0.023-0.383-0.076
	c-0.374-0.154-0.617-0.52-0.617-0.924v-8.488c0-0.404,0.244-0.77,0.617-0.924c0.124-0.053,0.254-0.076,0.383-0.076
	c0.26,0,0.516,0.102,0.707,0.293l4.245,4.246c0.188,0.188,0.293,0.441,0.293,0.707s-0.105,0.52-0.293,0.707l-4.245,4.242
	C34.93,39.871,34.674,39.972,34.414,39.972L34.414,39.972z M34.414,25.829c-0.129,0-0.259-0.024-0.383-0.076
	c-0.374-0.155-0.617-0.52-0.617-0.924v-8.484c0-0.404,0.243-0.769,0.617-0.924c0.124-0.052,0.254-0.076,0.383-0.076
	c0.26,0,0.516,0.102,0.707,0.293l4.245,4.242c0.188,0.188,0.293,0.441,0.293,0.707s-0.105,0.52-0.293,0.707l-4.245,4.242
	C34.93,25.728,34.674,25.829,34.414,25.829L34.414,25.829z"/>
<path opacity="0.3" d="M33.002,5C24.101,5,15,7.852,15,29c0,21.148,9.1,24,18.002,24c9.107,0,18-1.854,17.998-24
	C51,7.853,41.902,5,33.002,5z M42.902,35.73L31.587,48.46V32.898l-7.071,5.662l-2.828-2.83l9.813-7.074l-9.813-8.483l2.828-2.828
	l7.071,7.069V8.857l11.315,12.729l-6.896,7.069L42.902,35.73z M34.414,39.972l4.245-4.242l-4.245-4.246V39.972z M34.414,17.345
	v8.484l4.245-4.242L34.414,17.345z"/>
<linearGradient id="SVGID_1_" gradientUnits="userSpaceOnUse" x1="33.0005" y1="51.9995" x2="33.0005" y2="4.0005">
	<stop  offset="0" style="stop-color:#D0CBC5"/>
	<stop  offset="0.5031" style="stop-color:#FAFCEF"/>
	<stop  offset="0.9693" style="stop-color:#FFFFFF"/>
</linearGradient>
<path fill="url(#SVGID_1_)" d="M33.002,4C24.101,4,15,6.852,15,28c0,21.148,9.1,24,18.002,24c9.107,0,18-1.854,17.998-24
	C51,6.853,41.902,4,33.002,4z M42.902,34.73L31.587,47.46V31.898l-7.071,5.662l-2.828-2.83l9.813-7.074l-9.813-8.483l2.828-2.828
	l7.071,7.069V7.857l11.315,12.729l-6.896,7.069L42.902,34.73z M34.414,38.972l4.245-4.242l-4.245-4.246V38.972z M34.414,16.345
	v8.484l4.245-4.242L34.414,16.345z"/>
<path fill="#FFFFFF" d="M31.587,47.46v1l11.315-12.73l-0.465-0.477L31.587,47.46z M31.587,31.898l-7.071,5.662l-2.247-2.248
	l-0.581,0.418l2.828,2.83l7.071-5.662V31.898z M31.5,27.656l-9.276-8.02l-0.536,0.536l9.182,7.938L31.5,27.656z M34.414,30.484v1
	l3.745,3.746l0.5-0.5L34.414,30.484z M36.007,27.656l0.487,0.5l6.408-6.569l-0.465-0.523L36.007,27.656z M33.002,4
	C24.101,4,15,6.852,15,28c0,0.171,0.006,0.331,0.007,0.5C15.152,7.815,24.173,5,33.002,5c8.831,0,17.852,2.818,17.991,23.519
	C50.994,28.343,51,28.178,51,28C51,6.853,41.902,4,33.002,4z M38.659,20.587l-4.245-4.242v1l3.744,3.742L38.659,20.587z"/>
</svg>
