<?xml version="1.0" encoding="utf-8"?>
<!-- Generator: Adobe Illustrator 15.0.0, SVG Export Plug-In  -->
<!DOCTYPE svg PUBLIC "-//W3C//DTD SVG 1.1//EN" "http://www.w3.org/Graphics/SVG/1.1/DTD/svg11.dtd" [
	<!ENTITY ns_flows "http://ns.adobe.com/Flows/1.0/">
]>
<svg version="1.1"
	 xmlns="http://www.w3.org/2000/svg" xmlns:xlink="http://www.w3.org/1999/xlink" xmlns:a="http://ns.adobe.com/AdobeSVGViewerExtensions/3.0/"
	 x="0px" y="0px" width="67px" height="57px" viewBox="0 0 67 57" enable-background="new 0 0 67 57" xml:space="preserve">
<defs>
</defs>
<path opacity="0.3" d="M53.774,22.588L33.5,6L13.226,22.588L33.5,39.176L53.774,22.588z M13.226,25.353v25.804
	c0,1.018,0.826,1.844,1.843,1.844h36.862c1.018,0,1.844-0.826,1.844-1.844V25.353L33.5,41.941L13.226,25.353z"/>
<rect fill="none" width="67" height="57"/>
<path opacity="0.15" d="M15.068,53c-1.567,0-2.843-1.275-2.843-2.844V24.353c0-0.386,0.223-0.738,0.572-0.904
	c0.136-0.064,0.283-0.096,0.428-0.096c0.227,0,0.451,0.077,0.633,0.226L33.5,39.649l19.642-16.071
	c0.182-0.149,0.406-0.226,0.633-0.226c0.146,0,0.292,0.032,0.428,0.096c0.35,0.166,0.572,0.518,0.572,0.904v25.804
	c0,1.568-1.275,2.844-2.844,2.844H15.068z M33.5,39.176c-0.225,0-0.449-0.075-0.633-0.226L12.592,22.362
	c-0.232-0.19-0.367-0.474-0.367-0.774s0.135-0.584,0.367-0.774L32.867,4.226C33.051,4.075,33.275,4,33.5,4s0.449,0.075,0.633,0.226
	l20.274,16.588c0.232,0.19,0.367,0.474,0.367,0.774s-0.135,0.584-0.367,0.774L34.133,38.95C33.949,39.101,33.725,39.176,33.5,39.176
	z"/>
<path opacity="0.15" d="M53.774,21.588L33.5,5L13.226,21.588L33.5,38.176L53.774,21.588z M13.226,24.353v25.804
	c0,1.018,0.826,1.844,1.843,1.844h36.862c1.018,0,1.844-0.826,1.844-1.844V24.353L33.5,40.941L13.226,24.353z"/>
<linearGradient id="SVGID_1_" gradientUnits="userSpaceOnUse" x1="33.5005" y1="52" x2="33.5005" y2="5.0005">
	<stop  offset="0" style="stop-color:#D0CBC5"/>
	<stop  offset="0.5031" style="stop-color:#FAFCEF"/>
	<stop  offset="0.9693" style="stop-color:#FFFFFF"/>
</linearGradient>
<path fill="url(#SVGID_1_)" d="M53.774,21.588L33.5,5L13.226,21.588L33.5,38.176L53.774,21.588z M13.226,24.353v25.804
	c0,1.018,0.826,1.844,1.843,1.844h36.862c1.018,0,1.844-0.826,1.844-1.844V24.353L33.5,40.941L13.226,24.353z"/>
<polygon fill="#FFFFFF" points="33.5,6 53.163,22.088 53.774,21.588 33.5,5 13.226,21.588 13.837,22.088 "/>
<polygon fill="#FFFFFF" points="13.226,24.353 13.226,25.353 33.5,41.941 53.774,25.353 53.774,24.353 33.5,40.941 "/>
</svg>
