<?xml version="1.0" encoding="utf-8"?>
<!-- Generator: Adobe Illustrator 15.0.0, SVG Export Plug-In  -->
<!DOCTYPE svg PUBLIC "-//W3C//DTD SVG 1.1//EN" "http://www.w3.org/Graphics/SVG/1.1/DTD/svg11.dtd" [
	<!ENTITY ns_flows "http://ns.adobe.com/Flows/1.0/">
]>
<svg version="1.1"
	 xmlns="http://www.w3.org/2000/svg" xmlns:xlink="http://www.w3.org/1999/xlink" xmlns:a="http://ns.adobe.com/AdobeSVGViewerExtensions/3.0/"
	 x="0px" y="0px" width="67px" height="57px" viewBox="0 0 67 57" enable-background="new 0 0 67 57" xml:space="preserve">
<defs>
</defs>
<path opacity="0.3" d="M55,21L33,3L11,21l22,18L55,21z M11,24v28c0,1.104,0.896,2,2,2h40c1.104,0,2-0.896,2-2V24L33,42L11,24z"/>
<rect fill="none" width="67" height="57"/>
<path opacity="0.15" d="M13,54c-1.654,0-3-1.346-3-3V23c0-0.386,0.223-0.738,0.572-0.904C10.708,22.032,10.854,22,11,22
	c0.227,0,0.451,0.077,0.633,0.226L33,39.708l21.367-17.482C54.549,22.077,54.773,22,55,22c0.146,0,0.292,0.032,0.429,0.096
	C55.777,22.262,56,22.614,56,23v28c0,1.654-1.346,3-3,3H13z M33,39c-0.225,0-0.449-0.075-0.633-0.226l-22-18
	C10.135,20.584,10,20.3,10,20s0.135-0.584,0.367-0.774l22-18C32.551,1.075,32.775,1,33,1s0.449,0.075,0.633,0.226l22,18
	C55.865,19.416,56,19.7,56,20s-0.135,0.584-0.367,0.774l-22,18C33.449,38.925,33.225,39,33,39z"/>
<path opacity="0.15" d="M55,20L33,2L11,20l22,18L55,20z M11,23v28c0,1.104,0.896,2,2,2h40c1.104,0,2-0.896,2-2V23L33,41L11,23z"/>
<linearGradient id="SVGID_1_" gradientUnits="userSpaceOnUse" x1="33.0005" y1="53" x2="33.0005" y2="2.0005">
	<stop  offset="0" style="stop-color:#D0CBC5"/>
	<stop  offset="0.5031" style="stop-color:#FAFCEF"/>
	<stop  offset="0.9693" style="stop-color:#FFFFFF"/>
</linearGradient>
<path fill="url(#SVGID_1_)" d="M55,20L33,2L11,20l22,18L55,20z M11,23v28c0,1.104,0.896,2,2,2h40c1.104,0,2-0.896,2-2V23L33,41
	L11,23z"/>
<polygon fill="#FFFFFF" points="33,3 54.389,20.5 55,20 33,2 11,20 11.611,20.5 "/>
<polygon fill="#FFFFFF" points="11,23 11,24 33,42 55,24 55,23 33,41 "/>
</svg>
