<?xml version="1.0" encoding="utf-8"?>
<!-- Generator: Adobe Illustrator 15.0.2, SVG Export Plug-In . SVG Version: 6.00 Build 0)  -->
<!DOCTYPE svg PUBLIC "-//W3C//DTD SVG 1.1//EN" "http://www.w3.org/Graphics/SVG/1.1/DTD/svg11.dtd">
<svg version="1.1" id="Ebene_1" xmlns="http://www.w3.org/2000/svg" xmlns:xlink="http://www.w3.org/1999/xlink" x="0px" y="0px"
	 width="67px" height="57px" viewBox="0 0 67 57" enable-background="new 0 0 67 57" xml:space="preserve">
<path opacity="0.3" d="M50.709,7.295C50.52,7.105,50.268,7,50,7H16.451c-0.552,0-1,0.449-1,1v7.136c0,0.303,0.135,0.577,0.354,0.763
	l15.885,12.15V51c0,0.551,0.448,1,1,1h1.548c0.553,0,1-0.449,1-1V28.041l15.354-12.143c0.224-0.188,0.404-0.463,0.406-0.755V8.007
	C51.001,7.735,50.898,7.488,50.709,7.295z M31.691,23.406L19,13.981v-3.433h12.691V23.406z M47.414,14.112l-12.176,9.306v-12.87
	h12.176V14.112z"/>
<rect fill="none" width="67" height="57"/>
<path opacity="0.15" d="M32.69,52c-1.103,0-2-0.897-2-2V27.543l-15.492-11.85c-0.489-0.413-0.747-0.969-0.747-1.558V7
	c0-1.103,0.897-2,2-2H50c0.535,0,1.038,0.209,1.417,0.589c0.381,0.388,0.586,0.892,0.582,1.425v7.129
	c-0.004,0.564-0.282,1.116-0.763,1.521L36.238,27.525V50c0,1.103-0.897,2-2,2H32.69z M30.691,20.418v-9.87H20v1.93L30.691,20.418z
	 M36.238,20.395l10.176-7.777v-2.07H36.238V20.395z"/>
<path opacity="0.15" d="M50.709,6.295C50.52,6.105,50.268,6,50,6H16.451c-0.552,0-1,0.449-1,1v7.136
	c0,0.303,0.135,0.577,0.354,0.763l15.885,12.15V50c0,0.551,0.448,1,1,1h1.548c0.553,0,1-0.449,1-1V27.041l15.354-12.143
	c0.224-0.188,0.404-0.463,0.406-0.755V7.007C51.001,6.735,50.898,6.488,50.709,6.295z M31.691,22.406L19,12.981V9.548h12.691V22.406
	z M47.414,13.112l-12.176,9.306V9.548h12.176V13.112z"/>
<linearGradient id="SVGID_1_" gradientUnits="userSpaceOnUse" x1="33.2251" y1="6" x2="33.2251" y2="51.0005">
	<stop  offset="0.0307" style="stop-color:#FFFFFF"/>
	<stop  offset="0.4969" style="stop-color:#FAFCEF"/>
	<stop  offset="1" style="stop-color:#D0CBC5"/>
</linearGradient>
<path fill="url(#SVGID_1_)" d="M50.709,6.295C50.52,6.105,50.268,6,50,6H16.451c-0.552,0-1,0.449-1,1v7.136
	c0,0.303,0.135,0.577,0.354,0.763l15.885,12.15V50c0,0.551,0.448,1,1,1h1.548c0.553,0,1-0.449,1-1V27.041l15.354-12.143
	c0.224-0.188,0.404-0.463,0.406-0.755V7.007C51.001,6.735,50.898,6.488,50.709,6.295z M31.691,22.406L19,12.981V9.548h12.691V22.406
	z M47.414,13.112l-12.176,9.306V9.548h12.176V13.112z"/>
<g>
	<polygon fill="#FFFFFF" points="31.691,23.406 31.691,22.406 19,12.981 19,13.981 	"/>
	<polygon fill="#FFFFFF" points="47.414,14.112 47.414,13.112 35.238,22.418 35.238,23.418 	"/>
	<path fill="#FFFFFF" d="M50.709,6.295C50.52,6.105,50.268,6,50,6H16.451c-0.552,0-1,0.449-1,1v1c0-0.551,0.448-1,1-1H50
		c0.268,0,0.52,0.105,0.709,0.295c0.189,0.193,0.292,0.44,0.29,0.712v-1C51.001,6.735,50.898,6.488,50.709,6.295z"/>
</g>
</svg>
