<?xml version="1.0" encoding="utf-8"?>
<!-- Generator: Adobe Illustrator 15.0.2, SVG Export Plug-In . SVG Version: 6.00 Build 0)  -->
<!DOCTYPE svg PUBLIC "-//W3C//DTD SVG 1.1//EN" "http://www.w3.org/Graphics/SVG/1.1/DTD/svg11.dtd">
<svg version="1.1" xmlns="http://www.w3.org/2000/svg" xmlns:xlink="http://www.w3.org/1999/xlink" x="0px" y="0px" width="67px"
	 height="57px" viewBox="0 0 67 57" enable-background="new 0 0 67 57" xml:space="preserve">
<g id="DO_NOT_EDIT_-_BOUNDING_BOX">
	<rect id="BOUNDING_BOX" fill="none" width="67" height="57"/>
</g>
<g id="PLACE_YOUR_GRAPHIC_HERE">
	<path opacity="0.3" d="M18.002,14l21.044-0.006L39.049,14c2.729-0.102,4.388,0.278,5.711,1.595l3.07,3.126l4.353-4.352l2.405,8.83
		L57,32.026l-8.831-2.408l-8.827-2.409l4.291-4.293l-2.052-2.042c-1.227-1.064-2.149-0.841-3.896-0.841l-18.938-0.003
		c-0.946,0-1.747,0.804-1.747,1.754v16.466C17,39.193,17.801,40,18.747,40H44c0.55,0,1,0.45,1,1v4c0,0.55-0.45,1-1,1H18.002
		C14.15,46,11,42.85,11,39.004V21.002C11,17.15,14.15,14,18.002,14z"/>
	<path opacity="0.15" d="M44,46c1.103,0,2-0.897,2-2v-4c0-1.103-0.897-2-2-2H18.747C18.356,38,18,37.642,18,37.249V20.783
		c0-0.395,0.356-0.754,0.747-0.754l18.938,0.003c0.282,0,0.544-0.006,0.789-0.011c0.202-0.004,0.393-0.009,0.574-0.009
		c0.824,0,1.267,0.085,1.877,0.615l1.293,1.289l-3.584,3.585c-0.252,0.252-0.351,0.619-0.259,0.964
		c0.092,0.344,0.359,0.614,0.703,0.708l17.658,4.817c0.087,0.023,0.176,0.035,0.264,0.035c0.262,0,0.517-0.103,0.707-0.293
		c0.254-0.254,0.352-0.624,0.258-0.971l-4.817-17.656c-0.094-0.344-0.363-0.612-0.708-0.704c-0.085-0.023-0.172-0.034-0.257-0.034
		c-0.262,0-0.518,0.103-0.707,0.293l-3.639,3.639l-2.364-2.407c-1.347-1.341-3.028-1.91-5.631-1.91
		c-0.232,0-0.473,0.004-0.722,0.013C39.096,11.995,18.002,12,18.002,12C13.59,12,10,15.59,10,20.002v18.002
		C10,42.413,13.59,46,18.002,46H44z"/>
	<path opacity="0.15" d="M18.002,13l21.044-0.006L39.049,13c2.729-0.102,4.388,0.278,5.711,1.595l3.07,3.126l4.353-4.352l2.405,8.83
		L57,31.026l-8.831-2.408l-8.827-2.409l4.291-4.293l-2.052-2.042c-1.227-1.064-2.149-0.841-3.896-0.841l-18.938-0.003
		c-0.946,0-1.747,0.804-1.747,1.754v16.466C17,38.193,17.801,39,18.747,39H44c0.55,0,1,0.45,1,1v4c0,0.55-0.45,1-1,1H18.002
		C14.15,45,11,41.85,11,38.004V20.002C11,16.15,14.15,13,18.002,13z"/>
	
		<linearGradient id="SVGID_1_" gradientUnits="userSpaceOnUse" x1="32.0005" y1="45" x2="32.0005" y2="12.9849" gradientTransform="matrix(-1 0 0 1 66 0)">
		<stop  offset="0" style="stop-color:#D0CBC5"/>
		<stop  offset="0.5031" style="stop-color:#FAFCEF"/>
		<stop  offset="0.9693" style="stop-color:#FFFFFF"/>
	</linearGradient>
	<path fill="url(#SVGID_1_)" d="M18.002,13l21.044-0.006L39.049,13c2.729-0.102,4.388,0.278,5.711,1.595l3.07,3.126l4.353-4.352
		l2.405,8.83L57,31.026l-8.831-2.408l-8.827-2.409l4.291-4.293l-2.052-2.042c-1.227-1.064-2.149-0.841-3.896-0.841l-18.938-0.003
		c-0.946,0-1.747,0.804-1.747,1.754v16.466C17,38.193,17.801,39,18.747,39H44c0.55,0,1,0.45,1,1v4c0,0.55-0.45,1-1,1H18.002
		C14.15,45,11,41.85,11,38.004V20.002C11,16.15,14.15,13,18.002,13z"/>
	<path fill="#FFFFFF" d="M39.342,26.209l0.785,0.214l3.506-3.508l-0.501-0.499L39.342,26.209z M17,37.249v1
		C17,39.193,17.801,40,18.747,40H44c0.55,0,1,0.45,1,1v-1c0-0.55-0.45-1-1-1H18.747C17.801,39,17,38.193,17,37.249z M11,20.002v1
		C11,17.15,14.15,14,18.002,14l21.044-0.006L39.049,14c2.729-0.102,4.388,0.278,5.711,1.595l3.07,3.126l4.353-4.352l2.405,8.83
		l2.116,7.747L57,31.026l-2.412-8.827l-2.405-8.83l-4.353,4.352l-3.07-3.126c-1.323-1.317-2.981-1.696-5.711-1.595l-0.003-0.006
		L18.002,13C14.15,13,11,16.15,11,20.002z"/>
</g>
<g id="DO_NOT_EDIT_-_FOCAL_ZONE_GUIDES">
</g>
</svg>
