<?xml version="1.0" encoding="utf-8"?>
<!-- Generator: Adobe Illustrator 15.0.0, SVG Export Plug-In  -->
<!DOCTYPE svg PUBLIC "-//W3C//DTD SVG 1.1//EN" "http://www.w3.org/Graphics/SVG/1.1/DTD/svg11.dtd" [
	<!ENTITY ns_flows "http://ns.adobe.com/Flows/1.0/">
]>
<svg version="1.1"
	 xmlns="http://www.w3.org/2000/svg" xmlns:xlink="http://www.w3.org/1999/xlink" xmlns:a="http://ns.adobe.com/AdobeSVGViewerExtensions/3.0/"
	 x="0px" y="0px" width="67px" height="57px" viewBox="0 0 67 57" enable-background="new 0 0 67 57" xml:space="preserve">
<defs>
</defs>
<rect id="BOUNDING_BOX_1_" fill="none" width="67" height="57"/>
<path opacity="0.3" d="M27.51,18.528c1.783-0.985,3.822-1.562,6-1.561c6.911-0.001,12.534,5.62,12.534,12.534h6.267
	c0.001-10.383-8.417-18.801-18.801-18.801c-3.375,0-6.535,0.903-9.27,2.464l-2.459-4.031l-8.658,14.1l17.254,0.002L27.51,18.528z
	 M36.623,35.768l2.89,4.706c-1.784,0.983-3.823,1.561-6.001,1.561c-6.911,0-12.535-5.624-12.534-12.534l-6.268,0.001
	c0.001,10.383,8.419,18.8,18.8,18.8c3.384,0,6.55-0.908,9.29-2.476l2.482,4.041l8.595-14.1L36.623,35.768z"/>
<path opacity="0.15" d="M45.282,49.866c-0.348,0-0.67-0.181-0.853-0.477l-1.987-3.235c-2.767,1.407-5.835,2.146-8.933,2.146
	c-10.917,0-19.799-8.882-19.8-19.8c0-0.552,0.448-1,1-1l6.268-0.001c0.265,0,0.52,0.105,0.707,0.293s0.293,0.442,0.293,0.707
	c0,3.075,1.201,5.97,3.382,8.151c2.181,2.182,5.077,3.383,8.152,3.383c1.586,0,3.121-0.325,4.576-0.97l-2.317-3.773
	c-0.189-0.309-0.197-0.695-0.021-1.012s0.511-0.512,0.873-0.512l17.254-0.001c0.361,0,0.695,0.195,0.872,0.511
	c0.177,0.314,0.17,0.701-0.019,1.01l-8.595,14.1c-0.181,0.297-0.504,0.479-0.852,0.479C45.283,49.866,45.283,49.866,45.282,49.866z
	 M46.044,29.502c-0.553,0-1-0.447-1-1c0-6.36-5.174-11.534-11.532-11.534c-1.593,0-3.128,0.326-4.582,0.97l2.301,3.777
	c0.188,0.309,0.195,0.695,0.018,1.01c-0.177,0.315-0.51,0.51-0.872,0.51l-17.254-0.002c-0.362,0-0.696-0.196-0.873-0.512
	s-0.169-0.703,0.021-1.012l8.658-14.1c0.182-0.296,0.504-0.477,0.852-0.477c0,0,0.001,0,0.001,0c0.348,0,0.671,0.182,0.852,0.479
	l1.966,3.222c2.759-1.399,5.819-2.134,8.909-2.134c5.289,0,10.262,2.06,14.002,5.8c3.74,3.74,5.8,8.712,5.799,14.001
	c0,0.553-0.447,1-1,1H46.044z"/>
<path opacity="0.15" d="M27.51,17.528c1.783-0.985,3.822-1.562,6-1.561c6.911-0.001,12.534,5.62,12.534,12.534h6.267
	C52.312,18.119,43.894,9.701,33.51,9.701c-3.375,0-6.535,0.903-9.27,2.464l-2.459-4.031l-8.658,14.1l17.254,0.002L27.51,17.528z
	 M36.623,34.768l2.89,4.706c-1.784,0.983-3.823,1.561-6.001,1.561c-6.911,0-12.535-5.624-12.534-12.534l-6.268,0.001
	c0.001,10.383,8.419,18.8,18.8,18.8c3.384,0,6.55-0.908,9.29-2.476l2.482,4.041l8.595-14.1L36.623,34.768z"/>
<linearGradient id="SVGID_1_" gradientUnits="userSpaceOnUse" x1="33.5005" y1="48.8662" x2="33.5005" y2="8.1343">
	<stop  offset="0" style="stop-color:#D0CBC5"/>
	<stop  offset="0.5031" style="stop-color:#FAFCEF"/>
	<stop  offset="0.9693" style="stop-color:#FFFFFF"/>
</linearGradient>
<path fill="url(#SVGID_1_)" d="M27.51,17.528c1.783-0.985,3.822-1.562,6-1.561c6.911-0.001,12.534,5.62,12.534,12.534h6.267
	C52.312,18.119,43.894,9.701,33.51,9.701c-3.375,0-6.535,0.903-9.27,2.464l-2.459-4.031l-8.658,14.1l17.254,0.002L27.51,17.528z
	 M36.623,34.768l2.89,4.706c-1.784,0.983-3.823,1.561-6.001,1.561c-6.911,0-12.535-5.624-12.534-12.534l-6.268,0.001
	c0.001,10.383,8.419,18.8,18.8,18.8c3.384,0,6.55-0.908,9.29-2.476l2.482,4.041l8.595-14.1L36.623,34.768z"/>
<path fill="#FFFFFF" d="M33.512,42.034c2.178,0,4.217-0.577,6.001-1.561L39.037,39.7c-1.67,0.834-3.534,1.334-5.525,1.334
	c-6.911,0-12.535-5.624-12.534-12.534l-6.268,0.001c0,0.337,0.033,0.667,0.051,1l6.217-0.001
	C20.977,36.41,26.601,42.034,33.512,42.034z"/>
<path fill="#FFFFFF" d="M27.982,18.303c-0.156,0.078-0.32,0.141-0.472,0.225l2.258,3.707h0.609L27.982,18.303z"/>
<path fill="#FFFFFF" d="M21.781,9.134l2.459,4.031c2.734-1.561,5.895-2.464,9.27-2.464c10.046,0,18.229,7.886,18.75,17.801h0.051
	C52.312,18.119,43.894,9.701,33.51,9.701c-3.375,0-6.535,0.903-9.27,2.464l-2.459-4.031l-8.658,14.1h0.614L21.781,9.134z"/>
<polygon fill="#FFFFFF" points="36.623,34.768 37.237,35.768 53.268,35.767 53.877,34.767 "/>
</svg>
