<?xml version="1.0" encoding="utf-8"?>
<!-- Generator: Adobe Illustrator 15.0.2, SVG Export Plug-In  -->
<!DOCTYPE svg PUBLIC "-//W3C//DTD SVG 1.1//EN" "http://www.w3.org/Graphics/SVG/1.1/DTD/svg11.dtd" [
	<!ENTITY ns_flows "http://ns.adobe.com/Flows/1.0/">
]>
<svg version="1.1"
	 xmlns="http://www.w3.org/2000/svg" xmlns:xlink="http://www.w3.org/1999/xlink" xmlns:a="http://ns.adobe.com/AdobeSVGViewerExtensions/3.0/"
	 x="0px" y="0px" width="67px" height="57px" viewBox="0 0 67 57" enable-background="new 0 0 67 57" xml:space="preserve">
<defs>
</defs>
<rect id="BOUNDING_BOX_1_" fill="none" width="67" height="57"/>
<path opacity="0.3" d="M54.481,6.501H12.519c-1.112,0-2.019,0.909-2.019,2.02v41.96c0,1.11,0.907,2.019,2.019,2.019h41.962
	c1.107,0,2.019-0.908,2.019-2.019V8.521C56.5,7.41,55.589,6.501,54.481,6.501z M52.498,48.502h-38v-38h38V48.502z M21.515,33.581
	h23.97c1.109,0,2.019-0.909,2.019-2.019v-4.125c0-1.109-0.909-2.019-2.019-2.019h-23.97c-1.11,0-2.019,0.909-2.019,2.019v4.125
	C19.496,32.672,20.405,33.581,21.515,33.581z"/>
<path opacity="0.15" d="M12.519,52.499c-1.665,0-3.019-1.354-3.019-3.019V7.521c0-1.665,1.354-3.02,3.019-3.02h41.962
	c1.664,0,3.019,1.354,3.019,3.02v41.96c0,1.664-1.354,3.019-3.019,3.019H12.519z M51.498,46.502v-36h-36v36H51.498z M21.515,33.581
	c-1.665,0-3.019-1.354-3.019-3.019v-4.125c0-1.665,1.354-3.019,3.019-3.019h23.97c1.664,0,3.019,1.354,3.019,3.019v4.125
	c0,1.664-1.354,3.019-3.019,3.019H21.515z"/>
<path opacity="0.15" d="M54.481,5.501H12.519c-1.112,0-2.019,0.909-2.019,2.02v41.96c0,1.11,0.907,2.019,2.019,2.019h41.962
	c1.107,0,2.019-0.908,2.019-2.019V7.521C56.5,6.41,55.589,5.501,54.481,5.501z M52.498,47.502h-38v-38h38V47.502z M21.515,32.581
	h23.97c1.109,0,2.019-0.909,2.019-2.019v-4.125c0-1.109-0.909-2.019-2.019-2.019h-23.97c-1.11,0-2.019,0.909-2.019,2.019v4.125
	C19.496,31.672,20.405,32.581,21.515,32.581z"/>
<linearGradient id="SVGID_1_" gradientUnits="userSpaceOnUse" x1="33.5005" y1="51.499" x2="33.5005" y2="5.5015">
	<stop  offset="0" style="stop-color:#D0CBC5"/>
	<stop  offset="0.5031" style="stop-color:#FAFCEF"/>
	<stop  offset="0.9693" style="stop-color:#FFFFFF"/>
</linearGradient>
<path fill="url(#SVGID_1_)" d="M54.481,5.501H12.519c-1.112,0-2.019,0.909-2.019,2.02v41.96c0,1.11,0.907,2.019,2.019,2.019h41.962
	c1.107,0,2.019-0.908,2.019-2.019V7.521C56.5,6.41,55.589,5.501,54.481,5.501z M52.498,47.502h-38v-38h38V47.502z M21.515,32.581
	h23.97c1.109,0,2.019-0.909,2.019-2.019v-4.125c0-1.109-0.909-2.019-2.019-2.019h-23.97c-1.11,0-2.019,0.909-2.019,2.019v4.125
	C19.496,31.672,20.405,32.581,21.515,32.581z"/>
<path fill="#FFFFFF" d="M14.498,48.502h38v-1h-38V48.502z M45.485,25.419c1.109,0,2.019,0.909,2.019,2.019v-1
	c0-1.109-0.909-2.019-2.019-2.019h-23.97c-1.11,0-2.019,0.909-2.019,2.019v1c0-1.109,0.909-2.019,2.019-2.019H45.485z M54.481,5.501
	H12.519c-1.112,0-2.019,0.909-2.019,2.02v1c0-1.11,0.907-2.02,2.019-2.02h41.962c1.107,0,2.019,0.909,2.019,2.02v-1
	C56.5,6.41,55.589,5.501,54.481,5.501z"/>
</svg>
