<?xml version="1.0" encoding="utf-8"?>
<!-- Generator: Adobe Illustrator 15.0.2, SVG Export Plug-In  -->
<!DOCTYPE svg PUBLIC "-//W3C//DTD SVG 1.1//EN" "http://www.w3.org/Graphics/SVG/1.1/DTD/svg11.dtd" [
	<!ENTITY ns_flows "http://ns.adobe.com/Flows/1.0/">
]>
<svg version="1.1"
	 xmlns="http://www.w3.org/2000/svg" xmlns:xlink="http://www.w3.org/1999/xlink" xmlns:a="http://ns.adobe.com/AdobeSVGViewerExtensions/3.0/"
	 x="0px" y="0px" width="67px" height="57px" viewBox="0 0 67 57" enable-background="new 0 0 67 57" xml:space="preserve">
<defs>
</defs>
<path opacity="0.3" d="M48,34c0.317,0,0.637,0.075,0.928,0.229C49.587,34.573,50,35.256,50,36v3h5V16L33,34L11,16v28
	c0,1.104,0.896,2,2,2h20.278C33.103,45.699,33,45.358,33,45c0-0.656,0.322-1.271,0.862-1.645l13-9C47.202,34.12,47.601,34,48,34z
	 M55,13H11l22,18L55,13z M59,41H48v-5l-13,9l13,9v-5h11c0.398,0,1-0.602,1-1v-6C60,41.6,59.398,41,59,41z"/>
<rect fill="none" width="67" height="57"/>
<path opacity="0.15" d="M48,54c-0.2,0-0.398-0.06-0.569-0.178l-13-9c-0.097-0.067-0.179-0.149-0.245-0.242
	c0.136,0.293,0.122,0.636-0.041,0.919C33.966,45.809,33.636,46,33.278,46H13c-1.654,0-3-1.346-3-3V15
	c0-0.386,0.223-0.738,0.572-0.904C10.708,14.032,10.854,14,11,14c0.227,0,0.451,0.077,0.633,0.226L33,31.708l21.367-17.482
	C54.549,14.077,54.773,14,55,14c0.146,0,0.292,0.032,0.429,0.096C55.777,14.262,56,14.614,56,15v23c0,0.553-0.447,1-1,1h4
	c0.953,0,2,1.047,2,2v6c0,0.953-1.047,2-2,2H49v4c0,0.372-0.206,0.713-0.536,0.886C48.318,53.962,48.159,54,48,54z M47.983,34
	c-0.198,0.003-0.39,0.064-0.554,0.179l-12.49,8.647l12.491-8.648C47.597,34.063,47.789,34.003,47.983,34z M50,39
	c-0.553,0-1-0.447-1-1v-3v4H50z M48.606,34.205C48.852,34.393,49,34.686,49,35C49,34.684,48.853,34.392,48.606,34.205z M33,31
	c-0.225,0-0.449-0.075-0.633-0.226l-22-18c-0.327-0.268-0.451-0.712-0.309-1.11C10.2,11.266,10.577,11,11,11h44
	c0.423,0,0.8,0.266,0.941,0.664c0.143,0.398,0.019,0.843-0.309,1.11l-22,18C33.449,30.925,33.225,31,33,31z"/>
<path opacity="0.15" d="M48,33c0.317,0,0.637,0.075,0.928,0.229C49.587,33.573,50,34.256,50,35v3h5V15L33,33L11,15v28
	c0,1.104,0.896,2,2,2h20.278C33.103,44.699,33,44.358,33,44c0-0.656,0.322-1.271,0.862-1.645l13-9C47.202,33.12,47.601,33,48,33z
	 M55,12H11l22,18L55,12z M59,40H48v-5l-13,9l13,9v-5h11c0.398,0,1-0.602,1-1v-6C60,40.6,59.398,40,59,40z"/>
<linearGradient id="SVGID_1_" gradientUnits="userSpaceOnUse" x1="35.5" y1="12" x2="35.5" y2="53.0005">
	<stop  offset="0.0307" style="stop-color:#FFFFFF"/>
	<stop  offset="0.4969" style="stop-color:#FAFCEF"/>
	<stop  offset="1" style="stop-color:#D0CBC5"/>
</linearGradient>
<path fill="url(#SVGID_1_)" d="M48,33c0.317,0,0.637,0.075,0.928,0.229C49.587,33.573,50,34.256,50,35v3h5V15L33,33L11,15v28
	c0,1.104,0.896,2,2,2h20.278C33.103,44.699,33,44.358,33,44c0-0.656,0.322-1.271,0.862-1.645l13-9C47.202,33.12,47.601,33,48,33z
	 M55,12H11l22,18L55,12z M59,40H48v-5l-13,9l13,9v-5h11c0.398,0,1-0.602,1-1v-6C60,40.6,59.398,40,59,40z"/>
<polygon fill="#FFFFFF" points="53.777,13 55,12 11,12 12.222,13 "/>
<polygon fill="#FFFFFF" points="55,16 55,15 33,33 11,15 11,16 33,34 "/>
<path fill="#FFFFFF" d="M59,40H48v1h11c0.398,0,1,0.6,1,1v-1C60,40.6,59.398,40,59,40z"/>
<path fill="#FFFFFF" d="M33,45h0.278c-0.092-0.159-0.161-0.33-0.208-0.509C33.026,44.656,33,44.826,33,45z"/>
<polygon fill="#FFFFFF" points="48,35 35,44 35.723,44.5 48,36 "/>
</svg>
