<?xml version="1.0" encoding="utf-8"?>
<!-- Generator: Adobe Illustrator 15.0.2, SVG Export Plug-In . SVG Version: 6.00 Build 0)  -->
<!DOCTYPE svg PUBLIC "-//W3C//DTD SVG 1.1//EN" "http://www.w3.org/Graphics/SVG/1.1/DTD/svg11.dtd">
<svg version="1.1" id="Ebene_1" xmlns="http://www.w3.org/2000/svg" xmlns:xlink="http://www.w3.org/1999/xlink" x="0px" y="0px"
	 width="67px" height="57px" viewBox="0 0 67 57" enable-background="new 0 0 67 57" xml:space="preserve">
<rect fill="none" width="67" height="57"/>
<path opacity="0.3" d="M33.862,38.645C33.322,38.271,33,37.656,33,37s0.322-1.271,0.862-1.645l13-9C47.202,26.12,47.601,26,48,26
	c0.317,0,0.637,0.076,0.928,0.229C49.587,26.574,50,27.256,50,28v3h5V16L33,34L11,16v28c0,1.104,0.896,2,2,2h20.278
	C33.103,45.699,33,45.358,33,45c0-0.656,0.322-1.271,0.862-1.645L37.264,41L33.862,38.645z M55,13H11l22,18L55,13z M59,41H48v-5
	l-13,9l13,9v-5h11c0.398,0,1-0.602,1-1v-6C60,41.6,59.398,41,59,41z M59,33H48v-5l-13,9l4.021,2.783l7.841-5.428
	C47.202,34.12,47.601,34,48,34c0.317,0,0.637,0.075,0.928,0.229C49.587,34.573,50,35.256,50,36v3h9c0.341,0,0.679,0.084,1,0.219V34
	C60,33.6,59.398,33,59,33z"/>
<path opacity="0.15" d="M60.554,39.052C60.832,38.866,61,38.554,61,38.219V33c0-0.953-1.047-2-2-2h-3v-1v-4.806V15
	c0-0.386-0.223-0.738-0.571-0.904C55.292,14.032,55.146,14,55,14c-0.227,0-0.451,0.077-0.633,0.226L33,31.708L11.633,14.226
	C11.451,14.077,11.227,14,11,14c-0.146,0-0.292,0.032-0.428,0.096C10.223,14.262,10,14.614,10,15v28c0,1.654,1.346,3,3,3h18.092
	h2.186h2.854l11.299,7.822C47.602,53.94,47.8,54,48,54c0.159,0,0.318-0.038,0.464-0.114C48.794,53.713,49,53.372,49,53v-4h10
	c0.953,0,2-1.047,2-2v-6c0-0.717-0.593-1.487-1.292-1.825c0.096,0.029,0.193,0.044,0.292,0.044
	C60.194,39.219,60.387,39.162,60.554,39.052z M32.367,30.774C32.551,30.925,32.775,31,33,31s0.449-0.075,0.633-0.226l22-18
	c0.327-0.268,0.451-0.712,0.309-1.11C55.8,11.266,55.423,11,55,11H11c-0.423,0-0.8,0.266-0.942,0.664
	c-0.142,0.398-0.019,0.843,0.309,1.11L32.367,30.774z"/>
<linearGradient id="SVGID_1_" gradientUnits="userSpaceOnUse" x1="35.5" y1="53" x2="35.5" y2="12.0005">
	<stop  offset="0" style="stop-color:#D0CBC5"/>
	<stop  offset="0.5031" style="stop-color:#FAFCEF"/>
	<stop  offset="0.9693" style="stop-color:#FFFFFF"/>
</linearGradient>
<path fill="url(#SVGID_1_)" d="M33.862,37.645C33.322,37.271,33,36.656,33,36s0.322-1.271,0.862-1.645l13-9
	C47.202,25.12,47.601,25,48,25c0.317,0,0.637,0.076,0.928,0.229C49.587,25.574,50,26.256,50,27v3h5V15L33,33L11,15v28
	c0,1.104,0.896,2,2,2h20.278C33.103,44.699,33,44.358,33,44c0-0.656,0.322-1.271,0.862-1.645L37.264,40L33.862,37.645z M55,12H11
	l22,18L55,12z M59,40H48v-5l-13,9l13,9v-5h11c0.398,0,1-0.602,1-1v-6C60,40.6,59.398,40,59,40z M59,32H48v-5l-13,9l4.021,2.783
	l7.841-5.428C47.202,33.12,47.601,33,48,33c0.317,0,0.637,0.075,0.928,0.229C49.587,33.573,50,34.256,50,35v3h9
	c0.341,0,0.679,0.084,1,0.219V33C60,32.6,59.398,32,59,32z"/>
<path fill="#FFFFFF" d="M37.264,40l-3.402-2.355c-0.399-0.276-0.677-0.686-0.796-1.145C33.024,36.662,33,36.829,33,37
	c0,0.656,0.322,1.271,0.862,1.645l2.68,1.855L37.264,40z M53.777,13L55,12H11l1.222,1H53.777z M48,35l-13,9l0.723,0.5L48,36V35z
	 M55,16v-1L33,33L11,15v1l22,18L55,16z M33,45h0.278c-0.092-0.159-0.161-0.33-0.208-0.509C33.026,44.656,33,44.826,33,45z M59,32H48
	v1h11c0.398,0,1,0.6,1,1v-1C60,32.6,59.398,32,59,32z M48,28v-1l-13,9l0.723,0.5L48,28z M59,40H48v1h11c0.398,0,1,0.6,1,1v-1
	C60,40.6,59.398,40,59,40z"/>
</svg>
