<?xml version="1.0" encoding="utf-8"?>
<!-- Generator: Adobe Illustrator 15.0.0, SVG Export Plug-In . SVG Version: 6.00 Build 0)  -->
<!DOCTYPE svg PUBLIC "-//W3C//DTD SVG 1.1//EN" "http://www.w3.org/Graphics/SVG/1.1/DTD/svg11.dtd">
<svg version="1.1" xmlns="http://www.w3.org/2000/svg" xmlns:xlink="http://www.w3.org/1999/xlink" x="0px" y="0px" width="67px"
	 height="57px" viewBox="0 0 67 57" enable-background="new 0 0 67 57" xml:space="preserve">
<g id="DO_NOT_EDIT_-_BOUNDING_BOX">
	<rect id="BOUNDING_BOX" fill="none" width="67" height="57"/>
</g>
<g id="PLACE_YOUR_GRAPHIC_HERE">
	<path opacity="0.3" d="M32.414,12.441c-0.266-0.127-0.55-0.191-0.831-0.191c-0.427,0-0.85,0.142-1.197,0.419L11.219,28.002
		C10.766,28.366,10.5,28.916,10.5,29.5s0.266,1.135,0.719,1.498l19.167,15.333c0.348,0.276,0.771,0.419,1.197,0.419
		c0.281,0,0.569-0.063,0.831-0.19c0.663-0.318,1.086-0.988,1.086-1.727V29.5V14.167C33.5,13.429,33.077,12.759,32.414,12.441z
		 M55.414,12.441c-0.266-0.127-0.55-0.191-0.831-0.191c-0.427,0-0.85,0.142-1.197,0.419L34.219,28.002
		C33.766,28.366,33.5,28.916,33.5,29.5s0.266,1.135,0.719,1.498l19.167,15.333c0.348,0.276,0.771,0.419,1.197,0.419
		c0.281,0,0.569-0.063,0.831-0.19c0.663-0.318,1.086-0.988,1.086-1.727V14.167C56.5,13.429,56.077,12.759,55.414,12.441z"/>
	<path opacity="0.15" d="M54.583,46.75c-0.657,0-1.304-0.226-1.819-0.636L34.5,31.504v12.329c0,1.114-0.649,2.146-1.653,2.628
		c-0.388,0.188-0.827,0.289-1.264,0.289c-0.657,0-1.304-0.226-1.819-0.636L10.594,30.779C9.898,30.222,9.5,29.391,9.5,28.5
		s0.398-1.721,1.093-2.278l19.168-15.333c0.517-0.412,1.163-0.639,1.822-0.639c0.432,0,0.869,0.1,1.264,0.29
		c1.004,0.482,1.653,1.513,1.653,2.627v12.331l18.261-14.608c0.517-0.412,1.163-0.639,1.822-0.639c0.433,0,0.869,0.1,1.264,0.29
		c1.005,0.482,1.653,1.513,1.653,2.627v30.667c0,1.114-0.648,2.146-1.653,2.628C55.458,46.649,55.021,46.75,54.583,46.75z"/>
	<path opacity="0.15" d="M32.414,11.441c-0.266-0.127-0.55-0.191-0.831-0.191c-0.427,0-0.85,0.142-1.197,0.419L11.219,27.002
		C10.766,27.366,10.5,27.916,10.5,28.5s0.266,1.135,0.719,1.498l19.167,15.333c0.348,0.276,0.771,0.419,1.197,0.419
		c0.281,0,0.569-0.063,0.831-0.19c0.663-0.318,1.086-0.988,1.086-1.727V28.5V13.167C33.5,12.429,33.077,11.759,32.414,11.441z
		 M55.414,11.441c-0.266-0.127-0.55-0.191-0.831-0.191c-0.427,0-0.85,0.142-1.197,0.419L34.219,27.002
		C33.766,27.366,33.5,27.916,33.5,28.5s0.266,1.135,0.719,1.498l19.167,15.333c0.348,0.276,0.771,0.419,1.197,0.419
		c0.281,0,0.569-0.063,0.831-0.19c0.663-0.318,1.086-0.988,1.086-1.727V13.167C56.5,12.429,56.077,11.759,55.414,11.441z"/>
	<linearGradient id="SVGID_1_" gradientUnits="userSpaceOnUse" x1="33.5005" y1="45.75" x2="33.5005" y2="11.2505">
		<stop  offset="0" style="stop-color:#D0CBC5"/>
		<stop  offset="0.5031" style="stop-color:#FAFCEF"/>
		<stop  offset="0.9693" style="stop-color:#FFFFFF"/>
	</linearGradient>
	<path fill="url(#SVGID_1_)" d="M32.414,11.441c-0.266-0.127-0.55-0.191-0.831-0.191c-0.427,0-0.85,0.142-1.197,0.419L11.219,27.002
		C10.766,27.366,10.5,27.916,10.5,28.5s0.266,1.135,0.719,1.498l19.167,15.333c0.348,0.276,0.771,0.419,1.197,0.419
		c0.281,0,0.569-0.063,0.831-0.19c0.663-0.318,1.086-0.988,1.086-1.727V28.5V13.167C33.5,12.429,33.077,11.759,32.414,11.441z
		 M55.414,11.441c-0.266-0.127-0.55-0.191-0.831-0.191c-0.427,0-0.85,0.142-1.197,0.419L34.219,27.002
		C33.766,27.366,33.5,27.916,33.5,28.5s0.266,1.135,0.719,1.498l19.167,15.333c0.348,0.276,0.771,0.419,1.197,0.419
		c0.281,0,0.569-0.063,0.831-0.19c0.663-0.318,1.086-0.988,1.086-1.727V13.167C56.5,12.429,56.077,11.759,55.414,11.441z"/>
	<path fill="#FFFFFF" d="M10.573,29c-0.044-0.162-0.073-0.328-0.073-0.5c0-0.584,0.266-1.134,0.719-1.498l19.167-15.333
		c0.348-0.277,0.771-0.419,1.197-0.419c0.281,0,0.565,0.063,0.831,0.191c0.663,0.318,1.086,0.988,1.086,1.726v1
		c0-0.737-0.423-1.407-1.086-1.726c-0.266-0.127-0.55-0.191-0.831-0.191c-0.427,0-0.85,0.142-1.197,0.419L11.219,28.002
		C10.899,28.259,10.679,28.611,10.573,29z M55.414,11.441c-0.266-0.127-0.55-0.191-0.831-0.191c-0.427,0-0.85,0.142-1.197,0.419
		L34.219,27.002C33.766,27.366,33.5,27.916,33.5,28.5c0,0.172,0.029,0.338,0.073,0.5c0.105-0.389,0.326-0.741,0.646-0.998
		l19.167-15.333c0.348-0.277,0.771-0.419,1.197-0.419c0.281,0,0.565,0.063,0.831,0.191c0.663,0.318,1.086,0.988,1.086,1.726v-1
		C56.5,12.429,56.077,11.759,55.414,11.441z"/>
</g>
<g id="DO_NOT_EDIT_-_FOCAL_ZONE_GUIDES">
</g>
</svg>
