<?xml version="1.0" encoding="utf-8"?>
<!-- Generator: Adobe Illustrator 15.0.0, SVG Export Plug-In . SVG Version: 6.00 Build 0)  -->
<!DOCTYPE svg PUBLIC "-//W3C//DTD SVG 1.1//EN" "http://www.w3.org/Graphics/SVG/1.1/DTD/svg11.dtd">
<svg version="1.1" xmlns="http://www.w3.org/2000/svg" xmlns:xlink="http://www.w3.org/1999/xlink" x="0px" y="0px" width="67px"
	 height="57px" viewBox="0 0 67 57" enable-background="new 0 0 67 57" xml:space="preserve">
<g id="DO_NOT_EDIT_-_BOUNDING_BOX">
	<rect id="BOUNDING_BOX" fill="none" width="67" height="57"/>
</g>
<g id="PLACE_YOUR_GRAPHIC_HERE">
	<path opacity="0.3" d="M35.095,6.507c0,0-2.415-0.247-2.415,2.284v29.986c-1.674-0.753-3.628-1.209-5.743-1.209
		c-5.91,0-10.687,3.339-10.687,7.468c0,4.13,4.777,7.465,10.687,7.465c5.896,0,10.669-3.335,10.669-7.465V19.16
		c4.911,0.752,9.411,1.774,13.144,2.815V9.468C45.071,7.997,39.433,7.132,35.095,6.507z"/>
	<path opacity="0.15" d="M26.937,52.5c-6.444,0-11.687-3.797-11.687-8.465c0-4.669,5.243-8.468,11.687-8.468
		c1.621,0,3.235,0.258,4.743,0.751V7.791c0-2.429,1.747-3.291,3.243-3.291c0.171,0,0.273,0.012,0.273,0.012
		C40.211,5.234,45.563,6.091,51.001,7.5c0.441,0.114,0.749,0.513,0.749,0.968v12.507c0,0.313-0.146,0.607-0.396,0.796
		c-0.176,0.134-0.389,0.204-0.604,0.204c-0.09,0-0.18-0.012-0.269-0.037c-3.775-1.053-7.856-1.948-11.875-2.607v24.704
		C38.606,48.703,33.372,52.5,26.937,52.5z"/>
	<path opacity="0.15" d="M35.095,5.507c0,0-2.415-0.247-2.415,2.284v29.986c-1.674-0.753-3.628-1.209-5.743-1.209
		c-5.91,0-10.687,3.339-10.687,7.468c0,4.13,4.777,7.465,10.687,7.465c5.896,0,10.669-3.335,10.669-7.465V18.16
		c4.911,0.752,9.411,1.774,13.144,2.815V8.468C45.071,6.997,39.433,6.132,35.095,5.507z"/>
	<linearGradient id="SVGID_1_" gradientUnits="userSpaceOnUse" x1="33.5005" y1="51.5" x2="33.5005" y2="5.5005">
		<stop  offset="0" style="stop-color:#D0CBC5"/>
		<stop  offset="0.5031" style="stop-color:#FAFCEF"/>
		<stop  offset="0.9693" style="stop-color:#FFFFFF"/>
	</linearGradient>
	<path fill="url(#SVGID_1_)" d="M35.095,5.507c0,0-2.415-0.247-2.415,2.284v29.986c-1.674-0.753-3.628-1.209-5.743-1.209
		c-5.91,0-10.687,3.339-10.687,7.468c0,4.13,4.777,7.465,10.687,7.465c5.896,0,10.669-3.335,10.669-7.465V18.16
		c4.911,0.752,9.411,1.774,13.144,2.815V8.468C45.071,6.997,39.433,6.132,35.095,5.507z"/>
	<path fill="#FFFFFF" d="M16.286,44.535c-0.016-0.166-0.036-0.331-0.036-0.5c0-4.129,4.777-7.468,10.687-7.468
		c2.115,0,4.069,0.456,5.743,1.209v1c-1.674-0.753-3.628-1.209-5.743-1.209C21.269,37.567,16.655,40.642,16.286,44.535z
		 M35.095,5.507c0,0-2.415-0.247-2.415,2.284v1c0-2.531,2.415-2.284,2.415-2.284c4.338,0.625,9.977,1.49,15.655,2.961v-1
		C45.071,6.997,39.433,6.132,35.095,5.507z"/>
</g>
<g id="DO_NOT_EDIT_-_FOCAL_ZONE_GUIDES">
</g>
</svg>
