<?xml version="1.0" encoding="utf-8"?>
<!-- Generator: Adobe Illustrator 15.0.2, SVG Export Plug-In . SVG Version: 6.00 Build 0)  -->
<!DOCTYPE svg PUBLIC "-//W3C//DTD SVG 1.1//EN" "http://www.w3.org/Graphics/SVG/1.1/DTD/svg11.dtd">
<svg version="1.1" xmlns="http://www.w3.org/2000/svg" xmlns:xlink="http://www.w3.org/1999/xlink" x="0px" y="0px" width="67px"
	 height="57px" viewBox="0 0 67 57" enable-background="new 0 0 67 57" xml:space="preserve">
<g id="DO_NOT_EDIT_-_BOUNDING_BOX">
	<rect id="BOUNDING_BOX" fill="none" width="67" height="57"/>
</g>
<g id="PLACE_YOUR_GRAPHIC_HERE">
	<path opacity="0.3" d="M39.339,43.317c-1.27,1.269-1.263,3.334,0.012,4.608c1.274,1.275,3.339,1.281,4.608,0.012
		c1.266-1.266,1.263-3.33-0.016-4.604C42.669,42.057,40.606,42.05,39.339,43.317z M27.77,45.787c-1.269,1.266-1.266,3.33,0.01,4.604
		c1.274,1.274,3.34,1.281,4.607,0.012c1.266-1.268,1.263-3.33-0.012-4.604C31.101,44.523,29.039,44.518,27.77,45.787z
		 M11.371,36.915c0.006,0.026,0.014,0.053,0.024,0.079c0.016,0.038,0.038,0.08,0.065,0.121l-0.014,0.006l0.056,0.139
		c0.32,0.79,1.079,1.299,1.932,1.299c0.268,0,0.529-0.051,0.778-0.152l1.593-0.646c0.514-0.208,0.916-0.605,1.133-1.118
		s0.222-1.078,0.013-1.592l-0.047-0.118c-0.005-0.024-0.012-0.049-0.021-0.072c-2.153-5.875-0.719-12.5,3.653-16.877
		c3.009-3.007,7.021-4.663,11.297-4.663c3.666,0,7.243,1.26,10.102,3.542l-5.058,5.058l9.81,2.672l9.813,2.678l-2.677-9.809
		l-2.676-9.811l-5.033,5.034c-3.987-3.384-9.061-5.249-14.301-5.249c-5.848,0-11.334,2.265-15.448,6.377
		C10.368,19.811,8.411,28.874,11.371,36.915z M16.815,40.862c-1.269,1.265-1.263,3.328,0.013,4.603
		c1.274,1.275,3.336,1.281,4.604,0.017c1.27-1.269,1.263-3.329-0.012-4.606C20.146,39.6,18.084,39.594,16.815,40.862z"/>
	<path opacity="0.15" d="M30.095,51.352c-1.142,0-2.215-0.445-3.022-1.253c-0.808-0.807-1.252-1.88-1.252-3.021
		c0.001-1.135,0.442-2.2,1.242-2.998c0.801-0.801,1.865-1.241,2.999-1.241c1.141,0,2.213,0.445,3.021,1.253
		c1.662,1.661,1.667,4.361,0.012,6.019C32.295,50.91,31.229,51.352,30.095,51.352L30.095,51.352z M41.665,48.886
		c-1.141,0-2.214-0.445-3.021-1.253c-0.805-0.805-1.25-1.874-1.253-3.011c-0.003-1.14,0.438-2.209,1.241-3.012
		c0.799-0.799,1.862-1.239,2.995-1.239c1.142,0,2.216,0.446,3.022,1.254c0.809,0.807,1.255,1.879,1.256,3.02
		c0,1.135-0.439,2.2-1.239,3C43.866,48.445,42.8,48.886,41.665,48.886L41.665,48.886z M19.144,46.426
		c-1.142,0-2.215-0.445-3.022-1.254c-0.809-0.808-1.254-1.882-1.253-3.023c0-1.134,0.441-2.196,1.24-2.993
		c0.8-0.8,1.865-1.24,2.998-1.24c1.141,0,2.214,0.444,3.022,1.254c1.661,1.665,1.666,4.365,0.01,6.021
		C21.339,45.986,20.275,46.426,19.144,46.426L19.144,46.426z M10.575,36.632c0,0-0.097-0.238-0.105-0.261
		c-0.013-0.029-0.03-0.084-0.046-0.136c-3.081-8.397-1.027-17.867,5.234-24.132c4.303-4.301,10.04-6.67,16.155-6.67
		c5.162,0,10.18,1.735,14.231,4.903l4.396-4.395c0.189-0.19,0.445-0.293,0.707-0.293c0.085,0,0.172,0.011,0.257,0.034
		c0.344,0.091,0.614,0.359,0.708,0.703l5.353,19.62c0.094,0.346-0.004,0.716-0.258,0.97c-0.19,0.19-0.445,0.293-0.707,0.293
		c-0.088,0-0.177-0.012-0.264-0.035l-19.621-5.35c-0.345-0.094-0.612-0.363-0.704-0.708s0.008-0.712,0.26-0.964l4.237-4.237
		c-2.518-1.719-5.522-2.655-8.574-2.655c-4.009,0-7.77,1.552-10.59,4.37c-4.098,4.104-5.441,10.315-3.424,15.819
		c0.009,0.023,0.057,0.165,0.057,0.165c0.311,0.761,0.304,1.599-0.018,2.358c-0.321,0.759-0.917,1.347-1.678,1.655l-1.591,0.646
		c-0.368,0.15-0.758,0.227-1.156,0.227C12.172,38.559,11.05,37.804,10.575,36.632z"/>
	<path opacity="0.15" d="M39.339,42.317c-1.27,1.269-1.263,3.334,0.012,4.608c1.274,1.275,3.339,1.281,4.608,0.012
		c1.266-1.266,1.263-3.33-0.016-4.604C42.669,41.057,40.606,41.05,39.339,42.317z M27.77,44.787c-1.269,1.266-1.266,3.33,0.01,4.604
		c1.274,1.274,3.34,1.281,4.607,0.012c1.266-1.268,1.263-3.33-0.012-4.604C31.101,43.523,29.039,43.518,27.77,44.787z
		 M11.371,35.915c0.006,0.026,0.014,0.053,0.024,0.079c0.016,0.038,0.038,0.08,0.065,0.121l-0.014,0.006l0.056,0.139
		c0.32,0.79,1.079,1.299,1.932,1.299c0.268,0,0.529-0.051,0.778-0.152l1.593-0.646c0.514-0.208,0.916-0.605,1.133-1.118
		s0.222-1.078,0.013-1.592l-0.047-0.118c-0.005-0.024-0.012-0.049-0.021-0.072c-2.153-5.875-0.719-12.5,3.653-16.877
		c3.009-3.007,7.021-4.663,11.297-4.663c3.666,0,7.243,1.26,10.102,3.542l-5.058,5.058l9.81,2.672l9.813,2.678l-2.677-9.809
		l-2.676-9.811l-5.033,5.034c-3.987-3.384-9.061-5.249-14.301-5.249c-5.848,0-11.334,2.265-15.448,6.377
		C10.368,18.811,8.411,27.874,11.371,35.915z M16.815,39.862c-1.269,1.265-1.263,3.328,0.013,4.603
		c1.274,1.275,3.336,1.281,4.604,0.017c1.27-1.269,1.263-3.329-0.012-4.606C20.146,38.6,18.084,38.594,16.815,39.862z"/>
	
		<linearGradient id="SVGID_1_" gradientUnits="userSpaceOnUse" x1="33.7456" y1="50.3516" x2="33.7456" y2="6.4336" gradientTransform="matrix(-1 0 0 1 67 0)">
		<stop  offset="0" style="stop-color:#D0CBC5"/>
		<stop  offset="0.5031" style="stop-color:#FAFCEF"/>
		<stop  offset="0.9693" style="stop-color:#FFFFFF"/>
	</linearGradient>
	<path fill="url(#SVGID_1_)" d="M39.339,42.317c-1.27,1.269-1.263,3.334,0.012,4.608c1.274,1.275,3.339,1.281,4.608,0.012
		c1.266-1.266,1.263-3.33-0.016-4.604C42.669,41.057,40.606,41.05,39.339,42.317z M27.77,44.787c-1.269,1.266-1.266,3.33,0.01,4.604
		c1.274,1.274,3.34,1.281,4.607,0.012c1.266-1.268,1.263-3.33-0.012-4.604C31.101,43.523,29.039,43.518,27.77,44.787z
		 M11.371,35.915c0.006,0.026,0.014,0.053,0.024,0.079c0.016,0.038,0.038,0.08,0.065,0.121l-0.014,0.006l0.056,0.139
		c0.32,0.79,1.079,1.299,1.932,1.299c0.268,0,0.529-0.051,0.778-0.152l1.593-0.646c0.514-0.208,0.916-0.605,1.133-1.118
		s0.222-1.078,0.013-1.592l-0.047-0.118c-0.005-0.024-0.012-0.049-0.021-0.072c-2.153-5.875-0.719-12.5,3.653-16.877
		c3.009-3.007,7.021-4.663,11.297-4.663c3.666,0,7.243,1.26,10.102,3.542l-5.058,5.058l9.81,2.672l9.813,2.678l-2.677-9.809
		l-2.676-9.811l-5.033,5.034c-3.987-3.384-9.061-5.249-14.301-5.249c-5.848,0-11.334,2.265-15.448,6.377
		C10.368,18.811,8.411,27.874,11.371,35.915z M16.815,39.862c-1.269,1.265-1.263,3.328,0.013,4.603
		c1.274,1.275,3.336,1.281,4.604,0.017c1.27-1.269,1.263-3.329-0.012-4.606C20.146,38.6,18.084,38.594,16.815,39.862z"/>
	<path fill="#FFFFFF" d="M16.884,33.859c-0.606-1.655-0.919-3.369-0.97-5.077c-0.064,2.035,0.244,4.098,0.97,6.077
		c0.009,0.023,0.016,0.048,0.021,0.072l0.047,0.118c0.037,0.093,0.061,0.188,0.084,0.283c0.107-0.426,0.084-0.87-0.084-1.283
		l-0.047-0.118C16.899,33.907,16.893,33.883,16.884,33.859z M31.813,7.433c5.24,0,10.313,1.865,14.301,5.249l5.033-5.034
		l2.676,9.811l2.382,8.729l0.295,0.081l-2.677-9.809l-2.676-9.811l-5.033,5.034c-3.987-3.384-9.061-5.249-14.301-5.249
		c-5.848,0-11.334,2.265-15.448,6.377c-4.255,4.257-6.464,10.056-6.338,15.938c0.132-5.535,2.324-10.922,6.338-14.938
		C20.479,9.698,25.966,7.433,31.813,7.433z M39.339,42.317c-0.759,0.758-1.051,1.8-0.9,2.788c0.103-0.655,0.396-1.285,0.9-1.788
		c1.268-1.268,3.33-1.261,4.604,0.016c0.515,0.513,0.812,1.154,0.914,1.819c0.155-0.995-0.143-2.051-0.914-2.819
		C42.669,41.057,40.606,41.05,39.339,42.317z M16.815,39.862c-0.758,0.756-1.051,1.796-0.899,2.783
		c0.103-0.653,0.396-1.281,0.899-1.783c1.269-1.269,3.331-1.263,4.605,0.013c0.513,0.514,0.811,1.155,0.912,1.82
		c0.155-0.994-0.144-2.05-0.912-2.82C20.146,38.6,18.084,38.594,16.815,39.862z M41.358,16.438l-4.48,4.48l0.786,0.214l4.271-4.271
		C41.749,16.711,41.551,16.579,41.358,16.438z M27.77,44.787c-0.759,0.758-1.053,1.8-0.901,2.789
		c0.103-0.655,0.397-1.286,0.901-1.789c1.27-1.27,3.331-1.264,4.605,0.012c0.513,0.512,0.809,1.152,0.911,1.816
		c0.155-0.994-0.143-2.048-0.911-2.816C31.101,43.523,29.039,43.518,27.77,44.787z"/>
</g>
<g id="DO_NOT_EDIT_-_FOCAL_ZONE_GUIDES">
</g>
</svg>
