<?xml version="1.0" encoding="utf-8"?>
<!-- Generator: Adobe Illustrator 15.0.2, SVG Export Plug-In . SVG Version: 6.00 Build 0)  -->
<!DOCTYPE svg PUBLIC "-//W3C//DTD SVG 1.1//EN" "http://www.w3.org/Graphics/SVG/1.1/DTD/svg11.dtd">
<svg version="1.1" xmlns="http://www.w3.org/2000/svg" xmlns:xlink="http://www.w3.org/1999/xlink" x="0px" y="0px" width="67px"
	 height="57px" viewBox="0 0 67 57" enable-background="new 0 0 67 57" xml:space="preserve">
<g id="DO_NOT_EDIT_-_BOUNDING_BOX">
	<rect id="BOUNDING_BOX" fill="none" width="67" height="57"/>
</g>
<g id="PLACE_YOUR_GRAPHIC_HERE">
	<path opacity="0.3" d="M23.056,43.333c-1.278,1.274-1.281,3.339-0.015,4.604c1.269,1.27,3.333,1.264,4.608-0.012
		c1.274-1.274,1.281-3.34,0.012-4.608C26.394,42.05,24.331,42.057,23.056,43.333z M34.625,45.799
		c-1.275,1.274-1.278,3.337-0.012,4.604c1.268,1.27,3.333,1.263,4.607-0.012c1.275-1.274,1.278-3.339,0.01-4.604
		C37.961,44.518,35.899,44.523,34.625,45.799z M50.635,13.81c-4.114-4.112-9.601-6.377-15.448-6.377
		c-5.24,0-10.314,1.865-14.301,5.249l-5.033-5.034l-2.676,9.811L10.5,27.268l9.812-2.678l9.81-2.672l-5.058-5.058
		c2.858-2.281,6.436-3.542,10.102-3.542c4.276,0,8.288,1.656,11.297,4.663c4.372,4.377,5.807,11.002,3.653,16.877
		c-0.009,0.023-0.016,0.048-0.021,0.072l-0.047,0.118c-0.209,0.514-0.204,1.079,0.013,1.592s0.619,0.91,1.133,1.118l1.593,0.646
		c0.249,0.102,0.511,0.152,0.778,0.152c0.853,0,1.611-0.509,1.932-1.299l0.056-0.139l-0.014-0.006
		c0.027-0.041,0.05-0.083,0.065-0.121c0.011-0.026,0.019-0.053,0.024-0.079C58.589,28.874,56.632,19.811,50.635,13.81z
		 M45.579,40.875c-1.274,1.277-1.281,3.338-0.012,4.606c1.269,1.265,3.33,1.259,4.604-0.017c1.275-1.274,1.281-3.338,0.013-4.603
		C48.916,39.594,46.854,39.6,45.579,40.875z"/>
	<path opacity="0.15" d="M36.905,51.352c-1.135,0-2.2-0.441-3-1.241c-1.655-1.657-1.65-4.357,0.012-6.019
		c0.808-0.808,1.88-1.253,3.021-1.253c1.134,0,2.198,0.44,2.999,1.241c0.8,0.798,1.241,1.863,1.242,2.998
		c0,1.141-0.444,2.214-1.252,3.021C39.12,50.906,38.047,51.352,36.905,51.352L36.905,51.352z M25.334,48.886
		c-1.135,0-2.201-0.44-3-1.241c-0.8-0.8-1.24-1.865-1.239-3c0.001-1.141,0.447-2.213,1.255-3.02
		c0.807-0.808,1.881-1.254,3.022-1.254c1.133,0,2.197,0.44,2.996,1.239c0.803,0.803,1.244,1.872,1.241,3.012
		c-0.003,1.137-0.448,2.206-1.252,3.011C27.549,48.44,26.476,48.886,25.334,48.886L25.334,48.886z M47.856,46.426
		c-1.132,0-2.195-0.439-2.995-1.236c-1.656-1.655-1.651-4.355,0.01-6.021c0.809-0.81,1.882-1.254,3.022-1.254
		c1.133,0,2.198,0.44,2.998,1.24c0.799,0.797,1.24,1.859,1.24,2.993c0.001,1.142-0.444,2.216-1.253,3.023
		C50.071,45.98,48.998,46.426,47.856,46.426L47.856,46.426z M53.565,38.559c-0.398,0-0.788-0.076-1.156-0.227l-1.591-0.646
		c-0.761-0.309-1.356-0.896-1.678-1.655c-0.321-0.76-0.328-1.598-0.018-2.358c0,0,0.048-0.142,0.057-0.165
		c2.018-5.504,0.674-11.716-3.424-15.819c-2.82-2.817-6.581-4.37-10.59-4.37c-3.052,0-6.057,0.936-8.574,2.655l4.237,4.237
		c0.252,0.252,0.351,0.619,0.259,0.964c-0.091,0.345-0.359,0.614-0.704,0.708l-19.622,5.35c-0.087,0.023-0.175,0.035-0.263,0.035
		c-0.262,0-0.517-0.103-0.707-0.293c-0.254-0.254-0.352-0.624-0.258-0.97l5.353-19.62c0.094-0.344,0.364-0.612,0.708-0.703
		c0.085-0.023,0.171-0.034,0.257-0.034c0.262,0,0.517,0.103,0.707,0.293l4.395,4.395c4.052-3.168,9.07-4.903,14.232-4.903
		c6.115,0,11.853,2.369,16.155,6.67c6.262,6.265,8.315,15.735,5.234,24.132c-0.016,0.052-0.033,0.106-0.046,0.136
		c-0.009,0.022-0.105,0.261-0.105,0.261C55.95,37.804,54.828,38.559,53.565,38.559z"/>
	<path opacity="0.15" d="M23.056,42.333c-1.278,1.274-1.281,3.339-0.015,4.604c1.269,1.27,3.333,1.264,4.608-0.012
		c1.274-1.274,1.281-3.34,0.012-4.608C26.394,41.05,24.331,41.057,23.056,42.333z M34.625,44.799
		c-1.275,1.274-1.278,3.337-0.012,4.604c1.268,1.27,3.333,1.263,4.607-0.012c1.275-1.274,1.278-3.339,0.01-4.604
		C37.961,43.518,35.899,43.523,34.625,44.799z M50.635,12.81c-4.114-4.112-9.601-6.377-15.448-6.377
		c-5.24,0-10.314,1.865-14.301,5.249l-5.033-5.034l-2.676,9.811L10.5,26.268l9.812-2.678l9.81-2.672l-5.058-5.058
		c2.858-2.281,6.436-3.542,10.102-3.542c4.276,0,8.288,1.656,11.297,4.663c4.372,4.377,5.807,11.002,3.653,16.877
		c-0.009,0.023-0.016,0.048-0.021,0.072l-0.047,0.118c-0.209,0.514-0.204,1.079,0.013,1.592s0.619,0.91,1.133,1.118l1.593,0.646
		c0.249,0.102,0.511,0.152,0.778,0.152c0.853,0,1.611-0.509,1.932-1.299l0.056-0.139l-0.014-0.006
		c0.027-0.041,0.05-0.083,0.065-0.121c0.011-0.026,0.019-0.053,0.024-0.079C58.589,27.874,56.632,18.811,50.635,12.81z
		 M45.579,39.875c-1.274,1.277-1.281,3.338-0.012,4.606c1.269,1.265,3.33,1.259,4.604-0.017c1.275-1.274,1.281-3.338,0.013-4.603
		C48.916,38.594,46.854,38.6,45.579,39.875z"/>
	<linearGradient id="SVGID_1_" gradientUnits="userSpaceOnUse" x1="33.7456" y1="50.3516" x2="33.7456" y2="6.4336">
		<stop  offset="0" style="stop-color:#D0CBC5"/>
		<stop  offset="0.5031" style="stop-color:#FAFCEF"/>
		<stop  offset="0.9693" style="stop-color:#FFFFFF"/>
	</linearGradient>
	<path fill="url(#SVGID_1_)" d="M23.056,42.333c-1.278,1.274-1.281,3.339-0.015,4.604c1.269,1.27,3.333,1.264,4.608-0.012
		c1.274-1.274,1.281-3.34,0.012-4.608C26.394,41.05,24.331,41.057,23.056,42.333z M34.625,44.799
		c-1.275,1.274-1.278,3.337-0.012,4.604c1.268,1.27,3.333,1.263,4.607-0.012c1.275-1.274,1.278-3.339,0.01-4.604
		C37.961,43.518,35.899,43.523,34.625,44.799z M50.635,12.81c-4.114-4.112-9.601-6.377-15.448-6.377
		c-5.24,0-10.314,1.865-14.301,5.249l-5.033-5.034l-2.676,9.811L10.5,26.268l9.812-2.678l9.81-2.672l-5.058-5.058
		c2.858-2.281,6.436-3.542,10.102-3.542c4.276,0,8.288,1.656,11.297,4.663c4.372,4.377,5.807,11.002,3.653,16.877
		c-0.009,0.023-0.016,0.048-0.021,0.072l-0.047,0.118c-0.209,0.514-0.204,1.079,0.013,1.592s0.619,0.91,1.133,1.118l1.593,0.646
		c0.249,0.102,0.511,0.152,0.778,0.152c0.853,0,1.611-0.509,1.932-1.299l0.056-0.139l-0.014-0.006
		c0.027-0.041,0.05-0.083,0.065-0.121c0.011-0.026,0.019-0.053,0.024-0.079C58.589,27.874,56.632,18.811,50.635,12.81z
		 M45.579,39.875c-1.274,1.277-1.281,3.338-0.012,4.606c1.269,1.265,3.33,1.259,4.604-0.017c1.275-1.274,1.281-3.338,0.013-4.603
		C48.916,38.594,46.854,38.6,45.579,39.875z"/>
	<path fill="#FFFFFF" d="M50.096,33.932l-0.047,0.118c-0.168,0.413-0.191,0.857-0.084,1.283c0.023-0.096,0.047-0.19,0.084-0.283
		l0.047-0.118c0.005-0.024,0.012-0.049,0.021-0.072c0.726-1.979,1.034-4.042,0.97-6.077c-0.051,1.708-0.363,3.421-0.97,5.077
		C50.107,33.883,50.101,33.907,50.096,33.932z M50.635,13.81c4.014,4.016,6.206,9.403,6.338,14.938
		c0.126-5.882-2.083-11.681-6.338-15.938c-4.114-4.112-9.601-6.377-15.448-6.377c-5.24,0-10.314,1.865-14.301,5.249l-5.033-5.034
		l-2.676,9.811L10.5,26.268l0.295-0.081l2.381-8.729l2.676-9.811l5.033,5.034c3.987-3.384,9.061-5.249,14.301-5.249
		C41.034,7.433,46.521,9.698,50.635,13.81z M23.056,42.333c-0.771,0.769-1.069,1.824-0.914,2.819
		c0.102-0.665,0.399-1.307,0.914-1.819c1.275-1.276,3.337-1.283,4.605-0.016c0.503,0.503,0.798,1.133,0.9,1.788
		c0.151-0.988-0.142-2.03-0.9-2.788C26.394,41.05,24.331,41.057,23.056,42.333z M45.579,39.875c-0.769,0.771-1.067,1.826-0.912,2.82
		c0.102-0.665,0.399-1.307,0.912-1.82c1.274-1.275,3.337-1.281,4.605-0.013c0.503,0.502,0.797,1.13,0.899,1.783
		c0.151-0.987-0.142-2.027-0.899-2.783C48.916,38.594,46.854,38.6,45.579,39.875z M25.064,16.86l4.272,4.271l0.786-0.214l-4.48-4.48
		C25.449,16.579,25.251,16.711,25.064,16.86z M34.625,44.799c-0.769,0.769-1.066,1.822-0.911,2.816
		c0.102-0.664,0.398-1.305,0.911-1.816c1.274-1.275,3.336-1.281,4.605-0.012c0.504,0.503,0.799,1.134,0.901,1.789
		c0.151-0.989-0.143-2.031-0.901-2.789C37.961,43.518,35.899,43.523,34.625,44.799z"/>
</g>
<g id="DO_NOT_EDIT_-_FOCAL_ZONE_GUIDES">
</g>
</svg>
