<?xml version="1.0" encoding="utf-8"?>
<!-- Generator: Adobe Illustrator 14.0.0, SVG Export Plug-In  -->
<!DOCTYPE svg PUBLIC "-//W3C//DTD SVG 1.1//EN" "http://www.w3.org/Graphics/SVG/1.1/DTD/svg11.dtd" [
	<!ENTITY ns_flows "http://ns.adobe.com/Flows/1.0/">
]>
<svg version="1.1"
	 xmlns="http://www.w3.org/2000/svg" xmlns:xlink="http://www.w3.org/1999/xlink" xmlns:a="http://ns.adobe.com/AdobeSVGViewerExtensions/3.0/"
	 x="0px" y="0px" width="67px" height="57px" viewBox="0 0 67 57" enable-background="new 0 0 67 57" xml:space="preserve">
<defs>
</defs>
<rect fill="none" width="67" height="57"/>
<path opacity="0.15" d="M61.822,41.431l-7.645-11.042c0.19,0.275,0.5,0.431,0.822,0.431c0.1,0,0.2-0.015,0.298-0.046
	C55.716,30.644,56,30.257,56,29.819V15c0-0.386-0.223-0.738-0.571-0.904C55.292,14.032,55.146,14,55,14
	c-0.227,0-0.451,0.077-0.633,0.226L33,31.708L11.633,14.226C11.451,14.077,11.227,14,11,14c-0.146,0-0.292,0.032-0.429,0.096
	C10.223,14.262,10,14.614,10,15v28c0,1.654,1.346,3,3,3h33c0.553,0,1-0.447,1-1v8c0,0.953,1.047,2,2,2h6c0.953,0,2-1.047,2-2V43h4
	c0.372,0,0.713-0.207,0.886-0.536S62.034,41.736,61.822,41.431z M47,44c0-0.553-0.447-1-1-1h1V44z M32.367,30.773
	C32.551,30.925,32.775,31,33,31s0.449-0.075,0.633-0.227l22-18c0.327-0.268,0.451-0.712,0.309-1.11C55.8,11.266,55.423,11,55,11H11
	c-0.423,0-0.8,0.266-0.941,0.664c-0.143,0.398-0.019,0.843,0.309,1.11L32.367,30.773z"/>
<path opacity="0.3" d="M55,13H11l22,18L55,13z M41.229,43.928c-0.346-0.658-0.296-1.454,0.127-2.066l9-13
	C50.729,28.322,51.344,28,52,28s1.271,0.322,1.645,0.861L55,30.819V16L33,34L11,16v28c0,1.104,0.896,2,2,2h33v-1h-3
	C42.256,45,41.573,44.587,41.229,43.928z M52,30l-9,13h5v11c0,0.398,0.601,1,1,1h6c0.4,0,1-0.602,1-1V43h5L52,30z"/>
<linearGradient id="SVGID_1_" gradientUnits="userSpaceOnUse" x1="36" y1="54" x2="36" y2="12.0005">
	<stop  offset="0" style="stop-color:#D0CBC5"/>
	<stop  offset="0.5031" style="stop-color:#FAFCEF"/>
	<stop  offset="0.9693" style="stop-color:#FFFFFF"/>
</linearGradient>
<path fill="url(#SVGID_1_)" d="M55,12H11l22,18L55,12z M41.229,42.928c-0.346-0.658-0.296-1.454,0.127-2.066l9-13
	C50.729,27.322,51.344,27,52,27s1.271,0.322,1.645,0.861L55,29.819V15L33,33L11,15v28c0,1.104,0.896,2,2,2h33v-1h-3
	C42.256,44,41.573,43.587,41.229,42.928z M52,29l-9,13h5v11c0,0.398,0.601,1,1,1h6c0.4,0,1-0.602,1-1V42h5L52,29z"/>
<path fill="#FFFFFF" d="M55,15L33,33L11,15v1l22,18l22-18V15z M53.777,13L55,12H11l1.223,1H53.777z M52,29l-9,13h0.692L52,30
	l8.308,12H61L52,29z"/>
</svg>
