<?xml version="1.0" encoding="utf-8"?>
<!-- Generator: Adobe Illustrator 14.0.0, SVG Export Plug-In  -->
<!DOCTYPE svg PUBLIC "-//W3C//DTD SVG 1.1//EN" "http://www.w3.org/Graphics/SVG/1.1/DTD/svg11.dtd" [
	<!ENTITY ns_flows "http://ns.adobe.com/Flows/1.0/">
]>
<svg version="1.1"
	 xmlns="http://www.w3.org/2000/svg" xmlns:xlink="http://www.w3.org/1999/xlink" xmlns:a="http://ns.adobe.com/AdobeSVGViewerExtensions/3.0/"
	 x="0px" y="0px" width="67px" height="57px" viewBox="0 0 67 57" enable-background="new 0 0 67 57" xml:space="preserve">
<defs>
</defs>
<rect fill="none" width="67" height="57"/>
<path opacity="0.3" d="M44.5,35.053c-1.951,0-3.716,0.792-4.992,2.071l-12.465-6.79c0.105-0.486,0.166-0.988,0.166-1.506
	c0-0.505-0.057-0.996-0.157-1.471L39.5,20.663c1.278,1.283,3.046,2.078,5,2.078c3.896,0,7.055-3.158,7.055-7.055
	S48.396,8.632,44.5,8.632s-7.055,3.158-7.055,7.055c0,0.5,0.055,0.987,0.152,1.457l-12.455,6.697
	c-1.275-1.277-3.04-2.067-4.989-2.067c-3.896,0-7.055,3.158-7.055,7.055s3.159,7.055,7.055,7.055c1.937,0,3.688-0.781,4.964-2.043
	l12.483,6.801c-0.101,0.474-0.155,0.964-0.155,1.467c0,3.896,3.158,7.055,7.055,7.055s7.055-3.158,7.055-7.055
	S48.396,35.053,44.5,35.053z"/>
<path opacity="0.15" fill="none" stroke="#000000" stroke-width="2" d="M44.5,34.053c-1.951,0-3.716,0.792-4.992,2.071l-12.465-6.79
	c0.105-0.486,0.166-0.988,0.166-1.506c0-0.505-0.057-0.996-0.157-1.471L39.5,19.663c1.278,1.283,3.046,2.078,5,2.078
	c3.896,0,7.055-3.158,7.055-7.055S48.396,7.632,44.5,7.632s-7.055,3.158-7.055,7.055c0,0.5,0.055,0.987,0.152,1.457l-12.455,6.697
	c-1.275-1.277-3.04-2.067-4.989-2.067c-3.896,0-7.055,3.158-7.055,7.055s3.159,7.055,7.055,7.055c1.937,0,3.688-0.781,4.964-2.043
	l12.483,6.801c-0.101,0.474-0.155,0.964-0.155,1.467c0,3.896,3.158,7.055,7.055,7.055s7.055-3.158,7.055-7.055
	S48.396,34.053,44.5,34.053z"/>
<linearGradient id="SVGID_1_" gradientUnits="userSpaceOnUse" x1="32.3267" y1="45" x2="32.3267" y2="3.2389">
	<stop  offset="0" style="stop-color:#D0CBC5"/>
	<stop  offset="0.5031" style="stop-color:#FAFCEF"/>
	<stop  offset="0.9693" style="stop-color:#FFFFFF"/>
</linearGradient>
<path fill="url(#SVGID_1_)" d="M44.5,34.053c-1.951,0-3.716,0.792-4.992,2.071l-12.465-6.79c0.105-0.486,0.166-0.988,0.166-1.506
	c0-0.505-0.057-0.996-0.157-1.471L39.5,19.663c1.278,1.283,3.046,2.078,5,2.078c3.896,0,7.055-3.158,7.055-7.055
	S48.396,7.632,44.5,7.632s-7.055,3.158-7.055,7.055c0,0.5,0.055,0.987,0.152,1.457l-12.455,6.697
	c-1.275-1.277-3.04-2.067-4.989-2.067c-3.896,0-7.055,3.158-7.055,7.055s3.159,7.055,7.055,7.055c1.937,0,3.688-0.781,4.964-2.043
	l12.483,6.801c-0.101,0.474-0.155,0.964-0.155,1.467c0,3.896,3.158,7.055,7.055,7.055s7.055-3.158,7.055-7.055
	S48.396,34.053,44.5,34.053z"/>
<path fill="#FFFFFF" d="M37.474,16.21l-12.331,6.63c-1.275-1.277-3.04-2.067-4.989-2.067c-3.896,0-7.055,3.158-7.055,7.055
	c0,0.169,0.014,0.334,0.025,0.5c0.257-3.662,3.303-6.555,7.029-6.555c1.949,0,3.714,0.79,4.989,2.067l12.455-6.697
	C37.534,16.84,37.497,16.527,37.474,16.21z M44.5,8.632c3.728,0,6.771,2.893,7.029,6.555c0.012-0.166,0.025-0.331,0.025-0.5
	c0-3.896-3.158-7.055-7.055-7.055s-7.055,3.158-7.055,7.055c0,0.164,0.015,0.325,0.026,0.486C37.735,11.517,40.777,8.632,44.5,8.632
	z M37.445,41.107c0,0.174,0.014,0.344,0.026,0.515c0.023-0.333,0.062-0.662,0.129-0.981l-0.127-0.069
	C37.46,40.749,37.445,40.927,37.445,41.107z M44.5,34.053c-1.951,0-3.716,0.792-4.992,2.071l-12.332-6.718
	c-0.027,0.314-0.068,0.625-0.133,0.928l12.465,6.79c1.276-1.279,3.041-2.071,4.992-2.071c3.728,0,6.771,2.893,7.029,6.555
	c0.012-0.166,0.025-0.331,0.025-0.5C51.555,37.211,48.396,34.053,44.5,34.053z M27.181,28.319c0.012-0.163,0.028-0.325,0.028-0.491
	c0-0.183-0.016-0.361-0.029-0.54l-0.128,0.069C27.118,27.67,27.157,27.993,27.181,28.319z"/>
</svg>
