<?xml version="1.0" encoding="utf-8"?>
<!-- Generator: Adobe Illustrator 15.0.2, SVG Export Plug-In . SVG Version: 6.00 Build 0)  -->
<!DOCTYPE svg PUBLIC "-//W3C//DTD SVG 1.1//EN" "http://www.w3.org/Graphics/SVG/1.1/DTD/svg11.dtd">
<svg version="1.1" id="Ebene_1" xmlns="http://www.w3.org/2000/svg" xmlns:xlink="http://www.w3.org/1999/xlink" x="0px" y="0px"
	 width="67px" height="57px" viewBox="0 0 67 57" enable-background="new 0 0 67 57" xml:space="preserve">
<g id="DO_NOT_EDIT_-_BOUNDING_BOX">
	<rect id="BOUNDING_BOX" fill="none" width="67" height="57"/>
</g>
<g id="PLACE_YOUR_GRAPHIC_HERE">
	<path opacity="0.3" enable-background="new    " d="M44.496,21.747h5.309v3.539l7.076-7.077l-7.076-7.077v3.539h-5.309
		c-5.309,0-8.549,2.616-10.615,5.308L23.715,33.396c-1.362,1.77-2.81,2.506-4.976,2.506h-7.858v7.076h7.858
		c5.308,0,8.549-2.615,10.615-5.309l10.167-13.417C40.882,22.483,42.33,21.747,44.496,21.747z M23.715,24.253l2.209,2.916
		l4.438-5.859l-1.008-1.331c-2.066-2.692-5.308-5.309-10.615-5.309h-7.858v7.077h7.858C20.905,21.747,22.353,22.483,23.715,24.253z
		 M49.805,35.9h-5.309c-2.166,0-3.614-0.735-4.977-2.506l-2.209-2.916l-4.438,5.859l1.009,1.332
		c2.066,2.691,5.309,5.307,10.615,5.307h5.309v3.539l7.076-7.076l-7.076-7.078V35.9z"/>
	<path opacity="0.15" enable-background="new    " d="M49.805,46.518c-0.13,0-0.26-0.024-0.384-0.076
		c-0.374-0.154-0.616-0.521-0.616-0.924v-2.539h-4.309c-4.667,0-8.506-1.918-11.408-5.697l-1.013-1.338
		c-0.271-0.356-0.27-0.852,0-1.207l4.438-5.86c0.188-0.25,0.483-0.396,0.797-0.396l0,0c0.313,0,0.608,0.146,0.797,0.396l2.209,2.917
		c1.168,1.518,2.341,2.109,4.18,2.109h4.309v-2.539c0-0.404,0.242-0.771,0.616-0.924c0.124-0.053,0.254-0.076,0.384-0.076
		c0.26,0,0.516,0.102,0.707,0.293l7.076,7.076c0.188,0.188,0.293,0.441,0.293,0.707c0,0.267-0.105,0.521-0.293,0.707l-7.076,7.078
		C50.318,46.415,50.063,46.518,49.805,46.518z M10.881,42.979c-0.552,0-1-0.446-1-1v-7.076c0-0.553,0.448-1,1-1h7.858
		c1.839,0,3.012-0.594,4.184-2.116l3.789-5c-0.189,0.242-0.479,0.383-0.787,0.383c-0.313,0-0.608-0.146-0.797-0.396l-2.209-2.916
		c-1.167-1.517-2.34-2.11-4.179-2.11h-7.858c-0.552,0-1-0.448-1-1V13.67c0-0.552,0.448-1,1-1h7.858c4.667,0,8.506,1.917,11.409,5.7
		l1.012,1.336c0.271,0.357,0.271,0.851,0,1.208l-3.263,4.307l5.188-6.847c2.906-3.786,6.745-5.704,11.412-5.704h4.309v-2.539
		c0-0.404,0.242-0.769,0.616-0.924c0.124-0.051,0.254-0.076,0.384-0.076c0.26,0,0.516,0.102,0.707,0.293l7.076,7.077
		c0.188,0.188,0.293,0.442,0.293,0.707s-0.105,0.52-0.293,0.707l-7.076,7.077c-0.191,0.191-0.447,0.293-0.707,0.293
		c-0.13,0-0.26-0.025-0.384-0.076c-0.374-0.155-0.616-0.52-0.616-0.924v-2.539h-4.309c-1.839,0-3.012,0.593-4.184,2.115
		L30.151,37.273c-2.906,3.787-6.745,5.705-11.412,5.705H10.881L10.881,42.979z"/>
	<path opacity="0.15" enable-background="new    " d="M44.496,20.747h5.309v3.539l7.076-7.077l-7.076-7.077v3.539h-5.309
		c-5.309,0-8.549,2.616-10.615,5.308L23.715,32.396c-1.362,1.77-2.81,2.506-4.976,2.506h-7.858v7.076h7.858
		c5.308,0,8.549-2.615,10.615-5.309l10.167-13.417C40.882,21.483,42.33,20.747,44.496,20.747z M23.715,23.253l2.209,2.916
		l4.438-5.859l-1.008-1.331c-2.066-2.692-5.308-5.309-10.615-5.309h-7.858v7.077h7.858C20.905,20.747,22.353,21.483,23.715,23.253z
		 M49.805,34.9h-5.309c-2.166,0-3.614-0.735-4.977-2.506l-2.209-2.916l-4.438,5.859l1.009,1.332
		c2.066,2.691,5.309,5.307,10.615,5.307h5.309v3.539l7.076-7.076l-7.076-7.078V34.9z"/>
	
		<linearGradient id="SVGID_1_" gradientUnits="userSpaceOnUse" x1="33.7202" y1="10.5195" x2="33.7202" y2="45.9038" gradientTransform="matrix(1 0 0 -1 0.1602 56.0352)">
		<stop  offset="0" style="stop-color:#D0CBC5"/>
		<stop  offset="0.5031" style="stop-color:#FAFCEF"/>
		<stop  offset="0.9693" style="stop-color:#FFFFFF"/>
	</linearGradient>
	<path fill="url(#SVGID_1_)" d="M44.496,20.747h5.309v3.539l7.076-7.077l-7.076-7.077v3.539h-5.309
		c-5.309,0-8.549,2.616-10.615,5.308L23.715,32.396c-1.362,1.77-2.81,2.506-4.976,2.506h-7.858v7.076h7.858
		c5.308,0,8.549-2.615,10.615-5.309l10.167-13.417C40.882,21.483,42.33,20.747,44.496,20.747z M23.715,23.253l2.209,2.916
		l4.438-5.859l-1.008-1.331c-2.066-2.692-5.308-5.309-10.615-5.309h-7.858v7.077h7.858C20.905,20.747,22.353,21.483,23.715,23.253z
		 M49.805,34.9h-5.309c-2.166,0-3.614-0.735-4.977-2.506l-2.209-2.916l-4.438,5.859l1.009,1.332
		c2.066,2.691,5.309,5.307,10.615,5.307h5.309v3.539l7.076-7.076l-7.076-7.078V34.9z"/>
	<path fill="#FFFFFF" d="M39.521,32.396l-2.209-2.916l-4.439,5.858l0.379,0.5l4.061-5.358l2.209,2.916
		c1.361,1.77,2.811,2.506,4.977,2.506h5.309v-1h-5.309C42.33,34.9,40.882,34.165,39.521,32.396z M56.881,17.209l-7.076-7.077v1
		l6.576,6.577L56.881,17.209z M44.496,14.67h5.309v-1h-5.309c-5.309,0-8.549,2.616-10.615,5.308L23.715,32.396
		c-1.362,1.77-2.81,2.506-4.976,2.506h-7.858v1h7.858c2.167,0,3.614-0.736,4.976-2.506l10.166-13.417
		C35.947,17.286,39.188,14.67,44.496,14.67z M49.805,32.361l6.576,6.578l0.5-0.5l-7.076-7.078V32.361z M29.354,19.979l0.629,0.831
		l0.379-0.5l-1.008-1.331c-2.066-2.692-5.308-5.309-10.615-5.309h-7.858v1h7.858C24.046,14.67,27.288,17.286,29.354,19.979z"/>
</g>
<g id="DO_NOT_EDIT_-_FOCAL_ZONE_GUIDES">
</g>
</svg>
