<?xml version="1.0" encoding="utf-8"?>
<!-- Generator: Adobe Illustrator 15.0.2, SVG Export Plug-In  -->
<!DOCTYPE svg PUBLIC "-//W3C//DTD SVG 1.1//EN" "http://www.w3.org/Graphics/SVG/1.1/DTD/svg11.dtd" [
	<!ENTITY ns_flows "http://ns.adobe.com/Flows/1.0/">
]>
<svg version="1.1"
	 xmlns="http://www.w3.org/2000/svg" xmlns:xlink="http://www.w3.org/1999/xlink" xmlns:a="http://ns.adobe.com/AdobeSVGViewerExtensions/3.0/"
	 x="0px" y="0px" width="67px" height="57px" viewBox="0 0 67 57" enable-background="new 0 0 67 57" xml:space="preserve">
<defs>
</defs>
<rect id="BOUNDING_BOX_1_" fill="none" width="67" height="57"/>
<path opacity="0.3" d="M31.43,38.776c-1.673-0.753-3.627-1.209-5.742-1.209C19.776,37.567,15,40.906,15,45.035
	c0,4.13,4.776,7.465,10.688,7.465c5.896,0,10.669-3.335,10.669-7.465v-5.608L31.43,34.5V38.776z M33.845,6.507
	c0,0-2.415-0.247-2.415,2.284V22.5l4.927,4.926V19.16c4.912,0.752,9.411,1.774,13.144,2.815V9.468
	C43.821,7.997,38.184,7.132,33.845,6.507z M22.173,16.732c-0.749-0.749-1.962-0.749-2.711,0c-0.748,0.749-0.748,1.961,0,2.71
	L45.21,45.191c0.375,0.374,0.865,0.562,1.355,0.562s0.98-0.188,1.355-0.562c0.748-0.749,0.748-1.962,0-2.711L22.173,16.732z"/>
<path opacity="0.15" d="M25.688,52.5C19.243,52.5,14,48.703,14,44.035c0-4.669,5.243-8.468,11.688-8.468
	c1.621,0,3.235,0.258,4.742,0.751V33.5c0-0.404,0.244-0.77,0.617-0.924c0.124-0.052,0.254-0.076,0.383-0.076
	c0.26,0,0.516,0.102,0.707,0.293l4.927,4.927c0.188,0.188,0.293,0.441,0.293,0.707v5.608C37.356,48.703,32.122,52.5,25.688,52.5z
	 M36.356,27.426c-0.26,0-0.516-0.102-0.707-0.293l-4.927-4.926c-0.188-0.188-0.293-0.442-0.293-0.707V7.791
	c0-2.429,1.747-3.291,3.243-3.291c0.171,0,0.274,0.012,0.274,0.012C38.96,5.233,44.311,6.09,49.751,7.5
	C50.192,7.614,50.5,8.012,50.5,8.468v12.507c0,0.313-0.146,0.607-0.396,0.796c-0.176,0.134-0.389,0.204-0.604,0.204
	c-0.09,0-0.18-0.012-0.269-0.037c-3.776-1.053-7.857-1.948-11.875-2.607v7.095c0,0.404-0.243,0.769-0.617,0.924
	C36.615,27.401,36.485,27.426,36.356,27.426z"/>
<path opacity="0.15" d="M31.43,37.776c-1.673-0.753-3.627-1.209-5.742-1.209C19.776,36.567,15,39.906,15,44.035
	c0,4.13,4.776,7.465,10.688,7.465c5.896,0,10.669-3.335,10.669-7.465v-5.608L31.43,33.5V37.776z M33.845,5.507
	c0,0-2.415-0.247-2.415,2.284V21.5l4.927,4.926V18.16c4.912,0.752,9.411,1.774,13.144,2.815V8.468
	C43.821,6.997,38.184,6.132,33.845,5.507z"/>
<linearGradient id="SVGID_1_" gradientUnits="userSpaceOnUse" x1="32.2505" y1="51.5" x2="32.2505" y2="5.5005">
	<stop  offset="0" style="stop-color:#D0CBC5"/>
	<stop  offset="0.5031" style="stop-color:#FAFCEF"/>
	<stop  offset="0.9693" style="stop-color:#FFFFFF"/>
</linearGradient>
<path fill="url(#SVGID_1_)" d="M31.43,37.776c-1.673-0.753-3.627-1.209-5.742-1.209C19.776,36.567,15,39.906,15,44.035
	c0,4.13,4.776,7.465,10.688,7.465c5.896,0,10.669-3.335,10.669-7.465v-5.608L31.43,33.5V37.776z M33.845,5.507
	c0,0-2.415-0.247-2.415,2.284V21.5l4.927,4.926V18.16c4.912,0.752,9.411,1.774,13.144,2.815V8.468
	C43.821,6.997,38.184,6.132,33.845,5.507z"/>
<path fill="#FFFFFF" d="M25.688,37.567c2.115,0,4.069,0.456,5.742,1.209v-1c-1.673-0.753-3.627-1.209-5.742-1.209
	C19.776,36.567,15,39.906,15,44.035c0,0.169,0.021,0.334,0.036,0.5C15.405,40.642,20.018,37.567,25.688,37.567z"/>
<path fill="#FFFFFF" d="M33.845,5.507c0,0-2.415-0.247-2.415,2.284v1c0-2.531,2.415-2.284,2.415-2.284
	c4.339,0.625,9.977,1.49,15.655,2.961v-1C43.821,6.997,38.184,6.132,33.845,5.507z"/>
<polygon fill="#FFFFFF" points="31.43,34.5 36.356,39.427 36.356,38.427 31.43,33.5 "/>
<path fill="#EC1C24" d="M46.565,44.753c-0.49,0-0.98-0.188-1.355-0.562L19.462,18.443c-0.748-0.749-0.748-1.962,0-2.71
	c0.749-0.749,1.962-0.749,2.711,0L47.921,41.48c0.748,0.749,0.748,1.962,0,2.711C47.546,44.565,47.056,44.753,46.565,44.753z"/>
</svg>
