<?xml version="1.0" encoding="utf-8"?>
<!-- Generator: Adobe Illustrator 15.0.0, SVG Export Plug-In . SVG Version: 6.00 Build 0)  -->
<!DOCTYPE svg PUBLIC "-//W3C//DTD SVG 1.1//EN" "http://www.w3.org/Graphics/SVG/1.1/DTD/svg11.dtd">
<svg version="1.1" xmlns="http://www.w3.org/2000/svg" xmlns:xlink="http://www.w3.org/1999/xlink" x="0px" y="0px" width="67px"
	 height="57px" viewBox="0 0 67 57" enable-background="new 0 0 67 57" xml:space="preserve">
<g id="DO_NOT_EDIT_-_BOUNDING_BOX">
	<rect id="BOUNDING_BOX" fill="none" width="67" height="57"/>
</g>
<g id="PLACE_YOUR_GRAPHIC_HERE">
	<path opacity="0.3" d="M52,18H33v23h19V18z M56,12H19c-1.1,0-2.64,0.64-3.41,1.41l-5.18,5.18C9.64,19.36,9,20.9,9,22v23
		c0,1.1,0.9,2,2,2h45c1.1,0,2-0.9,2-2V14C58,12.9,57.1,12,56,12z M54,43H13V22c0.02-0.11,0.18-0.49,0.29-0.64l5.12-5.11
		c0.09-0.07,0.48-0.23,0.66-0.25H54V43z"/>
	<rect x="16.381" y="16.446" fill="none" width="30" height="30"/>
	<path opacity="0.15" d="M11,47c-1.654,0-3-1.346-3-3V21c0-1.354,0.748-3.162,1.703-4.117l5.18-5.18C15.838,10.748,17.646,10,19,10
		h37c1.654,0,3,1.346,3,3v31c0,1.654-1.346,3-3,3H11z M53,41v-1c0,0.553-0.447,1-1,1H53z M33,41c-0.552,0-1-0.447-1-1V17
		c0-0.552,0.448-1,1-1h19c0.553,0,1,0.448,1,1v-1H19.176c-0.047,0.015-0.111,0.039-0.162,0.061l-4.937,4.926
		c-0.022,0.045-0.053,0.114-0.077,0.173V41H33z"/>
	<path opacity="0.15" d="M52,17H33v23h19V17z M56,11H19c-1.1,0-2.64,0.64-3.41,1.41l-5.18,5.18C9.64,18.36,9,19.9,9,21v23
		c0,1.1,0.9,2,2,2h45c1.1,0,2-0.9,2-2V13C58,11.9,57.1,11,56,11z M54,42H13V21c0.02-0.11,0.18-0.49,0.29-0.64l5.12-5.11
		c0.09-0.07,0.48-0.23,0.66-0.25H54V42z"/>
	<linearGradient id="SVGID_1_" gradientUnits="userSpaceOnUse" x1="33.5005" y1="46" x2="33.5005" y2="11.0005">
		<stop  offset="0" style="stop-color:#D0CBC5"/>
		<stop  offset="0.5031" style="stop-color:#FAFCEF"/>
		<stop  offset="0.9693" style="stop-color:#FFFFFF"/>
	</linearGradient>
	<path fill="url(#SVGID_1_)" d="M52,17H33v23h19V17z M56,11H19c-1.1,0-2.64,0.64-3.41,1.41l-5.18,5.18C9.64,18.36,9,19.9,9,21v23
		c0,1.1,0.9,2,2,2h45c1.1,0,2-0.9,2-2V13C58,11.9,57.1,11,56,11z M54,42H13V21c0.02-0.11,0.18-0.49,0.29-0.64l5.12-5.11
		c0.09-0.07,0.48-0.23,0.66-0.25H54V42z"/>
	<path fill="#FFFFFF" d="M13,43v-1h41v1H13z M33,17v1h19v-1H33z M56,11H19c-1.1,0-2.64,0.64-3.41,1.41l-5.18,5.18
		C9.64,18.36,9,19.9,9,21v1c0-1.1,0.64-2.64,1.41-3.41l5.18-5.18C16.36,12.64,17.9,12,19,12h37c1.1,0,2,0.9,2,2v-1
		C58,11.9,57.1,11,56,11z"/>
</g>
<g id="DO_NOT_EDIT_-_FOCAL_ZONE_GUIDES">
</g>
</svg>
