<?xml version="1.0" encoding="utf-8"?>
<!-- Generator: Adobe Illustrator 15.0.0, SVG Export Plug-In . SVG Version: 6.00 Build 0)  -->
<!DOCTYPE svg PUBLIC "-//W3C//DTD SVG 1.1//EN" "http://www.w3.org/Graphics/SVG/1.1/DTD/svg11.dtd">
<svg version="1.1" xmlns="http://www.w3.org/2000/svg" xmlns:xlink="http://www.w3.org/1999/xlink" x="0px" y="0px" width="67px"
	 height="57px" viewBox="0 0 67 57" enable-background="new 0 0 67 57" xml:space="preserve">
<g id="DO_NOT_EDIT_-_BOUNDING_BOX">
	<rect id="BOUNDING_BOX" fill="none" width="67" height="57"/>
</g>
<g id="PLACE_YOUR_GRAPHIC_HERE">
	<path opacity="0.3" d="M54.73,13.577h-3.538c-0.978,0-1.77,0.791-1.77,1.769v11.422L32.336,13.781
		c-0.242-0.136-0.512-0.204-0.781-0.204c-0.276,0-0.557,0.071-0.805,0.216c-0.487,0.29-0.788,0.809-0.788,1.374v11.602
		L12.874,13.781c-0.242-0.136-0.512-0.204-0.781-0.204c-0.276,0-0.556,0.071-0.805,0.216c-0.487,0.29-0.788,0.809-0.788,1.374V43.83
		c0,0.566,0.301,1.089,0.788,1.375c0.249,0.15,0.528,0.218,0.805,0.218c0.266,0,0.539-0.067,0.781-0.204l17.087-12.987v11.603
		c0,0.564,0.301,1.086,0.788,1.373c0.249,0.148,0.529,0.216,0.805,0.216c0.266,0,0.539-0.067,0.781-0.204l17.087-12.987v11.423
		c0,0.978,0.792,1.769,1.77,1.769h3.538c0.979,0,1.77-0.791,1.77-1.769V15.346C56.5,14.368,55.709,13.577,54.73,13.577z"/>
	<path opacity="0.15" d="M51.192,45.423c-1.527,0-2.77-1.242-2.77-2.769v-9.406L32.941,45.015c-0.036,0.027-0.074,0.053-0.113,0.075
		c-0.386,0.218-0.827,0.333-1.273,0.333c-0.471,0-0.927-0.124-1.318-0.357c-0.785-0.462-1.275-1.318-1.275-2.231v-9.587
		L13.479,45.015c-0.036,0.027-0.074,0.053-0.113,0.075c-0.386,0.218-0.827,0.333-1.273,0.333c-0.474,0-0.931-0.125-1.322-0.362
		C9.991,44.604,9.5,43.746,9.5,42.83V14.167c0-0.909,0.489-1.764,1.277-2.233c0.402-0.235,0.854-0.356,1.316-0.356
		c0.446,0,0.885,0.115,1.271,0.332c0.04,0.022,0.079,0.048,0.115,0.076l15.482,11.768v-9.586c0-0.909,0.489-1.764,1.277-2.233
		c0.402-0.235,0.854-0.356,1.316-0.356c0.446,0,0.885,0.115,1.271,0.332c0.04,0.022,0.079,0.048,0.115,0.076l15.482,11.768v-9.406
		c0-1.527,1.242-2.769,2.77-2.769h3.538c1.527,0,2.77,1.242,2.77,2.769v28.308c0,1.526-1.242,2.769-2.77,2.769H51.192z"/>
	<path opacity="0.15" d="M54.73,12.577h-3.538c-0.978,0-1.77,0.791-1.77,1.769v11.422L32.336,12.781
		c-0.242-0.136-0.512-0.204-0.781-0.204c-0.276,0-0.557,0.071-0.805,0.216c-0.487,0.29-0.788,0.809-0.788,1.374v11.602
		L12.874,12.781c-0.242-0.136-0.512-0.204-0.781-0.204c-0.276,0-0.556,0.071-0.805,0.216c-0.487,0.29-0.788,0.809-0.788,1.374V42.83
		c0,0.566,0.301,1.089,0.788,1.375c0.249,0.15,0.528,0.218,0.805,0.218c0.266,0,0.539-0.067,0.781-0.204l17.087-12.987v11.603
		c0,0.564,0.301,1.086,0.788,1.373c0.249,0.148,0.529,0.216,0.805,0.216c0.266,0,0.539-0.067,0.781-0.204l17.087-12.987v11.423
		c0,0.978,0.792,1.769,1.77,1.769h3.538c0.979,0,1.77-0.791,1.77-1.769V14.346C56.5,13.368,55.709,12.577,54.73,12.577z"/>
	<linearGradient id="SVGID_1_" gradientUnits="userSpaceOnUse" x1="33.5005" y1="44.4229" x2="33.5005" y2="12.5776">
		<stop  offset="0" style="stop-color:#D0CBC5"/>
		<stop  offset="0.5031" style="stop-color:#FAFCEF"/>
		<stop  offset="0.9693" style="stop-color:#FFFFFF"/>
	</linearGradient>
	<path fill="url(#SVGID_1_)" d="M54.73,12.577h-3.538c-0.978,0-1.77,0.791-1.77,1.769v11.422L32.336,12.781
		c-0.242-0.136-0.512-0.204-0.781-0.204c-0.276,0-0.557,0.071-0.805,0.216c-0.487,0.29-0.788,0.809-0.788,1.374v11.602
		L12.874,12.781c-0.242-0.136-0.512-0.204-0.781-0.204c-0.276,0-0.556,0.071-0.805,0.216c-0.487,0.29-0.788,0.809-0.788,1.374V42.83
		c0,0.566,0.301,1.089,0.788,1.375c0.249,0.15,0.528,0.218,0.805,0.218c0.266,0,0.539-0.067,0.781-0.204l17.087-12.987v11.603
		c0,0.564,0.301,1.086,0.788,1.373c0.249,0.148,0.529,0.216,0.805,0.216c0.266,0,0.539-0.067,0.781-0.204l17.087-12.987v11.423
		c0,0.978,0.792,1.769,1.77,1.769h3.538c0.979,0,1.77-0.791,1.77-1.769V14.346C56.5,13.368,55.709,12.577,54.73,12.577z"/>
	<path fill="#FFFFFF" d="M29.961,15.167v-1c0-0.565,0.301-1.083,0.788-1.374c0.249-0.145,0.529-0.216,0.805-0.216
		c0.27,0,0.539,0.067,0.781,0.204l17.087,12.988v1L32.336,13.781c-0.242-0.136-0.512-0.204-0.781-0.204
		c-0.276,0-0.557,0.071-0.805,0.216C30.262,14.083,29.961,14.602,29.961,15.167z M54.73,12.577h-3.538
		c-0.978,0-1.77,0.791-1.77,1.769v1c0-0.978,0.792-1.769,1.77-1.769h3.538c0.979,0,1.77,0.791,1.77,1.769v-1
		C56.5,13.368,55.709,12.577,54.73,12.577z M11.288,13.793c0.249-0.145,0.528-0.216,0.805-0.216c0.27,0,0.539,0.067,0.781,0.204
		l17.087,12.988v-1L12.874,12.781c-0.242-0.136-0.512-0.204-0.781-0.204c-0.276,0-0.556,0.071-0.805,0.216
		c-0.487,0.29-0.788,0.809-0.788,1.374v1C10.5,14.602,10.801,14.083,11.288,13.793z"/>
</g>
<g id="DO_NOT_EDIT_-_FOCAL_ZONE_GUIDES">
</g>
</svg>
