<?xml version="1.0" encoding="utf-8"?>
<!-- Generator: Adobe Illustrator 15.0.0, SVG Export Plug-In . SVG Version: 6.00 Build 0)  -->
<!DOCTYPE svg PUBLIC "-//W3C//DTD SVG 1.1//EN" "http://www.w3.org/Graphics/SVG/1.1/DTD/svg11.dtd">
<svg version="1.1" xmlns="http://www.w3.org/2000/svg" xmlns:xlink="http://www.w3.org/1999/xlink" x="0px" y="0px" width="67px"
	 height="57px" viewBox="0 0 67 57" enable-background="new 0 0 67 57" xml:space="preserve">
<g id="DO_NOT_EDIT_-_BOUNDING_BOX">
	<rect id="BOUNDING_BOX" fill="none" width="67" height="57"/>
</g>
<g id="PLACE_YOUR_GRAPHIC_HERE">
	<path opacity="0.3" d="M16.241,6.5c-0.962,0-1.75,0.9-1.75,2v42c0,1.1,0.788,2,1.75,2s1.75-0.9,1.75-2v-42
		C17.991,7.4,17.204,6.5,16.241,6.5z M48.215,15.058c-4.244-0.794-7.834-2.437-7.834-2.437c-2.684-1.362-5.148-3.016-7.832-4.263
		c0,0-3.243-1.646-7.833-1.858c-1.448,0-3,0.176-4.699,0.599v25.064c1.699-0.423,2.885-0.622,4.699-0.663
		c3.762,0.01,7.833,1.462,7.833,1.462c2.683,1.046,6.238,2.803,7.832,3.625c3.834,1.939,7.834,2.03,7.834,2.03
		c1.445,0.095,2.996,0.055,4.699-0.189V14.929C51.211,15.174,49.66,15.194,48.215,15.058z"/>
	<rect x="16.381" y="16.446" fill="none" width="30" height="30"/>
	<path opacity="0.15" d="M16.241,52.5c-1.517,0-2.75-1.346-2.75-3v-42c0-1.654,1.233-3,2.75-3c1.516,0,2.75,1.346,2.75,3v42
		C18.991,51.154,17.757,52.5,16.241,52.5z M49.656,38.664c-0.515,0-1.017-0.017-1.507-0.049c-0.13-0.002-4.229-0.117-8.22-2.136
		c-0.467-0.241-4.589-2.356-7.744-3.586c-0.012-0.004-3.933-1.385-7.472-1.394c-1.773,0.04-2.895,0.245-4.455,0.634
		c-0.08,0.02-0.161,0.029-0.242,0.029c-0.221,0-0.438-0.073-0.616-0.212c-0.243-0.189-0.384-0.48-0.384-0.788V6.099
		c0-0.459,0.313-0.859,0.758-0.97C21.475,4.706,23.091,4.5,24.717,4.5c4.796,0.22,8.145,1.896,8.285,1.967
		c1.513,0.702,2.996,1.556,4.43,2.382c1.104,0.636,2.246,1.293,3.402,1.88l0,0c0.001,0,3.502,1.585,7.564,2.345
		c0.471,0.041,1.041,0.067,1.606,0.067c0.9,0,1.831-0.068,2.767-0.203c0.048-0.007,0.096-0.01,0.143-0.01
		c0.239,0,0.472,0.085,0.655,0.244c0.219,0.19,0.345,0.466,0.345,0.756v23.499c0,0.497-0.365,0.919-0.858,0.99
		C51.913,38.581,50.77,38.664,49.656,38.664z"/>
	<path opacity="0.15" d="M16.241,5.5c-0.962,0-1.75,0.9-1.75,2v42c0,1.1,0.788,2,1.75,2s1.75-0.9,1.75-2v-42
		C17.991,6.4,17.204,5.5,16.241,5.5z M48.215,14.058c-4.244-0.794-7.834-2.437-7.834-2.437c-2.684-1.362-5.148-3.016-7.832-4.263
		c0,0-3.243-1.646-7.833-1.858c-1.448,0-3,0.176-4.699,0.599v25.064c1.699-0.423,2.885-0.622,4.699-0.663
		c3.762,0.01,7.833,1.462,7.833,1.462c2.683,1.046,6.238,2.803,7.832,3.625c3.834,1.939,7.834,2.03,7.834,2.03
		c1.445,0.095,2.996,0.055,4.699-0.189V13.929C51.211,14.174,49.66,14.194,48.215,14.058z"/>
	<linearGradient id="SVGID_1_" gradientUnits="userSpaceOnUse" x1="33.7026" y1="51.5" x2="33.7026" y2="5.5005">
		<stop  offset="0" style="stop-color:#D0CBC5"/>
		<stop  offset="0.5031" style="stop-color:#FAFCEF"/>
		<stop  offset="0.9693" style="stop-color:#FFFFFF"/>
	</linearGradient>
	<path fill="url(#SVGID_1_)" d="M16.241,5.5c-0.962,0-1.75,0.9-1.75,2v42c0,1.1,0.788,2,1.75,2s1.75-0.9,1.75-2v-42
		C17.991,6.4,17.204,5.5,16.241,5.5z M48.215,14.058c-4.244-0.794-7.834-2.437-7.834-2.437c-2.684-1.362-5.148-3.016-7.832-4.263
		c0,0-3.243-1.646-7.833-1.858c-1.448,0-3,0.176-4.699,0.599v25.064c1.699-0.423,2.885-0.622,4.699-0.663
		c3.762,0.01,7.833,1.462,7.833,1.462c2.683,1.046,6.238,2.803,7.832,3.625c3.834,1.939,7.834,2.03,7.834,2.03
		c1.445,0.095,2.996,0.055,4.699-0.189V13.929C51.211,14.174,49.66,14.194,48.215,14.058z"/>
	<path fill="#FFFFFF" d="M17.991,7.5v1c0-1.1-0.788-2-1.75-2s-1.75,0.9-1.75,2v-1c0-1.1,0.788-2,1.75-2S17.991,6.4,17.991,7.5z
		 M48.215,14.058c-4.244-0.794-7.834-2.437-7.834-2.437c-2.684-1.362-5.148-3.016-7.832-4.263c0,0-3.243-1.646-7.833-1.858
		c-1.448,0-3,0.176-4.699,0.599v1C21.717,6.676,23.269,6.5,24.717,6.5c4.589,0.212,7.833,1.858,7.833,1.858
		c2.683,1.247,5.148,2.9,7.832,4.263c0,0,3.59,1.643,7.834,2.437c1.445,0.137,2.996,0.116,4.699-0.129v-1
		C51.211,14.174,49.66,14.194,48.215,14.058z"/>
</g>
<g id="DO_NOT_EDIT_-_FOCAL_ZONE_GUIDES">
</g>
</svg>
