<?xml version="1.0" encoding="utf-8"?>
<!-- Generator: Adobe Illustrator 15.0.0, SVG Export Plug-In  -->
<!DOCTYPE svg PUBLIC "-//W3C//DTD SVG 1.1//EN" "http://www.w3.org/Graphics/SVG/1.1/DTD/svg11.dtd" [
	<!ENTITY ns_flows "http://ns.adobe.com/Flows/1.0/">
]>
<svg version="1.1"
	 xmlns="http://www.w3.org/2000/svg" xmlns:xlink="http://www.w3.org/1999/xlink" xmlns:a="http://ns.adobe.com/AdobeSVGViewerExtensions/3.0/"
	 x="0px" y="0px" width="67px" height="57px" viewBox="0 0 67 57" enable-background="new 0 0 67 57" xml:space="preserve">
<defs>
</defs>
<rect id="BOUNDING_BOX_1_" fill="none" width="67" height="57"/>
<path opacity="0.3" d="M29.985,41.488c-1.957-0.566-3.807-1.6-5.347-3.14c-4.887-4.887-4.887-12.84,0-17.726l-4.433-4.431
	c-7.341,7.343-7.341,19.247,0,26.588c2.393,2.393,5.273,3.988,8.319,4.817l-1.103,4.613l16.048-3.893L31.27,36.118L29.985,41.488z
	 M46.793,16.191c-2.387-2.387-5.26-3.982-8.297-4.813l1.112-4.588l-16.093,3.848l12.199,12.202l1.301-5.356
	c1.958,0.564,3.807,1.599,5.347,3.14c4.887,4.886,4.889,12.837,0,17.726l4.431,4.431C54.136,35.438,54.136,23.534,46.793,16.191z"/>
<path opacity="0.15" d="M27.423,52.21c-0.261,0-0.516-0.103-0.706-0.292c-0.247-0.245-0.348-0.602-0.267-0.94l0.883-3.693
	c-2.952-0.962-5.644-2.608-7.834-4.798c-7.719-7.719-7.719-20.281,0-28.002c0.195-0.195,0.451-0.293,0.707-0.293
	s0.512,0.098,0.707,0.293l4.433,4.431c0.188,0.188,0.293,0.442,0.293,0.707s-0.105,0.52-0.293,0.707
	c-2.174,2.174-3.372,5.071-3.372,8.156s1.198,5.981,3.372,8.156c1.122,1.121,2.437,1.977,3.921,2.551l1.03-4.307
	c0.084-0.353,0.352-0.632,0.701-0.729c0.09-0.025,0.181-0.038,0.272-0.038c0.262,0,0.517,0.103,0.707,0.293L44.178,46.61
	c0.256,0.256,0.354,0.629,0.256,0.978c-0.098,0.348-0.376,0.616-0.728,0.701l-16.047,3.893C27.581,52.201,27.501,52.21,27.423,52.21
	z M46.793,42.779c-0.256,0-0.512-0.098-0.707-0.293l-4.431-4.431c-0.391-0.391-0.391-1.023,0-1.414
	c2.175-2.176,3.373-5.072,3.373-8.157s-1.198-5.98-3.373-8.155c-1.124-1.125-2.44-1.98-3.925-2.553l-1.044,4.298
	c-0.085,0.352-0.354,0.629-0.701,0.727c-0.09,0.025-0.181,0.037-0.271,0.037c-0.262,0-0.517-0.103-0.707-0.293L22.809,10.345
	c-0.256-0.256-0.354-0.63-0.255-0.979c0.099-0.349,0.378-0.616,0.73-0.701l16.093-3.848c0.077-0.019,0.155-0.027,0.232-0.027
	c0.263,0,0.519,0.104,0.708,0.294c0.246,0.247,0.346,0.604,0.264,0.941l-0.889,3.668c2.94,0.962,5.624,2.606,7.809,4.791
	c3.74,3.74,5.8,8.713,5.8,14.002s-2.06,10.261-5.8,14C47.305,42.682,47.049,42.779,46.793,42.779z"/>
<path opacity="0.15" d="M29.985,40.488c-1.957-0.566-3.807-1.6-5.347-3.14c-4.887-4.887-4.887-12.84,0-17.726l-4.433-4.431
	c-7.341,7.343-7.341,19.247,0,26.588c2.393,2.393,5.273,3.988,8.319,4.817l-1.103,4.613l16.048-3.893L31.27,35.118L29.985,40.488z
	 M46.793,15.191c-2.387-2.387-5.26-3.982-8.297-4.813l1.112-4.588L23.516,9.638l12.199,12.202l1.301-5.356
	c1.958,0.564,3.807,1.599,5.347,3.14c4.887,4.886,4.889,12.837,0,17.726l4.431,4.431C54.136,34.438,54.136,22.534,46.793,15.191z"/>
<linearGradient id="SVGID_1_" gradientUnits="userSpaceOnUse" x1="33.5005" y1="51.21" x2="33.5005" y2="5.7905">
	<stop  offset="0" style="stop-color:#D0CBC5"/>
	<stop  offset="0.5031" style="stop-color:#FAFCEF"/>
	<stop  offset="0.9693" style="stop-color:#FFFFFF"/>
</linearGradient>
<path fill="url(#SVGID_1_)" d="M29.985,40.488c-1.957-0.566-3.807-1.6-5.347-3.14c-4.887-4.887-4.887-12.84,0-17.726l-4.433-4.431
	c-7.341,7.343-7.341,19.247,0,26.588c2.393,2.393,5.273,3.988,8.319,4.817l-1.103,4.613l16.048-3.893L31.27,35.118L29.985,40.488z
	 M46.793,15.191c-2.387-2.387-5.26-3.982-8.297-4.813l1.112-4.588L23.516,9.638l12.199,12.202l1.301-5.356
	c1.958,0.564,3.807,1.599,5.347,3.14c4.887,4.886,4.889,12.837,0,17.726l4.431,4.431C54.136,34.438,54.136,22.534,46.793,15.191z"/>
<polygon fill="#FFFFFF" points="39.352,6.852 39.608,5.79 23.516,9.638 24.322,10.445 "/>
<path fill="#FFFFFF" d="M46.004,28.985c-0.12,3.041-1.324,6.046-3.642,8.363l0.475,0.475C45.073,35.32,46.129,32.138,46.004,28.985z
	"/>
<path fill="#FFFFFF" d="M38.496,11.378c3.037,0.831,5.91,2.426,8.297,4.813c3.544,3.544,5.36,8.151,5.483,12.795
	c0.132-4.977-1.685-9.996-5.483-13.795c-2.327-2.327-5.118-3.896-8.071-4.744L38.496,11.378z"/>
<path fill="#FFFFFF" d="M28.303,47.528l-0.88,3.682l0.254-0.062l0.849-3.552C28.451,47.576,28.377,47.55,28.303,47.528z"/>
<path fill="#FFFFFF" d="M20.206,16.191l3.958,3.957c0.157-0.176,0.306-0.356,0.475-0.525l-4.433-4.431
	c-3.798,3.799-5.613,8.818-5.482,13.795C14.847,24.343,16.663,19.735,20.206,16.191z"/>
<path fill="#FFFFFF" d="M29.985,40.488c-1.957-0.566-3.807-1.6-5.347-3.14c-2.316-2.316-3.521-5.322-3.641-8.363
	c-0.134,3.375,1.071,6.793,3.641,9.363c1.54,1.54,3.39,2.573,5.347,3.14l1.284-5.37l11.396,11.395l0.805-0.195L31.27,35.118
	L29.985,40.488z"/>
</svg>
