<?xml version="1.0" encoding="utf-8"?>
<!-- Generator: Adobe Illustrator 15.0.2, SVG Export Plug-In . SVG Version: 6.00 Build 0)  -->
<!DOCTYPE svg PUBLIC "-//W3C//DTD SVG 1.1//EN" "http://www.w3.org/Graphics/SVG/1.1/DTD/svg11.dtd">
<svg version="1.1" xmlns="http://www.w3.org/2000/svg" xmlns:xlink="http://www.w3.org/1999/xlink" x="0px" y="0px" width="67px"
	 height="57px" viewBox="0 0 67 57" enable-background="new 0 0 67 57" xml:space="preserve">
<g id="DO_NOT_EDIT_-_BOUNDING_BOX">
	<rect id="BOUNDING_BOX" fill="none" width="67" height="57"/>
</g>
<g id="PLACE_YOUR_GRAPHIC_HERE">
	<path opacity="0.3" d="M55.968,14.682l-7.657-7.65c-0.419-0.418-1.017-0.606-1.601-0.504l-9.423,1.662
		c-0.37,0.065-0.705,0.24-0.968,0.501L24.553,20.461c0,0-0.001,0.001-0.002,0.001L11.159,33.854c-0.778,0.777-0.778,2.051,0,2.828
		l0.985,0.984v0.002l8.021,8.02l6.15,6.15c0.778,0.777,2.05,0.777,2.828,0l3.174-3.174l0.001-0.001l21.986-21.987
		c0.267-0.265,0.442-0.604,0.508-0.971l1.659-9.427C56.576,15.699,56.386,15.1,55.968,14.682z M27.732,49.065l-13.8-13.8
		l20.22-20.223l13.8,13.8L27.732,49.065z M50.415,16.337c-1.037,1.033-2.717,1.033-3.753,0c-1.037-1.037-1.037-2.716,0-3.752
		c1.036-1.037,2.716-1.037,3.749,0C51.451,13.618,51.451,15.3,50.415,16.337z M16.76,35.266l10.972,10.972l17.392-17.395
		L34.152,17.871L16.76,35.266z M23.879,37.876c-0.342,0-0.681-0.128-0.94-0.387c-0.518-0.519-0.518-1.36,0-1.878l7.709-7.708
		c0.519-0.519,1.358-0.519,1.876,0c0.518,0.519,0.518,1.359,0,1.878l-7.709,7.708C24.556,37.748,24.218,37.876,23.879,37.876z
		 M40.231,27.907c0.518,0.518,0.518,1.357,0,1.876l-11.56,11.563c-0.259,0.259-0.598,0.391-0.94,0.391
		c-0.339,0-0.677-0.128-0.937-0.391c-0.518-0.519-0.518-1.358,0-1.877l11.563-11.562C38.873,27.388,39.713,27.388,40.231,27.907z"/>
	<path opacity="0.15" d="M27.729,52.421c-0.803,0-1.556-0.311-2.121-0.876L10.452,36.389c-0.564-0.564-0.876-1.318-0.876-2.121
		s0.312-1.557,0.876-2.121l25.16-25.164c0.411-0.409,0.93-0.678,1.501-0.779l9.423-1.662C46.7,4.514,46.862,4.5,47.024,4.5
		c0.742,0,1.469,0.3,1.993,0.824l7.657,7.65c0.651,0.652,0.943,1.579,0.782,2.48l-1.659,9.425c-0.103,0.577-0.375,1.098-0.788,1.507
		L29.851,51.545C29.285,52.11,28.532,52.421,27.729,52.421z M27.732,46.651l0.688-0.688c-0.186,0.176-0.431,0.274-0.688,0.274
		c-0.258,0-0.506-0.1-0.692-0.278L27.732,46.651z M39.293,27.518c-0.06,0-0.148,0.017-0.225,0.094L27.502,39.176
		c-0.127,0.128-0.127,0.335,0,0.463c0.08,0.081,0.168,0.098,0.229,0.098c0.062,0,0.152-0.017,0.233-0.099l11.559-11.562
		c0.127-0.127,0.127-0.334,0-0.462C39.44,27.53,39.344,27.518,39.293,27.518z M31.587,27.514c-0.051,0-0.148,0.012-0.231,0.096
		l-7.709,7.708c-0.083,0.083-0.096,0.181-0.096,0.231s0.013,0.149,0.096,0.232c0.077,0.077,0.169,0.094,0.232,0.094
		c0.062,0,0.152-0.017,0.23-0.095l7.709-7.708c0.127-0.128,0.127-0.336,0-0.464C31.734,27.526,31.637,27.514,31.587,27.514z
		 M16.039,34.958c-0.373-0.389-0.371-1.005,0.006-1.391l-0.698,0.698L16.039,34.958z M45.846,27.15
		c0.373,0.388,0.371,1.003-0.006,1.39l0.698-0.698L45.846,27.15z M34.152,15.871c0.266,0,0.52,0.105,0.707,0.293l4.024,4.024
		l-4.731-4.731l-0.702,0.703C33.637,15.975,33.889,15.871,34.152,15.871z M48.538,11.807c-0.441,0-0.856,0.172-1.169,0.484
		c-0.313,0.313-0.485,0.729-0.485,1.169c0,0.441,0.173,0.857,0.485,1.169c0.312,0.311,0.727,0.482,1.169,0.482
		s0.858-0.172,1.171-0.483c0.312-0.312,0.483-0.728,0.482-1.17c-0.001-0.441-0.173-0.854-0.485-1.165
		C49.392,11.979,48.979,11.807,48.538,11.807z"/>
	<linearGradient id="SVGID_1_" gradientUnits="userSpaceOnUse" x1="33.5381" y1="51.4209" x2="33.5381" y2="5.5">
		<stop  offset="0" style="stop-color:#D0CBC5"/>
		<stop  offset="0.5031" style="stop-color:#FAFCEF"/>
		<stop  offset="0.9693" style="stop-color:#FFFFFF"/>
	</linearGradient>
	<path fill="url(#SVGID_1_)" d="M55.968,13.682l-7.657-7.65c-0.419-0.418-1.017-0.606-1.601-0.504l-9.423,1.662
		c-0.37,0.065-0.705,0.24-0.968,0.501L24.553,19.461c0,0-0.001,0.001-0.002,0.001L11.159,32.854c-0.778,0.777-0.778,2.051,0,2.828
		l0.985,0.984v0.002l8.021,8.02l6.15,6.15c0.778,0.777,2.05,0.777,2.828,0l3.174-3.174l0.001-0.001l21.986-21.987
		c0.267-0.265,0.442-0.604,0.508-0.971l1.659-9.427C56.576,14.699,56.386,14.1,55.968,13.682z M27.732,48.065l-13.8-13.8
		l20.22-20.223l13.8,13.8L27.732,48.065z M50.415,15.337c-1.037,1.033-2.717,1.033-3.753,0c-1.037-1.037-1.037-2.716,0-3.752
		c1.036-1.037,2.716-1.037,3.749,0C51.451,12.618,51.451,14.3,50.415,15.337z M16.76,34.266l10.972,10.972l17.392-17.395
		L34.152,16.871L16.76,34.266z M23.879,36.876c-0.342,0-0.681-0.128-0.94-0.387c-0.518-0.519-0.518-1.36,0-1.878l7.709-7.708
		c0.519-0.519,1.358-0.519,1.876,0c0.518,0.519,0.518,1.359,0,1.878l-7.709,7.708C24.556,36.748,24.218,36.876,23.879,36.876z
		 M40.231,26.907c0.518,0.518,0.518,1.357,0,1.876l-11.56,11.563c-0.259,0.259-0.598,0.391-0.94,0.391
		c-0.339,0-0.677-0.128-0.937-0.391c-0.518-0.519-0.518-1.358,0-1.877l11.563-11.562C38.873,26.388,39.713,26.388,40.231,26.907z"/>
	<path fill="#FFFFFF" d="M50.415,15.337c-1.037,1.033-2.717,1.033-3.753,0c-0.391-0.391-0.634-0.872-0.729-1.376
		c-0.16,0.834,0.083,1.73,0.729,2.376c1.036,1.033,2.716,1.033,3.753,0c0.645-0.645,0.888-1.541,0.729-2.374
		C51.047,14.466,50.805,14.947,50.415,15.337z M27.732,41.736c0.342,0,0.681-0.132,0.94-0.391l11.56-11.563
		c0.389-0.39,0.485-0.96,0.291-1.439c-0.065,0.16-0.162,0.309-0.291,0.438l-11.56,11.563c-0.259,0.259-0.598,0.391-0.94,0.391
		c-0.339,0-0.677-0.128-0.937-0.391c-0.129-0.13-0.226-0.279-0.291-0.438c-0.195,0.479-0.098,1.05,0.291,1.438
		C27.055,41.608,27.393,41.736,27.732,41.736z M55.968,13.682l-7.657-7.65c-0.419-0.418-1.017-0.606-1.601-0.504l-9.423,1.662
		c-0.37,0.065-0.705,0.24-0.968,0.501L24.553,19.461c0,0-0.001,0.001-0.002,0.001L11.159,32.854
		c-0.517,0.517-0.683,1.25-0.512,1.914c0.086-0.335,0.251-0.653,0.512-0.914l13.392-13.391c0,0,0.001-0.001,0.002-0.001L36.319,8.69
		c0.263-0.261,0.598-0.436,0.968-0.501l9.423-1.662c0.584-0.102,1.182,0.086,1.601,0.504l7.657,7.65
		c0.23,0.231,0.384,0.519,0.465,0.826l0.04-0.229C56.576,14.699,56.386,14.1,55.968,13.682z M32.816,28.342
		c-0.065,0.16-0.162,0.31-0.292,0.439l-7.709,7.708c-0.259,0.259-0.598,0.387-0.937,0.387c-0.342,0-0.681-0.128-0.94-0.387
		c-0.129-0.13-0.227-0.279-0.292-0.439c-0.194,0.479-0.097,1.051,0.292,1.439c0.259,0.259,0.598,0.387,0.94,0.387
		c0.339,0,0.677-0.128,0.937-0.387l7.709-7.708C32.914,29.392,33.011,28.821,32.816,28.342z M27.732,48.065l-13.3-13.3l-0.5,0.5
		l13.8,13.8l20.22-20.223l-0.5-0.5L27.732,48.065z M45.124,27.842L34.152,16.871L16.76,34.266l0.5,0.5l16.892-16.895l10.472,10.471
		L45.124,27.842z"/>
</g>
<g id="DO_NOT_EDIT_-_FOCAL_ZONE_GUIDES">
</g>
</svg>
