<?xml version="1.0" encoding="utf-8"?>
<!-- Generator: Adobe Illustrator 15.0.0, SVG Export Plug-In . SVG Version: 6.00 Build 0)  -->
<!DOCTYPE svg PUBLIC "-//W3C//DTD SVG 1.1//EN" "http://www.w3.org/Graphics/SVG/1.1/DTD/svg11.dtd">
<svg version="1.1" xmlns="http://www.w3.org/2000/svg" xmlns:xlink="http://www.w3.org/1999/xlink" x="0px" y="0px" width="67px"
	 height="57px" viewBox="0 0 67 57" enable-background="new 0 0 67 57" xml:space="preserve">
<g id="DO_NOT_EDIT_-_BOUNDING_BOX">
	<rect id="BOUNDING_BOX" fill="none" width="67" height="57"/>
</g>
<g id="PLACE_YOUR_GRAPHIC_HERE">
	<path opacity="0.3" d="M51.192,6.5H15.808c-0.973,0-1.769,0.795-1.769,1.769V50.73c0,0.972,0.796,1.77,1.769,1.77h35.384
		c0.974,0,1.769-0.798,1.769-1.77V8.269C52.961,7.295,52.166,6.5,51.192,6.5z M21.116,15.346h3.539c0.978,0,1.769,0.792,1.769,1.769
		c0,0.978-0.791,1.77-1.769,1.77h-3.539c-0.979,0-1.769-0.792-1.769-1.77C19.347,16.138,20.136,15.346,21.116,15.346z
		 M21.116,22.423h14.153c0.979,0,1.77,0.792,1.77,1.77s-0.791,1.77-1.77,1.77H21.116c-0.979,0-1.769-0.792-1.769-1.77
		S20.136,22.423,21.116,22.423z M21.116,29.5H31.73c0.978,0,1.77,0.791,1.77,1.77c0,0.978-0.792,1.769-1.77,1.769H21.116
		c-0.979,0-1.769-0.791-1.769-1.769C19.347,30.291,20.136,29.5,21.116,29.5z M24.654,40.115h-3.539c-0.979,0-1.769-0.791-1.769-1.77
		c0-0.978,0.79-1.769,1.769-1.769h3.539c0.978,0,1.769,0.791,1.769,1.769C26.423,39.324,25.632,40.115,24.654,40.115z
		 M35.269,40.115H31.73c-0.978,0-1.77-0.791-1.77-1.77c0-0.978,0.792-1.769,1.77-1.769h3.538c0.979,0,1.77,0.791,1.77,1.769
		C37.038,39.324,36.247,40.115,35.269,40.115z M45.884,40.115h-3.538c-0.978,0-1.77-0.791-1.77-1.77c0-0.978,0.792-1.769,1.77-1.769
		h3.538c0.979,0,1.77,0.791,1.77,1.769C47.653,39.324,46.862,40.115,45.884,40.115z M45.884,33.038h-7.076
		c-0.979,0-1.77-0.791-1.77-1.769c0-0.979,0.791-1.77,1.77-1.77h7.076c0.979,0,1.77,0.791,1.77,1.77
		C47.653,32.247,46.862,33.038,45.884,33.038z M45.884,25.962h-3.538c-0.978,0-1.77-0.792-1.77-1.77s0.792-1.77,1.77-1.77h3.538
		c0.979,0,1.77,0.792,1.77,1.77S46.862,25.962,45.884,25.962z M45.884,18.885H31.73c-0.978,0-1.77-0.792-1.77-1.77
		c0-0.978,0.792-1.769,1.77-1.769h14.153c0.979,0,1.77,0.792,1.77,1.769C47.653,18.093,46.862,18.885,45.884,18.885z"/>
	<rect x="16.381" y="16.446" fill="none" width="30" height="30"/>
	<path opacity="0.15" d="M15.808,52.5c-1.527,0-2.769-1.242-2.769-2.77V7.269c0-1.527,1.242-2.769,2.769-2.769h35.384
		c1.526,0,2.769,1.242,2.769,2.769V49.73c0,1.527-1.242,2.77-2.769,2.77H15.808z M42.346,36.577c-0.425,0-0.77,0.345-0.77,0.769
		c0,0.425,0.345,0.77,0.77,0.77h3.538c0.425,0,0.77-0.345,0.77-0.77c0-0.424-0.345-0.769-0.77-0.769H42.346z M31.73,36.577
		c-0.424,0-0.77,0.345-0.77,0.769c0,0.425,0.345,0.77,0.77,0.77h3.538c0.425,0,0.77-0.345,0.77-0.77c0-0.424-0.345-0.769-0.77-0.769
		H31.73z M21.116,36.577c-0.424,0-0.769,0.345-0.769,0.769c0,0.425,0.345,0.77,0.769,0.77h3.539c0.424,0,0.769-0.345,0.769-0.77
		c0-0.424-0.345-0.769-0.769-0.769H21.116z M38.808,29.5c-0.425,0-0.77,0.345-0.77,0.77c0,0.424,0.345,0.769,0.77,0.769h7.076
		c0.425,0,0.77-0.345,0.77-0.769c0-0.425-0.345-0.77-0.77-0.77H38.808z M21.116,29.5c-0.424,0-0.769,0.345-0.769,0.77
		c0,0.424,0.345,0.769,0.769,0.769H31.73c0.424,0,0.77-0.345,0.77-0.769c0-0.425-0.345-0.77-0.77-0.77H21.116z M42.346,22.423
		c-0.425,0-0.77,0.345-0.77,0.77s0.345,0.77,0.77,0.77h3.538c0.425,0,0.77-0.345,0.77-0.77s-0.345-0.77-0.77-0.77H42.346z
		 M21.116,22.423c-0.424,0-0.769,0.345-0.769,0.77s0.345,0.77,0.769,0.77h14.153c0.425,0,0.77-0.345,0.77-0.77
		s-0.345-0.77-0.77-0.77H21.116z M31.73,15.346c-0.424,0-0.77,0.345-0.77,0.769c0,0.424,0.345,0.77,0.77,0.77h14.153
		c0.425,0,0.77-0.345,0.77-0.77c0-0.424-0.345-0.769-0.77-0.769H31.73z M21.116,15.346c-0.424,0-0.769,0.345-0.769,0.769
		c0,0.424,0.345,0.77,0.769,0.77h3.539c0.424,0,0.769-0.345,0.769-0.77c0-0.424-0.345-0.769-0.769-0.769H21.116z"/>
	<path opacity="0.15" d="M51.192,5.5H15.808c-0.973,0-1.769,0.795-1.769,1.769V49.73c0,0.972,0.796,1.77,1.769,1.77h35.384
		c0.974,0,1.769-0.798,1.769-1.77V7.269C52.961,6.295,52.166,5.5,51.192,5.5z M21.116,14.346h3.539c0.978,0,1.769,0.792,1.769,1.769
		c0,0.978-0.791,1.77-1.769,1.77h-3.539c-0.979,0-1.769-0.792-1.769-1.77C19.347,15.138,20.136,14.346,21.116,14.346z
		 M21.116,21.423h14.153c0.979,0,1.77,0.792,1.77,1.77s-0.791,1.77-1.77,1.77H21.116c-0.979,0-1.769-0.792-1.769-1.77
		S20.136,21.423,21.116,21.423z M21.116,28.5H31.73c0.978,0,1.77,0.791,1.77,1.77c0,0.978-0.792,1.769-1.77,1.769H21.116
		c-0.979,0-1.769-0.791-1.769-1.769C19.347,29.291,20.136,28.5,21.116,28.5z M24.654,39.115h-3.539c-0.979,0-1.769-0.791-1.769-1.77
		c0-0.978,0.79-1.769,1.769-1.769h3.539c0.978,0,1.769,0.791,1.769,1.769C26.423,38.324,25.632,39.115,24.654,39.115z
		 M35.269,39.115H31.73c-0.978,0-1.77-0.791-1.77-1.77c0-0.978,0.792-1.769,1.77-1.769h3.538c0.979,0,1.77,0.791,1.77,1.769
		C37.038,38.324,36.247,39.115,35.269,39.115z M45.884,39.115h-3.538c-0.978,0-1.77-0.791-1.77-1.77c0-0.978,0.792-1.769,1.77-1.769
		h3.538c0.979,0,1.77,0.791,1.77,1.769C47.653,38.324,46.862,39.115,45.884,39.115z M45.884,32.038h-7.076
		c-0.979,0-1.77-0.791-1.77-1.769c0-0.979,0.791-1.77,1.77-1.77h7.076c0.979,0,1.77,0.791,1.77,1.77
		C47.653,31.247,46.862,32.038,45.884,32.038z M45.884,24.962h-3.538c-0.978,0-1.77-0.792-1.77-1.77s0.792-1.77,1.77-1.77h3.538
		c0.979,0,1.77,0.792,1.77,1.77S46.862,24.962,45.884,24.962z M45.884,17.885H31.73c-0.978,0-1.77-0.792-1.77-1.77
		c0-0.978,0.792-1.769,1.77-1.769h14.153c0.979,0,1.77,0.792,1.77,1.769C47.653,17.093,46.862,17.885,45.884,17.885z"/>
	<linearGradient id="SVGID_1_" gradientUnits="userSpaceOnUse" x1="33.5005" y1="51.5" x2="33.5005" y2="5.5005">
		<stop  offset="0" style="stop-color:#D0CBC5"/>
		<stop  offset="0.5031" style="stop-color:#FAFCEF"/>
		<stop  offset="0.9693" style="stop-color:#FFFFFF"/>
	</linearGradient>
	<path fill="url(#SVGID_1_)" d="M51.192,5.5H15.808c-0.973,0-1.769,0.795-1.769,1.769V49.73c0,0.972,0.796,1.77,1.769,1.77h35.384
		c0.974,0,1.769-0.798,1.769-1.77V7.269C52.961,6.295,52.166,5.5,51.192,5.5z M21.116,14.346h3.539c0.978,0,1.769,0.792,1.769,1.769
		c0,0.978-0.791,1.77-1.769,1.77h-3.539c-0.979,0-1.769-0.792-1.769-1.77C19.347,15.138,20.136,14.346,21.116,14.346z
		 M21.116,21.423h14.153c0.979,0,1.77,0.792,1.77,1.77s-0.791,1.77-1.77,1.77H21.116c-0.979,0-1.769-0.792-1.769-1.77
		S20.136,21.423,21.116,21.423z M21.116,28.5H31.73c0.978,0,1.77,0.791,1.77,1.77c0,0.978-0.792,1.769-1.77,1.769H21.116
		c-0.979,0-1.769-0.791-1.769-1.769C19.347,29.291,20.136,28.5,21.116,28.5z M24.654,39.115h-3.539c-0.979,0-1.769-0.791-1.769-1.77
		c0-0.978,0.79-1.769,1.769-1.769h3.539c0.978,0,1.769,0.791,1.769,1.769C26.423,38.324,25.632,39.115,24.654,39.115z
		 M35.269,39.115H31.73c-0.978,0-1.77-0.791-1.77-1.77c0-0.978,0.792-1.769,1.77-1.769h3.538c0.979,0,1.77,0.791,1.77,1.769
		C37.038,38.324,36.247,39.115,35.269,39.115z M45.884,39.115h-3.538c-0.978,0-1.77-0.791-1.77-1.77c0-0.978,0.792-1.769,1.77-1.769
		h3.538c0.979,0,1.77,0.791,1.77,1.769C47.653,38.324,46.862,39.115,45.884,39.115z M45.884,32.038h-7.076
		c-0.979,0-1.77-0.791-1.77-1.769c0-0.979,0.791-1.77,1.77-1.77h7.076c0.979,0,1.77,0.791,1.77,1.77
		C47.653,31.247,46.862,32.038,45.884,32.038z M45.884,24.962h-3.538c-0.978,0-1.77-0.792-1.77-1.77s0.792-1.77,1.77-1.77h3.538
		c0.979,0,1.77,0.792,1.77,1.77S46.862,24.962,45.884,24.962z M45.884,17.885H31.73c-0.978,0-1.77-0.792-1.77-1.77
		c0-0.978,0.792-1.769,1.77-1.769h14.153c0.979,0,1.77,0.792,1.77,1.769C47.653,17.093,46.862,17.885,45.884,17.885z"/>
	<path fill="#FFFFFF" d="M47.573,37.846c0.047,0.16,0.08,0.325,0.08,0.5c0,0.979-0.791,1.77-1.77,1.77h-3.538
		c-0.978,0-1.77-0.791-1.77-1.77c0-0.175,0.033-0.34,0.08-0.5c0.217,0.732,0.887,1.27,1.689,1.27h3.538
		C46.688,39.115,47.356,38.578,47.573,37.846z M45.884,24.962h-3.538c-0.803,0-1.473-0.537-1.689-1.27
		c-0.047,0.16-0.08,0.325-0.08,0.5c0,0.978,0.792,1.77,1.77,1.77h3.538c0.979,0,1.77-0.792,1.77-1.77c0-0.175-0.033-0.34-0.08-0.5
		C47.356,24.425,46.688,24.962,45.884,24.962z M45.884,32.038h-7.076c-0.804,0-1.473-0.537-1.689-1.269
		c-0.047,0.159-0.08,0.325-0.08,0.5c0,0.978,0.791,1.769,1.77,1.769h7.076c0.979,0,1.77-0.791,1.77-1.769
		c0-0.175-0.033-0.341-0.08-0.5C47.356,31.501,46.688,32.038,45.884,32.038z M21.116,18.885h3.539c0.978,0,1.769-0.792,1.769-1.77
		c0-0.175-0.033-0.34-0.08-0.5c-0.217,0.732-0.886,1.27-1.689,1.27h-3.539c-0.804,0-1.473-0.537-1.689-1.27
		c-0.047,0.16-0.08,0.325-0.08,0.5C19.347,18.093,20.136,18.885,21.116,18.885z M31.73,18.885h14.153c0.979,0,1.77-0.792,1.77-1.77
		c0-0.175-0.033-0.34-0.08-0.5c-0.217,0.732-0.886,1.27-1.689,1.27H31.73c-0.803,0-1.473-0.537-1.689-1.27
		c-0.047,0.16-0.081,0.325-0.081,0.5C29.961,18.093,30.752,18.885,31.73,18.885z M21.116,40.115h3.539
		c0.978,0,1.769-0.791,1.769-1.77c0-0.175-0.033-0.34-0.08-0.5c-0.217,0.732-0.886,1.27-1.689,1.27h-3.539
		c-0.804,0-1.473-0.537-1.689-1.27c-0.047,0.16-0.08,0.325-0.08,0.5C19.347,39.324,20.136,40.115,21.116,40.115z M51.192,5.5H15.808
		c-0.973,0-1.769,0.795-1.769,1.769v1c0-0.974,0.796-1.769,1.769-1.769h35.384c0.974,0,1.769,0.795,1.769,1.769v-1
		C52.961,6.295,52.166,5.5,51.192,5.5z M21.116,33.038H31.73c0.978,0,1.77-0.791,1.77-1.769c0-0.175-0.033-0.341-0.081-0.5
		c-0.216,0.731-0.886,1.269-1.689,1.269H21.116c-0.804,0-1.473-0.537-1.689-1.269c-0.047,0.159-0.08,0.325-0.08,0.5
		C19.347,32.247,20.136,33.038,21.116,33.038z M21.116,25.962h14.153c0.979,0,1.77-0.792,1.77-1.77c0-0.175-0.033-0.34-0.08-0.5
		c-0.217,0.732-0.886,1.27-1.689,1.27H21.116c-0.804,0-1.473-0.537-1.689-1.27c-0.047,0.16-0.08,0.325-0.08,0.5
		C19.347,25.17,20.136,25.962,21.116,25.962z M35.269,39.115H31.73c-0.803,0-1.473-0.537-1.689-1.27
		c-0.047,0.16-0.081,0.325-0.081,0.5c0,0.979,0.792,1.77,1.77,1.77h3.538c0.979,0,1.77-0.791,1.77-1.77c0-0.175-0.033-0.34-0.08-0.5
		C36.741,38.578,36.072,39.115,35.269,39.115z"/>
</g>
<g id="DO_NOT_EDIT_-_FOCAL_ZONE_GUIDES">
</g>
</svg>
