<?xml version="1.0" encoding="utf-8"?>
<!-- Generator: Adobe Illustrator 15.0.0, SVG Export Plug-In  -->
<!DOCTYPE svg PUBLIC "-//W3C//DTD SVG 1.1//EN" "http://www.w3.org/Graphics/SVG/1.1/DTD/svg11.dtd" [
	<!ENTITY ns_flows "http://ns.adobe.com/Flows/1.0/">
]>
<svg version="1.1"
	 xmlns="http://www.w3.org/2000/svg" xmlns:xlink="http://www.w3.org/1999/xlink" xmlns:a="http://ns.adobe.com/AdobeSVGViewerExtensions/3.0/"
	 x="0px" y="0px" width="67px" height="57px" viewBox="0 0 67 57" enable-background="new 0 0 67 57" xml:space="preserve">
<defs>
</defs>
<rect id="BOUNDING_BOX_1_" fill="none" width="67" height="57"/>
<polygon opacity="0.3" points="47.893,9.595 19.111,9.595 18.571,18.836 21.798,18.836 23.574,13.37 29.173,13.37 29.173,45.957 
	25.348,46.723 25.348,49.405 41.652,49.405 41.652,46.727 37.839,45.957 37.839,13.37 43.43,13.37 45.206,18.836 48.429,18.836 "/>
<path opacity="0.15" d="M25.348,49.405c-0.552,0-1-0.447-1-1v-2.683c0-0.477,0.336-0.887,0.804-0.98l3.021-0.604V13.37h-3.872
	l-1.552,4.775c-0.134,0.412-0.518,0.691-0.951,0.691h-3.227c-0.275,0-0.539-0.114-0.728-0.314s-0.287-0.47-0.271-0.744l0.54-9.241
	c0.031-0.529,0.469-0.942,0.999-0.942h28.781c0.53,0,0.968,0.413,0.998,0.942l0.536,9.241c0.017,0.275-0.082,0.544-0.271,0.745
	c-0.189,0.2-0.452,0.313-0.728,0.313h-3.223c-0.434,0-0.817-0.279-0.951-0.691l-1.552-4.775h-3.864v30.769l3.012,0.607
	c0.466,0.095,0.802,0.505,0.802,0.98v2.679c0,0.553-0.447,1-1,1H25.348z"/>
<polygon opacity="0.15" points="47.893,8.595 19.111,8.595 18.571,17.836 21.798,17.836 23.574,12.37 29.173,12.37 29.173,44.957 
	25.348,45.723 25.348,48.405 41.652,48.405 41.652,45.727 37.839,44.957 37.839,12.37 43.43,12.37 45.206,17.836 48.429,17.836 "/>
<linearGradient id="SVGID_1_" gradientUnits="userSpaceOnUse" x1="33.5005" y1="48.4053" x2="33.5005" y2="8.5952">
	<stop  offset="0" style="stop-color:#D0CBC5"/>
	<stop  offset="0.5031" style="stop-color:#FAFCEF"/>
	<stop  offset="0.9693" style="stop-color:#FFFFFF"/>
</linearGradient>
<polygon fill="url(#SVGID_1_)" points="47.893,8.595 19.111,8.595 18.571,17.836 21.798,17.836 23.574,12.37 29.173,12.37 
	29.173,44.957 25.348,45.723 25.348,48.405 41.652,48.405 41.652,45.727 37.839,44.957 37.839,12.37 43.43,12.37 45.206,17.836 
	48.429,17.836 "/>
<polygon fill="#FFFFFF" points="29.173,45.957 29.173,44.957 25.348,45.723 25.348,46.723 "/>
<polygon fill="#FFFFFF" points="19.111,9.595 47.893,9.595 48.371,17.836 48.429,17.836 47.893,8.595 19.111,8.595 18.571,17.836 
	18.63,17.836 "/>
<polygon fill="#FFFFFF" points="37.839,45.957 41.652,46.727 41.652,45.727 37.839,44.957 "/>
</svg>
