<?xml version="1.0" encoding="utf-8"?>
<!-- Generator: Adobe Illustrator 15.0.0, SVG Export Plug-In . SVG Version: 6.00 Build 0)  -->
<!DOCTYPE svg PUBLIC "-//W3C//DTD SVG 1.1//EN" "http://www.w3.org/Graphics/SVG/1.1/DTD/svg11.dtd">
<svg version="1.1" xmlns="http://www.w3.org/2000/svg" xmlns:xlink="http://www.w3.org/1999/xlink" x="0px" y="0px" width="67px"
	 height="57px" viewBox="0 0 67 57" enable-background="new 0 0 67 57" xml:space="preserve">
<g id="DO_NOT_EDIT_-_BOUNDING_BOX">
	<rect id="BOUNDING_BOX" fill="none" width="67" height="57"/>
</g>
<g id="PLACE_YOUR_GRAPHIC_HERE">
	<path opacity="0.3" d="M52.267,51.205V40.972L42.031,51.205H52.267z M55.146,32.511l-1.132-1.136c-0.754-0.754-1.992-0.754-2.742,0
		L37.105,45.483l-5.101-5.046c-0.751-0.756-1.994-0.756-2.744,0l-1.14,1.14c-0.754,0.755-0.754,1.989,0,2.745l7.612,7.611
		c0.75,0.756,1.991,0.756,2.741,0l16.672-16.67C55.911,34.508,55.911,33.269,55.146,32.511z M25.703,41.941l-6.877,0.036
		c-1.036,0-1.879-0.841-1.879-1.886c0-1.042,0.843-1.89,1.879-1.89l10.254-0.013c0.483-0.206,1.008-0.318,1.552-0.318
		c0.542,0,1.063,0.11,1.545,0.315l9.432-0.012l8.252-8.217c0.644-0.647,1.488-1.023,2.398-1.111
		c0.004-0.958,0.007-1.861,0.007-1.885V6.511h-7.551l1.649,2.214l-0.004,0.004c0.135,0.167,0.232,0.373,0.232,0.617
		c0,0.521-0.411,0.94-0.938,0.94h-3.776c-0.521,0-0.95-0.42-0.95-0.94c0-0.244,0.095-0.45,0.248-0.617l-0.004-0.004l1.646-2.214
		h-10.38l1.649,2.214l-0.004,0.004c0.146,0.167,0.244,0.373,0.244,0.617c0,0.521-0.423,0.94-0.95,0.94h-3.764
		c-0.53,0-0.958-0.42-0.958-0.94c0-0.244,0.098-0.45,0.246-0.617l-0.005-0.004l1.651-2.214h-10.38l1.647,2.214l-0.004,0.004
		c0.153,0.167,0.248,0.373,0.248,0.617c0,0.521-0.43,0.94-0.951,0.94h-3.775c-0.524,0-0.939-0.42-0.939-0.94
		c0-0.244,0.098-0.45,0.233-0.617l-0.003-0.004l1.649-2.214L11.28,6.5v44.74l20.898-0.033l-5.471-5.471
		C25.681,44.708,25.357,43.254,25.703,41.941z M18.758,19.563l26.066-0.006c1.034,0,1.879,0.829,1.879,1.859
		c0,1.032-0.845,1.864-1.879,1.864l-26.066,0.005c-1.038,0-1.88-0.832-1.88-1.862S17.721,19.563,18.758,19.563z M18.741,28.865
		l26.065-0.006c1.035,0,1.879,0.829,1.879,1.86s-0.844,1.863-1.879,1.863l-26.065,0.006c-1.038,0-1.88-0.832-1.88-1.863
		C16.861,29.695,17.704,28.865,18.741,28.865z"/>
	<rect x="16.381" y="16.446" fill="none" width="30" height="30"/>
	<path opacity="0.15" d="M37.104,52.501c-0.79,0-1.529-0.307-2.081-0.863l-2.13-2.13c0.28,0.286,0.362,0.711,0.209,1.081
		c-0.154,0.374-0.519,0.617-0.923,0.618c0,0-20.899,0.033-20.9,0.033c-0.265,0-0.519-0.105-0.707-0.292
		c-0.188-0.188-0.293-0.442-0.293-0.708V5.5c0-0.266,0.105-0.52,0.293-0.708C10.761,4.605,11.015,4.5,11.28,4.5
		c0,0,6.994,0.011,6.994,0.011c0.378,0,0.723,0.214,0.893,0.552c0.021,0.042,0.039,0.084,0.054,0.128
		c0.015-0.044,0.033-0.087,0.054-0.129c0.17-0.338,0.516-0.551,0.894-0.551h10.38c0.378,0,0.724,0.213,0.894,0.552
		c0.02,0.04,0.037,0.081,0.051,0.122c0.014-0.042,0.032-0.083,0.052-0.123c0.169-0.338,0.515-0.551,0.894-0.551h10.38
		c0.378,0,0.724,0.213,0.894,0.551c0.021,0.043,0.04,0.088,0.056,0.133c0.015-0.045,0.033-0.089,0.055-0.133
		c0.17-0.338,0.516-0.551,0.894-0.551h7.551c0.553,0,1,0.448,1,1v20.451l-0.007,1.889c-0.002,0.457-0.311,0.846-0.738,0.961
		c0.04-0.001,0.08-0.002,0.121-0.002c0.787,0,1.525,0.305,2.079,0.858l1.133,1.137c0.558,0.552,0.866,1.294,0.865,2.085
		c0,0.79-0.31,1.531-0.87,2.085l-7.134,7.133l2.844-2.843c0.191-0.191,0.447-0.293,0.707-0.293c0.129,0,0.259,0.024,0.383,0.076
		c0.374,0.154,0.617,0.52,0.617,0.924v10.233c0,0.553-0.447,1-1,1H42.031c-0.404,0-0.77-0.244-0.924-0.617
		c-0.151-0.365-0.073-0.784,0.197-1.069l-2.123,2.122C38.633,52.194,37.894,52.501,37.104,52.501z M31.852,38.132
		c0.318,0.145,0.609,0.347,0.862,0.601l4.389,4.342l11.159-11.113l-5.947,5.923c-0.188,0.186-0.44,0.291-0.705,0.291
		c0,0-9.432,0.012-9.433,0.012C32.067,38.187,31.957,38.168,31.852,38.132z M25.703,39.941c0.309,0,0.601,0.143,0.791,0.388
		c0.158,0.203,0.229,0.458,0.205,0.71c0.138-0.428,0.376-0.829,0.715-1.169l1.14-1.14c0.25-0.252,0.539-0.452,0.854-0.596
		c-0.104,0.036-0.215,0.055-0.326,0.055l-10.254,0.013c-0.486,0-0.88,0.399-0.88,0.89c0,0.488,0.394,0.886,0.879,0.886
		C18.826,39.978,25.701,39.941,25.703,39.941z M18.741,28.865c-0.485,0-0.88,0.385-0.88,0.86c0,0.476,0.395,0.863,0.88,0.863
		l26.065-0.006c0.484,0,0.879-0.388,0.879-0.863c0-0.475-0.395-0.86-0.879-0.86l0,0L18.741,28.865z M18.758,19.563
		c-0.485,0-0.88,0.386-0.88,0.86c0,0.476,0.395,0.862,0.88,0.862l26.066-0.005c0.484,0,0.879-0.388,0.879-0.864
		c0-0.474-0.395-0.859-0.879-0.859l0,0L18.758,19.563z M45.532,8.286c-0.007-0.011-0.013-0.021-0.02-0.032l-1.599-2.146
		C43.85,6.021,43.8,5.926,43.768,5.827c-0.033,0.099-0.082,0.194-0.146,0.28l-1.584,2.131c-0.01,0.016-0.02,0.032-0.03,0.047H45.532
		z M33.255,8.286c-0.007-0.011-1.619-2.178-1.619-2.178c-0.063-0.084-0.11-0.176-0.144-0.271c-0.033,0.096-0.081,0.188-0.144,0.272
		l-1.585,2.125c-0.01,0.018-0.021,0.036-0.033,0.053H33.255z M20.981,8.286c-0.009-0.014-0.018-0.028-0.026-0.042l-1.59-2.136
		c-0.063-0.086-0.112-0.179-0.145-0.277c-0.033,0.098-0.082,0.192-0.146,0.278l-1.59,2.134c-0.008,0.015-0.018,0.029-0.027,0.043
		H20.981z"/>
	<path opacity="0.15" d="M52.267,50.205V39.972L42.031,50.205H52.267z M55.146,31.511l-1.132-1.136
		c-0.754-0.754-1.992-0.754-2.742,0L37.105,44.483l-5.101-5.046c-0.751-0.756-1.994-0.756-2.744,0l-1.14,1.14
		c-0.754,0.755-0.754,1.989,0,2.745l7.612,7.611c0.75,0.756,1.991,0.756,2.741,0l16.672-16.67
		C55.911,33.508,55.911,32.269,55.146,31.511z M25.703,40.941l-6.877,0.036c-1.036,0-1.879-0.841-1.879-1.886
		c0-1.042,0.843-1.89,1.879-1.89l10.254-0.013c0.483-0.206,1.008-0.318,1.552-0.318c0.542,0,1.063,0.11,1.545,0.315l9.432-0.012
		l8.252-8.217c0.644-0.647,1.488-1.023,2.398-1.111c0.004-0.958,0.007-1.861,0.007-1.885V5.511h-7.551l1.649,2.214l-0.004,0.004
		c0.135,0.167,0.232,0.373,0.232,0.617c0,0.521-0.411,0.94-0.938,0.94h-3.776c-0.521,0-0.95-0.42-0.95-0.94
		c0-0.244,0.095-0.45,0.248-0.617l-0.004-0.004l1.646-2.214h-10.38l1.649,2.214l-0.004,0.004c0.146,0.167,0.244,0.373,0.244,0.617
		c0,0.521-0.423,0.94-0.95,0.94h-3.764c-0.53,0-0.958-0.42-0.958-0.94c0-0.244,0.098-0.45,0.246-0.617l-0.005-0.004l1.651-2.214
		h-10.38l1.647,2.214l-0.004,0.004c0.153,0.167,0.248,0.373,0.248,0.617c0,0.521-0.43,0.94-0.951,0.94h-3.775
		c-0.524,0-0.939-0.42-0.939-0.94c0-0.244,0.098-0.45,0.233-0.617l-0.003-0.004l1.649-2.214L11.28,5.5v44.74l20.898-0.033
		l-5.471-5.471C25.681,43.708,25.357,42.254,25.703,40.941z M18.758,18.563l26.066-0.006c1.034,0,1.879,0.829,1.879,1.859
		c0,1.032-0.845,1.864-1.879,1.864l-26.066,0.005c-1.038,0-1.88-0.832-1.88-1.862S17.721,18.563,18.758,18.563z M18.741,27.865
		l26.065-0.006c1.035,0,1.879,0.829,1.879,1.86c0,1.031-0.844,1.863-1.879,1.863l-26.065,0.006c-1.038,0-1.88-0.832-1.88-1.863
		C16.861,28.695,17.704,27.865,18.741,27.865z"/>
	<linearGradient id="SVGID_1_" gradientUnits="userSpaceOnUse" x1="33.5" y1="51.5" x2="33.5" y2="5.5005">
		<stop  offset="0" style="stop-color:#D0CBC5"/>
		<stop  offset="0.5031" style="stop-color:#FAFCEF"/>
		<stop  offset="0.9693" style="stop-color:#FFFFFF"/>
	</linearGradient>
	<path fill="url(#SVGID_1_)" d="M52.267,50.205V39.972L42.031,50.205H52.267z M55.146,31.511l-1.132-1.136
		c-0.754-0.754-1.992-0.754-2.742,0L37.105,44.483l-5.101-5.046c-0.751-0.756-1.994-0.756-2.744,0l-1.14,1.14
		c-0.754,0.755-0.754,1.989,0,2.745l7.612,7.611c0.75,0.756,1.991,0.756,2.741,0l16.672-16.67
		C55.911,33.508,55.911,32.269,55.146,31.511z M25.703,40.941l-6.877,0.036c-1.036,0-1.879-0.841-1.879-1.886
		c0-1.042,0.843-1.89,1.879-1.89l10.254-0.013c0.483-0.206,1.008-0.318,1.552-0.318c0.542,0,1.063,0.11,1.545,0.315l9.432-0.012
		l8.252-8.217c0.644-0.647,1.488-1.023,2.398-1.111c0.004-0.958,0.007-1.861,0.007-1.885V5.511h-7.551l1.649,2.214l-0.004,0.004
		c0.135,0.167,0.232,0.373,0.232,0.617c0,0.521-0.411,0.94-0.938,0.94h-3.776c-0.521,0-0.95-0.42-0.95-0.94
		c0-0.244,0.095-0.45,0.248-0.617l-0.004-0.004l1.646-2.214h-10.38l1.649,2.214l-0.004,0.004c0.146,0.167,0.244,0.373,0.244,0.617
		c0,0.521-0.423,0.94-0.95,0.94h-3.764c-0.53,0-0.958-0.42-0.958-0.94c0-0.244,0.098-0.45,0.246-0.617l-0.005-0.004l1.651-2.214
		h-10.38l1.647,2.214l-0.004,0.004c0.153,0.167,0.248,0.373,0.248,0.617c0,0.521-0.43,0.94-0.951,0.94h-3.775
		c-0.524,0-0.939-0.42-0.939-0.94c0-0.244,0.098-0.45,0.233-0.617l-0.003-0.004l1.649-2.214L11.28,5.5v44.74l20.898-0.033
		l-5.471-5.471C25.681,43.708,25.357,42.254,25.703,40.941z M18.758,18.563l26.066-0.006c1.034,0,1.879,0.829,1.879,1.859
		c0,1.032-0.845,1.864-1.879,1.864l-26.066,0.005c-1.038,0-1.88-0.832-1.88-1.862S17.721,18.563,18.758,18.563z M18.741,27.865
		l26.065-0.006c1.035,0,1.879,0.829,1.879,1.86c0,1.031-0.844,1.863-1.879,1.863l-26.065,0.006c-1.038,0-1.88-0.832-1.88-1.863
		C16.861,28.695,17.704,27.865,18.741,27.865z"/>
	<path fill="#FFFFFF" d="M16.394,9.346c0-0.193,0.07-0.355,0.163-0.5c0.166,0.259,0.442,0.44,0.777,0.44h3.775
		c0.331,0,0.611-0.18,0.781-0.437c0.099,0.144,0.169,0.305,0.169,0.496c0,0.521-0.43,0.94-0.951,0.94h-3.775
		C16.809,10.286,16.394,9.866,16.394,9.346z M29.614,10.286h3.764c0.527,0,0.95-0.42,0.95-0.94c0-0.191-0.071-0.352-0.168-0.496
		c-0.169,0.257-0.447,0.437-0.782,0.437h-3.764c-0.337,0-0.618-0.18-0.789-0.437c-0.097,0.144-0.169,0.305-0.169,0.497
		C28.656,9.866,29.084,10.286,29.614,10.286z M41.879,10.286h3.776c0.527,0,0.938-0.42,0.938-0.94c0-0.192-0.07-0.354-0.162-0.499
		c-0.165,0.259-0.44,0.439-0.776,0.439h-3.776c-0.33,0-0.61-0.18-0.781-0.437c-0.099,0.144-0.169,0.305-0.169,0.496
		C40.929,9.866,41.358,10.286,41.879,10.286z M18.826,40.978c-0.863,0-1.584-0.587-1.804-1.386c-0.044,0.16-0.075,0.326-0.075,0.5
		c0,1.045,0.843,1.886,1.879,1.886l6.744-0.035c0.002-0.337,0.047-0.673,0.133-1.001L18.826,40.978z M37.105,44.483l-5.101-5.046
		c-0.751-0.756-1.994-0.756-2.744,0l-1.14,1.14c-0.505,0.506-0.664,1.225-0.492,1.872c0.084-0.319,0.243-0.623,0.492-0.872
		l1.14-1.14c0.75-0.756,1.993-0.756,2.744,0l5.101,5.046l14.167-14.108c0.75-0.754,1.988-0.754,2.742,0l1.132,1.136
		c0.253,0.251,0.414,0.556,0.5,0.877c0.173-0.649,0.012-1.37-0.5-1.877l-1.132-1.136c-0.754-0.754-1.992-0.754-2.742,0
		L37.105,44.483z M18.758,23.286l26.066-0.005c1.034,0,1.879-0.832,1.879-1.864c0-0.174-0.032-0.34-0.077-0.5
		c-0.222,0.786-0.942,1.364-1.802,1.364l-26.066,0.005c-0.862,0-1.582-0.578-1.803-1.362c-0.045,0.16-0.077,0.325-0.077,0.5
		C16.878,22.454,17.721,23.286,18.758,23.286z M18.272,5.511L11.28,5.5v1l6.249,0.01L18.272,5.511z M25.603,42.472
		c-0.145,1.162,0.215,2.373,1.104,3.265l4.473,4.473l0.999-0.002l-5.471-5.471C26.072,44.1,25.707,43.3,25.603,42.472z
		 M43.031,50.205l9.235-9.233v-1L42.031,50.205H43.031z M29.802,6.511l0.746-1h-10.38l0.744,1H29.802z M18.741,32.588l26.065-0.006
		c1.035,0,1.879-0.832,1.879-1.863c0-0.175-0.032-0.34-0.077-0.5c-0.222,0.786-0.941,1.363-1.802,1.363l-26.065,0.006
		c-0.862,0-1.582-0.577-1.803-1.363c-0.045,0.16-0.077,0.325-0.077,0.5C16.861,31.756,17.704,32.588,18.741,32.588z M52.267,6.511
		v-1h-7.551l0.745,1H52.267z M42.075,6.511l0.743-1h-10.38l0.745,1H42.075z"/>
</g>
<g id="DO_NOT_EDIT_-_FOCAL_ZONE_GUIDES">
</g>
</svg>
