<?xml version="1.0" encoding="utf-8"?>
<!-- Generator: Adobe Illustrator 15.0.2, SVG Export Plug-In  -->
<!DOCTYPE svg PUBLIC "-//W3C//DTD SVG 1.1//EN" "http://www.w3.org/Graphics/SVG/1.1/DTD/svg11.dtd" [
	<!ENTITY ns_flows "http://ns.adobe.com/Flows/1.0/">
]>
<svg version="1.1"
	 xmlns="http://www.w3.org/2000/svg" xmlns:xlink="http://www.w3.org/1999/xlink" xmlns:a="http://ns.adobe.com/AdobeSVGViewerExtensions/3.0/"
	 x="0px" y="0px" width="67px" height="57px" viewBox="0 0 67 57" enable-background="new 0 0 67 57" xml:space="preserve">
<defs>
</defs>
<rect id="BOUNDING_BOX_1_" fill="none" width="67" height="57"/>
<path opacity="0.3" d="M15.808,24.191c-2.93,0-5.308,2.378-5.308,5.309c0,2.932,2.377,5.309,5.308,5.309
	c2.932,0,5.308-2.377,5.308-5.309C21.115,26.569,18.74,24.191,15.808,24.191z M51.192,24.191c-2.931,0-5.308,2.378-5.308,5.309
	c0,2.932,2.377,5.309,5.308,5.309c2.932,0,5.308-2.377,5.308-5.309C56.5,26.569,54.124,24.191,51.192,24.191z M33.5,24.191
	c-2.931,0-5.308,2.378-5.308,5.309c0,2.932,2.377,5.309,5.308,5.309c2.932,0,5.308-2.377,5.308-5.309
	C38.808,26.569,36.432,24.191,33.5,24.191z"/>
<path opacity="0.15" d="M51.192,34.809c-3.479,0-6.308-2.83-6.308-6.309s2.829-6.309,6.308-6.309c3.478,0,6.308,2.83,6.308,6.309
	S54.67,34.809,51.192,34.809z M33.5,34.809c-3.478,0-6.308-2.83-6.308-6.309s2.83-6.309,6.308-6.309c3.479,0,6.308,2.83,6.308,6.309
	S36.979,34.809,33.5,34.809z M15.808,34.809c-3.478,0-6.308-2.83-6.308-6.309s2.83-6.309,6.308-6.309s6.308,2.83,6.308,6.309
	S19.286,34.809,15.808,34.809z"/>
<path opacity="0.15" d="M15.808,23.191c-2.93,0-5.308,2.378-5.308,5.309c0,2.932,2.377,5.309,5.308,5.309
	c2.932,0,5.308-2.377,5.308-5.309C21.115,25.569,18.74,23.191,15.808,23.191z M51.192,23.191c-2.931,0-5.308,2.378-5.308,5.309
	c0,2.932,2.377,5.309,5.308,5.309c2.932,0,5.308-2.377,5.308-5.309C56.5,25.569,54.124,23.191,51.192,23.191z M33.5,23.191
	c-2.931,0-5.308,2.378-5.308,5.309c0,2.932,2.377,5.309,5.308,5.309c2.932,0,5.308-2.377,5.308-5.309
	C38.808,25.569,36.432,23.191,33.5,23.191z"/>
<linearGradient id="SVGID_1_" gradientUnits="userSpaceOnUse" x1="33.5005" y1="33.8086" x2="33.5005" y2="23.1919">
	<stop  offset="0" style="stop-color:#D0CBC5"/>
	<stop  offset="0.5031" style="stop-color:#FAFCEF"/>
	<stop  offset="0.9693" style="stop-color:#FFFFFF"/>
</linearGradient>
<path fill="url(#SVGID_1_)" d="M15.808,23.191c-2.93,0-5.308,2.378-5.308,5.309c0,2.932,2.377,5.309,5.308,5.309
	c2.932,0,5.308-2.377,5.308-5.309C21.115,25.569,18.74,23.191,15.808,23.191z M51.192,23.191c-2.931,0-5.308,2.378-5.308,5.309
	c0,2.932,2.377,5.309,5.308,5.309c2.932,0,5.308-2.377,5.308-5.309C56.5,25.569,54.124,23.191,51.192,23.191z M33.5,23.191
	c-2.931,0-5.308,2.378-5.308,5.309c0,2.932,2.377,5.309,5.308,5.309c2.932,0,5.308-2.377,5.308-5.309
	C38.808,25.569,36.432,23.191,33.5,23.191z"/>
<path fill="#FFFFFF" d="M15.808,23.191c-2.93,0-5.308,2.378-5.308,5.309c0,0.171,0.035,0.333,0.05,0.5
	c0.256-2.692,2.499-4.809,5.257-4.809c2.761,0,5.002,2.116,5.257,4.809c0.016-0.167,0.05-0.329,0.05-0.5
	C21.115,25.569,18.74,23.191,15.808,23.191z"/>
<path fill="#FFFFFF" d="M51.192,24.191c2.761,0,5.002,2.116,5.257,4.809c0.017-0.167,0.051-0.329,0.051-0.5
	c0-2.931-2.376-5.309-5.308-5.309c-2.931,0-5.308,2.378-5.308,5.309c0,0.171,0.034,0.333,0.051,0.5
	C46.19,26.308,48.433,24.191,51.192,24.191z"/>
<path fill="#FFFFFF" d="M33.5,23.191c-2.931,0-5.308,2.378-5.308,5.309c0,0.171,0.035,0.333,0.05,0.5
	c0.256-2.692,2.498-4.809,5.257-4.809c2.761,0,5.002,2.116,5.257,4.809c0.017-0.167,0.051-0.329,0.051-0.5
	C38.808,25.569,36.432,23.191,33.5,23.191z"/>
</svg>
