<?xml version="1.0" encoding="utf-8"?>
<!-- Generator: Adobe Illustrator 15.0.0, SVG Export Plug-In . SVG Version: 6.00 Build 0)  -->
<!DOCTYPE svg PUBLIC "-//W3C//DTD SVG 1.1//EN" "http://www.w3.org/Graphics/SVG/1.1/DTD/svg11.dtd">
<svg version="1.1" id="Ebene_1" xmlns="http://www.w3.org/2000/svg" xmlns:xlink="http://www.w3.org/1999/xlink" x="0px" y="0px"
	 width="67px" height="57px" viewBox="0 0 67 57" enable-background="new 0 0 67 57" xml:space="preserve">
<rect id="BOUNDING_BOX_1_" fill="none" width="67" height="57"/>
<path opacity="0.3" enable-background="new    " d="M49.234,38.143h-2.868v-4.306H20.542v4.306h-2.869v-4.306H10.5V43.88
	c0,1.578,1.292,2.87,2.869,2.87h40.17c1.578,0,2.869-1.292,2.869-2.87V33.837h-7.174V38.143z M53.631,18.792h-1.436v-4.361
	c0-1.494-1.221-2.716-2.717-2.716H19.047c-1.496,0-2.717,1.222-2.717,2.716v4.361h-2.869c-1.577,0-2.869,1.292-2.869,2.869v10.18
	H56.5v-10.18C56.5,20.083,55.209,18.792,53.631,18.792z M49.327,18.792H19.199v-4.208h30.128V18.792z"/>
<path opacity="0.15" enable-background="new    " d="M13.369,46.75c-2.133,0-3.869-1.736-3.869-3.87V32.837c0-0.553,0.448-1,1-1
	h0.003c-0.511-0.045-0.911-0.474-0.911-0.996v-10.18c0-2.133,1.736-3.869,3.869-3.869h1.869v-3.361c0-2.049,1.667-3.716,3.717-3.716
	h30.432c2.049,0,3.717,1.667,3.717,3.716v3.361h0.436c2.135,0,3.869,1.736,3.869,3.869v10.18c0,0.554-0.447,1-1,1h-0.003
	c0.511,0.046,0.911,0.474,0.911,0.996V42.88c0,2.134-1.735,3.87-3.869,3.87H13.369z M48.234,36.143v-3.306
	c0-0.522,0.4-0.95,0.912-0.996h-2.691c0.511,0.046,0.911,0.474,0.911,0.996v3.306H48.234z M19.542,36.143v-3.306
	c0-0.522,0.4-0.95,0.911-0.996h-2.691c0.511,0.046,0.911,0.474,0.911,0.996v3.306H19.542z M48.327,16.792v-2.208H20.199v2.208
	H48.327z"/>
<path opacity="0.15" enable-background="new    " d="M49.234,37.143h-2.868v-4.306H20.542v4.306h-2.869v-4.306H10.5V42.88
	c0,1.578,1.292,2.87,2.869,2.87h40.17c1.578,0,2.869-1.292,2.869-2.87V32.837h-7.174V37.143z M53.631,17.792h-1.436v-4.361
	c0-1.494-1.221-2.716-2.717-2.716H19.047c-1.496,0-2.717,1.222-2.717,2.716v4.361h-2.869c-1.577,0-2.869,1.292-2.869,2.869v10.18
	H56.5v-10.18C56.5,19.083,55.209,17.792,53.631,17.792z M49.327,17.792H19.199v-4.208h30.128V17.792z"/>
<linearGradient id="SVGID_1_" gradientUnits="userSpaceOnUse" x1="319.1006" y1="-396.6504" x2="319.1006" y2="-361.6152" gradientTransform="matrix(1 0 0 -1 -285.5996 -350.9004)">
	<stop  offset="0" style="stop-color:#D0CBC5"/>
	<stop  offset="0.5031" style="stop-color:#FAFCEF"/>
	<stop  offset="0.9693" style="stop-color:#FFFFFF"/>
</linearGradient>
<path fill="url(#SVGID_1_)" d="M49.234,37.143h-2.868v-4.306H20.542v4.306h-2.869v-4.306H10.5V42.88c0,1.578,1.292,2.87,2.869,2.87
	h40.17c1.578,0,2.869-1.292,2.869-2.87V32.837h-7.174V37.143z M53.631,17.792h-1.436v-4.361c0-1.494-1.221-2.716-2.717-2.716H19.047
	c-1.496,0-2.717,1.222-2.717,2.716v4.361h-2.869c-1.577,0-2.869,1.292-2.869,2.869v10.18H56.5v-10.18
	C56.5,19.083,55.209,17.792,53.631,17.792z M49.327,17.792H19.199v-4.208h30.128V17.792z"/>
<rect x="17.673" y="37.143" fill="#FFFFFF" width="2.869" height="1"/>
<path fill="#FFFFFF" d="M13.461,18.792h2.869v-1h-2.869c-1.577,0-2.869,1.292-2.869,2.869v1
	C10.592,20.083,11.884,18.792,13.461,18.792z"/>
<rect x="19.199" y="17.792" fill="#FFFFFF" width="30.128" height="1"/>
<path fill="#FFFFFF" d="M19.047,11.715h30.432c1.496,0,2.717,1.222,2.717,2.716v-1c0-1.494-1.221-2.716-2.717-2.716H19.047
	c-1.496,0-2.717,1.222-2.717,2.716v1C16.33,12.937,17.552,11.715,19.047,11.715z"/>
<rect x="49.234" y="32.837" fill="#FFFFFF" width="7.174" height="1"/>
<rect x="46.366" y="37.143" fill="#FFFFFF" width="2.868" height="1"/>
<rect x="10.5" y="32.837" fill="#FFFFFF" width="7.173" height="1"/>
<path fill="#FFFFFF" d="M53.631,17.792h-1.436v1h1.436c1.578,0,2.869,1.292,2.869,2.869v-1C56.5,19.083,55.209,17.792,53.631,17.792
	z"/>
<rect x="20.542" y="32.837" fill="#FFFFFF" width="25.824" height="1"/>
</svg>
