<?xml version="1.0" encoding="utf-8"?>
<!-- Generator: Adobe Illustrator 15.0.0, SVG Export Plug-In . SVG Version: 6.00 Build 0)  -->
<!DOCTYPE svg PUBLIC "-//W3C//DTD SVG 1.1//EN" "http://www.w3.org/Graphics/SVG/1.1/DTD/svg11.dtd">
<svg version="1.1" xmlns="http://www.w3.org/2000/svg" xmlns:xlink="http://www.w3.org/1999/xlink" x="0px" y="0px" width="67px"
	 height="57px" viewBox="0 0 67 57" enable-background="new 0 0 67 57" xml:space="preserve">
<g id="DO_NOT_EDIT_-_BOUNDING_BOX">
	<rect id="BOUNDING_BOX" fill="none" width="67" height="57"/>
</g>
<g id="PLACE_YOUR_GRAPHIC_HERE">
	<path opacity="0.3" d="M23.643,47.93h19.715v-3.285H23.643V47.93z M55.063,11.021H11.938c-0.792,0-1.438,0.643-1.438,1.438v28.748
		c0,0.795,0.645,1.438,1.438,1.438h43.125c0.793,0,1.438-0.643,1.438-1.438V12.459C56.5,11.665,55.855,11.021,55.063,11.021z
		 M14.813,38.332l-0.016-22.998h37.375l0.016,22.998H14.813z"/>
	<rect x="16.381" y="16.446" fill="none" width="30" height="30"/>
	<path opacity="0.15" d="M23.643,47.93c-0.552,0-1-0.447-1-1v-3.285c0-0.553,0.448-1,1-1H11.938c-1.344,0-2.438-1.094-2.438-2.438
		V11.459c0-1.344,1.093-2.438,2.438-2.438h43.125c1.344,0,2.438,1.093,2.438,2.438v28.748c0,1.344-1.094,2.438-2.438,2.438H43.357
		c0.553,0,1,0.447,1,1v3.285c0,0.553-0.447,1-1,1H23.643z M51.187,36.332l-0.014-20.998H15.797l0.015,20.998H51.187z"/>
	<path opacity="0.15" d="M23.643,46.93h19.715v-3.285H23.643V46.93z M55.063,10.021H11.938c-0.792,0-1.438,0.643-1.438,1.438v28.748
		c0,0.795,0.645,1.438,1.438,1.438h43.125c0.793,0,1.438-0.643,1.438-1.438V11.459C56.5,10.665,55.855,10.021,55.063,10.021z
		 M14.813,37.332l-0.016-22.998h37.375l0.016,22.998H14.813z"/>
	<linearGradient id="SVGID_1_" gradientUnits="userSpaceOnUse" x1="33.5005" y1="46.9297" x2="33.5005" y2="10.022">
		<stop  offset="0" style="stop-color:#D0CBC5"/>
		<stop  offset="0.5031" style="stop-color:#FAFCEF"/>
		<stop  offset="0.9693" style="stop-color:#FFFFFF"/>
	</linearGradient>
	<path fill="url(#SVGID_1_)" d="M23.643,46.93h19.715v-3.285H23.643V46.93z M55.063,10.021H11.938c-0.792,0-1.438,0.643-1.438,1.438
		v28.748c0,0.795,0.645,1.438,1.438,1.438h43.125c0.793,0,1.438-0.643,1.438-1.438V11.459C56.5,10.665,55.855,10.021,55.063,10.021z
		 M14.813,37.332l-0.016-22.998h37.375l0.016,22.998H14.813z"/>
	<path fill="#FFFFFF" d="M23.643,43.645h19.715v1H23.643V43.645z M14.813,38.332h37.375l-0.001-1H14.813l-0.016-21.998h0
		L14.813,38.332z M55.063,10.021H11.938c-0.792,0-1.438,0.643-1.438,1.438v1c0-0.794,0.645-1.438,1.438-1.438h43.125
		c0.793,0,1.438,0.643,1.438,1.438v-1C56.5,10.665,55.855,10.021,55.063,10.021z"/>
</g>
<g id="DO_NOT_EDIT_-_FOCAL_ZONE_GUIDES">
</g>
</svg>
