<?xml version="1.0" encoding="utf-8"?>
<!-- Generator: Adobe Illustrator 15.0.2, SVG Export Plug-In . SVG Version: 6.00 Build 0)  -->
<!DOCTYPE svg PUBLIC "-//W3C//DTD SVG 1.1//EN" "http://www.w3.org/Graphics/SVG/1.1/DTD/svg11.dtd">
<svg version="1.1" xmlns="http://www.w3.org/2000/svg" xmlns:xlink="http://www.w3.org/1999/xlink" x="0px" y="0px" width="67px"
	 height="57px" viewBox="0 0 67 57" enable-background="new 0 0 67 57" xml:space="preserve">
<g id="DO_NOT_EDIT_-_BOUNDING_BOX">
	<rect id="BOUNDING_BOX" fill="none" width="67" height="57"/>
</g>
<g id="PLACE_YOUR_GRAPHIC_HERE">
	<path opacity="0.3" d="M48.998,14l-21.044-0.006L27.951,14c-2.729-0.102-4.387,0.278-5.71,1.595l-3.071,3.126l-4.352-4.352
		l-2.406,8.83L10,32.026l8.831-2.408l8.828-2.409l-4.291-4.293l2.052-2.042c1.226-1.064,2.149-0.841,3.896-0.841l18.938-0.003
		c0.946,0,1.747,0.804,1.747,1.754v16.466C50,39.193,49.199,40,48.253,40H23c-0.55,0-1,0.45-1,1v4c0,0.55,0.45,1,1,1h25.998
		C52.85,46,56,42.85,56,39.004V21.002C56,17.15,52.85,14,48.998,14z"/>
	<path opacity="0.15" d="M23,46c-1.103,0-2-0.897-2-2v-4c0-1.103,0.897-2,2-2h25.253C48.644,38,49,37.642,49,37.249V20.783
		c0-0.395-0.356-0.754-0.747-0.754l-18.938,0.003c-0.283,0-0.544-0.006-0.789-0.011c-0.203-0.004-0.393-0.009-0.575-0.009
		c-0.824,0-1.267,0.085-1.877,0.615l-1.292,1.289l3.583,3.585c0.252,0.252,0.351,0.619,0.259,0.964
		c-0.091,0.344-0.359,0.614-0.703,0.708l-17.658,4.817c-0.087,0.023-0.175,0.035-0.263,0.035c-0.262,0-0.517-0.103-0.707-0.293
		c-0.254-0.254-0.352-0.624-0.258-0.971l4.817-17.656c0.094-0.344,0.363-0.612,0.708-0.704c0.085-0.023,0.171-0.034,0.257-0.034
		c0.262,0,0.517,0.103,0.707,0.293l3.639,3.639l2.364-2.407c1.347-1.341,3.029-1.91,5.631-1.91c0.232,0,0.473,0.004,0.722,0.013
		C27.904,11.995,48.998,12,48.998,12C53.41,12,57,15.59,57,20.002v18.002C57,42.413,53.41,46,48.998,46H23z"/>
	<path opacity="0.15" d="M48.998,13l-21.044-0.006L27.951,13c-2.729-0.102-4.387,0.278-5.71,1.595l-3.071,3.126l-4.352-4.352
		l-2.406,8.83L10,31.026l8.831-2.408l8.828-2.409l-4.291-4.293l2.052-2.042c1.226-1.064,2.149-0.841,3.896-0.841l18.938-0.003
		c0.946,0,1.747,0.804,1.747,1.754v16.466C50,38.193,49.199,39,48.253,39H23c-0.55,0-1,0.45-1,1v4c0,0.55,0.45,1,1,1h25.998
		C52.85,45,56,41.85,56,38.004V20.002C56,16.15,52.85,13,48.998,13z"/>
	<linearGradient id="SVGID_1_" gradientUnits="userSpaceOnUse" x1="33.0005" y1="45" x2="33.0005" y2="12.9849">
		<stop  offset="0" style="stop-color:#D0CBC5"/>
		<stop  offset="0.5031" style="stop-color:#FAFCEF"/>
		<stop  offset="0.9693" style="stop-color:#FFFFFF"/>
	</linearGradient>
	<path fill="url(#SVGID_1_)" d="M48.998,13l-21.044-0.006L27.951,13c-2.729-0.102-4.387,0.278-5.71,1.595l-3.071,3.126l-4.352-4.352
		l-2.406,8.83L10,31.026l8.831-2.408l8.828-2.409l-4.291-4.293l2.052-2.042c1.226-1.064,2.149-0.841,3.896-0.841l18.938-0.003
		c0.946,0,1.747,0.804,1.747,1.754v16.466C50,38.193,49.199,39,48.253,39H23c-0.55,0-1,0.45-1,1v4c0,0.55,0.45,1,1,1h25.998
		C52.85,45,56,41.85,56,38.004V20.002C56,16.15,52.85,13,48.998,13z"/>
	<path fill="#FFFFFF" d="M23.868,22.417l-0.501,0.499l3.506,3.508l0.785-0.214L23.868,22.417z M48.253,39H23c-0.55,0-1,0.45-1,1v1
		c0-0.55,0.45-1,1-1h25.253C49.199,40,50,39.193,50,38.249v-1C50,38.193,49.199,39,48.253,39z M48.998,13l-21.044-0.006L27.951,13
		c-2.729-0.102-4.387,0.278-5.71,1.595l-3.071,3.126l-4.352-4.352l-2.406,8.83L10,31.026l0.295-0.08l2.116-7.747l2.406-8.83
		l4.352,4.352l3.071-3.126c1.323-1.317,2.981-1.696,5.71-1.595l0.003-0.006L48.998,14C52.85,14,56,17.15,56,21.002v-1
		C56,16.15,52.85,13,48.998,13z"/>
</g>
<g id="DO_NOT_EDIT_-_FOCAL_ZONE_GUIDES">
</g>
</svg>
