<?xml version="1.0" encoding="utf-8"?>
<!-- Generator: Adobe Illustrator 15.0.2, SVG Export Plug-In . SVG Version: 6.00 Build 0)  -->
<!DOCTYPE svg PUBLIC "-//W3C//DTD SVG 1.1//EN" "http://www.w3.org/Graphics/SVG/1.1/DTD/svg11.dtd">
<svg version="1.1" xmlns="http://www.w3.org/2000/svg" xmlns:xlink="http://www.w3.org/1999/xlink" x="0px" y="0px" width="67px"
	 height="57px" viewBox="0 0 67 57" enable-background="new 0 0 67 57" xml:space="preserve">
<g id="DO_NOT_EDIT_-_BOUNDING_BOX">
	<rect id="BOUNDING_BOX" fill="none" width="67" height="57"/>
</g>
<g id="PLACE_YOUR_GRAPHIC_HERE">
	<path opacity="0.3" d="M51.334,24H33v-5.5c0-3.036-2.463-5.5-5.5-5.5h-11c-3.04,0-5.5,2.464-5.5,5.5V24h3.667v-5.5
		c0-1.01,0.82-1.833,1.833-1.833h11c1.009,0,1.833,0.823,1.833,1.833V24c-2.023,0-3.667,1.643-3.667,3.667v14.667
		c0,2.022,1.644,3.666,3.667,3.666h22C53.356,46,55,44.356,55,42.334V27.667C55,25.643,53.356,24,51.334,24z M41.957,36.803V41
		h-3.666v-4.197C36.938,36.125,36,34.74,36,33.125C36,30.848,37.848,29,40.125,29s4.125,1.848,4.125,4.125
		C44.25,34.74,43.312,36.125,41.957,36.803z"/>
	<path opacity="0.15" d="M29.333,46c-2.573,0-4.667-2.093-4.667-4.666V26.667c0-2.23,1.573-4.1,3.667-4.559V17.5
		c0-0.459-0.374-0.833-0.833-0.833h-11c-0.459,0-0.833,0.374-0.833,0.833V23c0,0.552-0.448,1-1,1H11c-0.552,0-1-0.448-1-1v-5.5
		c0-3.584,2.916-6.5,6.5-6.5h11c3.584,0,6.5,2.916,6.5,6.5V22h17.334C53.907,22,56,24.093,56,26.667v14.667
		C56,43.907,53.907,46,51.334,46H29.333z M40.957,39v-3.197c0-0.379,0.214-0.725,0.553-0.895c1.073-0.537,1.74-1.604,1.74-2.783
		c0-1.723-1.402-3.125-3.125-3.125S37,30.402,37,32.125c0,1.18,0.666,2.246,1.739,2.783c0.338,0.17,0.552,0.516,0.552,0.895V39
		H40.957z"/>
	<path opacity="0.15" d="M51.334,23H33v-5.5c0-3.036-2.463-5.5-5.5-5.5h-11c-3.04,0-5.5,2.464-5.5,5.5V23h3.667v-5.5
		c0-1.01,0.82-1.833,1.833-1.833h11c1.009,0,1.833,0.823,1.833,1.833V23c-2.023,0-3.667,1.643-3.667,3.667v14.667
		c0,2.022,1.644,3.666,3.667,3.666h22C53.356,45,55,43.356,55,41.334V26.667C55,24.643,53.356,23,51.334,23z M41.957,35.803V40
		h-3.666v-4.197C36.938,35.125,36,33.74,36,32.125C36,29.848,37.848,28,40.125,28s4.125,1.848,4.125,4.125
		C44.25,33.74,43.312,35.125,41.957,35.803z"/>
	<linearGradient id="SVGID_1_" gradientUnits="userSpaceOnUse" x1="33.0005" y1="45" x2="33.0005" y2="12.0005">
		<stop  offset="0" style="stop-color:#D0CBC5"/>
		<stop  offset="0.5031" style="stop-color:#FAFCEF"/>
		<stop  offset="0.9693" style="stop-color:#FFFFFF"/>
	</linearGradient>
	<path fill="url(#SVGID_1_)" d="M51.334,23H33v-5.5c0-3.036-2.463-5.5-5.5-5.5h-11c-3.04,0-5.5,2.464-5.5,5.5V23h3.667v-5.5
		c0-1.01,0.82-1.833,1.833-1.833h11c1.009,0,1.833,0.823,1.833,1.833V23c-2.023,0-3.667,1.643-3.667,3.667v14.667
		c0,2.022,1.644,3.666,3.667,3.666h22C53.356,45,55,43.356,55,41.334V26.667C55,24.643,53.356,23,51.334,23z M41.957,35.803V40
		h-3.666v-4.197C36.938,35.125,36,33.74,36,32.125C36,29.848,37.848,28,40.125,28s4.125,1.848,4.125,4.125
		C44.25,33.74,43.312,35.125,41.957,35.803z"/>
	<path fill="#FFFFFF" d="M41.957,35.803v1c1.354-0.678,2.293-2.063,2.293-3.678c0-0.143-0.028-0.278-0.042-0.418
		C44.013,34.068,43.146,35.208,41.957,35.803z M38.291,41h3.666v-1h-3.666V41z M33,17.5c0-3.036-2.463-5.5-5.5-5.5h-11
		c-3.04,0-5.5,2.464-5.5,5.5v1c0-3.036,2.46-5.5,5.5-5.5h11c3.037,0,5.5,2.464,5.5,5.5V17.5z M38.291,35.803
		c-1.187-0.595-2.054-1.734-2.249-3.096C36.028,32.847,36,32.982,36,33.125c0,1.615,0.938,3,2.291,3.678V35.803z M51.334,23H33v1
		h18.334C53.356,24,55,25.643,55,27.667v-1C55,24.643,53.356,23,51.334,23z M25.667,26.667v1c0-2.023,1.644-3.667,3.667-3.667v-1
		C27.31,23,25.667,24.643,25.667,26.667z"/>
</g>
<g id="DO_NOT_EDIT_-_FOCAL_ZONE_GUIDES">
</g>
</svg>
