<?xml version="1.0" encoding="utf-8"?>
<!-- Generator: Adobe Illustrator 15.0.2, SVG Export Plug-In . SVG Version: 6.00 Build 0)  -->
<!DOCTYPE svg PUBLIC "-//W3C//DTD SVG 1.1//EN" "http://www.w3.org/Graphics/SVG/1.1/DTD/svg11.dtd">
<svg version="1.1" xmlns="http://www.w3.org/2000/svg" xmlns:xlink="http://www.w3.org/1999/xlink" x="0px" y="0px" width="67px"
	 height="57px" viewBox="0 0 67 57" enable-background="new 0 0 67 57" xml:space="preserve">
<g id="DO_NOT_EDIT_-_BOUNDING_BOX">
	<rect id="BOUNDING_BOX" fill="none" width="67" height="57"/>
</g>
<g id="PLACE_YOUR_GRAPHIC_HERE">
	<path opacity="0.3" d="M28,41c0,0.55,0.45,1,1,1h8.999c0.55,0,1-0.45,1-1V29h6.883l-6.19-10.834L33.5,7.333l-6.188,10.833
		L21.119,29H28V41z M52.001,45H15c-0.55,0-1,0.45-1,1v5c0,0.55,0.45,1,1,1h37c0.55,0,1-0.45,1-1v-5
		C53.001,45.45,52.551,45,52.001,45z"/>
	<path opacity="0.15" d="M15,52c-1.103,0-2-0.897-2-2v-5c0-1.103,0.897-2,2-2h37c1.103,0,2,0.897,2,2v5c0,1.103-0.897,2-2,2H15z
		 M29,42c-1.103,0-2-0.897-2-2V29h-5.881c-0.356,0-0.686-0.19-0.865-0.498c-0.179-0.309-0.18-0.688-0.003-0.998L32.632,5.837
		c0.178-0.312,0.509-0.504,0.868-0.504s0.69,0.192,0.868,0.504L46.75,27.504c0.177,0.31,0.176,0.69-0.003,0.998
		C46.567,28.81,46.238,29,45.882,29h-5.883v11c0,1.103-0.897,2-2,2H29z"/>
	<path opacity="0.15" d="M28,40c0,0.55,0.45,1,1,1h8.999c0.55,0,1-0.45,1-1V28h6.883l-6.19-10.834L33.5,6.333l-6.188,10.833
		L21.119,28H28V40z M52.001,44H15c-0.55,0-1,0.45-1,1v5c0,0.55,0.45,1,1,1h37c0.55,0,1-0.45,1-1v-5
		C53.001,44.45,52.551,44,52.001,44z"/>
	<linearGradient id="SVGID_1_" gradientUnits="userSpaceOnUse" x1="33.501" y1="51" x2="33.501" y2="6.3335">
		<stop  offset="0" style="stop-color:#D0CBC5"/>
		<stop  offset="0.5031" style="stop-color:#FAFCEF"/>
		<stop  offset="0.9693" style="stop-color:#FFFFFF"/>
	</linearGradient>
	<path fill="url(#SVGID_1_)" d="M28,40c0,0.55,0.45,1,1,1h8.999c0.55,0,1-0.45,1-1V28h6.883l-6.19-10.834L33.5,6.333l-6.188,10.833
		L21.119,28H28V40z M52.001,44H15c-0.55,0-1,0.45-1,1v5c0,0.55,0.45,1,1,1h37c0.55,0,1-0.45,1-1v-5
		C53.001,44.45,52.551,44,52.001,44z"/>
	<path fill="#FFFFFF" d="M52.001,44H15c-0.55,0-1,0.45-1,1v1c0-0.55,0.45-1,1-1h37c0.55,0,1,0.45,1,1v-1
		C53.001,44.45,52.551,44,52.001,44z M27.312,18.166L33.5,7.333l6.191,10.833L45.311,28h0.571l-6.19-10.834L33.5,6.333
		l-6.188,10.833L21.119,28h0.572L27.312,18.166z"/>
</g>
<g id="DO_NOT_EDIT_-_FOCAL_ZONE_GUIDES">
</g>
</svg>
