<?xml version="1.0" encoding="utf-8"?>
<!-- Generator: Adobe Illustrator 14.0.0, SVG Export Plug-In  -->
<!DOCTYPE svg PUBLIC "-//W3C//DTD SVG 1.1//EN" "http://www.w3.org/Graphics/SVG/1.1/DTD/svg11.dtd" [
	<!ENTITY ns_flows "http://ns.adobe.com/Flows/1.0/">
]>
<svg version="1.1"
	 xmlns="http://www.w3.org/2000/svg" xmlns:xlink="http://www.w3.org/1999/xlink" xmlns:a="http://ns.adobe.com/AdobeSVGViewerExtensions/3.0/"
	 x="0px" y="0px" width="67px" height="57px" viewBox="0 0 67 57" enable-background="new 0 0 67 57" xml:space="preserve">
<defs>
</defs>
<rect fill="none" width="67" height="57"/>
<path opacity="0.15" d="M33.348,52.5c-3.24,0-5.877-2.639-5.877-5.881c0-2.06,1.052-3.916,2.785-4.982v-0.121
	c-0.004,0-0.16-1.268-2.591-2.197l-7.527-2.798c-2.065-0.643-5.214-3.136-5.214-7.302v-1.194c-2.138-1.135-3.484-3.342-3.484-5.797
	c0-3.626,2.95-6.576,6.576-6.576s6.575,2.95,6.575,6.576c0,2.456-1.348,4.664-3.485,5.798v1.193c0,0.979,0.77,1.36,1.1,1.479
	l7.642,2.836c0.139,0.053,0.274,0.107,0.409,0.164V17.651h-3.18c-0.354,0-0.683-0.188-0.862-0.493
	c-0.18-0.306-0.184-0.683-0.012-0.993l6.195-11.151C32.573,4.697,32.908,4.5,33.271,4.5s0.697,0.197,0.874,0.514l6.198,11.151
	c0.172,0.31,0.168,0.688-0.012,0.993c-0.18,0.306-0.508,0.493-0.862,0.493h-3.031v16.084c0.127-0.053,0.255-0.104,0.385-0.153
	l7.583-2.818c0.455-0.158,1.185-0.554,1.185-1.506v-1.849h-1.787c-0.552,0-1-0.448-1-1v-9.758c0-0.552,0.448-1,1-1h9.757
	c0.553,0,1,0.448,1,1v9.758c0,0.552-0.447,1-1,1h-1.789v1.849c0,4.486-3.51,6.771-5.365,7.352l-7.403,2.756
	c-2.361,0.906-2.562,2.177-2.569,2.23v0.037c1.739,1.066,2.795,2.924,2.795,4.986C39.229,49.861,36.591,52.5,33.348,52.5
	L33.348,52.5z"/>
<path opacity="0.3" d="M53.561,17.651h-9.757v9.758h2.787v2.849c0,1.721-1.468,2.315-1.836,2.443l-7.575,2.814
	c-0.646,0.247-1.221,0.528-1.741,0.828V17.651h4.031L33.271,6.5l-6.195,11.151h4.18V36.31c-0.523-0.304-1.104-0.589-1.756-0.839
	l-7.633-2.832c-0.294-0.105-1.762-0.697-1.762-2.42V28.39c2.043-0.827,3.485-2.824,3.485-5.162c0-3.079-2.495-5.576-5.575-5.576
	c-3.078,0-5.576,2.498-5.576,5.576c0,2.338,1.443,4.333,3.484,5.161v1.83c0,3.903,3.051,5.893,4.563,6.364l7.536,2.802
	c2.991,1.145,3.22,2.902,3.233,3.131v0.714c-1.643,0.784-2.785,2.447-2.785,4.39c0,2.696,2.186,4.881,4.877,4.881
	c2.695,0,4.881-2.185,4.881-4.881c0-1.943-1.145-3.605-2.79-4.39V42.5c0-0.019,0.142-1.893,3.216-3.072l7.453-2.771
	c1.615-0.506,4.664-2.494,4.664-6.398v-2.849h2.789V17.651z"/>
<linearGradient id="SVGID_1_" gradientUnits="userSpaceOnUse" x1="33.0005" y1="51.5" x2="33.0005" y2="5.5005">
	<stop  offset="0" style="stop-color:#D0CBC5"/>
	<stop  offset="0.5031" style="stop-color:#FAFCEF"/>
	<stop  offset="0.9693" style="stop-color:#FFFFFF"/>
</linearGradient>
<path fill="url(#SVGID_1_)" d="M53.561,16.651h-9.757v9.758h2.787v2.849c0,1.721-1.468,2.315-1.836,2.443l-7.575,2.814
	c-0.646,0.247-1.221,0.528-1.741,0.828V16.651h4.031L33.271,5.5l-6.195,11.151h4.18V35.31c-0.523-0.304-1.104-0.589-1.756-0.839
	l-7.633-2.832c-0.294-0.105-1.762-0.697-1.762-2.42V27.39c2.043-0.827,3.485-2.824,3.485-5.162c0-3.079-2.495-5.576-5.575-5.576
	c-3.078,0-5.576,2.498-5.576,5.576c0,2.338,1.443,4.333,3.484,5.161v1.83c0,3.903,3.051,5.893,4.563,6.364l7.536,2.802
	c2.991,1.145,3.22,2.902,3.233,3.131v0.714c-1.643,0.784-2.785,2.447-2.785,4.39c0,2.696,2.186,4.881,4.877,4.881
	c2.695,0,4.881-2.185,4.881-4.881c0-1.943-1.145-3.605-2.79-4.39V41.5c0-0.019,0.142-1.893,3.216-3.072l7.453-2.771
	c1.615-0.506,4.664-2.494,4.664-6.398v-2.849h2.789V16.651z"/>
<path fill="#FFFFFF" d="M39.47,16.651L33.271,5.5l-6.195,11.151h0.556L33.271,6.5l5.643,10.151H39.47z M28.471,46.619
	c0,0.145,0.031,0.279,0.043,0.421c0.201-1.688,1.266-3.105,2.742-3.811v-0.714c-0.002-0.041-0.013-0.134-0.044-0.262
	C29.594,43.048,28.471,44.695,28.471,46.619z M23.559,22.639c0.011-0.137,0.032-0.271,0.032-0.411c0-3.079-2.495-5.576-5.575-5.576
	c-3.078,0-5.576,2.498-5.576,5.576c0,0.14,0.021,0.274,0.031,0.411c0.295-2.802,2.666-4.987,5.545-4.987
	C20.896,17.651,23.266,19.837,23.559,22.639z M21.867,31.639c-0.294-0.105-1.762-0.697-1.762-2.42v1c0,1.723,1.468,2.314,1.762,2.42
	l7.633,2.832c0.652,0.25,1.232,0.535,1.756,0.839v-1c-0.523-0.304-1.104-0.589-1.756-0.839L21.867,31.639z M43.804,16.651v1h9.757
	v-1H43.804z M44.755,31.701l-7.575,2.814c-0.646,0.247-1.221,0.528-1.741,0.828v1c0.521-0.3,1.096-0.581,1.741-0.828l7.575-2.814
	c0.368-0.128,1.836-0.723,1.836-2.443v-1C46.591,30.979,45.123,31.573,44.755,31.701z M35.486,42.257
	c-0.039,0.147-0.048,0.239-0.048,0.243v0.729c1.478,0.704,2.545,2.121,2.747,3.812c0.013-0.142,0.043-0.277,0.043-0.422
	C38.229,44.695,37.104,43.05,35.486,42.257z"/>
</svg>
