<?xml version="1.0" encoding="utf-8"?>
<!-- Generator: Adobe Illustrator 15.0.0, SVG Export Plug-In . SVG Version: 6.00 Build 0)  -->
<!DOCTYPE svg PUBLIC "-//W3C//DTD SVG 1.1//EN" "http://www.w3.org/Graphics/SVG/1.1/DTD/svg11.dtd">
<svg version="1.1" xmlns="http://www.w3.org/2000/svg" xmlns:xlink="http://www.w3.org/1999/xlink" x="0px" y="0px" width="67px"
	 height="57px" viewBox="0 0 67 57" enable-background="new 0 0 67 57" xml:space="preserve">
<g id="DO_NOT_EDIT_-_BOUNDING_BOX">
	<rect id="BOUNDING_BOX" fill="none" width="67" height="57"/>
</g>
<g id="PLACE_YOUR_GRAPHIC_HERE">
	<path opacity="0.3" d="M40.062,12.269c-0.033-0.003-0.061-0.019-0.093-0.019H27.031c-0.032,0-0.061,0.016-0.093,0.019
		C14.793,12.463,10.5,17.004,10.5,29.5s4.293,17.037,16.438,17.23c0.032,0.004,0.061,0.02,0.093,0.02h12.938
		c0.032,0,0.06-0.016,0.093-0.02C52.207,46.537,56.5,41.996,56.5,29.5S52.207,12.463,40.062,12.269z M43.345,30.049l-5.93,3.424
		c-0.686,0.396-1.807,1.043-2.49,1.438l-5.93,3.424c-0.687,0.395-1.245,0.072-1.245-0.719v-16.57c0-0.791,0.559-1.113,1.245-0.719
		l5.93,3.424c0.684,0.396,1.805,1.041,2.49,1.438l5.93,3.424C44.029,29.006,44.029,29.654,43.345,30.049z"/>
	<rect x="16.381" y="16.446" fill="none" width="30" height="30"/>
	<path opacity="0.15" d="M27.031,46.75c-0.058,0-0.134-0.009-0.205-0.021C14.199,46.503,9.5,41.554,9.5,28.5
		c0-13.055,4.699-18.004,17.331-18.229c0.07-0.012,0.145-0.021,0.2-0.021h12.938c0.062,0,0.143,0.01,0.218,0.023
		C52.787,10.482,57.5,15.426,57.5,28.5c0,13.055-4.699,18.003-17.328,18.229c-0.071,0.013-0.146,0.021-0.203,0.021H27.031z
		 M28.75,36.324l13.832-7.99l-13.824-7.99L28.75,36.324z"/>
	<path opacity="0.15" d="M40.062,11.269c-0.033-0.003-0.061-0.019-0.093-0.019H27.031c-0.032,0-0.061,0.016-0.093,0.019
		C14.793,11.463,10.5,16.004,10.5,28.5s4.293,17.037,16.438,17.23c0.032,0.004,0.061,0.02,0.093,0.02h12.938
		c0.032,0,0.06-0.016,0.093-0.02C52.207,45.537,56.5,40.996,56.5,28.5S52.207,11.463,40.062,11.269z M43.345,29.049l-5.93,3.424
		c-0.686,0.396-1.807,1.043-2.49,1.438l-5.93,3.424c-0.687,0.395-1.245,0.072-1.245-0.719v-16.57c0-0.791,0.559-1.113,1.245-0.719
		l5.93,3.424c0.684,0.396,1.805,1.041,2.49,1.438l5.93,3.424C44.029,28.006,44.029,28.654,43.345,29.049z"/>
	<linearGradient id="SVGID_1_" gradientUnits="userSpaceOnUse" x1="33.5005" y1="45.75" x2="33.5005" y2="11.2505">
		<stop  offset="0" style="stop-color:#D0CBC5"/>
		<stop  offset="0.5031" style="stop-color:#FAFCEF"/>
		<stop  offset="0.9693" style="stop-color:#FFFFFF"/>
	</linearGradient>
	<path fill="url(#SVGID_1_)" d="M40.062,11.269c-0.033-0.003-0.061-0.019-0.093-0.019H27.031c-0.032,0-0.061,0.016-0.093,0.019
		C14.793,11.463,10.5,16.004,10.5,28.5s4.293,17.037,16.438,17.23c0.032,0.004,0.061,0.02,0.093,0.02h12.938
		c0.032,0,0.06-0.016,0.093-0.02C52.207,45.537,56.5,40.996,56.5,28.5S52.207,11.463,40.062,11.269z M43.345,29.049l-5.93,3.424
		c-0.686,0.396-1.807,1.043-2.49,1.438l-5.93,3.424c-0.687,0.395-1.245,0.072-1.245-0.719v-16.57c0-0.791,0.559-1.113,1.245-0.719
		l5.93,3.424c0.684,0.396,1.805,1.041,2.49,1.438l5.93,3.424C44.029,28.006,44.029,28.654,43.345,29.049z"/>
	<path fill="#FFFFFF" d="M10.511,29c-0.001-0.17-0.011-0.327-0.011-0.5c0-12.496,4.293-17.037,16.438-17.231
		c0.032-0.003,0.061-0.019,0.093-0.019h12.938c0.032,0,0.06,0.016,0.093,0.019C52.207,11.463,56.5,16.004,56.5,28.5
		c0,0.173-0.01,0.33-0.012,0.5c-0.118-12.105-4.45-16.539-16.427-16.731c-0.033-0.003-0.061-0.019-0.093-0.019H27.031
		c-0.032,0-0.061,0.016-0.093,0.019C14.962,12.461,10.63,16.895,10.511,29z M28.995,38.334l5.93-3.424
		c0.684-0.395,1.805-1.041,2.49-1.438l5.93-3.424c0.57-0.328,0.658-0.831,0.279-1.219c-0.076,0.078-0.165,0.153-0.279,0.219
		l-5.93,3.424c-0.686,0.396-1.807,1.043-2.49,1.438l-5.93,3.424c-0.687,0.395-1.245,0.072-1.245-0.719v1
		C27.75,38.406,28.309,38.729,28.995,38.334z"/>
</g>
<g id="DO_NOT_EDIT_-_FOCAL_ZONE_GUIDES">
</g>
</svg>
