<?xml version="1.0" encoding="utf-8"?>
<!-- Generator: Adobe Illustrator 15.0.0, SVG Export Plug-In . SVG Version: 6.00 Build 0)  -->
<!DOCTYPE svg PUBLIC "-//W3C//DTD SVG 1.1//EN" "http://www.w3.org/Graphics/SVG/1.1/DTD/svg11.dtd">
<svg version="1.1" xmlns="http://www.w3.org/2000/svg" xmlns:xlink="http://www.w3.org/1999/xlink" x="0px" y="0px" width="67px"
	 height="57px" viewBox="0 0 67 57" enable-background="new 0 0 67 57" xml:space="preserve">
<g id="DO_NOT_EDIT_-_BOUNDING_BOX">
	<rect id="BOUNDING_BOX" fill="none" width="67" height="57"/>
</g>
<g id="PLACE_YOUR_GRAPHIC_HERE">
	<path opacity="0.3" d="M30.479,19.246l-2.806-2.806c-0.688-0.688-2.049-1.25-3.02-1.25H14.038l-2.747-1.372
		c-0.436-0.218-0.792,0-0.792,0.487v7.077c0,0.487,0.356,0.708,0.792,0.491l2.747-1.375h15.924
		C30.933,20.497,31.168,19.934,30.479,19.246z M54.73,23.151h-1.769l-5.308,2.654h-3.539v-1.769c0-0.971-0.798-1.77-1.77-1.77
		H17.577c-0.975,0-1.77,0.798-1.77,1.77v19.461c0,0.975,0.795,1.77,1.77,1.77h24.769c0.972,0,1.77-0.795,1.77-1.77V36.42h3.539
		l5.308,2.654h1.769c0.972,0,1.77-0.795,1.77-1.77V24.92C56.5,23.949,55.702,23.151,54.73,23.151z"/>
	<rect x="16.381" y="16.446" fill="none" width="30" height="30"/>
	<path opacity="0.15" d="M17.577,45.267c-1.527,0-2.77-1.242-2.77-2.77V23.036c0-1.134,0.685-2.11,1.663-2.539h-2.196l-2.535,1.269
		c-0.252,0.126-0.51,0.19-0.768,0.19c-0.839,0-1.471-0.677-1.471-1.575v-7.077c0-0.896,0.632-1.572,1.469-1.572
		c0.258,0,0.517,0.064,0.77,0.19l2.535,1.267h10.38c1.245,0,2.847,0.664,3.727,1.543l2.806,2.806
		c0.892,0.891,0.703,1.676,0.581,1.972c-0.077,0.186-0.271,0.527-0.718,0.755h11.296c1.527,0,2.77,1.242,2.77,2.77v0.769h2.303
		l5.097-2.548c0.139-0.069,0.292-0.105,0.447-0.105h1.769c1.527,0,2.77,1.242,2.77,2.769v12.385c0,1.527-1.242,2.77-2.77,2.77
		h-1.769c-0.155,0-0.309-0.036-0.447-0.105l-5.097-2.549h-2.303v6.077c0,1.527-1.242,2.77-2.77,2.77H17.577z"/>
	<path opacity="0.15" d="M30.479,18.246l-2.806-2.806c-0.688-0.688-2.049-1.25-3.02-1.25H14.038l-2.747-1.372
		c-0.436-0.218-0.792,0-0.792,0.487v7.077c0,0.487,0.356,0.708,0.792,0.491l2.747-1.375h15.924
		C30.933,19.497,31.168,18.934,30.479,18.246z M54.73,22.151h-1.769l-5.308,2.654h-3.539v-1.769c0-0.971-0.798-1.77-1.77-1.77
		H17.577c-0.975,0-1.77,0.798-1.77,1.77v19.461c0,0.975,0.795,1.77,1.77,1.77h24.769c0.972,0,1.77-0.795,1.77-1.77V35.42h3.539
		l5.308,2.654h1.769c0.972,0,1.77-0.795,1.77-1.77V23.92C56.5,22.949,55.702,22.151,54.73,22.151z"/>
	<linearGradient id="SVGID_1_" gradientUnits="userSpaceOnUse" x1="33.5005" y1="44.2666" x2="33.5005" y2="12.7334">
		<stop  offset="0" style="stop-color:#D0CBC5"/>
		<stop  offset="0.5031" style="stop-color:#FAFCEF"/>
		<stop  offset="0.9693" style="stop-color:#FFFFFF"/>
	</linearGradient>
	<path fill="url(#SVGID_1_)" d="M30.479,18.246l-2.806-2.806c-0.688-0.688-2.049-1.25-3.02-1.25H14.038l-2.747-1.372
		c-0.436-0.218-0.792,0-0.792,0.487v7.077c0,0.487,0.356,0.708,0.792,0.491l2.747-1.375h15.924
		C30.933,19.497,31.168,18.934,30.479,18.246z M54.73,22.151h-1.769l-5.308,2.654h-3.539v-1.769c0-0.971-0.798-1.77-1.77-1.77
		H17.577c-0.975,0-1.77,0.798-1.77,1.77v19.461c0,0.975,0.795,1.77,1.77,1.77h24.769c0.972,0,1.77-0.795,1.77-1.77V35.42h3.539
		l5.308,2.654h1.769c0.972,0,1.77-0.795,1.77-1.77V23.92C56.5,22.949,55.702,22.151,54.73,22.151z"/>
	<path fill="#FFFFFF" d="M17.577,21.266h24.769c0.972,0,1.77,0.798,1.77,1.77v1c0-0.971-0.798-1.77-1.77-1.77H17.577
		c-0.975,0-1.77,0.798-1.77,1.77v-1C15.808,22.064,16.603,21.266,17.577,21.266z M11.292,13.817l2.747,1.372h10.616
		c0.971,0,2.332,0.563,3.02,1.25l2.806,2.806c0.043,0.043,0.073,0.085,0.109,0.127c0.397-0.201,0.389-0.63-0.109-1.127l-2.806-2.806
		c-0.688-0.688-2.049-1.25-3.02-1.25H14.038l-2.747-1.372c-0.436-0.218-0.792,0-0.792,0.487v1
		C10.5,13.817,10.856,13.6,11.292,13.817z M54.73,22.151h-1.769l-5.308,2.654h-3.539v1h3.539l5.308-2.654h1.769
		c0.972,0,1.77,0.798,1.77,1.769v-1C56.5,22.949,55.702,22.151,54.73,22.151z"/>
</g>
<g id="DO_NOT_EDIT_-_FOCAL_ZONE_GUIDES">
</g>
</svg>
