<?xml version="1.0" encoding="utf-8"?>
<!-- Generator: Adobe Illustrator 15.0.0, SVG Export Plug-In  -->
<!DOCTYPE svg PUBLIC "-//W3C//DTD SVG 1.1//EN" "http://www.w3.org/Graphics/SVG/1.1/DTD/svg11.dtd" [
	<!ENTITY ns_flows "http://ns.adobe.com/Flows/1.0/">
]>
<svg version="1.1"
	 xmlns="http://www.w3.org/2000/svg" xmlns:xlink="http://www.w3.org/1999/xlink" xmlns:a="http://ns.adobe.com/AdobeSVGViewerExtensions/3.0/"
	 x="0px" y="0px" width="67px" height="57px" viewBox="0 0 67 57" enable-background="new 0 0 67 57" xml:space="preserve">
<defs>
</defs>
<rect fill="none" width="67" height="57"/>
<path opacity="0.3" d="M54.131,39.952l-7.126-2.664c-1.621-0.849-2.577,0.278-2.577,0.278l-3.584,2.979
	c0.258-0.3-2.97,3.37-12.338-5.716l-0.003,0.001l-0.454-0.451v-0.003c-9.082-9.369-5.413-12.597-5.718-12.338l3.1-3.47
	c0,0,1.129-0.954,0.282-2.574L23.045,8.86c0,0-0.867-1.639-2.371-1.283c-10.715,2.556-7.778,13.775-7.778,13.775
	c1.343,7.155,6.421,13.201,8.995,15.888l-0.016,0.011l3.049,3.049l0.008-0.006c2.045,2.095,8.681,8.304,16.716,9.81
	c0,0,11.217,2.938,13.771-7.779C55.775,40.82,54.131,39.952,54.131,39.952z M54.141,25.374c-1.819,1.141-3.965,1.811-6.269,1.811
	c-2.301,0-4.446-0.67-6.268-1.811l-2.884,3.845c-0.56,0.745-0.253,1.355,0.679,1.355h16.947c0.934,0,1.237-0.61,0.678-1.355
	L54.141,25.374z M47.872,25.49c5.618,0,10.168-4.553,10.168-10.168S53.49,5.154,47.872,5.154c-5.614,0-10.166,4.553-10.166,10.168
	S42.258,25.49,47.872,25.49z M47.872,11.085c2.341,0,4.238,1.897,4.238,4.237c0,2.34-1.897,4.237-4.238,4.237
	c-2.339,0-4.234-1.896-4.234-4.237C43.638,12.982,45.533,11.085,47.872,11.085z"/>
<path opacity="0.15" d="M44.985,50.472c-2.036,0-3.527-0.385-3.59-0.4c-8.191-1.533-15.028-7.896-17.08-9.979
	c-0.035-0.026-0.067-0.055-0.099-0.086l-3.049-3.049c-0.052-0.052-0.098-0.109-0.137-0.171c-2.89-3.046-7.772-9.081-9.118-16.25
	c-0.044-0.159-1.411-5.546,1.245-9.974c1.496-2.494,3.947-4.162,7.284-4.958c0.219-0.052,0.439-0.078,0.655-0.078
	c1.456,0,2.465,1.173,2.832,1.866c0.02,0.038,0.038,0.077,0.053,0.118l2.648,7.081c0.883,1.752,0.101,3.14-0.49,3.687
	c0,0-2.985,3.343-2.988,3.347c-0.088,0.125-2.067,3.132,5.615,11.057c0.01,0.012,0.42,0.417,0.435,0.432
	c5.311,5.15,8.418,5.919,9.797,5.919c0.775,0,1.157-0.231,1.255-0.302c0.015-0.011,0.028-0.02,0.043-0.029l3.445-2.864
	c0.234-0.24,0.955-0.864,2.088-0.864c0.522,0,1.054,0.135,1.58,0.4l7.071,2.644c0.04,0.015,0.078,0.032,0.116,0.052
	c0.865,0.457,2.217,1.705,1.796,3.487C54.544,49.313,48.452,50.472,44.985,50.472L44.985,50.472z M39.399,30.574
	c-0.837,0-1.491-0.347-1.793-0.952c-0.303-0.604-0.188-1.335,0.314-2.004l2.884-3.844c0.146-0.194,0.35-0.321,0.571-0.374
	c-2.826-2.028-4.67-5.342-4.67-9.079c0-6.158,5.009-11.168,11.166-11.168c6.158,0,11.168,5.01,11.168,11.168
	c0,3.736-1.844,7.05-4.67,9.079c0.221,0.052,0.425,0.179,0.57,0.374l2.884,3.844c0.503,0.67,0.618,1.4,0.315,2.005
	c-0.302,0.604-0.955,0.951-1.793,0.951H39.399z M47.872,11.085c-1.783,0-3.234,1.452-3.234,3.237s1.451,3.237,3.234,3.237
	c1.785,0,3.238-1.452,3.238-3.237S49.657,11.085,47.872,11.085z"/>
<path opacity="0.15" d="M54.131,38.952l-7.126-2.664c-1.621-0.849-2.577,0.278-2.577,0.278l-3.584,2.979
	c0.258-0.3-2.97,3.37-12.338-5.716l-0.003,0.001l-0.454-0.451v-0.003c-9.082-9.369-5.413-12.597-5.718-12.338l3.1-3.47
	c0,0,1.129-0.954,0.282-2.574L23.045,7.86c0,0-0.867-1.639-2.371-1.283c-10.715,2.556-7.778,13.775-7.778,13.775
	c1.343,7.155,6.421,13.201,8.995,15.888l-0.016,0.011l3.049,3.049l0.008-0.006c2.045,2.095,8.681,8.304,16.716,9.81
	c0,0,11.217,2.938,13.771-7.779C55.775,39.82,54.131,38.952,54.131,38.952z M54.141,24.374c-1.819,1.141-3.965,1.811-6.269,1.811
	c-2.301,0-4.446-0.67-6.268-1.811l-2.884,3.844c-0.56,0.746-0.253,1.356,0.679,1.356h16.947c0.934,0,1.237-0.61,0.678-1.356
	L54.141,24.374z M47.872,24.49c5.618,0,10.168-4.553,10.168-10.168S53.49,4.154,47.872,4.154c-5.614,0-10.166,4.553-10.166,10.168
	S42.258,24.49,47.872,24.49z M47.872,10.085c2.341,0,4.238,1.897,4.238,4.237c0,2.34-1.897,4.237-4.238,4.237
	c-2.339,0-4.234-1.896-4.234-4.237C43.638,11.982,45.533,10.085,47.872,10.085z"/>
<linearGradient id="SVGID_1_" gradientUnits="userSpaceOnUse" x1="35.2832" y1="49.4717" x2="35.2832" y2="4.1543">
	<stop  offset="0" style="stop-color:#D0CBC5"/>
	<stop  offset="0.5031" style="stop-color:#FAFCEF"/>
	<stop  offset="0.9693" style="stop-color:#FFFFFF"/>
</linearGradient>
<path fill="url(#SVGID_1_)" d="M54.131,38.952l-7.126-2.664c-1.621-0.849-2.577,0.278-2.577,0.278l-3.584,2.979
	c0.258-0.3-2.97,3.37-12.338-5.716l-0.003,0.001l-0.454-0.451v-0.003c-9.082-9.369-5.413-12.597-5.718-12.338l3.1-3.47
	c0,0,1.129-0.954,0.282-2.574L23.045,7.86c0,0-0.867-1.639-2.371-1.283c-10.715,2.556-7.778,13.775-7.778,13.775
	c1.343,7.155,6.421,13.201,8.995,15.888l-0.016,0.011l3.049,3.049l0.008-0.006c2.045,2.095,8.681,8.304,16.716,9.81
	c0,0,11.217,2.938,13.771-7.779C55.775,39.82,54.131,38.952,54.131,38.952z M54.141,24.374c-1.819,1.141-3.965,1.811-6.269,1.811
	c-2.301,0-4.446-0.67-6.268-1.811l-2.884,3.844c-0.56,0.746-0.253,1.356,0.679,1.356h16.947c0.934,0,1.237-0.61,0.678-1.356
	L54.141,24.374z M47.872,24.49c5.618,0,10.168-4.553,10.168-10.168S53.49,4.154,47.872,4.154c-5.614,0-10.166,4.553-10.166,10.168
	S42.258,24.49,47.872,24.49z M47.872,10.085c2.341,0,4.238,1.897,4.238,4.237c0,2.34-1.897,4.237-4.238,4.237
	c-2.339,0-4.234-1.896-4.234-4.237C43.638,11.982,45.533,10.085,47.872,10.085z"/>
<path fill="#FFFFFF" d="M47.872,5.154c5.449,0,9.88,4.287,10.143,9.668c0.008-0.167,0.025-0.331,0.025-0.5
	c0-5.615-4.55-10.168-10.168-10.168c-5.614,0-10.166,4.553-10.166,10.168c0,0.169,0.018,0.333,0.025,0.5
	C37.994,9.44,42.427,5.154,47.872,5.154z"/>
<path fill="#FFFFFF" d="M20.674,7.577c1.504-0.356,2.371,1.283,2.371,1.283l2.668,7.135c0.123,0.236,0.195,0.453,0.245,0.659
	c0.111-0.424,0.111-0.979-0.245-1.659L23.045,7.86c0,0-0.867-1.639-2.371-1.283c-7.264,1.732-8.252,7.444-8.136,10.945
	C12.653,14.02,14.068,9.153,20.674,7.577z"/>
<path fill="#FFFFFF" d="M47.872,19.559c2.341,0,4.238-1.896,4.238-4.237c0-0.171-0.03-0.334-0.051-0.5
	c-0.25,2.102-2.018,3.737-4.188,3.737c-2.168,0-3.934-1.635-4.184-3.737c-0.021,0.166-0.051,0.329-0.051,0.5
	C43.638,17.662,45.533,19.559,47.872,19.559z"/>
<path fill="#FFFFFF" d="M54.141,24.374c-1.819,1.141-3.965,1.811-6.269,1.811c-2.301,0-4.446-0.67-6.268-1.811l-2.884,3.844
	c-0.354,0.472-0.359,0.888-0.081,1.131c0.027-0.044,0.048-0.086,0.081-0.131l2.884-3.845c1.821,1.141,3.967,1.811,6.268,1.811
	c2.304,0,4.449-0.67,6.269-1.811l2.884,3.845c0.034,0.045,0.055,0.088,0.082,0.131c0.278-0.242,0.272-0.659-0.082-1.131
	L54.141,24.374z"/>
<path fill="#FFFFFF" d="M54.131,38.952l-7.126-2.664c-1.621-0.849-2.577,0.278-2.577,0.278l-3.584,2.979
	c0.258-0.3-2.97,3.37-12.338-5.716l-0.003,0.001l-0.454-0.451v-0.003c-4.711-4.86-5.988-8.064-6.172-9.99
	c-0.191,1.715,0.525,5.165,6.172,10.99v0.003l0.454,0.451l0.003-0.001c9.368,9.086,12.596,5.416,12.338,5.716l3.584-2.979
	c0,0,0.956-1.127,2.577-0.278l7.126,2.664c0,0,0.987,0.532,1.261,1.477c0.009-0.036,0.02-0.068,0.028-0.104
	C55.775,39.82,54.131,38.952,54.131,38.952z"/>
<rect x="8.896" y="2.459" fill="none" width="50.84" height="50.841"/>
</svg>
