<?xml version="1.0" encoding="utf-8"?>
<!-- Generator: Adobe Illustrator 15.0.0, SVG Export Plug-In . SVG Version: 6.00 Build 0)  -->
<!DOCTYPE svg PUBLIC "-//W3C//DTD SVG 1.1//EN" "http://www.w3.org/Graphics/SVG/1.1/DTD/svg11.dtd">
<svg version="1.1" xmlns="http://www.w3.org/2000/svg" xmlns:xlink="http://www.w3.org/1999/xlink" x="0px" y="0px" width="67px"
	 height="57px" viewBox="0 0 67 57" enable-background="new 0 0 67 57" xml:space="preserve">
<g id="DO_NOT_EDIT_-_BOUNDING_BOX">
	<rect id="BOUNDING_BOX" fill="none" width="67" height="57"/>
</g>
<g id="PLACE_YOUR_GRAPHIC_HERE">
	<path opacity="0.3" d="M45.884,8.269c0-0.978-0.791-1.769-1.769-1.769H15.808c-0.978,0-1.769,0.792-1.769,1.769v35.385
		c0,0.978,0.791,1.769,1.769,1.769V11.808c0-1.952,1.586-3.539,3.539-3.539H45.884z M51.192,13.577H22.885
		c-0.978,0-1.77,0.791-1.77,1.769V50.73c0,0.979,0.792,1.77,1.77,1.77h28.307c0.978,0,1.769-0.791,1.769-1.77V15.346
		C52.961,14.368,52.17,13.577,51.192,13.577z M49.423,11.808c0-0.978-0.791-1.769-1.77-1.769H19.347
		c-0.978,0-1.769,0.791-1.769,1.769v35.385c0,0.978,0.791,1.77,1.769,1.77V15.346c0-1.953,1.586-3.539,3.539-3.539H49.423z"/>
	<rect x="16.381" y="16.446" fill="none" width="30" height="30"/>
	<path opacity="0.15" d="M22.885,52.5c-1.527,0-2.77-1.242-2.77-2.77v-1.129c-0.184,0.22-0.46,0.36-0.769,0.36
		c-1.527,0-2.769-1.242-2.769-2.77v-1.131c-0.184,0.221-0.46,0.361-0.77,0.361c-1.527,0-2.769-1.242-2.769-2.769V7.269
		c0-1.527,1.242-2.769,2.769-2.769h28.307c1.526,0,2.769,1.242,2.769,2.769c0,0.31-0.141,0.586-0.361,0.77h1.131
		c1.527,0,2.77,1.242,2.77,2.769c0,0.31-0.141,0.586-0.361,0.77h1.131c1.526,0,2.769,1.242,2.769,2.769V49.73
		c0,1.527-1.242,2.77-2.769,2.77H22.885z"/>
	<path opacity="0.15" d="M45.884,7.269c0-0.978-0.791-1.769-1.769-1.769H15.808c-0.978,0-1.769,0.792-1.769,1.769v35.385
		c0,0.978,0.791,1.769,1.769,1.769V10.808c0-1.952,1.586-3.539,3.539-3.539H45.884z M51.192,12.577H22.885
		c-0.978,0-1.77,0.791-1.77,1.769V49.73c0,0.979,0.792,1.77,1.77,1.77h28.307c0.978,0,1.769-0.791,1.769-1.77V14.346
		C52.961,13.368,52.17,12.577,51.192,12.577z M49.423,10.808c0-0.978-0.791-1.769-1.77-1.769H19.347
		c-0.978,0-1.769,0.791-1.769,1.769v35.385c0,0.978,0.791,1.77,1.769,1.77V14.346c0-1.953,1.586-3.539,3.539-3.539H49.423z"/>
	<linearGradient id="SVGID_1_" gradientUnits="userSpaceOnUse" x1="33.5005" y1="51.5" x2="33.5005" y2="5.5005">
		<stop  offset="0" style="stop-color:#D0CBC5"/>
		<stop  offset="0.5031" style="stop-color:#FAFCEF"/>
		<stop  offset="0.9693" style="stop-color:#FFFFFF"/>
	</linearGradient>
	<path fill="url(#SVGID_1_)" d="M45.884,7.269c0-0.978-0.791-1.769-1.769-1.769H15.808c-0.978,0-1.769,0.792-1.769,1.769v35.385
		c0,0.978,0.791,1.769,1.769,1.769V10.808c0-1.952,1.586-3.539,3.539-3.539H45.884z M51.192,12.577H22.885
		c-0.978,0-1.77,0.791-1.77,1.769V49.73c0,0.979,0.792,1.77,1.77,1.77h28.307c0.978,0,1.769-0.791,1.769-1.77V14.346
		C52.961,13.368,52.17,12.577,51.192,12.577z M49.423,10.808c0-0.978-0.791-1.769-1.77-1.769H19.347
		c-0.978,0-1.769,0.791-1.769,1.769v35.385c0,0.978,0.791,1.77,1.769,1.77V14.346c0-1.953,1.586-3.539,3.539-3.539H49.423z"/>
	<path fill="#FFFFFF" d="M52.961,14.346v1c0-0.978-0.791-1.769-1.769-1.769H22.885c-0.978,0-1.77,0.791-1.77,1.769v-1
		c0-0.978,0.792-1.769,1.77-1.769h28.307C52.17,12.577,52.961,13.368,52.961,14.346z M17.578,10.808v1
		c0-0.978,0.791-1.769,1.769-1.769h28.307c0.606,0,1.141,0.305,1.459,0.769h0.311c0-0.978-0.791-1.769-1.77-1.769H19.347
		C18.369,9.039,17.578,9.83,17.578,10.808z M15.808,6.5h28.307c0.605,0,1.14,0.305,1.458,0.769h0.311
		c0-0.978-0.791-1.769-1.769-1.769H15.808c-0.978,0-1.769,0.792-1.769,1.769v1C14.039,7.292,14.83,6.5,15.808,6.5z"/>
</g>
<g id="DO_NOT_EDIT_-_FOCAL_ZONE_GUIDES">
</g>
</svg>
