<?xml version="1.0" encoding="utf-8"?>
<!-- Generator: Adobe Illustrator 15.0.0, SVG Export Plug-In . SVG Version: 6.00 Build 0)  -->
<!DOCTYPE svg PUBLIC "-//W3C//DTD SVG 1.1//EN" "http://www.w3.org/Graphics/SVG/1.1/DTD/svg11.dtd">
<svg version="1.1" id="Ebene_1" xmlns="http://www.w3.org/2000/svg" xmlns:xlink="http://www.w3.org/1999/xlink" x="0px" y="0px"
	 width="67px" height="57px" viewBox="0 0 67 57" enable-background="new 0 0 67 57" xml:space="preserve">
<rect fill="none" width="67" height="57"/>
<path opacity="0.15" enable-background="new    " d="M23,52.014c-0.553,0-1-0.447-1-1V47c0-0.553,0.447-1,1-1h7v-2.482
	C22.419,41.689,17,34.873,17,27v-4.5c0-1.93,1.57-3.5,3.5-3.5s3.5,1.57,3.5,3.5V27c0,5.514,4.486,10,10,10c5.514,0,10-4.486,10-10
	v-4.5c0-1.93,1.57-3.5,3.5-3.5s3.5,1.57,3.5,3.5V27c0,7.873-5.419,14.689-13,16.518V46h7c0.553,0,1,0.447,1,1v4.014
	c0,0.553-0.447,1-1,1H23z M34,36c-4.963,0-9-4.037-9-9V15c0-4.963,4.037-9,9-9s9,4.037,9,9v12C43,31.963,38.963,36,34,36L34,36z"/>
<path opacity="0.3" enable-background="new    " d="M34,36c4.418,0,8-3.582,8-8V16c0-4.418-3.582-8-8-8s-8,3.582-8,8v12
	C26,32.418,29.582,36,34,36z M47.5,21c-1.381,0-2.5,1.119-2.5,2.5V28c0,6.064-4.936,11-11,11c-6.065,0-11-4.936-11-11v-4.5
	c0-1.381-1.119-2.5-2.5-2.5S18,22.119,18,23.5V28c0,7.811,5.6,14.305,13,15.709V48h-8v4.014h22V48h-8v-4.291
	C44.4,42.305,50,35.811,50,28v-4.5C50,22.119,48.881,21,47.5,21z"/>
<linearGradient id="SVGID_1_" gradientUnits="userSpaceOnUse" x1="171.4805" y1="-254.0332" x2="171.4805" y2="-210.0195" gradientTransform="matrix(1 0 0 -1 -137.48 -203.0195)">
	<stop  offset="0" style="stop-color:#D0CBC5"/>
	<stop  offset="0.5031" style="stop-color:#FAFCEF"/>
	<stop  offset="0.9693" style="stop-color:#FFFFFF"/>
</linearGradient>
<path fill="url(#SVGID_1_)" d="M34,35c4.418,0,8-3.582,8-8V15c0-4.418-3.582-8-8-8s-8,3.582-8,8v12C26,31.418,29.582,35,34,35z
	 M47.5,20c-1.381,0-2.5,1.119-2.5,2.5V27c0,6.064-4.936,11-11,11c-6.065,0-11-4.936-11-11v-4.5c0-1.381-1.119-2.5-2.5-2.5
	S18,21.119,18,22.5V27c0,7.811,5.6,14.305,13,15.709V47h-8v4.014h22V47h-8v-4.291C44.4,41.305,50,34.811,50,27v-4.5
	C50,21.119,48.881,20,47.5,20z"/>
<path fill="#FFFFFF" d="M34,8c4.418,0,8,3.582,8,8v-1c0-4.418-3.582-8-8-8s-8,3.582-8,8v1C26,11.582,29.582,8,34,8z M23,48h8v-1h-8
	V48z M23,22.5c0-1.381-1.119-2.5-2.5-2.5S18,21.119,18,22.5v1c0-1.381,1.119-2.5,2.5-2.5s2.5,1.119,2.5,2.5V22.5z M47.5,20
	c-1.381,0-2.5,1.119-2.5,2.5v1c0-1.381,1.119-2.5,2.5-2.5s2.5,1.119,2.5,2.5v-1C50,21.119,48.881,20,47.5,20z M37,48h8v-1h-8V48z
	 M34,38c-6.065,0-11-4.936-11-11v1c0,6.064,4.935,11,11,11c6.064,0,11-4.936,11-11v-1C45,33.064,40.064,38,34,38z"/>
</svg>
