<?xml version="1.0" encoding="utf-8"?>
<!-- Generator: Adobe Illustrator 14.0.0, SVG Export Plug-In  -->
<!DOCTYPE svg PUBLIC "-//W3C//DTD SVG 1.1//EN" "http://www.w3.org/Graphics/SVG/1.1/DTD/svg11.dtd" [
	<!ENTITY ns_flows "http://ns.adobe.com/Flows/1.0/">
]>
<svg version="1.1"
	 xmlns="http://www.w3.org/2000/svg" xmlns:xlink="http://www.w3.org/1999/xlink" xmlns:a="http://ns.adobe.com/AdobeSVGViewerExtensions/3.0/"
	 x="0px" y="0px" width="67px" height="57px" viewBox="0 0 67 57" enable-background="new 0 0 67 57" xml:space="preserve">
<defs>
</defs>
<rect fill="none" width="67" height="57"/>
<path opacity="0.15" d="M55,48c-0.26,0-0.516-0.102-0.707-0.293L48.586,42H18c-4.337,0-8-3.664-8-8V16c0-4.336,3.663-8,8-8h30
	c4.337,0,8,3.664,8,8v31c0,0.404-0.243,0.769-0.617,0.924C55.259,47.975,55.129,48,55,48L55,48z M24.261,21
	C21.317,21,20,23.151,20,25.283c0,2.131,1.333,4.424,4.261,4.424H41.66c3.296-0.279,4.415-2.419,4.336-4.327
	c-0.089-2.124-1.64-4.38-4.34-4.38c-2.089,0-3.149,1.092-3.671,2.008c-0.795,1.397-0.827,3.252-0.08,4.511
	c0.184,0.31,0.188,0.692,0.01,1.005s-0.51,0.506-0.869,0.506H28.87c-0.363,0-0.698-0.197-0.875-0.516
	c-0.176-0.317-0.166-0.706,0.026-1.014c0.748-1.197,0.729-3.008-0.044-4.404C27.544,22.313,26.483,21,24.261,21L24.261,21z"/>
<path opacity="0.3" d="M48,10H18c-3.865,0-7,3.352-7,7v18c0,3.648,3.135,7,7,7h31l6,6V17C55,13.352,51.869,10,48,10z M41.66,31.707
	H24.261c-6.891,0-7.137-10.707,0-10.707c4.813,0,6.367,5.215,4.609,8.029h8.176C35.374,26.215,36.765,21,41.656,21
	C47.896,21,49.613,31.043,41.66,31.707z"/>
<linearGradient id="SVGID_1_" gradientUnits="userSpaceOnUse" x1="33.0005" y1="47" x2="33.0005" y2="9.0005">
	<stop  offset="0" style="stop-color:#D0CBC5"/>
	<stop  offset="0.5031" style="stop-color:#FAFCEF"/>
	<stop  offset="0.9693" style="stop-color:#FFFFFF"/>
</linearGradient>
<path fill="url(#SVGID_1_)" d="M48,9H18c-3.865,0-7,3.352-7,7v18c0,3.648,3.135,7,7,7h31l6,6V16C55,12.352,51.869,9,48,9z
	 M41.66,30.707H24.261c-6.891,0-7.137-10.707,0-10.707c4.813,0,6.367,5.215,4.609,8.029h8.176C35.374,25.215,36.765,20,41.656,20
	C47.896,20,49.613,30.043,41.66,30.707z"/>
<path fill="#FFFFFF" d="M28.87,28.029h0.45c0.215-0.675,0.292-1.413,0.223-2.154C29.479,26.655,29.262,27.402,28.87,28.029z
	 M41.66,30.707H24.261c-3.261,0-5.03-2.397-5.237-4.924c-0.235,2.854,1.547,5.924,5.237,5.924H41.66
	c3.992-0.333,5.546-3.029,5.316-5.632C46.769,28.33,45.141,30.416,41.66,30.707z M48,9H18c-3.865,0-7,3.352-7,7v1
	c0-3.648,3.135-7,7-7h30c3.869,0,7,3.352,7,7v-1C55,12.352,51.869,9,48,9z M36.397,25.859c-0.067,0.747,0.009,1.491,0.218,2.17
	h0.431C36.672,27.398,36.459,26.646,36.397,25.859z"/>
</svg>
