<?xml version="1.0" encoding="utf-8"?>
<!-- Generator: Adobe Illustrator 15.0.0, SVG Export Plug-In . SVG Version: 6.00 Build 0)  -->
<!DOCTYPE svg PUBLIC "-//W3C//DTD SVG 1.1//EN" "http://www.w3.org/Graphics/SVG/1.1/DTD/svg11.dtd">
<svg version="1.1" xmlns="http://www.w3.org/2000/svg" xmlns:xlink="http://www.w3.org/1999/xlink" x="0px" y="0px" width="67px"
	 height="57px" viewBox="0 0 67 57" enable-background="new 0 0 67 57" xml:space="preserve">
<g id="DO_NOT_EDIT_-_BOUNDING_BOX">
	<rect id="BOUNDING_BOX" fill="none" width="67" height="57"/>
</g>
<g id="PLACE_YOUR_GRAPHIC_HERE">
	<path opacity="0.3" d="M44.279,40.652c-3.1,2.037-6.801,3.232-10.779,3.232c-3.976,0-7.674-1.193-10.772-3.228l-5.551,7.564
		c-1.725,2.351-0.75,4.278,2.17,4.278h28.308c2.92,0,3.894-1.928,2.17-4.278L44.279,40.652z M33.5,41.885
		c9.772,0,17.692-7.924,17.692-17.692C51.192,14.42,43.272,6.5,33.5,6.5s-17.692,7.92-17.692,17.692
		C15.808,33.961,23.728,41.885,33.5,41.885z M33.5,17.115c3.908,0,7.077,3.169,7.077,7.077S37.408,31.27,33.5,31.27
		s-7.077-3.169-7.077-7.077S29.592,17.115,33.5,17.115z"/>
	<rect x="16.381" y="16.446" fill="none" width="30" height="30"/>
	<path opacity="0.15" d="M19.346,52.5c-2.439,0-3.377-1.132-3.719-1.806c-0.342-0.675-0.699-2.099,0.743-4.064l5.551-7.564
		c0.195-0.266,0.499-0.408,0.807-0.408c0.142,0,0.285,0.03,0.419,0.093c-5.024-3.354-8.34-9.076-8.34-15.558
		C14.808,12.885,23.193,4.5,33.5,4.5c10.307,0,18.692,8.385,18.692,18.692c0,6.478-3.313,12.196-8.332,15.552
		c0.134-0.062,0.276-0.092,0.418-0.092c0.309,0,0.612,0.143,0.808,0.409l5.545,7.569c1.441,1.965,1.083,3.39,0.741,4.063
		c-0.342,0.675-1.278,1.806-3.718,1.806H19.346z M33.5,17.115c-3.351,0-6.077,2.726-6.077,6.077s2.726,6.077,6.077,6.077
		c3.351,0,6.077-2.726,6.077-6.077S36.851,17.115,33.5,17.115z"/>
	<path opacity="0.15" d="M44.279,39.652c-3.1,2.037-6.801,3.232-10.779,3.232c-3.976,0-7.674-1.193-10.772-3.228l-5.551,7.564
		c-1.725,2.351-0.75,4.278,2.17,4.278h28.308c2.92,0,3.894-1.928,2.17-4.278L44.279,39.652z M33.5,40.885
		c9.772,0,17.692-7.924,17.692-17.692C51.192,13.42,43.272,5.5,33.5,5.5s-17.692,7.92-17.692,17.692
		C15.808,32.961,23.728,40.885,33.5,40.885z M33.5,16.115c3.908,0,7.077,3.169,7.077,7.077S37.408,30.27,33.5,30.27
		s-7.077-3.169-7.077-7.077S29.592,16.115,33.5,16.115z"/>
	<linearGradient id="SVGID_1_" gradientUnits="userSpaceOnUse" x1="33.5005" y1="51.5" x2="33.5005" y2="5.5005">
		<stop  offset="0" style="stop-color:#D0CBC5"/>
		<stop  offset="0.5031" style="stop-color:#FAFCEF"/>
		<stop  offset="0.9693" style="stop-color:#FFFFFF"/>
	</linearGradient>
	<path fill="url(#SVGID_1_)" d="M44.279,39.652c-3.1,2.037-6.801,3.232-10.779,3.232c-3.976,0-7.674-1.193-10.772-3.228
		l-5.551,7.564c-1.725,2.351-0.75,4.278,2.17,4.278h28.308c2.92,0,3.894-1.928,2.17-4.278L44.279,39.652z M33.5,40.885
		c9.772,0,17.692-7.924,17.692-17.692C51.192,13.42,43.272,5.5,33.5,5.5s-17.692,7.92-17.692,17.692
		C15.808,32.961,23.728,40.885,33.5,40.885z M33.5,16.115c3.908,0,7.077,3.169,7.077,7.077S37.408,30.27,33.5,30.27
		s-7.077-3.169-7.077-7.077S29.592,16.115,33.5,16.115z"/>
	<path fill="#FFFFFF" d="M26.423,24.192c0-0.169,0.014-0.334,0.025-0.5c0.257,3.674,3.313,6.577,7.052,6.577
		s6.794-2.903,7.052-6.577c0.012,0.166,0.025,0.331,0.025,0.5c0,3.908-3.169,7.077-7.077,7.077S26.423,28.101,26.423,24.192z
		 M33.5,6.5c9.604,0,17.4,7.653,17.667,17.192c0.005-0.168,0.025-0.331,0.025-0.5C51.192,13.42,43.272,5.5,33.5,5.5
		s-17.692,7.92-17.692,17.692c0,0.169,0.021,0.332,0.025,0.5C16.1,14.153,23.896,6.5,33.5,6.5z M44.279,39.652
		c-3.1,2.037-6.801,3.232-10.779,3.232c-3.976,0-7.674-1.193-10.772-3.228l-5.551,7.564c-0.728,0.992-0.97,1.907-0.792,2.636
		c0.109-0.505,0.368-1.057,0.792-1.636l5.551-7.564c3.099,2.034,6.797,3.228,10.772,3.228c3.979,0,7.68-1.195,10.779-3.232
		l5.545,7.569c0.424,0.579,0.684,1.131,0.792,1.636c0.178-0.729-0.064-1.644-0.792-2.636L44.279,39.652z"/>
</g>
<g id="DO_NOT_EDIT_-_FOCAL_ZONE_GUIDES">
</g>
</svg>
