<?xml version="1.0" encoding="utf-8"?>
<!-- Generator: Adobe Illustrator 15.0.2, SVG Export Plug-In . SVG Version: 6.00 Build 0)  -->
<!DOCTYPE svg PUBLIC "-//W3C//DTD SVG 1.1//EN" "http://www.w3.org/Graphics/SVG/1.1/DTD/svg11.dtd">
<svg version="1.1" xmlns="http://www.w3.org/2000/svg" xmlns:xlink="http://www.w3.org/1999/xlink" x="0px" y="0px" width="67px"
	 height="57px" viewBox="0 0 67 57" enable-background="new 0 0 67 57" xml:space="preserve">
<g id="DO_NOT_EDIT_-_BOUNDING_BOX">
	<rect id="BOUNDING_BOX" fill="none" width="67" height="57"/>
</g>
<g id="PLACE_YOUR_GRAPHIC_HERE">
	<path opacity="0.3" d="M51.501,9h-32c-1.1,0-2,0.9-2,2v37c0,1.1,0.9,2,2,2h32c1.1,0,2-0.9,2-2V11C53.501,9.9,52.601,9,51.501,9z
		 M23.024,14h8.572v10h-8.572V14z M45.579,45H24.582c-0.829,0-1.5-0.671-1.5-1.498c0-0.83,0.671-1.502,1.5-1.502h20.998
		c0.829,0,1.502,0.672,1.502,1.502C47.081,44.329,46.408,45,45.579,45z M45.582,38H24.579c-0.828,0-1.5-0.671-1.5-1.5
		s0.672-1.5,1.5-1.5h21.003c0.831,0,1.502,0.671,1.502,1.5S46.413,38,45.582,38z M45.582,31H24.579c-0.829,0-1.5-0.671-1.5-1.5
		c0-0.829,0.671-1.5,1.5-1.5h21.003c0.829,0,1.502,0.671,1.502,1.5C47.084,30.329,46.411,31,45.582,31z M46.504,24h-8.999
		c-0.83,0-1.501-0.671-1.501-1.501c0-0.828,0.671-1.499,1.501-1.499h8.999c0.83,0,1.501,0.671,1.501,1.499
		C48.005,23.329,47.334,24,46.504,24z M46.505,17h-9.001c-0.831,0-1.5-0.67-1.5-1.5c0-0.829,0.669-1.5,1.5-1.5h9.001
		c0.829,0,1.5,0.671,1.5,1.5C48.005,16.33,47.334,17,46.505,17z"/>
	<path opacity="0.15" d="M19.501,50c-1.654,0-3-1.346-3-3V10c0-1.654,1.346-3,3-3h32c1.654,0,3,1.346,3,3v37c0,1.654-1.346,3-3,3
		H19.501z M24.582,42c-0.275,0-0.5,0.226-0.5,0.502c0,0.274,0.224,0.498,0.5,0.498h20.998c0.276,0,0.502-0.224,0.502-0.498
		c0-0.276-0.226-0.502-0.502-0.502H24.582z M24.579,35c-0.276,0-0.5,0.225-0.5,0.5s0.224,0.5,0.5,0.5h21.003
		c0.276,0,0.502-0.225,0.502-0.5S45.858,35,45.582,35H24.579z M24.579,28c-0.276,0-0.5,0.224-0.5,0.5s0.224,0.5,0.5,0.5h21.003
		c0.276,0,0.502-0.224,0.502-0.5S45.858,28,45.582,28H24.579z M37.505,21c-0.276,0-0.501,0.224-0.501,0.499
		c0,0.276,0.225,0.501,0.501,0.501h8.999c0.276,0,0.501-0.225,0.501-0.501c0-0.275-0.225-0.499-0.501-0.499H37.505z M30.596,22v-8
		h-6.572v8H30.596z M37.504,14c-0.275,0-0.5,0.224-0.5,0.5s0.225,0.5,0.5,0.5h9.001c0.275,0,0.5-0.224,0.5-0.5s-0.225-0.5-0.5-0.5
		H37.504z"/>
	<path opacity="0.15" d="M51.501,8h-32c-1.1,0-2,0.9-2,2v37c0,1.1,0.9,2,2,2h32c1.1,0,2-0.9,2-2V10C53.501,8.9,52.601,8,51.501,8z
		 M23.024,13h8.572v10h-8.572V13z M45.579,44H24.582c-0.829,0-1.5-0.671-1.5-1.498c0-0.83,0.671-1.502,1.5-1.502h20.998
		c0.829,0,1.502,0.672,1.502,1.502C47.081,43.329,46.408,44,45.579,44z M45.582,37H24.579c-0.828,0-1.5-0.671-1.5-1.5
		s0.672-1.5,1.5-1.5h21.003c0.831,0,1.502,0.671,1.502,1.5S46.413,37,45.582,37z M45.582,30H24.579c-0.829,0-1.5-0.671-1.5-1.5
		c0-0.829,0.671-1.5,1.5-1.5h21.003c0.829,0,1.502,0.671,1.502,1.5C47.084,29.329,46.411,30,45.582,30z M46.504,23h-8.999
		c-0.83,0-1.501-0.671-1.501-1.501c0-0.828,0.671-1.499,1.501-1.499h8.999c0.83,0,1.501,0.671,1.501,1.499
		C48.005,22.329,47.334,23,46.504,23z M46.505,16h-9.001c-0.831,0-1.5-0.67-1.5-1.5c0-0.829,0.669-1.5,1.5-1.5h9.001
		c0.829,0,1.5,0.671,1.5,1.5C48.005,15.33,47.334,16,46.505,16z"/>
	<linearGradient id="SVGID_1_" gradientUnits="userSpaceOnUse" x1="35.501" y1="49" x2="35.501" y2="8.0005">
		<stop  offset="0" style="stop-color:#D0CBC5"/>
		<stop  offset="0.5031" style="stop-color:#FAFCEF"/>
		<stop  offset="0.9693" style="stop-color:#FFFFFF"/>
	</linearGradient>
	<path fill="url(#SVGID_1_)" d="M51.501,8h-32c-1.1,0-2,0.9-2,2v37c0,1.1,0.9,2,2,2h32c1.1,0,2-0.9,2-2V10
		C53.501,8.9,52.601,8,51.501,8z M23.024,13h8.572v10h-8.572V13z M45.579,44H24.582c-0.829,0-1.5-0.671-1.5-1.498
		c0-0.83,0.671-1.502,1.5-1.502h20.998c0.829,0,1.502,0.672,1.502,1.502C47.081,43.329,46.408,44,45.579,44z M45.582,37H24.579
		c-0.828,0-1.5-0.671-1.5-1.5s0.672-1.5,1.5-1.5h21.003c0.831,0,1.502,0.671,1.502,1.5S46.413,37,45.582,37z M45.582,30H24.579
		c-0.829,0-1.5-0.671-1.5-1.5c0-0.829,0.671-1.5,1.5-1.5h21.003c0.829,0,1.502,0.671,1.502,1.5C47.084,29.329,46.411,30,45.582,30z
		 M46.504,23h-8.999c-0.83,0-1.501-0.671-1.501-1.501c0-0.828,0.671-1.499,1.501-1.499h8.999c0.83,0,1.501,0.671,1.501,1.499
		C48.005,22.329,47.334,23,46.504,23z M46.505,16h-9.001c-0.831,0-1.5-0.67-1.5-1.5c0-0.829,0.669-1.5,1.5-1.5h9.001
		c0.829,0,1.5,0.671,1.5,1.5C48.005,15.33,47.334,16,46.505,16z"/>
	<path fill="#FFFFFF" d="M45.582,37H24.579c-0.652,0-1.202-0.418-1.408-1c-0.056,0.157-0.092,0.323-0.092,0.5
		c0,0.829,0.672,1.5,1.5,1.5h21.003c0.831,0,1.502-0.671,1.502-1.5c0-0.177-0.036-0.343-0.092-0.5
		C46.786,36.582,46.236,37,45.582,37z M46.505,16h-9.001c-0.654,0-1.203-0.418-1.408-1c-0.056,0.157-0.092,0.324-0.092,0.5
		c0,0.83,0.669,1.5,1.5,1.5h9.001c0.829,0,1.5-0.67,1.5-1.5c0-0.176-0.036-0.343-0.092-0.5C47.707,15.582,47.158,16,46.505,16z
		 M46.504,23h-8.999c-0.653,0-1.203-0.418-1.409-1c-0.056,0.157-0.092,0.323-0.092,0.5c0,0.83,0.671,1.501,1.501,1.501h8.999
		c0.83,0,1.501-0.671,1.501-1.501c0-0.176-0.036-0.343-0.092-0.5C47.707,22.582,47.157,23,46.504,23z M45.582,30H24.579
		c-0.652,0-1.202-0.418-1.408-1c-0.056,0.157-0.092,0.324-0.092,0.5c0,0.829,0.671,1.5,1.5,1.5h21.003
		c0.829,0,1.502-0.671,1.502-1.5c0-0.176-0.036-0.343-0.092-0.5C46.785,29.582,46.234,30,45.582,30z M51.501,8h-32c-1.1,0-2,0.9-2,2
		v1c0-1.1,0.9-2,2-2h32c1.1,0,2,0.9,2,2v-1C53.501,8.9,52.601,8,51.501,8z M31.596,23h-8.572v1h8.572V23z M45.579,44H24.582
		c-0.652,0-1.201-0.418-1.408-0.999c-0.056,0.157-0.092,0.324-0.092,0.501c0,0.827,0.671,1.498,1.5,1.498h20.998
		c0.829,0,1.502-0.671,1.502-1.498c0-0.177-0.036-0.344-0.092-0.501C46.782,43.582,46.231,44,45.579,44z"/>
</g>
<g id="DO_NOT_EDIT_-_FOCAL_ZONE_GUIDES">
</g>
</svg>
