<?xml version="1.0" encoding="utf-8"?>
<!-- Generator: Adobe Illustrator 15.0.0, SVG Export Plug-In . SVG Version: 6.00 Build 0)  -->
<!DOCTYPE svg PUBLIC "-//W3C//DTD SVG 1.1//EN" "http://www.w3.org/Graphics/SVG/1.1/DTD/svg11.dtd">
<svg version="1.1" xmlns="http://www.w3.org/2000/svg" xmlns:xlink="http://www.w3.org/1999/xlink" x="0px" y="0px" width="67px"
	 height="57px" viewBox="0 0 67 57" enable-background="new 0 0 67 57" xml:space="preserve">
<g id="DO_NOT_EDIT_-_BOUNDING_BOX">
	<rect id="BOUNDING_BOX" fill="none" width="67" height="57"/>
</g>
<g id="PLACE_YOUR_GRAPHIC_HERE">
	<path opacity="0.3" d="M27.218,39.658h-8.423c-0.917,0-1.658-0.74-1.658-1.657c0-0.916,0.741-1.658,1.658-1.658h7.021
		c0.333-1.252,1.471-2.182,2.833-2.182c0.027,0,0.059,0.007,0.084,0.002h0l7.375,0.003l0.377-1.14h-17.69
		c-0.917,0-1.658-0.741-1.658-1.658c0-0.915,0.741-1.657,1.658-1.657h18.786l0.826-2.501c0.051-0.152,0.118-0.296,0.201-0.428
		c0.072-0.137,0.157-0.264,0.249-0.386H18.795c-0.917,0-1.658-0.742-1.658-1.658c0-0.917,0.741-1.658,1.658-1.658h23.529
		c0.915,0,1.658,0.742,1.658,1.658c0,0.56-0.299,1.028-0.727,1.325c0.317,0.313,0.566,0.699,0.719,1.139l2.303,6.964l2.519-0.001
		V8.158c0-0.912-0.744-1.658-1.657-1.658H13.981c-0.912,0-1.658,0.747-1.658,1.658v39.791c0,0.911,0.746,1.657,1.658,1.657h17.012
		l1.947-5.874L27.218,39.658z M18.795,16.448h23.529c0.915,0,1.658,0.742,1.658,1.658c0,0.917-0.743,1.658-1.658,1.658H18.795
		c-0.917,0-1.658-0.741-1.658-1.658C17.137,17.189,17.878,16.448,18.795,16.448z M54.677,37.087c0-0.505-0.41-0.91-0.923-0.924
		h-0.009c-0.004,0-0.007-0.002-0.011-0.002c-0.005,0-0.009,0.002-0.013,0.002l-8.889,0.003l-2.75-8.313
		c-0.126-0.366-0.469-0.636-0.883-0.636c-0.408,0-0.748,0.262-0.878,0.621h-0.016l-2.753,8.328l-8.821-0.003l-0.003,0.013
		c-0.029,0-0.053-0.015-0.081-0.015c-0.521,0-0.941,0.413-0.941,0.926c0,0.369,0.223,0.682,0.541,0.831l-0.006,0.015l7.062,5.027
		l-2.721,8.208c-0.063,0.127-0.107,0.259-0.107,0.41c0,0.509,0.421,0.922,0.942,0.922c0.204,0,0.384-0.077,0.538-0.188l0.008,0.005
		l7.226-5.155l7.098,5.067c0.011,0.006,0.021,0.009,0.027,0.017l0.064,0.043h0.004c0.162,0.124,0.353,0.212,0.575,0.212
		c0.521,0,0.942-0.413,0.942-0.922c0-0.081-0.025-0.153-0.045-0.23l0.007-0.004l-0.023-0.061c-0.009-0.029-0.012-0.062-0.028-0.092
		l-2.727-8.231l7.185-5.116l-0.002-0.013C54.51,37.662,54.677,37.4,54.677,37.087z"/>
	<rect x="16.381" y="16.446" fill="none" width="30" height="30"/>
	<path opacity="0.15" d="M33.89,43.047l-1.947,5.874c-0.136,0.409-0.518,0.686-0.949,0.686H13.981c-1.466,0-2.658-1.192-2.658-2.657
		V7.158c0-1.466,1.192-2.658,2.658-2.658h33.157c1.465,0,2.657,1.192,2.657,2.658v26.007c0,0.544-0.434,0.985-0.974,1
		c0,0,4.893-0.004,4.912-0.004c0.041,0,0.083,0.003,0.124,0.008c1.042,0.082,1.818,0.904,1.818,1.918
		c0,0.563-0.249,1.082-0.688,1.45c-0.042,0.044-0.089,0.085-0.14,0.121l-6.583,4.688c0,0,2.527,7.632,2.538,7.672
		c0.008,0.028,0.021,0.084,0.021,0.084c0.033,0.122,0.075,0.277,0.075,0.476c0,1.06-0.871,1.922-1.942,1.922
		c-0.396,0-0.771-0.123-1.114-0.367c-0.007-0.004-0.113-0.073-0.138-0.091l-6.517-4.652l-6.645,4.741
		c-0.047,0.033-0.096,0.062-0.146,0.086c-0.306,0.186-0.642,0.283-0.98,0.283c-1.071,0-1.942-0.862-1.942-1.922
		c0-0.266,0.058-0.522,0.178-0.784l2.469-7.447 M18.795,36.343c-0.363,0-0.658,0.295-0.658,0.658c0,0.362,0.295,0.657,0.658,0.657
		h8.423c0.202,0,0.4,0.062,0.566,0.176c0,0-0.158-0.113-0.175-0.128c-0.562-0.352-0.902-0.952-0.902-1.619
		c0-0.127,0.012-0.251,0.036-0.371c-0.151,0.375-0.516,0.627-0.928,0.627H18.795z M18.795,29.711c-0.363,0-0.658,0.295-0.658,0.657
		c0,0.363,0.295,0.658,0.658,0.658h17.69c0.321,0,0.622,0.154,0.811,0.414c0.184,0.255,0.237,0.58,0.146,0.88
		c0,0,1.933-5.843,1.941-5.866c-0.01,0.025-0.019,0.048-0.027,0.072l-0.825,2.498c-0.135,0.41-0.518,0.687-0.949,0.687H18.795z
		 M18.795,23.08c-0.363,0-0.658,0.295-0.658,0.658s0.295,0.658,0.658,0.658h20.063c0.379,0,0.726,0.214,0.895,0.553
		c0.159,0.318,0.137,0.694-0.055,0.99c0.361-0.447,0.91-0.722,1.503-0.722c0.502,0,0.972,0.196,1.322,0.526
		c-0.19-0.206-0.287-0.484-0.263-0.765c0.025-0.296,0.181-0.566,0.425-0.736c0.111-0.077,0.298-0.245,0.298-0.504
		c0-0.363-0.295-0.658-0.658-0.658H18.795z M18.795,16.448c-0.363,0-0.658,0.295-0.658,0.658s0.295,0.658,0.658,0.658h23.529
		c0.363,0,0.658-0.295,0.658-0.658s-0.295-0.658-0.658-0.658H18.795z"/>
	<path opacity="0.15" d="M27.218,38.658h-8.423c-0.917,0-1.658-0.74-1.658-1.657c0-0.916,0.741-1.658,1.658-1.658h7.021
		c0.333-1.252,1.471-2.182,2.833-2.182c0.027,0,0.059,0.007,0.084,0.002h0l7.375,0.003l0.377-1.14h-17.69
		c-0.917,0-1.658-0.741-1.658-1.658c0-0.915,0.741-1.657,1.658-1.657h18.786l0.826-2.501c0.051-0.152,0.118-0.296,0.201-0.428
		c0.072-0.137,0.157-0.264,0.249-0.386H18.795c-0.917,0-1.658-0.742-1.658-1.658c0-0.917,0.741-1.658,1.658-1.658h23.529
		c0.915,0,1.658,0.742,1.658,1.658c0,0.56-0.299,1.028-0.727,1.325c0.317,0.313,0.566,0.699,0.719,1.139l2.303,6.964l2.519-0.001
		V7.158c0-0.912-0.744-1.658-1.657-1.658H13.981c-0.912,0-1.658,0.747-1.658,1.658v39.791c0,0.911,0.746,1.657,1.658,1.657h17.012
		l1.947-5.874L27.218,38.658z M18.795,15.448h23.529c0.915,0,1.658,0.742,1.658,1.658c0,0.917-0.743,1.658-1.658,1.658H18.795
		c-0.917,0-1.658-0.741-1.658-1.658C17.137,16.189,17.878,15.448,18.795,15.448z M54.677,36.087c0-0.505-0.41-0.91-0.923-0.924
		h-0.009c-0.004,0-0.007-0.002-0.011-0.002c-0.005,0-0.009,0.002-0.013,0.002l-8.889,0.003l-2.75-8.313
		c-0.126-0.366-0.469-0.636-0.883-0.636c-0.408,0-0.748,0.262-0.878,0.621h-0.016l-2.753,8.328l-8.821-0.003l-0.003,0.013
		c-0.029,0-0.053-0.015-0.081-0.015c-0.521,0-0.941,0.413-0.941,0.926c0,0.369,0.223,0.682,0.541,0.831l-0.006,0.015l7.062,5.027
		l-2.721,8.208c-0.063,0.127-0.107,0.259-0.107,0.41c0,0.509,0.421,0.922,0.942,0.922c0.204,0,0.384-0.077,0.538-0.188l0.008,0.005
		l7.226-5.155l7.098,5.067c0.011,0.006,0.021,0.009,0.027,0.017l0.064,0.043h0.004c0.162,0.124,0.353,0.212,0.575,0.212
		c0.521,0,0.942-0.413,0.942-0.922c0-0.081-0.025-0.153-0.045-0.23l0.007-0.004l-0.023-0.061c-0.009-0.029-0.012-0.062-0.028-0.092
		l-2.727-8.231l7.185-5.116l-0.002-0.013C54.51,36.662,54.677,36.4,54.677,36.087z"/>
	<linearGradient id="SVGID_1_" gradientUnits="userSpaceOnUse" x1="33.5005" y1="51.5" x2="33.5005" y2="5.5005">
		<stop  offset="0" style="stop-color:#D0CBC5"/>
		<stop  offset="0.5031" style="stop-color:#FAFCEF"/>
		<stop  offset="0.9693" style="stop-color:#FFFFFF"/>
	</linearGradient>
	<path fill="url(#SVGID_1_)" d="M27.218,38.658h-8.423c-0.917,0-1.658-0.74-1.658-1.657c0-0.916,0.741-1.658,1.658-1.658h7.021
		c0.333-1.252,1.471-2.182,2.833-2.182c0.027,0,0.059,0.007,0.084,0.002h0l7.375,0.003l0.377-1.14h-17.69
		c-0.917,0-1.658-0.741-1.658-1.658c0-0.915,0.741-1.657,1.658-1.657h18.786l0.826-2.501c0.051-0.152,0.118-0.296,0.201-0.428
		c0.072-0.137,0.157-0.264,0.249-0.386H18.795c-0.917,0-1.658-0.742-1.658-1.658c0-0.917,0.741-1.658,1.658-1.658h23.529
		c0.915,0,1.658,0.742,1.658,1.658c0,0.56-0.299,1.028-0.727,1.325c0.317,0.313,0.566,0.699,0.719,1.139l2.303,6.964l2.519-0.001
		V7.158c0-0.912-0.744-1.658-1.657-1.658H13.981c-0.912,0-1.658,0.747-1.658,1.658v39.791c0,0.911,0.746,1.657,1.658,1.657h17.012
		l1.947-5.874L27.218,38.658z M18.795,15.448h23.529c0.915,0,1.658,0.742,1.658,1.658c0,0.917-0.743,1.658-1.658,1.658H18.795
		c-0.917,0-1.658-0.741-1.658-1.658C17.137,16.189,17.878,15.448,18.795,15.448z M54.677,36.087c0-0.505-0.41-0.91-0.923-0.924
		h-0.009c-0.004,0-0.007-0.002-0.011-0.002c-0.005,0-0.009,0.002-0.013,0.002l-8.889,0.003l-2.75-8.313
		c-0.126-0.366-0.469-0.636-0.883-0.636c-0.408,0-0.748,0.262-0.878,0.621h-0.016l-2.753,8.328l-8.821-0.003l-0.003,0.013
		c-0.029,0-0.053-0.015-0.081-0.015c-0.521,0-0.941,0.413-0.941,0.926c0,0.369,0.223,0.682,0.541,0.831l-0.006,0.015l7.062,5.027
		l-2.721,8.208c-0.063,0.127-0.107,0.259-0.107,0.41c0,0.509,0.421,0.922,0.942,0.922c0.204,0,0.384-0.077,0.538-0.188l0.008,0.005
		l7.226-5.155l7.098,5.067c0.011,0.006,0.021,0.009,0.027,0.017l0.064,0.043h0.004c0.162,0.124,0.353,0.212,0.575,0.212
		c0.521,0,0.942-0.413,0.942-0.922c0-0.081-0.025-0.153-0.045-0.23l0.007-0.004l-0.023-0.061c-0.009-0.029-0.012-0.062-0.028-0.092
		l-2.727-8.231l7.185-5.116l-0.002-0.013C54.51,36.662,54.677,36.4,54.677,36.087z"/>
	<path fill="#FFFFFF" d="M43.894,24.225c0.053,0.163,0.089,0.333,0.089,0.513c0,0.333-0.114,0.627-0.29,0.878
		c-0.125-0.202-0.27-0.389-0.437-0.553C43.551,24.858,43.776,24.567,43.894,24.225z M42.083,26.853
		c-0.126-0.366-0.469-0.636-0.883-0.636c-0.408,0-0.748,0.262-0.878,0.621h-0.016l-2.753,8.328l-8.821-0.003l-0.003,0.013
		c-0.029,0-0.053-0.015-0.081-0.015c-0.521,0-0.941,0.413-0.941,0.926c0,0.19,0.061,0.364,0.162,0.511
		c0.167-0.257,0.446-0.437,0.779-0.437c0.028,0,0.052,0.015,0.081,0.015l0.003-0.013l8.821,0.003l2.753-8.328h0.016
		c0.13-0.359,0.47-0.621,0.878-0.621c0.414,0,0.757,0.27,0.883,0.636l2.75,8.313l8.889-0.003c0.004,0,0.008-0.002,0.013-0.002
		c0.004,0,0.007,0.002,0.011,0.002h0.009c0.321,0.009,0.588,0.181,0.754,0.425c0.103-0.143,0.169-0.311,0.169-0.501
		c0-0.505-0.41-0.91-0.923-0.924h-0.009c-0.004,0-0.007-0.002-0.011-0.002c-0.005,0-0.009,0.002-0.013,0.002l-8.889,0.003
		L42.083,26.853z M18.795,19.764h23.529c0.915,0,1.658-0.741,1.658-1.658c0-0.175-0.035-0.341-0.085-0.5
		c-0.214,0.67-0.833,1.158-1.573,1.158H18.795c-0.741,0-1.36-0.488-1.573-1.158c-0.05,0.159-0.085,0.325-0.085,0.5
		C17.137,19.022,17.878,19.764,18.795,19.764z M35.035,42.77l-2.452,7.398c-0.063,0.127-0.107,0.259-0.107,0.41
		c0,0.174,0.063,0.328,0.148,0.467l2.68-8.085L35.035,42.77z M18.795,33.026h17.359l0.331-1h-17.69c-0.741,0-1.36-0.487-1.573-1.158
		c-0.05,0.159-0.085,0.325-0.085,0.5C17.137,32.285,17.878,33.026,18.795,33.026z M49.862,50.344l-0.023-0.061
		c-0.009-0.029-0.012-0.062-0.028-0.092l-2.459-7.422l-0.268,0.19l2.675,8.075c0.082-0.137,0.142-0.287,0.142-0.457
		c0-0.081-0.025-0.153-0.045-0.23L49.862,50.344z M13.981,6.5h33.157c0.913,0,1.657,0.747,1.657,1.658v-1
		c0-0.912-0.744-1.658-1.657-1.658H13.981c-0.912,0-1.658,0.747-1.658,1.658v1C12.323,7.247,13.069,6.5,13.981,6.5z M18.795,26.396
		h19.551l0.062-0.186c0.051-0.152,0.118-0.296,0.201-0.428c0.072-0.137,0.157-0.264,0.249-0.386H18.795
		c-0.741,0-1.36-0.488-1.573-1.158c-0.05,0.159-0.085,0.325-0.085,0.5C17.137,25.654,17.878,26.396,18.795,26.396z M18.795,39.658
		h8.423l5.455,3.883l0.268-0.809l-5.723-4.074h-8.423c-0.741,0-1.36-0.487-1.573-1.157c-0.05,0.159-0.085,0.324-0.085,0.5
		C17.137,38.918,17.878,39.658,18.795,39.658z"/>
</g>
<g id="DO_NOT_EDIT_-_FOCAL_ZONE_GUIDES">
</g>
</svg>
