<?xml version="1.0" encoding="utf-8"?>
<!-- Generator: Adobe Illustrator 14.0.0, SVG Export Plug-In  -->
<!DOCTYPE svg PUBLIC "-//W3C//DTD SVG 1.1//EN" "http://www.w3.org/Graphics/SVG/1.1/DTD/svg11.dtd" [
	<!ENTITY ns_flows "http://ns.adobe.com/Flows/1.0/">
]>
<svg version="1.1"
	 xmlns="http://www.w3.org/2000/svg" xmlns:xlink="http://www.w3.org/1999/xlink" xmlns:a="http://ns.adobe.com/AdobeSVGViewerExtensions/3.0/"
	 x="0px" y="0px" width="67px" height="57px" viewBox="0 0 67 57" enable-background="new 0 0 67 57" xml:space="preserve">
<defs>
</defs>
<rect fill="none" width="67" height="57"/>
<path opacity="0.15" d="M33.633,48.233c-2.946,0-5.343-2.397-5.343-5.343s2.396-5.34,5.343-5.34c2.945,0,5.341,2.395,5.341,5.34
	S36.578,48.233,33.633,48.233L33.633,48.233z M42.582,38.455c-0.873,0-1.671-0.412-2.203-1.133c-1.807-1.902-4.25-2.951-6.886-2.957
	c-2.528,0.006-4.924,1.01-6.745,2.828c-0.497,0.613-1.268,0.978-2.076,0.978c-1.526,0-2.769-1.241-2.769-2.769
	c0-1.06,0.604-1.748,0.724-1.875c2.88-3.006,6.738-4.66,10.868-4.66c4.204,0,8.111,1.707,11.003,4.807
	c0.354,0.449,0.852,1.209,0.852,2.018C45.35,37.215,44.108,38.455,42.582,38.455L42.582,38.455z M48.671,31.951
	c-1.015,0-1.672-0.484-1.907-0.693c-3.57-3.734-8.261-5.764-13.27-5.775c-4.941,0.012-9.584,1.988-13.068,5.569
	c-0.461,0.545-1.233,0.899-2.021,0.899c-1.525,0-2.766-1.242-2.766-2.77c0-1.154,0.691-1.864,0.936-2.078
	c4.495-4.59,10.503-7.117,16.922-7.117c6.298,0,12.242,2.473,16.746,6.967c0.35,0.272,1.193,0.984,1.193,2.229
	C51.436,30.709,50.195,31.951,48.671,31.951L48.671,31.951z M54.732,25.439c-0.772,0-1.408-0.357-1.646-0.512
	c-0.063-0.041-0.122-0.09-0.175-0.144c-5.198-5.356-12.096-8.313-19.419-8.327c-7.252,0.014-14.065,2.893-19.187,8.104
	c-0.319,0.371-1.034,0.878-2.039,0.878c-1.526,0-2.768-1.242-2.768-2.771c0-0.779,0.331-1.509,0.931-2.053
	c6.108-6.215,14.314-9.658,23.064-9.658c8.625,0,16.733,3.359,22.871,9.465c0.165,0.047,0.317,0.136,0.44,0.26
	c0.15,0.152,0.247,0.348,0.278,0.558c0.272,0.441,0.415,0.929,0.415,1.429C57.5,24.197,56.259,25.439,54.732,25.439L54.732,25.439z"
	/>
<path opacity="0.3" d="M33.633,39.594c-2.396,0-4.343,1.946-4.343,4.34c0,2.396,1.947,4.344,4.343,4.344
	c2.393,0,4.341-1.948,4.341-4.344C37.974,41.54,36.025,39.594,33.633,39.594z M33.495,30.91c-3.854,0-7.454,1.543-10.143,4.349
	c-0.046,0.048-0.449,0.497-0.449,1.188c0,0.974,0.794,1.769,1.769,1.769c0.529,0,1.028-0.252,1.327-0.643
	c2.016-2.035,4.677-3.158,7.496-3.164c2.937,0.006,5.672,1.203,7.656,3.319c0.343,0.491,0.865,0.771,1.431,0.771
	c0.976,0,1.768-0.789,1.768-1.764c0-0.523-0.418-1.123-0.583-1.336C41.068,32.506,37.42,30.91,33.495,30.91z M49.58,28.75
	c-4.32-4.334-10.031-6.721-16.084-6.721c-6.163,0-11.945,2.448-16.238,6.849c-0.063,0.052-0.619,0.53-0.619,1.347
	c0,0.977,0.792,1.771,1.766,1.771c0.508,0,0.992-0.229,1.305-0.597c3.672-3.773,8.57-5.861,13.787-5.872
	c5.285,0.011,10.223,2.144,13.93,6.026c0.051,0.045,0.5,0.442,1.245,0.442c0.972,0,1.765-0.794,1.765-1.771
	C50.436,29.417,49.845,28.953,49.58,28.75z M56.094,22.608l0.002-0.18h-0.177c-0.013-0.013-0.024-0.022-0.035-0.03
	C49.911,16.34,41.96,13,33.495,13c-8.481,0-16.441,3.348-22.393,9.398c-0.388,0.352-0.603,0.816-0.603,1.313
	c0,0.978,0.792,1.771,1.768,1.771c0.841,0,1.293-0.537,1.304-0.557c5.314-5.421,12.39-8.411,19.924-8.426
	c7.6,0.015,14.721,3.053,20.135,8.63c0.053,0.035,0.537,0.353,1.103,0.353c0.976,0,1.768-0.794,1.768-1.771
	C56.5,23.324,56.358,22.942,56.094,22.608z"/>
<linearGradient id="SVGID_1_" gradientUnits="userSpaceOnUse" x1="33.5005" y1="47.2334" x2="33.5005" y2="11.9575">
	<stop  offset="0" style="stop-color:#D0CBC5"/>
	<stop  offset="0.5031" style="stop-color:#FAFCEF"/>
	<stop  offset="0.9693" style="stop-color:#FFFFFF"/>
</linearGradient>
<path fill="url(#SVGID_1_)" d="M33.633,38.551c-2.396,0-4.343,1.945-4.343,4.34s1.947,4.343,4.343,4.343
	c2.393,0,4.341-1.948,4.341-4.343S36.025,38.551,33.633,38.551z M33.495,29.867c-3.854,0-7.454,1.542-10.143,4.348
	c-0.046,0.049-0.449,0.498-0.449,1.188c0,0.975,0.794,1.769,1.769,1.769c0.529,0,1.028-0.251,1.327-0.642
	c2.016-2.035,4.677-3.158,7.496-3.164c2.937,0.006,5.672,1.203,7.656,3.318c0.343,0.492,0.865,0.771,1.431,0.771
	c0.976,0,1.768-0.79,1.768-1.764c0-0.523-0.418-1.123-0.583-1.336C41.068,31.463,37.42,29.867,33.495,29.867z M49.58,27.706
	c-4.32-4.334-10.031-6.72-16.084-6.72c-6.163,0-11.945,2.447-16.238,6.848c-0.063,0.052-0.619,0.53-0.619,1.348
	c0,0.976,0.792,1.77,1.766,1.77c0.508,0,0.992-0.229,1.305-0.597c3.672-3.773,8.57-5.86,13.787-5.872
	c5.285,0.012,10.223,2.144,13.93,6.027c0.051,0.045,0.5,0.441,1.245,0.441c0.972,0,1.765-0.794,1.765-1.77
	C50.436,28.373,49.845,27.909,49.58,27.706z M56.094,21.564l0.002-0.18h-0.177c-0.013-0.013-0.024-0.021-0.035-0.029
	c-5.973-6.059-13.924-9.398-22.389-9.398c-8.481,0-16.441,3.347-22.393,9.398c-0.388,0.352-0.603,0.816-0.603,1.313
	c0,0.979,0.792,1.771,1.768,1.771c0.841,0,1.293-0.537,1.304-0.557c5.314-5.421,12.39-8.411,19.924-8.426
	c7.6,0.015,14.721,3.053,20.135,8.631c0.053,0.034,0.537,0.352,1.103,0.352c0.976,0,1.768-0.793,1.768-1.771
	C56.5,22.281,56.358,21.898,56.094,21.564z"/>
<path fill="#FFFFFF" d="M33.633,38.551c-2.396,0-4.343,1.945-4.343,4.34c0,0.179,0.032,0.349,0.053,0.521
	c0.261-2.146,2.073-3.818,4.29-3.818c2.214,0,4.027,1.673,4.288,3.818c0.021-0.173,0.053-0.343,0.053-0.521
	C37.974,40.496,36.025,38.551,33.633,38.551z M33.495,29.867c-3.854,0-7.454,1.542-10.143,4.348
	c-0.046,0.049-0.449,0.498-0.449,1.188c0,0.182,0.035,0.353,0.086,0.518c0.121-0.383,0.331-0.627,0.363-0.661
	c2.688-2.806,6.289-4.349,10.143-4.349c3.925,0,7.573,1.596,10.271,4.488c0.115,0.148,0.349,0.489,0.481,0.857
	c0.062-0.178,0.102-0.366,0.102-0.564c0-0.523-0.418-1.123-0.583-1.336C41.068,31.463,37.42,29.867,33.495,29.867z M56.094,21.564
	l0.002-0.18h-0.177c-0.013-0.013-0.024-0.021-0.035-0.029c-5.973-6.059-13.924-9.398-22.389-9.398
	c-8.481,0-16.441,3.347-22.393,9.398c-0.388,0.352-0.603,0.816-0.603,1.313c0,0.187,0.036,0.361,0.09,0.53
	c0.095-0.298,0.264-0.573,0.513-0.8C17.054,16.348,25.014,13,33.495,13c8.465,0,16.416,3.34,22.389,9.398
	c0.011,0.008,0.022,0.018,0.035,0.03h0.177l-0.002,0.18c0.147,0.187,0.246,0.389,0.314,0.598c0.055-0.171,0.092-0.349,0.092-0.538
	C56.5,22.281,56.358,21.898,56.094,21.564z M49.58,27.706c-4.32-4.334-10.031-6.72-16.084-6.72c-6.163,0-11.945,2.447-16.238,6.848
	c-0.063,0.052-0.619,0.53-0.619,1.348c0,0.18,0.035,0.35,0.085,0.514c0.157-0.492,0.486-0.778,0.534-0.817
	c4.293-4.4,10.075-6.849,16.238-6.849c6.053,0,11.764,2.387,16.084,6.721c0.202,0.154,0.591,0.467,0.765,0.964
	c0.054-0.169,0.091-0.346,0.091-0.532C50.436,28.373,49.845,27.909,49.58,27.706z"/>
</svg>
