<?xml version="1.0" encoding="utf-8"?>
<!-- Generator: Adobe Illustrator 15.0.0, SVG Export Plug-In . SVG Version: 6.00 Build 0)  -->
<!DOCTYPE svg PUBLIC "-//W3C//DTD SVG 1.1//EN" "http://www.w3.org/Graphics/SVG/1.1/DTD/svg11.dtd">
<svg version="1.1" id="Ebene_1" xmlns="http://www.w3.org/2000/svg" xmlns:xlink="http://www.w3.org/1999/xlink" x="0px" y="0px"
	 width="67px" height="57px" viewBox="0 0 67 57" enable-background="new 0 0 67 57" xml:space="preserve">
<path opacity="0.3" d="M23.352,35.215c-0.046,0.049-0.449,0.498-0.449,1.188c0,0.843,0.593,1.547,1.382,1.725l7.083-7.082
	C28.331,31.506,25.538,32.934,23.352,35.215z M36.644,25.769l2.934-2.933c-1.96-0.548-3.997-0.85-6.081-0.85
	c-6.163,0-11.945,2.447-16.238,6.848c-0.063,0.052-0.619,0.529-0.619,1.348c0,0.978,0.792,1.771,1.766,1.771
	c0.508,0,0.992-0.229,1.305-0.598c3.672-3.772,8.57-5.859,13.787-5.873C34.564,25.485,35.611,25.597,36.644,25.769z M43.914,18.499
	l2.68-2.679c-4.06-1.87-8.502-2.862-13.099-2.862c-8.481,0-16.441,3.347-22.393,9.398c-0.388,0.352-0.603,0.816-0.603,1.313
	c0,0.979,0.792,1.771,1.768,1.771c0.841,0,1.293-0.537,1.304-0.557c5.314-5.421,12.39-8.411,19.924-8.426
	C37.123,16.463,40.639,17.167,43.914,18.499z M35.611,31.043l-3.417,3.417c0.429-0.055,0.862-0.092,1.3-0.093
	c2.937,0.006,5.672,1.201,7.655,3.316c0.344,0.492,0.865,0.771,1.432,0.771c0.977,0,1.768-0.79,1.768-1.764
	c0-0.523-0.418-1.123-0.582-1.336C41.562,32.992,38.718,31.512,35.611,31.043z M56.094,22.564l0.002-0.18h-0.177
	c-0.013-0.013-0.024-0.021-0.035-0.029c-1.97-1.998-4.158-3.694-6.506-5.078l-2.585,2.584c2.48,1.359,4.782,3.108,6.837,5.226
	c0.054,0.034,0.537,0.352,1.103,0.352c0.978,0,1.77-0.793,1.77-1.771C56.5,23.281,56.357,22.898,56.094,22.564z M49.58,28.706
	c-2.023-2.03-4.361-3.614-6.887-4.744l-2.691,2.69c2.766,1.006,5.302,2.633,7.426,4.857c0.051,0.045,0.5,0.441,1.244,0.441
	c0.973,0,1.766-0.795,1.766-1.77C50.436,29.373,49.846,28.909,49.58,28.706z M33.633,39.551c-2.396,0-4.343,1.945-4.343,4.34
	c0,2.396,1.947,4.344,4.343,4.344c2.393,0,4.342-1.947,4.342-4.344C37.975,41.496,36.025,39.551,33.633,39.551z"/>
<rect fill="none" width="67" height="57"/>
<path opacity="0.15" d="M33.633,48.234c-2.946,0-5.343-2.397-5.343-5.344c0-2.944,2.397-5.34,5.343-5.34
	c2.945,0,5.342,2.396,5.342,5.34C38.975,45.837,36.578,48.234,33.633,48.234z M42.582,38.455c-0.873,0-1.672-0.412-2.204-1.134
	c-1.806-1.9-4.248-2.949-6.885-2.954c-0.351,0.001-0.724,0.027-1.172,0.085c-0.042,0.005-0.085,0.008-0.127,0.008
	c-0.377,0-0.728-0.214-0.897-0.56c-0.188-0.384-0.111-0.845,0.191-1.147l3.417-3.417c0.188-0.189,0.443-0.293,0.707-0.293
	c0.05,0,0.1,0.004,0.149,0.011c3.37,0.509,6.392,2.106,8.738,4.619c0.355,0.455,0.851,1.217,0.851,2.019
	C45.35,37.215,44.108,38.455,42.582,38.455z M24.285,38.127c-0.073,0-0.146-0.008-0.22-0.024c-1.253-0.282-2.163-1.418-2.163-2.7
	c0-1.053,0.6-1.744,0.721-1.872c2.327-2.429,5.297-3.974,8.594-4.474c0.05-0.008,0.101-0.012,0.15-0.012
	c0.373,0,0.72,0.209,0.892,0.549c0.195,0.386,0.12,0.853-0.186,1.158l-7.083,7.082C24.803,38.023,24.547,38.127,24.285,38.127z
	 M18.405,31.953c-1.525,0-2.766-1.243-2.766-2.771c0-0.931,0.474-1.675,0.935-2.078c4.494-4.59,10.502-7.118,16.922-7.118
	c2.108,0,4.244,0.298,6.351,0.887c0.342,0.096,0.607,0.366,0.698,0.709c0.09,0.344-0.01,0.709-0.261,0.96l-2.934,2.933
	c-0.189,0.189-0.444,0.293-0.707,0.293c-0.055,0-0.109-0.004-0.165-0.014c-1.085-0.181-2.062-0.271-2.984-0.272
	c-4.941,0.013-9.584,1.991-13.068,5.57C19.968,31.598,19.195,31.953,18.405,31.953z M48.672,31.951c-1.043,0-1.723-0.53-1.906-0.692
	c-2.047-2.139-4.417-3.689-7.105-4.667c-0.321-0.117-0.561-0.39-0.635-0.724c-0.073-0.333,0.028-0.682,0.27-0.923l2.691-2.69
	c0.191-0.192,0.447-0.293,0.707-0.293c0.138,0,0.277,0.028,0.408,0.087c2.677,1.197,5.078,2.847,7.14,4.904
	c0.351,0.271,1.193,0.981,1.196,2.227C51.438,30.709,50.197,31.951,48.672,31.951z M54.732,25.439c-0.735,0-1.342-0.318-1.638-0.507
	c-0.064-0.042-0.129-0.093-0.183-0.149c-1.964-2.024-4.185-3.722-6.6-5.045c-0.276-0.151-0.465-0.424-0.51-0.735
	c-0.044-0.312,0.061-0.626,0.283-0.849l2.585-2.584c0.192-0.193,0.448-0.293,0.707-0.293c0.175,0,0.35,0.045,0.508,0.139
	c2.357,1.39,4.535,3.073,6.479,5.005c0.166,0.046,0.319,0.135,0.442,0.26c0.151,0.152,0.248,0.349,0.278,0.559
	c0.271,0.44,0.414,0.926,0.417,1.424C57.502,24.196,56.26,25.439,54.732,25.439z M12.267,25.439c-1.526,0-2.768-1.243-2.768-2.771
	c0-0.78,0.331-1.509,0.931-2.054c6.11-6.213,14.316-9.657,23.065-9.657c4.714,0,9.262,0.994,13.517,2.954
	c0.298,0.137,0.509,0.41,0.566,0.732c0.058,0.322-0.046,0.652-0.277,0.883l-2.68,2.679c-0.191,0.191-0.447,0.293-0.707,0.293
	c-0.127,0-0.255-0.024-0.377-0.074c-3.195-1.299-6.574-1.962-10.044-1.969c-7.252,0.015-14.066,2.892-19.186,8.104
	C13.987,24.933,13.275,25.439,12.267,25.439z"/>
<path opacity="0.15" d="M23.352,34.215c-0.046,0.049-0.449,0.498-0.449,1.188c0,0.843,0.593,1.547,1.382,1.725l7.083-7.082
	C28.331,30.506,25.538,31.934,23.352,34.215z M36.644,24.769l2.934-2.933c-1.96-0.548-3.997-0.85-6.081-0.85
	c-6.163,0-11.945,2.447-16.238,6.848c-0.063,0.052-0.619,0.53-0.619,1.348c0,0.978,0.792,1.771,1.766,1.771
	c0.508,0,0.992-0.229,1.305-0.598c3.672-3.772,8.57-5.859,13.787-5.873C34.564,24.485,35.611,24.597,36.644,24.769z M43.914,17.499
	l2.68-2.679c-4.06-1.87-8.502-2.862-13.099-2.862c-8.481,0-16.441,3.347-22.393,9.398c-0.388,0.352-0.603,0.816-0.603,1.313
	c0,0.979,0.792,1.771,1.768,1.771c0.841,0,1.293-0.537,1.304-0.557c5.314-5.421,12.39-8.411,19.924-8.426
	C37.123,15.463,40.639,16.167,43.914,17.499z M35.611,30.043l-3.417,3.417c0.429-0.055,0.862-0.092,1.3-0.093
	c2.937,0.006,5.672,1.201,7.655,3.316c0.344,0.492,0.865,0.771,1.432,0.771c0.977,0,1.768-0.79,1.768-1.764
	c0-0.523-0.418-1.123-0.582-1.336C41.562,31.992,38.718,30.512,35.611,30.043z M56.094,21.564l0.002-0.18h-0.177
	c-0.013-0.013-0.024-0.021-0.035-0.029c-1.97-1.998-4.158-3.694-6.506-5.078l-2.585,2.584c2.48,1.359,4.782,3.108,6.837,5.226
	c0.054,0.034,0.537,0.352,1.103,0.352c0.978,0,1.77-0.793,1.77-1.771C56.5,22.281,56.357,21.898,56.094,21.564z M49.58,27.706
	c-2.023-2.03-4.361-3.614-6.887-4.744l-2.691,2.69c2.766,1.006,5.302,2.633,7.426,4.857c0.051,0.045,0.5,0.441,1.244,0.441
	c0.973,0,1.766-0.795,1.766-1.77C50.436,28.373,49.846,27.909,49.58,27.706z M33.633,38.551c-2.396,0-4.343,1.945-4.343,4.34
	c0,2.396,1.947,4.344,4.343,4.344c2.393,0,4.342-1.947,4.342-4.344C37.975,40.496,36.025,38.551,33.633,38.551z"/>
<path opacity="0.15" d="M33.633,48.234c-2.946,0-5.343-2.397-5.343-5.344c0-2.944,2.397-5.34,5.343-5.34
	c2.945,0,5.342,2.396,5.342,5.34C38.975,45.837,36.578,48.234,33.633,48.234z M42.582,38.455c-0.873,0-1.672-0.412-2.204-1.134
	c-1.806-1.9-4.248-2.949-6.885-2.954c-0.351,0.001-0.724,0.027-1.172,0.085c-0.042,0.005-0.085,0.008-0.127,0.008
	c-0.377,0-0.728-0.214-0.897-0.56c-0.188-0.384-0.111-0.845,0.191-1.147l3.417-3.417c0.188-0.189,0.443-0.293,0.707-0.293
	c0.05,0,0.1,0.004,0.149,0.011c3.37,0.509,6.392,2.106,8.738,4.619c0.355,0.455,0.851,1.217,0.851,2.019
	C45.35,37.215,44.108,38.455,42.582,38.455z M24.285,38.127c-0.073,0-0.146-0.008-0.22-0.024c-1.253-0.282-2.163-1.418-2.163-2.7
	c0-1.053,0.6-1.744,0.721-1.872c2.327-2.429,5.297-3.974,8.594-4.474c0.05-0.008,0.101-0.012,0.15-0.012
	c0.373,0,0.72,0.209,0.892,0.549c0.195,0.386,0.12,0.853-0.186,1.158l-7.083,7.082C24.803,38.023,24.547,38.127,24.285,38.127z
	 M18.405,31.953c-1.525,0-2.766-1.243-2.766-2.771c0-0.931,0.474-1.675,0.935-2.078c4.494-4.59,10.502-7.118,16.922-7.118
	c2.108,0,4.244,0.298,6.351,0.887c0.342,0.096,0.607,0.366,0.698,0.709c0.09,0.344-0.01,0.709-0.261,0.96l-2.934,2.933
	c-0.189,0.189-0.444,0.293-0.707,0.293c-0.055,0-0.109-0.004-0.165-0.014c-1.085-0.181-2.062-0.271-2.984-0.272
	c-4.941,0.013-9.584,1.991-13.068,5.57C19.968,31.598,19.195,31.953,18.405,31.953z M48.672,31.951c-1.043,0-1.723-0.53-1.906-0.692
	c-2.047-2.139-4.417-3.689-7.105-4.667c-0.321-0.117-0.561-0.39-0.635-0.724c-0.073-0.333,0.028-0.682,0.27-0.923l2.691-2.69
	c0.191-0.192,0.447-0.293,0.707-0.293c0.138,0,0.277,0.028,0.408,0.087c2.677,1.197,5.078,2.847,7.14,4.904
	c0.351,0.271,1.193,0.981,1.196,2.227C51.438,30.709,50.197,31.951,48.672,31.951z M54.732,25.439c-0.735,0-1.342-0.318-1.638-0.507
	c-0.064-0.042-0.129-0.093-0.183-0.149c-1.964-2.024-4.185-3.722-6.6-5.045c-0.276-0.151-0.465-0.424-0.51-0.735
	c-0.044-0.312,0.061-0.626,0.283-0.849l2.585-2.584c0.192-0.193,0.448-0.293,0.707-0.293c0.175,0,0.35,0.045,0.508,0.139
	c2.357,1.39,4.535,3.073,6.479,5.005c0.166,0.046,0.319,0.135,0.442,0.26c0.151,0.152,0.248,0.349,0.278,0.559
	c0.271,0.44,0.414,0.926,0.417,1.424C57.502,24.196,56.26,25.439,54.732,25.439z M12.267,25.439c-1.526,0-2.768-1.243-2.768-2.771
	c0-0.78,0.331-1.509,0.931-2.054c6.11-6.213,14.316-9.657,23.065-9.657c4.714,0,9.262,0.994,13.517,2.954
	c0.298,0.137,0.509,0.41,0.566,0.732c0.058,0.322-0.046,0.652-0.277,0.883l-2.68,2.679c-0.191,0.191-0.447,0.293-0.707,0.293
	c-0.127,0-0.255-0.024-0.377-0.074c-3.195-1.299-6.574-1.962-10.044-1.969c-7.252,0.015-14.066,2.892-19.186,8.104
	C13.987,24.933,13.275,25.439,12.267,25.439z"/>
<path opacity="0.15" d="M23.352,34.215c-0.046,0.049-0.449,0.498-0.449,1.188c0,0.843,0.593,1.547,1.382,1.725l7.083-7.082
	C28.331,30.506,25.538,31.934,23.352,34.215z M36.644,24.769l2.934-2.933c-1.96-0.548-3.997-0.85-6.081-0.85
	c-6.163,0-11.945,2.447-16.238,6.848c-0.063,0.052-0.619,0.53-0.619,1.348c0,0.978,0.792,1.771,1.766,1.771
	c0.508,0,0.992-0.229,1.305-0.598c3.672-3.772,8.57-5.859,13.787-5.873C34.564,24.485,35.611,24.597,36.644,24.769z M43.914,17.499
	l2.68-2.679c-4.06-1.87-8.502-2.862-13.099-2.862c-8.481,0-16.441,3.347-22.393,9.398c-0.388,0.352-0.603,0.816-0.603,1.313
	c0,0.979,0.792,1.771,1.768,1.771c0.841,0,1.293-0.537,1.304-0.557c5.314-5.421,12.39-8.411,19.924-8.426
	C37.123,15.463,40.639,16.167,43.914,17.499z M35.611,30.043l-3.417,3.417c0.429-0.055,0.862-0.092,1.3-0.093
	c2.937,0.006,5.672,1.201,7.655,3.316c0.344,0.492,0.865,0.771,1.432,0.771c0.977,0,1.768-0.79,1.768-1.764
	c0-0.523-0.418-1.123-0.582-1.336C41.562,31.992,38.718,30.512,35.611,30.043z M56.094,21.564l0.002-0.18h-0.177
	c-0.013-0.013-0.024-0.021-0.035-0.029c-1.97-1.998-4.158-3.694-6.506-5.078l-2.585,2.584c2.48,1.359,4.782,3.108,6.837,5.226
	c0.054,0.034,0.537,0.352,1.103,0.352c0.978,0,1.77-0.793,1.77-1.771C56.5,22.281,56.357,21.898,56.094,21.564z M49.58,27.706
	c-2.023-2.03-4.361-3.614-6.887-4.744l-2.691,2.69c2.766,1.006,5.302,2.633,7.426,4.857c0.051,0.045,0.5,0.441,1.244,0.441
	c0.973,0,1.766-0.795,1.766-1.77C50.436,28.373,49.846,27.909,49.58,27.706z M33.633,38.551c-2.396,0-4.343,1.945-4.343,4.34
	c0,2.396,1.947,4.344,4.343,4.344c2.393,0,4.342-1.947,4.342-4.344C37.975,40.496,36.025,38.551,33.633,38.551z"/>
<linearGradient id="SVGID_1_" gradientUnits="userSpaceOnUse" x1="33.5005" y1="47.2344" x2="33.5005" y2="11.9575">
	<stop  offset="0" style="stop-color:#D0CBC5"/>
	<stop  offset="0.5031" style="stop-color:#FAFCEF"/>
	<stop  offset="0.9693" style="stop-color:#FFFFFF"/>
</linearGradient>
<path fill="url(#SVGID_1_)" d="M23.352,34.215c-0.046,0.049-0.449,0.498-0.449,1.188c0,0.843,0.593,1.547,1.382,1.725l7.083-7.082
	C28.331,30.506,25.538,31.934,23.352,34.215z M36.644,24.769l2.934-2.933c-1.96-0.548-3.997-0.85-6.081-0.85
	c-6.163,0-11.945,2.447-16.238,6.848c-0.063,0.052-0.619,0.53-0.619,1.348c0,0.978,0.792,1.771,1.766,1.771
	c0.508,0,0.992-0.229,1.305-0.598c3.672-3.772,8.57-5.859,13.787-5.873C34.564,24.485,35.611,24.597,36.644,24.769z M43.914,17.499
	l2.68-2.679c-4.06-1.87-8.502-2.862-13.099-2.862c-8.481,0-16.441,3.347-22.393,9.398c-0.388,0.352-0.603,0.816-0.603,1.313
	c0,0.979,0.792,1.771,1.768,1.771c0.841,0,1.293-0.537,1.304-0.557c5.314-5.421,12.39-8.411,19.924-8.426
	C37.123,15.463,40.639,16.167,43.914,17.499z M35.611,30.043l-3.417,3.417c0.429-0.055,0.862-0.092,1.3-0.093
	c2.937,0.006,5.672,1.201,7.655,3.316c0.344,0.492,0.865,0.771,1.432,0.771c0.977,0,1.768-0.79,1.768-1.764
	c0-0.523-0.418-1.123-0.582-1.336C41.562,31.992,38.718,30.512,35.611,30.043z M56.094,21.564l0.002-0.18h-0.177
	c-0.013-0.013-0.024-0.021-0.035-0.029c-1.97-1.998-4.158-3.694-6.506-5.078l-2.585,2.584c2.48,1.359,4.782,3.108,6.837,5.226
	c0.054,0.034,0.537,0.352,1.103,0.352c0.978,0,1.77-0.793,1.77-1.771C56.5,22.281,56.357,21.898,56.094,21.564z M49.58,27.706
	c-2.023-2.03-4.361-3.614-6.887-4.744l-2.691,2.69c2.766,1.006,5.302,2.633,7.426,4.857c0.051,0.045,0.5,0.441,1.244,0.441
	c0.973,0,1.766-0.795,1.766-1.77C50.436,28.373,49.846,27.909,49.58,27.706z M33.633,38.551c-2.396,0-4.343,1.945-4.343,4.34
	c0,2.396,1.947,4.344,4.343,4.344c2.393,0,4.342-1.947,4.342-4.344C37.975,40.496,36.025,38.551,33.633,38.551z"/>
<path fill="#FFFFFF" d="M23.352,34.215c-0.046,0.049-0.449,0.498-0.449,1.188c0,0.168,0.04,0.325,0.084,0.479
	c0.12-0.386,0.333-0.632,0.365-0.667c1.881-1.963,4.213-3.29,6.762-3.917l1.253-1.253C28.331,30.506,25.538,31.934,23.352,34.215z"
	/>
<path fill="#FFFFFF" d="M11.102,22.355c5.952-6.051,13.912-9.398,22.393-9.398c4.335,0,8.529,0.893,12.398,2.563l0.7-0.7
	c-4.06-1.87-8.502-2.862-13.099-2.862c-8.481,0-16.441,3.347-22.393,9.398c-0.388,0.352-0.603,0.816-0.603,1.313
	c0,0.178,0.034,0.346,0.083,0.507C10.675,22.869,10.847,22.586,11.102,22.355z"/>
<path fill="#FFFFFF" d="M49.378,17.277c2.348,1.384,4.536,3.08,6.506,5.078c0.011,0.008,0.022,0.016,0.035,0.029h0.177l-0.002,0.18
	c0.154,0.195,0.253,0.409,0.32,0.629c0.052-0.167,0.088-0.341,0.088-0.525c-0.002-0.387-0.145-0.77-0.408-1.104l0.002-0.18h-0.177
	c-0.013-0.013-0.024-0.021-0.035-0.029c-1.97-1.998-4.158-3.694-6.506-5.078l-2.585,2.584c0.213,0.116,0.416,0.252,0.626,0.375
	L49.378,17.277z"/>
<path fill="#FFFFFF" d="M35.611,30.043l-3.417,3.417c0.355-0.045,0.715-0.066,1.077-0.077l2.34-2.34
	c3.106,0.469,5.95,1.949,8.156,4.313c0.116,0.151,0.356,0.5,0.488,0.876c0.056-0.171,0.094-0.351,0.094-0.54
	c0-0.523-0.418-1.123-0.582-1.336C41.562,31.992,38.718,30.512,35.611,30.043z"/>
<path fill="#FFFFFF" d="M33.496,20.986c-6.163,0-11.945,2.447-16.238,6.848c-0.063,0.052-0.619,0.53-0.619,1.348
	c0,0.175,0.033,0.34,0.08,0.499c0.154-0.508,0.49-0.806,0.539-0.847c4.293-4.401,10.075-6.848,16.238-6.848
	c1.802,0,3.565,0.238,5.278,0.653l0.803-0.803C37.617,21.288,35.58,20.986,33.496,20.986z"/>
<path fill="#FFFFFF" d="M49.58,27.706c-2.023-2.03-4.361-3.614-6.887-4.744l-2.691,2.69c0.241,0.088,0.479,0.187,0.717,0.284
	l1.975-1.974c2.525,1.13,4.863,2.714,6.887,4.744c0.207,0.158,0.602,0.48,0.771,0.994c0.051-0.165,0.086-0.337,0.086-0.519
	C50.436,28.373,49.846,27.909,49.58,27.706z"/>
<path fill="#FFFFFF" d="M33.633,38.551c-2.396,0-4.343,1.945-4.343,4.34c0,0.171,0.031,0.334,0.05,0.5
	c0.251-2.156,2.068-3.84,4.292-3.84c2.222,0,4.039,1.684,4.291,3.84c0.02-0.166,0.051-0.329,0.051-0.5
	C37.975,40.496,36.025,38.551,33.633,38.551z"/>
<path fill="#FF0000" d="M9.5,52.377c-0.383,0-0.767-0.146-1.06-0.439c-0.587-0.586-0.587-1.535-0.002-2.119L55.818,2.44
	c0.586-0.586,1.533-0.585,2.119,0.001c0.586,0.587,0.588,1.535,0.002,2.12L10.561,51.938C10.269,52.23,9.884,52.377,9.5,52.377
	L9.5,52.377z"/>
</svg>
